<svg width="707" height="165" viewBox="0 0 707 165" fill="none" xmlns="http://www.w3.org/2000/svg">
<path d="M391 142.5C391 130.074 401.074 120 413.5 120H684.5C696.926 120 707 130.074 707 142.5V142.5C707 154.926 696.926 165 684.5 165H413.5C401.074 165 391 154.926 391 142.5V142.5Z" fill="black"/>
<path fill-rule="evenodd" clip-rule="evenodd" d="M684.5 122H413.5C402.178 122 393 131.178 393 142.5C393 153.822 402.178 163 413.5 163H684.5C695.822 163 705 153.822 705 142.5C705 131.178 695.822 122 684.5 122ZM413.5 120C401.074 120 391 130.074 391 142.5C391 154.926 401.074 165 413.5 165H684.5C696.926 165 707 154.926 707 142.5C707 130.074 696.926 120 684.5 120H413.5Z" fill="white"/>
<path d="M680.145 139.434C679.84 139.285 679.438 139.117 678.938 138.93C678.438 138.742 677.871 138.566 677.238 138.402C676.605 138.23 675.918 138.09 675.176 137.98C674.434 137.863 673.672 137.805 672.891 137.805C672.266 137.805 671.73 137.824 671.285 137.863C670.848 137.902 670.477 137.953 670.172 138.016C669.875 138.078 669.637 138.152 669.457 138.238C669.285 138.316 669.152 138.398 669.059 138.484C668.965 138.57 668.902 138.656 668.871 138.742C668.848 138.828 668.836 138.906 668.836 138.977C668.836 139.211 668.953 139.418 669.188 139.598C669.422 139.77 669.742 139.926 670.148 140.066C670.555 140.199 671.027 140.328 671.566 140.453C672.105 140.57 672.676 140.695 673.277 140.828C673.887 140.953 674.512 141.094 675.152 141.25C675.801 141.398 676.426 141.574 677.027 141.777C677.637 141.98 678.211 142.219 678.75 142.492C679.289 142.758 679.762 143.07 680.168 143.43C680.574 143.789 680.895 144.203 681.129 144.672C681.363 145.141 681.48 145.676 681.48 146.277C681.48 147.051 681.344 147.715 681.07 148.27C680.797 148.824 680.43 149.293 679.969 149.676C679.516 150.059 678.988 150.367 678.387 150.602C677.785 150.828 677.152 151.004 676.488 151.129C675.832 151.254 675.164 151.336 674.484 151.375C673.812 151.414 673.172 151.434 672.562 151.434C670.969 151.434 669.492 151.301 668.133 151.035C666.781 150.777 665.586 150.453 664.547 150.062V146.219C665.617 146.812 666.836 147.277 668.203 147.613C669.578 147.949 671.047 148.117 672.609 148.117C673.531 148.117 674.281 148.07 674.859 147.977C675.445 147.875 675.902 147.75 676.23 147.602C676.559 147.445 676.781 147.277 676.898 147.098C677.016 146.918 677.074 146.746 677.074 146.582C677.074 146.324 676.957 146.102 676.723 145.914C676.488 145.719 676.168 145.551 675.762 145.41C675.355 145.262 674.883 145.129 674.344 145.012C673.805 144.887 673.23 144.766 672.621 144.648C672.02 144.523 671.398 144.391 670.758 144.25C670.117 144.109 669.492 143.945 668.883 143.758C668.281 143.562 667.711 143.34 667.172 143.09C666.633 142.832 666.16 142.531 665.754 142.188C665.348 141.836 665.027 141.434 664.793 140.98C664.559 140.52 664.441 139.988 664.441 139.387C664.441 138.676 664.566 138.062 664.816 137.547C665.066 137.031 665.402 136.594 665.824 136.234C666.254 135.867 666.746 135.57 667.301 135.344C667.863 135.117 668.453 134.941 669.07 134.816C669.688 134.691 670.312 134.605 670.945 134.559C671.578 134.512 672.18 134.488 672.75 134.488C673.375 134.488 674.016 134.52 674.672 134.582C675.336 134.645 675.988 134.734 676.629 134.852C677.27 134.961 677.887 135.09 678.48 135.238C679.082 135.387 679.637 135.543 680.145 135.707V139.434Z" fill="white"/>
<path d="M655.992 151V141.977C655.992 141.375 655.941 140.832 655.84 140.348C655.738 139.855 655.547 139.438 655.266 139.094C654.992 138.742 654.605 138.473 654.105 138.285C653.613 138.09 652.977 137.992 652.195 137.992C651.602 137.992 650.977 138.074 650.32 138.238C649.672 138.395 649.027 138.605 648.387 138.871C647.746 139.137 647.133 139.445 646.547 139.797C645.969 140.148 645.453 140.516 645 140.898V151H640.652V134.898H645V137.102C645.547 136.789 646.129 136.48 646.746 136.176C647.363 135.863 648.02 135.582 648.715 135.332C649.41 135.082 650.148 134.879 650.93 134.723C651.711 134.566 652.535 134.488 653.402 134.488C654.488 134.488 655.457 134.621 656.309 134.887C657.168 135.145 657.895 135.516 658.488 136C659.082 136.477 659.535 137.059 659.848 137.746C660.168 138.426 660.328 139.188 660.328 140.031V151H655.992Z" fill="white"/>
<path d="M635.379 150.203C634.059 150.641 632.738 150.953 631.418 151.141C630.105 151.336 628.762 151.434 627.387 151.434C625.629 151.434 624.062 151.246 622.688 150.871C621.32 150.488 620.168 149.938 619.23 149.219C618.293 148.5 617.578 147.621 617.086 146.582C616.594 145.543 616.348 144.367 616.348 143.055C616.348 141.836 616.594 140.707 617.086 139.668C617.586 138.621 618.289 137.715 619.195 136.949C620.109 136.176 621.211 135.574 622.5 135.145C623.789 134.707 625.227 134.488 626.812 134.488C628.273 134.488 629.609 134.688 630.82 135.086C632.039 135.477 633.082 136.059 633.949 136.832C634.824 137.605 635.5 138.559 635.977 139.691C636.461 140.824 636.703 142.129 636.703 143.605V144.684H620.836C620.977 145.191 621.207 145.656 621.527 146.078C621.855 146.5 622.297 146.859 622.852 147.156C623.406 147.453 624.086 147.684 624.891 147.848C625.703 148.012 626.672 148.094 627.797 148.094C628.594 148.094 629.375 148.047 630.141 147.953C630.906 147.852 631.621 147.723 632.285 147.566C632.949 147.402 633.547 147.223 634.078 147.027C634.617 146.832 635.051 146.637 635.379 146.441V150.203ZM632.379 141.496C632.34 141.098 632.219 140.688 632.016 140.266C631.82 139.836 631.508 139.449 631.078 139.105C630.648 138.762 630.086 138.48 629.391 138.262C628.695 138.035 627.828 137.922 626.789 137.922C625.812 137.922 624.969 138.043 624.258 138.285C623.547 138.527 622.949 138.828 622.465 139.188C621.988 139.547 621.617 139.934 621.352 140.348C621.086 140.762 620.914 141.145 620.836 141.496H632.379Z" fill="white"/>
<path d="M609.258 151C609.18 150.125 608.969 149.359 608.625 148.703C608.281 148.039 607.848 147.469 607.324 146.992C606.809 146.516 606.223 146.121 605.566 145.809C604.918 145.496 604.25 145.25 603.562 145.07C602.875 144.883 602.188 144.754 601.5 144.684C600.82 144.605 600.188 144.566 599.602 144.566H598.312V151H593.965V134.898H598.312V141.109H599.203C599.805 141.109 600.434 141.062 601.09 140.969C601.746 140.875 602.395 140.727 603.035 140.523C603.684 140.32 604.305 140.059 604.898 139.738C605.492 139.418 606.023 139.027 606.492 138.566C606.961 138.105 607.352 137.574 607.664 136.973C607.977 136.363 608.172 135.672 608.25 134.898H612.68C612.602 135.75 612.43 136.52 612.164 137.207C611.906 137.895 611.582 138.512 611.191 139.059C610.809 139.598 610.379 140.07 609.902 140.477C609.426 140.883 608.938 141.234 608.438 141.531C607.938 141.82 607.438 142.062 606.938 142.258C606.445 142.445 605.984 142.59 605.555 142.691C606.102 142.777 606.668 142.914 607.254 143.102C607.848 143.281 608.434 143.523 609.012 143.828C609.59 144.125 610.141 144.492 610.664 144.93C611.195 145.367 611.672 145.879 612.094 146.465C612.516 147.051 612.867 147.719 613.148 148.469C613.43 149.219 613.609 150.062 613.688 151H609.258Z" fill="white"/>
<path d="M590.004 142.961C590.004 144.344 589.75 145.566 589.242 146.629C588.734 147.684 588.008 148.566 587.062 149.277C586.117 149.988 584.969 150.527 583.617 150.895C582.273 151.254 580.762 151.434 579.082 151.434C577.402 151.434 575.883 151.254 574.523 150.895C573.172 150.527 572.02 149.988 571.066 149.277C570.113 148.566 569.379 147.684 568.863 146.629C568.348 145.566 568.09 144.344 568.09 142.961C568.09 141.578 568.348 140.359 568.863 139.305C569.379 138.242 570.113 137.355 571.066 136.645C572.02 135.934 573.172 135.398 574.523 135.039C575.883 134.672 577.402 134.488 579.082 134.488C580.762 134.488 582.273 134.672 583.617 135.039C584.969 135.398 586.117 135.934 587.062 136.645C588.008 137.355 588.734 138.242 589.242 139.305C589.75 140.359 590.004 141.578 590.004 142.961ZM585.609 142.961C585.609 142.359 585.512 141.762 585.316 141.168C585.129 140.566 584.789 140.027 584.297 139.551C583.812 139.074 583.148 138.688 582.305 138.391C581.461 138.094 580.387 137.945 579.082 137.945C578.207 137.945 577.438 138.016 576.773 138.156C576.109 138.289 575.535 138.477 575.051 138.719C574.566 138.961 574.16 139.246 573.832 139.574C573.504 139.895 573.242 140.242 573.047 140.617C572.852 140.984 572.711 141.371 572.625 141.777C572.547 142.176 572.508 142.57 572.508 142.961C572.508 143.359 572.547 143.762 572.625 144.168C572.711 144.574 572.852 144.965 573.047 145.34C573.242 145.707 573.504 146.051 573.832 146.371C574.16 146.691 574.566 146.973 575.051 147.215C575.535 147.449 576.109 147.637 576.773 147.777C577.438 147.91 578.207 147.977 579.082 147.977C580.387 147.977 581.461 147.828 582.305 147.531C583.148 147.234 583.812 146.848 584.297 146.371C584.789 145.895 585.129 145.359 585.316 144.766C585.512 144.164 585.609 143.562 585.609 142.961Z" fill="white"/>
<path d="M559.441 138.402V151H555.094V138.402H548.262V134.898H566.285V138.402H559.441Z" fill="white"/>
<path d="M526.102 144.109C526.102 144.781 526.164 145.332 526.289 145.762C526.414 146.184 526.617 146.52 526.898 146.77C527.18 147.02 527.543 147.191 527.988 147.285C528.441 147.379 528.996 147.426 529.652 147.426H537.902V151H528.762C527.496 151 526.418 150.898 525.527 150.695C524.645 150.484 523.922 150.164 523.359 149.734C522.797 149.297 522.387 148.746 522.129 148.082C521.879 147.418 521.754 146.629 521.754 145.715V134.898H526.102V144.109Z" fill="white"/>
<path d="M516.48 150.203C515.16 150.641 513.84 150.953 512.52 151.141C511.207 151.336 509.863 151.434 508.488 151.434C506.73 151.434 505.164 151.246 503.789 150.871C502.422 150.488 501.27 149.938 500.332 149.219C499.395 148.5 498.68 147.621 498.188 146.582C497.695 145.543 497.449 144.367 497.449 143.055C497.449 141.836 497.695 140.707 498.188 139.668C498.688 138.621 499.391 137.715 500.297 136.949C501.211 136.176 502.312 135.574 503.602 135.145C504.891 134.707 506.328 134.488 507.914 134.488C509.375 134.488 510.711 134.688 511.922 135.086C513.141 135.477 514.184 136.059 515.051 136.832C515.926 137.605 516.602 138.559 517.078 139.691C517.562 140.824 517.805 142.129 517.805 143.605V144.684H501.938C502.078 145.191 502.309 145.656 502.629 146.078C502.957 146.5 503.398 146.859 503.953 147.156C504.508 147.453 505.188 147.684 505.992 147.848C506.805 148.012 507.773 148.094 508.898 148.094C509.695 148.094 510.477 148.047 511.242 147.953C512.008 147.852 512.723 147.723 513.387 147.566C514.051 147.402 514.648 147.223 515.18 147.027C515.719 146.832 516.152 146.637 516.48 146.441V150.203ZM513.48 141.496C513.441 141.098 513.32 140.688 513.117 140.266C512.922 139.836 512.609 139.449 512.18 139.105C511.75 138.762 511.188 138.48 510.492 138.262C509.797 138.035 508.93 137.922 507.891 137.922C506.914 137.922 506.07 138.043 505.359 138.285C504.648 138.527 504.051 138.828 503.566 139.188C503.09 139.547 502.719 139.934 502.453 140.348C502.188 140.762 502.016 141.145 501.938 141.496H513.48Z" fill="white"/>
<path d="M494.555 142.938C494.555 143.969 494.441 144.887 494.215 145.691C493.988 146.488 493.668 147.184 493.254 147.777C492.848 148.371 492.355 148.875 491.777 149.289C491.207 149.703 490.57 150.035 489.867 150.285C489.164 150.535 488.406 150.719 487.594 150.836C486.781 150.945 485.934 151 485.051 151H474.832V134.898H485.027C485.91 134.898 486.758 134.957 487.57 135.074C488.383 135.184 489.141 135.363 489.844 135.613C490.555 135.863 491.199 136.195 491.777 136.609C492.355 137.016 492.848 137.52 493.254 138.121C493.668 138.715 493.988 139.41 494.215 140.207C494.441 141.004 494.555 141.914 494.555 142.938ZM490.172 142.938C490.172 142.164 490.07 141.492 489.867 140.922C489.672 140.352 489.352 139.883 488.906 139.516C488.469 139.141 487.895 138.863 487.184 138.684C486.473 138.496 485.605 138.402 484.582 138.402H479.18V147.496H484.582C485.605 147.496 486.473 147.406 487.184 147.227C487.895 147.039 488.469 146.758 488.906 146.383C489.352 146 489.672 145.523 489.867 144.953C490.07 144.383 490.172 143.711 490.172 142.938Z" fill="white"/>
<path d="M470.871 142.961C470.871 144.344 470.617 145.566 470.109 146.629C469.602 147.684 468.875 148.566 467.93 149.277C466.984 149.988 465.836 150.527 464.484 150.895C463.141 151.254 461.629 151.434 459.949 151.434C458.27 151.434 456.75 151.254 455.391 150.895C454.039 150.527 452.887 149.988 451.934 149.277C450.98 148.566 450.246 147.684 449.73 146.629C449.215 145.566 448.957 144.344 448.957 142.961C448.957 141.578 449.215 140.359 449.73 139.305C450.246 138.242 450.98 137.355 451.934 136.645C452.887 135.934 454.039 135.398 455.391 135.039C456.75 134.672 458.27 134.488 459.949 134.488C461.629 134.488 463.141 134.672 464.484 135.039C465.836 135.398 466.984 135.934 467.93 136.645C468.875 137.355 469.602 138.242 470.109 139.305C470.617 140.359 470.871 141.578 470.871 142.961ZM466.477 142.961C466.477 142.359 466.379 141.762 466.184 141.168C465.996 140.566 465.656 140.027 465.164 139.551C464.68 139.074 464.016 138.688 463.172 138.391C462.328 138.094 461.254 137.945 459.949 137.945C459.074 137.945 458.305 138.016 457.641 138.156C456.977 138.289 456.402 138.477 455.918 138.719C455.434 138.961 455.027 139.246 454.699 139.574C454.371 139.895 454.109 140.242 453.914 140.617C453.719 140.984 453.578 141.371 453.492 141.777C453.414 142.176 453.375 142.57 453.375 142.961C453.375 143.359 453.414 143.762 453.492 144.168C453.578 144.574 453.719 144.965 453.914 145.34C454.109 145.707 454.371 146.051 454.699 146.371C455.027 146.691 455.434 146.973 455.918 147.215C456.402 147.449 456.977 147.637 457.641 147.777C458.305 147.91 459.074 147.977 459.949 147.977C461.254 147.977 462.328 147.828 463.172 147.531C464.016 147.234 464.68 146.848 465.164 146.371C465.656 145.895 465.996 145.359 466.184 144.766C466.379 144.164 466.477 143.562 466.477 142.961Z" fill="white"/>
<path d="M420.867 134.898V136.668C421.25 136.426 421.664 136.176 422.109 135.918C422.562 135.66 423.051 135.426 423.574 135.215C424.105 135.004 424.672 134.832 425.273 134.699C425.883 134.559 426.539 134.488 427.242 134.488C427.93 134.488 428.531 134.562 429.047 134.711C429.562 134.852 430.008 135.039 430.383 135.273C430.766 135.5 431.09 135.758 431.355 136.047C431.621 136.328 431.852 136.609 432.047 136.891C432.602 136.531 433.148 136.203 433.688 135.906C434.227 135.609 434.77 135.355 435.316 135.145C435.863 134.934 436.422 134.773 436.992 134.664C437.562 134.547 438.156 134.488 438.773 134.488C439.758 134.488 440.637 134.625 441.41 134.898C442.191 135.172 442.852 135.547 443.391 136.023C443.93 136.5 444.34 137.062 444.621 137.711C444.91 138.352 445.055 139.039 445.055 139.773V151H440.707V140.395C440.707 139.965 440.641 139.594 440.508 139.281C440.375 138.969 440.195 138.715 439.969 138.52C439.75 138.324 439.488 138.18 439.184 138.086C438.887 137.992 438.57 137.945 438.234 137.945C436.672 137.945 434.891 138.648 432.891 140.055C432.914 140.188 432.93 140.344 432.938 140.523C432.953 140.703 432.961 140.883 432.961 141.062V151H428.613V140.301C428.613 139.871 428.547 139.508 428.414 139.211C428.281 138.906 428.098 138.66 427.863 138.473C427.637 138.285 427.371 138.152 427.066 138.074C426.77 137.988 426.453 137.945 426.117 137.945C425.711 137.945 425.281 138.004 424.828 138.121C424.383 138.238 423.93 138.402 423.469 138.613C423.016 138.824 422.566 139.074 422.121 139.363C421.684 139.652 421.266 139.965 420.867 140.301V151H416.52V134.898H420.867Z" fill="white"/>
<path d="M0 22.5C0 10.0736 10.0736 0 22.5 0H327.5C339.926 0 350 10.0736 350 22.5V22.5C350 34.9264 339.926 45 327.5 45H22.5C10.0736 45 0 34.9264 0 22.5V22.5Z" fill="black"/>
<path fill-rule="evenodd" clip-rule="evenodd" d="M327.5 2H22.5C11.1782 2 2 11.1782 2 22.5C2 33.8218 11.1782 43 22.5 43H327.5C338.822 43 348 33.8218 348 22.5C348 11.1782 338.822 2 327.5 2ZM22.5 0C10.0736 0 0 10.0736 0 22.5C0 34.9264 10.0736 45 22.5 45H327.5C339.926 45 350 34.9264 350 22.5C350 10.0736 339.926 0 327.5 0H22.5Z" fill="white"/>
<path d="M320.832 19.4336C320.527 19.2852 320.125 19.1172 319.625 18.9297C319.125 18.7422 318.559 18.5664 317.926 18.4023C317.293 18.2305 316.605 18.0898 315.863 17.9805C315.121 17.8633 314.359 17.8047 313.578 17.8047C312.953 17.8047 312.418 17.8242 311.973 17.8633C311.535 17.9023 311.164 17.9531 310.859 18.0156C310.562 18.0781 310.324 18.1523 310.145 18.2383C309.973 18.3164 309.84 18.3984 309.746 18.4844C309.652 18.5703 309.59 18.6562 309.559 18.7422C309.535 18.8281 309.523 18.9062 309.523 18.9766C309.523 19.2109 309.641 19.418 309.875 19.5977C310.109 19.7695 310.43 19.9258 310.836 20.0664C311.242 20.1992 311.715 20.3281 312.254 20.4531C312.793 20.5703 313.363 20.6953 313.965 20.8281C314.574 20.9531 315.199 21.0938 315.84 21.25C316.488 21.3984 317.113 21.5742 317.715 21.7773C318.324 21.9805 318.898 22.2188 319.438 22.4922C319.977 22.7578 320.449 23.0703 320.855 23.4297C321.262 23.7891 321.582 24.2031 321.816 24.6719C322.051 25.1406 322.168 25.6758 322.168 26.2773C322.168 27.0508 322.031 27.7148 321.758 28.2695C321.484 28.8242 321.117 29.293 320.656 29.6758C320.203 30.0586 319.676 30.3672 319.074 30.6016C318.473 30.8281 317.84 31.0039 317.176 31.1289C316.52 31.2539 315.852 31.3359 315.172 31.375C314.5 31.4141 313.859 31.4336 313.25 31.4336C311.656 31.4336 310.18 31.3008 308.82 31.0352C307.469 30.7773 306.273 30.4531 305.234 30.0625V26.2188C306.305 26.8125 307.523 27.2773 308.891 27.6133C310.266 27.9492 311.734 28.1172 313.297 28.1172C314.219 28.1172 314.969 28.0703 315.547 27.9766C316.133 27.875 316.59 27.75 316.918 27.6016C317.246 27.4453 317.469 27.2773 317.586 27.0977C317.703 26.918 317.762 26.7461 317.762 26.582C317.762 26.3242 317.645 26.1016 317.41 25.9141C317.176 25.7188 316.855 25.5508 316.449 25.4102C316.043 25.2617 315.57 25.1289 315.031 25.0117C314.492 24.8867 313.918 24.7656 313.309 24.6484C312.707 24.5234 312.086 24.3906 311.445 24.25C310.805 24.1094 310.18 23.9453 309.57 23.7578C308.969 23.5625 308.398 23.3398 307.859 23.0898C307.32 22.832 306.848 22.5312 306.441 22.1875C306.035 21.8359 305.715 21.4336 305.48 20.9805C305.246 20.5195 305.129 19.9883 305.129 19.3867C305.129 18.6758 305.254 18.0625 305.504 17.5469C305.754 17.0312 306.09 16.5938 306.512 16.2344C306.941 15.8672 307.434 15.5703 307.988 15.3438C308.551 15.1172 309.141 14.9414 309.758 14.8164C310.375 14.6914 311 14.6055 311.633 14.5586C312.266 14.5117 312.867 14.4883 313.438 14.4883C314.062 14.4883 314.703 14.5195 315.359 14.582C316.023 14.6445 316.676 14.7344 317.316 14.8516C317.957 14.9609 318.574 15.0898 319.168 15.2383C319.77 15.3867 320.324 15.543 320.832 15.707V19.4336Z" fill="white"/>
<path d="M303.23 18.543C303.113 18.5039 302.941 18.4531 302.715 18.3906C302.496 18.3203 302.238 18.2539 301.941 18.1914C301.645 18.1211 301.316 18.0625 300.957 18.0156C300.605 17.9688 300.242 17.9453 299.867 17.9453C299.086 17.9453 298.355 18.043 297.676 18.2383C297.004 18.4258 296.375 18.6797 295.789 19C295.203 19.3125 294.656 19.6719 294.148 20.0781C293.648 20.4766 293.188 20.8867 292.766 21.3086V31H288.418V14.8984H292.766V17.5117C293.289 17.1211 293.824 16.7461 294.371 16.3867C294.926 16.0195 295.5 15.6953 296.094 15.4141C296.695 15.1328 297.328 14.9102 297.992 14.7461C298.656 14.5742 299.359 14.4883 300.102 14.4883C300.383 14.4883 300.668 14.5039 300.957 14.5352C301.254 14.5586 301.539 14.5898 301.812 14.6289C302.094 14.668 302.355 14.7109 302.598 14.7578C302.84 14.8047 303.051 14.8516 303.23 14.8984V18.543Z" fill="white"/>
<path d="M284.457 22.9609C284.457 24.3437 284.203 25.5664 283.695 26.6289C283.188 27.6836 282.461 28.5664 281.516 29.2773C280.57 29.9883 279.422 30.5273 278.07 30.8945C276.727 31.2539 275.215 31.4336 273.535 31.4336C271.855 31.4336 270.336 31.2539 268.977 30.8945C267.625 30.5273 266.473 29.9883 265.52 29.2773C264.566 28.5664 263.832 27.6836 263.316 26.6289C262.801 25.5664 262.543 24.3438 262.543 22.9609C262.543 21.5781 262.801 20.3594 263.316 19.3047C263.832 18.2422 264.566 17.3555 265.52 16.6445C266.473 15.9336 267.625 15.3984 268.977 15.0391C270.336 14.6719 271.855 14.4883 273.535 14.4883C275.215 14.4883 276.727 14.6719 278.07 15.0391C279.422 15.3984 280.57 15.9336 281.516 16.6445C282.461 17.3555 283.188 18.2422 283.695 19.3047C284.203 20.3594 284.457 21.5781 284.457 22.9609ZM280.062 22.9609C280.062 22.3594 279.965 21.7617 279.77 21.168C279.582 20.5664 279.242 20.0273 278.75 19.5508C278.266 19.0742 277.602 18.6875 276.758 18.3906C275.914 18.0937 274.84 17.9453 273.535 17.9453C272.66 17.9453 271.891 18.0156 271.227 18.1562C270.562 18.2891 269.988 18.4766 269.504 18.7188C269.02 18.9609 268.613 19.2461 268.285 19.5742C267.957 19.8945 267.695 20.2422 267.5 20.6172C267.305 20.9844 267.164 21.3711 267.078 21.7773C267 22.1758 266.961 22.5703 266.961 22.9609C266.961 23.3594 267 23.7617 267.078 24.168C267.164 24.5742 267.305 24.9648 267.5 25.3398C267.695 25.707 267.957 26.0508 268.285 26.3711C268.613 26.6914 269.02 26.9727 269.504 27.2148C269.988 27.4492 270.562 27.6367 271.227 27.7773C271.891 27.9102 272.66 27.9766 273.535 27.9766C274.84 27.9766 275.914 27.8281 276.758 27.5312C277.602 27.2344 278.266 26.8477 278.75 26.3711C279.242 25.8945 279.582 25.3594 279.77 24.7656C279.965 24.1641 280.062 23.5625 280.062 22.9609Z" fill="white"/>
<path d="M253.895 18.4023V31L249.547 31V18.4023H242.715V14.8984L260.738 14.8984V18.4023L253.895 18.4023Z" fill="white"/>
<path d="M235.672 31V29.418C235.117 29.7227 234.52 29.9922 233.879 30.2266C233.246 30.4609 232.586 30.6602 231.898 30.8242C231.211 30.9883 230.5 31.1094 229.766 31.1875C229.039 31.2734 228.305 31.3164 227.562 31.3164C226.695 31.3164 225.855 31.2344 225.043 31.0703C224.238 30.9062 223.523 30.6406 222.898 30.2734C222.273 29.9062 221.77 29.4258 221.387 28.832C221.012 28.2383 220.824 27.5117 220.824 26.6523C220.824 25.5664 221.121 24.6641 221.715 23.9453C222.309 23.2188 223.215 22.625 224.434 22.1641C225.652 21.7031 227.191 21.3477 229.051 21.0977C230.918 20.8477 233.125 20.6523 235.672 20.5117V20.1719C235.672 19.9062 235.602 19.6445 235.461 19.3867C235.32 19.1211 235.062 18.8906 234.688 18.6953C234.32 18.4922 233.812 18.3281 233.164 18.2031C232.523 18.0781 231.703 18.0156 230.703 18.0156C229.914 18.0156 229.133 18.0586 228.359 18.1445C227.594 18.2227 226.852 18.332 226.133 18.4727C225.422 18.6133 224.746 18.7773 224.105 18.9648C223.465 19.1523 222.883 19.3477 222.359 19.5508V15.6836C222.906 15.543 223.52 15.4062 224.199 15.2734C224.879 15.1406 225.586 15.0273 226.32 14.9336C227.055 14.832 227.797 14.7539 228.547 14.6992C229.297 14.6367 230.016 14.6055 230.703 14.6055C232.055 14.6055 233.301 14.7187 234.441 14.9453C235.582 15.1641 236.562 15.5078 237.383 15.9766C238.211 16.4453 238.855 17.0391 239.316 17.7578C239.785 18.4766 240.02 19.332 240.02 20.3242V31H235.672ZM235.672 23.6523C234 23.7148 232.578 23.8047 231.406 23.9219C230.242 24.0391 229.273 24.1758 228.5 24.332C227.727 24.4883 227.117 24.6562 226.672 24.8359C226.234 25.0156 225.906 25.1992 225.688 25.3867C225.469 25.5742 225.332 25.7617 225.277 25.9492C225.23 26.1367 225.207 26.3086 225.207 26.4648C225.207 26.6523 225.258 26.8359 225.359 27.0156C225.461 27.1875 225.637 27.3398 225.887 27.4727C226.145 27.6055 226.484 27.7109 226.906 27.7891C227.328 27.8672 227.859 27.9062 228.5 27.9062C229.211 27.9062 229.906 27.8516 230.586 27.7422C231.266 27.6328 231.91 27.4844 232.52 27.2969C233.129 27.1016 233.699 26.875 234.23 26.6172C234.77 26.3516 235.25 26.0703 235.672 25.7734V23.6523Z" fill="white"/>
<path d="M216.746 30.2031C215.426 30.6406 214.105 30.9531 212.785 31.1406C211.473 31.3359 210.129 31.4336 208.754 31.4336C206.996 31.4336 205.43 31.2461 204.055 30.8711C202.688 30.4883 201.535 29.9375 200.598 29.2188C199.66 28.5 198.945 27.6211 198.453 26.582C197.961 25.543 197.715 24.3672 197.715 23.0547C197.715 21.8359 197.961 20.707 198.453 19.668C198.953 18.6211 199.656 17.7148 200.562 16.9492C201.477 16.1758 202.578 15.5742 203.867 15.1445C205.156 14.707 206.594 14.4883 208.18 14.4883C209.641 14.4883 210.977 14.6875 212.188 15.0859C213.406 15.4766 214.449 16.0586 215.316 16.832C216.191 17.6055 216.867 18.5586 217.344 19.6914C217.828 20.8242 218.07 22.1289 218.07 23.6055V24.6836L202.203 24.6836C202.344 25.1914 202.574 25.6562 202.895 26.0781C203.223 26.5 203.664 26.8594 204.219 27.1562C204.773 27.4531 205.453 27.6836 206.258 27.8477C207.07 28.0117 208.039 28.0938 209.164 28.0938C209.961 28.0938 210.742 28.0469 211.508 27.9531C212.273 27.8516 212.988 27.7227 213.652 27.5664C214.316 27.4023 214.914 27.2227 215.445 27.0273C215.984 26.832 216.418 26.6367 216.746 26.4414V30.2031ZM213.746 21.4961C213.707 21.0977 213.586 20.6875 213.383 20.2656C213.188 19.8359 212.875 19.4492 212.445 19.1055C212.016 18.7617 211.453 18.4805 210.758 18.2617C210.062 18.0352 209.195 17.9219 208.156 17.9219C207.18 17.9219 206.336 18.043 205.625 18.2852C204.914 18.5273 204.316 18.8281 203.832 19.1875C203.355 19.5469 202.984 19.9336 202.719 20.3477C202.453 20.7617 202.281 21.1445 202.203 21.4961L213.746 21.4961Z" fill="white"/>
<path d="M196.027 18.543C195.91 18.5039 195.738 18.4531 195.512 18.3906C195.293 18.3203 195.035 18.2539 194.738 18.1914C194.441 18.1211 194.113 18.0625 193.754 18.0156C193.402 17.9688 193.039 17.9453 192.664 17.9453C191.883 17.9453 191.152 18.043 190.473 18.2383C189.801 18.4258 189.172 18.6797 188.586 19C188 19.3125 187.453 19.6719 186.945 20.0781C186.445 20.4766 185.984 20.8867 185.562 21.3086V31H181.215V14.8984H185.562V17.5117C186.086 17.1211 186.621 16.7461 187.168 16.3867C187.723 16.0195 188.297 15.6953 188.891 15.4141C189.492 15.1328 190.125 14.9102 190.789 14.7461C191.453 14.5742 192.156 14.4883 192.898 14.4883C193.18 14.4883 193.465 14.5039 193.754 14.5352C194.051 14.5586 194.336 14.5898 194.609 14.6289C194.891 14.668 195.152 14.7109 195.395 14.7578C195.637 14.8047 195.848 14.8516 196.027 14.8984V18.543Z" fill="white"/>
<path d="M177.16 29.8984C176.598 30.1328 176.031 30.3437 175.461 30.5312C174.891 30.7187 174.301 30.8789 173.691 31.0117C173.082 31.1523 172.438 31.2578 171.758 31.3281C171.086 31.3984 170.363 31.4336 169.59 31.4336C167.949 31.4336 166.438 31.2578 165.055 30.9062C163.68 30.5547 162.492 30.0273 161.492 29.3242C160.5 28.6133 159.727 27.7305 159.172 26.6758C158.617 25.6133 158.34 24.375 158.34 22.9609C158.34 21.5469 158.617 20.3125 159.172 19.2578C159.727 18.1953 160.5 17.3125 161.492 16.6094C162.492 15.8984 163.68 15.3672 165.055 15.0156C166.438 14.6641 167.949 14.4883 169.59 14.4883C170.363 14.4883 171.086 14.5234 171.758 14.5937C172.438 14.6641 173.082 14.7695 173.691 14.9102C174.301 15.043 174.891 15.2031 175.461 15.3906C176.031 15.5781 176.598 15.7891 177.16 16.0234V19.9375C176.715 19.6953 176.246 19.457 175.754 19.2227C175.262 18.9805 174.719 18.7656 174.125 18.5781C173.531 18.3828 172.879 18.2266 172.168 18.1094C171.457 17.9844 170.656 17.9219 169.766 17.9219C168.398 17.9219 167.262 18.0625 166.355 18.3438C165.457 18.625 164.738 19 164.199 19.4688C163.66 19.9375 163.281 20.4766 163.062 21.0859C162.844 21.6875 162.734 22.3125 162.734 22.9609C162.734 23.3906 162.781 23.8164 162.875 24.2383C162.969 24.6523 163.125 25.0469 163.344 25.4219C163.562 25.7891 163.848 26.1289 164.199 26.4414C164.551 26.7539 164.988 27.0234 165.512 27.25C166.035 27.4766 166.645 27.6562 167.34 27.7891C168.043 27.9141 168.852 27.9766 169.766 27.9766C170.656 27.9766 171.457 27.9219 172.168 27.8125C172.879 27.6953 173.531 27.543 174.125 27.3555C174.719 27.168 175.262 26.957 175.754 26.7227C176.246 26.4805 176.715 26.2344 177.16 25.9844V29.8984Z" fill="white"/>
<path d="M135.102 24.1094C135.102 24.7812 135.164 25.332 135.289 25.7617C135.414 26.1836 135.617 26.5195 135.898 26.7695C136.18 27.0195 136.543 27.1914 136.988 27.2852C137.441 27.3789 137.996 27.4258 138.652 27.4258H146.902V31L137.762 31C136.496 31 135.418 30.8984 134.527 30.6953C133.645 30.4844 132.922 30.1641 132.359 29.7344C131.797 29.2969 131.387 28.7461 131.129 28.082C130.879 27.418 130.754 26.6289 130.754 25.7148V14.8984H135.102V24.1094Z" fill="white"/>
<path d="M125.48 30.2031C124.16 30.6406 122.84 30.9531 121.52 31.1406C120.207 31.3359 118.863 31.4336 117.488 31.4336C115.73 31.4336 114.164 31.2461 112.789 30.8711C111.422 30.4883 110.27 29.9375 109.332 29.2188C108.395 28.5 107.68 27.6211 107.188 26.582C106.695 25.543 106.449 24.3672 106.449 23.0547C106.449 21.8359 106.695 20.707 107.188 19.668C107.688 18.6211 108.391 17.7148 109.297 16.9492C110.211 16.1758 111.312 15.5742 112.602 15.1445C113.891 14.707 115.328 14.4883 116.914 14.4883C118.375 14.4883 119.711 14.6875 120.922 15.0859C122.141 15.4766 123.184 16.0586 124.051 16.832C124.926 17.6055 125.602 18.5586 126.078 19.6914C126.562 20.8242 126.805 22.1289 126.805 23.6055V24.6836L110.938 24.6836C111.078 25.1914 111.309 25.6562 111.629 26.0781C111.957 26.5 112.398 26.8594 112.953 27.1562C113.508 27.4531 114.188 27.6836 114.992 27.8477C115.805 28.0117 116.773 28.0938 117.898 28.0938C118.695 28.0938 119.477 28.0469 120.242 27.9531C121.008 27.8516 121.723 27.7227 122.387 27.5664C123.051 27.4023 123.648 27.2227 124.18 27.0273C124.719 26.832 125.152 26.6367 125.48 26.4414V30.2031ZM122.48 21.4961C122.441 21.0977 122.32 20.6875 122.117 20.2656C121.922 19.8359 121.609 19.4492 121.18 19.1055C120.75 18.7617 120.188 18.4805 119.492 18.2617C118.797 18.0352 117.93 17.9219 116.891 17.9219C115.914 17.9219 115.07 18.043 114.359 18.2852C113.648 18.5273 113.051 18.8281 112.566 19.1875C112.09 19.5469 111.719 19.9336 111.453 20.3477C111.188 20.7617 111.016 21.1445 110.938 21.4961L122.48 21.4961Z" fill="white"/>
<path d="M103.555 22.9375C103.555 23.9687 103.441 24.8867 103.215 25.6914C102.988 26.4883 102.668 27.1836 102.254 27.7773C101.848 28.3711 101.355 28.875 100.777 29.2891C100.207 29.7031 99.5703 30.0352 98.8672 30.2852C98.1641 30.5352 97.4062 30.7188 96.5938 30.8359C95.7812 30.9453 94.9336 31 94.0508 31H83.832V14.8984L94.0273 14.8984C94.9102 14.8984 95.7578 14.957 96.5703 15.0742C97.3828 15.1836 98.1406 15.3633 98.8438 15.6133C99.5547 15.8633 100.199 16.1953 100.777 16.6094C101.355 17.0156 101.848 17.5195 102.254 18.1211C102.668 18.7148 102.988 19.4102 103.215 20.207C103.441 21.0039 103.555 21.9141 103.555 22.9375ZM99.1719 22.9375C99.1719 22.1641 99.0703 21.4922 98.8672 20.9219C98.6719 20.3516 98.3516 19.8828 97.9062 19.5156C97.4688 19.1406 96.8945 18.8633 96.1836 18.6836C95.4727 18.4961 94.6055 18.4023 93.582 18.4023H88.1797V27.4961H93.582C94.6055 27.4961 95.4727 27.4062 96.1836 27.2266C96.8945 27.0391 97.4688 26.7578 97.9062 26.3828C98.3516 26 98.6719 25.5234 98.8672 24.9531C99.0703 24.3828 99.1719 23.7109 99.1719 22.9375Z" fill="white"/>
<path d="M79.8711 22.9609C79.8711 24.3437 79.6172 25.5664 79.1094 26.6289C78.6016 27.6836 77.875 28.5664 76.9297 29.2773C75.9844 29.9883 74.8359 30.5273 73.4844 30.8945C72.1406 31.2539 70.6289 31.4336 68.9492 31.4336C67.2695 31.4336 65.75 31.2539 64.3906 30.8945C63.0391 30.5273 61.8867 29.9883 60.9336 29.2773C59.9805 28.5664 59.2461 27.6836 58.7305 26.6289C58.2148 25.5664 57.957 24.3438 57.957 22.9609C57.957 21.5781 58.2148 20.3594 58.7305 19.3047C59.2461 18.2422 59.9805 17.3555 60.9336 16.6445C61.8867 15.9336 63.0391 15.3984 64.3906 15.0391C65.75 14.6719 67.2695 14.4883 68.9492 14.4883C70.6289 14.4883 72.1406 14.6719 73.4844 15.0391C74.8359 15.3984 75.9844 15.9336 76.9297 16.6445C77.875 17.3555 78.6016 18.2422 79.1094 19.3047C79.6172 20.3594 79.8711 21.5781 79.8711 22.9609ZM75.4766 22.9609C75.4766 22.3594 75.3789 21.7617 75.1836 21.168C74.9961 20.5664 74.6562 20.0273 74.1641 19.5508C73.6797 19.0742 73.0156 18.6875 72.1719 18.3906C71.3281 18.0937 70.2539 17.9453 68.9492 17.9453C68.0742 17.9453 67.3047 18.0156 66.6406 18.1562C65.9766 18.2891 65.4023 18.4766 64.918 18.7188C64.4336 18.9609 64.0273 19.2461 63.6992 19.5742C63.3711 19.8945 63.1094 20.2422 62.9141 20.6172C62.7188 20.9844 62.5781 21.3711 62.4922 21.7773C62.4141 22.1758 62.375 22.5703 62.375 22.9609C62.375 23.3594 62.4141 23.7617 62.4922 24.168C62.5781 24.5742 62.7188 24.9648 62.9141 25.3398C63.1094 25.707 63.3711 26.0508 63.6992 26.3711C64.0273 26.6914 64.4336 26.9727 64.918 27.2148C65.4023 27.4492 65.9766 27.6367 66.6406 27.7773C67.3047 27.9102 68.0742 27.9766 68.9492 27.9766C70.2539 27.9766 71.3281 27.8281 72.1719 27.5312C73.0156 27.2344 73.6797 26.8477 74.1641 26.3711C74.6562 25.8945 74.9961 25.3594 75.1836 24.7656C75.3789 24.1641 75.4766 23.5625 75.4766 22.9609Z" fill="white"/>
<path d="M29.8672 14.8984V16.668C30.25 16.4258 30.6641 16.1758 31.1094 15.918C31.5625 15.6602 32.0508 15.4258 32.5742 15.2148C33.1055 15.0039 33.6719 14.832 34.2734 14.6992C34.8828 14.5586 35.5391 14.4883 36.2422 14.4883C36.9297 14.4883 37.5312 14.5625 38.0469 14.7109C38.5625 14.8516 39.0078 15.0391 39.3828 15.2734C39.7656 15.5 40.0898 15.7578 40.3555 16.0469C40.6211 16.3281 40.8516 16.6094 41.0469 16.8906C41.6016 16.5312 42.1484 16.2031 42.6875 15.9062C43.2266 15.6094 43.7695 15.3555 44.3164 15.1445C44.8633 14.9336 45.4219 14.7734 45.9922 14.6641C46.5625 14.5469 47.1562 14.4883 47.7734 14.4883C48.7578 14.4883 49.6367 14.625 50.4102 14.8984C51.1914 15.1719 51.8516 15.5469 52.3906 16.0234C52.9297 16.5 53.3398 17.0625 53.6211 17.7109C53.9102 18.3516 54.0547 19.0391 54.0547 19.7734V31H49.707V20.3945C49.707 19.9648 49.6406 19.5937 49.5078 19.2812C49.375 18.9687 49.1953 18.7148 48.9688 18.5195C48.75 18.3242 48.4883 18.1797 48.1836 18.0859C47.8867 17.9922 47.5703 17.9453 47.2344 17.9453C45.6719 17.9453 43.8906 18.6484 41.8906 20.0547C41.9141 20.1875 41.9297 20.3437 41.9375 20.5234C41.9531 20.7031 41.9609 20.8828 41.9609 21.0625V31H37.6133V20.3008C37.6133 19.8711 37.5469 19.5078 37.4141 19.2109C37.2812 18.9062 37.0977 18.6602 36.8633 18.4727C36.6367 18.2852 36.3711 18.1523 36.0664 18.0742C35.7695 17.9883 35.4531 17.9453 35.1172 17.9453C34.7109 17.9453 34.2812 18.0039 33.8281 18.1211C33.3828 18.2383 32.9297 18.4023 32.4688 18.6133C32.0156 18.8242 31.5664 19.0742 31.1211 19.3633C30.6836 19.6523 30.2656 19.9648 29.8672 20.3008L29.8672 31H25.5195L25.5195 14.8984H29.8672Z" fill="white"/>
</svg>
