<svg width="647" height="285" viewBox="0 0 647 285" fill="none" xmlns="http://www.w3.org/2000/svg">
<path d="M0 142.5C0 130.074 10.0736 120 22.5 120H230.5C242.926 120 253 130.074 253 142.5C253 154.926 242.926 165 230.5 165H22.5C10.0736 165 0 154.926 0 142.5Z" fill="black"/>
<path fill-rule="evenodd" clip-rule="evenodd" d="M230.5 122H22.5C11.1782 122 2 131.178 2 142.5C2 153.822 11.1782 163 22.5 163H230.5C241.822 163 251 153.822 251 142.5C251 131.178 241.822 122 230.5 122ZM22.5 120C10.0736 120 0 130.074 0 142.5C0 154.926 10.0736 165 22.5 165H230.5C242.926 165 253 154.926 253 142.5C253 130.074 242.926 120 230.5 120H22.5Z" fill="#0FE5F2"/>
<path d="M226.062 142.938C226.062 143.969 225.949 144.887 225.723 145.691C225.496 146.488 225.176 147.184 224.762 147.777C224.355 148.371 223.863 148.875 223.285 149.289C222.715 149.703 222.078 150.035 221.375 150.285C220.672 150.535 219.914 150.719 219.102 150.836C218.289 150.945 217.441 151 216.559 151H206.34V134.898H216.535C217.418 134.898 218.266 134.957 219.078 135.074C219.891 135.184 220.648 135.363 221.352 135.613C222.062 135.863 222.707 136.195 223.285 136.609C223.863 137.016 224.355 137.52 224.762 138.121C225.176 138.715 225.496 139.41 225.723 140.207C225.949 141.004 226.062 141.914 226.062 142.938ZM221.68 142.938C221.68 142.164 221.578 141.492 221.375 140.922C221.18 140.352 220.859 139.883 220.414 139.516C219.977 139.141 219.402 138.863 218.691 138.684C217.98 138.496 217.113 138.402 216.09 138.402H210.688V147.496H216.09C217.113 147.496 217.98 147.406 218.691 147.227C219.402 147.039 219.977 146.758 220.414 146.383C220.859 146 221.18 145.523 221.375 144.953C221.578 144.383 221.68 143.711 221.68 142.938Z" fill="#0FE5F2"/>
<path d="M201.066 150.203C199.746 150.641 198.426 150.953 197.105 151.141C195.793 151.336 194.449 151.434 193.074 151.434C191.316 151.434 189.75 151.246 188.375 150.871C187.008 150.488 185.855 149.938 184.918 149.219C183.98 148.5 183.266 147.621 182.773 146.582C182.281 145.543 182.035 144.367 182.035 143.055C182.035 141.836 182.281 140.707 182.773 139.668C183.273 138.621 183.977 137.715 184.883 136.949C185.797 136.176 186.898 135.574 188.188 135.145C189.477 134.707 190.914 134.488 192.5 134.488C193.961 134.488 195.297 134.688 196.508 135.086C197.727 135.477 198.77 136.059 199.637 136.832C200.512 137.605 201.188 138.559 201.664 139.691C202.148 140.824 202.391 142.129 202.391 143.605V144.684H186.523C186.664 145.191 186.895 145.656 187.215 146.078C187.543 146.5 187.984 146.859 188.539 147.156C189.094 147.453 189.773 147.684 190.578 147.848C191.391 148.012 192.359 148.094 193.484 148.094C194.281 148.094 195.062 148.047 195.828 147.953C196.594 147.852 197.309 147.723 197.973 147.566C198.637 147.402 199.234 147.223 199.766 147.027C200.305 146.832 200.738 146.637 201.066 146.441V150.203ZM198.066 141.496C198.027 141.098 197.906 140.688 197.703 140.266C197.508 139.836 197.195 139.449 196.766 139.105C196.336 138.762 195.773 138.48 195.078 138.262C194.383 138.035 193.516 137.922 192.477 137.922C191.5 137.922 190.656 138.043 189.945 138.285C189.234 138.527 188.637 138.828 188.152 139.188C187.676 139.547 187.305 139.934 187.039 140.348C186.773 140.762 186.602 141.145 186.523 141.496H198.066Z" fill="#0FE5F2"/>
<path d="M179.504 140.395C179.504 141.199 179.387 141.941 179.152 142.621C178.918 143.293 178.539 143.875 178.016 144.367C177.5 144.852 176.828 145.23 176 145.504C175.172 145.777 174.164 145.914 172.977 145.914H165.758V151H161.41V134.898H172.977C174.164 134.898 175.172 135.035 176 135.309C176.828 135.574 177.5 135.953 178.016 136.445C178.539 136.93 178.918 137.508 179.152 138.18C179.387 138.852 179.504 139.59 179.504 140.395ZM175.109 140.465C175.109 140.09 175.055 139.77 174.945 139.504C174.844 139.23 174.672 139.008 174.43 138.836C174.188 138.664 173.871 138.539 173.48 138.461C173.09 138.375 172.609 138.332 172.039 138.332H165.758V142.48H172.039C172.609 142.48 173.09 142.449 173.48 142.387C173.871 142.316 174.188 142.203 174.43 142.047C174.672 141.883 174.844 141.672 174.945 141.414C175.055 141.156 175.109 140.84 175.109 140.465Z" fill="#0FE5F2"/>
<path d="M157.449 142.961C157.449 144.344 157.195 145.566 156.688 146.629C156.18 147.684 155.453 148.566 154.508 149.277C153.562 149.988 152.414 150.527 151.062 150.895C149.719 151.254 148.207 151.434 146.527 151.434C144.848 151.434 143.328 151.254 141.969 150.895C140.617 150.527 139.465 149.988 138.512 149.277C137.559 148.566 136.824 147.684 136.309 146.629C135.793 145.566 135.535 144.344 135.535 142.961C135.535 141.578 135.793 140.359 136.309 139.305C136.824 138.242 137.559 137.355 138.512 136.645C139.465 135.934 140.617 135.398 141.969 135.039C143.328 134.672 144.848 134.488 146.527 134.488C148.207 134.488 149.719 134.672 151.062 135.039C152.414 135.398 153.562 135.934 154.508 136.645C155.453 137.355 156.18 138.242 156.688 139.305C157.195 140.359 157.449 141.578 157.449 142.961ZM153.055 142.961C153.055 142.359 152.957 141.762 152.762 141.168C152.574 140.566 152.234 140.027 151.742 139.551C151.258 139.074 150.594 138.688 149.75 138.391C148.906 138.094 147.832 137.945 146.527 137.945C145.652 137.945 144.883 138.016 144.219 138.156C143.555 138.289 142.98 138.477 142.496 138.719C142.012 138.961 141.605 139.246 141.277 139.574C140.949 139.895 140.688 140.242 140.492 140.617C140.297 140.984 140.156 141.371 140.07 141.777C139.992 142.176 139.953 142.57 139.953 142.961C139.953 143.359 139.992 143.762 140.07 144.168C140.156 144.574 140.297 144.965 140.492 145.34C140.688 145.707 140.949 146.051 141.277 146.371C141.605 146.691 142.012 146.973 142.496 147.215C142.98 147.449 143.555 147.637 144.219 147.777C144.883 147.91 145.652 147.977 146.527 147.977C147.832 147.977 148.906 147.828 149.75 147.531C150.594 147.234 151.258 146.848 151.742 146.371C152.234 145.895 152.574 145.359 152.762 144.766C152.957 144.164 153.055 143.562 153.055 142.961Z" fill="#0FE5F2"/>
<path d="M121.32 144.109C121.32 144.781 121.383 145.332 121.508 145.762C121.633 146.184 121.836 146.52 122.117 146.77C122.398 147.02 122.762 147.191 123.207 147.285C123.66 147.379 124.215 147.426 124.871 147.426H133.121V151H123.98C122.715 151 121.637 150.898 120.746 150.695C119.863 150.484 119.141 150.164 118.578 149.734C118.016 149.297 117.605 148.746 117.348 148.082C117.098 147.418 116.973 146.629 116.973 145.715V134.898H121.32V144.109Z" fill="#0FE5F2"/>
<path d="M111.699 150.203C110.379 150.641 109.059 150.953 107.738 151.141C106.426 151.336 105.082 151.434 103.707 151.434C101.949 151.434 100.383 151.246 99.0078 150.871C97.6406 150.488 96.4883 149.938 95.5508 149.219C94.6133 148.5 93.8984 147.621 93.4062 146.582C92.9141 145.543 92.668 144.367 92.668 143.055C92.668 141.836 92.9141 140.707 93.4062 139.668C93.9062 138.621 94.6094 137.715 95.5156 136.949C96.4297 136.176 97.5312 135.574 98.8203 135.145C100.109 134.707 101.547 134.488 103.133 134.488C104.594 134.488 105.93 134.688 107.141 135.086C108.359 135.477 109.402 136.059 110.27 136.832C111.145 137.605 111.82 138.559 112.297 139.691C112.781 140.824 113.023 142.129 113.023 143.605V144.684H97.1562C97.2969 145.191 97.5273 145.656 97.8477 146.078C98.1758 146.5 98.6172 146.859 99.1719 147.156C99.7266 147.453 100.406 147.684 101.211 147.848C102.023 148.012 102.992 148.094 104.117 148.094C104.914 148.094 105.695 148.047 106.461 147.953C107.227 147.852 107.941 147.723 108.605 147.566C109.27 147.402 109.867 147.223 110.398 147.027C110.938 146.832 111.371 146.637 111.699 146.441V150.203ZM108.699 141.496C108.66 141.098 108.539 140.688 108.336 140.266C108.141 139.836 107.828 139.449 107.398 139.105C106.969 138.762 106.406 138.48 105.711 138.262C105.016 138.035 104.148 137.922 103.109 137.922C102.133 137.922 101.289 138.043 100.578 138.285C99.8672 138.527 99.2695 138.828 98.7852 139.188C98.3086 139.547 97.9375 139.934 97.6719 140.348C97.4062 140.762 97.2344 141.145 97.1562 141.496H108.699Z" fill="#0FE5F2"/>
<path d="M83.1289 151H78.0664L69.9219 134.898H74.7734L80.6328 147.016L86.4805 134.898H91.332L83.1289 151Z" fill="#0FE5F2"/>
<path d="M67.168 150.203C65.8477 150.641 64.5273 150.953 63.207 151.141C61.8945 151.336 60.5508 151.434 59.1758 151.434C57.418 151.434 55.8516 151.246 54.4766 150.871C53.1094 150.488 51.957 149.938 51.0195 149.219C50.082 148.5 49.3672 147.621 48.875 146.582C48.3828 145.543 48.1367 144.367 48.1367 143.055C48.1367 141.836 48.3828 140.707 48.875 139.668C49.375 138.621 50.0781 137.715 50.9844 136.949C51.8984 136.176 53 135.574 54.2891 135.145C55.5781 134.707 57.0156 134.488 58.6016 134.488C60.0625 134.488 61.3984 134.688 62.6094 135.086C63.8281 135.477 64.8711 136.059 65.7383 136.832C66.6133 137.605 67.2891 138.559 67.7656 139.691C68.25 140.824 68.4922 142.129 68.4922 143.605V144.684H52.625C52.7656 145.191 52.9961 145.656 53.3164 146.078C53.6445 146.5 54.0859 146.859 54.6406 147.156C55.1953 147.453 55.875 147.684 56.6797 147.848C57.4922 148.012 58.4609 148.094 59.5859 148.094C60.3828 148.094 61.1641 148.047 61.9297 147.953C62.6953 147.852 63.4102 147.723 64.0742 147.566C64.7383 147.402 65.3359 147.223 65.8672 147.027C66.4062 146.832 66.8398 146.637 67.168 146.441V150.203ZM64.168 141.496C64.1289 141.098 64.0078 140.688 63.8047 140.266C63.6094 139.836 63.2969 139.449 62.8672 139.105C62.4375 138.762 61.875 138.48 61.1797 138.262C60.4844 138.035 59.6172 137.922 58.5781 137.922C57.6016 137.922 56.7578 138.043 56.0469 138.285C55.3359 138.527 54.7383 138.828 54.2539 139.188C53.7773 139.547 53.4062 139.934 53.1406 140.348C52.875 140.762 52.7031 141.145 52.625 141.496H64.168Z" fill="#0FE5F2"/>
<path d="M45.2422 142.938C45.2422 143.969 45.1289 144.887 44.9023 145.691C44.6758 146.488 44.3555 147.184 43.9414 147.777C43.5352 148.371 43.043 148.875 42.4648 149.289C41.8945 149.703 41.2578 150.035 40.5547 150.285C39.8516 150.535 39.0938 150.719 38.2812 150.836C37.4688 150.945 36.6211 151 35.7383 151H25.5195L25.5195 134.898H35.7148C36.5977 134.898 37.4453 134.957 38.2578 135.074C39.0703 135.184 39.8281 135.363 40.5312 135.613C41.2422 135.863 41.8867 136.195 42.4648 136.609C43.043 137.016 43.5352 137.52 43.9414 138.121C44.3555 138.715 44.6758 139.41 44.9023 140.207C45.1289 141.004 45.2422 141.914 45.2422 142.938ZM40.8594 142.938C40.8594 142.164 40.7578 141.492 40.5547 140.922C40.3594 140.352 40.0391 139.883 39.5938 139.516C39.1562 139.141 38.582 138.863 37.8711 138.684C37.1602 138.496 36.293 138.402 35.2695 138.402H29.8672V147.496H35.2695C36.293 147.496 37.1602 147.406 37.8711 147.227C38.582 147.039 39.1562 146.758 39.5938 146.383C40.0391 146 40.3594 145.523 40.5547 144.953C40.7578 144.383 40.8594 143.711 40.8594 142.938Z" fill="#0FE5F2"/>
<path d="M466 142.5C466 130.074 476.074 120 488.5 120H559.5C571.926 120 582 130.074 582 142.5C582 154.926 571.926 165 559.5 165H488.5C476.074 165 466 154.926 466 142.5Z" fill="black"/>
<path fill-rule="evenodd" clip-rule="evenodd" d="M559.5 122H488.5C477.178 122 468 131.178 468 142.5C468 153.822 477.178 163 488.5 163H559.5C570.822 163 580 153.822 580 142.5C580 131.178 570.822 122 559.5 122ZM488.5 120C476.074 120 466 130.074 466 142.5C466 154.926 476.074 165 488.5 165H559.5C571.926 165 582 154.926 582 142.5C582 130.074 571.926 120 559.5 120H488.5Z" fill="#FF974C"/>
<path d="M558.867 142.938C558.867 143.969 558.754 144.887 558.527 145.691C558.301 146.488 557.98 147.184 557.566 147.777C557.16 148.371 556.668 148.875 556.09 149.289C555.52 149.703 554.883 150.035 554.18 150.285C553.477 150.535 552.719 150.719 551.906 150.836C551.094 150.945 550.246 151 549.363 151H539.145V134.898H549.34C550.223 134.898 551.07 134.957 551.883 135.074C552.695 135.184 553.453 135.363 554.156 135.613C554.867 135.863 555.512 136.195 556.09 136.609C556.668 137.016 557.16 137.52 557.566 138.121C557.98 138.715 558.301 139.41 558.527 140.207C558.754 141.004 558.867 141.914 558.867 142.938ZM554.484 142.938C554.484 142.164 554.383 141.492 554.18 140.922C553.984 140.352 553.664 139.883 553.219 139.516C552.781 139.141 552.207 138.863 551.496 138.684C550.785 138.496 549.918 138.402 548.895 138.402H543.492V147.496H548.895C549.918 147.496 550.785 147.406 551.496 147.227C552.207 147.039 552.781 146.758 553.219 146.383C553.664 146 553.984 145.523 554.18 144.953C554.383 144.383 554.484 143.711 554.484 142.938Z" fill="#FF974C"/>
<path d="M529.828 151V141.977C529.828 141.375 529.777 140.832 529.676 140.348C529.574 139.855 529.383 139.438 529.102 139.094C528.828 138.742 528.441 138.473 527.941 138.285C527.449 138.09 526.812 137.992 526.031 137.992C525.438 137.992 524.812 138.074 524.156 138.238C523.508 138.395 522.863 138.605 522.223 138.871C521.582 139.137 520.969 139.445 520.383 139.797C519.805 140.148 519.289 140.516 518.836 140.898V151H514.488V134.898H518.836V137.102C519.383 136.789 519.965 136.48 520.582 136.176C521.199 135.863 521.855 135.582 522.551 135.332C523.246 135.082 523.984 134.879 524.766 134.723C525.547 134.566 526.371 134.488 527.238 134.488C528.324 134.488 529.293 134.621 530.145 134.887C531.004 135.145 531.73 135.516 532.324 136C532.918 136.477 533.371 137.059 533.684 137.746C534.004 138.426 534.164 139.188 534.164 140.031V151H529.828Z" fill="#FF974C"/>
<path d="M505.172 151V149.418C504.617 149.723 504.02 149.992 503.379 150.227C502.746 150.461 502.086 150.66 501.398 150.824C500.711 150.988 500 151.109 499.266 151.188C498.539 151.273 497.805 151.316 497.062 151.316C496.195 151.316 495.355 151.234 494.543 151.07C493.738 150.906 493.023 150.641 492.398 150.273C491.773 149.906 491.27 149.426 490.887 148.832C490.512 148.238 490.324 147.512 490.324 146.652C490.324 145.566 490.621 144.664 491.215 143.945C491.809 143.219 492.715 142.625 493.934 142.164C495.152 141.703 496.691 141.348 498.551 141.098C500.418 140.848 502.625 140.652 505.172 140.512V140.172C505.172 139.906 505.102 139.645 504.961 139.387C504.82 139.121 504.562 138.891 504.188 138.695C503.82 138.492 503.312 138.328 502.664 138.203C502.023 138.078 501.203 138.016 500.203 138.016C499.414 138.016 498.633 138.059 497.859 138.145C497.094 138.223 496.352 138.332 495.633 138.473C494.922 138.613 494.246 138.777 493.605 138.965C492.965 139.152 492.383 139.348 491.859 139.551V135.684C492.406 135.543 493.02 135.406 493.699 135.273C494.379 135.141 495.086 135.027 495.82 134.934C496.555 134.832 497.297 134.754 498.047 134.699C498.797 134.637 499.516 134.605 500.203 134.605C501.555 134.605 502.801 134.719 503.941 134.945C505.082 135.164 506.062 135.508 506.883 135.977C507.711 136.445 508.355 137.039 508.816 137.758C509.285 138.477 509.52 139.332 509.52 140.324V151H505.172ZM505.172 143.652C503.5 143.715 502.078 143.805 500.906 143.922C499.742 144.039 498.773 144.176 498 144.332C497.227 144.488 496.617 144.656 496.172 144.836C495.734 145.016 495.406 145.199 495.188 145.387C494.969 145.574 494.832 145.762 494.777 145.949C494.73 146.137 494.707 146.309 494.707 146.465C494.707 146.652 494.758 146.836 494.859 147.016C494.961 147.188 495.137 147.34 495.387 147.473C495.645 147.605 495.984 147.711 496.406 147.789C496.828 147.867 497.359 147.906 498 147.906C498.711 147.906 499.406 147.852 500.086 147.742C500.766 147.633 501.41 147.484 502.02 147.297C502.629 147.102 503.199 146.875 503.73 146.617C504.27 146.352 504.75 146.07 505.172 145.773V143.652Z" fill="#FF974C"/>
<path d="M0 22.5C0 10.0736 10.0736 0 22.5 0H101.5C113.926 0 124 10.0736 124 22.5C124 34.9264 113.926 45 101.5 45H22.5C10.0736 45 0 34.9264 0 22.5Z" fill="black"/>
<path fill-rule="evenodd" clip-rule="evenodd" d="M101.5 2H22.5C11.1782 2 2 11.1782 2 22.5C2 33.8218 11.1782 43 22.5 43H101.5C112.822 43 122 33.8218 122 22.5C122 11.1782 112.822 2 101.5 2ZM22.5 0C10.0736 0 0 10.0736 0 22.5C0 34.9264 10.0736 45 22.5 45H101.5C113.926 45 124 34.9264 124 22.5C124 10.0736 113.926 0 101.5 0H22.5Z" fill="#FFE55B"/>
<path d="M91.7188 31H86.8672L95.2695 18.4023H84.3242V14.8984L100.402 14.8984V17.875L91.7188 31Z" fill="#FFE55B"/>
<path d="M82.4492 22.9609C82.4492 24.2422 82.2031 25.4062 81.7109 26.4531C81.2266 27.4922 80.5586 28.3828 79.707 29.125C78.8555 29.8594 77.8516 30.4297 76.6953 30.8359C75.5391 31.2344 74.2969 31.4336 72.9688 31.4336C72.0781 31.4336 71.2266 31.3438 70.4141 31.1641C69.6016 30.9844 68.8398 30.7227 68.1289 30.3789C67.4258 30.0352 66.7852 29.6172 66.207 29.125C65.6367 28.625 65.1484 28.0625 64.7422 27.4375C64.3359 26.8125 64.0195 26.125 63.793 25.375C63.5742 24.625 63.4648 23.8203 63.4648 22.9609C63.4648 22.1094 63.5742 21.3086 63.793 20.5586C64.0195 19.8008 64.3359 19.1094 64.7422 18.4844C65.1484 17.8594 65.6367 17.3008 66.207 16.8086C66.7852 16.3086 67.4258 15.8867 68.1289 15.543C68.8398 15.1992 69.6016 14.9375 70.4141 14.7578C71.2266 14.5781 72.0781 14.4883 72.9688 14.4883C74.2969 14.4883 75.5391 14.6914 76.6953 15.0977C77.8516 15.4961 78.8555 16.0664 79.707 16.8086C80.5586 17.543 81.2266 18.4336 81.7109 19.4805C82.2031 20.5195 82.4492 21.6797 82.4492 22.9609ZM78.1016 22.9609C78.1016 22.1484 77.9609 21.4297 77.6797 20.8047C77.3984 20.1797 77.0195 19.6523 76.543 19.2227C76.0742 18.793 75.5312 18.4688 74.9141 18.25C74.2969 18.0312 73.6484 17.9219 72.9688 17.9219C72.2891 17.9219 71.6367 18.0312 71.0117 18.25C70.3867 18.4688 69.8359 18.793 69.3594 19.2227C68.8906 19.6523 68.5117 20.1797 68.2227 20.8047C67.9414 21.4297 67.8008 22.1484 67.8008 22.9609C67.8008 23.7734 67.9414 24.4922 68.2227 25.1172C68.5117 25.7422 68.8906 26.2695 69.3594 26.6992C69.8359 27.1211 70.3867 27.4453 71.0117 27.6719C71.6367 27.8906 72.2891 28 72.9688 28C73.6484 28 74.2969 27.8906 74.9141 27.6719C75.5312 27.4453 76.0742 27.1211 76.543 26.6992C77.0195 26.2695 77.3984 25.7422 77.6797 25.1172C77.9609 24.4922 78.1016 23.7734 78.1016 22.9609Z" fill="#FFE55B"/>
<path d="M60.6758 22.9609C60.6758 24.2422 60.4297 25.4062 59.9375 26.4531C59.4531 27.4922 58.7852 28.3828 57.9336 29.125C57.082 29.8594 56.0781 30.4297 54.9219 30.8359C53.7656 31.2344 52.5234 31.4336 51.1953 31.4336C50.3047 31.4336 49.4531 31.3438 48.6406 31.1641C47.8281 30.9844 47.0664 30.7227 46.3555 30.3789C45.6523 30.0352 45.0117 29.6172 44.4336 29.125C43.8633 28.625 43.375 28.0625 42.9688 27.4375C42.5625 26.8125 42.2461 26.125 42.0195 25.375C41.8008 24.625 41.6914 23.8203 41.6914 22.9609C41.6914 22.1094 41.8008 21.3086 42.0195 20.5586C42.2461 19.8008 42.5625 19.1094 42.9688 18.4844C43.375 17.8594 43.8633 17.3008 44.4336 16.8086C45.0117 16.3086 45.6523 15.8867 46.3555 15.543C47.0664 15.1992 47.8281 14.9375 48.6406 14.7578C49.4531 14.5781 50.3047 14.4883 51.1953 14.4883C52.5234 14.4883 53.7656 14.6914 54.9219 15.0977C56.0781 15.4961 57.082 16.0664 57.9336 16.8086C58.7852 17.543 59.4531 18.4336 59.9375 19.4805C60.4297 20.5195 60.6758 21.6797 60.6758 22.9609ZM56.3281 22.9609C56.3281 22.1484 56.1875 21.4297 55.9062 20.8047C55.625 20.1797 55.2461 19.6523 54.7695 19.2227C54.3008 18.793 53.7578 18.4688 53.1406 18.25C52.5234 18.0312 51.875 17.9219 51.1953 17.9219C50.5156 17.9219 49.8633 18.0312 49.2383 18.25C48.6133 18.4688 48.0625 18.793 47.5859 19.2227C47.1172 19.6523 46.7383 20.1797 46.4492 20.8047C46.168 21.4297 46.0273 22.1484 46.0273 22.9609C46.0273 23.7734 46.168 24.4922 46.4492 25.1172C46.7383 25.7422 47.1172 26.2695 47.5859 26.6992C48.0625 27.1211 48.6133 27.4453 49.2383 27.6719C49.8633 27.8906 50.5156 28 51.1953 28C51.875 28 52.5234 27.8906 53.1406 27.6719C53.7578 27.4453 54.3008 27.1211 54.7695 26.6992C55.2461 26.2695 55.625 25.7422 55.9062 25.1172C56.1875 24.4922 56.3281 23.7734 56.3281 22.9609Z" fill="#FFE55B"/>
<path d="M30.875 31H26.0234L34.4258 18.4023H23.4805V14.8984L39.5586 14.8984V17.875L30.875 31Z" fill="#FFE55B"/>
<path d="M265 142.5C265 130.074 275.074 120 287.5 120H431.5C443.926 120 454 130.074 454 142.5C454 154.926 443.926 165 431.5 165H287.5C275.074 165 265 154.926 265 142.5Z" fill="#F97ACE"/>
<path d="M430.23 139.434C429.926 139.285 429.523 139.117 429.023 138.93C428.523 138.742 427.957 138.566 427.324 138.402C426.691 138.23 426.004 138.09 425.262 137.98C424.52 137.863 423.758 137.805 422.977 137.805C422.352 137.805 421.816 137.824 421.371 137.863C420.934 137.902 420.562 137.953 420.258 138.016C419.961 138.078 419.723 138.152 419.543 138.238C419.371 138.316 419.238 138.398 419.145 138.484C419.051 138.57 418.988 138.656 418.957 138.742C418.934 138.828 418.922 138.906 418.922 138.977C418.922 139.211 419.039 139.418 419.273 139.598C419.508 139.77 419.828 139.926 420.234 140.066C420.641 140.199 421.113 140.328 421.652 140.453C422.191 140.57 422.762 140.695 423.363 140.828C423.973 140.953 424.598 141.094 425.238 141.25C425.887 141.398 426.512 141.574 427.113 141.777C427.723 141.98 428.297 142.219 428.836 142.492C429.375 142.758 429.848 143.07 430.254 143.43C430.66 143.789 430.98 144.203 431.215 144.672C431.449 145.141 431.566 145.676 431.566 146.277C431.566 147.051 431.43 147.715 431.156 148.27C430.883 148.824 430.516 149.293 430.055 149.676C429.602 150.059 429.074 150.367 428.473 150.602C427.871 150.828 427.238 151.004 426.574 151.129C425.918 151.254 425.25 151.336 424.57 151.375C423.898 151.414 423.258 151.434 422.648 151.434C421.055 151.434 419.578 151.301 418.219 151.035C416.867 150.777 415.672 150.453 414.633 150.062V146.219C415.703 146.812 416.922 147.277 418.289 147.613C419.664 147.949 421.133 148.117 422.695 148.117C423.617 148.117 424.367 148.07 424.945 147.977C425.531 147.875 425.988 147.75 426.316 147.602C426.645 147.445 426.867 147.277 426.984 147.098C427.102 146.918 427.16 146.746 427.16 146.582C427.16 146.324 427.043 146.102 426.809 145.914C426.574 145.719 426.254 145.551 425.848 145.41C425.441 145.262 424.969 145.129 424.43 145.012C423.891 144.887 423.316 144.766 422.707 144.648C422.105 144.523 421.484 144.391 420.844 144.25C420.203 144.109 419.578 143.945 418.969 143.758C418.367 143.562 417.797 143.34 417.258 143.09C416.719 142.832 416.246 142.531 415.84 142.188C415.434 141.836 415.113 141.434 414.879 140.98C414.645 140.52 414.527 139.988 414.527 139.387C414.527 138.676 414.652 138.062 414.902 137.547C415.152 137.031 415.488 136.594 415.91 136.234C416.34 135.867 416.832 135.57 417.387 135.344C417.949 135.117 418.539 134.941 419.156 134.816C419.773 134.691 420.398 134.605 421.031 134.559C421.664 134.512 422.266 134.488 422.836 134.488C423.461 134.488 424.102 134.52 424.758 134.582C425.422 134.645 426.074 134.734 426.715 134.852C427.355 134.961 427.973 135.09 428.566 135.238C429.168 135.387 429.723 135.543 430.23 135.707V139.434Z" fill="black"/>
<path d="M400.102 144.109C400.102 144.781 400.164 145.332 400.289 145.762C400.414 146.184 400.617 146.52 400.898 146.77C401.18 147.02 401.543 147.191 401.988 147.285C402.441 147.379 402.996 147.426 403.652 147.426H411.902V151H402.762C401.496 151 400.418 150.898 399.527 150.695C398.645 150.484 397.922 150.164 397.359 149.734C396.797 149.297 396.387 148.746 396.129 148.082C395.879 147.418 395.754 146.629 395.754 145.715V134.898H400.102V144.109Z" fill="black"/>
<path d="M390.48 150.203C389.16 150.641 387.84 150.953 386.52 151.141C385.207 151.336 383.863 151.434 382.488 151.434C380.73 151.434 379.164 151.246 377.789 150.871C376.422 150.488 375.27 149.938 374.332 149.219C373.395 148.5 372.68 147.621 372.188 146.582C371.695 145.543 371.449 144.367 371.449 143.055C371.449 141.836 371.695 140.707 372.188 139.668C372.688 138.621 373.391 137.715 374.297 136.949C375.211 136.176 376.312 135.574 377.602 135.145C378.891 134.707 380.328 134.488 381.914 134.488C383.375 134.488 384.711 134.688 385.922 135.086C387.141 135.477 388.184 136.059 389.051 136.832C389.926 137.605 390.602 138.559 391.078 139.691C391.562 140.824 391.805 142.129 391.805 143.605V144.684H375.938C376.078 145.191 376.309 145.656 376.629 146.078C376.957 146.5 377.398 146.859 377.953 147.156C378.508 147.453 379.188 147.684 379.992 147.848C380.805 148.012 381.773 148.094 382.898 148.094C383.695 148.094 384.477 148.047 385.242 147.953C386.008 147.852 386.723 147.723 387.387 147.566C388.051 147.402 388.648 147.223 389.18 147.027C389.719 146.832 390.152 146.637 390.48 146.441V150.203ZM387.48 141.496C387.441 141.098 387.32 140.688 387.117 140.266C386.922 139.836 386.609 139.449 386.18 139.105C385.75 138.762 385.188 138.48 384.492 138.262C383.797 138.035 382.93 137.922 381.891 137.922C380.914 137.922 380.07 138.043 379.359 138.285C378.648 138.527 378.051 138.828 377.566 139.188C377.09 139.547 376.719 139.934 376.453 140.348C376.188 140.762 376.016 141.145 375.938 141.496H387.48Z" fill="black"/>
<path d="M368.555 142.938C368.555 143.969 368.441 144.887 368.215 145.691C367.988 146.488 367.668 147.184 367.254 147.777C366.848 148.371 366.355 148.875 365.777 149.289C365.207 149.703 364.57 150.035 363.867 150.285C363.164 150.535 362.406 150.719 361.594 150.836C360.781 150.945 359.934 151 359.051 151H348.832V134.898H359.027C359.91 134.898 360.758 134.957 361.57 135.074C362.383 135.184 363.141 135.363 363.844 135.613C364.555 135.863 365.199 136.195 365.777 136.609C366.355 137.016 366.848 137.52 367.254 138.121C367.668 138.715 367.988 139.41 368.215 140.207C368.441 141.004 368.555 141.914 368.555 142.938ZM364.172 142.938C364.172 142.164 364.07 141.492 363.867 140.922C363.672 140.352 363.352 139.883 362.906 139.516C362.469 139.141 361.895 138.863 361.184 138.684C360.473 138.496 359.605 138.402 358.582 138.402H353.18V147.496H358.582C359.605 147.496 360.473 147.406 361.184 147.227C361.895 147.039 362.469 146.758 362.906 146.383C363.352 146 363.672 145.523 363.867 144.953C364.07 144.383 364.172 143.711 364.172 142.938Z" fill="black"/>
<path d="M344.871 142.961C344.871 144.344 344.617 145.566 344.109 146.629C343.602 147.684 342.875 148.566 341.93 149.277C340.984 149.988 339.836 150.527 338.484 150.895C337.141 151.254 335.629 151.434 333.949 151.434C332.27 151.434 330.75 151.254 329.391 150.895C328.039 150.527 326.887 149.988 325.934 149.277C324.98 148.566 324.246 147.684 323.73 146.629C323.215 145.566 322.957 144.344 322.957 142.961C322.957 141.578 323.215 140.359 323.73 139.305C324.246 138.242 324.98 137.355 325.934 136.645C326.887 135.934 328.039 135.398 329.391 135.039C330.75 134.672 332.27 134.488 333.949 134.488C335.629 134.488 337.141 134.672 338.484 135.039C339.836 135.398 340.984 135.934 341.93 136.645C342.875 137.355 343.602 138.242 344.109 139.305C344.617 140.359 344.871 141.578 344.871 142.961ZM340.477 142.961C340.477 142.359 340.379 141.762 340.184 141.168C339.996 140.566 339.656 140.027 339.164 139.551C338.68 139.074 338.016 138.688 337.172 138.391C336.328 138.094 335.254 137.945 333.949 137.945C333.074 137.945 332.305 138.016 331.641 138.156C330.977 138.289 330.402 138.477 329.918 138.719C329.434 138.961 329.027 139.246 328.699 139.574C328.371 139.895 328.109 140.242 327.914 140.617C327.719 140.984 327.578 141.371 327.492 141.777C327.414 142.176 327.375 142.57 327.375 142.961C327.375 143.359 327.414 143.762 327.492 144.168C327.578 144.574 327.719 144.965 327.914 145.34C328.109 145.707 328.371 146.051 328.699 146.371C329.027 146.691 329.434 146.973 329.918 147.215C330.402 147.449 330.977 147.637 331.641 147.777C332.305 147.91 333.074 147.977 333.949 147.977C335.254 147.977 336.328 147.828 337.172 147.531C338.016 147.234 338.68 146.848 339.164 146.371C339.656 145.895 339.996 145.359 340.184 144.766C340.379 144.164 340.477 143.562 340.477 142.961Z" fill="black"/>
<path d="M294.867 134.898V136.668C295.25 136.426 295.664 136.176 296.109 135.918C296.562 135.66 297.051 135.426 297.574 135.215C298.105 135.004 298.672 134.832 299.273 134.699C299.883 134.559 300.539 134.488 301.242 134.488C301.93 134.488 302.531 134.562 303.047 134.711C303.562 134.852 304.008 135.039 304.383 135.273C304.766 135.5 305.09 135.758 305.355 136.047C305.621 136.328 305.852 136.609 306.047 136.891C306.602 136.531 307.148 136.203 307.688 135.906C308.227 135.609 308.77 135.355 309.316 135.145C309.863 134.934 310.422 134.773 310.992 134.664C311.562 134.547 312.156 134.488 312.773 134.488C313.758 134.488 314.637 134.625 315.41 134.898C316.191 135.172 316.852 135.547 317.391 136.023C317.93 136.5 318.34 137.062 318.621 137.711C318.91 138.352 319.055 139.039 319.055 139.773V151H314.707V140.395C314.707 139.965 314.641 139.594 314.508 139.281C314.375 138.969 314.195 138.715 313.969 138.52C313.75 138.324 313.488 138.18 313.184 138.086C312.887 137.992 312.57 137.945 312.234 137.945C310.672 137.945 308.891 138.648 306.891 140.055C306.914 140.188 306.93 140.344 306.938 140.523C306.953 140.703 306.961 140.883 306.961 141.062V151H302.613V140.301C302.613 139.871 302.547 139.508 302.414 139.211C302.281 138.906 302.098 138.66 301.863 138.473C301.637 138.285 301.371 138.152 301.066 138.074C300.77 137.988 300.453 137.945 300.117 137.945C299.711 137.945 299.281 138.004 298.828 138.121C298.383 138.238 297.93 138.402 297.469 138.613C297.016 138.824 296.566 139.074 296.121 139.363C295.684 139.652 295.266 139.965 294.867 140.301V151H290.52V134.898H294.867Z" fill="black"/>
<path d="M321 22.5C321 10.0736 331.074 0 343.5 0H483.5C495.926 0 506 10.0736 506 22.5C506 34.9264 495.926 45 483.5 45H343.5C331.074 45 321 34.9264 321 22.5Z" fill="black"/>
<path fill-rule="evenodd" clip-rule="evenodd" d="M483.5 2H343.5C332.178 2 323 11.1782 323 22.5C323 33.8218 332.178 43 343.5 43H483.5C494.822 43 504 33.8218 504 22.5C504 11.1782 494.822 2 483.5 2ZM343.5 0C331.074 0 321 10.0736 321 22.5C321 34.9264 331.074 45 343.5 45H483.5C495.926 45 506 34.9264 506 22.5C506 10.0736 495.926 0 483.5 0H343.5Z" fill="#83F04F"/>
<path d="M479.785 19.4336C479.48 19.2852 479.078 19.1172 478.578 18.9297C478.078 18.7422 477.512 18.5664 476.879 18.4023C476.246 18.2305 475.559 18.0898 474.816 17.9805C474.074 17.8633 473.312 17.8047 472.531 17.8047C471.906 17.8047 471.371 17.8242 470.926 17.8633C470.488 17.9023 470.117 17.9531 469.812 18.0156C469.516 18.0781 469.277 18.1523 469.098 18.2383C468.926 18.3164 468.793 18.3984 468.699 18.4844C468.605 18.5703 468.543 18.6562 468.512 18.7422C468.488 18.8281 468.477 18.9062 468.477 18.9766C468.477 19.2109 468.594 19.418 468.828 19.5977C469.062 19.7695 469.383 19.9258 469.789 20.0664C470.195 20.1992 470.668 20.3281 471.207 20.4531C471.746 20.5703 472.316 20.6953 472.918 20.8281C473.527 20.9531 474.152 21.0938 474.793 21.25C475.441 21.3984 476.066 21.5742 476.668 21.7773C477.277 21.9805 477.852 22.2188 478.391 22.4922C478.93 22.7578 479.402 23.0703 479.809 23.4297C480.215 23.7891 480.535 24.2031 480.77 24.6719C481.004 25.1406 481.121 25.6758 481.121 26.2773C481.121 27.0508 480.984 27.7148 480.711 28.2695C480.438 28.8242 480.07 29.293 479.609 29.6758C479.156 30.0586 478.629 30.3672 478.027 30.6016C477.426 30.8281 476.793 31.0039 476.129 31.1289C475.473 31.2539 474.805 31.3359 474.125 31.375C473.453 31.4141 472.812 31.4336 472.203 31.4336C470.609 31.4336 469.133 31.3008 467.773 31.0352C466.422 30.7773 465.227 30.4531 464.188 30.0625V26.2188C465.258 26.8125 466.477 27.2773 467.844 27.6133C469.219 27.9492 470.688 28.1172 472.25 28.1172C473.172 28.1172 473.922 28.0703 474.5 27.9766C475.086 27.875 475.543 27.75 475.871 27.6016C476.199 27.4453 476.422 27.2773 476.539 27.0977C476.656 26.918 476.715 26.7461 476.715 26.582C476.715 26.3242 476.598 26.1016 476.363 25.9141C476.129 25.7188 475.809 25.5508 475.402 25.4102C474.996 25.2617 474.523 25.1289 473.984 25.0117C473.445 24.8867 472.871 24.7656 472.262 24.6484C471.66 24.5234 471.039 24.3906 470.398 24.25C469.758 24.1094 469.133 23.9453 468.523 23.7578C467.922 23.5625 467.352 23.3398 466.812 23.0898C466.273 22.832 465.801 22.5312 465.395 22.1875C464.988 21.8359 464.668 21.4336 464.434 20.9805C464.199 20.5195 464.082 19.9883 464.082 19.3867C464.082 18.6758 464.207 18.0625 464.457 17.5469C464.707 17.0312 465.043 16.5938 465.465 16.2344C465.895 15.8672 466.387 15.5703 466.941 15.3438C467.504 15.1172 468.094 14.9414 468.711 14.8164C469.328 14.6914 469.953 14.6055 470.586 14.5586C471.219 14.5117 471.82 14.4883 472.391 14.4883C473.016 14.4883 473.656 14.5195 474.312 14.582C474.977 14.6445 475.629 14.7344 476.27 14.8516C476.91 14.9609 477.527 15.0898 478.121 15.2383C478.723 15.3867 479.277 15.543 479.785 15.707V19.4336Z" fill="#83F04F"/>
<path d="M449.094 14.8984L453.207 26.0781L457.66 14.8984L462.172 14.8984L455.703 31H450.875L446.668 20.1719L442.473 31L437.645 31L431.164 14.8984H435.688L440.047 25.8438L444.254 14.8984L449.094 14.8984Z" fill="#83F04F"/>
<path d="M429.605 22.9609C429.605 24.3437 429.352 25.5664 428.844 26.6289C428.336 27.6836 427.609 28.5664 426.664 29.2773C425.719 29.9883 424.57 30.5273 423.219 30.8945C421.875 31.2539 420.363 31.4336 418.684 31.4336C417.004 31.4336 415.484 31.2539 414.125 30.8945C412.773 30.5273 411.621 29.9883 410.668 29.2773C409.715 28.5664 408.98 27.6836 408.465 26.6289C407.949 25.5664 407.691 24.3438 407.691 22.9609C407.691 21.5781 407.949 20.3594 408.465 19.3047C408.98 18.2422 409.715 17.3555 410.668 16.6445C411.621 15.9336 412.773 15.3984 414.125 15.0391C415.484 14.6719 417.004 14.4883 418.684 14.4883C420.363 14.4883 421.875 14.6719 423.219 15.0391C424.57 15.3984 425.719 15.9336 426.664 16.6445C427.609 17.3555 428.336 18.2422 428.844 19.3047C429.352 20.3594 429.605 21.5781 429.605 22.9609ZM425.211 22.9609C425.211 22.3594 425.113 21.7617 424.918 21.168C424.73 20.5664 424.391 20.0273 423.898 19.5508C423.414 19.0742 422.75 18.6875 421.906 18.3906C421.062 18.0937 419.988 17.9453 418.684 17.9453C417.809 17.9453 417.039 18.0156 416.375 18.1562C415.711 18.2891 415.137 18.4766 414.652 18.7188C414.168 18.9609 413.762 19.2461 413.434 19.5742C413.105 19.8945 412.844 20.2422 412.648 20.6172C412.453 20.9844 412.312 21.3711 412.227 21.7773C412.148 22.1758 412.109 22.5703 412.109 22.9609C412.109 23.3594 412.148 23.7617 412.227 24.168C412.312 24.5742 412.453 24.9648 412.648 25.3398C412.844 25.707 413.105 26.0508 413.434 26.3711C413.762 26.6914 414.168 26.9727 414.652 27.2148C415.137 27.4492 415.711 27.6367 416.375 27.7773C417.039 27.9102 417.809 27.9766 418.684 27.9766C419.988 27.9766 421.062 27.8281 421.906 27.5312C422.75 27.2344 423.414 26.8477 423.898 26.3711C424.391 25.8945 424.73 25.3594 424.918 24.7656C425.113 24.1641 425.211 23.5625 425.211 22.9609Z" fill="#83F04F"/>
<path d="M393.477 24.1094C393.477 24.7812 393.539 25.332 393.664 25.7617C393.789 26.1836 393.992 26.5195 394.273 26.7695C394.555 27.0195 394.918 27.1914 395.363 27.2852C395.816 27.3789 396.371 27.4258 397.027 27.4258H405.277V31L396.137 31C394.871 31 393.793 30.8984 392.902 30.6953C392.02 30.4844 391.297 30.1641 390.734 29.7344C390.172 29.2969 389.762 28.7461 389.504 28.082C389.254 27.418 389.129 26.6289 389.129 25.7148V14.8984H393.477V24.1094Z" fill="#83F04F"/>
<path d="M373.836 24.1094C373.836 24.7812 373.898 25.332 374.023 25.7617C374.148 26.1836 374.352 26.5195 374.633 26.7695C374.914 27.0195 375.277 27.1914 375.723 27.2852C376.176 27.3789 376.73 27.4258 377.387 27.4258H385.637V31L376.496 31C375.23 31 374.152 30.8984 373.262 30.6953C372.379 30.4844 371.656 30.1641 371.094 29.7344C370.531 29.2969 370.121 28.7461 369.863 28.082C369.613 27.418 369.488 26.6289 369.488 25.7148V14.8984H373.836V24.1094Z" fill="#83F04F"/>
<path d="M360.172 31V29.418C359.617 29.7227 359.02 29.9922 358.379 30.2266C357.746 30.4609 357.086 30.6602 356.398 30.8242C355.711 30.9883 355 31.1094 354.266 31.1875C353.539 31.2734 352.805 31.3164 352.062 31.3164C351.195 31.3164 350.355 31.2344 349.543 31.0703C348.738 30.9062 348.023 30.6406 347.398 30.2734C346.773 29.9062 346.27 29.4258 345.887 28.832C345.512 28.2383 345.324 27.5117 345.324 26.6523C345.324 25.5664 345.621 24.6641 346.215 23.9453C346.809 23.2188 347.715 22.625 348.934 22.1641C350.152 21.7031 351.691 21.3477 353.551 21.0977C355.418 20.8477 357.625 20.6523 360.172 20.5117V20.1719C360.172 19.9062 360.102 19.6445 359.961 19.3867C359.82 19.1211 359.562 18.8906 359.188 18.6953C358.82 18.4922 358.312 18.3281 357.664 18.2031C357.023 18.0781 356.203 18.0156 355.203 18.0156C354.414 18.0156 353.633 18.0586 352.859 18.1445C352.094 18.2227 351.352 18.332 350.633 18.4727C349.922 18.6133 349.246 18.7773 348.605 18.9648C347.965 19.1523 347.383 19.3477 346.859 19.5508V15.6836C347.406 15.543 348.02 15.4062 348.699 15.2734C349.379 15.1406 350.086 15.0273 350.82 14.9336C351.555 14.832 352.297 14.7539 353.047 14.6992C353.797 14.6367 354.516 14.6055 355.203 14.6055C356.555 14.6055 357.801 14.7187 358.941 14.9453C360.082 15.1641 361.062 15.5078 361.883 15.9766C362.711 16.4453 363.355 17.0391 363.816 17.7578C364.285 18.4766 364.52 19.332 364.52 20.3242V31H360.172ZM360.172 23.6523C358.5 23.7148 357.078 23.8047 355.906 23.9219C354.742 24.0391 353.773 24.1758 353 24.332C352.227 24.4883 351.617 24.6562 351.172 24.8359C350.734 25.0156 350.406 25.1992 350.188 25.3867C349.969 25.5742 349.832 25.7617 349.777 25.9492C349.73 26.1367 349.707 26.3086 349.707 26.4648C349.707 26.6523 349.758 26.8359 349.859 27.0156C349.961 27.1875 350.137 27.3398 350.387 27.4727C350.645 27.6055 350.984 27.7109 351.406 27.7891C351.828 27.8672 352.359 27.9062 353 27.9062C353.711 27.9062 354.406 27.8516 355.086 27.7422C355.766 27.6328 356.41 27.4844 357.02 27.2969C357.629 27.1016 358.199 26.875 358.73 26.6172C359.27 26.3516 359.75 26.0703 360.172 25.7734V23.6523Z" fill="#83F04F"/>
<path d="M136 22.5C136 10.0736 146.074 0 158.5 0H286.5C298.926 0 309 10.0736 309 22.5C309 34.9264 298.926 45 286.5 45H158.5C146.074 45 136 34.9264 136 22.5Z" fill="#FFE55B"/>
<path d="M285.996 22.9609C285.996 24.3437 285.742 25.5664 285.234 26.6289C284.727 27.6836 284 28.5664 283.055 29.2773C282.109 29.9883 280.961 30.5273 279.609 30.8945C278.266 31.2539 276.754 31.4336 275.074 31.4336C273.395 31.4336 271.875 31.2539 270.516 30.8945C269.164 30.5273 268.012 29.9883 267.059 29.2773C266.105 28.5664 265.371 27.6836 264.855 26.6289C264.34 25.5664 264.082 24.3438 264.082 22.9609C264.082 21.5781 264.34 20.3594 264.855 19.3047C265.371 18.2422 266.105 17.3555 267.059 16.6445C268.012 15.9336 269.164 15.3984 270.516 15.0391C271.875 14.6719 273.395 14.4883 275.074 14.4883C276.754 14.4883 278.266 14.6719 279.609 15.0391C280.961 15.3984 282.109 15.9336 283.055 16.6445C284 17.3555 284.727 18.2422 285.234 19.3047C285.742 20.3594 285.996 21.5781 285.996 22.9609ZM281.602 22.9609C281.602 22.3594 281.504 21.7617 281.309 21.168C281.121 20.5664 280.781 20.0273 280.289 19.5508C279.805 19.0742 279.141 18.6875 278.297 18.3906C277.453 18.0937 276.379 17.9453 275.074 17.9453C274.199 17.9453 273.43 18.0156 272.766 18.1562C272.102 18.2891 271.527 18.4766 271.043 18.7188C270.559 18.9609 270.152 19.2461 269.824 19.5742C269.496 19.8945 269.234 20.2422 269.039 20.6172C268.844 20.9844 268.703 21.3711 268.617 21.7773C268.539 22.1758 268.5 22.5703 268.5 22.9609C268.5 23.3594 268.539 23.7617 268.617 24.168C268.703 24.5742 268.844 24.9648 269.039 25.3398C269.234 25.707 269.496 26.0508 269.824 26.3711C270.152 26.6914 270.559 26.9727 271.043 27.2148C271.527 27.4492 272.102 27.6367 272.766 27.7773C273.43 27.9102 274.199 27.9766 275.074 27.9766C276.379 27.9766 277.453 27.8281 278.297 27.5312C279.141 27.2344 279.805 26.8477 280.289 26.3711C280.781 25.8945 281.121 25.3594 281.309 24.7656C281.504 24.1641 281.602 23.5625 281.602 22.9609Z" fill="black"/>
<path d="M255.762 31V14.8984H260.109V31H255.762Z" fill="black"/>
<path d="M251.789 22.9375C251.789 23.9687 251.676 24.8867 251.449 25.6914C251.223 26.4883 250.902 27.1836 250.488 27.7773C250.082 28.3711 249.59 28.875 249.012 29.2891C248.441 29.7031 247.805 30.0352 247.102 30.2852C246.398 30.5352 245.641 30.7188 244.828 30.8359C244.016 30.9453 243.168 31 242.285 31H232.066V14.8984L242.262 14.8984C243.145 14.8984 243.992 14.957 244.805 15.0742C245.617 15.1836 246.375 15.3633 247.078 15.6133C247.789 15.8633 248.434 16.1953 249.012 16.6094C249.59 17.0156 250.082 17.5195 250.488 18.1211C250.902 18.7148 251.223 19.4102 251.449 20.207C251.676 21.0039 251.789 21.9141 251.789 22.9375ZM247.406 22.9375C247.406 22.1641 247.305 21.4922 247.102 20.9219C246.906 20.3516 246.586 19.8828 246.141 19.5156C245.703 19.1406 245.129 18.8633 244.418 18.6836C243.707 18.4961 242.84 18.4023 241.816 18.4023H236.414V27.4961H241.816C242.84 27.4961 243.707 27.4062 244.418 27.2266C245.129 27.0391 245.703 26.7578 246.141 26.3828C246.586 26 246.906 25.5234 247.102 24.9531C247.305 24.3828 247.406 23.7109 247.406 22.9375Z" fill="black"/>
<path d="M211.688 14.8984V23.9688C211.688 24.5703 211.738 25.1172 211.84 25.6094C211.941 26.0938 212.129 26.5117 212.402 26.8633C212.676 27.207 213.059 27.4766 213.551 27.6719C214.043 27.8594 214.684 27.9531 215.473 27.9531C216.066 27.9531 216.688 27.8711 217.336 27.707C217.992 27.543 218.641 27.3242 219.281 27.0508C219.922 26.7773 220.531 26.4648 221.109 26.1133C221.695 25.7539 222.219 25.3828 222.68 25V14.8984L227.016 14.8984V31H222.68V28.7969C222.133 29.1094 221.551 29.4258 220.934 29.7461C220.316 30.0586 219.66 30.3438 218.965 30.6016C218.27 30.8516 217.531 31.0547 216.75 31.2109C215.969 31.375 215.145 31.457 214.277 31.457C213.191 31.457 212.219 31.3242 211.359 31.0586C210.5 30.8008 209.773 30.4336 209.18 29.957C208.586 29.4727 208.129 28.8906 207.809 28.2109C207.496 27.5234 207.34 26.7578 207.34 25.9141V14.8984H211.688Z" fill="black"/>
<path d="M197.684 18.4023V31L193.336 31V18.4023H186.504V14.8984L204.527 14.8984V18.4023L197.684 18.4023Z" fill="black"/>
<path d="M183.199 19.4336C182.895 19.2852 182.492 19.1172 181.992 18.9297C181.492 18.7422 180.926 18.5664 180.293 18.4023C179.66 18.2305 178.973 18.0898 178.23 17.9805C177.488 17.8633 176.727 17.8047 175.945 17.8047C175.32 17.8047 174.785 17.8242 174.34 17.8633C173.902 17.9023 173.531 17.9531 173.227 18.0156C172.93 18.0781 172.691 18.1523 172.512 18.2383C172.34 18.3164 172.207 18.3984 172.113 18.4844C172.02 18.5703 171.957 18.6562 171.926 18.7422C171.902 18.8281 171.891 18.9062 171.891 18.9766C171.891 19.2109 172.008 19.418 172.242 19.5977C172.477 19.7695 172.797 19.9258 173.203 20.0664C173.609 20.1992 174.082 20.3281 174.621 20.4531C175.16 20.5703 175.73 20.6953 176.332 20.8281C176.941 20.9531 177.566 21.0938 178.207 21.25C178.855 21.3984 179.48 21.5742 180.082 21.7773C180.691 21.9805 181.266 22.2188 181.805 22.4922C182.344 22.7578 182.816 23.0703 183.223 23.4297C183.629 23.7891 183.949 24.2031 184.184 24.6719C184.418 25.1406 184.535 25.6758 184.535 26.2773C184.535 27.0508 184.398 27.7148 184.125 28.2695C183.852 28.8242 183.484 29.293 183.023 29.6758C182.57 30.0586 182.043 30.3672 181.441 30.6016C180.84 30.8281 180.207 31.0039 179.543 31.1289C178.887 31.2539 178.219 31.3359 177.539 31.375C176.867 31.4141 176.227 31.4336 175.617 31.4336C174.023 31.4336 172.547 31.3008 171.188 31.0352C169.836 30.7773 168.641 30.4531 167.602 30.0625V26.2188C168.672 26.8125 169.891 27.2773 171.258 27.6133C172.633 27.9492 174.102 28.1172 175.664 28.1172C176.586 28.1172 177.336 28.0703 177.914 27.9766C178.5 27.875 178.957 27.75 179.285 27.6016C179.613 27.4453 179.836 27.2773 179.953 27.0977C180.07 26.918 180.129 26.7461 180.129 26.582C180.129 26.3242 180.012 26.1016 179.777 25.9141C179.543 25.7188 179.223 25.5508 178.816 25.4102C178.41 25.2617 177.938 25.1289 177.398 25.0117C176.859 24.8867 176.285 24.7656 175.676 24.6484C175.074 24.5234 174.453 24.3906 173.812 24.25C173.172 24.1094 172.547 23.9453 171.938 23.7578C171.336 23.5625 170.766 23.3398 170.227 23.0898C169.688 22.832 169.215 22.5312 168.809 22.1875C168.402 21.8359 168.082 21.4336 167.848 20.9805C167.613 20.5195 167.496 19.9883 167.496 19.3867C167.496 18.6758 167.621 18.0625 167.871 17.5469C168.121 17.0312 168.457 16.5938 168.879 16.2344C169.309 15.8672 169.801 15.5703 170.355 15.3438C170.918 15.1172 171.508 14.9414 172.125 14.8164C172.742 14.6914 173.367 14.6055 174 14.5586C174.633 14.5117 175.234 14.4883 175.805 14.4883C176.43 14.4883 177.07 14.5195 177.727 14.582C178.391 14.6445 179.043 14.7344 179.684 14.8516C180.324 14.9609 180.941 15.0898 181.535 15.2383C182.137 15.3867 182.691 15.543 183.199 15.707V19.4336Z" fill="black"/>
<path d="M160.195 31V26.7812H164.637V31H160.195Z" fill="black"/>
<path d="M0 262.5C0 250.074 10.0736 240 22.5 240H159.5C171.926 240 182 250.074 182 262.5C182 274.926 171.926 285 159.5 285H22.5C10.0736 285 0 274.926 0 262.5Z" fill="black"/>
<path fill-rule="evenodd" clip-rule="evenodd" d="M159.5 242H22.5C11.1782 242 2 251.178 2 262.5C2 273.822 11.1782 283 22.5 283H159.5C170.822 283 180 273.822 180 262.5C180 251.178 170.822 242 159.5 242ZM22.5 240C10.0736 240 0 250.074 0 262.5C0 274.926 10.0736 285 22.5 285H159.5C171.926 285 182 274.926 182 262.5C182 250.074 171.926 240 159.5 240H22.5Z" fill="#8550F6"/>
<path d="M156.277 262.984C156.277 262.258 156.211 261.59 156.078 260.98C155.945 260.363 155.742 259.773 155.469 259.211C155.195 258.648 154.848 258.102 154.426 257.57C154.012 257.039 153.516 256.492 152.938 255.93L154.402 254.348V254.324L155.363 253.316C156.074 253.855 156.715 254.453 157.285 255.109C157.715 255.594 158.105 256.109 158.457 256.656C158.809 257.203 159.109 257.789 159.359 258.414C159.609 259.031 159.805 259.695 159.945 260.406C160.094 261.117 160.176 261.879 160.191 262.691V262.984C160.191 263.844 160.121 264.645 159.98 265.387C159.848 266.129 159.656 266.824 159.406 267.473C159.156 268.113 158.852 268.715 158.492 269.277C158.133 269.832 157.73 270.359 157.285 270.859C157.02 271.156 156.742 271.438 156.453 271.703C156.172 271.977 155.883 272.238 155.586 272.488C155.547 272.512 155.508 272.535 155.469 272.559C155.438 272.582 155.402 272.613 155.363 272.652L154.402 271.645V271.621L152.938 270.039C153.516 269.477 154.012 268.93 154.426 268.398C154.848 267.867 155.195 267.32 155.469 266.758C155.742 266.195 155.945 265.609 156.078 265C156.211 264.383 156.277 263.711 156.277 262.984Z" fill="#8550F6"/>
<path d="M149.387 262.961C149.387 264.242 149.141 265.406 148.648 266.453C148.164 267.492 147.496 268.383 146.645 269.125C145.793 269.859 144.789 270.43 143.633 270.836C142.477 271.234 141.234 271.434 139.906 271.434C139.016 271.434 138.164 271.344 137.352 271.164C136.539 270.984 135.777 270.723 135.066 270.379C134.363 270.035 133.723 269.617 133.145 269.125C132.574 268.625 132.086 268.062 131.68 267.438C131.273 266.812 130.957 266.125 130.73 265.375C130.512 264.625 130.402 263.82 130.402 262.961C130.402 262.109 130.512 261.309 130.73 260.559C130.957 259.801 131.273 259.109 131.68 258.484C132.086 257.859 132.574 257.301 133.145 256.809C133.723 256.309 134.363 255.887 135.066 255.543C135.777 255.199 136.539 254.938 137.352 254.758C138.164 254.578 139.016 254.488 139.906 254.488C141.234 254.488 142.477 254.691 143.633 255.098C144.789 255.496 145.793 256.066 146.645 256.809C147.496 257.543 148.164 258.434 148.648 259.48C149.141 260.52 149.387 261.68 149.387 262.961ZM145.039 262.961C145.039 262.148 144.898 261.43 144.617 260.805C144.336 260.18 143.957 259.652 143.48 259.223C143.012 258.793 142.469 258.469 141.852 258.25C141.234 258.031 140.586 257.922 139.906 257.922C139.227 257.922 138.574 258.031 137.949 258.25C137.324 258.469 136.773 258.793 136.297 259.223C135.828 259.652 135.449 260.18 135.16 260.805C134.879 261.43 134.738 262.148 134.738 262.961C134.738 263.773 134.879 264.492 135.16 265.117C135.449 265.742 135.828 266.27 136.297 266.699C136.773 267.121 137.324 267.445 137.949 267.672C138.574 267.891 139.227 268 139.906 268C140.586 268 141.234 267.891 141.852 267.672C142.469 267.445 143.012 267.121 143.48 266.699C143.957 266.27 144.336 265.742 144.617 265.117C144.898 264.492 145.039 263.773 145.039 262.961Z" fill="#8550F6"/>
<path d="M110.609 271V268.117C112.703 267.156 114.52 266.297 116.059 265.539C117.605 264.781 118.883 264.094 119.891 263.477C120.906 262.859 121.66 262.297 122.152 261.789C122.645 261.273 122.891 260.777 122.891 260.301C122.891 260.168 122.875 260.02 122.844 259.855C122.82 259.684 122.758 259.512 122.656 259.34C122.562 259.16 122.422 258.984 122.234 258.812C122.047 258.641 121.789 258.492 121.461 258.367C121.133 258.234 120.727 258.129 120.242 258.051C119.758 257.965 119.172 257.922 118.484 257.922C117.852 257.922 117.191 257.965 116.504 258.051C115.816 258.129 115.137 258.242 114.465 258.391C113.793 258.539 113.145 258.719 112.52 258.93C111.895 259.141 111.32 259.379 110.797 259.645V255.812C111.875 255.438 113.07 255.125 114.383 254.875C115.703 254.617 117.094 254.488 118.555 254.488C119.922 254.488 121.145 254.609 122.223 254.852C123.301 255.094 124.211 255.445 124.953 255.906C125.703 256.359 126.273 256.914 126.664 257.57C127.062 258.219 127.262 258.953 127.262 259.773C127.262 260.227 127.211 260.652 127.109 261.051C127.016 261.441 126.844 261.824 126.594 262.199C126.344 262.574 126.004 262.953 125.574 263.336C125.152 263.711 124.613 264.109 123.957 264.531C123.309 264.953 122.531 265.41 121.625 265.902C120.719 266.387 119.664 266.926 118.461 267.52H127.602V271H110.609Z" fill="#8550F6"/>
<path d="M98.3633 264.883V261.039H107.973V264.883H98.3633Z" fill="#8550F6"/>
<path d="M95.1523 269.898C94.5898 270.133 94.0234 270.344 93.4531 270.531C92.8828 270.719 92.293 270.879 91.6836 271.012C91.0742 271.152 90.4297 271.258 89.75 271.328C89.0781 271.398 88.3555 271.434 87.582 271.434C85.9414 271.434 84.4297 271.258 83.0469 270.906C81.6719 270.555 80.4844 270.027 79.4844 269.324C78.4922 268.613 77.7188 267.73 77.1641 266.676C76.6094 265.613 76.332 264.375 76.332 262.961C76.332 261.547 76.6094 260.312 77.1641 259.258C77.7188 258.195 78.4922 257.312 79.4844 256.609C80.4844 255.898 81.6719 255.367 83.0469 255.016C84.4297 254.664 85.9414 254.488 87.582 254.488C88.3555 254.488 89.0781 254.523 89.75 254.594C90.4297 254.664 91.0742 254.77 91.6836 254.91C92.293 255.043 92.8828 255.203 93.4531 255.391C94.0234 255.578 94.5898 255.789 95.1523 256.023V259.938C94.707 259.695 94.2383 259.457 93.7461 259.223C93.2539 258.98 92.7109 258.766 92.1172 258.578C91.5234 258.383 90.8711 258.227 90.1602 258.109C89.4492 257.984 88.6484 257.922 87.7578 257.922C86.3906 257.922 85.2539 258.062 84.3477 258.344C83.4492 258.625 82.7305 259 82.1914 259.469C81.6523 259.938 81.2734 260.477 81.0547 261.086C80.8359 261.688 80.7266 262.312 80.7266 262.961C80.7266 263.391 80.7734 263.816 80.8672 264.238C80.9609 264.652 81.1172 265.047 81.3359 265.422C81.5547 265.789 81.8398 266.129 82.1914 266.441C82.543 266.754 82.9805 267.023 83.5039 267.25C84.0273 267.477 84.6367 267.656 85.332 267.789C86.0352 267.914 86.8438 267.977 87.7578 267.977C88.6484 267.977 89.4492 267.922 90.1602 267.812C90.8711 267.695 91.5234 267.543 92.1172 267.355C92.7109 267.168 93.2539 266.957 93.7461 266.723C94.2383 266.48 94.707 266.234 95.1523 265.984V269.898Z" fill="#8550F6"/>
<path d="M74.6445 258.543C74.5273 258.504 74.3555 258.453 74.1289 258.391C73.9102 258.32 73.6523 258.254 73.3555 258.191C73.0586 258.121 72.7305 258.062 72.3711 258.016C72.0195 257.969 71.6562 257.945 71.2812 257.945C70.5 257.945 69.7695 258.043 69.0898 258.238C68.418 258.426 67.7891 258.68 67.2031 259C66.6172 259.312 66.0703 259.672 65.5625 260.078C65.0625 260.477 64.6016 260.887 64.1797 261.309V271H59.832V254.898H64.1797V257.512C64.7031 257.121 65.2383 256.746 65.7852 256.387C66.3398 256.02 66.9141 255.695 67.5078 255.414C68.1094 255.133 68.7422 254.91 69.4062 254.746C70.0703 254.574 70.7734 254.488 71.5156 254.488C71.7969 254.488 72.082 254.504 72.3711 254.535C72.668 254.559 72.9531 254.59 73.2266 254.629C73.5078 254.668 73.7695 254.711 74.0117 254.758C74.2539 254.805 74.4648 254.852 74.6445 254.898V258.543Z" fill="#8550F6"/>
<path d="M54.5586 270.203C53.2383 270.641 51.918 270.953 50.5977 271.141C49.2852 271.336 47.9414 271.434 46.5664 271.434C44.8086 271.434 43.2422 271.246 41.8672 270.871C40.5 270.488 39.3477 269.938 38.4102 269.219C37.4727 268.5 36.7578 267.621 36.2656 266.582C35.7734 265.543 35.5273 264.367 35.5273 263.055C35.5273 261.836 35.7734 260.707 36.2656 259.668C36.7656 258.621 37.4688 257.715 38.375 256.949C39.2891 256.176 40.3906 255.574 41.6797 255.145C42.9688 254.707 44.4062 254.488 45.9922 254.488C47.4531 254.488 48.7891 254.688 50 255.086C51.2188 255.477 52.2617 256.059 53.1289 256.832C54.0039 257.605 54.6797 258.559 55.1562 259.691C55.6406 260.824 55.8828 262.129 55.8828 263.605V264.684H40.0156C40.1562 265.191 40.3867 265.656 40.707 266.078C41.0352 266.5 41.4766 266.859 42.0312 267.156C42.5859 267.453 43.2656 267.684 44.0703 267.848C44.8828 268.012 45.8516 268.094 46.9766 268.094C47.7734 268.094 48.5547 268.047 49.3203 267.953C50.0859 267.852 50.8008 267.723 51.4648 267.566C52.1289 267.402 52.7266 267.223 53.2578 267.027C53.7969 266.832 54.2305 266.637 54.5586 266.441V270.203ZM51.5586 261.496C51.5195 261.098 51.3984 260.688 51.1953 260.266C51 259.836 50.6875 259.449 50.2578 259.105C49.8281 258.762 49.2656 258.48 48.5703 258.262C47.875 258.035 47.0078 257.922 45.9688 257.922C44.9922 257.922 44.1484 258.043 43.4375 258.285C42.7266 258.527 42.1289 258.828 41.6445 259.188C41.168 259.547 40.7969 259.934 40.5312 260.348C40.2656 260.762 40.0938 261.145 40.0156 261.496H51.5586Z" fill="#8550F6"/>
<path d="M28.5898 262.984C28.5898 263.711 28.6562 264.383 28.7891 265C28.9219 265.609 29.125 266.195 29.3984 266.758C29.6719 267.32 30.0156 267.867 30.4297 268.398C30.8516 268.93 31.3516 269.477 31.9297 270.039L29.5039 272.652C28.7852 272.082 28.1289 271.469 27.5352 270.812C26.9492 270.156 26.4414 269.438 26.0117 268.656C25.5898 267.875 25.2617 267.02 25.0273 266.09C24.793 265.152 24.6758 264.117 24.6758 262.984C24.6758 261.852 24.793 260.82 25.0273 259.891C25.2617 258.953 25.5898 258.094 26.0117 257.312C26.4414 256.531 26.9492 255.816 27.5352 255.168C28.1289 254.512 28.7852 253.895 29.5039 253.316L31.9297 255.93C31.3516 256.492 30.8516 257.039 30.4297 257.57C30.0156 258.102 29.6719 258.648 29.3984 259.211C29.125 259.773 28.9219 260.363 28.7891 260.98C28.6562 261.59 28.5898 262.258 28.5898 262.984Z" fill="#8550F6"/>
<path d="M299 262.5C299 250.074 309.074 240 321.5 240H538.5C550.926 240 561 250.074 561 262.5C561 274.926 550.926 285 538.5 285H321.5C309.074 285 299 274.926 299 262.5Z" fill="#0FE5F2"/>
<path d="M530.852 271V261.977C530.852 261.375 530.801 260.832 530.699 260.348C530.598 259.855 530.406 259.438 530.125 259.094C529.852 258.742 529.465 258.473 528.965 258.285C528.473 258.09 527.836 257.992 527.055 257.992C526.461 257.992 525.836 258.074 525.18 258.238C524.531 258.395 523.887 258.605 523.246 258.871C522.605 259.137 521.992 259.445 521.406 259.797C520.828 260.148 520.312 260.516 519.859 260.898V271H515.512V254.898H519.859V257.102C520.406 256.789 520.988 256.48 521.605 256.176C522.223 255.863 522.879 255.582 523.574 255.332C524.27 255.082 525.008 254.879 525.789 254.723C526.57 254.566 527.395 254.488 528.262 254.488C529.348 254.488 530.316 254.621 531.168 254.887C532.027 255.145 532.754 255.516 533.348 256C533.941 256.477 534.395 257.059 534.707 257.746C535.027 258.426 535.188 259.188 535.188 260.031V271H530.852Z" fill="black"/>
<path d="M506.113 271V254.898H510.461V271H506.113Z" fill="black"/>
<path d="M496.797 271V269.418C496.242 269.723 495.645 269.992 495.004 270.227C494.371 270.461 493.711 270.66 493.023 270.824C492.336 270.988 491.625 271.109 490.891 271.188C490.164 271.273 489.43 271.316 488.688 271.316C487.82 271.316 486.98 271.234 486.168 271.07C485.363 270.906 484.648 270.641 484.023 270.273C483.398 269.906 482.895 269.426 482.512 268.832C482.137 268.238 481.949 267.512 481.949 266.652C481.949 265.566 482.246 264.664 482.84 263.945C483.434 263.219 484.34 262.625 485.559 262.164C486.777 261.703 488.316 261.348 490.176 261.098C492.043 260.848 494.25 260.652 496.797 260.512V260.172C496.797 259.906 496.727 259.645 496.586 259.387C496.445 259.121 496.188 258.891 495.812 258.695C495.445 258.492 494.938 258.328 494.289 258.203C493.648 258.078 492.828 258.016 491.828 258.016C491.039 258.016 490.258 258.059 489.484 258.145C488.719 258.223 487.977 258.332 487.258 258.473C486.547 258.613 485.871 258.777 485.23 258.965C484.59 259.152 484.008 259.348 483.484 259.551V255.684C484.031 255.543 484.645 255.406 485.324 255.273C486.004 255.141 486.711 255.027 487.445 254.934C488.18 254.832 488.922 254.754 489.672 254.699C490.422 254.637 491.141 254.605 491.828 254.605C493.18 254.605 494.426 254.719 495.566 254.945C496.707 255.164 497.688 255.508 498.508 255.977C499.336 256.445 499.98 257.039 500.441 257.758C500.91 258.477 501.145 259.332 501.145 260.324V271H496.797ZM496.797 263.652C495.125 263.715 493.703 263.805 492.531 263.922C491.367 264.039 490.398 264.176 489.625 264.332C488.852 264.488 488.242 264.656 487.797 264.836C487.359 265.016 487.031 265.199 486.812 265.387C486.594 265.574 486.457 265.762 486.402 265.949C486.355 266.137 486.332 266.309 486.332 266.465C486.332 266.652 486.383 266.836 486.484 267.016C486.586 267.188 486.762 267.34 487.012 267.473C487.27 267.605 487.609 267.711 488.031 267.789C488.453 267.867 488.984 267.906 489.625 267.906C490.336 267.906 491.031 267.852 491.711 267.742C492.391 267.633 493.035 267.484 493.645 267.297C494.254 267.102 494.824 266.875 495.355 266.617C495.895 266.352 496.375 266.07 496.797 265.773V263.652Z" fill="black"/>
<path d="M473.758 271V264.285H462.695V271H458.348V254.898H462.695V260.758H473.758V254.898H478.105V271H473.758Z" fill="black"/>
<path d="M454.293 269.898C453.73 270.133 453.164 270.344 452.594 270.531C452.023 270.719 451.434 270.879 450.824 271.012C450.215 271.152 449.57 271.258 448.891 271.328C448.219 271.398 447.496 271.434 446.723 271.434C445.082 271.434 443.57 271.258 442.188 270.906C440.812 270.555 439.625 270.027 438.625 269.324C437.633 268.613 436.859 267.73 436.305 266.676C435.75 265.613 435.473 264.375 435.473 262.961C435.473 261.547 435.75 260.312 436.305 259.258C436.859 258.195 437.633 257.312 438.625 256.609C439.625 255.898 440.812 255.367 442.188 255.016C443.57 254.664 445.082 254.488 446.723 254.488C447.496 254.488 448.219 254.523 448.891 254.594C449.57 254.664 450.215 254.77 450.824 254.91C451.434 255.043 452.023 255.203 452.594 255.391C453.164 255.578 453.73 255.789 454.293 256.023V259.938C453.848 259.695 453.379 259.457 452.887 259.223C452.395 258.98 451.852 258.766 451.258 258.578C450.664 258.383 450.012 258.227 449.301 258.109C448.59 257.984 447.789 257.922 446.898 257.922C445.531 257.922 444.395 258.062 443.488 258.344C442.59 258.625 441.871 259 441.332 259.469C440.793 259.938 440.414 260.477 440.195 261.086C439.977 261.688 439.867 262.312 439.867 262.961C439.867 263.391 439.914 263.816 440.008 264.238C440.102 264.652 440.258 265.047 440.477 265.422C440.695 265.789 440.98 266.129 441.332 266.441C441.684 266.754 442.121 267.023 442.645 267.25C443.168 267.477 443.777 267.656 444.473 267.789C445.176 267.914 445.984 267.977 446.898 267.977C447.789 267.977 448.59 267.922 449.301 267.812C450.012 267.695 450.664 267.543 451.258 267.355C451.852 267.168 452.395 266.957 452.887 266.723C453.379 266.48 453.848 266.234 454.293 265.984V269.898Z" fill="black"/>
<path d="M428.383 271C428.305 270.125 428.094 269.359 427.75 268.703C427.406 268.039 426.973 267.469 426.449 266.992C425.934 266.516 425.348 266.121 424.691 265.809C424.043 265.496 423.375 265.25 422.688 265.07C422 264.883 421.312 264.754 420.625 264.684C419.945 264.605 419.312 264.566 418.727 264.566H417.438V271H413.09V254.898H417.438V261.109H418.328C418.93 261.109 419.559 261.062 420.215 260.969C420.871 260.875 421.52 260.727 422.16 260.523C422.809 260.32 423.43 260.059 424.023 259.738C424.617 259.418 425.148 259.027 425.617 258.566C426.086 258.105 426.477 257.574 426.789 256.973C427.102 256.363 427.297 255.672 427.375 254.898H431.805C431.727 255.75 431.555 256.52 431.289 257.207C431.031 257.895 430.707 258.512 430.316 259.059C429.934 259.598 429.504 260.07 429.027 260.477C428.551 260.883 428.062 261.234 427.562 261.531C427.062 261.82 426.562 262.062 426.062 262.258C425.57 262.445 425.109 262.59 424.68 262.691C425.227 262.777 425.793 262.914 426.379 263.102C426.973 263.281 427.559 263.523 428.137 263.828C428.715 264.125 429.266 264.492 429.789 264.93C430.32 265.367 430.797 265.879 431.219 266.465C431.641 267.051 431.992 267.719 432.273 268.469C432.555 269.219 432.734 270.062 432.812 271H428.383Z" fill="black"/>
<path d="M409.035 269.898C408.473 270.133 407.906 270.344 407.336 270.531C406.766 270.719 406.176 270.879 405.566 271.012C404.957 271.152 404.312 271.258 403.633 271.328C402.961 271.398 402.238 271.434 401.465 271.434C399.824 271.434 398.312 271.258 396.93 270.906C395.555 270.555 394.367 270.027 393.367 269.324C392.375 268.613 391.602 267.73 391.047 266.676C390.492 265.613 390.215 264.375 390.215 262.961C390.215 261.547 390.492 260.312 391.047 259.258C391.602 258.195 392.375 257.312 393.367 256.609C394.367 255.898 395.555 255.367 396.93 255.016C398.312 254.664 399.824 254.488 401.465 254.488C402.238 254.488 402.961 254.523 403.633 254.594C404.312 254.664 404.957 254.77 405.566 254.91C406.176 255.043 406.766 255.203 407.336 255.391C407.906 255.578 408.473 255.789 409.035 256.023V259.938C408.59 259.695 408.121 259.457 407.629 259.223C407.137 258.98 406.594 258.766 406 258.578C405.406 258.383 404.754 258.227 404.043 258.109C403.332 257.984 402.531 257.922 401.641 257.922C400.273 257.922 399.137 258.062 398.23 258.344C397.332 258.625 396.613 259 396.074 259.469C395.535 259.938 395.156 260.477 394.938 261.086C394.719 261.688 394.609 262.312 394.609 262.961C394.609 263.391 394.656 263.816 394.75 264.238C394.844 264.652 395 265.047 395.219 265.422C395.438 265.789 395.723 266.129 396.074 266.441C396.426 266.754 396.863 267.023 397.387 267.25C397.91 267.477 398.52 267.656 399.215 267.789C399.918 267.914 400.727 267.977 401.641 267.977C402.531 267.977 403.332 267.922 404.043 267.812C404.754 267.695 405.406 267.543 406 267.355C406.594 267.168 407.137 266.957 407.629 266.723C408.121 266.48 408.59 266.234 409.035 265.984V269.898Z" fill="black"/>
<path d="M387.332 262.961C387.332 264.344 387.078 265.566 386.57 266.629C386.062 267.684 385.336 268.566 384.391 269.277C383.445 269.988 382.297 270.527 380.945 270.895C379.602 271.254 378.09 271.434 376.41 271.434C374.73 271.434 373.211 271.254 371.852 270.895C370.5 270.527 369.348 269.988 368.395 269.277C367.441 268.566 366.707 267.684 366.191 266.629C365.676 265.566 365.418 264.344 365.418 262.961C365.418 261.578 365.676 260.359 366.191 259.305C366.707 258.242 367.441 257.355 368.395 256.645C369.348 255.934 370.5 255.398 371.852 255.039C373.211 254.672 374.73 254.488 376.41 254.488C378.09 254.488 379.602 254.672 380.945 255.039C382.297 255.398 383.445 255.934 384.391 256.645C385.336 257.355 386.062 258.242 386.57 259.305C387.078 260.359 387.332 261.578 387.332 262.961ZM382.938 262.961C382.938 262.359 382.84 261.762 382.645 261.168C382.457 260.566 382.117 260.027 381.625 259.551C381.141 259.074 380.477 258.688 379.633 258.391C378.789 258.094 377.715 257.945 376.41 257.945C375.535 257.945 374.766 258.016 374.102 258.156C373.438 258.289 372.863 258.477 372.379 258.719C371.895 258.961 371.488 259.246 371.16 259.574C370.832 259.895 370.57 260.242 370.375 260.617C370.18 260.984 370.039 261.371 369.953 261.777C369.875 262.176 369.836 262.57 369.836 262.961C369.836 263.359 369.875 263.762 369.953 264.168C370.039 264.574 370.18 264.965 370.375 265.34C370.57 265.707 370.832 266.051 371.16 266.371C371.488 266.691 371.895 266.973 372.379 267.215C372.863 267.449 373.438 267.637 374.102 267.777C374.766 267.91 375.535 267.977 376.41 267.977C377.715 267.977 378.789 267.828 379.633 267.531C380.477 267.234 381.141 266.848 381.625 266.371C382.117 265.895 382.457 265.359 382.645 264.766C382.84 264.164 382.938 263.562 382.938 262.961Z" fill="black"/>
<path d="M351.203 264.109C351.203 264.781 351.266 265.332 351.391 265.762C351.516 266.184 351.719 266.52 352 266.77C352.281 267.02 352.645 267.191 353.09 267.285C353.543 267.379 354.098 267.426 354.754 267.426H363.004V271H353.863C352.598 271 351.52 270.898 350.629 270.695C349.746 270.484 349.023 270.164 348.461 269.734C347.898 269.297 347.488 268.746 347.23 268.082C346.98 267.418 346.855 266.629 346.855 265.715V254.898H351.203V264.109Z" fill="black"/>
<path d="M342.883 266.559C342.883 267.184 342.801 267.727 342.637 268.188C342.473 268.648 342.242 269.047 341.945 269.383C341.656 269.711 341.305 269.98 340.891 270.191C340.484 270.395 340.031 270.559 339.531 270.684C339.039 270.801 338.512 270.883 337.949 270.93C337.387 270.977 336.805 271 336.203 271H324.52V254.898H335.992C336.453 254.898 336.914 254.918 337.375 254.957C337.844 254.996 338.289 255.07 338.711 255.18C339.133 255.281 339.523 255.426 339.883 255.613C340.25 255.801 340.566 256.047 340.832 256.352C341.105 256.656 341.316 257.023 341.465 257.453C341.621 257.883 341.699 258.391 341.699 258.977C341.699 260.023 341.441 260.855 340.926 261.473C340.41 262.082 339.598 262.488 338.488 262.691C339.27 262.746 339.938 262.867 340.492 263.055C341.055 263.234 341.512 263.484 341.863 263.805C342.215 264.117 342.473 264.504 342.637 264.965C342.801 265.418 342.883 265.949 342.883 266.559ZM337.457 259.668C337.457 259.465 337.426 259.273 337.363 259.094C337.301 258.906 337.188 258.742 337.023 258.602C336.859 258.461 336.637 258.348 336.355 258.262C336.074 258.176 335.715 258.133 335.277 258.133H328.867V261.156H335.277C335.715 261.156 336.074 261.117 336.355 261.039C336.637 260.961 336.859 260.855 337.023 260.723C337.188 260.59 337.301 260.434 337.363 260.254C337.426 260.066 337.457 259.871 337.457 259.668ZM338.465 266.055C338.465 265.688 338.402 265.395 338.277 265.176C338.152 264.949 337.957 264.777 337.691 264.66C337.426 264.535 337.082 264.453 336.66 264.414C336.238 264.375 335.734 264.355 335.148 264.355H328.867V267.766H335.148C335.734 267.766 336.238 267.746 336.66 267.707C337.082 267.668 337.426 267.586 337.691 267.461C337.957 267.336 338.152 267.164 338.277 266.945C338.402 266.719 338.465 266.422 338.465 266.055Z" fill="black"/>
<path d="M194 262.5C194 250.074 204.074 240 216.5 240H264.5C276.926 240 287 250.074 287 262.5C287 274.926 276.926 285 264.5 285H216.5C204.074 285 194 274.926 194 262.5Z" fill="#83F04F"/>
<path d="M259.656 271V261.977C259.656 261.375 259.605 260.832 259.504 260.348C259.402 259.855 259.211 259.438 258.93 259.094C258.656 258.742 258.27 258.473 257.77 258.285C257.277 258.09 256.641 257.992 255.859 257.992C255.266 257.992 254.641 258.074 253.984 258.238C253.336 258.395 252.691 258.605 252.051 258.871C251.41 259.137 250.797 259.445 250.211 259.797C249.633 260.148 249.117 260.516 248.664 260.898V271H244.316V254.898H248.664V257.102C249.211 256.789 249.793 256.48 250.41 256.176C251.027 255.863 251.684 255.582 252.379 255.332C253.074 255.082 253.812 254.879 254.594 254.723C255.375 254.566 256.199 254.488 257.066 254.488C258.152 254.488 259.121 254.621 259.973 254.887C260.832 255.145 261.559 255.516 262.152 256C262.746 256.477 263.199 257.059 263.512 257.746C263.832 258.426 263.992 259.188 263.992 260.031V271H259.656Z" fill="black"/>
<path d="M240.355 262.961C240.355 264.344 240.102 265.566 239.594 266.629C239.086 267.684 238.359 268.566 237.414 269.277C236.469 269.988 235.32 270.527 233.969 270.895C232.625 271.254 231.113 271.434 229.434 271.434C227.754 271.434 226.234 271.254 224.875 270.895C223.523 270.527 222.371 269.988 221.418 269.277C220.465 268.566 219.73 267.684 219.215 266.629C218.699 265.566 218.441 264.344 218.441 262.961C218.441 261.578 218.699 260.359 219.215 259.305C219.73 258.242 220.465 257.355 221.418 256.645C222.371 255.934 223.523 255.398 224.875 255.039C226.234 254.672 227.754 254.488 229.434 254.488C231.113 254.488 232.625 254.672 233.969 255.039C235.32 255.398 236.469 255.934 237.414 256.645C238.359 257.355 239.086 258.242 239.594 259.305C240.102 260.359 240.355 261.578 240.355 262.961ZM235.961 262.961C235.961 262.359 235.863 261.762 235.668 261.168C235.48 260.566 235.141 260.027 234.648 259.551C234.164 259.074 233.5 258.688 232.656 258.391C231.812 258.094 230.738 257.945 229.434 257.945C228.559 257.945 227.789 258.016 227.125 258.156C226.461 258.289 225.887 258.477 225.402 258.719C224.918 258.961 224.512 259.246 224.184 259.574C223.855 259.895 223.594 260.242 223.398 260.617C223.203 260.984 223.062 261.371 222.977 261.777C222.898 262.176 222.859 262.57 222.859 262.961C222.859 263.359 222.898 263.762 222.977 264.168C223.062 264.574 223.203 264.965 223.398 265.34C223.594 265.707 223.855 266.051 224.184 266.371C224.512 266.691 224.918 266.973 225.402 267.215C225.887 267.449 226.461 267.637 227.125 267.777C227.789 267.91 228.559 267.977 229.434 267.977C230.738 267.977 231.812 267.828 232.656 267.531C233.5 267.234 234.164 266.848 234.648 266.371C235.141 265.895 235.48 265.359 235.668 264.766C235.863 264.164 235.961 263.562 235.961 262.961Z" fill="black"/>
<path d="M0 202.5C0 190.074 10.0736 180 22.5 180H205.5C217.926 180 228 190.074 228 202.5C228 214.926 217.926 225 205.5 225H22.5C10.0736 225 0 214.926 0 202.5Z" fill="#FF974C"/>
<path d="M197.844 211V204.285H186.781V211H182.434V194.898H186.781V200.758H197.844V194.898H202.191V211H197.844Z" fill="black"/>
<path d="M176.973 199.434C176.668 199.285 176.266 199.117 175.766 198.93C175.266 198.742 174.699 198.566 174.066 198.402C173.434 198.23 172.746 198.09 172.004 197.98C171.262 197.863 170.5 197.805 169.719 197.805C169.094 197.805 168.559 197.824 168.113 197.863C167.676 197.902 167.305 197.953 167 198.016C166.703 198.078 166.465 198.152 166.285 198.238C166.113 198.316 165.98 198.398 165.887 198.484C165.793 198.57 165.73 198.656 165.699 198.742C165.676 198.828 165.664 198.906 165.664 198.977C165.664 199.211 165.781 199.418 166.016 199.598C166.25 199.77 166.57 199.926 166.977 200.066C167.383 200.199 167.855 200.328 168.395 200.453C168.934 200.57 169.504 200.695 170.105 200.828C170.715 200.953 171.34 201.094 171.98 201.25C172.629 201.398 173.254 201.574 173.855 201.777C174.465 201.98 175.039 202.219 175.578 202.492C176.117 202.758 176.59 203.07 176.996 203.43C177.402 203.789 177.723 204.203 177.957 204.672C178.191 205.141 178.309 205.676 178.309 206.277C178.309 207.051 178.172 207.715 177.898 208.27C177.625 208.824 177.258 209.293 176.797 209.676C176.344 210.059 175.816 210.367 175.215 210.602C174.613 210.828 173.98 211.004 173.316 211.129C172.66 211.254 171.992 211.336 171.312 211.375C170.641 211.414 170 211.434 169.391 211.434C167.797 211.434 166.32 211.301 164.961 211.035C163.609 210.777 162.414 210.453 161.375 210.062V206.219C162.445 206.812 163.664 207.277 165.031 207.613C166.406 207.949 167.875 208.117 169.438 208.117C170.359 208.117 171.109 208.07 171.688 207.977C172.273 207.875 172.73 207.75 173.059 207.602C173.387 207.445 173.609 207.277 173.727 207.098C173.844 206.918 173.902 206.746 173.902 206.582C173.902 206.324 173.785 206.102 173.551 205.914C173.316 205.719 172.996 205.551 172.59 205.41C172.184 205.262 171.711 205.129 171.172 205.012C170.633 204.887 170.059 204.766 169.449 204.648C168.848 204.523 168.227 204.391 167.586 204.25C166.945 204.109 166.32 203.945 165.711 203.758C165.109 203.562 164.539 203.34 164 203.09C163.461 202.832 162.988 202.531 162.582 202.188C162.176 201.836 161.855 201.434 161.621 200.98C161.387 200.52 161.27 199.988 161.27 199.387C161.27 198.676 161.395 198.062 161.645 197.547C161.895 197.031 162.23 196.594 162.652 196.234C163.082 195.867 163.574 195.57 164.129 195.344C164.691 195.117 165.281 194.941 165.898 194.816C166.516 194.691 167.141 194.605 167.773 194.559C168.406 194.512 169.008 194.488 169.578 194.488C170.203 194.488 170.844 194.52 171.5 194.582C172.164 194.645 172.816 194.734 173.457 194.852C174.098 194.961 174.715 195.09 175.309 195.238C175.91 195.387 176.465 195.543 176.973 195.707V199.434Z" fill="black"/>
<path d="M152.738 211V194.898H157.086V211H152.738Z" fill="black"/>
<path d="M137.445 204.109C137.445 204.781 137.508 205.332 137.633 205.762C137.758 206.184 137.961 206.52 138.242 206.77C138.523 207.02 138.887 207.191 139.332 207.285C139.785 207.379 140.34 207.426 140.996 207.426H149.246V211H140.105C138.84 211 137.762 210.898 136.871 210.695C135.988 210.484 135.266 210.164 134.703 209.734C134.141 209.297 133.73 208.746 133.473 208.082C133.223 207.418 133.098 206.629 133.098 205.715V194.898H137.445V204.109Z" fill="black"/>
<path d="M129.125 206.559C129.125 207.184 129.043 207.727 128.879 208.188C128.715 208.648 128.484 209.047 128.188 209.383C127.898 209.711 127.547 209.98 127.133 210.191C126.727 210.395 126.273 210.559 125.773 210.684C125.281 210.801 124.754 210.883 124.191 210.93C123.629 210.977 123.047 211 122.445 211H110.762V194.898H122.234C122.695 194.898 123.156 194.918 123.617 194.957C124.086 194.996 124.531 195.07 124.953 195.18C125.375 195.281 125.766 195.426 126.125 195.613C126.492 195.801 126.809 196.047 127.074 196.352C127.348 196.656 127.559 197.023 127.707 197.453C127.863 197.883 127.941 198.391 127.941 198.977C127.941 200.023 127.684 200.855 127.168 201.473C126.652 202.082 125.84 202.488 124.73 202.691C125.512 202.746 126.18 202.867 126.734 203.055C127.297 203.234 127.754 203.484 128.105 203.805C128.457 204.117 128.715 204.504 128.879 204.965C129.043 205.418 129.125 205.949 129.125 206.559ZM123.699 199.668C123.699 199.465 123.668 199.273 123.605 199.094C123.543 198.906 123.43 198.742 123.266 198.602C123.102 198.461 122.879 198.348 122.598 198.262C122.316 198.176 121.957 198.133 121.52 198.133H115.109V201.156H121.52C121.957 201.156 122.316 201.117 122.598 201.039C122.879 200.961 123.102 200.855 123.266 200.723C123.43 200.59 123.543 200.434 123.605 200.254C123.668 200.066 123.699 199.871 123.699 199.668ZM124.707 206.055C124.707 205.688 124.645 205.395 124.52 205.176C124.395 204.949 124.199 204.777 123.934 204.66C123.668 204.535 123.324 204.453 122.902 204.414C122.48 204.375 121.977 204.355 121.391 204.355H115.109V207.766H121.391C121.977 207.766 122.48 207.746 122.902 207.707C123.324 207.668 123.668 207.586 123.934 207.461C124.199 207.336 124.395 207.164 124.52 206.945C124.645 206.719 124.707 206.422 124.707 206.055Z" fill="black"/>
<path d="M101.445 211V209.418C100.891 209.723 100.293 209.992 99.6523 210.227C99.0195 210.461 98.3594 210.66 97.6719 210.824C96.9844 210.988 96.2734 211.109 95.5391 211.188C94.8125 211.273 94.0781 211.316 93.3359 211.316C92.4688 211.316 91.6289 211.234 90.8164 211.07C90.0117 210.906 89.2969 210.641 88.6719 210.273C88.0469 209.906 87.543 209.426 87.1602 208.832C86.7852 208.238 86.5977 207.512 86.5977 206.652C86.5977 205.566 86.8945 204.664 87.4883 203.945C88.082 203.219 88.9883 202.625 90.207 202.164C91.4258 201.703 92.9648 201.348 94.8242 201.098C96.6914 200.848 98.8984 200.652 101.445 200.512V200.172C101.445 199.906 101.375 199.645 101.234 199.387C101.094 199.121 100.836 198.891 100.461 198.695C100.094 198.492 99.5859 198.328 98.9375 198.203C98.2969 198.078 97.4766 198.016 96.4766 198.016C95.6875 198.016 94.9062 198.059 94.1328 198.145C93.3672 198.223 92.625 198.332 91.9062 198.473C91.1953 198.613 90.5195 198.777 89.8789 198.965C89.2383 199.152 88.6562 199.348 88.1328 199.551V195.684C88.6797 195.543 89.293 195.406 89.9727 195.273C90.6523 195.141 91.3594 195.027 92.0938 194.934C92.8281 194.832 93.5703 194.754 94.3203 194.699C95.0703 194.637 95.7891 194.605 96.4766 194.605C97.8281 194.605 99.0742 194.719 100.215 194.945C101.355 195.164 102.336 195.508 103.156 195.977C103.984 196.445 104.629 197.039 105.09 197.758C105.559 198.477 105.793 199.332 105.793 200.324V211H101.445ZM101.445 203.652C99.7734 203.715 98.3516 203.805 97.1797 203.922C96.0156 204.039 95.0469 204.176 94.2734 204.332C93.5 204.488 92.8906 204.656 92.4453 204.836C92.0078 205.016 91.6797 205.199 91.4609 205.387C91.2422 205.574 91.1055 205.762 91.0508 205.949C91.0039 206.137 90.9805 206.309 90.9805 206.465C90.9805 206.652 91.0312 206.836 91.1328 207.016C91.2344 207.188 91.4102 207.34 91.6602 207.473C91.918 207.605 92.2578 207.711 92.6797 207.789C93.1016 207.867 93.6328 207.906 94.2734 207.906C94.9844 207.906 95.6797 207.852 96.3594 207.742C97.0391 207.633 97.6836 207.484 98.293 207.297C98.9023 207.102 99.4727 206.875 100.004 206.617C100.543 206.352 101.023 206.07 101.445 205.773V203.652Z" fill="black"/>
<path d="M78.0664 198.402V211H73.7188V198.402H66.8867V194.898H84.9102V198.402H78.0664Z" fill="black"/>
<path d="M63.582 199.434C63.2773 199.285 62.875 199.117 62.375 198.93C61.875 198.742 61.3086 198.566 60.6758 198.402C60.043 198.23 59.3555 198.09 58.6133 197.98C57.8711 197.863 57.1094 197.805 56.3281 197.805C55.7031 197.805 55.168 197.824 54.7227 197.863C54.2852 197.902 53.9141 197.953 53.6094 198.016C53.3125 198.078 53.0742 198.152 52.8945 198.238C52.7227 198.316 52.5898 198.398 52.4961 198.484C52.4023 198.57 52.3398 198.656 52.3086 198.742C52.2852 198.828 52.2734 198.906 52.2734 198.977C52.2734 199.211 52.3906 199.418 52.625 199.598C52.8594 199.77 53.1797 199.926 53.5859 200.066C53.9922 200.199 54.4648 200.328 55.0039 200.453C55.543 200.57 56.1133 200.695 56.7148 200.828C57.3242 200.953 57.9492 201.094 58.5898 201.25C59.2383 201.398 59.8633 201.574 60.4648 201.777C61.0742 201.98 61.6484 202.219 62.1875 202.492C62.7266 202.758 63.1992 203.07 63.6055 203.43C64.0117 203.789 64.332 204.203 64.5664 204.672C64.8008 205.141 64.918 205.676 64.918 206.277C64.918 207.051 64.7812 207.715 64.5078 208.27C64.2344 208.824 63.8672 209.293 63.4062 209.676C62.9531 210.059 62.4258 210.367 61.8242 210.602C61.2227 210.828 60.5898 211.004 59.9258 211.129C59.2695 211.254 58.6016 211.336 57.9219 211.375C57.25 211.414 56.6094 211.434 56 211.434C54.4062 211.434 52.9297 211.301 51.5703 211.035C50.2188 210.777 49.0234 210.453 47.9844 210.062V206.219C49.0547 206.812 50.2734 207.277 51.6406 207.613C53.0156 207.949 54.4844 208.117 56.0469 208.117C56.9688 208.117 57.7188 208.07 58.2969 207.977C58.8828 207.875 59.3398 207.75 59.668 207.602C59.9961 207.445 60.2188 207.277 60.3359 207.098C60.4531 206.918 60.5117 206.746 60.5117 206.582C60.5117 206.324 60.3945 206.102 60.1602 205.914C59.9258 205.719 59.6055 205.551 59.1992 205.41C58.793 205.262 58.3203 205.129 57.7812 205.012C57.2422 204.887 56.668 204.766 56.0586 204.648C55.457 204.523 54.8359 204.391 54.1953 204.25C53.5547 204.109 52.9297 203.945 52.3203 203.758C51.7188 203.562 51.1484 203.34 50.6094 203.09C50.0703 202.832 49.5977 202.531 49.1914 202.188C48.7852 201.836 48.4648 201.434 48.2305 200.98C47.9961 200.52 47.8789 199.988 47.8789 199.387C47.8789 198.676 48.0039 198.062 48.2539 197.547C48.5039 197.031 48.8398 196.594 49.2617 196.234C49.6914 195.867 50.1836 195.57 50.7383 195.344C51.3008 195.117 51.8906 194.941 52.5078 194.816C53.125 194.691 53.75 194.605 54.3828 194.559C55.0156 194.512 55.6172 194.488 56.1875 194.488C56.8125 194.488 57.4531 194.52 58.1094 194.582C58.7734 194.645 59.4258 194.734 60.0664 194.852C60.707 194.961 61.3242 195.09 61.918 195.238C62.5195 195.387 63.0742 195.543 63.582 195.707V199.434Z" fill="black"/>
<path d="M43.4727 210.203C42.1523 210.641 40.832 210.953 39.5117 211.141C38.1992 211.336 36.8555 211.434 35.4805 211.434C33.7227 211.434 32.1562 211.246 30.7813 210.871C29.4141 210.488 28.2617 209.938 27.3242 209.219C26.3867 208.5 25.6719 207.621 25.1797 206.582C24.6875 205.543 24.4414 204.367 24.4414 203.055C24.4414 201.836 24.6875 200.707 25.1797 199.668C25.6797 198.621 26.3828 197.715 27.2891 196.949C28.2031 196.176 29.3047 195.574 30.5938 195.145C31.8828 194.707 33.3203 194.488 34.9062 194.488C36.3672 194.488 37.7031 194.688 38.9141 195.086C40.1328 195.477 41.1758 196.059 42.043 196.832C42.918 197.605 43.5938 198.559 44.0703 199.691C44.5547 200.824 44.7969 202.129 44.7969 203.605V204.684H28.9297C29.0703 205.191 29.3008 205.656 29.6211 206.078C29.9492 206.5 30.3906 206.859 30.9453 207.156C31.5 207.453 32.1797 207.684 32.9844 207.848C33.7969 208.012 34.7656 208.094 35.8906 208.094C36.6875 208.094 37.4688 208.047 38.2344 207.953C39 207.852 39.7148 207.723 40.3789 207.566C41.043 207.402 41.6406 207.223 42.1719 207.027C42.7109 206.832 43.1445 206.637 43.4727 206.441V210.203ZM40.4727 201.496C40.4336 201.098 40.3125 200.688 40.1094 200.266C39.9141 199.836 39.6016 199.449 39.1719 199.105C38.7422 198.762 38.1797 198.48 37.4844 198.262C36.7891 198.035 35.9219 197.922 34.8828 197.922C33.9062 197.922 33.0625 198.043 32.3516 198.285C31.6406 198.527 31.043 198.828 30.5586 199.188C30.082 199.547 29.7109 199.934 29.4453 200.348C29.1797 200.762 29.0078 201.145 28.9297 201.496H40.4727Z" fill="black"/>
<path d="M240 202.5C240 190.074 250.074 180 262.5 180H356.5C368.926 180 379 190.074 379 202.5C379 214.926 368.926 225 356.5 225H262.5C250.074 225 240 214.926 240 202.5Z" fill="black"/>
<path fill-rule="evenodd" clip-rule="evenodd" d="M356.5 182H262.5C251.178 182 242 191.178 242 202.5C242 213.822 251.178 223 262.5 223H356.5C367.822 223 377 213.822 377 202.5C377 191.178 367.822 182 356.5 182ZM262.5 180C250.074 180 240 190.074 240 202.5C240 214.926 250.074 225 262.5 225H356.5C368.926 225 379 214.926 379 202.5C379 190.074 368.926 180 356.5 180H262.5Z" fill="#FF6363"/>
<path d="M348.922 211V204.285H337.859V211H333.512V194.898H337.859V200.758H348.922V194.898H353.27V211H348.922Z" fill="#FF6363"/>
<path d="M329.457 209.898C328.895 210.133 328.328 210.344 327.758 210.531C327.188 210.719 326.598 210.879 325.988 211.012C325.379 211.152 324.734 211.258 324.055 211.328C323.383 211.398 322.66 211.434 321.887 211.434C320.246 211.434 318.734 211.258 317.352 210.906C315.977 210.555 314.789 210.027 313.789 209.324C312.797 208.613 312.023 207.73 311.469 206.676C310.914 205.613 310.637 204.375 310.637 202.961C310.637 201.547 310.914 200.312 311.469 199.258C312.023 198.195 312.797 197.312 313.789 196.609C314.789 195.898 315.977 195.367 317.352 195.016C318.734 194.664 320.246 194.488 321.887 194.488C322.66 194.488 323.383 194.523 324.055 194.594C324.734 194.664 325.379 194.77 325.988 194.91C326.598 195.043 327.188 195.203 327.758 195.391C328.328 195.578 328.895 195.789 329.457 196.023V199.938C329.012 199.695 328.543 199.457 328.051 199.223C327.559 198.98 327.016 198.766 326.422 198.578C325.828 198.383 325.176 198.227 324.465 198.109C323.754 197.984 322.953 197.922 322.062 197.922C320.695 197.922 319.559 198.062 318.652 198.344C317.754 198.625 317.035 199 316.496 199.469C315.957 199.938 315.578 200.477 315.359 201.086C315.141 201.688 315.031 202.312 315.031 202.961C315.031 203.391 315.078 203.816 315.172 204.238C315.266 204.652 315.422 205.047 315.641 205.422C315.859 205.789 316.145 206.129 316.496 206.441C316.848 206.754 317.285 207.023 317.809 207.25C318.332 207.477 318.941 207.656 319.637 207.789C320.34 207.914 321.148 207.977 322.062 207.977C322.953 207.977 323.754 207.922 324.465 207.812C325.176 207.695 325.828 207.543 326.422 207.355C327.016 207.168 327.559 206.957 328.051 206.723C328.543 206.48 329.012 206.234 329.457 205.984V209.898Z" fill="#FF6363"/>
<path d="M302.398 211V209.418C301.844 209.723 301.246 209.992 300.605 210.227C299.973 210.461 299.312 210.66 298.625 210.824C297.938 210.988 297.227 211.109 296.492 211.188C295.766 211.273 295.031 211.316 294.289 211.316C293.422 211.316 292.582 211.234 291.77 211.07C290.965 210.906 290.25 210.641 289.625 210.273C289 209.906 288.496 209.426 288.113 208.832C287.738 208.238 287.551 207.512 287.551 206.652C287.551 205.566 287.848 204.664 288.441 203.945C289.035 203.219 289.941 202.625 291.16 202.164C292.379 201.703 293.918 201.348 295.777 201.098C297.645 200.848 299.852 200.652 302.398 200.512V200.172C302.398 199.906 302.328 199.645 302.188 199.387C302.047 199.121 301.789 198.891 301.414 198.695C301.047 198.492 300.539 198.328 299.891 198.203C299.25 198.078 298.43 198.016 297.43 198.016C296.641 198.016 295.859 198.059 295.086 198.145C294.32 198.223 293.578 198.332 292.859 198.473C292.148 198.613 291.473 198.777 290.832 198.965C290.191 199.152 289.609 199.348 289.086 199.551V195.684C289.633 195.543 290.246 195.406 290.926 195.273C291.605 195.141 292.312 195.027 293.047 194.934C293.781 194.832 294.523 194.754 295.273 194.699C296.023 194.637 296.742 194.605 297.43 194.605C298.781 194.605 300.027 194.719 301.168 194.945C302.309 195.164 303.289 195.508 304.109 195.977C304.938 196.445 305.582 197.039 306.043 197.758C306.512 198.477 306.746 199.332 306.746 200.324V211H302.398ZM302.398 203.652C300.727 203.715 299.305 203.805 298.133 203.922C296.969 204.039 296 204.176 295.227 204.332C294.453 204.488 293.844 204.656 293.398 204.836C292.961 205.016 292.633 205.199 292.414 205.387C292.195 205.574 292.059 205.762 292.004 205.949C291.957 206.137 291.934 206.309 291.934 206.465C291.934 206.652 291.984 206.836 292.086 207.016C292.188 207.188 292.363 207.34 292.613 207.473C292.871 207.605 293.211 207.711 293.633 207.789C294.055 207.867 294.586 207.906 295.227 207.906C295.938 207.906 296.633 207.852 297.312 207.742C297.992 207.633 298.637 207.484 299.246 207.297C299.855 207.102 300.426 206.875 300.957 206.617C301.496 206.352 301.977 206.07 302.398 205.773V203.652Z" fill="#FF6363"/>
<path d="M283.473 210.203C282.152 210.641 280.832 210.953 279.512 211.141C278.199 211.336 276.855 211.434 275.48 211.434C273.723 211.434 272.156 211.246 270.781 210.871C269.414 210.488 268.262 209.938 267.324 209.219C266.387 208.5 265.672 207.621 265.18 206.582C264.688 205.543 264.441 204.367 264.441 203.055C264.441 201.836 264.688 200.707 265.18 199.668C265.68 198.621 266.383 197.715 267.289 196.949C268.203 196.176 269.305 195.574 270.594 195.145C271.883 194.707 273.32 194.488 274.906 194.488C276.367 194.488 277.703 194.688 278.914 195.086C280.133 195.477 281.176 196.059 282.043 196.832C282.918 197.605 283.594 198.559 284.07 199.691C284.555 200.824 284.797 202.129 284.797 203.605V204.684H268.93C269.07 205.191 269.301 205.656 269.621 206.078C269.949 206.5 270.391 206.859 270.945 207.156C271.5 207.453 272.18 207.684 272.984 207.848C273.797 208.012 274.766 208.094 275.891 208.094C276.688 208.094 277.469 208.047 278.234 207.953C279 207.852 279.715 207.723 280.379 207.566C281.043 207.402 281.641 207.223 282.172 207.027C282.711 206.832 283.145 206.637 283.473 206.441V210.203ZM280.473 201.496C280.434 201.098 280.312 200.688 280.109 200.266C279.914 199.836 279.602 199.449 279.172 199.105C278.742 198.762 278.18 198.48 277.484 198.262C276.789 198.035 275.922 197.922 274.883 197.922C273.906 197.922 273.062 198.043 272.352 198.285C271.641 198.527 271.043 198.828 270.559 199.188C270.082 199.547 269.711 199.934 269.445 200.348C269.18 200.762 269.008 201.145 268.93 201.496H280.473Z" fill="#FF6363"/>
<path d="M362 82.5C362 70.0736 372.074 60 384.5 60H426.5C438.926 60 449 70.0736 449 82.5C449 94.9264 438.926 105 426.5 105H384.5C372.074 105 362 94.9264 362 82.5Z" fill="#8550F6"/>
<path d="M427.105 82.9609C427.105 84.3438 426.852 85.5664 426.344 86.6289C425.836 87.6836 425.109 88.5664 424.164 89.2773C423.219 89.9883 422.07 90.5273 420.719 90.8945C419.375 91.2539 417.863 91.4336 416.184 91.4336C414.504 91.4336 412.984 91.2539 411.625 90.8945C410.273 90.5273 409.121 89.9883 408.168 89.2773C407.215 88.5664 406.48 87.6836 405.965 86.6289C405.449 85.5664 405.191 84.3438 405.191 82.9609C405.191 81.5781 405.449 80.3594 405.965 79.3047C406.48 78.2422 407.215 77.3555 408.168 76.6445C409.121 75.9336 410.273 75.3984 411.625 75.0391C412.984 74.6719 414.504 74.4883 416.184 74.4883C417.863 74.4883 419.375 74.6719 420.719 75.0391C422.07 75.3984 423.219 75.9336 424.164 76.6445C425.109 77.3555 425.836 78.2422 426.344 79.3047C426.852 80.3594 427.105 81.5781 427.105 82.9609ZM422.711 82.9609C422.711 82.3594 422.613 81.7617 422.418 81.168C422.23 80.5664 421.891 80.0273 421.398 79.5508C420.914 79.0742 420.25 78.6875 419.406 78.3906C418.562 78.0938 417.488 77.9453 416.184 77.9453C415.309 77.9453 414.539 78.0156 413.875 78.1562C413.211 78.2891 412.637 78.4766 412.152 78.7188C411.668 78.9609 411.262 79.2461 410.934 79.5742C410.605 79.8945 410.344 80.2422 410.148 80.6172C409.953 80.9844 409.812 81.3711 409.727 81.7773C409.648 82.1758 409.609 82.5703 409.609 82.9609C409.609 83.3594 409.648 83.7617 409.727 84.168C409.812 84.5742 409.953 84.9648 410.148 85.3398C410.344 85.707 410.605 86.0508 410.934 86.3711C411.262 86.6914 411.668 86.9727 412.152 87.2148C412.637 87.4492 413.211 87.6367 413.875 87.7773C414.539 87.9102 415.309 87.9766 416.184 87.9766C417.488 87.9766 418.562 87.8281 419.406 87.5312C420.25 87.2344 420.914 86.8477 421.398 86.3711C421.891 85.8945 422.23 85.3594 422.418 84.7656C422.613 84.1641 422.711 83.5625 422.711 82.9609Z" fill="black"/>
<path d="M396.543 78.4023V91H392.195V78.4023H385.363V74.8984H403.387V78.4023H396.543Z" fill="black"/>
<path d="M461 82.5C461 70.0736 471.074 60 483.5 60H624.5C636.926 60 647 70.0736 647 82.5C647 94.9264 636.926 105 624.5 105H483.5C471.074 105 461 94.9264 461 82.5Z" fill="#FF6363"/>
<path d="M619.961 91V84.2852H608.898V91H604.551V74.8984H608.898V80.7578H619.961V74.8984H624.309V91H619.961Z" fill="black"/>
<path d="M599.09 79.4336C598.785 79.2852 598.383 79.1172 597.883 78.9297C597.383 78.7422 596.816 78.5664 596.184 78.4023C595.551 78.2305 594.863 78.0898 594.121 77.9805C593.379 77.8633 592.617 77.8047 591.836 77.8047C591.211 77.8047 590.676 77.8242 590.23 77.8633C589.793 77.9023 589.422 77.9531 589.117 78.0156C588.82 78.0781 588.582 78.1523 588.402 78.2383C588.23 78.3164 588.098 78.3984 588.004 78.4844C587.91 78.5703 587.848 78.6562 587.816 78.7422C587.793 78.8281 587.781 78.9062 587.781 78.9766C587.781 79.2109 587.898 79.418 588.133 79.5977C588.367 79.7695 588.688 79.9258 589.094 80.0664C589.5 80.1992 589.973 80.3281 590.512 80.4531C591.051 80.5703 591.621 80.6953 592.223 80.8281C592.832 80.9531 593.457 81.0938 594.098 81.25C594.746 81.3984 595.371 81.5742 595.973 81.7773C596.582 81.9805 597.156 82.2188 597.695 82.4922C598.234 82.7578 598.707 83.0703 599.113 83.4297C599.52 83.7891 599.84 84.2031 600.074 84.6719C600.309 85.1406 600.426 85.6758 600.426 86.2773C600.426 87.0508 600.289 87.7148 600.016 88.2695C599.742 88.8242 599.375 89.293 598.914 89.6758C598.461 90.0586 597.934 90.3672 597.332 90.6016C596.73 90.8281 596.098 91.0039 595.434 91.1289C594.777 91.2539 594.109 91.3359 593.43 91.375C592.758 91.4141 592.117 91.4336 591.508 91.4336C589.914 91.4336 588.438 91.3008 587.078 91.0352C585.727 90.7773 584.531 90.4531 583.492 90.0625V86.2188C584.562 86.8125 585.781 87.2773 587.148 87.6133C588.523 87.9492 589.992 88.1172 591.555 88.1172C592.477 88.1172 593.227 88.0703 593.805 87.9766C594.391 87.875 594.848 87.75 595.176 87.6016C595.504 87.4453 595.727 87.2773 595.844 87.0977C595.961 86.918 596.02 86.7461 596.02 86.582C596.02 86.3242 595.902 86.1016 595.668 85.9141C595.434 85.7188 595.113 85.5508 594.707 85.4102C594.301 85.2617 593.828 85.1289 593.289 85.0117C592.75 84.8867 592.176 84.7656 591.566 84.6484C590.965 84.5234 590.344 84.3906 589.703 84.25C589.062 84.1094 588.438 83.9453 587.828 83.7578C587.227 83.5625 586.656 83.3398 586.117 83.0898C585.578 82.832 585.105 82.5312 584.699 82.1875C584.293 81.8359 583.973 81.4336 583.738 80.9805C583.504 80.5195 583.387 79.9883 583.387 79.3867C583.387 78.6758 583.512 78.0625 583.762 77.5469C584.012 77.0312 584.348 76.5938 584.77 76.2344C585.199 75.8672 585.691 75.5703 586.246 75.3438C586.809 75.1172 587.398 74.9414 588.016 74.8164C588.633 74.6914 589.258 74.6055 589.891 74.5586C590.523 74.5117 591.125 74.4883 591.695 74.4883C592.32 74.4883 592.961 74.5195 593.617 74.582C594.281 74.6445 594.934 74.7344 595.574 74.8516C596.215 74.9609 596.832 75.0898 597.426 75.2383C598.027 75.3867 598.582 75.543 599.09 75.707V79.4336Z" fill="black"/>
<path d="M574.855 91V74.8984H579.203V91H574.855Z" fill="black"/>
<path d="M559.562 84.1094C559.562 84.7812 559.625 85.332 559.75 85.7617C559.875 86.1836 560.078 86.5195 560.359 86.7695C560.641 87.0195 561.004 87.1914 561.449 87.2852C561.902 87.3789 562.457 87.4258 563.113 87.4258H571.363V91H562.223C560.957 91 559.879 90.8984 558.988 90.6953C558.105 90.4844 557.383 90.1641 556.82 89.7344C556.258 89.2969 555.848 88.7461 555.59 88.082C555.34 87.418 555.215 86.6289 555.215 85.7148V74.8984H559.562V84.1094Z" fill="black"/>
<path d="M551.242 86.5586C551.242 87.1836 551.16 87.7266 550.996 88.1875C550.832 88.6484 550.602 89.0469 550.305 89.3828C550.016 89.7109 549.664 89.9805 549.25 90.1914C548.844 90.3945 548.391 90.5586 547.891 90.6836C547.398 90.8008 546.871 90.8828 546.309 90.9297C545.746 90.9766 545.164 91 544.562 91H532.879V74.8984H544.352C544.812 74.8984 545.273 74.918 545.734 74.957C546.203 74.9961 546.648 75.0703 547.07 75.1797C547.492 75.2812 547.883 75.4258 548.242 75.6133C548.609 75.8008 548.926 76.0469 549.191 76.3516C549.465 76.6562 549.676 77.0234 549.824 77.4531C549.98 77.8828 550.059 78.3906 550.059 78.9766C550.059 80.0234 549.801 80.8555 549.285 81.4727C548.77 82.082 547.957 82.4883 546.848 82.6914C547.629 82.7461 548.297 82.8672 548.852 83.0547C549.414 83.2344 549.871 83.4844 550.223 83.8047C550.574 84.1172 550.832 84.5039 550.996 84.9648C551.16 85.418 551.242 85.9492 551.242 86.5586ZM545.816 79.668C545.816 79.4648 545.785 79.2734 545.723 79.0938C545.66 78.9062 545.547 78.7422 545.383 78.6016C545.219 78.4609 544.996 78.3477 544.715 78.2617C544.434 78.1758 544.074 78.1328 543.637 78.1328H537.227V81.1562H543.637C544.074 81.1562 544.434 81.1172 544.715 81.0391C544.996 80.9609 545.219 80.8555 545.383 80.7227C545.547 80.5898 545.66 80.4336 545.723 80.2539C545.785 80.0664 545.816 79.8711 545.816 79.668ZM546.824 86.0547C546.824 85.6875 546.762 85.3945 546.637 85.1758C546.512 84.9492 546.316 84.7773 546.051 84.6602C545.785 84.5352 545.441 84.4531 545.02 84.4141C544.598 84.375 544.094 84.3555 543.508 84.3555H537.227V87.7656H543.508C544.094 87.7656 544.598 87.7461 545.02 87.707C545.441 87.668 545.785 87.5859 546.051 87.4609C546.316 87.3359 546.512 87.1641 546.637 86.9453C546.762 86.7188 546.824 86.4219 546.824 86.0547Z" fill="black"/>
<path d="M512.5 74.8984V83.9688C512.5 84.5703 512.551 85.1172 512.652 85.6094C512.754 86.0938 512.941 86.5117 513.215 86.8633C513.488 87.207 513.871 87.4766 514.363 87.6719C514.855 87.8594 515.496 87.9531 516.285 87.9531C516.879 87.9531 517.5 87.8711 518.148 87.707C518.805 87.543 519.453 87.3242 520.094 87.0508C520.734 86.7773 521.344 86.4648 521.922 86.1133C522.508 85.7539 523.031 85.3828 523.492 85V74.8984H527.828V91H523.492V88.7969C522.945 89.1094 522.363 89.4258 521.746 89.7461C521.129 90.0586 520.473 90.3438 519.777 90.6016C519.082 90.8516 518.344 91.0547 517.562 91.2109C516.781 91.375 515.957 91.457 515.09 91.457C514.004 91.457 513.031 91.3242 512.172 91.0586C511.312 90.8008 510.586 90.4336 509.992 89.957C509.398 89.4727 508.941 88.8906 508.621 88.2109C508.309 87.5234 508.152 86.7578 508.152 85.9141V74.8984H512.5Z" fill="black"/>
<path d="M504.613 80.3945C504.613 81.1992 504.496 81.9414 504.262 82.6211C504.027 83.293 503.648 83.875 503.125 84.3672C502.609 84.8516 501.938 85.2305 501.109 85.5039C500.281 85.7773 499.273 85.9141 498.086 85.9141H490.867V91H486.52V74.8984H498.086C499.273 74.8984 500.281 75.0352 501.109 75.3086C501.938 75.5742 502.609 75.9531 503.125 76.4453C503.648 76.9297 504.027 77.5078 504.262 78.1797C504.496 78.8516 504.613 79.5898 504.613 80.3945ZM500.219 80.4648C500.219 80.0898 500.164 79.7695 500.055 79.5039C499.953 79.2305 499.781 79.0078 499.539 78.8359C499.297 78.6641 498.98 78.5391 498.59 78.4609C498.199 78.375 497.719 78.332 497.148 78.332H490.867V82.4805H497.148C497.719 82.4805 498.199 82.4492 498.59 82.3867C498.98 82.3164 499.297 82.2031 499.539 82.0469C499.781 81.8828 499.953 81.6719 500.055 81.4141C500.164 81.1562 500.219 80.8398 500.219 80.4648Z" fill="black"/>
</svg>
