<svg width="390" height="974" viewBox="0 0 390 974" fill="none" xmlns="http://www.w3.org/2000/svg">
<mask id="mask0_356_5078" style="mask-type:alpha" maskUnits="userSpaceOnUse" x="195" y="487" width="195" height="244">
<path d="M195 487H390V731H195V487Z" fill="#2B8BFC"/>
</mask>
<g mask="url(#mask0_356_5078)">
<path d="M195 487H390V731H195V487Z" fill="#2B8BFC"/>
<path d="M223 521H360V543H223V521Z" fill="black"/>
<path d="M223 573H360V595H223V573Z" fill="black"/>
<path d="M223 623H283V645H223V623Z" fill="black"/>
<path d="M283 623H360V645H283V623Z" fill="white"/>
<path d="M273.748 634.08C273.748 635.483 273.49 636.724 272.975 637.801C272.46 638.871 271.723 639.767 270.764 640.488C269.805 641.21 268.64 641.756 267.269 642.129C265.905 642.493 264.372 642.676 262.668 642.676C260.964 642.676 259.422 642.493 258.043 642.129C256.672 641.756 255.503 641.21 254.536 640.488C253.569 639.767 252.824 638.871 252.301 637.801C251.778 636.724 251.516 635.483 251.516 634.08C251.516 632.678 251.778 631.441 252.301 630.371C252.824 629.293 253.569 628.394 254.536 627.672C255.503 626.951 256.672 626.408 258.043 626.044C259.422 625.671 260.964 625.485 262.668 625.485C264.372 625.485 265.905 625.671 267.269 626.044C268.64 626.408 269.805 626.951 270.764 627.672C271.723 628.394 272.46 629.293 272.975 630.371C273.49 631.441 273.748 632.678 273.748 634.08ZM269.29 634.08C269.29 633.47 269.191 632.864 268.992 632.261C268.802 631.651 268.457 631.104 267.958 630.621C267.467 630.137 266.793 629.745 265.937 629.444C265.081 629.143 263.991 628.992 262.668 628.992C261.78 628.992 260.999 629.063 260.326 629.206C259.652 629.341 259.069 629.531 258.578 629.777C258.087 630.022 257.675 630.312 257.342 630.645C257.009 630.97 256.743 631.322 256.545 631.703C256.347 632.075 256.204 632.468 256.117 632.88C256.038 633.284 255.998 633.684 255.998 634.08C255.998 634.485 256.038 634.893 256.117 635.305C256.204 635.717 256.347 636.113 256.545 636.494C256.743 636.866 257.009 637.215 257.342 637.54C257.675 637.865 258.087 638.15 258.578 638.396C259.069 638.634 259.652 638.824 260.326 638.967C260.999 639.101 261.78 639.169 262.668 639.169C263.991 639.169 265.081 639.018 265.937 638.717C266.793 638.416 267.467 638.023 267.958 637.54C268.457 637.056 268.802 636.514 268.992 635.911C269.191 635.301 269.29 634.691 269.29 634.08Z" fill="white"/>
<path d="M242.743 629.456V642.236H238.332V629.456H231.401V625.901H249.686V629.456H242.743Z" fill="white"/>
<path d="M322.764 583.197C322.764 584.243 322.649 585.175 322.419 585.991C322.19 586.799 321.865 587.505 321.444 588.107C321.032 588.709 320.533 589.221 319.947 589.641C319.368 590.061 318.722 590.398 318.009 590.651C317.295 590.905 316.527 591.091 315.702 591.21C314.878 591.321 314.018 591.376 313.123 591.376H302.756V575.042H313.099C313.994 575.042 314.854 575.101 315.679 575.22C316.503 575.331 317.272 575.513 317.985 575.767C318.706 576.02 319.36 576.357 319.947 576.777C320.533 577.19 321.032 577.701 321.444 578.311C321.865 578.913 322.19 579.619 322.419 580.427C322.649 581.236 322.764 582.159 322.764 583.197ZM318.318 583.197C318.318 582.413 318.215 581.731 318.009 581.152C317.811 580.574 317.486 580.098 317.034 579.726C316.59 579.345 316.007 579.064 315.286 578.882C314.565 578.691 313.685 578.596 312.647 578.596H307.166V587.822H312.647C313.685 587.822 314.565 587.731 315.286 587.548C316.007 587.358 316.59 587.073 317.034 586.692C317.486 586.304 317.811 585.821 318.009 585.242C318.215 584.663 318.318 583.982 318.318 583.197Z" fill="white"/>
<path d="M297.406 590.568C296.067 591.012 294.727 591.329 293.388 591.519C292.057 591.717 290.693 591.816 289.298 591.816C287.515 591.816 285.926 591.626 284.531 591.246C283.144 590.857 281.975 590.299 281.024 589.569C280.073 588.84 279.348 587.949 278.848 586.894C278.349 585.84 278.099 584.648 278.099 583.316C278.099 582.08 278.349 580.934 278.848 579.88C279.356 578.818 280.069 577.899 280.988 577.122C281.916 576.337 283.033 575.727 284.341 575.291C285.649 574.847 287.107 574.626 288.716 574.626C290.198 574.626 291.553 574.828 292.782 575.232C294.018 575.628 295.076 576.219 295.956 577.003C296.844 577.788 297.529 578.755 298.013 579.904C298.504 581.053 298.75 582.377 298.75 583.875V584.969H282.653C282.795 585.484 283.029 585.955 283.354 586.383C283.687 586.811 284.135 587.176 284.698 587.477C285.26 587.778 285.95 588.012 286.766 588.178C287.59 588.345 288.573 588.428 289.714 588.428C290.523 588.428 291.315 588.381 292.092 588.285C292.869 588.182 293.594 588.052 294.268 587.893C294.941 587.727 295.548 587.544 296.087 587.346C296.634 587.148 297.073 586.95 297.406 586.752V590.568ZM294.363 581.735C294.323 581.331 294.2 580.915 293.994 580.487C293.796 580.051 293.479 579.658 293.043 579.31C292.607 578.961 292.037 578.676 291.331 578.454C290.626 578.224 289.746 578.109 288.692 578.109C287.701 578.109 286.845 578.232 286.124 578.477C285.403 578.723 284.797 579.028 284.305 579.393C283.822 579.757 283.445 580.15 283.176 580.57C282.906 580.99 282.732 581.378 282.653 581.735H294.363Z" fill="white"/>
<path d="M273.653 579.642C273.344 579.492 272.936 579.321 272.428 579.131C271.921 578.941 271.347 578.763 270.705 578.596C270.063 578.422 269.365 578.279 268.612 578.168C267.859 578.049 267.087 577.99 266.294 577.99C265.66 577.99 265.117 578.01 264.665 578.049C264.221 578.089 263.845 578.141 263.536 578.204C263.235 578.267 262.993 578.343 262.811 578.43C262.636 578.509 262.502 578.592 262.406 578.68C262.311 578.767 262.248 578.854 262.216 578.941C262.192 579.028 262.181 579.108 262.181 579.179C262.181 579.417 262.299 579.627 262.537 579.809C262.775 579.983 263.1 580.142 263.512 580.284C263.924 580.419 264.404 580.55 264.951 580.677C265.497 580.796 266.076 580.922 266.686 581.057C267.305 581.184 267.939 581.327 268.588 581.485C269.246 581.636 269.88 581.814 270.491 582.02C271.109 582.226 271.691 582.468 272.238 582.745C272.785 583.015 273.265 583.332 273.677 583.696C274.089 584.061 274.414 584.481 274.652 584.957C274.889 585.432 275.008 585.975 275.008 586.585C275.008 587.37 274.87 588.044 274.592 588.606C274.315 589.169 273.942 589.645 273.475 590.033C273.015 590.421 272.48 590.734 271.87 590.972C271.259 591.202 270.617 591.38 269.944 591.507C269.278 591.634 268.6 591.717 267.911 591.757C267.229 591.796 266.579 591.816 265.961 591.816C264.344 591.816 262.846 591.682 261.467 591.412C260.096 591.151 258.884 590.822 257.829 590.425V586.526C258.915 587.128 260.152 587.6 261.539 587.941C262.934 588.281 264.424 588.452 266.009 588.452C266.944 588.452 267.705 588.404 268.291 588.309C268.886 588.206 269.349 588.079 269.682 587.929C270.015 587.77 270.241 587.6 270.36 587.418C270.479 587.235 270.538 587.061 270.538 586.894C270.538 586.633 270.419 586.407 270.182 586.217C269.944 586.019 269.619 585.848 269.207 585.706C268.795 585.555 268.315 585.42 267.768 585.301C267.221 585.175 266.639 585.052 266.021 584.933C265.41 584.806 264.78 584.671 264.13 584.529C263.48 584.386 262.846 584.22 262.228 584.029C261.618 583.831 261.039 583.605 260.492 583.352C259.946 583.09 259.466 582.785 259.054 582.436C258.642 582.08 258.317 581.671 258.079 581.212C257.841 580.744 257.722 580.205 257.722 579.595C257.722 578.874 257.849 578.252 258.103 577.728C258.356 577.205 258.697 576.762 259.125 576.397C259.561 576.024 260.06 575.723 260.623 575.493C261.194 575.264 261.792 575.085 262.418 574.958C263.044 574.832 263.679 574.744 264.321 574.697C264.962 574.649 265.573 574.626 266.151 574.626C266.785 574.626 267.435 574.657 268.101 574.721C268.775 574.784 269.437 574.875 270.086 574.994C270.736 575.105 271.362 575.236 271.965 575.386C272.575 575.537 273.138 575.696 273.653 575.862V579.642Z" fill="white"/>
<path d="M237.928 575.042V584.243C237.928 584.854 237.98 585.408 238.083 585.908C238.186 586.399 238.376 586.823 238.653 587.18C238.931 587.529 239.319 587.802 239.818 588C240.318 588.19 240.968 588.285 241.768 588.285C242.37 588.285 243.001 588.202 243.658 588.036C244.324 587.869 244.982 587.647 245.632 587.37C246.282 587.093 246.9 586.776 247.486 586.419C248.081 586.054 248.612 585.678 249.08 585.29V575.042H253.478V591.376H249.08V589.141C248.525 589.458 247.934 589.779 247.308 590.104C246.682 590.421 246.016 590.711 245.311 590.972C244.606 591.226 243.857 591.432 243.064 591.59C242.271 591.757 241.435 591.84 240.555 591.84C239.454 591.84 238.467 591.705 237.595 591.436C236.723 591.174 235.986 590.802 235.384 590.318C234.782 589.827 234.318 589.237 233.993 588.547C233.676 587.85 233.518 587.073 233.518 586.217V575.042H237.928Z" fill="white"/>
<path d="M318.936 540.517V531.363C318.936 530.753 318.885 530.202 318.782 529.71C318.679 529.211 318.484 528.787 318.199 528.438C317.922 528.082 317.529 527.808 317.022 527.618C316.523 527.42 315.877 527.321 315.084 527.321C314.482 527.321 313.848 527.404 313.182 527.57C312.524 527.729 311.87 527.943 311.221 528.212C310.571 528.482 309.948 528.795 309.354 529.152C308.768 529.508 308.244 529.881 307.785 530.269V540.517H303.374V524.182H307.785V526.417C308.34 526.1 308.93 525.787 309.556 525.478C310.182 525.161 310.848 524.876 311.553 524.622C312.259 524.368 313.008 524.162 313.8 524.004C314.593 523.845 315.429 523.766 316.309 523.766C317.41 523.766 318.393 523.901 319.257 524.17C320.129 524.432 320.866 524.808 321.468 525.3C322.071 525.783 322.53 526.374 322.847 527.071C323.172 527.761 323.335 528.533 323.335 529.389V540.517H318.936Z" fill="white"/>
<path d="M298.025 539.709C296.685 540.152 295.346 540.469 294.006 540.66C292.675 540.858 291.312 540.957 289.917 540.957C288.133 540.957 286.544 540.767 285.149 540.386C283.762 539.998 282.593 539.439 281.642 538.71C280.691 537.981 279.966 537.089 279.467 536.035C278.967 534.981 278.718 533.788 278.718 532.457C278.718 531.22 278.967 530.075 279.467 529.021C279.974 527.959 280.687 527.039 281.607 526.263C282.534 525.478 283.651 524.868 284.959 524.432C286.267 523.988 287.725 523.766 289.334 523.766C290.816 523.766 292.172 523.968 293.4 524.372C294.636 524.769 295.695 525.359 296.574 526.144C297.462 526.928 298.148 527.895 298.631 529.045C299.122 530.194 299.368 531.517 299.368 533.015V534.109H283.271C283.414 534.624 283.648 535.096 283.972 535.524C284.305 535.952 284.753 536.316 285.316 536.618C285.879 536.919 286.568 537.153 287.384 537.319C288.209 537.485 289.192 537.569 290.333 537.569C291.141 537.569 291.934 537.521 292.711 537.426C293.487 537.323 294.212 537.192 294.886 537.034C295.56 536.867 296.166 536.685 296.705 536.487C297.252 536.289 297.692 536.091 298.025 535.892V539.709ZM294.981 530.875C294.942 530.471 294.819 530.055 294.613 529.627C294.415 529.191 294.098 528.799 293.662 528.45C293.226 528.101 292.655 527.816 291.95 527.594C291.244 527.364 290.365 527.249 289.31 527.249C288.32 527.249 287.464 527.372 286.742 527.618C286.021 527.864 285.415 528.169 284.924 528.533C284.44 528.898 284.064 529.29 283.794 529.71C283.525 530.13 283.35 530.519 283.271 530.875H294.981Z" fill="white"/>
<path d="M274.462 539.709C273.122 540.152 271.783 540.469 270.443 540.66C269.112 540.858 267.749 540.957 266.354 540.957C264.57 540.957 262.981 540.767 261.586 540.386C260.199 539.998 259.03 539.439 258.079 538.71C257.128 537.981 256.403 537.089 255.904 536.035C255.404 534.981 255.155 533.788 255.155 532.457C255.155 531.22 255.404 530.075 255.904 529.021C256.411 527.959 257.124 527.039 258.044 526.263C258.971 525.478 260.089 524.868 261.396 524.432C262.704 523.988 264.162 523.766 265.771 523.766C267.253 523.766 268.609 523.968 269.837 524.372C271.073 524.769 272.132 525.359 273.011 526.144C273.899 526.928 274.585 527.895 275.068 529.045C275.559 530.194 275.805 531.517 275.805 533.015V534.109H259.708C259.851 534.624 260.085 535.096 260.409 535.524C260.742 535.952 261.19 536.316 261.753 536.618C262.316 536.919 263.005 537.153 263.821 537.319C264.646 537.485 265.629 537.569 266.77 537.569C267.578 537.569 268.371 537.521 269.148 537.426C269.924 537.323 270.649 537.192 271.323 537.034C271.997 536.867 272.603 536.685 273.142 536.487C273.689 536.289 274.129 536.091 274.462 535.892V539.709ZM271.418 530.875C271.379 530.471 271.256 530.055 271.05 529.627C270.852 529.191 270.535 528.799 270.099 528.45C269.663 528.101 269.092 527.816 268.387 527.594C267.681 527.364 266.802 527.249 265.747 527.249C264.757 527.249 263.901 527.372 263.18 527.618C262.458 527.864 261.852 528.169 261.361 528.533C260.877 528.898 260.501 529.29 260.231 529.71C259.962 530.13 259.787 530.519 259.708 530.875H271.418Z" fill="white"/>
<path d="M252.218 536.011C252.218 536.645 252.135 537.196 251.969 537.664C251.802 538.131 251.569 538.536 251.267 538.876C250.974 539.209 250.617 539.483 250.197 539.697C249.785 539.903 249.326 540.069 248.818 540.196C248.319 540.315 247.784 540.398 247.213 540.446C246.643 540.493 246.052 540.517 245.442 540.517H233.589V524.182H245.228C245.696 524.182 246.163 524.202 246.631 524.242C247.106 524.281 247.558 524.357 247.986 524.468C248.414 524.571 248.81 524.717 249.175 524.907C249.547 525.098 249.868 525.347 250.138 525.656C250.415 525.965 250.629 526.338 250.78 526.774C250.938 527.21 251.018 527.725 251.018 528.319C251.018 529.381 250.756 530.226 250.233 530.852C249.71 531.47 248.886 531.882 247.76 532.088C248.553 532.144 249.23 532.266 249.793 532.457C250.364 532.639 250.827 532.893 251.184 533.217C251.541 533.534 251.802 533.927 251.969 534.394C252.135 534.854 252.218 535.393 252.218 536.011ZM246.714 529.021C246.714 528.815 246.682 528.621 246.619 528.438C246.556 528.248 246.441 528.082 246.274 527.939C246.108 527.796 245.882 527.681 245.597 527.594C245.311 527.507 244.947 527.463 244.503 527.463H238V530.531H244.503C244.947 530.531 245.311 530.491 245.597 530.412C245.882 530.333 246.108 530.226 246.274 530.091C246.441 529.956 246.556 529.798 246.619 529.615C246.682 529.425 246.714 529.227 246.714 529.021ZM247.736 535.5C247.736 535.128 247.673 534.83 247.546 534.608C247.419 534.379 247.221 534.204 246.952 534.085C246.682 533.959 246.334 533.875 245.906 533.836C245.478 533.796 244.966 533.776 244.372 533.776H238V537.236H244.372C244.966 537.236 245.478 537.216 245.906 537.176C246.334 537.137 246.682 537.053 246.952 536.927C247.221 536.8 247.419 536.625 247.546 536.404C247.673 536.174 247.736 535.873 247.736 535.5Z" fill="white"/>
</g>
<mask id="mask1_356_5078" style="mask-type:alpha" maskUnits="userSpaceOnUse" x="195" y="731" width="195" height="243">
<path d="M195 731H390V974H195V731Z" fill="#2B8BFC"/>
</mask>
<g mask="url(#mask1_356_5078)">
<path d="M195 731H390V974H195V731Z" fill="#2B8BFC"/>
<path d="M357.303 878.79V899.239H350.246V878.79H339.157V873.103H368.412V878.79H357.303Z" fill="white"/>
<path d="M327.534 899.239V884.592C327.534 883.616 327.452 882.734 327.287 881.948C327.122 881.149 326.811 880.471 326.355 879.913C325.911 879.342 325.283 878.905 324.471 878.6C323.673 878.283 322.639 878.125 321.371 878.125C320.407 878.125 319.393 878.258 318.328 878.524C317.275 878.778 316.229 879.12 315.189 879.551C314.149 879.982 313.154 880.483 312.203 881.054C311.264 881.625 310.427 882.221 309.692 882.842V899.239H302.635V873.103H309.692V876.679C310.579 876.172 311.524 875.671 312.526 875.176C313.528 874.669 314.593 874.213 315.722 873.807C316.85 873.401 318.049 873.071 319.317 872.818C320.585 872.564 321.923 872.437 323.33 872.437C325.093 872.437 326.665 872.653 328.048 873.084C329.442 873.502 330.622 874.105 331.586 874.891C332.549 875.665 333.285 876.609 333.792 877.725C334.312 878.828 334.572 880.065 334.572 881.434V899.239H327.534Z" fill="white"/>
<path d="M294.076 897.945C291.933 898.655 289.79 899.163 287.646 899.467C285.516 899.784 283.335 899.942 281.103 899.942C278.25 899.942 275.707 899.638 273.475 899.029C271.256 898.408 269.386 897.514 267.864 896.347C266.342 895.181 265.182 893.754 264.383 892.068C263.584 890.381 263.185 888.472 263.185 886.342C263.185 884.364 263.584 882.531 264.383 880.845C265.195 879.146 266.336 877.675 267.807 876.432C269.291 875.176 271.079 874.2 273.171 873.502C275.263 872.792 277.597 872.437 280.171 872.437C282.542 872.437 284.711 872.761 286.676 873.407C288.655 874.041 290.348 874.986 291.755 876.242C293.175 877.497 294.272 879.044 295.046 880.883C295.832 882.722 296.225 884.839 296.225 887.236V888.986H270.47C270.698 889.81 271.072 890.565 271.592 891.25C272.125 891.934 272.841 892.518 273.742 893C274.642 893.481 275.745 893.856 277.051 894.122C278.37 894.388 279.943 894.521 281.769 894.521C283.062 894.521 284.33 894.445 285.573 894.293C286.816 894.128 287.976 893.919 289.054 893.665C290.132 893.399 291.102 893.107 291.964 892.79C292.839 892.473 293.543 892.156 294.076 891.839V897.945ZM289.206 883.812C289.143 883.165 288.946 882.5 288.617 881.815C288.3 881.117 287.792 880.49 287.095 879.932C286.397 879.374 285.484 878.917 284.356 878.562C283.227 878.194 281.82 878.011 280.133 878.011C278.548 878.011 277.178 878.207 276.024 878.6C274.87 878.993 273.9 879.482 273.114 880.065C272.34 880.648 271.738 881.276 271.307 881.948C270.876 882.62 270.597 883.241 270.47 883.812H289.206Z" fill="white"/>
<path d="M249.147 878.79V899.239H242.09V878.79H231V873.103H260.255V878.79H249.147Z" fill="white"/>
<path d="M357.968 858.659V844.013C357.968 843.036 357.886 842.155 357.721 841.369C357.556 840.57 357.246 839.891 356.789 839.333C356.345 838.763 355.718 838.325 354.906 838.021C354.107 837.704 353.074 837.545 351.805 837.545C350.842 837.545 349.827 837.679 348.762 837.945C347.709 838.198 346.663 838.541 345.623 838.972C344.584 839.403 343.588 839.904 342.637 840.475C341.699 841.045 340.862 841.641 340.126 842.263V858.659H333.069V832.524H340.126V836.1C341.014 835.592 341.959 835.092 342.96 834.597C343.962 834.09 345.027 833.633 346.156 833.227C347.285 832.822 348.483 832.492 349.751 832.238C351.019 831.985 352.357 831.858 353.765 831.858C355.527 831.858 357.1 832.073 358.482 832.505C359.877 832.923 361.056 833.525 362.02 834.312C362.984 835.085 363.719 836.03 364.227 837.146C364.746 838.249 365.006 839.486 365.006 840.855V858.659H357.968Z" fill="white"/>
<path d="M326.64 845.611C326.64 847.855 326.228 849.84 325.404 851.564C324.58 853.276 323.4 854.709 321.866 855.863C320.331 857.017 318.467 857.892 316.273 858.488C314.092 859.071 311.639 859.363 308.912 859.363C306.186 859.363 303.719 859.071 301.513 858.488C299.319 857.892 297.448 857.017 295.901 855.863C294.354 854.709 293.162 853.276 292.325 851.564C291.488 849.84 291.07 847.855 291.07 845.611C291.07 843.366 291.488 841.388 292.325 839.676C293.162 837.951 294.354 836.512 295.901 835.358C297.448 834.204 299.319 833.335 301.513 832.752C303.719 832.156 306.186 831.858 308.912 831.858C311.639 831.858 314.092 832.156 316.273 832.752C318.467 833.335 320.331 834.204 321.866 835.358C323.4 836.512 324.58 837.951 325.404 839.676C326.228 841.388 326.64 843.366 326.64 845.611ZM319.507 845.611C319.507 844.634 319.349 843.664 319.032 842.7C318.727 841.724 318.176 840.849 317.377 840.075C316.59 839.302 315.513 838.674 314.143 838.192C312.774 837.71 311.03 837.469 308.912 837.469C307.492 837.469 306.243 837.583 305.165 837.812C304.087 838.027 303.155 838.332 302.369 838.725C301.582 839.118 300.923 839.581 300.39 840.113C299.858 840.633 299.433 841.198 299.116 841.806C298.799 842.402 298.571 843.03 298.431 843.689C298.304 844.336 298.241 844.976 298.241 845.611C298.241 846.257 298.304 846.91 298.431 847.57C298.571 848.229 298.799 848.863 299.116 849.472C299.433 850.068 299.858 850.626 300.39 851.146C300.923 851.666 301.582 852.122 302.369 852.515C303.155 852.896 304.087 853.2 305.165 853.428C306.243 853.644 307.492 853.752 308.912 853.752C311.03 853.752 312.774 853.511 314.143 853.029C315.513 852.547 316.59 851.919 317.377 851.146C318.176 850.372 318.727 849.504 319.032 848.54C319.349 847.563 319.507 846.587 319.507 845.611Z" fill="white"/>
<path d="M286.238 856.871C285.325 857.252 284.406 857.594 283.48 857.898C282.554 858.203 281.597 858.463 280.608 858.678C279.619 858.907 278.572 859.078 277.469 859.192C276.379 859.306 275.206 859.363 273.95 859.363C271.287 859.363 268.833 859.078 266.589 858.507C264.357 857.936 262.429 857.081 260.806 855.939C259.196 854.785 257.94 853.352 257.04 851.64C256.14 849.916 255.69 847.906 255.69 845.611C255.69 843.315 256.14 841.312 257.04 839.6C257.94 837.875 259.196 836.442 260.806 835.301C262.429 834.147 264.357 833.285 266.589 832.714C268.833 832.143 271.287 831.858 273.95 831.858C275.206 831.858 276.379 831.915 277.469 832.029C278.572 832.143 279.619 832.314 280.608 832.543C281.597 832.758 282.554 833.018 283.48 833.323C284.406 833.627 285.325 833.969 286.238 834.35V840.703C285.515 840.31 284.754 839.923 283.956 839.543C283.157 839.15 282.275 838.801 281.312 838.496C280.348 838.179 279.289 837.926 278.135 837.736C276.981 837.533 275.681 837.431 274.236 837.431C272.016 837.431 270.171 837.659 268.7 838.116C267.242 838.573 266.075 839.181 265.2 839.942C264.325 840.703 263.71 841.578 263.355 842.567C263 843.543 262.823 844.558 262.823 845.611C262.823 846.308 262.899 846.999 263.051 847.684C263.203 848.356 263.457 848.996 263.812 849.605C264.167 850.201 264.63 850.753 265.2 851.26C265.771 851.767 266.481 852.205 267.331 852.572C268.18 852.94 269.169 853.232 270.298 853.447C271.439 853.65 272.752 853.752 274.236 853.752C275.681 853.752 276.981 853.663 278.135 853.485C279.289 853.295 280.348 853.048 281.312 852.744C282.275 852.439 283.157 852.097 283.956 851.716C284.754 851.323 285.515 850.924 286.238 850.518V856.871Z" fill="white"/>
<path d="M266 760H290V785H266V760Z" fill="#2B8BFC"/>
<path fill-rule="evenodd" clip-rule="evenodd" d="M288.4 761.667H267.6V783.333H288.4V761.667ZM266 760V785H290V760H266Z" fill="white"/>
<path d="M230 761H236V767H230V761Z" fill="white"/>
<path fill-rule="evenodd" clip-rule="evenodd" d="M234.2 762.8H231.8V765.2H234.2V762.8ZM230 761V767H236V761H230Z" fill="white"/>
<path d="M249 761H254V767H249V761Z" fill="white"/>
<path fill-rule="evenodd" clip-rule="evenodd" d="M253.2 762.8H250.8V765.2H253.2V762.8ZM249 761V767H255V761H249Z" fill="white"/>
<path d="M230 779H236V784H230V779Z" fill="white"/>
<path fill-rule="evenodd" clip-rule="evenodd" d="M234.2 780.8H231.8V783.2H234.2V780.8ZM230 779V785H236V779H230Z" fill="white"/>
<path d="M249 779H254V784H249V779Z" fill="white"/>
<path fill-rule="evenodd" clip-rule="evenodd" d="M253.2 780.8H250.8V783.2H253.2V780.8ZM249 779V785H255V779H249Z" fill="white"/>
<path d="M340 760H364V785H340V760Z" fill="white"/>
<path fill-rule="evenodd" clip-rule="evenodd" d="M362.4 761.667H341.6V783.333H362.4V761.667ZM340 760V785H364V760H340Z" fill="white"/>
<path d="M302 760H326V785H302V760Z" fill="#2B8BFC"/>
<path fill-rule="evenodd" clip-rule="evenodd" d="M324.4 761.667H303.6V783.333H324.4V761.667ZM302 760V785H326V760H302Z" fill="white"/>
<path fill-rule="evenodd" clip-rule="evenodd" d="M303 783.233L325.233 761L326 761.767L303.767 784L303 783.233Z" fill="white"/>
<path fill-rule="evenodd" clip-rule="evenodd" d="M303.767 761L326 783.233L325.233 784L303 761.767L303.767 761Z" fill="white"/>
</g>
<mask id="mask2_356_5078" style="mask-type:alpha" maskUnits="userSpaceOnUse" x="0" y="0" width="195" height="243">
<path d="M0 0H195V243H0V0Z" fill="#2B8BFC"/>
</mask>
<g mask="url(#mask2_356_5078)">
<path d="M0 0H195V243H0V0Z" fill="#2B8BFC"/>
<path d="M161.338 219.128V204.482C161.338 203.505 161.255 202.624 161.09 201.838C160.926 201.039 160.615 200.36 160.158 199.803C159.715 199.232 159.087 198.794 158.275 198.49C157.476 198.173 156.443 198.014 155.175 198.014C154.211 198.014 153.196 198.148 152.131 198.414C151.079 198.668 150.033 199.01 148.993 199.441C147.953 199.872 146.957 200.373 146.006 200.944C145.068 201.514 144.231 202.11 143.495 202.732V219.128H136.438V192.993H143.495V196.569C144.383 196.062 145.328 195.561 146.33 195.066C147.331 194.559 148.397 194.102 149.525 193.697C150.654 193.291 151.852 192.961 153.12 192.707C154.388 192.454 155.726 192.327 157.134 192.327C158.897 192.327 160.469 192.543 161.851 192.974C163.246 193.392 164.426 193.995 165.389 194.781C166.353 195.554 167.089 196.499 167.596 197.615C168.116 198.718 168.376 199.955 168.376 201.324V219.128H161.338Z" fill="white"/>
<path d="M128.851 159.952C128.661 159.889 128.382 159.806 128.014 159.705C127.659 159.591 127.241 159.483 126.759 159.382C126.277 159.268 125.744 159.172 125.161 159.096C124.59 159.02 124.001 158.982 123.392 158.982C122.124 158.982 120.938 159.141 119.835 159.458C118.744 159.762 117.724 160.174 116.772 160.694C115.821 161.201 114.934 161.785 114.109 162.444C113.298 163.091 112.55 163.757 111.865 164.441V180.172H104.808V154.037H111.865V158.278C112.715 157.644 113.583 157.036 114.471 156.452C115.371 155.856 116.303 155.33 117.267 154.874C118.243 154.417 119.271 154.056 120.349 153.789C121.426 153.51 122.568 153.371 123.772 153.371C124.229 153.371 124.692 153.396 125.161 153.447C125.643 153.485 126.106 153.536 126.55 153.599C127.006 153.663 127.431 153.732 127.824 153.808C128.217 153.884 128.56 153.961 128.851 154.037V159.952Z" fill="white"/>
<path d="M79.5228 141.216V138.648C78.6224 139.143 77.6523 139.58 76.6125 139.961C75.5853 140.341 74.5137 140.664 73.3978 140.931C72.2819 141.197 71.1279 141.394 69.9359 141.52C68.7565 141.66 67.5645 141.73 66.3598 141.73C64.9522 141.73 63.589 141.597 62.2702 141.33C60.964 141.064 59.8037 140.633 58.7892 140.037C57.7748 139.441 56.9568 138.661 56.3355 137.697C55.7268 136.733 55.4224 135.554 55.4224 134.159C55.4224 132.396 55.9043 130.932 56.8681 129.765C57.8318 128.586 59.3028 127.622 61.2811 126.874C63.2593 126.126 65.7575 125.549 68.7756 125.143C71.8063 124.737 75.3887 124.42 79.5228 124.192V123.64C79.5228 123.209 79.4086 122.784 79.1804 122.366C78.9521 121.935 78.5336 121.56 77.9249 121.243C77.3289 120.914 76.5047 120.647 75.4521 120.445C74.4123 120.242 73.0808 120.14 71.4576 120.14C70.1768 120.14 68.9087 120.21 67.6533 120.349C66.4106 120.476 65.2059 120.654 64.0392 120.882C62.8852 121.11 61.7883 121.377 60.7485 121.681C59.7086 121.985 58.7639 122.302 57.9143 122.632V116.355C58.8019 116.127 59.7974 115.905 60.9006 115.689C62.0039 115.474 63.1515 115.29 64.3435 115.138C65.5356 114.973 66.7403 114.846 67.9576 114.757C69.175 114.656 70.3417 114.605 71.4576 114.605C73.6514 114.605 75.6741 114.789 77.5255 115.157C79.3769 115.512 80.9684 116.07 82.2999 116.83C83.6441 117.591 84.6903 118.555 85.4385 119.722C86.1993 120.888 86.5798 122.277 86.5798 123.887V141.216H79.5228ZM79.5228 129.29C76.809 129.391 74.5011 129.537 72.5989 129.727C70.7094 129.917 69.137 130.139 67.8816 130.393C66.6261 130.646 65.637 130.919 64.9142 131.211C64.204 131.502 63.6714 131.8 63.3164 132.105C62.9613 132.409 62.7394 132.713 62.6506 133.018C62.5745 133.322 62.5365 133.601 62.5365 133.855C62.5365 134.159 62.6189 134.457 62.7838 134.749C62.9486 135.028 63.2339 135.275 63.6397 135.491C64.0582 135.706 64.6098 135.877 65.2946 136.004C65.9794 136.131 66.8417 136.194 67.8816 136.194C69.0355 136.194 70.1641 136.106 71.2674 135.928C72.3706 135.751 73.4168 135.51 74.406 135.205C75.3951 134.888 76.3208 134.521 77.1831 134.102C78.0581 133.671 78.838 133.214 79.5228 132.732V129.29Z" fill="white"/>
<path d="M25.7314 102.26L25.7314 76.1243H52.1905V81.6976H32.9787V86.0155H51.2013V91.5888H32.9787V96.6866H52.4568V102.26H25.7314Z" fill="white"/>
<path d="M74 198.5C74 214.24 61.464 227 46 227C30.536 227 18 214.24 18 198.5C18 182.76 30.536 170 46 170C61.464 170 74 182.76 74 198.5Z" fill="#2B8BFC"/>
<path fill-rule="evenodd" clip-rule="evenodd" d="M46 221.571C58.5185 221.571 68.6667 211.242 68.6667 198.5C68.6667 185.758 58.5185 175.429 46 175.429C33.4815 175.429 23.3333 185.758 23.3333 198.5C23.3333 211.242 33.4815 221.571 46 221.571ZM46 227C61.464 227 74 214.24 74 198.5C74 182.76 61.464 170 46 170C30.536 170 18 182.76 18 198.5C18 214.24 30.536 227 46 227Z" fill="white"/>
<path d="M126 72H171V118H126V72Z" fill="white"/>
<path fill-rule="evenodd" clip-rule="evenodd" d="M167.786 75.2857H129.214V114.714H167.786V75.2857ZM126 72V118H171V72H126Z" fill="white"/>
</g>
<mask id="mask3_356_5078" style="mask-type:alpha" maskUnits="userSpaceOnUse" x="0" y="243" width="195" height="244">
<path d="M0 243H195V487H0V243Z" fill="#2B8BFC"/>
</mask>
<g mask="url(#mask3_356_5078)">
<path d="M0 243H195V487H0V243Z" fill="#2B8BFC"/>
<path d="M158.776 461.522V449.317C158.776 448.503 158.708 447.769 158.57 447.114C158.433 446.448 158.174 445.883 157.794 445.418C157.424 444.942 156.901 444.577 156.224 444.324C155.559 444.06 154.697 443.928 153.641 443.928C152.837 443.928 151.992 444.038 151.104 444.26C150.227 444.472 149.355 444.757 148.489 445.116C147.622 445.476 146.793 445.893 146 446.369C145.218 446.844 144.521 447.341 143.908 447.859V461.522H138.027V439.743H143.908V442.723C144.648 442.3 145.435 441.883 146.27 441.471C147.104 441.048 147.992 440.667 148.933 440.329C149.873 439.991 150.872 439.716 151.929 439.505C152.985 439.294 154.1 439.188 155.273 439.188C156.742 439.188 158.052 439.368 159.204 439.727C160.367 440.076 161.35 440.578 162.153 441.233C162.956 441.877 163.569 442.665 163.991 443.595C164.425 444.514 164.641 445.544 164.641 446.686V461.522H158.776Z" fill="white"/>
<path d="M130.894 460.445C129.108 461.036 127.322 461.459 125.536 461.713C123.761 461.977 121.943 462.109 120.083 462.109C117.705 462.109 115.587 461.855 113.727 461.348C111.877 460.83 110.319 460.085 109.051 459.113C107.782 458.141 106.816 456.952 106.15 455.547C105.484 454.141 105.151 452.551 105.151 450.775C105.151 449.127 105.484 447.6 106.15 446.194C106.826 444.778 107.777 443.552 109.003 442.517C110.239 441.471 111.729 440.657 113.473 440.076C115.217 439.484 117.161 439.188 119.306 439.188C121.282 439.188 123.09 439.457 124.727 439.996C126.376 440.525 127.787 441.312 128.96 442.358C130.143 443.404 131.057 444.694 131.702 446.226C132.357 447.758 132.685 449.523 132.685 451.52V452.979H111.222C111.412 453.666 111.724 454.294 112.157 454.865C112.601 455.436 113.198 455.922 113.949 456.323C114.699 456.725 115.618 457.037 116.707 457.258C117.806 457.48 119.116 457.591 120.638 457.591C121.716 457.591 122.772 457.528 123.808 457.401C124.844 457.264 125.811 457.089 126.709 456.878C127.607 456.656 128.416 456.413 129.134 456.149C129.863 455.885 130.45 455.621 130.894 455.356V460.445ZM126.836 448.667C126.783 448.128 126.619 447.573 126.344 447.003C126.08 446.421 125.657 445.898 125.076 445.433C124.495 444.968 123.734 444.588 122.794 444.292C121.853 443.986 120.68 443.832 119.275 443.832C117.954 443.832 116.812 443.996 115.851 444.324C114.889 444.651 114.081 445.058 113.426 445.544C112.781 446.03 112.279 446.554 111.92 447.114C111.56 447.674 111.328 448.192 111.222 448.667H126.836Z" fill="white"/>
<path d="M93.9125 461.522V452.44H78.9488V461.522H73.068V439.743H78.9488V447.668H93.9125V439.743H99.7933V461.522H93.9125Z" fill="white"/>
<path d="M51.6216 439.743L57.1855 454.865L63.209 439.743H69.3117L60.5618 461.522H54.031L48.3404 446.876L42.6657 461.522H36.1349L27.3691 439.743H33.4877L39.3844 454.548L45.0751 439.743H51.6216Z" fill="white"/>
<path d="M28 323H45V406H28V323Z" fill="white"/>
<path fill-rule="evenodd" clip-rule="evenodd" d="M41.8125 326.234H31.1875V402.766H41.8125V326.234ZM28 323V406H45V323H28Z" fill="white"/>
<path d="M61 323H79V406H61V323Z" fill="#2B8BFC"/>
<path fill-rule="evenodd" clip-rule="evenodd" d="M75.625 326.234H64.375V402.766H75.625V326.234ZM61 323V406H79V323H61Z" fill="white"/>
<path d="M134.936 325.176L149.969 333.764L108.637 406.113L93.6031 397.525L134.936 325.176Z" fill="white"/>
<path fill-rule="evenodd" clip-rule="evenodd" d="M145.54 334.973L136.144 329.605L98.0322 396.316L107.428 401.684L145.54 334.973ZM134.936 325.176L93.6031 397.525L108.637 406.113L149.969 333.764L134.936 325.176Z" fill="white"/>
<path d="M150 323H168V406H150V323Z" fill="white"/>
<path fill-rule="evenodd" clip-rule="evenodd" d="M164.625 326.234H153.375V402.766H164.625V326.234ZM150 323V406H168V323H150Z" fill="white"/>
</g>
<mask id="mask4_356_5078" style="mask-type:alpha" maskUnits="userSpaceOnUse" x="0" y="487" width="195" height="244">
<path d="M0 487H195V731H0V487Z" fill="black"/>
</mask>
<g mask="url(#mask4_356_5078)">
<path d="M0 487H195V731H0V487Z" fill="black"/>
<path d="M86.8251 650.229C86.8251 651.138 86.9097 651.883 87.0787 652.464C87.2478 653.035 87.5226 653.489 87.903 653.827C88.2834 654.166 88.7748 654.398 89.3772 654.525C89.9901 654.652 90.7404 654.715 91.6281 654.715H102.787V659.55H90.4234C88.7114 659.55 87.2531 659.412 86.0484 659.138C84.8543 658.852 83.8768 658.419 83.1159 657.838C82.355 657.246 81.8002 656.501 81.4515 655.603C81.1134 654.705 80.9443 653.637 80.9443 652.401V637.77H86.8251V650.229Z" fill="#2B8BFC"/>
<path d="M73.8109 658.472C72.025 659.064 70.2391 659.486 68.4532 659.74C66.6779 660.004 64.8602 660.136 63.0004 660.136C60.6227 660.136 58.5039 659.883 56.644 659.375C54.7947 658.858 53.2359 658.113 51.9678 657.14C50.6997 656.168 49.7328 654.979 49.0671 653.574C48.4013 652.168 48.0684 650.578 48.0684 648.803C48.0684 647.154 48.4013 645.627 49.0671 644.222C49.7434 642.806 50.6945 641.58 51.9203 640.544C53.1567 639.498 54.6467 638.684 56.3904 638.103C58.134 637.511 60.0784 637.215 62.2236 637.215C64.1998 637.215 66.0068 637.485 67.6448 638.024C69.2933 638.552 70.7041 639.339 71.8771 640.386C73.0607 641.432 73.9747 642.721 74.6194 644.253C75.2746 645.786 75.6021 647.55 75.6021 649.548V651.006H54.1395C54.3297 651.693 54.6414 652.322 55.0747 652.892C55.5185 653.463 56.1156 653.949 56.8659 654.351C57.6162 654.752 58.5356 655.064 59.624 655.286C60.7231 655.508 62.0334 655.619 63.5552 655.619C64.633 655.619 65.6898 655.555 66.7254 655.428C67.761 655.291 68.728 655.117 69.6262 654.905C70.5244 654.683 71.3329 654.44 72.0515 654.176C72.7806 653.912 73.3671 653.648 73.8109 653.384V658.472ZM69.753 646.694C69.7002 646.155 69.5364 645.601 69.2616 645.03C68.9974 644.449 68.5747 643.926 67.9935 643.461C67.4123 642.996 66.6514 642.615 65.7109 642.319C64.7704 642.013 63.5974 641.86 62.1919 641.86C60.871 641.86 59.7297 642.024 58.7681 642.351C57.8064 642.679 56.998 643.086 56.3428 643.572C55.6982 644.058 55.1962 644.581 54.8369 645.141C54.4776 645.701 54.2451 646.219 54.1395 646.694H69.753Z" fill="#2B8BFC"/>
<path d="M44.1533 648.644C44.1533 650.039 44.0001 651.281 43.6937 652.369C43.3872 653.447 42.9539 654.388 42.3938 655.191C41.8443 655.994 41.1786 656.675 40.3966 657.235C39.6251 657.796 38.7639 658.245 37.8128 658.583C36.8617 658.921 35.8367 659.169 34.7377 659.328C33.6386 659.476 32.4921 659.55 31.2979 659.55H17.4756L17.4756 637.77H31.2662C32.4604 637.77 33.6069 637.849 34.706 638.008C35.805 638.156 36.83 638.399 37.7811 638.737C38.7428 639.075 39.6146 639.524 40.3966 640.084C41.1786 640.634 41.8443 641.315 42.3938 642.129C42.9539 642.932 43.3872 643.873 43.6937 644.951C44.0001 646.029 44.1533 647.26 44.1533 648.644ZM38.2249 648.644C38.2249 647.598 38.0876 646.689 37.8128 645.918C37.5486 645.146 37.1154 644.512 36.513 644.015C35.9212 643.508 35.1445 643.133 34.1829 642.89C33.2212 642.636 32.0482 642.51 30.6639 642.51H23.3564L23.3564 654.81H30.6639C32.0482 654.81 33.2212 654.689 34.1829 654.446C35.1445 654.192 35.9212 653.812 36.513 653.304C37.1154 652.787 37.5486 652.142 37.8128 651.37C38.0876 650.599 38.2249 649.69 38.2249 648.644Z" fill="#2B8BFC"/>
<path d="M86.9675 615.13C86.9675 616.863 86.6346 618.438 85.9688 619.854C85.3136 621.259 84.4101 622.464 83.2582 623.468C82.1064 624.461 80.7485 625.233 79.1845 625.782C77.6205 626.321 75.9402 626.591 74.1437 626.591C72.939 626.591 71.7872 626.469 70.6882 626.226C69.5891 625.983 68.5588 625.629 67.5972 625.164C66.6461 624.699 65.7795 624.134 64.9975 623.468C64.2261 622.792 63.5656 622.031 63.0161 621.185C62.4666 620.34 62.0386 619.41 61.7322 618.396C61.4363 617.381 61.2883 616.293 61.2883 615.13C61.2883 613.978 61.4363 612.895 61.7322 611.881C62.0386 610.856 62.4666 609.92 63.0161 609.075C63.5656 608.23 64.2261 607.474 64.9975 606.808C65.7795 606.132 66.6461 605.561 67.5972 605.096C68.5588 604.631 69.5891 604.277 70.6882 604.034C71.7872 603.791 72.939 603.67 74.1437 603.67C75.9402 603.67 77.6205 603.944 79.1845 604.494C80.7485 605.033 82.1064 605.804 83.2582 606.808C84.4101 607.802 85.3136 609.006 85.9688 610.422C86.6346 611.828 86.9675 613.397 86.9675 615.13ZM81.0866 615.13C81.0866 614.031 80.8964 613.059 80.516 612.214C80.1355 611.368 79.623 610.655 78.9784 610.074C78.3443 609.492 77.6099 609.054 76.7751 608.758C75.9402 608.462 75.0631 608.314 74.1437 608.314C73.2244 608.314 72.342 608.462 71.4966 608.758C70.6512 609.054 69.9062 609.492 69.2615 610.074C68.6275 610.655 68.115 611.368 67.724 612.214C67.3435 613.059 67.1533 614.031 67.1533 615.13C67.1533 616.229 67.3435 617.201 67.724 618.047C68.115 618.892 68.6275 619.606 69.2615 620.187C69.9062 620.757 70.6512 621.196 71.4966 621.502C72.342 621.798 73.2244 621.946 74.1437 621.946C75.0631 621.946 75.9402 621.798 76.7751 621.502C77.6099 621.196 78.3443 620.757 78.9784 620.187C79.623 619.606 80.1355 618.892 80.516 618.047C80.8964 617.201 81.0866 616.229 81.0866 615.13Z" fill="#2B8BFC"/>
<path d="M23.3564 604.224V606.618C23.8742 606.29 24.4343 605.952 25.0367 605.604C25.6496 605.255 26.31 604.938 27.0181 604.652C27.7367 604.367 28.5028 604.135 29.3165 603.955C30.1408 603.765 31.0285 603.67 31.9795 603.67C32.9095 603.67 33.7232 603.77 34.4206 603.971C35.1181 604.161 35.7204 604.415 36.2277 604.732C36.7455 605.038 37.184 605.387 37.5433 605.778C37.9026 606.158 38.2144 606.539 38.4786 606.919C39.2289 606.433 39.9686 605.989 40.6978 605.588C41.4269 605.186 42.1614 604.843 42.9011 604.557C43.6408 604.272 44.3964 604.055 45.1678 603.907C45.9393 603.749 46.7424 603.67 47.5772 603.67C48.9087 603.67 50.0976 603.855 51.1438 604.224C52.2005 604.594 53.0935 605.102 53.8226 605.746C54.5518 606.391 55.1066 607.152 55.487 608.029C55.878 608.895 56.0735 609.825 56.0735 610.819L56.0735 626.004H50.1927L50.1927 611.659C50.1927 611.078 50.1029 610.576 49.9232 610.153C49.7436 609.73 49.5005 609.387 49.1941 609.123C48.8982 608.858 48.5442 608.663 48.132 608.536C47.7304 608.409 47.3025 608.346 46.8481 608.346C44.7346 608.346 42.3252 609.297 39.6199 611.199C39.6516 611.379 39.6727 611.59 39.6833 611.833C39.7044 612.076 39.715 612.319 39.715 612.562V626.004H33.8341V611.532C33.8341 610.951 33.7443 610.459 33.5647 610.058C33.385 609.646 33.1367 609.313 32.8197 609.059C32.5132 608.806 32.1539 608.626 31.7418 608.52C31.3402 608.404 30.9122 608.346 30.4578 608.346C29.9083 608.346 29.3271 608.425 28.7142 608.584C28.1118 608.742 27.4989 608.964 26.8754 609.249C26.2625 609.535 25.6549 609.873 25.0525 610.264C24.4607 610.655 23.8954 611.078 23.3564 611.532L23.3564 626.004H17.4756L17.4756 604.224H23.3564Z" fill="#2B8BFC"/>
<path d="M185.176 615.13C185.176 616.863 184.843 618.438 184.178 619.854C183.522 621.259 182.619 622.464 181.467 623.468C180.315 624.461 178.957 625.233 177.393 625.782C175.829 626.321 174.149 626.591 172.352 626.591C171.148 626.591 169.996 626.469 168.897 626.226C167.798 625.983 166.768 625.629 165.806 625.164C164.855 624.699 163.988 624.134 163.206 623.468C162.435 622.791 161.774 622.031 161.225 621.185C160.675 620.34 160.247 619.41 159.941 618.395C159.645 617.381 159.497 616.292 159.497 615.13C159.497 613.978 159.645 612.895 159.941 611.881C160.247 610.855 160.675 609.92 161.225 609.075C161.774 608.229 162.435 607.474 163.206 606.808C163.988 606.132 164.855 605.561 165.806 605.096C166.768 604.631 167.798 604.277 168.897 604.034C169.996 603.791 171.148 603.67 172.352 603.67C174.149 603.67 175.829 603.944 177.393 604.494C178.957 605.033 180.315 605.804 181.467 606.808C182.619 607.801 183.522 609.006 184.178 610.422C184.843 611.828 185.176 613.397 185.176 615.13ZM179.295 615.13C179.295 614.031 179.105 613.059 178.725 612.213C178.344 611.368 177.832 610.655 177.187 610.073C176.553 609.492 175.819 609.054 174.984 608.758C174.149 608.462 173.272 608.314 172.352 608.314C171.433 608.314 170.551 608.462 169.705 608.758C168.86 609.054 168.115 609.492 167.47 610.073C166.836 610.655 166.324 611.368 165.933 612.213C165.552 613.059 165.362 614.031 165.362 615.13C165.362 616.229 165.552 617.201 165.933 618.047C166.324 618.892 166.836 619.605 167.47 620.187C168.115 620.757 168.86 621.196 169.705 621.502C170.551 621.798 171.433 621.946 172.352 621.946C173.272 621.946 174.149 621.798 174.984 621.502C175.819 621.196 176.553 620.757 177.187 620.187C177.832 619.605 178.344 618.892 178.725 618.047C179.105 617.201 179.295 616.229 179.295 615.13Z" fill="#2B8BFC"/>
<path d="M152.479 615.13C152.479 616.863 152.146 618.438 151.48 619.854C150.825 621.259 149.922 622.464 148.77 623.468C147.618 624.461 146.26 625.233 144.696 625.782C143.132 626.321 141.452 626.591 139.655 626.591C138.451 626.591 137.299 626.469 136.2 626.226C135.101 625.983 134.07 625.629 133.109 625.164C132.158 624.699 131.291 624.134 130.509 623.468C129.738 622.791 129.077 622.031 128.528 621.185C127.978 620.34 127.55 619.41 127.244 618.395C126.948 617.381 126.8 616.292 126.8 615.13C126.8 613.978 126.948 612.895 127.244 611.881C127.55 610.855 127.978 609.92 128.528 609.075C129.077 608.229 129.738 607.474 130.509 606.808C131.291 606.132 132.158 605.561 133.109 605.096C134.07 604.631 135.101 604.277 136.2 604.034C137.299 603.791 138.451 603.67 139.655 603.67C141.452 603.67 143.132 603.944 144.696 604.494C146.26 605.033 147.618 605.804 148.77 606.808C149.922 607.801 150.825 609.006 151.48 610.422C152.146 611.828 152.479 613.397 152.479 615.13ZM146.598 615.13C146.598 614.031 146.408 613.059 146.028 612.213C145.647 611.368 145.135 610.655 144.49 610.073C143.856 609.492 143.121 609.054 142.287 608.758C141.452 608.462 140.575 608.314 139.655 608.314C138.736 608.314 137.854 608.462 137.008 608.758C136.163 609.054 135.418 609.492 134.773 610.073C134.139 610.655 133.626 611.368 133.235 612.213C132.855 613.059 132.665 614.031 132.665 615.13C132.665 616.229 132.855 617.201 133.235 618.047C133.626 618.892 134.139 619.605 134.773 620.187C135.418 620.757 136.163 621.196 137.008 621.502C137.854 621.798 138.736 621.946 139.655 621.946C140.575 621.946 141.452 621.798 142.287 621.502C143.121 621.196 143.856 620.757 144.49 620.187C145.135 619.605 145.647 618.892 146.028 618.047C146.408 617.201 146.598 616.229 146.598 615.13Z" fill="white"/>
<path d="M119.781 615.13C119.781 616.863 119.448 618.438 118.782 619.854C118.127 621.259 117.223 622.464 116.071 623.468C114.92 624.461 113.562 625.233 111.998 625.782C110.434 626.321 108.753 626.591 106.957 626.591C105.752 626.591 104.6 626.469 103.501 626.226C102.402 625.983 101.372 625.629 100.41 625.164C99.4593 624.699 98.5928 624.134 97.8108 623.468C97.0393 622.791 96.3789 622.031 95.8294 621.185C95.2798 620.34 94.8519 619.41 94.5454 618.395C94.2495 617.381 94.1016 616.292 94.1016 615.13C94.1016 613.978 94.2495 612.895 94.5454 611.881C94.8519 610.855 95.2798 609.92 95.8294 609.075C96.3789 608.229 97.0393 607.474 97.8108 606.808C98.5928 606.132 99.4593 605.561 100.41 605.096C101.372 604.631 102.402 604.277 103.501 604.034C104.6 603.791 105.752 603.67 106.957 603.67C108.753 603.67 110.434 603.944 111.998 604.494C113.562 605.033 114.92 605.804 116.071 606.808C117.223 607.801 118.127 609.006 118.782 610.422C119.448 611.828 119.781 613.397 119.781 615.13ZM113.9 615.13C113.9 614.031 113.71 613.059 113.329 612.213C112.949 611.368 112.436 610.655 111.792 610.073C111.158 609.492 110.423 609.054 109.588 608.758C108.753 608.462 107.876 608.314 106.957 608.314C106.038 608.314 105.155 608.462 104.31 608.758C103.464 609.054 102.719 609.492 102.075 610.073C101.441 610.655 100.928 611.368 100.537 612.213C100.157 613.059 99.9665 614.031 99.9665 615.13C99.9665 616.229 100.157 617.201 100.537 618.047C100.928 618.892 101.441 619.605 102.075 620.187C102.719 620.757 103.464 621.196 104.31 621.502C105.155 621.798 106.038 621.946 106.957 621.946C107.876 621.946 108.753 621.798 109.588 621.502C110.423 621.196 111.158 620.757 111.792 620.187C112.436 619.605 112.949 618.892 113.329 618.047C113.71 617.201 113.9 616.229 113.9 615.13Z" fill="#2B8BFC"/>
<path d="M87.0824 615.13C87.0824 616.863 86.7496 618.438 86.0838 619.854C85.4286 621.259 84.5251 622.464 83.3732 623.468C82.2214 624.461 80.8634 625.233 79.2994 625.782C77.7355 626.321 76.0552 626.591 74.2587 626.591C73.054 626.591 71.9022 626.469 70.8031 626.226C69.7041 625.983 68.6738 625.629 67.7121 625.164C66.7611 624.699 65.8945 624.134 65.1125 623.468C64.3411 622.791 63.6806 622.031 63.1311 621.185C62.5816 620.34 62.1536 619.41 61.8472 618.395C61.5513 617.381 61.4033 616.292 61.4033 615.13C61.4033 613.978 61.5513 612.895 61.8472 611.881C62.1536 610.855 62.5816 609.92 63.1311 609.075C63.6806 608.229 64.3411 607.474 65.1125 606.808C65.8945 606.132 66.7611 605.561 67.7121 605.096C68.6738 604.631 69.7041 604.277 70.8031 604.034C71.9022 603.791 73.054 603.67 74.2587 603.67C76.0552 603.67 77.7355 603.944 79.2994 604.494C80.8634 605.033 82.2214 605.804 83.3732 606.808C84.5251 607.801 85.4286 609.006 86.0838 610.422C86.7496 611.828 87.0824 613.397 87.0824 615.13ZM81.2016 615.13C81.2016 614.031 81.0114 613.059 80.631 612.213C80.2505 611.368 79.738 610.655 79.0934 610.073C78.4593 609.492 77.7249 609.054 76.89 608.758C76.0552 608.462 75.1781 608.314 74.2587 608.314C73.3394 608.314 72.457 608.462 71.6116 608.758C70.7662 609.054 70.0211 609.492 69.3765 610.073C68.7425 610.655 68.23 611.368 67.839 612.213C67.4585 613.059 67.2683 614.031 67.2683 615.13C67.2683 616.229 67.4585 617.201 67.839 618.047C68.23 618.892 68.7425 619.605 69.3765 620.187C70.0211 620.757 70.7662 621.196 71.6116 621.502C72.457 621.798 73.3394 621.946 74.2587 621.946C75.1781 621.946 76.0552 621.798 76.89 621.502C77.7249 621.196 78.4593 620.757 79.0934 620.187C79.738 619.605 80.2505 618.892 80.631 618.047C81.0114 617.201 81.2016 616.229 81.2016 615.13Z" fill="white"/>
<path d="M87.0824 581.584C87.0824 583.317 86.7496 584.892 86.0838 586.308C85.4286 587.714 84.5251 588.918 83.3732 589.922C82.2214 590.916 80.8634 591.687 79.2994 592.236C77.7355 592.775 76.0552 593.045 74.2587 593.045C73.054 593.045 71.9022 592.923 70.8031 592.68C69.7041 592.437 68.6738 592.083 67.7121 591.618C66.7611 591.153 65.8945 590.588 65.1125 589.922C64.3411 589.246 63.6806 588.485 63.1311 587.64C62.5816 586.794 62.1536 585.864 61.8472 584.85C61.5513 583.835 61.4033 582.747 61.4033 581.584C61.4033 580.433 61.5513 579.349 61.8472 578.335C62.1536 577.31 62.5816 576.375 63.1311 575.529C63.6806 574.684 64.3411 573.928 65.1125 573.262C65.8945 572.586 66.7611 572.015 67.7121 571.551C68.6738 571.086 69.7041 570.732 70.8031 570.488C71.9022 570.245 73.054 570.124 74.2587 570.124C76.0552 570.124 77.7355 570.399 79.2994 570.948C80.8634 571.487 82.2214 572.259 83.3732 573.262C84.5251 574.256 85.4286 575.461 86.0838 576.877C86.7496 578.282 87.0824 579.851 87.0824 581.584ZM81.2016 581.584C81.2016 580.485 81.0114 579.513 80.631 578.668C80.2505 577.822 79.738 577.109 79.0934 576.528C78.4593 575.947 77.7249 575.508 76.89 575.212C76.0552 574.916 75.1781 574.768 74.2587 574.768C73.3394 574.768 72.457 574.916 71.6116 575.212C70.7662 575.508 70.0211 575.947 69.3765 576.528C68.7425 577.109 68.23 577.822 67.839 578.668C67.4585 579.513 67.2683 580.485 67.2683 581.584C67.2683 582.683 67.4585 583.656 67.839 584.501C68.23 585.346 68.7425 586.06 69.3765 586.641C70.0211 587.212 70.7662 587.65 71.6116 587.957C72.457 588.253 73.3394 588.4 74.2587 588.4C75.1781 588.4 76.0552 588.253 76.89 587.957C77.7249 587.65 78.4593 587.212 79.0934 586.641C79.738 586.06 80.2505 585.346 80.631 584.501C81.0114 583.656 81.2016 582.683 81.2016 581.584Z" fill="#2B8BFC"/>
<path d="M87.0824 548.039C87.0824 549.772 86.7496 551.346 86.0838 552.762C85.4286 554.168 84.5251 555.373 83.3732 556.377C82.2214 557.37 80.8634 558.141 79.2994 558.691C77.7355 559.23 76.0552 559.499 74.2587 559.499C73.054 559.499 71.9022 559.378 70.8031 559.135C69.7041 558.892 68.6738 558.538 67.7121 558.073C66.7611 557.608 65.8945 557.042 65.1125 556.377C64.3411 555.7 63.6806 554.939 63.1311 554.094C62.5816 553.249 62.1536 552.319 61.8472 551.304C61.5513 550.29 61.4033 549.201 61.4033 548.039C61.4033 546.887 61.5513 545.804 61.8472 544.789C62.1536 543.764 62.5816 542.829 63.1311 541.984C63.6806 541.138 64.3411 540.383 65.1125 539.717C65.8945 539.041 66.7611 538.47 67.7121 538.005C68.6738 537.54 69.7041 537.186 70.8031 536.943C71.9022 536.7 73.054 536.578 74.2587 536.578C76.0552 536.578 77.7355 536.853 79.2994 537.403C80.8634 537.942 82.2214 538.713 83.3732 539.717C84.5251 540.71 85.4286 541.915 86.0838 543.331C86.7496 544.736 87.0824 546.306 87.0824 548.039ZM81.2016 548.039C81.2016 546.94 81.0114 545.968 80.631 545.122C80.2505 544.277 79.738 543.563 79.0934 542.982C78.4593 542.401 77.7249 541.962 76.89 541.667C76.0552 541.371 75.1781 541.223 74.2587 541.223C73.3394 541.223 72.457 541.371 71.6116 541.667C70.7662 541.962 70.0211 542.401 69.3765 542.982C68.7425 543.563 68.23 544.277 67.839 545.122C67.4585 545.968 67.2683 546.94 67.2683 548.039C67.2683 549.138 67.4585 550.11 67.839 550.955C68.23 551.801 68.7425 552.514 69.3765 553.095C70.0211 553.666 70.7662 554.105 71.6116 554.411C72.457 554.707 73.3394 554.855 74.2587 554.855C75.1781 554.855 76.0552 554.707 76.89 554.411C77.7249 554.105 78.4593 553.666 79.0934 553.095C79.738 552.514 80.2505 551.801 80.631 550.955C81.0114 550.11 81.2016 549.138 81.2016 548.039Z" fill="white"/>
<path d="M87.0824 514.493C87.0824 516.226 86.7496 517.801 86.0838 519.217C85.4286 520.622 84.5251 521.827 83.3732 522.831C82.2214 523.824 80.8634 524.596 79.2994 525.145C77.7355 525.684 76.0552 525.954 74.2587 525.954C73.054 525.954 71.9022 525.832 70.8031 525.589C69.7041 525.346 68.6738 524.992 67.7121 524.527C66.7611 524.062 65.8945 523.497 65.1125 522.831C64.3411 522.155 63.6806 521.394 63.1311 520.548C62.5816 519.703 62.1536 518.773 61.8472 517.759C61.5513 516.744 61.4033 515.656 61.4033 514.493C61.4033 513.341 61.5513 512.258 61.8472 511.244C62.1536 510.219 62.5816 509.283 63.1311 508.438C63.6806 507.593 64.3411 506.837 65.1125 506.171C65.8945 505.495 66.7611 504.924 67.7121 504.459C68.6738 503.994 69.7041 503.64 70.8031 503.397C71.9022 503.154 73.054 503.033 74.2587 503.033C76.0552 503.033 77.7355 503.307 79.2994 503.857C80.8634 504.396 82.2214 505.167 83.3732 506.171C84.5251 507.165 85.4286 508.369 86.0838 509.785C86.7496 511.191 87.0824 512.76 87.0824 514.493ZM81.2016 514.493C81.2016 513.394 81.0114 512.422 80.631 511.577C80.2505 510.731 79.738 510.018 79.0934 509.437C78.4593 508.855 77.7249 508.417 76.89 508.121C76.0552 507.825 75.1781 507.677 74.2587 507.677C73.3394 507.677 72.457 507.825 71.6116 508.121C70.7662 508.417 70.0211 508.855 69.3765 509.437C68.7425 510.018 68.23 510.731 67.839 511.577C67.4585 512.422 67.2683 513.394 67.2683 514.493C67.2683 515.592 67.4585 516.564 67.839 517.41C68.23 518.255 68.7425 518.969 69.3765 519.55C70.0211 520.12 70.7662 520.559 71.6116 520.865C72.457 521.161 73.3394 521.309 74.2587 521.309C75.1781 521.309 76.0552 521.161 76.89 520.865C77.7249 520.559 78.4593 520.12 79.0934 519.55C79.738 518.969 80.2505 518.255 80.631 517.41C81.0114 516.564 81.2016 515.592 81.2016 514.493Z" fill="#2B8BFC"/>
<path fill-rule="evenodd" clip-rule="evenodd" d="M120.759 487C120.759 528.484 153.998 562.114 195 562.114V573C148.056 573 110 534.496 110 487H120.759Z" fill="white"/>
</g>
<mask id="mask5_356_5078" style="mask-type:alpha" maskUnits="userSpaceOnUse" x="0" y="731" width="195" height="243">
<path d="M0 731H195V974H0V731Z" fill="black"/>
</mask>
<g mask="url(#mask5_356_5078)">
<path d="M0 731H195V974H0V731Z" fill="black"/>
<path fill-rule="evenodd" clip-rule="evenodd" d="M97.5 828C43.6522 828 4.73166e-06 871.876 0 926L195 926C195 871.876 151.348 828 97.5 828Z" fill="#2B8BFC"/>
<path fill-rule="evenodd" clip-rule="evenodd" d="M97.5 828C151.348 828 195 784.572 195 731H0C0 784.572 43.6522 828 97.5 828Z" fill="white"/>
<path d="M21.8813 898.312C22.3168 896.572 22.8718 894.994 23.5463 893.579C24.2144 892.154 24.9373 890.875 25.7151 889.742L30.0568 890.829C29.6583 891.251 29.2521 891.74 28.8385 892.295C28.427 892.842 28.0316 893.453 27.6523 894.127C27.2731 894.801 26.9197 895.536 26.5921 896.333C26.2645 897.13 25.9865 897.985 25.7579 898.898C25.4734 900.035 25.3072 901.046 25.2596 901.931C25.212 902.816 25.2506 903.595 25.3753 904.267C25.5001 904.939 25.6991 905.515 25.9725 905.996C26.2373 906.474 26.5485 906.877 26.9059 907.204C27.2633 907.531 27.6466 907.792 28.0558 907.986C28.465 908.18 28.872 908.328 29.2769 908.429C29.6301 908.517 30.022 908.579 30.4528 908.614C30.8857 908.639 31.3337 908.605 31.7968 908.51C32.262 908.407 32.7294 908.222 33.199 907.955C33.6686 907.688 34.1221 907.303 34.5594 906.799C34.9989 906.286 35.4115 905.644 35.7972 904.871C36.1744 904.095 36.5041 903.143 36.7866 902.015C36.9289 901.446 37.0356 900.947 37.1068 900.516C37.178 900.085 37.2265 899.69 37.2525 899.33C37.2806 898.962 37.2893 898.616 37.2786 898.293C37.2701 897.962 37.2594 897.62 37.2466 897.269L35.1016 896.732L33.7562 902.108L29.8667 901.134L32.4119 890.965L41.483 893.235C41.5388 893.927 41.558 894.691 41.5406 895.529C41.5166 896.356 41.4593 897.207 41.3687 898.081C41.2887 898.949 41.1776 899.814 41.0352 900.675C40.8929 901.537 40.7279 902.342 40.5403 903.092C40.2492 904.255 39.8925 905.351 39.4701 906.38C39.0477 907.41 38.5607 908.35 38.0091 909.2C37.4511 910.04 36.8263 910.781 36.1348 911.422C35.4454 912.055 34.6882 912.557 33.8632 912.927C33.0404 913.289 32.1476 913.509 31.1848 913.589C30.2156 913.658 29.1754 913.553 28.0641 913.275C26.9615 912.999 26.001 912.594 25.1827 912.059C24.3644 911.525 23.6797 910.896 23.1285 910.172C22.5795 909.44 22.1522 908.623 21.8466 907.723C21.5431 906.814 21.3484 905.854 21.2626 904.844C21.1702 903.823 21.1791 902.764 21.2892 901.665C21.4015 900.558 21.5989 899.44 21.8813 898.312Z" fill="white"/>
<path d="M55.8066 874.509C55.2997 876.007 54.6794 877.419 53.9456 878.745C53.2243 880.07 52.393 881.356 51.4517 882.603C50.2483 884.198 49.0058 885.491 47.7243 886.482C46.4409 887.461 45.1523 888.129 43.8583 888.488C42.5643 888.847 41.2774 888.894 39.9977 888.629C38.7179 888.364 37.4825 887.783 36.2916 886.884C35.1857 886.05 34.3298 885.054 33.7239 883.896C33.1163 882.725 32.7754 881.467 32.7011 880.12C32.625 878.761 32.8333 877.35 33.3259 875.886C33.8114 874.417 34.597 872.963 35.6827 871.524C36.6828 870.198 37.7782 869.122 38.9687 868.296C40.1575 867.458 41.3996 866.91 42.6951 866.653C43.9959 866.388 45.3234 866.427 46.6776 866.771C48.0371 867.107 49.3867 867.78 50.7265 868.791L51.7048 869.529L40.8423 883.927C41.3993 884.147 41.9789 884.256 42.581 884.254C43.1884 884.245 43.8167 884.09 44.4658 883.79C45.1149 883.49 45.7893 883.031 46.4891 882.413C47.1942 881.789 47.9318 880.966 48.702 879.945C49.2475 879.222 49.7398 878.481 50.1789 877.722C50.6109 876.958 50.9833 876.221 51.2961 875.511C51.6019 874.796 51.848 874.131 52.0344 873.515C52.2262 872.892 52.3458 872.365 52.3933 871.934L55.8066 874.509ZM45.8522 871.271C45.4639 871.033 45.0088 870.862 44.487 870.758C43.9634 870.641 43.3985 870.66 42.7925 870.814C42.1864 870.969 41.5461 871.287 40.8716 871.768C40.19 872.244 39.4936 872.953 38.7822 873.896C38.1137 874.782 37.6459 875.63 37.379 876.441C37.1121 877.252 36.9758 878 36.9703 878.686C36.9702 879.364 37.067 879.966 37.2609 880.49C37.4548 881.015 37.6845 881.433 37.95 881.744L45.8522 871.271Z" fill="white"/>
<path d="M74.762 864.319L69.7198 855.388C69.3836 854.792 69.03 854.283 68.6588 853.861C68.2832 853.43 67.8602 853.123 67.3897 852.94C66.9226 852.745 66.3892 852.694 65.7895 852.788C65.1932 852.87 64.5084 853.129 63.7351 853.566C63.1474 853.897 62.5746 854.328 62.0167 854.857C61.4622 855.374 60.942 855.943 60.4564 856.564C59.9707 857.185 59.5361 857.833 59.1525 858.508C58.7767 859.179 58.4715 859.831 58.2369 860.463L63.8815 870.462L59.5781 872.891L50.5808 856.953L54.8842 854.524L56.1153 856.705C56.482 856.09 56.8857 855.459 57.3263 854.813C57.7626 854.158 58.255 853.513 58.8036 852.877C59.3521 852.241 59.9694 851.628 60.6554 851.037C61.3414 850.445 62.1136 849.907 62.9719 849.423C64.0468 848.816 65.0799 848.406 66.0713 848.193C67.066 847.968 67.9925 847.93 68.8509 848.077C69.7049 848.217 70.4786 848.54 71.1721 849.046C71.869 849.54 72.4532 850.204 72.9246 851.039L79.0538 861.897L74.762 864.319Z" fill="white"/>
<path d="M102.334 858.727C100.893 859.376 99.4367 859.885 97.966 860.252C96.505 860.626 94.9972 860.895 93.4426 861.056C91.4553 861.262 89.6623 861.234 88.0637 860.971C86.4731 860.699 85.1056 860.211 83.9613 859.509C82.8171 858.806 81.9057 857.896 81.2274 856.779C80.549 855.662 80.1328 854.362 79.9788 852.878C79.8358 851.5 79.9815 850.195 80.4161 848.962C80.8586 847.72 81.5472 846.613 82.4819 845.641C83.4246 844.659 84.5995 843.85 86.0064 843.213C87.4125 842.567 89.0121 842.151 90.8051 841.965C92.4569 841.794 93.9906 841.862 95.4065 842.17C96.8302 842.469 98.0777 843.005 99.1489 843.777C100.229 844.549 101.105 845.547 101.776 846.772C102.457 847.996 102.884 849.443 103.057 851.112L103.184 852.331L85.2443 854.193C85.4629 854.751 85.778 855.249 86.1897 855.689C86.6101 856.127 87.1514 856.482 87.8133 856.752C88.4753 857.023 89.2708 857.203 90.1998 857.295C91.1377 857.385 92.2425 857.364 93.5145 857.232C94.4154 857.138 95.2932 856.994 96.1478 856.798C97.0015 856.593 97.7946 856.363 98.527 856.109C99.2586 855.845 99.9132 855.572 100.491 855.289C101.077 855.005 101.545 854.733 101.893 854.474L102.334 858.727ZM97.9207 849.235C97.8298 848.789 97.6448 848.339 97.3656 847.886C97.0944 847.423 96.6957 847.023 96.1696 846.685C95.6434 846.346 94.9745 846.094 94.1627 845.929C93.35 845.754 92.3563 845.728 91.1815 845.85C90.0774 845.964 89.1377 846.2 88.3623 846.557C87.587 846.915 86.9465 847.325 86.4411 847.788C85.9444 848.25 85.5703 848.731 85.3185 849.23C85.0668 849.73 84.9174 850.183 84.8703 850.589L97.9207 849.235Z" fill="white"/>
<path d="M126.03 851.334C125.912 851.258 125.738 851.154 125.506 851.021C125.285 850.882 125.019 850.736 124.71 850.583C124.403 850.422 124.058 850.265 123.676 850.112C123.302 849.962 122.909 849.833 122.496 849.728C121.635 849.507 120.803 849.409 120 849.432C119.207 849.449 118.443 849.551 117.708 849.739C116.974 849.918 116.271 850.159 115.597 850.463C114.934 850.761 114.311 851.083 113.727 851.428L110.995 862.1L106.207 860.874L110.748 843.144L115.535 844.37L114.798 847.248C115.485 846.965 116.18 846.703 116.883 846.461C117.597 846.214 118.321 846.018 119.054 845.876C119.796 845.736 120.556 845.669 121.333 845.676C122.113 845.674 122.911 845.778 123.728 845.987C124.038 846.066 124.348 846.164 124.657 846.28C124.978 846.389 125.283 846.504 125.573 846.624C125.871 846.747 126.148 846.868 126.401 846.988C126.654 847.108 126.874 847.219 127.058 847.321L126.03 851.334Z" fill="white"/>
<path d="M136.488 874.774L137.506 873.291C136.79 873.22 136.057 873.088 135.306 872.895C134.562 872.708 133.815 872.47 133.065 872.181C132.316 871.893 131.572 871.549 130.833 871.149C130.097 870.762 129.381 870.33 128.686 869.853C127.873 869.295 127.139 868.678 126.483 868.001C125.835 867.33 125.336 866.621 124.986 865.875C124.637 865.129 124.474 864.354 124.497 863.551C124.528 862.754 124.819 861.952 125.372 861.147C126.071 860.129 126.93 859.475 127.949 859.183C128.972 858.885 130.204 858.911 131.642 859.263C133.081 859.616 134.752 860.273 136.655 861.235C138.565 862.202 140.759 863.439 143.236 864.946L143.455 864.627C143.626 864.378 143.728 864.088 143.762 863.756C143.801 863.416 143.708 863.034 143.482 862.61C143.269 862.184 142.899 861.703 142.372 861.169C141.852 860.639 141.123 860.053 140.186 859.41C139.447 858.902 138.687 858.44 137.907 858.023C137.139 857.603 136.373 857.228 135.609 856.898C134.853 856.572 134.114 856.291 133.393 856.054C132.672 855.818 132.001 855.627 131.38 855.48L133.868 851.856C134.471 852.076 135.134 852.343 135.856 852.656C136.578 852.969 137.314 853.317 138.062 853.702C138.816 854.079 139.561 854.484 140.299 854.915C141.042 855.339 141.736 855.772 142.38 856.214C143.647 857.084 144.741 857.992 145.664 858.938C146.593 859.877 147.29 860.83 147.757 861.797C148.232 862.769 148.454 863.74 148.423 864.71C148.4 865.685 148.069 866.637 147.431 867.567L140.562 877.571L136.488 874.774ZM141.216 867.888C139.609 866.871 138.219 866.041 137.045 865.397C135.879 864.758 134.883 864.262 134.058 863.911C133.233 863.56 132.553 863.325 132.021 863.207C131.495 863.094 131.069 863.055 130.744 863.09C130.418 863.125 130.169 863.213 129.998 863.353C129.833 863.499 129.7 863.645 129.6 863.791C129.479 863.967 129.409 864.172 129.388 864.405C129.373 864.632 129.44 864.887 129.588 865.173C129.745 865.463 129.995 865.781 130.34 866.125C130.685 866.47 131.158 866.848 131.758 867.26C132.424 867.718 133.111 868.114 133.818 868.449C134.526 868.784 135.225 869.059 135.917 869.275C136.614 869.485 137.294 869.639 137.957 869.739C138.633 869.837 139.265 869.883 139.851 869.876L141.216 867.888Z" fill="white"/>
<path d="M159.937 880.842L148.19 889.031L145.364 884.977L157.111 876.788L152.67 870.418L155.938 868.14L167.653 884.947L164.385 887.224L159.937 880.842Z" fill="white"/>
<path d="M158.652 916.48C157.806 915.145 157.097 913.776 156.526 912.372C155.948 910.978 155.47 909.524 155.09 908.007C154.605 906.069 154.379 904.29 154.413 902.671C154.458 901.057 154.748 899.635 155.281 898.403C155.815 897.171 156.587 896.14 157.597 895.31C158.607 894.481 159.835 893.885 161.283 893.523C162.627 893.186 163.939 893.146 165.221 893.402C166.513 893.665 167.706 894.19 168.801 894.978C169.906 895.772 170.873 896.821 171.703 898.124C172.541 899.424 173.179 900.949 173.616 902.698C174.02 904.309 174.169 905.837 174.064 907.282C173.969 908.734 173.615 910.044 173.002 911.214C172.39 912.392 171.526 913.4 170.408 914.239C169.293 915.085 167.921 915.712 166.293 916.12L165.104 916.417L160.725 898.921C160.204 899.217 159.755 899.599 159.378 900.069C159.004 900.547 158.729 901.133 158.555 901.826C158.381 902.52 158.314 903.333 158.355 904.265C158.399 905.207 158.576 906.297 158.886 907.538C159.106 908.417 159.373 909.265 159.688 910.083C160.011 910.9 160.351 911.652 160.706 912.341C161.07 913.028 161.433 913.638 161.795 914.17C162.159 914.71 162.494 915.134 162.8 915.442L158.652 916.48ZM167.425 910.77C167.854 910.617 168.273 910.37 168.682 910.029C169.102 909.696 169.442 909.244 169.703 908.676C169.963 908.107 170.118 907.409 170.167 906.582C170.225 905.753 170.111 904.765 169.824 903.62C169.554 902.543 169.188 901.646 168.725 900.929C168.262 900.212 167.765 899.636 167.235 899.201C166.707 898.774 166.178 898.472 165.649 898.293C165.119 898.115 164.649 898.031 164.24 898.042L167.425 910.77Z" fill="white"/>
<path d="M173.186 759.054C172.751 760.794 172.196 762.371 171.521 763.786C170.853 765.212 170.13 766.491 169.352 767.624L165.011 766.537C165.409 766.115 165.815 765.626 166.229 765.071C166.64 764.524 167.036 763.913 167.415 763.239C167.794 762.565 168.148 761.83 168.475 761.033C168.803 760.236 169.081 759.381 169.309 758.468C169.594 757.331 169.76 756.32 169.808 755.435C169.855 754.549 169.817 753.771 169.692 753.099C169.567 752.427 169.368 751.851 169.095 751.37C168.83 750.892 168.519 750.489 168.161 750.162C167.804 749.834 167.421 749.574 167.012 749.38C166.602 749.186 166.195 749.038 165.791 748.937C165.437 748.848 165.045 748.787 164.615 748.752C164.182 748.726 163.734 748.761 163.271 748.855C162.805 748.959 162.338 749.144 161.868 749.411C161.399 749.677 160.945 750.063 160.508 750.567C160.068 751.079 159.656 751.722 159.27 752.495C158.893 753.27 158.563 754.222 158.281 755.351C158.139 755.919 158.032 756.419 157.961 756.85C157.889 757.28 157.841 757.676 157.815 758.035C157.787 758.404 157.778 758.749 157.789 759.072C157.797 759.404 157.808 759.745 157.821 760.096L159.966 760.633L161.311 755.258L165.201 756.231L162.655 766.401L153.584 764.13C153.529 763.439 153.509 762.674 153.527 761.837C153.551 761.01 153.608 760.159 153.699 759.285C153.779 758.417 153.89 757.552 154.032 756.69C154.175 755.829 154.34 755.023 154.527 754.274C154.818 753.111 155.175 752.015 155.597 750.985C156.02 749.956 156.507 749.016 157.058 748.165C157.616 747.326 158.241 746.585 158.933 745.943C159.622 745.31 160.379 744.809 161.204 744.438C162.027 744.077 162.92 743.856 163.883 743.777C164.852 743.708 165.892 743.813 167.003 744.091C168.106 744.367 169.066 744.772 169.885 745.306C170.703 745.841 171.388 746.47 171.939 747.194C172.488 747.926 172.915 748.743 173.221 749.643C173.524 750.552 173.719 751.511 173.805 752.522C173.897 753.542 173.888 754.602 173.778 755.7C173.666 756.808 173.469 757.925 173.186 759.054Z" fill="black"/>
<path d="M139.262 782.857C139.769 781.359 140.389 779.947 141.123 778.621C141.844 777.296 142.675 776.01 143.617 774.762C144.82 773.167 146.063 771.874 147.344 770.883C148.627 769.905 149.916 769.236 151.21 768.878C152.504 768.519 153.791 768.472 155.071 768.737C156.35 769.002 157.586 769.583 158.777 770.482C159.883 771.316 160.739 772.312 161.344 773.47C161.952 774.641 162.293 775.899 162.367 777.245C162.443 778.604 162.235 780.016 161.742 781.479C161.257 782.949 160.471 784.403 159.386 785.842C158.386 787.167 157.29 788.243 156.1 789.069C154.911 789.908 153.669 790.456 152.373 790.713C151.072 790.978 149.745 790.938 148.391 790.595C147.031 790.259 145.682 789.586 144.342 788.575L143.364 787.837L154.226 773.439C153.669 773.219 153.089 773.11 152.487 773.112C151.88 773.121 151.252 773.275 150.603 773.575C149.953 773.875 149.279 774.334 148.579 774.952C147.874 775.577 147.137 776.4 146.366 777.421C145.821 778.144 145.329 778.885 144.889 779.644C144.457 780.408 144.085 781.145 143.772 781.854C143.467 782.569 143.22 783.235 143.034 783.85C142.842 784.473 142.723 785 142.675 785.432L139.262 782.857ZM149.216 786.095C149.604 786.333 150.06 786.503 150.581 786.608C151.105 786.725 151.67 786.706 152.276 786.552C152.882 786.397 153.522 786.079 154.197 785.598C154.878 785.122 155.575 784.413 156.286 783.47C156.955 782.584 157.422 781.735 157.689 780.924C157.956 780.114 158.093 779.365 158.098 778.68C158.098 778.001 158.001 777.4 157.807 776.875C157.614 776.351 157.384 775.933 157.118 775.621L149.216 786.095Z" fill="black"/>
<path d="M120.306 793.046L125.349 801.978C125.685 802.573 126.038 803.082 126.41 803.505C126.785 803.936 127.208 804.242 127.679 804.425C128.146 804.621 128.679 804.671 129.279 804.578C129.875 804.496 130.56 804.237 131.333 803.8C131.921 803.468 132.494 803.038 133.052 802.509C133.606 801.992 134.126 801.423 134.612 800.802C135.098 800.181 135.532 799.533 135.916 798.858C136.292 798.186 136.597 797.535 136.831 796.903L131.187 786.904L135.49 784.475L144.488 800.412L140.184 802.842L138.953 800.661C138.586 801.276 138.183 801.907 137.742 802.553C137.306 803.207 136.813 803.852 136.265 804.488C135.716 805.124 135.099 805.738 134.413 806.329C133.727 806.92 132.955 807.458 132.096 807.943C131.022 808.55 129.988 808.96 128.997 809.172C128.002 809.397 127.076 809.436 126.217 809.288C125.363 809.149 124.59 808.826 123.896 808.32C123.199 807.826 122.615 807.161 122.144 806.326L116.015 795.469L120.306 793.046Z" fill="black"/>
<path d="M92.7342 798.638C94.1756 797.989 95.6317 797.481 97.1024 797.114C98.5634 796.739 100.071 796.471 101.626 796.309C103.613 796.103 105.406 796.131 107.005 796.394C108.595 796.666 109.963 797.154 111.107 797.856C112.251 798.559 113.163 799.469 113.841 800.586C114.519 801.703 114.936 803.003 115.09 804.487C115.233 805.865 115.087 807.17 114.652 808.403C114.21 809.645 113.521 810.752 112.586 811.724C111.644 812.706 110.469 813.515 109.062 814.152C107.656 814.798 106.056 815.214 104.263 815.4C102.612 815.572 101.078 815.503 99.6619 815.195C98.2381 814.896 96.9907 814.361 95.9195 813.588C94.8395 812.816 93.9636 811.818 93.2919 810.593C92.6113 809.369 92.1844 807.922 92.0112 806.253L91.8847 805.034L109.824 803.172C109.605 802.615 109.29 802.116 108.879 801.677C108.458 801.238 107.917 800.884 107.255 800.613C106.593 800.343 105.798 800.162 104.869 800.071C103.931 799.981 102.826 800.001 101.554 800.133C100.653 800.227 99.7752 800.372 98.9206 800.567C98.0669 800.772 97.2738 801.002 96.5413 801.256C95.8098 801.52 95.1552 801.793 94.5775 802.076C93.9909 802.36 93.5236 802.632 93.1756 802.891L92.7342 798.638ZM97.1476 808.13C97.2385 808.576 97.4236 809.026 97.7027 809.479C97.974 809.942 98.3726 810.342 98.8988 810.681C99.4249 811.019 100.094 811.271 100.906 811.437C101.718 811.611 102.712 811.637 103.887 811.516C104.991 811.401 105.931 811.165 106.706 810.808C107.481 810.451 108.122 810.04 108.627 809.577C109.124 809.115 109.498 808.634 109.75 808.135C110.002 807.636 110.151 807.183 110.198 806.776L97.1476 808.13Z" fill="black"/>
<path d="M69.0379 806.031C69.1559 806.107 69.3308 806.211 69.5627 806.344C69.7837 806.483 70.0489 806.629 70.3582 806.781C70.6652 806.942 71.01 807.1 71.3925 807.252C71.7664 807.403 72.1598 807.531 72.5728 807.637C73.433 807.858 74.2649 807.956 75.0684 807.933C75.8611 807.916 76.6252 807.813 77.3607 807.626C78.0941 807.447 78.7976 807.205 79.4713 806.901C80.1342 806.604 80.7574 806.282 81.3409 805.936L84.0737 795.265L88.8611 796.491L84.3207 814.221L79.5334 812.995L80.2703 810.117C79.5838 810.4 78.8887 810.662 78.1852 810.903C77.4709 811.151 76.7472 811.346 76.0141 811.489C75.2724 811.629 74.5128 811.695 73.7353 811.689C72.9556 811.691 72.1571 811.587 71.3399 811.378C71.0302 811.298 70.7206 811.201 70.4111 811.085C70.0908 810.975 69.7856 810.861 69.4956 810.74C69.1969 810.618 68.9208 810.497 68.6673 810.377C68.4139 810.257 68.1948 810.146 68.0102 810.044L69.0379 806.031Z" fill="black"/>
<path d="M58.5801 782.592L57.5622 784.075C58.278 784.146 59.0115 784.278 59.7626 784.47C60.5064 784.658 61.2531 784.896 62.0029 785.185C62.7527 785.473 63.4968 785.817 64.2352 786.216C64.9713 786.603 65.6871 787.035 66.3826 787.513C67.1952 788.071 67.9294 788.688 68.5852 789.365C69.2337 790.036 69.7326 790.745 70.0821 791.491C70.4315 792.237 70.5946 793.012 70.5713 793.814C70.5407 794.612 70.2489 795.413 69.696 796.219C68.9973 797.236 68.1386 797.891 67.1198 798.182C66.096 798.481 64.8647 798.454 63.4261 798.102C61.9876 797.75 60.3167 797.093 58.4135 796.131C56.503 795.164 54.3092 793.927 51.8322 792.42L51.6135 792.739C51.4426 792.988 51.3401 793.278 51.306 793.61C51.2669 793.949 51.3602 794.331 51.5859 794.756C51.7993 795.182 52.1696 795.663 52.6968 796.197C53.2167 796.726 53.9452 797.313 54.8822 797.956C55.6216 798.464 56.3813 798.926 57.1614 799.343C57.9291 799.762 58.6949 800.137 59.4589 800.468C60.2156 800.794 60.9544 801.075 61.6753 801.311C62.3963 801.548 63.0673 801.739 63.6885 801.886L61.2004 805.509C60.5975 805.289 59.9349 805.023 59.2125 804.71C58.4901 804.397 57.7547 804.048 57.0063 803.664C56.2528 803.286 55.507 802.882 54.7691 802.451C54.0261 802.027 53.3324 801.594 52.6882 801.151C51.4217 800.282 50.3269 799.374 49.4039 798.428C48.4758 797.489 47.7782 796.536 47.3111 795.569C46.8367 794.597 46.6147 793.626 46.6452 792.656C46.6684 791.681 46.9992 790.728 47.6375 789.799L54.5061 779.795L58.5801 782.592ZM53.8528 789.477C55.4596 790.494 56.8498 791.325 58.0233 791.969C59.1895 792.608 60.1852 793.103 61.0105 793.455C61.8358 793.806 62.5149 794.04 63.0478 794.159C63.5733 794.272 63.9989 794.311 64.3246 794.276C64.6502 794.241 64.8989 794.153 65.0708 794.013C65.2353 793.867 65.3679 793.721 65.4684 793.575C65.5891 793.399 65.6596 793.194 65.68 792.96C65.6954 792.734 65.6287 792.478 65.4799 792.193C65.3238 791.903 65.0732 791.585 64.7281 791.24C64.3831 790.896 63.9104 790.517 63.3101 790.105C62.6439 789.648 61.9572 789.252 61.2499 788.917C60.5426 788.582 59.8431 788.307 59.1515 788.09C58.4548 787.881 57.7746 787.727 57.111 787.626C56.4349 787.528 55.8037 787.483 55.2174 787.49L53.8528 789.477Z" fill="black"/>
<path d="M35.1305 776.523L46.8776 768.335L49.7035 772.389L37.9564 780.577L42.3972 786.948L39.1299 789.226L27.4148 772.419L30.6821 770.142L35.1305 776.523Z" fill="black"/>
<path d="M36.4159 740.885C37.2627 742.22 37.9716 743.59 38.5427 744.994C39.1203 746.387 39.5988 747.842 39.9783 749.358C40.4634 751.297 40.6889 753.076 40.6549 754.695C40.6101 756.308 40.3207 757.731 39.7869 758.963C39.2531 760.195 38.4813 761.226 37.4714 762.055C36.4615 762.885 35.2329 763.481 33.7857 763.843C32.4418 764.179 31.1291 764.219 29.8475 763.964C28.5552 763.701 27.3619 763.176 26.2675 762.388C25.1625 761.593 24.1951 760.545 23.3656 759.242C22.5274 757.941 21.8895 756.417 21.4519 754.668C21.0487 753.057 20.8997 751.529 21.0048 750.084C21.0992 748.632 21.4532 747.321 22.0667 746.152C22.6781 744.973 23.5425 743.965 24.6601 743.127C25.7756 742.28 27.1473 741.653 28.7755 741.246L29.9643 740.948L34.3431 758.444C34.8643 758.149 35.3132 757.767 35.69 757.297C36.0647 756.819 36.3391 756.233 36.5134 755.539C36.6877 754.846 36.7542 754.033 36.7131 753.1C36.6697 752.159 36.4928 751.068 36.1824 749.828C35.9625 748.949 35.6952 748.101 35.3805 747.282C35.0572 746.466 34.7178 745.713 34.3623 745.024C33.9981 744.337 33.635 743.728 33.2731 743.196C32.9089 742.656 32.5739 742.231 32.268 741.923L36.4159 740.885ZM27.6429 746.596C27.2144 746.749 26.7955 746.996 26.3864 747.336C25.9665 747.67 25.6263 748.122 25.3659 748.69C25.1054 749.259 24.9505 749.957 24.9012 750.784C24.8433 751.613 24.9577 752.6 25.2444 753.746C25.5139 754.823 25.8803 755.72 26.3435 756.437C26.8068 757.154 27.3034 757.73 27.8333 758.165C28.3611 758.591 28.8899 758.894 29.4198 759.072C29.9497 759.251 30.4192 759.335 30.8284 759.324L27.6429 746.596Z" fill="black"/>
<path d="M0 926H195V974H0V926Z" fill="white"/>
</g>
<mask id="mask6_356_5078" style="mask-type:alpha" maskUnits="userSpaceOnUse" x="195" y="243" width="195" height="244">
<path d="M390 487L195 487L195 243L390 243L390 487Z" fill="#2B8BFC"/>
</mask>
<g mask="url(#mask6_356_5078)">
<path d="M390 487L195 487L195 243L390 243L390 487Z" fill="#2B8BFC"/>
<path d="M390 487L195 487L195 292L390 487Z" fill="black"/>
<path d="M195 429.5C195 397.744 220.52 372 252 372C283.48 372 309 397.744 309 429.5C309 461.256 283.48 487 252 487C220.52 487 195 461.256 195 429.5Z" fill="white"/>
<path d="M370.225 361.767C370.035 361.704 369.756 361.621 369.388 361.52C369.033 361.406 368.615 361.298 368.133 361.196C367.651 361.082 367.118 360.987 366.535 360.911C365.964 360.835 365.375 360.797 364.766 360.797C363.498 360.797 362.312 360.955 361.209 361.272C360.118 361.577 359.097 361.989 358.146 362.509C357.195 363.016 356.308 363.599 355.483 364.259C354.672 364.906 353.924 365.571 353.239 366.256V381.987H346.182V355.851H353.239V360.093C354.088 359.459 354.957 358.85 355.845 358.267C356.745 357.671 357.677 357.145 358.641 356.688C359.617 356.232 360.644 355.87 361.722 355.604C362.8 355.325 363.942 355.186 365.146 355.186C365.603 355.186 366.066 355.211 366.535 355.262C367.017 355.3 367.48 355.35 367.923 355.414C368.38 355.477 368.805 355.547 369.198 355.623C369.591 355.699 369.933 355.775 370.225 355.851V361.767Z" fill="white"/>
<path d="M313.103 355.851V370.574C313.103 371.55 313.185 372.438 313.35 373.237C313.515 374.023 313.82 374.702 314.263 375.272C314.707 375.83 315.329 376.268 316.127 376.585C316.926 376.889 317.966 377.041 319.247 377.041C320.211 377.041 321.219 376.908 322.271 376.642C323.337 376.376 324.389 376.021 325.429 375.577C326.469 375.133 327.458 374.626 328.396 374.055C329.347 373.472 330.197 372.869 330.945 372.248V355.851H337.983V381.987H330.945V378.411C330.058 378.918 329.113 379.432 328.111 379.952C327.109 380.459 326.044 380.922 324.915 381.34C323.787 381.746 322.588 382.076 321.32 382.329C320.052 382.596 318.714 382.729 317.307 382.729C315.544 382.729 313.965 382.513 312.57 382.082C311.176 381.664 309.996 381.068 309.032 380.294C308.069 379.508 307.327 378.563 306.807 377.46C306.3 376.344 306.046 375.101 306.046 373.732V355.851H313.103Z" fill="white"/>
<path d="M368.285 328.359C368.285 330.603 367.873 332.588 367.049 334.313C366.224 336.024 365.045 337.457 363.511 338.611C361.976 339.765 360.112 340.64 357.918 341.236C355.737 341.82 353.283 342.111 350.557 342.111C347.831 342.111 345.364 341.82 343.158 341.236C340.964 340.64 339.093 339.765 337.546 338.611C335.999 337.457 334.807 336.024 333.97 334.313C333.133 332.588 332.715 330.603 332.715 328.359C332.715 326.114 333.133 324.136 333.97 322.424C334.807 320.699 335.999 319.26 337.546 318.106C339.093 316.952 340.964 316.084 343.158 315.5C345.364 314.904 347.831 314.606 350.557 314.606C353.283 314.606 355.737 314.904 357.918 315.5C360.112 316.084 361.976 316.952 363.511 318.106C365.045 319.26 366.224 320.699 367.049 322.424C367.873 324.136 368.285 326.114 368.285 328.359ZM361.152 328.359C361.152 327.382 360.993 326.412 360.676 325.448C360.372 324.472 359.82 323.597 359.022 322.824C358.235 322.05 357.157 321.422 355.788 320.94C354.418 320.459 352.675 320.218 350.557 320.218C349.137 320.218 347.888 320.332 346.81 320.56C345.732 320.776 344.8 321.08 344.014 321.473C343.227 321.866 342.568 322.329 342.035 322.862C341.503 323.381 341.078 323.946 340.761 324.554C340.444 325.15 340.216 325.778 340.076 326.438C339.949 327.084 339.886 327.725 339.886 328.359C339.886 329.006 339.949 329.659 340.076 330.318C340.216 330.977 340.444 331.611 340.761 332.22C341.078 332.816 341.503 333.374 342.035 333.894C342.568 334.414 343.227 334.871 344.014 335.264C344.8 335.644 345.732 335.948 346.81 336.177C347.888 336.392 349.137 336.5 350.557 336.5C352.675 336.5 354.418 336.259 355.788 335.777C357.157 335.295 358.235 334.668 359.022 333.894C359.82 333.121 360.372 332.252 360.676 331.288C360.993 330.312 361.152 329.335 361.152 328.359Z" fill="white"/>
<path d="M326.285 331.364C326.285 333.063 325.867 334.579 325.03 335.91C324.193 337.242 323.001 338.371 321.454 339.296C319.919 340.209 318.055 340.907 315.861 341.389C313.68 341.87 311.233 342.111 308.519 342.111C307.327 342.111 306.072 342.061 304.753 341.959C303.447 341.87 302.166 341.737 300.91 341.56C299.668 341.395 298.501 341.205 297.41 340.989C296.32 340.761 295.401 340.514 294.652 340.247V334.046C295.464 334.389 296.364 334.712 297.353 335.016C298.355 335.321 299.439 335.593 300.606 335.834C301.773 336.063 303.022 336.246 304.353 336.386C305.698 336.513 307.118 336.576 308.614 336.576C310.022 336.576 311.258 336.494 312.323 336.329C313.401 336.164 314.333 335.942 315.12 335.663C315.906 335.384 316.559 335.067 317.079 334.712C317.599 334.344 318.017 333.97 318.334 333.59C318.651 333.197 318.873 332.81 319 332.429C319.139 332.049 319.209 331.694 319.209 331.364V329.063C317.916 330.014 316.375 330.8 314.587 331.421C312.799 332.03 310.764 332.334 308.481 332.334C305.831 332.334 303.618 332.081 301.842 331.573C300.08 331.054 298.666 330.312 297.601 329.348C296.535 328.371 295.775 327.186 295.318 325.791C294.874 324.396 294.652 322.824 294.652 321.074V315.272H301.747V320.37C301.747 321.397 301.881 322.31 302.147 323.109C302.426 323.908 302.857 324.58 303.44 325.125C304.036 325.658 304.804 326.064 305.742 326.343C306.68 326.622 307.815 326.761 309.147 326.761C310.275 326.761 311.341 326.622 312.342 326.343C313.357 326.064 314.289 325.696 315.139 325.239C315.988 324.783 316.755 324.263 317.44 323.68C318.125 323.096 318.715 322.5 319.209 321.891V315.272H326.285V331.364Z" fill="white"/>
<path d="M228 430C228 416.745 238.521 406 251.5 406C264.479 406 275 416.745 275 430C275 443.255 264.479 454 251.5 454C238.521 454 228 443.255 228 430Z" fill="black"/>
<path d="M195 243H390V292H195V243Z" fill="white"/>
</g>
<mask id="mask7_356_5078" style="mask-type:alpha" maskUnits="userSpaceOnUse" x="195" y="0" width="195" height="244">
<path d="M195 0H390V243.75H195V0Z" fill="white"/>
</mask>
<g mask="url(#mask7_356_5078)">
<path d="M195 0H390V243.75H195V0Z" fill="white"/>
<path d="M390 146.25C390 200.098 346.348 243.75 292.5 243.75C238.652 243.75 195 200.098 195 146.25C195 92.4022 238.652 48.75 292.5 48.75C346.348 48.75 390 92.4022 390 146.25Z" fill="black"/>
<path d="M340.194 201.233V183.047H310.233V201.233H298.458V157.625H310.233V173.494H340.194V157.625H351.969V201.233H340.194Z" fill="white"/>
<path d="M331.07 103.798V138.125H319.441V103.798H301.167V94.25L349.375 94.25V103.798H331.07Z" fill="#2B8BFC"/>
<path d="M237.792 138.125V94.2501L284.447 94.2501V103.606H250.571V110.855H282.703V120.211H250.571V128.769H284.917V138.125H237.792Z" fill="white"/>
<path d="M260.343 193.917V208L277.585 183.65L260.343 193.917Z" fill="#2B8BFC"/>
<path d="M260.343 151.667L277.585 180.36L260.343 190.626L242.969 180.36" fill="#2B8BFC"/>
<path d="M260.343 151.667V172.463L242.969 180.36M242.969 183.65L260.343 193.917V208" fill="white"/>
<path d="M260.343 172.463V190.626L277.585 180.36" fill="#2B8BFC"/>
<path d="M242.969 180.36L260.343 172.463V190.626" fill="#2B8BFC"/>
</g>
</svg>
