<svg width="1440" height="900" viewBox="0 0 1440 900" fill="none" xmlns="http://www.w3.org/2000/svg">
<mask id="mask0_350_536" style="mask-type:alpha" maskUnits="userSpaceOnUse" x="360" y="450" width="360" height="450">
<path d="M360 450H720V900H360V450Z" fill="#2B8BFC"/>
</mask>
<g mask="url(#mask0_350_536)">
<path d="M360 450H720V900H360V450Z" fill="#2B8BFC"/>
<path d="M414 513H666V554H414V513Z" fill="black"/>
<path d="M414 608H666V649H414V608Z" fill="black"/>
<path d="M414 702H523V743H414V702Z" fill="black"/>
<path d="M523 702H666V743H523V702Z" fill="white"/>
<path d="M505.948 721.927C505.948 724.52 505.472 726.812 504.52 728.804C503.567 730.782 502.205 732.437 500.433 733.77C498.66 735.103 496.507 736.114 493.973 736.802C491.453 737.476 488.619 737.813 485.469 737.813C482.32 737.813 479.471 737.476 476.922 736.802C474.388 736.114 472.227 735.103 470.44 733.77C468.653 732.437 467.276 730.782 466.309 728.804C465.342 726.812 464.859 724.52 464.859 721.927C464.859 719.334 465.342 717.049 466.309 715.071C467.276 713.079 468.653 711.417 470.44 710.083C472.227 708.75 474.388 707.747 476.922 707.073C479.471 706.385 482.32 706.041 485.469 706.041C488.619 706.041 491.453 706.385 493.973 707.073C496.507 707.747 498.66 708.75 500.433 710.083C502.205 711.417 503.567 713.079 504.52 715.071C505.472 717.049 505.948 719.334 505.948 721.927ZM497.708 721.927C497.708 720.799 497.525 719.678 497.159 718.565C496.807 717.437 496.17 716.426 495.247 715.533C494.339 714.639 493.094 713.914 491.512 713.357C489.93 712.801 487.916 712.522 485.469 712.522C483.829 712.522 482.386 712.654 481.141 712.918C479.896 713.167 478.819 713.519 477.911 713.973C477.002 714.427 476.241 714.961 475.625 715.577C475.01 716.177 474.52 716.829 474.153 717.532C473.787 718.221 473.523 718.946 473.362 719.708C473.216 720.455 473.143 721.194 473.143 721.927C473.143 722.674 473.216 723.428 473.362 724.19C473.523 724.952 473.787 725.684 474.153 726.387C474.52 727.076 475.01 727.72 475.625 728.321C476.241 728.921 477.002 729.449 477.911 729.903C478.819 730.342 479.896 730.694 481.141 730.958C482.386 731.207 483.829 731.331 485.469 731.331C487.916 731.331 489.93 731.053 491.512 730.496C493.094 729.939 494.339 729.214 495.247 728.321C496.17 727.427 496.807 726.424 497.159 725.311C497.525 724.183 497.708 723.055 497.708 721.927Z" fill="white"/>
<path d="M448.643 713.379V737H440.491V713.379H427.681V706.81H461.475V713.379H448.643Z" fill="white"/>
<path d="M596.541 627.883C596.541 629.816 596.329 631.538 595.904 633.046C595.479 634.541 594.878 635.844 594.102 636.958C593.34 638.071 592.417 639.016 591.333 639.792C590.264 640.568 589.07 641.191 587.752 641.66C586.434 642.128 585.013 642.473 583.489 642.692C581.966 642.897 580.376 643 578.721 643H559.561V612.81H578.677C580.333 612.81 581.922 612.919 583.445 613.139C584.969 613.344 586.39 613.681 587.708 614.15C589.041 614.619 590.25 615.241 591.333 616.018C592.417 616.779 593.34 617.724 594.102 618.852C594.878 619.965 595.479 621.269 595.904 622.763C596.329 624.257 596.541 625.964 596.541 627.883ZM588.323 627.883C588.323 626.433 588.133 625.173 587.752 624.104C587.386 623.034 586.785 622.155 585.95 621.467C585.13 620.764 584.053 620.244 582.72 619.907C581.387 619.555 579.761 619.379 577.842 619.379H567.713V636.43H577.842C579.761 636.43 581.387 636.262 582.72 635.925C584.053 635.573 585.13 635.046 585.95 634.343C586.785 633.625 587.386 632.731 587.752 631.662C588.133 630.593 588.323 629.333 588.323 627.883Z" fill="white"/>
<path d="M549.673 641.506C547.198 642.326 544.722 642.912 542.247 643.264C539.786 643.63 537.266 643.813 534.688 643.813C531.392 643.813 528.455 643.461 525.877 642.758C523.313 642.041 521.153 641.008 519.395 639.66C517.637 638.312 516.297 636.665 515.374 634.716C514.451 632.768 513.99 630.563 513.99 628.103C513.99 625.817 514.451 623.701 515.374 621.752C516.312 619.79 517.63 618.09 519.329 616.655C521.043 615.205 523.108 614.077 525.525 613.271C527.942 612.451 530.638 612.041 533.611 612.041C536.351 612.041 538.855 612.414 541.126 613.161C543.411 613.894 545.367 614.985 546.993 616.435C548.633 617.885 549.9 619.672 550.794 621.796C551.702 623.92 552.156 626.367 552.156 629.135V631.157H522.405C522.669 632.109 523.101 632.98 523.702 633.771C524.317 634.562 525.145 635.236 526.185 635.793C527.225 636.35 528.499 636.782 530.008 637.089C531.531 637.397 533.348 637.551 535.457 637.551C536.951 637.551 538.416 637.463 539.852 637.287C541.287 637.097 542.627 636.855 543.873 636.562C545.118 636.254 546.238 635.917 547.234 635.551C548.245 635.185 549.058 634.819 549.673 634.453V641.506ZM544.048 625.18C543.975 624.433 543.748 623.664 543.367 622.873C543.001 622.067 542.415 621.342 541.609 620.698C540.804 620.053 539.749 619.526 538.445 619.116C537.142 618.691 535.516 618.479 533.567 618.479C531.736 618.479 530.154 618.706 528.821 619.16C527.488 619.614 526.368 620.178 525.459 620.852C524.566 621.525 523.87 622.25 523.372 623.027C522.874 623.803 522.552 624.521 522.405 625.18H544.048Z" fill="white"/>
<path d="M505.772 621.313C505.201 621.035 504.446 620.72 503.509 620.368C502.571 620.017 501.509 619.687 500.323 619.379C499.136 619.057 497.847 618.793 496.456 618.588C495.064 618.369 493.636 618.259 492.171 618.259C490.999 618.259 489.996 618.295 489.161 618.369C488.34 618.442 487.645 618.537 487.073 618.654C486.517 618.771 486.07 618.911 485.733 619.072C485.411 619.218 485.162 619.372 484.986 619.533C484.81 619.694 484.693 619.855 484.634 620.017C484.59 620.178 484.568 620.324 484.568 620.456C484.568 620.896 484.788 621.284 485.228 621.621C485.667 621.943 486.268 622.236 487.029 622.5C487.791 622.749 488.677 622.99 489.688 623.225C490.699 623.444 491.768 623.679 492.896 623.928C494.039 624.162 495.21 624.426 496.412 624.719C497.627 624.997 498.799 625.327 499.927 625.708C501.07 626.088 502.146 626.535 503.157 627.048C504.168 627.546 505.054 628.132 505.816 628.806C506.578 629.479 507.178 630.256 507.618 631.135C508.057 632.014 508.277 633.017 508.277 634.145C508.277 635.595 508.021 636.84 507.508 637.88C506.995 638.92 506.307 639.799 505.442 640.517C504.593 641.235 503.604 641.813 502.476 642.253C501.348 642.678 500.162 643.007 498.917 643.242C497.686 643.476 496.434 643.63 495.159 643.703C493.899 643.776 492.698 643.813 491.556 643.813C488.567 643.813 485.799 643.564 483.25 643.066C480.716 642.583 478.475 641.975 476.526 641.242V634.035C478.533 635.148 480.818 636.02 483.382 636.65C485.96 637.28 488.714 637.595 491.644 637.595C493.372 637.595 494.778 637.507 495.862 637.331C496.961 637.141 497.818 636.906 498.433 636.628C499.048 636.335 499.466 636.02 499.686 635.683C499.905 635.346 500.015 635.024 500.015 634.716C500.015 634.233 499.795 633.815 499.356 633.464C498.917 633.098 498.316 632.783 497.554 632.519C496.792 632.241 495.906 631.992 494.896 631.772C493.885 631.538 492.808 631.311 491.666 631.091C490.538 630.856 489.373 630.607 488.172 630.344C486.971 630.08 485.799 629.772 484.656 629.421C483.528 629.055 482.459 628.637 481.448 628.168C480.438 627.685 479.551 627.121 478.79 626.477C478.028 625.817 477.427 625.063 476.988 624.213C476.548 623.349 476.329 622.353 476.329 621.225C476.329 619.892 476.563 618.742 477.032 617.775C477.5 616.809 478.13 615.988 478.921 615.314C479.727 614.626 480.65 614.069 481.69 613.645C482.745 613.22 483.851 612.89 485.008 612.656C486.165 612.421 487.337 612.26 488.523 612.172C489.71 612.084 490.838 612.041 491.907 612.041C493.079 612.041 494.28 612.099 495.511 612.216C496.756 612.333 497.979 612.502 499.18 612.722C500.381 612.927 501.539 613.168 502.652 613.447C503.78 613.725 504.82 614.018 505.772 614.326V621.313Z" fill="white"/>
<path d="M439.744 612.81V629.816C439.744 630.944 439.839 631.97 440.03 632.893C440.22 633.801 440.572 634.584 441.084 635.244C441.597 635.888 442.315 636.394 443.238 636.76C444.161 637.111 445.362 637.287 446.841 637.287C447.955 637.287 449.119 637.133 450.335 636.826C451.565 636.518 452.781 636.108 453.982 635.595C455.184 635.083 456.326 634.497 457.41 633.837C458.509 633.164 459.49 632.468 460.354 631.75V612.81H468.484V643H460.354V638.869C459.329 639.455 458.238 640.048 457.081 640.649C455.923 641.235 454.693 641.77 453.389 642.253C452.085 642.722 450.701 643.103 449.236 643.396C447.771 643.703 446.226 643.857 444.6 643.857C442.564 643.857 440.74 643.608 439.129 643.11C437.518 642.626 436.155 641.938 435.042 641.044C433.929 640.136 433.072 639.045 432.471 637.771C431.885 636.481 431.592 635.046 431.592 633.464V612.81H439.744Z" fill="white"/>
<path d="M589.466 549V532.081C589.466 530.953 589.371 529.935 589.18 529.027C588.99 528.104 588.631 527.32 588.104 526.676C587.591 526.017 586.866 525.511 585.928 525.16C585.005 524.793 583.812 524.61 582.347 524.61C581.233 524.61 580.062 524.764 578.831 525.072C577.615 525.365 576.407 525.76 575.206 526.258C574.004 526.756 572.854 527.335 571.756 527.994C570.672 528.653 569.705 529.342 568.855 530.06V549H560.704V518.81H568.855V522.94C569.881 522.354 570.972 521.776 572.129 521.205C573.287 520.619 574.517 520.091 575.821 519.623C577.125 519.154 578.509 518.773 579.974 518.48C581.438 518.187 582.984 518.041 584.61 518.041C586.646 518.041 588.462 518.29 590.059 518.788C591.67 519.271 593.033 519.967 594.146 520.875C595.259 521.769 596.109 522.86 596.695 524.149C597.295 525.423 597.596 526.852 597.596 528.434V549H589.466Z" fill="white"/>
<path d="M550.816 547.506C548.34 548.326 545.865 548.912 543.389 549.264C540.928 549.63 538.409 549.813 535.831 549.813C532.535 549.813 529.598 549.461 527.02 548.758C524.456 548.041 522.295 547.008 520.538 545.66C518.78 544.312 517.439 542.665 516.517 540.716C515.594 538.768 515.132 536.563 515.132 534.103C515.132 531.817 515.594 529.701 516.517 527.752C517.454 525.79 518.772 524.09 520.472 522.655C522.186 521.205 524.251 520.077 526.668 519.271C529.085 518.451 531.78 518.041 534.754 518.041C537.493 518.041 539.998 518.414 542.269 519.161C544.554 519.894 546.509 520.985 548.135 522.435C549.776 523.885 551.043 525.672 551.937 527.796C552.845 529.92 553.299 532.367 553.299 535.135V537.157H523.548C523.812 538.109 524.244 538.98 524.844 539.771C525.459 540.562 526.287 541.236 527.327 541.793C528.367 542.35 529.642 542.782 531.15 543.089C532.674 543.397 534.49 543.551 536.6 543.551C538.094 543.551 539.559 543.463 540.994 543.287C542.43 543.097 543.77 542.855 545.015 542.562C546.26 542.254 547.381 541.917 548.377 541.551C549.388 541.185 550.201 540.819 550.816 540.453V547.506ZM545.191 531.18C545.118 530.433 544.891 529.664 544.51 528.873C544.144 528.067 543.558 527.342 542.752 526.698C541.946 526.053 540.892 525.526 539.588 525.116C538.284 524.691 536.658 524.479 534.71 524.479C532.879 524.479 531.297 524.706 529.964 525.16C528.631 525.614 527.51 526.178 526.602 526.852C525.708 527.525 525.013 528.25 524.515 529.027C524.017 529.803 523.694 530.521 523.548 531.18H545.191Z" fill="white"/>
<path d="M507.266 547.506C504.791 548.326 502.315 548.912 499.839 549.264C497.378 549.63 494.859 549.813 492.281 549.813C488.985 549.813 486.048 549.461 483.47 548.758C480.906 548.041 478.746 547.008 476.988 545.66C475.23 544.312 473.89 542.665 472.967 540.716C472.044 538.768 471.583 536.563 471.583 534.103C471.583 531.817 472.044 529.701 472.967 527.752C473.904 525.79 475.223 524.09 476.922 522.655C478.636 521.205 480.701 520.077 483.118 519.271C485.535 518.451 488.23 518.041 491.204 518.041C493.943 518.041 496.448 518.414 498.719 519.161C501.004 519.894 502.959 520.985 504.585 522.435C506.226 523.885 507.493 525.672 508.387 527.796C509.295 529.92 509.749 532.367 509.749 535.135V537.157H479.998C480.262 538.109 480.694 538.98 481.294 539.771C481.91 540.562 482.737 541.236 483.777 541.793C484.817 542.35 486.092 542.782 487.601 543.089C489.124 543.397 490.94 543.551 493.05 543.551C494.544 543.551 496.009 543.463 497.444 543.287C498.88 543.097 500.22 542.855 501.465 542.562C502.71 542.254 503.831 541.917 504.827 541.551C505.838 541.185 506.651 540.819 507.266 540.453V547.506ZM501.641 531.18C501.568 530.433 501.341 529.664 500.96 528.873C500.594 528.067 500.008 527.342 499.202 526.698C498.396 526.053 497.342 525.526 496.038 525.116C494.734 524.691 493.108 524.479 491.16 524.479C489.329 524.479 487.747 524.706 486.414 525.16C485.081 525.614 483.96 526.178 483.052 526.852C482.159 527.525 481.463 528.25 480.965 529.027C480.467 529.803 480.145 530.521 479.998 531.18H501.641Z" fill="white"/>
<path d="M466.155 540.672C466.155 541.844 466.001 542.862 465.694 543.727C465.386 544.591 464.954 545.338 464.397 545.968C463.855 546.583 463.196 547.088 462.42 547.484C461.658 547.865 460.809 548.172 459.871 548.407C458.948 548.626 457.959 548.78 456.905 548.868C455.85 548.956 454.759 549 453.631 549H431.724V518.81H453.235C454.1 518.81 454.964 518.846 455.828 518.919C456.707 518.993 457.542 519.132 458.333 519.337C459.124 519.527 459.856 519.798 460.53 520.15C461.219 520.501 461.812 520.963 462.31 521.534C462.823 522.105 463.218 522.794 463.497 523.6C463.79 524.405 463.936 525.357 463.936 526.456C463.936 528.419 463.453 529.979 462.486 531.136C461.519 532.279 459.996 533.041 457.916 533.421C459.38 533.524 460.633 533.751 461.673 534.103C462.728 534.439 463.584 534.908 464.244 535.509C464.903 536.095 465.386 536.82 465.694 537.684C466.001 538.534 466.155 539.53 466.155 540.672ZM455.982 527.752C455.982 527.372 455.923 527.013 455.806 526.676C455.689 526.324 455.477 526.017 455.169 525.753C454.861 525.489 454.444 525.277 453.917 525.116C453.389 524.955 452.715 524.874 451.895 524.874H439.876V530.543H451.895C452.715 530.543 453.389 530.47 453.917 530.323C454.444 530.177 454.861 529.979 455.169 529.73C455.477 529.481 455.689 529.188 455.806 528.851C455.923 528.5 455.982 528.133 455.982 527.752ZM457.872 539.728C457.872 539.039 457.754 538.49 457.52 538.08C457.286 537.655 456.919 537.333 456.421 537.113C455.923 536.878 455.279 536.725 454.488 536.651C453.697 536.578 452.752 536.542 451.653 536.542H439.876V542.936H451.653C452.752 542.936 453.697 542.899 454.488 542.826C455.279 542.752 455.923 542.599 456.421 542.364C456.919 542.13 457.286 541.808 457.52 541.397C457.754 540.973 457.872 540.416 457.872 539.728Z" fill="white"/>
</g>
<mask id="mask1_350_536" style="mask-type:alpha" maskUnits="userSpaceOnUse" x="360" y="0" width="360" height="450">
<path d="M360 0H720V450H360V0Z" fill="white"/>
</mask>
<g mask="url(#mask1_350_536)">
<path d="M360 0H720V450H360V0Z" fill="white"/>
<path d="M720 270C720 369.411 639.411 450 540 450C440.589 450 360 369.411 360 270C360 170.589 440.589 90 540 90C639.411 90 720 170.589 720 270Z" fill="black"/>
<path d="M628.051 371.508V337.934H572.738V371.508H551V291H572.738V320.297H628.051V291H649.789V371.508H628.051Z" fill="white"/>
<path d="M611.205 191.627V255H589.737V191.627H556V174L645 174V191.627H611.205Z" fill="#2B8BFC"/>
<path d="M439 255V174H525.133V191.273H462.592V204.655H521.913V221.928H462.592V237.727H526V255H439Z" fill="white"/>
<path d="M480.633 358V384L512.465 339.047L480.633 358Z" fill="#2B8BFC"/>
<path d="M480.633 280L512.465 332.972L480.633 351.925L448.559 332.972" fill="#2B8BFC"/>
<path d="M480.633 280V318.393L448.559 332.972M448.559 339.047L480.633 358V384" fill="white"/>
<path d="M480.633 318.393V351.925L512.465 332.972" fill="#2B8BFC"/>
<path d="M448.559 332.972L480.633 318.393V351.925" fill="#2B8BFC"/>
</g>
<mask id="mask2_350_536" style="mask-type:alpha" maskUnits="userSpaceOnUse" x="1080" y="450" width="360" height="450">
<path d="M1080 450H1440V900H1080V450Z" fill="#2B8BFC"/>
</mask>
<g mask="url(#mask2_350_536)">
<path d="M1080 450H1440V900H1080V450Z" fill="#2B8BFC"/>
<path d="M1380.38 724.207V762H1367.34V724.207H1346.84V713.695H1400.91V724.207H1380.38Z" fill="white"/>
<path d="M1325.36 762V734.93C1325.36 733.125 1325.21 731.496 1324.9 730.043C1324.6 728.566 1324.02 727.312 1323.18 726.281C1322.36 725.227 1321.2 724.418 1319.7 723.855C1318.22 723.27 1316.31 722.977 1313.97 722.977C1312.19 722.977 1310.31 723.223 1308.34 723.715C1306.4 724.184 1304.46 724.816 1302.54 725.613C1300.62 726.41 1298.78 727.336 1297.02 728.391C1295.29 729.445 1293.74 730.547 1292.38 731.695V762H1279.34V713.695H1292.38V720.305C1294.02 719.367 1295.77 718.441 1297.62 717.527C1299.47 716.59 1301.44 715.746 1303.53 714.996C1305.61 714.246 1307.83 713.637 1310.17 713.168C1312.52 712.699 1314.99 712.465 1317.59 712.465C1320.85 712.465 1323.75 712.863 1326.31 713.66C1328.89 714.434 1331.07 715.547 1332.85 717C1334.63 718.43 1335.99 720.176 1336.93 722.238C1337.89 724.277 1338.37 726.562 1338.37 729.094V762H1325.36Z" fill="white"/>
<path d="M1263.52 759.609C1259.56 760.922 1255.6 761.859 1251.64 762.422C1247.7 763.008 1243.67 763.301 1239.54 763.301C1234.27 763.301 1229.57 762.738 1225.45 761.613C1221.34 760.465 1217.89 758.812 1215.07 756.656C1212.26 754.5 1210.12 751.863 1208.64 748.746C1207.16 745.629 1206.43 742.102 1206.43 738.164C1206.43 734.508 1207.16 731.121 1208.64 728.004C1210.14 724.863 1212.25 722.145 1214.97 719.848C1217.71 717.527 1221.02 715.723 1224.88 714.434C1228.75 713.121 1233.06 712.465 1237.82 712.465C1242.2 712.465 1246.21 713.062 1249.84 714.258C1253.5 715.43 1256.63 717.176 1259.23 719.496C1261.86 721.816 1263.88 724.676 1265.31 728.074C1266.77 731.473 1267.49 735.387 1267.49 739.816V743.051H1219.89C1220.31 744.574 1221 745.969 1221.96 747.234C1222.95 748.5 1224.27 749.578 1225.94 750.469C1227.6 751.359 1229.64 752.051 1232.05 752.543C1234.49 753.035 1237.4 753.281 1240.77 753.281C1243.16 753.281 1245.51 753.141 1247.8 752.859C1250.1 752.555 1252.25 752.168 1254.24 751.699C1256.23 751.207 1258.02 750.668 1259.62 750.082C1261.23 749.496 1262.54 748.91 1263.52 748.324V759.609ZM1254.52 733.488C1254.4 732.293 1254.04 731.062 1253.43 729.797C1252.84 728.508 1251.91 727.348 1250.62 726.316C1249.33 725.285 1247.64 724.441 1245.55 723.785C1243.47 723.105 1240.87 722.766 1237.75 722.766C1234.82 722.766 1232.29 723.129 1230.16 723.855C1228.02 724.582 1226.23 725.484 1224.78 726.562C1223.35 727.641 1222.23 728.801 1221.44 730.043C1220.64 731.285 1220.12 732.434 1219.89 733.488H1254.52Z" fill="white"/>
<path d="M1180.48 724.207V762H1167.44V724.207H1146.94V713.695H1201.01V724.207H1180.48Z" fill="white"/>
<path d="M1381.61 687V659.93C1381.61 658.125 1381.46 656.496 1381.15 655.043C1380.85 653.566 1380.27 652.312 1379.43 651.281C1378.61 650.227 1377.45 649.418 1375.95 648.855C1374.47 648.27 1372.56 647.977 1370.22 647.977C1368.44 647.977 1366.56 648.223 1364.59 648.715C1362.65 649.184 1360.71 649.816 1358.79 650.613C1356.87 651.41 1355.03 652.336 1353.27 653.391C1351.54 654.445 1349.99 655.547 1348.63 656.695V687H1335.59V638.695H1348.63V645.305C1350.27 644.367 1352.02 643.441 1353.87 642.527C1355.72 641.59 1357.69 640.746 1359.78 639.996C1361.86 639.246 1364.08 638.637 1366.42 638.168C1368.77 637.699 1371.24 637.465 1373.84 637.465C1377.1 637.465 1380 637.863 1382.56 638.66C1385.14 639.434 1387.32 640.547 1389.1 642C1390.88 643.43 1392.24 645.176 1393.18 647.238C1394.14 649.277 1394.62 651.562 1394.62 654.094V687H1381.61Z" fill="white"/>
<path d="M1323.71 662.883C1323.71 667.031 1322.95 670.699 1321.42 673.887C1319.9 677.051 1317.72 679.699 1314.88 681.832C1312.05 683.965 1308.6 685.582 1304.55 686.684C1300.52 687.762 1295.98 688.301 1290.94 688.301C1285.9 688.301 1281.34 687.762 1277.27 686.684C1273.21 685.582 1269.75 683.965 1266.89 681.832C1264.04 679.699 1261.83 677.051 1260.29 673.887C1258.74 670.699 1257.96 667.031 1257.96 662.883C1257.96 658.734 1258.74 655.078 1260.29 651.914C1261.83 648.727 1264.04 646.066 1266.89 643.934C1269.75 641.801 1273.21 640.195 1277.27 639.117C1281.34 638.016 1285.9 637.465 1290.94 637.465C1295.98 637.465 1300.52 638.016 1304.55 639.117C1308.6 640.195 1312.05 641.801 1314.88 643.934C1317.72 646.066 1319.9 648.727 1321.42 651.914C1322.95 655.078 1323.71 658.734 1323.71 662.883ZM1310.52 662.883C1310.52 661.078 1310.23 659.285 1309.64 657.504C1309.08 655.699 1308.06 654.082 1306.59 652.652C1305.13 651.223 1303.14 650.062 1300.61 649.172C1298.08 648.281 1294.86 647.836 1290.94 647.836C1288.32 647.836 1286.01 648.047 1284.02 648.469C1282.02 648.867 1280.3 649.43 1278.85 650.156C1277.39 650.883 1276.18 651.738 1275.19 652.723C1274.21 653.684 1273.42 654.727 1272.84 655.852C1272.25 656.953 1271.83 658.113 1271.57 659.332C1271.34 660.527 1271.22 661.711 1271.22 662.883C1271.22 664.078 1271.34 665.285 1271.57 666.504C1271.83 667.723 1272.25 668.895 1272.84 670.02C1273.42 671.121 1274.21 672.152 1275.19 673.113C1276.18 674.074 1277.39 674.918 1278.85 675.645C1280.3 676.348 1282.02 676.91 1284.02 677.332C1286.01 677.73 1288.32 677.93 1290.94 677.93C1294.86 677.93 1298.08 677.484 1300.61 676.594C1303.14 675.703 1305.13 674.543 1306.59 673.113C1308.06 671.684 1309.08 670.078 1309.64 668.297C1310.23 666.492 1310.52 664.688 1310.52 662.883Z" fill="white"/>
<path d="M1249.04 683.695C1247.35 684.398 1245.65 685.031 1243.94 685.594C1242.23 686.156 1240.46 686.637 1238.63 687.035C1236.8 687.457 1234.87 687.773 1232.83 687.984C1230.81 688.195 1228.64 688.301 1226.32 688.301C1221.4 688.301 1216.87 687.773 1212.72 686.719C1208.59 685.664 1205.03 684.082 1202.03 681.973C1199.05 679.84 1196.73 677.191 1195.07 674.027C1193.41 670.84 1192.57 667.125 1192.57 662.883C1192.57 658.641 1193.41 654.938 1195.07 651.773C1196.73 648.586 1199.05 645.938 1202.03 643.828C1205.03 641.695 1208.59 640.102 1212.72 639.047C1216.87 637.992 1221.4 637.465 1226.32 637.465C1228.64 637.465 1230.81 637.57 1232.83 637.781C1234.87 637.992 1236.8 638.309 1238.63 638.73C1240.46 639.129 1242.23 639.609 1243.94 640.172C1245.65 640.734 1247.35 641.367 1249.04 642.07V653.812C1247.7 653.086 1246.29 652.371 1244.82 651.668C1243.34 650.941 1241.71 650.297 1239.93 649.734C1238.15 649.148 1236.19 648.68 1234.06 648.328C1231.93 647.953 1229.52 647.766 1226.85 647.766C1222.75 647.766 1219.34 648.188 1216.62 649.031C1213.93 649.875 1211.77 651 1210.15 652.406C1208.54 653.812 1207.4 655.43 1206.74 657.258C1206.09 659.062 1205.76 660.938 1205.76 662.883C1205.76 664.172 1205.9 665.449 1206.18 666.715C1206.46 667.957 1206.93 669.141 1207.59 670.266C1208.24 671.367 1209.1 672.387 1210.15 673.324C1211.21 674.262 1212.52 675.07 1214.09 675.75C1215.66 676.43 1217.49 676.969 1219.57 677.367C1221.68 677.742 1224.11 677.93 1226.85 677.93C1229.52 677.93 1231.93 677.766 1234.06 677.438C1236.19 677.086 1238.15 676.629 1239.93 676.066C1241.71 675.504 1243.34 674.871 1244.82 674.168C1246.29 673.441 1247.7 672.703 1249.04 671.953V683.695Z" fill="white"/>
<path d="M1212 506H1257V551H1212V506Z" fill="#2B8BFC"/>
<path fill-rule="evenodd" clip-rule="evenodd" d="M1254 509H1215V548H1254V509ZM1212 506V551H1257V506H1212Z" fill="white"/>
<path d="M1146 507H1156V517H1146V507Z" fill="white"/>
<path fill-rule="evenodd" clip-rule="evenodd" d="M1153 510H1149V514H1153V510ZM1146 507V517H1156V507H1146Z" fill="white"/>
<path d="M1179 507H1189V517H1179V507Z" fill="white"/>
<path fill-rule="evenodd" clip-rule="evenodd" d="M1186 510H1182V514H1186V510ZM1179 507V517H1189V507H1179Z" fill="white"/>
<path d="M1146 540H1156V550H1146V540Z" fill="white"/>
<path fill-rule="evenodd" clip-rule="evenodd" d="M1153 543H1149V547H1153V543ZM1146 540V550H1156V540H1146Z" fill="white"/>
<path d="M1179 540H1189V550H1179V540Z" fill="white"/>
<path fill-rule="evenodd" clip-rule="evenodd" d="M1186 543H1182V547H1186V543ZM1179 540V550H1189V540H1179Z" fill="white"/>
<path d="M1347 506H1392V551H1347V506Z" fill="white"/>
<path fill-rule="evenodd" clip-rule="evenodd" d="M1389 509H1350V548H1389V509ZM1347 506V551H1392V506H1347Z" fill="white"/>
<path d="M1279 506H1324V551H1279V506Z" fill="#2B8BFC"/>
<path fill-rule="evenodd" clip-rule="evenodd" d="M1321 509H1282V548H1321V509ZM1279 506V551H1324V506H1279Z" fill="white"/>
<path fill-rule="evenodd" clip-rule="evenodd" d="M1280.29 548.293L1321.29 507.293L1322.71 508.707L1281.71 549.707L1280.29 548.293Z" fill="white"/>
<path fill-rule="evenodd" clip-rule="evenodd" d="M1281.71 507.293L1322.71 548.293L1321.29 549.707L1280.29 508.707L1281.71 507.293Z" fill="white"/>
</g>
<mask id="mask3_350_536" style="mask-type:alpha" maskUnits="userSpaceOnUse" x="0" y="0" width="360" height="450">
<path d="M0 0H360V450H0V0Z" fill="#2B8BFC"/>
</mask>
<g mask="url(#mask3_350_536)">
<path d="M0 0H360V450H0V0Z" fill="#2B8BFC"/>
<path d="M298.19 405V377.93C298.19 376.125 298.038 374.496 297.733 373.043C297.429 371.566 296.854 370.312 296.011 369.281C295.19 368.227 294.03 367.418 292.53 366.855C291.054 366.27 289.144 365.977 286.8 365.977C285.019 365.977 283.144 366.223 281.175 366.715C279.229 367.184 277.296 367.816 275.374 368.613C273.452 369.41 271.612 370.336 269.854 371.391C268.12 372.445 266.573 373.547 265.214 374.695V405H252.171V356.695H265.214V363.305C266.854 362.367 268.601 361.441 270.452 360.527C272.304 359.59 274.272 358.746 276.358 357.996C278.444 357.246 280.659 356.637 283.003 356.168C285.347 355.699 287.819 355.465 290.421 355.465C293.679 355.465 296.585 355.863 299.14 356.66C301.718 357.434 303.897 358.547 305.679 360C307.46 361.43 308.819 363.176 309.757 365.238C310.718 367.277 311.198 369.562 311.198 372.094V405H298.19Z" fill="white"/>
<path d="M238.147 295.629C237.796 295.512 237.28 295.359 236.601 295.172C235.944 294.961 235.171 294.762 234.28 294.574C233.39 294.363 232.405 294.188 231.327 294.047C230.272 293.906 229.183 293.836 228.058 293.836C225.714 293.836 223.522 294.129 221.483 294.715C219.468 295.277 217.581 296.039 215.823 297C214.065 297.938 212.425 299.016 210.901 300.234C209.401 301.43 208.019 302.66 206.753 303.926V333H193.71V284.695H206.753V292.535C208.323 291.363 209.929 290.238 211.569 289.16C213.233 288.059 214.956 287.086 216.737 286.242C218.542 285.398 220.44 284.73 222.433 284.238C224.425 283.723 226.534 283.465 228.761 283.465C229.604 283.465 230.46 283.512 231.327 283.605C232.218 283.676 233.073 283.77 233.894 283.887C234.737 284.004 235.522 284.133 236.249 284.273C236.976 284.414 237.608 284.555 238.147 284.695V295.629Z" fill="white"/>
<path d="M146.976 261V256.254C145.312 257.168 143.519 257.977 141.597 258.68C139.699 259.383 137.718 259.98 135.656 260.473C133.593 260.965 131.46 261.328 129.257 261.562C127.078 261.82 124.875 261.949 122.648 261.949C120.046 261.949 117.527 261.703 115.089 261.211C112.675 260.719 110.531 259.922 108.656 258.82C106.781 257.719 105.269 256.277 104.121 254.496C102.996 252.715 102.433 250.535 102.433 247.957C102.433 244.699 103.324 241.992 105.105 239.836C106.886 237.656 109.605 235.875 113.261 234.492C116.917 233.109 121.535 232.043 127.113 231.293C132.714 230.543 139.335 229.957 146.976 229.535V228.516C146.976 227.719 146.765 226.934 146.343 226.16C145.921 225.363 145.148 224.672 144.023 224.086C142.921 223.477 141.398 222.984 139.453 222.609C137.531 222.234 135.07 222.047 132.07 222.047C129.703 222.047 127.359 222.176 125.039 222.434C122.742 222.668 120.515 222.996 118.359 223.418C116.226 223.84 114.199 224.332 112.277 224.895C110.355 225.457 108.609 226.043 107.039 226.652V215.051C108.679 214.629 110.519 214.219 112.558 213.82C114.597 213.422 116.718 213.082 118.921 212.801C121.125 212.496 123.351 212.262 125.601 212.098C127.851 211.91 130.007 211.816 132.07 211.816C136.125 211.816 139.863 212.156 143.285 212.836C146.707 213.492 149.648 214.523 152.109 215.93C154.593 217.336 156.527 219.117 157.91 221.273C159.316 223.43 160.019 225.996 160.019 228.973V261H146.976ZM146.976 238.957C141.96 239.145 137.695 239.414 134.179 239.766C130.687 240.117 127.781 240.527 125.46 240.996C123.14 241.465 121.312 241.969 119.976 242.508C118.664 243.047 117.679 243.598 117.023 244.16C116.367 244.723 115.957 245.285 115.792 245.848C115.652 246.41 115.582 246.926 115.582 247.395C115.582 247.957 115.734 248.508 116.039 249.047C116.343 249.562 116.871 250.02 117.621 250.418C118.394 250.816 119.414 251.133 120.679 251.367C121.945 251.602 123.539 251.719 125.46 251.719C127.593 251.719 129.679 251.555 131.718 251.227C133.757 250.898 135.691 250.453 137.519 249.891C139.347 249.305 141.058 248.625 142.652 247.852C144.269 247.055 145.71 246.211 146.976 245.32V238.957Z" fill="white"/>
<path d="M47.5586 189L47.5586 140.695H96.4609V150.996H60.9531V158.977H94.6328V169.277H60.9531V178.699H96.9531V189H47.5586Z" fill="white"/>
<path d="M137 366.5C137 395.495 113.495 419 84.5 419C55.5051 419 32 395.495 32 366.5C32 337.505 55.5051 314 84.5 314C113.495 314 137 337.505 137 366.5Z" fill="#2B8BFC"/>
<path fill-rule="evenodd" clip-rule="evenodd" d="M84.5 409C107.972 409 127 389.972 127 366.5C127 343.028 107.972 324 84.5 324C61.0279 324 42 343.028 42 366.5C42 389.972 61.0279 409 84.5 409ZM84.5 419C113.495 419 137 395.495 137 366.5C137 337.505 113.495 314 84.5 314C55.5051 314 32 337.505 32 366.5C32 395.495 55.5051 419 84.5 419Z" fill="white"/>
<path d="M232 134H316V218H232V134Z" fill="white"/>
<path fill-rule="evenodd" clip-rule="evenodd" d="M310 140H238V212H310V140ZM232 134V218H316V134H232Z" fill="white"/>
</g>
<mask id="mask4_350_536" style="mask-type:alpha" maskUnits="userSpaceOnUse" x="720" y="0" width="360" height="450">
<path d="M720 0H1080V450H720V0Z" fill="#2B8BFC"/>
</mask>
<g mask="url(#mask4_350_536)">
<path d="M720 0H1080V450H720V0Z" fill="#2B8BFC"/>
<path d="M1013.46 403V380.441C1013.46 378.938 1013.33 377.58 1013.08 376.369C1012.82 375.139 1012.34 374.094 1011.64 373.234C1010.96 372.355 1009.99 371.682 1008.74 371.213C1007.51 370.725 1005.92 370.48 1003.96 370.48C1002.48 370.48 1000.92 370.686 999.277 371.096C997.656 371.486 996.045 372.014 994.443 372.678C992.842 373.342 991.309 374.113 989.844 374.992C988.398 375.871 987.109 376.789 985.977 377.746V403H975.107V362.746H985.977V368.254C987.344 367.473 988.799 366.701 990.342 365.939C991.885 365.158 993.525 364.455 995.264 363.83C997.002 363.205 998.848 362.697 1000.8 362.307C1002.75 361.916 1004.81 361.721 1006.98 361.721C1009.7 361.721 1012.12 362.053 1014.25 362.717C1016.4 363.361 1018.21 364.289 1019.7 365.5C1021.18 366.691 1022.31 368.146 1023.1 369.865C1023.9 371.564 1024.3 373.469 1024.3 375.578V403H1013.46Z" fill="white"/>
<path d="M961.924 401.008C958.623 402.102 955.322 402.883 952.021 403.352C948.74 403.84 945.381 404.084 941.943 404.084C937.549 404.084 933.633 403.615 930.195 402.678C926.777 401.721 923.896 400.344 921.553 398.547C919.209 396.75 917.422 394.553 916.191 391.955C914.961 389.357 914.346 386.418 914.346 383.137C914.346 380.09 914.961 377.268 916.191 374.67C917.441 372.053 919.199 369.787 921.465 367.873C923.75 365.939 926.504 364.436 929.727 363.361C932.949 362.268 936.543 361.721 940.508 361.721C944.16 361.721 947.5 362.219 950.527 363.215C953.574 364.191 956.182 365.646 958.35 367.58C960.537 369.514 962.227 371.896 963.418 374.729C964.629 377.561 965.234 380.822 965.234 384.514V387.209H925.566C925.918 388.479 926.494 389.641 927.295 390.695C928.115 391.75 929.219 392.648 930.605 393.391C931.992 394.133 933.691 394.709 935.703 395.119C937.734 395.529 940.156 395.734 942.969 395.734C944.961 395.734 946.914 395.617 948.828 395.383C950.742 395.129 952.529 394.807 954.189 394.416C955.85 394.006 957.344 393.557 958.672 393.068C960.02 392.58 961.104 392.092 961.924 391.604V401.008ZM954.424 379.24C954.326 378.244 954.023 377.219 953.516 376.164C953.027 375.09 952.246 374.123 951.172 373.264C950.098 372.404 948.691 371.701 946.953 371.154C945.215 370.588 943.047 370.305 940.449 370.305C938.008 370.305 935.898 370.607 934.121 371.213C932.344 371.818 930.85 372.57 929.639 373.469C928.447 374.367 927.52 375.334 926.855 376.369C926.191 377.404 925.762 378.361 925.566 379.24H954.424Z" fill="white"/>
<path d="M893.574 403V386.213H865.918V403H855.049V362.746H865.918V377.395H893.574V362.746H904.443V403H893.574Z" fill="white"/>
<path d="M815.41 362.746L825.693 390.695L836.826 362.746H848.105L831.934 403H819.863L809.346 375.93L798.857 403H786.787L770.586 362.746H781.895L792.793 390.109L803.311 362.746H815.41Z" fill="white"/>
<path d="M772 147H804V301H772V147Z" fill="white"/>
<path fill-rule="evenodd" clip-rule="evenodd" d="M798 153H778V295H798V153ZM772 147V301H804V147H772Z" fill="white"/>
<path d="M833 147H865V301H833V147Z" fill="#2B8BFC"/>
<path fill-rule="evenodd" clip-rule="evenodd" d="M859 153H839V295H859V153ZM833 147V301H865V147H833Z" fill="white"/>
<path d="M969.392 151L997.177 166.874L920.785 300.591L893 284.717L969.392 151Z" fill="white"/>
<path fill-rule="evenodd" clip-rule="evenodd" d="M988.991 169.107L971.625 159.186L901.186 282.484L918.552 292.405L988.991 169.107ZM969.392 151L893 284.717L920.785 300.591L997.177 166.874L969.392 151Z" fill="white"/>
<path d="M997 147H1029V301H997V147Z" fill="white"/>
<path fill-rule="evenodd" clip-rule="evenodd" d="M1023 153H1003V295H1023V153ZM997 147V301H1029V147H997Z" fill="white"/>
</g>
<mask id="mask5_350_536" style="mask-type:alpha" maskUnits="userSpaceOnUse" x="0" y="450" width="360" height="450">
<path d="M0 450H360V900H0V450Z" fill="black"/>
</mask>
<g mask="url(#mask5_350_536)">
<path d="M0 450H360V900H0V450Z" fill="black"/>
<path d="M160.473 751.773C160.473 753.453 160.629 754.83 160.941 755.904C161.254 756.959 161.762 757.799 162.465 758.424C163.168 759.049 164.076 759.479 165.189 759.713C166.322 759.947 167.709 760.064 169.35 760.064H189.975V769H167.123C163.959 769 161.264 768.746 159.037 768.238C156.83 767.711 155.023 766.91 153.617 765.836C152.211 764.742 151.186 763.365 150.541 761.705C149.916 760.045 149.604 758.072 149.604 755.787V728.746H160.473V751.773Z" fill="#2B8BFC"/>
<path d="M136.42 767.008C133.119 768.102 129.818 768.883 126.518 769.352C123.236 769.84 119.877 770.084 116.439 770.084C112.045 770.084 108.129 769.615 104.691 768.678C101.273 767.721 98.3926 766.344 96.0488 764.547C93.7051 762.75 91.918 760.553 90.6875 757.955C89.457 755.357 88.8418 752.418 88.8418 749.137C88.8418 746.09 89.457 743.268 90.6875 740.67C91.9375 738.053 93.6953 735.787 95.9609 733.873C98.2461 731.939 101 730.436 104.223 729.361C107.445 728.268 111.039 727.721 115.004 727.721C118.656 727.721 121.996 728.219 125.023 729.215C128.07 730.191 130.678 731.646 132.846 733.58C135.033 735.514 136.723 737.896 137.914 740.729C139.125 743.561 139.73 746.822 139.73 750.514V753.209H100.062C100.414 754.479 100.99 755.641 101.791 756.695C102.611 757.75 103.715 758.648 105.102 759.391C106.488 760.133 108.188 760.709 110.199 761.119C112.23 761.529 114.652 761.734 117.465 761.734C119.457 761.734 121.41 761.617 123.324 761.383C125.238 761.129 127.025 760.807 128.686 760.416C130.346 760.006 131.84 759.557 133.168 759.068C134.516 758.58 135.6 758.092 136.42 757.604V767.008ZM128.92 745.24C128.822 744.244 128.52 743.219 128.012 742.164C127.523 741.09 126.742 740.123 125.668 739.264C124.594 738.404 123.188 737.701 121.449 737.154C119.711 736.588 117.543 736.305 114.945 736.305C112.504 736.305 110.395 736.607 108.617 737.213C106.84 737.818 105.346 738.57 104.135 739.469C102.943 740.367 102.016 741.334 101.352 742.369C100.688 743.404 100.258 744.361 100.062 745.24H128.92Z" fill="#2B8BFC"/>
<path d="M81.6055 748.844C81.6055 751.422 81.3223 753.717 80.7559 755.729C80.1895 757.721 79.3887 759.459 78.3535 760.943C77.3379 762.428 76.1074 763.688 74.6621 764.723C73.2363 765.758 71.6445 766.588 69.8867 767.213C68.1289 767.838 66.2344 768.297 64.2031 768.59C62.1719 768.863 60.0527 769 57.8457 769H32.2988L32.2988 728.746H57.7871C59.9941 728.746 62.1133 728.893 64.1445 729.186C66.1758 729.459 68.0703 729.908 69.8281 730.533C71.6055 731.158 73.2168 731.988 74.6621 733.023C76.1074 734.039 77.3379 735.299 78.3535 736.803C79.3887 738.287 80.1895 740.025 80.7559 742.018C81.3223 744.01 81.6055 746.285 81.6055 748.844ZM70.6484 748.844C70.6484 746.91 70.3945 745.23 69.8867 743.805C69.3984 742.379 68.5977 741.207 67.4844 740.289C66.3906 739.352 64.9551 738.658 63.1777 738.209C61.4004 737.74 59.2324 737.506 56.6738 737.506H43.168L43.168 760.24H56.6738C59.2324 760.24 61.4004 760.016 63.1777 759.566C64.9551 759.098 66.3906 758.395 67.4844 757.457C68.5977 756.5 69.3984 755.309 69.8867 753.883C70.3945 752.457 70.6484 750.777 70.6484 748.844Z" fill="#2B8BFC"/>
<path d="M160.736 686.902C160.736 690.105 160.121 693.016 158.891 695.633C157.68 698.23 156.01 700.457 153.881 702.312C151.752 704.148 149.242 705.574 146.352 706.59C143.461 707.586 140.355 708.084 137.035 708.084C134.809 708.084 132.68 707.859 130.648 707.41C128.617 706.961 126.713 706.307 124.936 705.447C123.178 704.588 121.576 703.543 120.131 702.312C118.705 701.062 117.484 699.656 116.469 698.094C115.453 696.531 114.662 694.812 114.096 692.938C113.549 691.062 113.275 689.051 113.275 686.902C113.275 684.773 113.549 682.771 114.096 680.896C114.662 679.002 115.453 677.273 116.469 675.711C117.484 674.148 118.705 672.752 120.131 671.521C121.576 670.271 123.178 669.217 124.936 668.357C126.713 667.498 128.617 666.844 130.648 666.395C132.68 665.945 134.809 665.721 137.035 665.721C140.355 665.721 143.461 666.229 146.352 667.244C149.242 668.24 151.752 669.666 153.881 671.521C156.01 673.357 157.68 675.584 158.891 678.201C160.121 680.799 160.736 683.699 160.736 686.902ZM149.867 686.902C149.867 684.871 149.516 683.074 148.812 681.512C148.109 679.949 147.162 678.631 145.971 677.557C144.799 676.482 143.441 675.672 141.898 675.125C140.355 674.578 138.734 674.305 137.035 674.305C135.336 674.305 133.705 674.578 132.143 675.125C130.58 675.672 129.203 676.482 128.012 677.557C126.84 678.631 125.893 679.949 125.17 681.512C124.467 683.074 124.115 684.871 124.115 686.902C124.115 688.934 124.467 690.73 125.17 692.293C125.893 693.855 126.84 695.174 128.012 696.248C129.203 697.303 130.58 698.113 132.143 698.68C133.705 699.227 135.336 699.5 137.035 699.5C138.734 699.5 140.355 699.227 141.898 698.68C143.441 698.113 144.799 697.303 145.971 696.248C147.162 695.174 148.109 693.855 148.812 692.293C149.516 690.73 149.867 688.934 149.867 686.902Z" fill="#2B8BFC"/>
<path d="M43.168 666.746V671.17C44.125 670.564 45.1602 669.939 46.2734 669.295C47.4062 668.65 48.627 668.064 49.9355 667.537C51.2637 667.01 52.6797 666.58 54.1836 666.248C55.707 665.896 57.3477 665.721 59.1055 665.721C60.8242 665.721 62.3281 665.906 63.6172 666.277C64.9062 666.629 66.0195 667.098 66.957 667.684C67.9141 668.25 68.7246 668.895 69.3887 669.617C70.0527 670.32 70.6289 671.023 71.1172 671.727C72.5039 670.828 73.8711 670.008 75.2188 669.266C76.5664 668.523 77.9238 667.889 79.291 667.361C80.6582 666.834 82.0547 666.434 83.4805 666.16C84.9062 665.867 86.3906 665.721 87.9336 665.721C90.3945 665.721 92.5918 666.062 94.5254 666.746C96.4785 667.43 98.1289 668.367 99.4766 669.559C100.824 670.75 101.85 672.156 102.553 673.777C103.275 675.379 103.637 677.098 103.637 678.934V707H92.7676V680.486C92.7676 679.412 92.6016 678.484 92.2695 677.703C91.9375 676.922 91.4883 676.287 90.9219 675.799C90.375 675.311 89.7207 674.949 88.959 674.715C88.2168 674.48 87.4258 674.363 86.5859 674.363C82.6797 674.363 78.2266 676.121 73.2266 679.637C73.2852 679.969 73.3242 680.359 73.3438 680.809C73.3828 681.258 73.4023 681.707 73.4023 682.156V707H62.5332L62.5332 680.252C62.5332 679.178 62.3672 678.27 62.0352 677.527C61.7031 676.766 61.2441 676.15 60.6582 675.682C60.0918 675.213 59.4277 674.881 58.666 674.686C57.9238 674.471 57.1328 674.363 56.293 674.363C55.2773 674.363 54.2031 674.51 53.0703 674.803C51.957 675.096 50.8242 675.506 49.6719 676.033C48.5391 676.561 47.416 677.186 46.3027 677.908C45.209 678.631 44.1641 679.412 43.168 680.252L43.168 707H32.2988L32.2988 666.746H43.168Z" fill="#2B8BFC"/>
<path d="M342.248 686.902C342.248 690.105 341.633 693.016 340.402 695.633C339.191 698.23 337.521 700.457 335.393 702.312C333.264 704.148 330.754 705.574 327.863 706.59C324.973 707.586 321.867 708.084 318.547 708.084C316.32 708.084 314.191 707.859 312.16 707.41C310.129 706.961 308.225 706.307 306.447 705.447C304.689 704.588 303.088 703.543 301.643 702.312C300.217 701.062 298.996 699.656 297.98 698.094C296.965 696.531 296.174 694.812 295.607 692.938C295.061 691.062 294.787 689.051 294.787 686.902C294.787 684.773 295.061 682.771 295.607 680.896C296.174 679.002 296.965 677.273 297.98 675.711C298.996 674.148 300.217 672.752 301.643 671.521C303.088 670.271 304.689 669.217 306.447 668.357C308.225 667.498 310.129 666.844 312.16 666.395C314.191 665.945 316.32 665.721 318.547 665.721C321.867 665.721 324.973 666.229 327.863 667.244C330.754 668.24 333.264 669.666 335.393 671.521C337.521 673.357 339.191 675.584 340.402 678.201C341.633 680.799 342.248 683.699 342.248 686.902ZM331.379 686.902C331.379 684.871 331.027 683.074 330.324 681.512C329.621 679.949 328.674 678.631 327.482 677.557C326.311 676.482 324.953 675.672 323.41 675.125C321.867 674.578 320.246 674.305 318.547 674.305C316.848 674.305 315.217 674.578 313.654 675.125C312.092 675.672 310.715 676.482 309.523 677.557C308.352 678.631 307.404 679.949 306.682 681.512C305.979 683.074 305.627 684.871 305.627 686.902C305.627 688.934 305.979 690.73 306.682 692.293C307.404 693.855 308.352 695.174 309.523 696.248C310.715 697.303 312.092 698.113 313.654 698.68C315.217 699.227 316.848 699.5 318.547 699.5C320.246 699.5 321.867 699.227 323.41 698.68C324.953 698.113 326.311 697.303 327.482 696.248C328.674 695.174 329.621 693.855 330.324 692.293C331.027 690.73 331.379 688.934 331.379 686.902Z" fill="#2B8BFC"/>
<path d="M281.814 686.902C281.814 690.105 281.199 693.016 279.969 695.633C278.758 698.23 277.088 700.457 274.959 702.312C272.83 704.148 270.32 705.574 267.43 706.59C264.539 707.586 261.434 708.084 258.113 708.084C255.887 708.084 253.758 707.859 251.727 707.41C249.695 706.961 247.791 706.307 246.014 705.447C244.256 704.588 242.654 703.543 241.209 702.312C239.783 701.062 238.562 699.656 237.547 698.094C236.531 696.531 235.74 694.812 235.174 692.938C234.627 691.062 234.354 689.051 234.354 686.902C234.354 684.773 234.627 682.771 235.174 680.896C235.74 679.002 236.531 677.273 237.547 675.711C238.562 674.148 239.783 672.752 241.209 671.521C242.654 670.271 244.256 669.217 246.014 668.357C247.791 667.498 249.695 666.844 251.727 666.395C253.758 665.945 255.887 665.721 258.113 665.721C261.434 665.721 264.539 666.229 267.43 667.244C270.32 668.24 272.83 669.666 274.959 671.521C277.088 673.357 278.758 675.584 279.969 678.201C281.199 680.799 281.814 683.699 281.814 686.902ZM270.945 686.902C270.945 684.871 270.594 683.074 269.891 681.512C269.188 679.949 268.24 678.631 267.049 677.557C265.877 676.482 264.52 675.672 262.977 675.125C261.434 674.578 259.812 674.305 258.113 674.305C256.414 674.305 254.783 674.578 253.221 675.125C251.658 675.672 250.281 676.482 249.09 677.557C247.918 678.631 246.971 679.949 246.248 681.512C245.545 683.074 245.193 684.871 245.193 686.902C245.193 688.934 245.545 690.73 246.248 692.293C246.971 693.855 247.918 695.174 249.09 696.248C250.281 697.303 251.658 698.113 253.221 698.68C254.783 699.227 256.414 699.5 258.113 699.5C259.812 699.5 261.434 699.227 262.977 698.68C264.52 698.113 265.877 697.303 267.049 696.248C268.24 695.174 269.188 693.855 269.891 692.293C270.594 690.73 270.945 688.934 270.945 686.902Z" fill="white"/>
<path d="M221.381 686.902C221.381 690.105 220.766 693.016 219.535 695.633C218.324 698.23 216.654 700.457 214.525 702.312C212.396 704.148 209.887 705.574 206.996 706.59C204.105 707.586 201 708.084 197.68 708.084C195.453 708.084 193.324 707.859 191.293 707.41C189.262 706.961 187.357 706.307 185.58 705.447C183.822 704.588 182.221 703.543 180.775 702.312C179.35 701.062 178.129 699.656 177.113 698.094C176.098 696.531 175.307 694.812 174.74 692.938C174.193 691.062 173.92 689.051 173.92 686.902C173.92 684.773 174.193 682.771 174.74 680.896C175.307 679.002 176.098 677.273 177.113 675.711C178.129 674.148 179.35 672.752 180.775 671.521C182.221 670.271 183.822 669.217 185.58 668.357C187.357 667.498 189.262 666.844 191.293 666.395C193.324 665.945 195.453 665.721 197.68 665.721C201 665.721 204.105 666.229 206.996 667.244C209.887 668.24 212.396 669.666 214.525 671.521C216.654 673.357 218.324 675.584 219.535 678.201C220.766 680.799 221.381 683.699 221.381 686.902ZM210.512 686.902C210.512 684.871 210.16 683.074 209.457 681.512C208.754 679.949 207.807 678.631 206.615 677.557C205.443 676.482 204.086 675.672 202.543 675.125C201 674.578 199.379 674.305 197.68 674.305C195.98 674.305 194.35 674.578 192.787 675.125C191.225 675.672 189.848 676.482 188.656 677.557C187.484 678.631 186.537 679.949 185.814 681.512C185.111 683.074 184.76 684.871 184.76 686.902C184.76 688.934 185.111 690.73 185.814 692.293C186.537 693.855 187.484 695.174 188.656 696.248C189.848 697.303 191.225 698.113 192.787 698.68C194.35 699.227 195.98 699.5 197.68 699.5C199.379 699.5 201 699.227 202.543 698.68C204.086 698.113 205.443 697.303 206.615 696.248C207.807 695.174 208.754 693.855 209.457 692.293C210.16 690.73 210.512 688.934 210.512 686.902Z" fill="#2B8BFC"/>
<path d="M160.947 686.902C160.947 690.105 160.332 693.016 159.102 695.633C157.891 698.23 156.221 700.457 154.092 702.312C151.963 704.148 149.453 705.574 146.562 706.59C143.672 707.586 140.566 708.084 137.246 708.084C135.02 708.084 132.891 707.859 130.859 707.41C128.828 706.961 126.924 706.307 125.146 705.447C123.389 704.588 121.787 703.543 120.342 702.312C118.916 701.062 117.695 699.656 116.68 698.094C115.664 696.531 114.873 694.812 114.307 692.938C113.76 691.062 113.486 689.051 113.486 686.902C113.486 684.773 113.76 682.771 114.307 680.896C114.873 679.002 115.664 677.273 116.68 675.711C117.695 674.148 118.916 672.752 120.342 671.521C121.787 670.271 123.389 669.217 125.146 668.357C126.924 667.498 128.828 666.844 130.859 666.395C132.891 665.945 135.02 665.721 137.246 665.721C140.566 665.721 143.672 666.229 146.562 667.244C149.453 668.24 151.963 669.666 154.092 671.521C156.221 673.357 157.891 675.584 159.102 678.201C160.332 680.799 160.947 683.699 160.947 686.902ZM150.078 686.902C150.078 684.871 149.727 683.074 149.023 681.512C148.32 679.949 147.373 678.631 146.182 677.557C145.01 676.482 143.652 675.672 142.109 675.125C140.566 674.578 138.945 674.305 137.246 674.305C135.547 674.305 133.916 674.578 132.354 675.125C130.791 675.672 129.414 676.482 128.223 677.557C127.051 678.631 126.104 679.949 125.381 681.512C124.678 683.074 124.326 684.871 124.326 686.902C124.326 688.934 124.678 690.73 125.381 692.293C126.104 693.855 127.051 695.174 128.223 696.248C129.414 697.303 130.791 698.113 132.354 698.68C133.916 699.227 135.547 699.5 137.246 699.5C138.945 699.5 140.566 699.227 142.109 698.68C143.652 698.113 145.01 697.303 146.182 696.248C147.373 695.174 148.32 693.855 149.023 692.293C149.727 690.73 150.078 688.934 150.078 686.902Z" fill="white"/>
<path d="M160.947 624.902C160.947 628.105 160.332 631.016 159.102 633.633C157.891 636.23 156.221 638.457 154.092 640.312C151.963 642.148 149.453 643.574 146.562 644.59C143.672 645.586 140.566 646.084 137.246 646.084C135.02 646.084 132.891 645.859 130.859 645.41C128.828 644.961 126.924 644.307 125.146 643.447C123.389 642.588 121.787 641.543 120.342 640.312C118.916 639.062 117.695 637.656 116.68 636.094C115.664 634.531 114.873 632.812 114.307 630.938C113.76 629.062 113.486 627.051 113.486 624.902C113.486 622.773 113.76 620.771 114.307 618.896C114.873 617.002 115.664 615.273 116.68 613.711C117.695 612.148 118.916 610.752 120.342 609.521C121.787 608.271 123.389 607.217 125.146 606.357C126.924 605.498 128.828 604.844 130.859 604.395C132.891 603.945 135.02 603.721 137.246 603.721C140.566 603.721 143.672 604.229 146.562 605.244C149.453 606.24 151.963 607.666 154.092 609.521C156.221 611.357 157.891 613.584 159.102 616.201C160.332 618.799 160.947 621.699 160.947 624.902ZM150.078 624.902C150.078 622.871 149.727 621.074 149.023 619.512C148.32 617.949 147.373 616.631 146.182 615.557C145.01 614.482 143.652 613.672 142.109 613.125C140.566 612.578 138.945 612.305 137.246 612.305C135.547 612.305 133.916 612.578 132.354 613.125C130.791 613.672 129.414 614.482 128.223 615.557C127.051 616.631 126.104 617.949 125.381 619.512C124.678 621.074 124.326 622.871 124.326 624.902C124.326 626.934 124.678 628.73 125.381 630.293C126.104 631.855 127.051 633.174 128.223 634.248C129.414 635.303 130.791 636.113 132.354 636.68C133.916 637.227 135.547 637.5 137.246 637.5C138.945 637.5 140.566 637.227 142.109 636.68C143.652 636.113 145.01 635.303 146.182 634.248C147.373 633.174 148.32 631.855 149.023 630.293C149.727 628.73 150.078 626.934 150.078 624.902Z" fill="#2B8BFC"/>
<path d="M160.947 562.902C160.947 566.105 160.332 569.016 159.102 571.633C157.891 574.23 156.221 576.457 154.092 578.312C151.963 580.148 149.453 581.574 146.562 582.59C143.672 583.586 140.566 584.084 137.246 584.084C135.02 584.084 132.891 583.859 130.859 583.41C128.828 582.961 126.924 582.307 125.146 581.447C123.389 580.588 121.787 579.543 120.342 578.312C118.916 577.062 117.695 575.656 116.68 574.094C115.664 572.531 114.873 570.812 114.307 568.938C113.76 567.062 113.486 565.051 113.486 562.902C113.486 560.773 113.76 558.771 114.307 556.896C114.873 555.002 115.664 553.273 116.68 551.711C117.695 550.148 118.916 548.752 120.342 547.521C121.787 546.271 123.389 545.217 125.146 544.357C126.924 543.498 128.828 542.844 130.859 542.395C132.891 541.945 135.02 541.721 137.246 541.721C140.566 541.721 143.672 542.229 146.562 543.244C149.453 544.24 151.963 545.666 154.092 547.521C156.221 549.357 157.891 551.584 159.102 554.201C160.332 556.799 160.947 559.699 160.947 562.902ZM150.078 562.902C150.078 560.871 149.727 559.074 149.023 557.512C148.32 555.949 147.373 554.631 146.182 553.557C145.01 552.482 143.652 551.672 142.109 551.125C140.566 550.578 138.945 550.305 137.246 550.305C135.547 550.305 133.916 550.578 132.354 551.125C130.791 551.672 129.414 552.482 128.223 553.557C127.051 554.631 126.104 555.949 125.381 557.512C124.678 559.074 124.326 560.871 124.326 562.902C124.326 564.934 124.678 566.73 125.381 568.293C126.104 569.855 127.051 571.174 128.223 572.248C129.414 573.303 130.791 574.113 132.354 574.68C133.916 575.227 135.547 575.5 137.246 575.5C138.945 575.5 140.566 575.227 142.109 574.68C143.652 574.113 145.01 573.303 146.182 572.248C147.373 571.174 148.32 569.855 149.023 568.293C149.727 566.73 150.078 564.934 150.078 562.902Z" fill="white"/>
<path d="M160.947 500.902C160.947 504.105 160.332 507.016 159.102 509.633C157.891 512.23 156.221 514.457 154.092 516.312C151.963 518.148 149.453 519.574 146.562 520.59C143.672 521.586 140.566 522.084 137.246 522.084C135.02 522.084 132.891 521.859 130.859 521.41C128.828 520.961 126.924 520.307 125.146 519.447C123.389 518.588 121.787 517.543 120.342 516.312C118.916 515.062 117.695 513.656 116.68 512.094C115.664 510.531 114.873 508.812 114.307 506.938C113.76 505.062 113.486 503.051 113.486 500.902C113.486 498.773 113.76 496.771 114.307 494.896C114.873 493.002 115.664 491.273 116.68 489.711C117.695 488.148 118.916 486.752 120.342 485.521C121.787 484.271 123.389 483.217 125.146 482.357C126.924 481.498 128.828 480.844 130.859 480.395C132.891 479.945 135.02 479.721 137.246 479.721C140.566 479.721 143.672 480.229 146.562 481.244C149.453 482.24 151.963 483.666 154.092 485.521C156.221 487.357 157.891 489.584 159.102 492.201C160.332 494.799 160.947 497.699 160.947 500.902ZM150.078 500.902C150.078 498.871 149.727 497.074 149.023 495.512C148.32 493.949 147.373 492.631 146.182 491.557C145.01 490.482 143.652 489.672 142.109 489.125C140.566 488.578 138.945 488.305 137.246 488.305C135.547 488.305 133.916 488.578 132.354 489.125C130.791 489.672 129.414 490.482 128.223 491.557C127.051 492.631 126.104 493.949 125.381 495.512C124.678 497.074 124.326 498.871 124.326 500.902C124.326 502.934 124.678 504.73 125.381 506.293C126.104 507.855 127.051 509.174 128.223 510.248C129.414 511.303 130.791 512.113 132.354 512.68C133.916 513.227 135.547 513.5 137.246 513.5C138.945 513.5 140.566 513.227 142.109 512.68C143.652 512.113 145.01 511.303 146.182 510.248C147.373 509.174 148.32 507.855 149.023 506.293C149.727 504.73 150.078 502.934 150.078 500.902Z" fill="#2B8BFC"/>
<path fill-rule="evenodd" clip-rule="evenodd" d="M222 450C222 526.215 283.785 588 360 588V608C272.739 608 202 537.261 202 450H222Z" fill="white"/>
</g>
<mask id="mask6_350_536" style="mask-type:alpha" maskUnits="userSpaceOnUse" x="720" y="450" width="360" height="450">
<path d="M720 450H1080V900H720V450Z" fill="black"/>
</mask>
<g mask="url(#mask6_350_536)">
<path d="M720 450H1080V900H720V450Z" fill="black"/>
<path fill-rule="evenodd" clip-rule="evenodd" d="M900 630C800.589 630 720 710.589 720 810L1080 810C1080 710.589 999.411 630 900 630Z" fill="#2B8BFC"/>
<path fill-rule="evenodd" clip-rule="evenodd" d="M900 630C999.411 630 1080 549.411 1080 450L720 450C720 549.411 800.589 630 900 630Z" fill="white"/>
<path d="M760.443 760.287C761.248 757.071 762.274 754.155 763.521 751.54C764.755 748.905 766.091 746.541 767.529 744.448L775.553 746.456C774.817 747.236 774.066 748.139 773.302 749.166C772.541 750.177 771.81 751.305 771.109 752.551C770.409 753.797 769.755 755.156 769.15 756.629C768.544 758.102 768.031 759.682 767.608 761.369C767.082 763.471 766.775 765.34 766.687 766.976C766.599 768.612 766.67 770.051 766.901 771.293C767.132 772.535 767.499 773.6 768.005 774.488C768.494 775.372 769.069 776.116 769.73 776.721C770.39 777.327 771.099 777.808 771.855 778.167C772.611 778.525 773.364 778.798 774.112 778.986C774.765 779.149 775.489 779.263 776.285 779.326C777.085 779.374 777.913 779.311 778.769 779.136C779.629 778.945 780.493 778.603 781.361 778.11C782.229 777.616 783.067 776.904 783.875 775.973C784.688 775.026 785.45 773.838 786.163 772.409C786.86 770.976 787.47 769.217 787.992 767.131C788.255 766.08 788.452 765.157 788.583 764.36C788.715 763.564 788.805 762.834 788.853 762.169C788.905 761.488 788.921 760.85 788.901 760.252C788.885 759.639 788.865 759.008 788.842 758.36L784.877 757.367L782.391 767.302L775.202 765.503L779.906 746.708L796.672 750.904C796.775 752.182 796.81 753.595 796.778 755.143C796.734 756.672 796.628 758.244 796.46 759.86C796.313 761.465 796.107 763.063 795.844 764.655C795.581 766.247 795.276 767.736 794.929 769.121C794.391 771.27 793.732 773.296 792.951 775.199C792.171 777.101 791.271 778.839 790.251 780.411C789.22 781.963 788.065 783.332 786.787 784.518C785.513 785.688 784.113 786.615 782.589 787.299C781.068 787.968 779.418 788.375 777.638 788.522C775.847 788.649 773.924 788.455 771.87 787.941C769.833 787.431 768.057 786.683 766.545 785.695C765.033 784.707 763.767 783.545 762.748 782.207C761.734 780.853 760.944 779.344 760.379 777.68C759.818 776 759.458 774.227 759.3 772.36C759.129 770.473 759.145 768.515 759.349 766.484C759.556 764.438 759.921 762.373 760.443 760.287Z" fill="white"/>
<path d="M823.143 716.295C822.206 719.062 821.059 721.672 819.703 724.123C818.37 726.572 816.834 728.949 815.094 731.255C812.87 734.203 810.573 736.592 808.205 738.424C805.833 740.232 803.451 741.468 801.059 742.131C798.668 742.794 796.289 742.88 793.924 742.391C791.559 741.902 789.275 740.827 787.074 739.166C785.03 737.624 783.449 735.783 782.329 733.643C781.206 731.48 780.576 729.154 780.438 726.665C780.298 724.154 780.683 721.545 781.593 718.84C782.49 716.124 783.942 713.437 785.949 710.777C787.797 708.327 789.822 706.339 792.022 704.812C794.219 703.262 796.515 702.25 798.91 701.774C801.314 701.285 803.767 701.358 806.27 701.992C808.783 702.613 811.277 703.858 813.753 705.726L815.562 707.09L795.485 733.7C796.515 734.107 797.586 734.308 798.699 734.305C799.821 734.289 800.982 734.003 802.182 733.448C803.382 732.894 804.628 732.046 805.922 730.904C807.225 729.749 808.588 728.228 810.012 726.341C811.02 725.005 811.93 723.635 812.741 722.233C813.54 720.82 814.228 719.458 814.806 718.147C815.371 716.825 815.826 715.596 816.171 714.458C816.525 713.307 816.746 712.332 816.834 711.535L823.143 716.295ZM804.745 710.309C804.027 709.87 803.186 709.554 802.221 709.361C801.254 709.145 800.21 709.18 799.089 709.465C797.969 709.751 796.786 710.339 795.539 711.228C794.28 712.107 792.992 713.418 791.678 715.161C790.442 716.799 789.578 718.367 789.084 719.866C788.591 721.364 788.339 722.747 788.329 724.014C788.329 725.268 788.508 726.38 788.866 727.349C789.224 728.319 789.649 729.091 790.139 729.667L804.745 710.309Z" fill="white"/>
<path d="M858.177 697.461L848.858 680.954C848.236 679.853 847.583 678.912 846.897 678.131C846.202 677.335 845.421 676.768 844.551 676.43C843.688 676.069 842.702 675.976 841.594 676.149C840.491 676.3 839.226 676.779 837.796 677.586C836.71 678.199 835.652 678.994 834.62 679.972C833.595 680.928 832.634 681.979 831.737 683.127C830.839 684.275 830.036 685.473 829.327 686.721C828.632 687.961 828.068 689.165 827.635 690.334L838.067 708.814L830.113 713.304L813.484 683.847L821.438 679.357L823.713 683.387C824.391 682.251 825.137 681.085 825.951 679.89C826.758 678.681 827.668 677.489 828.682 676.314C829.696 675.138 830.836 674.004 832.104 672.911C833.372 671.819 834.799 670.825 836.386 669.929C838.373 668.807 840.282 668.05 842.114 667.656C843.953 667.241 845.665 667.169 847.252 667.442C848.83 667.701 850.26 668.297 851.542 669.232C852.83 670.145 853.909 671.373 854.781 672.917L866.109 692.983L858.177 697.461Z" fill="white"/>
<path d="M909.138 687.125C906.474 688.325 903.782 689.265 901.064 689.943C898.364 690.636 895.577 691.131 892.704 691.429C889.031 691.811 885.717 691.758 882.762 691.273C879.823 690.77 877.295 689.869 875.18 688.57C873.065 687.271 871.381 685.59 870.127 683.525C868.874 681.461 868.104 679.057 867.82 676.315C867.555 673.768 867.825 671.356 868.628 669.078C869.446 666.782 870.718 664.736 872.446 662.939C874.188 661.125 876.36 659.629 878.96 658.451C881.559 657.258 884.515 656.489 887.829 656.145C890.882 655.828 893.717 655.955 896.334 656.525C898.965 657.077 901.271 658.067 903.25 659.495C905.247 660.921 906.865 662.766 908.107 665.03C909.365 667.292 910.154 669.966 910.474 673.051L910.708 675.304L877.552 678.745C877.956 679.776 878.538 680.697 879.299 681.509C880.076 682.32 881.076 682.975 882.3 683.475C883.523 683.975 884.993 684.309 886.71 684.477C888.444 684.644 890.486 684.605 892.837 684.361C894.502 684.189 896.124 683.921 897.704 683.559C899.282 683.181 900.747 682.757 902.101 682.286C903.453 681.799 904.663 681.294 905.731 680.771C906.815 680.246 907.679 679.744 908.322 679.264L909.138 687.125ZM900.981 669.581C900.813 668.757 900.471 667.926 899.955 667.089C899.453 666.233 898.716 665.493 897.744 664.868C896.772 664.243 895.535 663.777 894.035 663.471C892.533 663.148 890.696 663.1 888.525 663.325C886.484 663.537 884.747 663.973 883.314 664.633C881.881 665.293 880.698 666.051 879.763 666.907C878.846 667.762 878.154 668.65 877.689 669.573C877.224 670.496 876.947 671.333 876.86 672.085L900.981 669.581Z" fill="white"/>
<path d="M952.933 673.462C952.715 673.321 952.391 673.128 951.963 672.883C951.554 672.626 951.064 672.356 950.493 672.074C949.925 671.777 949.288 671.486 948.581 671.204C947.89 670.925 947.163 670.688 946.4 670.492C944.81 670.085 943.272 669.903 941.787 669.947C940.322 669.978 938.91 670.167 937.55 670.514C936.195 670.844 934.895 671.291 933.65 671.853C932.424 672.403 931.272 672.997 930.194 673.636L925.143 693.36L916.295 691.094L924.687 658.325L933.535 660.591L932.173 665.909C933.442 665.387 934.726 664.902 936.026 664.456C937.347 663.998 938.684 663.637 940.039 663.374C941.41 663.116 942.814 662.992 944.251 663.004C945.692 663.001 947.168 663.192 948.678 663.579C949.251 663.726 949.823 663.906 950.395 664.12C950.987 664.323 951.551 664.535 952.087 664.757C952.639 664.983 953.149 665.207 953.618 665.428C954.086 665.65 954.491 665.855 954.832 666.044L952.933 673.462Z" fill="white"/>
<path d="M972.262 716.783L974.143 714.043C972.82 713.911 971.464 713.667 970.076 713.312C968.702 712.965 967.321 712.525 965.936 711.992C964.55 711.458 963.175 710.823 961.81 710.085C960.449 709.37 959.126 708.571 957.841 707.688C956.339 706.657 954.982 705.516 953.77 704.266C952.571 703.025 951.649 701.715 951.003 700.336C950.358 698.957 950.056 697.525 950.099 696.042C950.156 694.568 950.695 693.086 951.717 691.598C953.008 689.717 954.595 688.507 956.478 687.969C958.371 687.416 960.646 687.466 963.305 688.117C965.964 688.768 969.052 689.982 972.57 691.76C976.101 693.547 980.155 695.834 984.733 698.618L985.138 698.03C985.453 697.57 985.643 697.033 985.706 696.419C985.778 695.792 985.606 695.086 985.189 694.302C984.794 693.514 984.11 692.626 983.135 691.638C982.174 690.66 980.828 689.576 979.096 688.387C977.73 687.449 976.325 686.594 974.884 685.823C973.465 685.048 972.049 684.355 970.637 683.744C969.239 683.142 967.873 682.623 966.541 682.186C965.209 681.749 963.968 681.395 962.82 681.124L967.419 674.427C968.533 674.833 969.758 675.326 971.093 675.904C972.428 676.482 973.787 677.127 975.17 677.838C976.563 678.535 977.941 679.282 979.305 680.079C980.679 680.863 981.961 681.664 983.151 682.481C985.492 684.088 987.515 685.766 989.221 687.515C990.937 689.25 992.226 691.011 993.089 692.799C993.966 694.595 994.376 696.39 994.32 698.183C994.277 699.985 993.666 701.745 992.486 703.464L979.791 721.953L972.262 716.783ZM980.999 704.058C978.029 702.178 975.46 700.643 973.291 699.452C971.135 698.271 969.295 697.356 967.77 696.707C966.244 696.058 964.989 695.624 964.004 695.406C963.033 695.197 962.246 695.124 961.645 695.189C961.043 695.254 960.583 695.416 960.265 695.675C959.961 695.944 959.716 696.214 959.53 696.485C959.308 696.81 959.177 697.188 959.139 697.62C959.111 698.038 959.234 698.511 959.509 699.038C959.798 699.575 960.261 700.162 960.899 700.799C961.536 701.436 962.41 702.135 963.52 702.897C964.751 703.742 966.02 704.474 967.327 705.093C968.635 705.712 969.927 706.221 971.206 706.621C972.493 707.008 973.75 707.293 974.977 707.479C976.226 707.66 977.393 707.744 978.477 707.731L980.999 704.058Z" fill="white"/>
<path d="M1015.6 727.999L993.89 743.133L988.666 735.64L1010.38 720.506L1002.17 708.732L1008.21 704.522L1029.86 735.585L1023.82 739.794L1015.6 727.999Z" fill="white"/>
<path d="M1013.23 793.867C1011.66 791.399 1010.35 788.868 1009.3 786.273C1008.23 783.698 1007.34 781.009 1006.64 778.207C1005.75 774.624 1005.33 771.337 1005.39 768.343C1005.47 765.362 1006.01 762.732 1007 760.455C1007.98 758.178 1009.41 756.273 1011.28 754.74C1013.14 753.207 1015.41 752.105 1018.09 751.436C1020.57 750.814 1023 750.74 1025.37 751.213C1027.75 751.698 1029.96 752.669 1031.98 754.125C1034.03 755.594 1035.81 757.532 1037.35 759.94C1038.9 762.343 1040.07 765.161 1040.88 768.394C1041.63 771.371 1041.9 774.195 1041.71 776.866C1041.54 779.549 1040.88 781.972 1039.75 784.133C1038.62 786.311 1037.02 788.174 1034.95 789.723C1032.89 791.288 1030.36 792.447 1027.35 793.201L1025.15 793.75L1017.06 761.414C1016.09 761.959 1015.26 762.666 1014.57 763.534C1013.88 764.418 1013.37 765.501 1013.05 766.783C1012.72 768.065 1012.6 769.567 1012.68 771.291C1012.76 773.03 1013.08 775.047 1013.66 777.339C1014.06 778.963 1014.56 780.531 1015.14 782.044C1015.74 783.552 1016.37 784.944 1017.02 786.217C1017.7 787.487 1018.37 788.613 1019.04 789.596C1019.71 790.595 1020.33 791.379 1020.89 791.948L1013.23 793.867ZM1029.44 783.312C1030.23 783.029 1031.01 782.573 1031.76 781.944C1032.54 781.327 1033.17 780.493 1033.65 779.442C1034.13 778.391 1034.42 777.101 1034.51 775.572C1034.62 774.04 1034.4 772.215 1033.87 770.097C1033.38 768.107 1032.7 766.449 1031.84 765.124C1030.99 763.798 1030.07 762.734 1029.09 761.93C1028.11 761.142 1027.14 760.583 1026.16 760.253C1025.18 759.923 1024.31 759.768 1023.55 759.788L1029.44 783.312Z" fill="white"/>
<path d="M1040.09 502.907C1039.28 506.123 1038.26 509.038 1037.01 511.653C1035.78 514.288 1034.44 516.652 1033 518.746L1024.98 516.737C1025.71 515.957 1026.47 515.054 1027.23 514.027C1027.99 513.016 1028.72 511.888 1029.42 510.642C1030.12 509.396 1030.78 508.037 1031.38 506.564C1031.99 505.092 1032.5 503.512 1032.92 501.824C1033.45 499.722 1033.76 497.853 1033.84 496.217C1033.93 494.581 1033.86 493.142 1033.63 491.9C1033.4 490.658 1033.03 489.593 1032.53 488.706C1032.04 487.822 1031.46 487.077 1030.8 486.472C1030.14 485.867 1029.43 485.385 1028.68 485.026C1027.92 484.668 1027.17 484.395 1026.42 484.208C1025.77 484.044 1025.04 483.931 1024.25 483.867C1023.45 483.819 1022.62 483.882 1021.76 484.057C1020.9 484.248 1020.04 484.59 1019.17 485.084C1018.3 485.577 1017.46 486.289 1016.66 487.221C1015.84 488.168 1015.08 489.356 1014.37 490.785C1013.67 492.218 1013.06 493.977 1012.54 496.063C1012.28 497.113 1012.08 498.037 1011.95 498.833C1011.82 499.629 1011.73 500.359 1011.68 501.024C1011.63 501.705 1011.61 502.344 1011.63 502.941C1011.65 503.554 1011.67 504.185 1011.69 504.834L1015.65 505.826L1018.14 495.891L1025.33 497.69L1020.63 516.485L1003.86 512.289C1003.76 511.012 1003.72 509.598 1003.75 508.05C1003.8 506.521 1003.9 504.949 1004.07 503.333C1004.22 501.729 1004.42 500.131 1004.69 498.538C1004.95 496.946 1005.26 495.458 1005.6 494.072C1006.14 491.923 1006.8 489.897 1007.58 487.994C1008.36 486.092 1009.26 484.355 1010.28 482.782C1011.31 481.23 1012.47 479.861 1013.74 478.675C1015.02 477.505 1016.42 476.578 1017.94 475.894C1019.46 475.226 1021.11 474.818 1022.89 474.671C1024.68 474.544 1026.61 474.738 1028.66 475.252C1030.7 475.762 1032.47 476.511 1033.99 477.498C1035.5 478.486 1036.76 479.649 1037.78 480.986C1038.8 482.34 1039.59 483.849 1040.15 485.513C1040.71 487.193 1041.07 488.967 1041.23 490.833C1041.4 492.72 1041.39 494.679 1041.18 496.709C1040.97 498.755 1040.61 500.821 1040.09 502.907Z" fill="black"/>
<path d="M977.389 546.899C978.326 544.131 979.472 541.521 980.828 539.07C982.161 536.622 983.698 534.245 985.437 531.939C987.662 528.991 989.958 526.601 992.327 524.769C994.699 522.961 997.08 521.725 999.472 521.062C1001.86 520.4 1004.24 520.313 1006.61 520.802C1008.97 521.291 1011.26 522.366 1013.46 524.027C1015.5 525.569 1017.08 527.41 1018.2 529.55C1019.33 531.714 1019.96 534.039 1020.09 536.528C1020.23 539.04 1019.85 541.648 1018.94 544.354C1018.04 547.069 1016.59 549.756 1014.58 552.416C1012.73 554.866 1010.71 556.855 1008.51 558.381C1006.31 559.931 1004.02 560.944 1001.62 561.419C999.217 561.908 996.764 561.836 994.261 561.201C991.749 560.58 989.254 559.336 986.778 557.467L984.97 556.103L1005.05 529.493C1004.02 529.087 1002.95 528.885 1001.83 528.888C1000.71 528.905 999.549 529.19 998.349 529.745C997.149 530.3 995.903 531.148 994.61 532.29C993.306 533.445 991.943 534.966 990.52 536.852C989.511 538.189 988.601 539.558 987.79 540.961C986.992 542.373 986.303 543.735 985.725 545.047C985.16 546.368 984.705 547.598 984.36 548.736C984.006 549.887 983.785 550.861 983.697 551.658L977.389 546.899ZM995.787 552.884C996.504 553.323 997.345 553.639 998.31 553.832C999.278 554.048 1000.32 554.013 1001.44 553.728C1002.56 553.442 1003.75 552.855 1004.99 551.965C1006.25 551.086 1007.54 549.775 1008.85 548.032C1010.09 546.395 1010.95 544.826 1011.45 543.328C1011.94 541.829 1012.19 540.446 1012.2 539.179C1012.2 537.925 1012.02 536.813 1011.67 535.844C1011.31 534.875 1010.88 534.102 1010.39 533.526L995.787 552.884Z" fill="black"/>
<path d="M942.355 565.732L951.674 582.24C952.295 583.34 952.949 584.281 953.635 585.062C954.329 585.858 955.111 586.425 955.98 586.763C956.844 587.124 957.829 587.218 958.938 587.044C960.04 586.893 961.306 586.414 962.735 585.608C963.821 584.994 964.88 584.199 965.911 583.221C966.936 582.265 967.897 581.214 968.795 580.066C969.692 578.919 970.496 577.721 971.204 576.473C971.899 575.232 972.463 574.028 972.897 572.86L962.464 554.38L970.418 549.889L987.047 579.346L979.093 583.836L976.818 579.806C976.14 580.942 975.394 582.108 974.58 583.303C973.773 584.512 972.863 585.704 971.849 586.88C970.836 588.055 969.695 589.189 968.427 590.282C967.159 591.375 965.732 592.369 964.145 593.264C962.159 594.386 960.249 595.143 958.417 595.537C956.579 595.953 954.866 596.024 953.28 595.751C951.701 595.493 950.271 594.896 948.989 593.961C947.702 593.048 946.622 591.82 945.75 590.277L934.422 570.21L942.355 565.732Z" fill="black"/>
<path d="M891.394 576.068C894.058 574.868 896.749 573.929 899.467 573.25C902.167 572.558 904.954 572.062 907.827 571.764C911.5 571.383 914.814 571.435 917.769 571.92C920.709 572.424 923.236 573.325 925.351 574.623C927.466 575.922 929.15 577.604 930.404 579.668C931.658 581.732 932.427 584.136 932.712 586.879C932.976 589.425 932.706 591.838 931.903 594.116C931.086 596.412 929.813 598.458 928.085 600.254C926.343 602.069 924.172 603.564 921.571 604.742C918.972 605.936 916.016 606.705 912.702 607.048C909.649 607.365 906.814 607.239 904.198 606.669C901.566 606.117 899.261 605.127 897.281 603.699C895.285 602.272 893.666 600.427 892.424 598.163C891.167 595.901 890.378 593.228 890.057 590.142L889.824 587.889L922.98 584.448C922.576 583.418 921.993 582.496 921.232 581.684C920.455 580.874 919.455 580.219 918.232 579.718C917.008 579.218 915.538 578.884 913.821 578.716C912.087 578.549 910.045 578.588 907.695 578.832C906.029 579.005 904.407 579.272 902.828 579.634C901.25 580.012 899.784 580.437 898.43 580.907C897.078 581.394 895.868 581.899 894.8 582.422C893.716 582.947 892.853 583.45 892.209 583.929L891.394 576.068ZM899.551 593.612C899.719 594.436 900.061 595.267 900.577 596.104C901.078 596.96 901.815 597.7 902.787 598.325C903.76 598.951 904.996 599.416 906.496 599.723C907.998 600.045 909.835 600.094 912.006 599.869C914.047 599.657 915.784 599.221 917.217 598.56C918.65 597.9 919.834 597.142 920.768 596.286C921.686 595.432 922.377 594.543 922.842 593.62C923.308 592.698 923.584 591.86 923.671 591.109L899.551 593.612Z" fill="black"/>
<path d="M847.598 589.732C847.817 589.872 848.14 590.065 848.568 590.31C848.977 590.568 849.467 590.837 850.039 591.119C850.606 591.417 851.243 591.707 851.95 591.99C852.641 592.268 853.368 592.505 854.132 592.701C855.722 593.108 857.259 593.29 858.744 593.247C860.209 593.215 861.622 593.026 862.981 592.68C864.336 592.349 865.637 591.903 866.882 591.341C868.107 590.79 869.259 590.196 870.337 589.557L875.388 569.834L884.236 572.1L875.845 604.869L866.996 602.603L868.358 597.284C867.09 597.807 865.805 598.291 864.505 598.737C863.185 599.195 861.847 599.556 860.492 599.819C859.121 600.078 857.717 600.201 856.28 600.189C854.839 600.193 853.363 600.001 851.853 599.614C851.281 599.468 850.708 599.287 850.136 599.073C849.544 598.871 848.98 598.658 848.444 598.436C847.892 598.21 847.382 597.986 846.914 597.765C846.445 597.543 846.04 597.338 845.699 597.149L847.598 589.732Z" fill="black"/>
<path d="M828.27 546.41L826.388 549.15C827.711 549.282 829.067 549.526 830.455 549.882C831.83 550.228 833.21 550.668 834.596 551.202C835.981 551.735 837.357 552.371 838.722 553.109C840.082 553.824 841.405 554.623 842.69 555.505C844.192 556.536 845.549 557.677 846.761 558.927C847.96 560.168 848.882 561.478 849.528 562.858C850.174 564.237 850.475 565.668 850.432 567.152C850.375 568.626 849.836 570.107 848.814 571.595C847.523 573.476 845.936 574.686 844.053 575.225C842.161 575.777 839.885 575.728 837.226 575.077C834.567 574.426 831.479 573.211 827.962 571.433C824.431 569.646 820.376 567.36 815.798 564.575L815.394 565.163C815.078 565.623 814.888 566.16 814.825 566.774C814.753 567.401 814.926 568.107 815.343 568.891C815.737 569.68 816.422 570.568 817.396 571.555C818.357 572.533 819.703 573.617 821.435 574.806C822.802 575.745 824.206 576.599 825.647 577.37C827.066 578.145 828.482 578.838 829.894 579.449C831.292 580.051 832.658 580.571 833.99 581.008C835.323 581.445 836.563 581.798 837.711 582.069L833.113 588.767C831.998 588.36 830.773 587.867 829.438 587.289C828.103 586.711 826.744 586.067 825.361 585.356C823.968 584.658 822.59 583.911 821.226 583.114C819.853 582.33 818.571 581.53 817.38 580.712C815.039 579.105 813.016 577.427 811.31 575.678C809.594 573.943 808.305 572.182 807.442 570.395C806.565 568.598 806.155 566.804 806.211 565.011C806.254 563.208 806.865 561.448 808.045 559.73L820.74 541.24L828.27 546.41ZM819.532 559.136C822.502 561.015 825.072 562.551 827.24 563.741C829.396 564.922 831.236 565.838 832.762 566.487C834.287 567.136 835.542 567.569 836.527 567.788C837.498 567.997 838.285 568.069 838.887 568.004C839.488 567.94 839.948 567.778 840.266 567.518C840.57 567.249 840.815 566.979 841.001 566.709C841.224 566.384 841.354 566.005 841.392 565.573C841.42 565.155 841.297 564.682 841.022 564.155C840.733 563.618 840.27 563.031 839.633 562.395C838.995 561.758 838.121 561.058 837.012 560.296C835.78 559.451 834.511 558.719 833.204 558.1C831.897 557.481 830.604 556.972 829.326 556.572C828.038 556.186 826.781 555.9 825.554 555.715C824.305 555.534 823.138 555.45 822.055 555.462L819.532 559.136Z" fill="black"/>
<path d="M784.93 535.194L806.642 520.06L811.865 527.553L790.153 542.687L798.361 554.462L792.322 558.671L770.67 527.609L776.709 523.399L784.93 535.194Z" fill="black"/>
<path d="M787.305 469.326C788.87 471.794 790.18 474.325 791.236 476.92C792.303 479.496 793.187 482.184 793.889 484.986C794.785 488.569 795.202 491.857 795.139 494.85C795.056 497.832 794.522 500.461 793.535 502.738C792.549 505.016 791.122 506.921 789.255 508.454C787.389 509.987 785.118 511.088 782.443 511.757C779.96 512.379 777.533 512.453 775.165 511.98C772.776 511.495 770.571 510.524 768.548 509.068C766.506 507.6 764.718 505.662 763.185 503.254C761.636 500.85 760.457 498.032 759.648 494.8C758.903 491.822 758.627 488.998 758.822 486.327C758.996 483.644 759.65 481.222 760.784 479.06C761.914 476.882 763.512 475.019 765.577 473.47C767.639 471.905 770.174 470.746 773.183 469.993L775.381 469.443L783.474 501.78C784.437 501.234 785.267 500.527 785.963 499.659C786.656 498.775 787.163 497.693 787.485 496.411C787.807 495.129 787.93 493.626 787.854 491.902C787.774 490.163 787.447 488.147 786.873 485.854C786.467 484.23 785.973 482.662 785.391 481.149C784.794 479.641 784.166 478.25 783.509 476.976C782.836 475.706 782.165 474.58 781.496 473.597C780.823 472.598 780.204 471.814 779.638 471.245L787.305 469.326ZM771.09 479.881C770.298 480.164 769.524 480.62 768.768 481.249C767.992 481.866 767.363 482.701 766.882 483.752C766.4 484.803 766.114 486.092 766.023 487.621C765.916 489.154 766.127 490.979 766.657 493.096C767.155 495.086 767.832 496.744 768.689 498.07C769.545 499.395 770.463 500.459 771.442 501.263C772.418 502.051 773.395 502.61 774.374 502.94C775.354 503.27 776.221 503.426 776.978 503.405L771.09 479.881Z" fill="black"/>
<path d="M720 810H1080V900H720V810Z" fill="white"/>
</g>
<mask id="mask7_350_536" style="mask-type:alpha" maskUnits="userSpaceOnUse" x="1080" y="0" width="360" height="450">
<path d="M1440 450L1080 450L1080 -9.54624e-07L1440 3.05176e-05L1440 450Z" fill="#2B8BFC"/>
</mask>
<g mask="url(#mask7_350_536)">
<path d="M1440 450L1080 450L1080 -9.54624e-07L1440 3.05176e-05L1440 450Z" fill="#2B8BFC"/>
<path d="M1440 450L1080 450L1080 90L1440 450Z" fill="black"/>
<path d="M1080 344.5C1080 286.234 1127.23 239 1185.5 239C1243.77 239 1291 286.234 1291 344.5C1291 402.766 1243.77 450 1185.5 450C1127.23 450 1080 402.766 1080 344.5Z" fill="white"/>
<path d="M1404.26 218.629C1403.91 218.512 1403.39 218.359 1402.71 218.172C1402.06 217.961 1401.29 217.762 1400.39 217.574C1399.5 217.363 1398.52 217.188 1397.44 217.047C1396.39 216.906 1395.3 216.836 1394.17 216.836C1391.83 216.836 1389.64 217.129 1387.6 217.715C1385.58 218.277 1383.7 219.039 1381.94 220C1380.18 220.938 1378.54 222.016 1377.02 223.234C1375.52 224.43 1374.13 225.66 1372.87 226.926V256H1359.82V207.695H1372.87V215.535C1374.44 214.363 1376.04 213.238 1377.68 212.16C1379.35 211.059 1381.07 210.086 1382.85 209.242C1384.66 208.398 1386.55 207.73 1388.55 207.238C1390.54 206.723 1392.65 206.465 1394.88 206.465C1395.72 206.465 1396.57 206.512 1397.44 206.605C1398.33 206.676 1399.19 206.77 1400.01 206.887C1400.85 207.004 1401.64 207.133 1402.36 207.273C1403.09 207.414 1403.72 207.555 1404.26 207.695V218.629Z" fill="white"/>
<path d="M1298.69 207.695V234.906C1298.69 236.711 1298.84 238.352 1299.14 239.828C1299.45 241.281 1300.01 242.535 1300.83 243.59C1301.65 244.621 1302.8 245.43 1304.28 246.016C1305.75 246.578 1307.68 246.859 1310.04 246.859C1311.82 246.859 1313.69 246.613 1315.63 246.121C1317.6 245.629 1319.55 244.973 1321.47 244.152C1323.39 243.332 1325.22 242.395 1326.95 241.34C1328.71 240.262 1330.28 239.148 1331.66 238V207.695H1344.67V256H1331.66V249.391C1330.02 250.328 1328.28 251.277 1326.43 252.238C1324.57 253.176 1322.61 254.031 1320.52 254.805C1318.43 255.555 1316.22 256.164 1313.88 256.633C1311.53 257.125 1309.06 257.371 1306.46 257.371C1303.2 257.371 1300.28 256.973 1297.7 256.176C1295.12 255.402 1292.95 254.301 1291.16 252.871C1289.38 251.418 1288.01 249.672 1287.05 247.633C1286.11 245.57 1285.64 243.273 1285.64 240.742V207.695H1298.69Z" fill="white"/>
<path d="M1400.68 156.883C1400.68 161.031 1399.91 164.699 1398.39 167.887C1396.87 171.051 1394.69 173.699 1391.85 175.832C1389.02 177.965 1385.57 179.582 1381.52 180.684C1377.48 181.762 1372.95 182.301 1367.91 182.301C1362.87 182.301 1358.31 181.762 1354.23 180.684C1350.18 179.582 1346.72 177.965 1343.86 175.832C1341 173.699 1338.8 171.051 1337.25 167.887C1335.71 164.699 1334.93 161.031 1334.93 156.883C1334.93 152.734 1335.71 149.078 1337.25 145.914C1338.8 142.727 1341 140.066 1343.86 137.934C1346.72 135.801 1350.18 134.195 1354.23 133.117C1358.31 132.016 1362.87 131.465 1367.91 131.465C1372.95 131.465 1377.48 132.016 1381.52 133.117C1385.57 134.195 1389.02 135.801 1391.85 137.934C1394.69 140.066 1396.87 142.727 1398.39 145.914C1399.91 149.078 1400.68 152.734 1400.68 156.883ZM1387.49 156.883C1387.49 155.078 1387.2 153.285 1386.61 151.504C1386.05 149.699 1385.03 148.082 1383.55 146.652C1382.1 145.223 1380.11 144.062 1377.58 143.172C1375.05 142.281 1371.82 141.836 1367.91 141.836C1365.29 141.836 1362.98 142.047 1360.98 142.469C1358.99 142.867 1357.27 143.43 1355.82 144.156C1354.36 144.883 1353.14 145.738 1352.16 146.723C1351.18 147.684 1350.39 148.727 1349.8 149.852C1349.22 150.953 1348.8 152.113 1348.54 153.332C1348.3 154.527 1348.19 155.711 1348.19 156.883C1348.19 158.078 1348.3 159.285 1348.54 160.504C1348.8 161.723 1349.22 162.895 1349.8 164.02C1350.39 165.121 1351.18 166.152 1352.16 167.113C1353.14 168.074 1354.36 168.918 1355.82 169.645C1357.27 170.348 1358.99 170.91 1360.98 171.332C1362.98 171.73 1365.29 171.93 1367.91 171.93C1371.82 171.93 1375.05 171.484 1377.58 170.594C1380.11 169.703 1382.1 168.543 1383.55 167.113C1385.03 165.684 1386.05 164.078 1386.61 162.297C1387.2 160.492 1387.49 158.688 1387.49 156.883Z" fill="white"/>
<path d="M1323.05 162.438C1323.05 165.578 1322.28 168.379 1320.73 170.84C1319.18 173.301 1316.98 175.387 1314.12 177.098C1311.29 178.785 1307.84 180.074 1303.79 180.965C1299.75 181.855 1295.23 182.301 1290.21 182.301C1288.01 182.301 1285.69 182.207 1283.25 182.02C1280.84 181.855 1278.47 181.609 1276.15 181.281C1273.86 180.977 1271.7 180.625 1269.68 180.227C1267.67 179.805 1265.97 179.348 1264.59 178.855V167.395C1266.09 168.027 1267.75 168.625 1269.58 169.188C1271.43 169.75 1273.43 170.254 1275.59 170.699C1277.75 171.121 1280.05 171.461 1282.52 171.719C1285 171.953 1287.62 172.07 1290.39 172.07C1292.99 172.07 1295.28 171.918 1297.25 171.613C1299.24 171.309 1300.96 170.898 1302.41 170.383C1303.87 169.867 1305.07 169.281 1306.04 168.625C1307 167.945 1307.77 167.254 1308.36 166.551C1308.94 165.824 1309.35 165.109 1309.59 164.406C1309.84 163.703 1309.97 163.047 1309.97 162.438V158.184C1307.58 159.941 1304.73 161.395 1301.43 162.543C1298.12 163.668 1294.36 164.23 1290.14 164.23C1285.25 164.23 1281.16 163.762 1277.88 162.824C1274.62 161.863 1272 160.492 1270.04 158.711C1268.07 156.906 1266.66 154.715 1265.82 152.137C1265 149.559 1264.59 146.652 1264.59 143.418V132.695H1277.7V142.117C1277.7 144.016 1277.95 145.703 1278.44 147.18C1278.95 148.656 1279.75 149.898 1280.83 150.906C1281.93 151.891 1283.35 152.641 1285.08 153.156C1286.82 153.672 1288.91 153.93 1291.38 153.93C1293.46 153.93 1295.43 153.672 1297.28 153.156C1299.16 152.641 1300.88 151.961 1302.45 151.117C1304.02 150.273 1305.44 149.312 1306.7 148.234C1307.97 147.156 1309.06 146.055 1309.97 144.93V132.695H1323.05V162.438Z" fill="white"/>
<path d="M1142 344.5C1142 320.476 1161.48 301 1185.5 301C1209.52 301 1229 320.476 1229 344.5C1229 368.524 1209.52 388 1185.5 388C1161.48 388 1142 368.524 1142 344.5Z" fill="black"/>
<path d="M1080 0H1440V90H1080V0Z" fill="white"/>
</g>
</svg>
