<svg width="194" height="57" viewBox="0 0 194 57" fill="none" xmlns="http://www.w3.org/2000/svg">
<path d="M25.0003 0.890234C24.4944 0.597221 23.8469 0.769973 23.5539 1.27609C23.2611 1.7822 23.4336 2.43002 23.9396 2.72304L46.6105 15.8531V23.6527L40.9945 26.856V19.8761C40.9945 19.8501 40.9936 19.8241 40.9921 19.7985C40.9938 19.6154 40.9482 19.4298 40.8501 19.2598C40.7498 19.0859 40.6075 18.9512 40.4436 18.8612C40.4271 18.8505 40.4102 18.84 40.3932 18.8302L17.2693 5.37006C16.764 5.07595 16.1161 5.24727 15.822 5.75274C15.528 6.25823 15.6993 6.90641 16.2046 7.20054L22.3908 10.8015L20.1259 12.1636C19.6249 12.465 19.4628 13.1155 19.7641 13.6167C20.0653 14.1179 20.7156 14.28 21.2166 13.9787L24.4788 12.0168L37.8235 19.7846L24.6073 27.4143L11.1939 19.7801L17.0991 16.36C17.9008 15.8956 17.9046 14.7389 17.1059 14.2693L9.67302 9.89926C9.29464 9.67679 8.82549 9.67679 8.44711 9.89926L0.865322 14.3569C0.495599 14.5742 0.26855 14.9712 0.268555 15.4002L0.268761 42.1145C0.268765 42.6995 0.742681 43.1734 1.32728 43.1734C1.91188 43.1734 2.38578 42.6993 2.38578 42.1145L2.38558 15.9195L9.06008 11.9954L14.6923 15.3067L8.60515 18.8323C8.58554 18.8436 8.56632 18.8553 8.54752 18.8677C8.38659 18.9587 8.24746 19.0931 8.14939 19.2655C8.06961 19.4059 8.02536 19.5566 8.0138 19.7075C8.00571 19.7641 8.00155 19.8214 8.00155 19.8794L7.99988 46.6617C7.99985 47.2466 8.47373 47.7206 9.05832 47.7208C9.64292 47.7208 10.1169 47.2466 10.1169 46.6618L10.1173 39.5713L12.2565 40.8517C12.7581 41.1521 13.4081 40.9886 13.7083 40.4868C14.0085 39.9849 13.8451 39.3348 13.3435 39.0344L10.1175 37.1033L10.1185 21.6046L23.4765 29.2071L23.4766 44.8256L17.5552 41.3441C16.7488 40.8699 15.7325 41.4518 15.7325 42.3875V51.061C15.7325 51.4929 15.9626 51.892 16.3361 52.1085L23.9179 56.4994C24.293 56.7167 24.7554 56.7167 25.1305 56.4992L48.2541 43.0988C48.7601 42.8056 48.9325 42.1579 48.6395 41.6517C48.3465 41.1457 47.6989 40.9732 47.1929 41.2663L24.5239 54.4034L17.8495 50.5379V43.9736L23.9116 47.5377C24.2876 47.759 24.7537 47.7603 25.131 47.5415L40.5989 38.5755L40.5996 38.5752L48.2567 34.144C48.7628 33.8512 48.9357 33.2034 48.6429 32.6971C48.3503 32.1909 47.7027 32.0178 47.1967 32.3108L41.1275 35.823V33.293C41.1275 32.7083 40.6536 32.2341 40.069 32.2341C39.4844 32.2341 39.0104 32.7083 39.0104 33.293V37.0486L25.5936 44.8258L25.5935 29.2902L38.8774 21.6213V28.4181C38.8774 29.3468 39.88 29.9296 40.6863 29.4695L48.117 25.2312C48.4944 25.0159 48.7274 24.6146 48.7274 24.18V15.3298C48.7274 14.898 48.4974 14.4989 48.1238 14.2825L25.0003 0.890234Z" fill="white" fill-opacity="0.4"/>
<path d="M62.7046 29.6637V35.2557H59.9688V21.9817H62.7046V27.4042H68.6042V21.9817H71.3399V35.2557H68.6042V29.6637H62.7046Z" fill="white" fill-opacity="0.4"/>
<path d="M77.2872 29.9085L73.0811 22.1135V21.9817H75.91L78.7761 27.7055L81.642 21.9817H84.1546V22.1135L80.0229 29.7955V35.2557H77.2872V29.9085Z" fill="white" fill-opacity="0.4"/>
<path d="M88.6206 35.2557H85.9219V21.9817H90.2954C91.8712 21.9817 93.0996 22.3394 93.9805 23.0549C94.8737 23.7703 95.3204 24.8309 95.3204 26.2369C95.3204 27.6052 94.8861 28.6469 94.0176 29.3624C93.1616 30.0654 91.9952 30.4167 90.5188 30.4167H88.6206V35.2557ZM88.6206 28.421H90.3328C91.1639 28.421 91.7657 28.239 92.138 27.8749C92.5226 27.4983 92.7149 26.9335 92.7149 26.1805C92.7149 25.4649 92.5102 24.9378 92.1007 24.5988C91.7038 24.2599 91.0834 24.0904 90.2397 24.0904H88.6206V28.421Z" fill="white" fill-opacity="0.4"/>
<path d="M105.243 21.9817V24.0904H100.106V27.3855H104.536V29.4565H100.106V33.1469H105.299V35.2557H97.4077V21.9817H105.243Z" fill="white" fill-opacity="0.4"/>
<path d="M110.503 30.2662V35.2557H107.804V21.9817H112.364C113.952 21.9817 115.174 22.3332 116.03 23.036C116.899 23.739 117.333 24.7494 117.333 26.0674C117.333 26.9712 117.116 27.7306 116.682 28.3456C116.247 28.9607 115.633 29.4001 114.839 29.6637L118.208 35.0862V35.2557H115.342L112.327 30.2662H110.503ZM110.503 28.2515H112.215C113.865 28.2515 114.69 27.5298 114.69 26.0862C114.69 25.3834 114.485 24.8686 114.076 24.5422C113.667 24.2159 113.015 24.0528 112.122 24.0528H110.503V28.2515Z" fill="white" fill-opacity="0.4"/>
<path d="M123.145 28.5717C123.145 27.279 123.43 26.1115 124.001 25.0698C124.572 24.0278 125.366 23.212 126.383 22.6221C127.413 22.0321 128.586 21.7371 129.901 21.7371C131.216 21.7371 132.382 22.0321 133.4 22.6221C134.417 23.212 135.211 24.0278 135.782 25.0698C136.352 26.1115 136.638 27.279 136.638 28.5717C136.638 29.8647 136.352 31.0384 135.782 32.0928C135.211 33.1471 134.411 33.9819 133.381 34.5969C132.364 35.1994 131.203 35.5007 129.901 35.5007C128.586 35.5007 127.413 35.1994 126.383 34.5969C125.366 33.9819 124.572 33.1471 124.001 32.0928C123.43 31.0384 123.145 29.8647 123.145 28.5717ZM133.846 28.5717C133.846 27.6177 133.685 26.7893 133.362 26.0864C133.04 25.3836 132.581 24.8437 131.985 24.4672C131.39 24.0781 130.695 23.8835 129.901 23.8835C129.107 23.8835 128.412 24.0781 127.816 24.4672C127.221 24.8437 126.762 25.3836 126.439 26.0864C126.116 26.7893 125.955 27.6177 125.955 28.5717C125.955 29.5257 126.116 30.3669 126.439 31.0948C126.762 31.8103 127.221 32.3689 127.816 32.7705C128.412 33.1597 129.107 33.3543 129.901 33.3543C130.695 33.3543 131.39 33.1597 131.985 32.7705C132.581 32.3689 133.04 31.8103 133.362 31.0948C133.685 30.3669 133.846 29.5257 133.846 28.5717Z" fill="white" fill-opacity="0.4"/>
<path d="M141.527 30.2662V35.2557H138.828V21.9817H143.388C144.976 21.9817 146.198 22.3332 147.054 23.036C147.923 23.739 148.357 24.7494 148.357 26.0674C148.357 26.9712 148.14 27.7306 147.705 28.3456C147.271 28.9607 146.657 29.4001 145.863 29.6637L149.232 35.0862V35.2557H146.366L143.351 30.2662H141.527ZM141.527 28.2515H143.239C144.889 28.2515 145.714 27.5298 145.714 26.0862C145.714 25.3834 145.51 24.8686 145.1 24.5422C144.691 24.2159 144.039 24.0528 143.146 24.0528H141.527V28.2515Z" fill="white" fill-opacity="0.4"/>
<path d="M153.568 32.2996L152.545 35.2557H150.069V35.1239L154.945 21.9817H157.551L162.427 35.1239V35.2557H159.617L158.593 32.2996H153.568ZM154.257 30.3039H157.904L156.081 25.0506L154.257 30.3039Z" fill="white" fill-opacity="0.4"/>
<path d="M162.874 28.5717C162.874 27.2413 163.172 26.0614 163.767 25.0321C164.363 23.9902 165.194 23.1805 166.261 22.6031C167.328 22.0258 168.538 21.7371 169.89 21.7371C170.709 21.7371 171.398 21.7999 171.956 21.9253C172.527 22.0509 173.067 22.2455 173.575 22.509V24.8814L173.482 24.938C172.998 24.599 172.489 24.348 171.956 24.1848C171.435 24.0091 170.827 23.9212 170.132 23.9212C169.239 23.9212 168.457 24.1094 167.787 24.486C167.117 24.8626 166.596 25.4023 166.224 26.1053C165.864 26.8083 165.684 27.6303 165.684 28.5717C165.684 29.5132 165.87 30.3417 166.243 31.0571C166.615 31.7726 167.148 32.3249 167.843 32.7141C168.538 33.1032 169.344 33.2978 170.263 33.2978C171.007 33.2978 171.652 33.1974 172.198 32.9966C172.744 32.7831 173.284 32.4567 173.817 32.0175L173.929 32.0739V34.4275C173.446 34.7664 172.898 35.03 172.291 35.2182C171.696 35.4066 170.939 35.5007 170.021 35.5007C168.619 35.5007 167.372 35.2056 166.28 34.6157C165.2 34.0257 164.363 33.2035 163.767 32.1492C163.172 31.0948 162.874 29.9023 162.874 28.5717Z" fill="white" fill-opacity="0.4"/>
<path d="M178.987 21.9817V33.0528H183.9V35.2557H176.251V21.9817H178.987Z" fill="white" fill-opacity="0.4"/>
<path d="M193.937 21.9817V24.0904H188.799V27.3855H193.228V29.4565H188.799V33.1469H193.992V35.2557H186.1V21.9817H193.937Z" fill="white" fill-opacity="0.4"/>
</svg>
