<svg width="144" height="48" viewBox="0 0 144 48" fill="none" xmlns="http://www.w3.org/2000/svg">
<path d="M76.1024 19.1781H80.0551V11.2663L86.0039 0.467759H81.4617L76.1024 10.4644V19.1781ZM72.6323 8.66021H77.0672L72.6323 0.467759H68.1841L72.6323 8.66021ZM63.8698 6.93619C63.8698 8.86069 62.8247 9.79621 60.8285 9.79621H57.0099V4.16974H60.6945C62.6907 4.16974 63.8698 5.01169 63.8698 6.93619ZM52.9234 19.1781H57.0099V13.4982H60.8285C61.0563 13.4982 61.284 13.4848 61.5118 13.4714L64.4996 19.1781H68.8674L65.2097 12.3087C66.9514 11.1193 67.7955 9.15469 67.7955 6.93619C67.7955 3.31441 65.558 0.467759 60.6945 0.467759H52.9234V19.1781ZM47.2828 9.79621H45.4471C45.4471 12.2152 43.6384 14.006 41.3739 14.006V15.837C38.0513 15.837 35.6396 13.0972 35.6396 9.79621C35.6396 6.22786 37.7833 3.83561 41.3739 3.83561C44.6968 3.83561 47.2828 6.36151 47.2828 9.79621ZM41.3739 19.6058V17.6813C45.7284 17.6813 48.9977 14.3001 48.9977 9.79621H51.0075C51.0075 4.46375 46.854 0 41.3739 0C35.4921 0 31.7004 4.07619 31.7004 9.79621C31.7004 15.1286 35.8941 19.6058 41.3739 19.6058ZM21.6651 19.1781H25.7918V4.15636H31.7272V0.454394H15.743V4.15636H21.6651V19.1781ZM7.48967 19.6058C11.5896 19.6058 14.9123 17.1467 14.9123 13.0304C14.9123 9.15469 12.0049 6.45506 7.47627 6.45506V9.30172C5.38613 9.30172 3.85871 8.39291 3.85871 6.50853C3.85871 4.70432 5.18515 3.51487 7.58346 3.51487C9.553 3.51487 10.7455 4.3301 11.0402 5.39927H14.6846C14.4032 2.41899 11.5896 0 7.50305 0C3.18879 0 0.120585 2.68628 0.120585 6.61544C0.120585 10.6114 3.30938 12.8968 7.47627 12.8968V10.1838C9.68699 10.1838 11.201 11.1727 11.201 13.0972C11.201 15.0485 9.6468 16.1043 7.48967 16.1043C5.54692 16.1043 4.19367 15.2489 3.77833 14.0729H0C0.535932 17.1734 3.38979 19.6058 7.48967 19.6058ZM113.269 37.7148C113.269 34.0796 115.561 31.6873 119.031 31.6873C122.501 31.6873 124.792 34.0796 124.792 37.7148C124.792 41.3498 122.501 43.742 119.031 43.742C115.561 43.742 113.269 41.3498 113.269 37.7148ZM109.357 37.7148C109.357 43.4749 113.336 47.511 119.031 47.511C124.725 47.511 128.704 43.4749 128.704 37.7148C128.704 31.9545 124.725 27.9186 119.031 27.9186C113.336 27.9186 109.357 31.9545 109.357 37.7148ZM72.8468 37.7281C72.8468 34.0929 75.1378 31.7006 78.6079 31.7006C82.078 31.7006 84.3693 34.0929 84.3693 37.7281C84.3693 41.3632 82.078 43.7555 78.6079 43.7555C75.1378 43.7555 72.8468 41.3632 72.8468 37.7281ZM68.9344 37.7281C68.9344 43.4881 72.9138 47.5243 78.6079 47.5243C84.3023 47.5243 88.2817 43.4881 88.2817 37.7281C88.2817 31.968 84.3023 27.9319 78.6079 27.9319C72.9138 27.9319 68.9344 31.968 68.9344 37.7281ZM37.3947 37.7148C37.3947 34.0796 39.6858 31.6873 43.1561 31.6873C46.6262 31.6873 48.9172 34.0796 48.9172 37.7148C48.9172 41.3498 46.6262 43.742 43.1561 43.742C39.6858 43.742 37.3947 41.3498 37.3947 37.7148ZM33.4823 37.7148C33.4823 43.4749 37.4618 47.511 43.1561 47.511C48.8502 47.511 52.8296 43.4749 52.8296 37.7148C52.8296 31.9545 48.8502 27.9186 43.1561 27.9186C37.4618 27.9186 33.4823 31.9545 33.4823 37.7148ZM4.35446 37.7148V32.0883H7.63704C9.6334 32.0883 10.8125 32.9302 10.8125 34.8548C10.8125 36.7793 9.76737 37.7148 7.77103 37.7148H4.35446ZM0.267966 47.0965H4.35446V41.4168H7.77103C12.5006 41.4168 14.7382 38.4765 14.7382 34.8548C14.7382 31.2329 12.5006 28.3863 7.63704 28.3863H0.267966V47.0965ZM130.888 47.0965H143.429V42.9936H135.015V28.3728H130.888V47.0965ZM58.8991 47.0965H63.0257V32.0748H68.9611V28.3728H52.9769V32.0748H58.8991V47.0965ZM27.7612 34.8548C27.7612 36.7793 26.7163 37.7148 24.7199 37.7148H20.9014V32.0883H24.5859C26.5823 32.0883 27.7612 32.9302 27.7612 34.8548ZM16.8149 47.0965H20.9014V41.4168H24.7199C24.9477 41.4168 25.1754 41.4033 25.4032 41.39L28.391 47.0965H32.759L29.1011 40.2271C30.843 39.0378 31.6871 37.0732 31.6871 34.8548C31.6871 31.2329 29.4494 28.3863 24.5859 28.3863H16.8149V47.0965ZM99.3889 47.5243C104.185 47.5243 107.575 44.5307 108.165 40.0668H104.212C103.69 42.3923 101.841 43.7555 99.2951 43.7555C95.9723 43.7555 93.882 41.3632 93.882 37.7148C93.882 34.0661 95.9855 31.7541 99.2549 31.7541C101.8 31.7541 103.529 33.1039 104.078 35.3625H108.031C107.254 30.9389 103.77 27.9186 99.1744 27.9186C93.7748 27.9186 89.9699 32.0748 89.9699 37.7281C89.9699 43.3545 93.7348 47.5243 99.3889 47.5243Z" fill="black"/>
</svg>
