<svg width="234" height="39" viewBox="0 0 234 39" fill="none" xmlns="http://www.w3.org/2000/svg">
<path d="M62.7299 29.0806C61.6308 29.0806 60.5713 28.9726 59.5511 28.7568C58.5502 28.541 57.6575 28.1976 56.8727 27.7267C56.0878 27.2361 55.46 26.6082 54.989 25.843C54.5377 25.0777 54.312 24.1359 54.312 23.0174C54.312 22.9193 54.312 22.8212 54.312 22.7231C54.3316 22.625 54.3413 22.5269 54.3413 22.4288H57.1669C57.1669 22.4876 57.1572 22.5858 57.1376 22.7231C57.1376 22.8408 57.1376 22.9487 57.1376 23.0469C57.1376 23.8317 57.3729 24.4989 57.8439 25.0483C58.3149 25.5977 58.9623 26.0098 59.7865 26.2845C60.6302 26.5395 61.5819 26.6671 62.6414 26.6671C63.1123 26.6671 63.603 26.6377 64.1132 26.5788C64.6428 26.5199 65.1431 26.4218 65.6141 26.2845C66.1047 26.1275 66.5364 25.9313 66.9092 25.6958C67.3016 25.4407 67.6059 25.1366 67.8216 24.7834C68.0572 24.4106 68.1747 23.9593 68.1747 23.4295C68.1747 22.7623 67.9787 22.2129 67.5862 21.7813C67.2134 21.3299 66.7128 20.967 66.0851 20.6923C65.4573 20.3979 64.741 20.1429 63.9365 19.927C63.1516 19.6915 62.3374 19.4659 61.4937 19.25C60.6499 19.0342 59.8257 18.7889 59.0212 18.5142C58.2364 18.2199 57.53 17.8667 56.902 17.4547C56.2742 17.023 55.7639 16.4932 55.3715 15.8653C54.9987 15.2374 54.8123 14.4722 54.8123 13.5696C54.8123 12.7258 54.9791 11.9704 55.3126 11.3032C55.6657 10.6361 56.176 10.0769 56.843 9.62557C57.53 9.15465 58.3738 8.80146 59.3744 8.566C60.3753 8.3109 61.523 8.18335 62.8181 8.18335C63.8776 8.18335 64.8588 8.30108 65.7612 8.53654C66.6835 8.7524 67.488 9.09577 68.1747 9.56669C68.881 10.018 69.4306 10.5968 69.823 11.3032C70.2154 12.0096 70.4118 12.8631 70.4118 13.8639V14.2171H67.6451V13.7756C67.6451 13.1084 67.4391 12.5394 67.027 12.0685C66.615 11.5976 66.0458 11.2346 65.3198 10.9795C64.6135 10.7244 63.809 10.5968 62.9063 10.5968C61.729 10.5968 60.7481 10.7146 59.9632 10.95C59.1783 11.1659 58.5895 11.4896 58.1971 11.9213C57.8243 12.3334 57.6379 12.8043 57.6379 13.3341C57.6379 13.9424 57.8243 14.4525 58.1971 14.8646C58.5895 15.2766 59.0998 15.62 59.7275 15.8947C60.3556 16.1498 61.0716 16.3853 61.8761 16.6011C62.6806 16.8169 63.4951 17.0426 64.3193 17.278C65.1627 17.4939 65.9772 17.749 66.7621 18.0433C67.5666 18.318 68.2826 18.6712 68.9106 19.1029C69.5581 19.515 70.0683 20.0447 70.4411 20.6923C70.8139 21.3202 71.0003 22.0952 71.0003 23.0174C71.0003 24.4498 70.6471 25.6173 69.9408 26.5199C69.2345 27.4029 68.2629 28.0504 67.027 28.4625C65.7908 28.8745 64.3582 29.0806 62.7299 29.0806Z" fill="white" fill-opacity="0.4"/>
<path d="M87.7048 28.7272V10.9793H80.7881V8.53638H97.4764V10.9793H90.5011V28.7272H87.7048Z" fill="white" fill-opacity="0.4"/>
<path d="M108.253 28.7272V8.53638H118.879C120.252 8.53638 121.39 8.79148 122.293 9.30164C123.215 9.79217 123.902 10.4888 124.353 11.3914C124.804 12.2743 125.03 13.2947 125.03 14.4524C125.03 15.8455 124.716 17.0424 124.088 18.0431C123.46 19.0439 122.597 19.76 121.498 20.1917L125.737 28.7272H122.675L118.731 20.6921H111.049V28.7272H108.253ZM111.049 18.308H118.614C119.732 18.308 120.605 17.9647 121.233 17.2779C121.881 16.5911 122.205 15.6493 122.205 14.4524C122.205 13.7067 122.067 13.0788 121.793 12.5687C121.518 12.0585 121.116 11.6661 120.586 11.3914C120.056 11.097 119.399 10.9499 118.614 10.9499H111.049V18.308Z" fill="white" fill-opacity="0.4"/>
<path d="M134.957 28.7272L142.934 8.53638H146.613L154.618 28.7272H151.587L149.615 23.7237H139.784L137.842 28.7272H134.957ZM140.696 21.3396H148.673L146.23 15.0116C146.171 14.835 146.083 14.5897 145.965 14.2758C145.847 13.9618 145.72 13.6184 145.582 13.2456C145.445 12.8532 145.308 12.4608 145.17 12.0683C145.033 11.6562 144.905 11.2835 144.788 10.9499H144.611C144.474 11.3423 144.317 11.7936 144.14 12.3038C143.963 12.8139 143.787 13.3143 143.61 13.8049C143.434 14.2758 143.287 14.678 143.169 15.0116L140.696 21.3396Z" fill="white" fill-opacity="0.4"/>
<path d="M167.375 28.7272V10.9793H160.458V8.53638H177.147V10.9793H170.171V28.7272H167.375Z" fill="white" fill-opacity="0.4"/>
<path d="M196.299 29.0806C194.2 29.0806 192.394 28.6979 190.884 27.9327C189.392 27.1674 188.235 26.0098 187.411 24.4596C186.606 22.9095 186.204 20.967 186.204 18.632C186.204 16.2774 186.606 14.3348 187.411 12.8043C188.235 11.2542 189.392 10.0965 190.884 9.33123C192.394 8.566 194.2 8.18335 196.299 8.18335C198.399 8.18335 200.194 8.566 201.685 9.33123C203.196 10.0965 204.354 11.2542 205.158 12.8043C205.982 14.3348 206.395 16.2774 206.395 18.632C206.395 20.967 205.982 22.9095 205.158 24.4596C204.354 26.0098 203.196 27.1674 201.685 27.9327C200.194 28.6979 198.399 29.0806 196.299 29.0806ZM196.299 26.6671C197.398 26.6671 198.389 26.5199 199.272 26.2256C200.174 25.9313 200.93 25.4701 201.538 24.8423C202.166 24.1948 202.647 23.3902 202.98 22.4288C203.314 21.4477 203.481 20.29 203.481 18.9557V18.3376C203.481 16.9837 203.314 15.826 202.98 14.8646C202.647 13.8835 202.166 13.079 201.538 12.4511C200.93 11.8036 200.174 11.3326 199.272 11.0383C198.389 10.744 197.398 10.5968 196.299 10.5968C195.181 10.5968 194.18 10.744 193.297 11.0383C192.414 11.3326 191.658 11.8036 191.031 12.4511C190.403 13.079 189.922 13.8835 189.588 14.8646C189.275 15.826 189.117 16.9837 189.117 18.3376V18.9557C189.117 20.29 189.275 21.4477 189.588 22.4288C189.922 23.3902 190.403 24.1948 191.031 24.8423C191.658 25.4701 192.414 25.9313 193.297 26.2256C194.18 26.5199 195.181 26.6671 196.299 26.6671Z" fill="white" fill-opacity="0.4"/>
<path d="M225.49 29.0806C224.392 29.0806 223.332 28.9726 222.312 28.7568C221.311 28.541 220.418 28.1976 219.633 27.7267C218.849 27.2361 218.22 26.6082 217.749 25.843C217.298 25.0777 217.073 24.1359 217.073 23.0174C217.073 22.9193 217.073 22.8212 217.073 22.7231C217.092 22.625 217.102 22.5269 217.102 22.4288H219.928C219.928 22.4876 219.918 22.5858 219.898 22.7231C219.898 22.8408 219.898 22.9487 219.898 23.0469C219.898 23.8317 220.134 24.4989 220.605 25.0483C221.075 25.5977 221.723 26.0098 222.547 26.2845C223.391 26.5395 224.343 26.6671 225.402 26.6671C225.873 26.6671 226.363 26.6377 226.874 26.5788C227.404 26.5199 227.904 26.4218 228.375 26.2845C228.865 26.1275 229.297 25.9313 229.67 25.6958C230.062 25.4407 230.366 25.1366 230.582 24.7834C230.818 24.4106 230.935 23.9593 230.935 23.4295C230.935 22.7623 230.739 22.2129 230.347 21.7813C229.974 21.3299 229.474 20.967 228.846 20.6923C228.218 20.3979 227.502 20.1429 226.697 19.927C225.912 19.6915 225.098 19.4659 224.254 19.25C223.41 19.0342 222.586 18.7889 221.782 18.5142C220.997 18.2199 220.29 17.8667 219.663 17.4547C219.035 17.023 218.525 16.4932 218.132 15.8653C217.759 15.2374 217.573 14.4722 217.573 13.5696C217.573 12.7258 217.74 11.9704 218.073 11.3032C218.426 10.6361 218.937 10.0769 219.604 9.62557C220.29 9.15465 221.134 8.80146 222.135 8.566C223.136 8.3109 224.284 8.18335 225.579 8.18335C226.638 8.18335 227.619 8.30108 228.522 8.53654C229.444 8.7524 230.249 9.09577 230.935 9.56669C231.642 10.018 232.191 10.5968 232.584 11.3032C232.976 12.0096 233.172 12.8631 233.172 13.8639V14.2171H230.406V13.7756C230.406 13.1084 230.2 12.5394 229.787 12.0685C229.375 11.5976 228.807 11.2346 228.081 10.9795C227.374 10.7244 226.569 10.5968 225.667 10.5968C224.49 10.5968 223.508 10.7146 222.724 10.95C221.939 11.1659 221.35 11.4896 220.958 11.9213C220.585 12.3334 220.399 12.8043 220.399 13.3341C220.399 13.9424 220.585 14.4525 220.958 14.8646C221.35 15.2766 221.86 15.62 222.488 15.8947C223.116 16.1498 223.832 16.3853 224.637 16.6011C225.441 16.8169 226.256 17.0426 227.08 17.278C227.923 17.4939 228.738 17.749 229.522 18.0433C230.327 18.318 231.043 18.6712 231.671 19.1029C232.319 19.515 232.829 20.0447 233.202 20.6923C233.575 21.3202 233.761 22.0952 233.761 23.0174C233.761 24.4498 233.408 25.6173 232.701 26.5199C231.995 27.4029 231.024 28.0504 229.787 28.4625C228.551 28.8745 227.119 29.0806 225.49 29.0806Z" fill="white" fill-opacity="0.4"/>
<path fill-rule="evenodd" clip-rule="evenodd" d="M28.6241 28.879C28.6241 32.2126 25.9286 34.91 22.6098 34.91C19.2912 34.91 16.5958 32.2126 16.5958 28.879C16.5958 27.9239 16.816 27.0241 17.2075 26.2246L14.6708 24.1521L14.6119 24.117C13.7832 25.5121 13.3077 27.1425 13.3077 28.879C13.3077 34.0241 17.4696 38.1999 22.6098 38.1999C27.7501 38.1999 31.9121 34.0241 31.9121 28.879C31.9121 23.7338 27.7501 19.5579 22.6098 19.5579H0L5.98619 24.3098V22.8477H22.6098C25.9286 22.8477 28.6241 25.5451 28.6241 28.879Z" fill="white" fill-opacity="0.4"/>
<path fill-rule="evenodd" clip-rule="evenodd" d="M16.0532 9.32098C16.0532 5.98722 18.7485 3.28975 22.0673 3.28975C25.3861 3.28975 28.0815 5.98722 28.0815 9.32098C28.0815 10.276 27.8613 11.1757 27.4697 11.9753L30.0064 14.0478L30.0653 14.0829C30.894 12.6878 31.3695 11.0575 31.3695 9.32098C31.3695 4.17594 27.2076 0 22.0673 0C16.927 0 12.7651 4.17594 12.7651 9.32098C12.7651 14.466 16.927 18.6419 22.0673 18.6419H44.6772L38.6912 13.8901V15.3522H22.0673C18.7485 15.3522 16.0532 12.6547 16.0532 9.32098Z" fill="white" fill-opacity="0.4"/>
</svg>
