<svg width="1148" height="457" viewBox="0 0 1148 457" fill="none" xmlns="http://www.w3.org/2000/svg">
<rect y="60" width="89" height="37" fill="black"/>
<rect x="703" y="337" width="89" height="37" transform="rotate(-180 703 337)" fill="black"/>
<rect x="271" y="60" width="37" height="37" fill="black"/>
<rect x="127" y="60" width="37" height="37" fill="black"/>
<rect x="201" y="60" width="70" height="37" fill="white"/>
<rect x="164" y="60" width="18" height="18" fill="black"/>
<rect x="182" y="78" width="19" height="19" fill="black"/>
<rect x="1148" y="397" width="89" height="37" transform="rotate(-180 1148 397)" fill="black"/>
<rect y="60" width="18" height="18" fill="white"/>
<rect x="18" y="78" width="19" height="19" fill="white"/>
<rect x="703" y="337" width="18" height="18" transform="rotate(-180 703 337)" fill="white"/>
<rect x="685" y="319" width="19" height="19" transform="rotate(-180 685 319)" fill="white"/>
<rect x="89" y="60" width="13" height="13" fill="black"/>
<rect x="102" y="73" width="12" height="11" fill="black"/>
<rect x="89" y="84" width="13" height="13" fill="black"/>
<rect x="114" y="84" width="13" height="13" fill="black"/>
<rect x="114" y="60" width="13" height="13" fill="black"/>
<rect x="877" y="397" width="179" height="37" transform="rotate(-180 877 397)" fill="black"/>
<rect x="1021" y="397" width="37" height="37" transform="rotate(-180 1021 397)" fill="black"/>
<rect x="947" y="397" width="70" height="37" transform="rotate(-180 947 397)" fill="white"/>
<rect x="811" y="337" width="70" height="37" transform="rotate(-180 811 337)" fill="white"/>
<rect x="984" y="397" width="18" height="18" transform="rotate(-180 984 397)" fill="black"/>
<rect x="966" y="379" width="19" height="19" transform="rotate(-180 966 379)" fill="black"/>
<rect width="18" height="18" transform="matrix(-1 0 0 1 705 0)" fill="black"/>
<rect width="19" height="19" transform="matrix(-1 0 0 1 687 18)" fill="black"/>
<rect width="18" height="18" transform="matrix(1 8.74228e-08 8.74228e-08 -1 118 457)" fill="black"/>
<rect width="19" height="19" transform="matrix(1 8.74228e-08 8.74228e-08 -1 136 439)" fill="black"/>
<rect x="1148" y="397" width="18" height="18" transform="rotate(-180 1148 397)" fill="white"/>
<rect x="1130" y="379" width="19" height="19" transform="rotate(-180 1130 379)" fill="white"/>
<rect x="1059" y="397" width="13" height="13" transform="rotate(-180 1059 397)" fill="black"/>
<rect x="1046" y="384" width="12" height="11" transform="rotate(-180 1046 384)" fill="black"/>
<rect x="1059" y="373" width="13" height="13" transform="rotate(-180 1059 373)" fill="black"/>
<rect x="1034" y="373" width="13" height="13" transform="rotate(-180 1034 373)" fill="black"/>
<rect x="1034" y="397" width="13" height="13" transform="rotate(-180 1034 397)" fill="black"/>
<rect x="631" y="180" width="72" height="37" fill="black"/>
<rect x="698" y="240" width="246" height="37" fill="black"/>
<rect x="991" y="180" width="120" height="37" fill="black"/>
<rect x="797" y="60" width="39" height="37" fill="black"/>
<rect x="811" y="300" width="39" height="37" fill="black"/>
<rect x="474" width="157" height="37" fill="black"/>
<rect x="631" width="37" height="37" fill="white"/>
<rect x="38" y="361" width="83" height="37" fill="black"/>
<rect x="349" y="457" width="157" height="37" transform="rotate(-180 349 457)" fill="black"/>
<rect x="548" width="13" height="13" fill="white"/>
<rect x="561" y="13" width="12" height="11" fill="white"/>
<rect x="548" y="24" width="13" height="13" fill="white"/>
<rect x="573" y="24" width="13" height="13" fill="white"/>
<rect x="573" width="13" height="13" fill="white"/>
<rect x="192" y="457" width="37" height="37" transform="rotate(-180 192 457)" fill="white"/>
<rect y="240" width="37" height="37" fill="black"/>
<rect x="850" y="60" width="13" height="13" fill="black"/>
<rect x="863" y="73" width="12" height="11" fill="black"/>
<rect x="850" y="84" width="13" height="13" fill="black"/>
<rect x="875" y="84" width="13" height="13" fill="black"/>
<rect x="875" y="60" width="13" height="13" fill="black"/>
<rect x="703" y="300" width="13" height="13" fill="black"/>
<rect x="716" y="313" width="12" height="11" fill="black"/>
<rect x="703" y="324" width="13" height="13" fill="black"/>
<rect x="728" y="324" width="13" height="13" fill="black"/>
<rect x="728" y="300" width="13" height="13" fill="black"/>
<rect x="275" y="457" width="13" height="13" transform="rotate(-180 275 457)" fill="white"/>
<rect x="262" y="444" width="12" height="11" transform="rotate(-180 262 444)" fill="white"/>
<rect x="275" y="433" width="13" height="13" transform="rotate(-180 275 433)" fill="white"/>
<rect x="250" y="433" width="13" height="13" transform="rotate(-180 250 433)" fill="white"/>
<rect x="250" y="457" width="13" height="13" transform="rotate(-180 250 457)" fill="white"/>
<rect y="361" width="13" height="13" fill="black"/>
<rect x="13" y="374" width="12" height="11" fill="black"/>
<rect y="385" width="13" height="13" fill="black"/>
<rect x="25" y="385" width="13" height="13" fill="black"/>
<rect x="25" y="361" width="13" height="13" fill="black"/>
<rect width="18" height="18" transform="matrix(-1 0 0 1 668 180)" fill="white"/>
<rect width="19" height="19" transform="matrix(-1 0 0 1 650 198)" fill="white"/>
<rect x="698" y="240" width="13" height="13" fill="white"/>
<rect x="711" y="253" width="12" height="11" fill="white"/>
<rect x="698" y="264" width="13" height="13" fill="white"/>
<rect x="723" y="264" width="13" height="13" fill="white"/>
<rect x="723" y="240" width="13" height="13" fill="white"/>
<rect x="819" y="240" width="18" height="18" fill="white"/>
<rect x="837" y="258" width="19" height="19" fill="white"/>
<rect x="1111" y="180" width="18" height="18" fill="black"/>
<rect x="1129" y="198" width="19" height="19" fill="black"/>
<rect x="577" y="300" width="18" height="18" fill="black"/>
<rect x="595" y="318" width="19" height="19" fill="black"/>
</svg>
