<svg width="547" height="540" viewBox="0 0 547 540" fill="none" xmlns="http://www.w3.org/2000/svg">
<path d="M159.588 191.761L160.351 191.494L160.548 190.71L190.531 71.1385L190.64 70.7025L190.491 70.2783L182.781 48.2368L182.286 46.821L180.87 47.3162L62.4071 88.7548L60.9912 89.2501L61.4865 90.6659L70.5626 116.612L71.0579 118.028L72.4737 117.533L150.48 90.2465L121.893 202.479L121.203 205.188L123.842 204.265L159.588 191.761Z" fill="white" stroke="black" stroke-width="3"/>
<path d="M269.581 488.859L270.188 489.392L270.968 489.178L389.847 456.557L390.28 456.438L390.577 456.101L405.988 438.558L406.978 437.431L405.851 436.441L311.564 353.612L310.437 352.622L309.447 353.749L291.306 374.4L290.316 375.527L291.443 376.517L353.529 431.058L241.728 461.29L239.03 462.02L241.13 463.865L269.581 488.859Z" fill="#2B8BFC" stroke="black" stroke-width="3"/>
<path d="M148.686 183.029L149.449 182.762L149.645 181.978L179.628 62.4065L179.738 61.9706L179.589 61.5464L171.879 39.5049L171.384 38.089L169.968 38.5843L51.5047 80.0228L50.0888 80.5181L50.5841 81.934L59.6602 107.88L60.1555 109.296L61.5714 108.801L139.577 81.5146L110.991 193.747L110.3 196.456L112.939 195.533L148.686 183.029Z" fill="#2B8BFC" stroke="black" stroke-width="3"/>
<path d="M273.374 474.12L273.981 474.654L274.761 474.44L393.64 441.819L394.073 441.7L394.37 441.362L409.781 423.819L410.771 422.692L409.644 421.702L315.357 338.873L314.23 337.883L313.24 339.01L295.099 359.662L294.109 360.788L295.236 361.778L357.322 416.32L245.521 446.552L242.823 447.282L244.923 449.127L273.374 474.12Z" fill="white" stroke="black" stroke-width="3"/>
<path d="M352.614 233.97L352.62 233.965C359.104 228.306 364.191 221.514 367.876 213.602C371.634 205.598 373.5 196.722 373.5 187C373.5 177.279 371.634 168.432 367.875 160.485C364.191 152.516 359.104 145.722 352.616 140.12C346.136 134.467 338.51 130.135 329.758 127.115C320.999 124.034 311.605 122.5 301.587 122.5C294.871 122.5 288.437 123.179 282.289 124.54C276.146 125.9 270.378 127.883 264.987 130.492L264.981 130.495C259.646 133.107 254.779 136.315 250.385 140.119C246.044 143.87 242.324 148.13 239.229 152.897C236.129 157.672 233.721 162.944 232 168.708L232 168.708L231.997 168.718C230.329 174.442 229.5 180.539 229.5 187C229.5 193.518 230.329 199.644 231.997 205.37L231.999 205.377L232.001 205.384C233.723 211.089 236.131 216.331 239.229 221.103C242.322 225.868 246.04 230.155 250.377 233.962L250.385 233.969L250.394 233.976C254.786 237.719 259.65 240.896 264.981 243.505L264.987 243.508C270.378 246.118 276.146 248.101 282.289 249.461C288.437 250.822 294.871 251.5 301.587 251.5C311.603 251.5 320.996 249.996 329.754 246.974L329.763 246.971C338.511 243.894 346.135 239.563 352.614 233.97ZM327.119 160.309L327.128 160.317C330.503 163.363 333.198 167.111 335.208 171.582C337.195 176.003 338.209 181.132 338.209 187C338.209 192.869 337.195 197.997 335.208 202.418C333.198 206.889 330.504 210.636 327.129 213.683C323.798 216.684 319.935 218.997 315.526 220.618C311.111 222.184 306.468 222.969 301.587 222.969C296.706 222.969 292.032 222.184 287.556 220.616C283.091 218.995 279.172 216.683 275.784 213.683C272.467 210.636 269.77 206.886 267.702 202.411C265.717 197.991 264.704 192.865 264.704 187C264.704 181.135 265.717 176.009 267.702 171.589C269.771 167.112 272.469 163.361 275.789 160.313C279.175 157.258 283.09 154.949 287.548 153.387C292.026 151.818 296.703 151.031 301.587 151.031C306.471 151.031 311.117 151.818 315.534 153.385C319.933 154.946 323.79 157.254 327.119 160.309Z" fill="#2B8BFC" stroke="black" stroke-width="3"/>
<path d="M258.614 385.97L258.62 385.965C265.104 380.306 270.191 373.514 273.876 365.602C277.634 357.598 279.5 348.722 279.5 339C279.5 329.279 277.634 320.432 273.875 312.485C270.191 304.516 265.104 297.722 258.616 292.12C252.136 286.467 244.51 282.135 235.758 279.115C226.999 276.034 217.605 274.5 207.587 274.5C200.871 274.5 194.437 275.179 188.289 276.54C182.146 277.9 176.378 279.883 170.987 282.492L170.981 282.495C165.646 285.107 160.779 288.315 156.385 292.119C152.044 295.87 148.324 300.13 145.229 304.897C142.129 309.672 139.721 314.944 138 320.708L138 320.708L137.997 320.718C136.329 326.442 135.5 332.539 135.5 339C135.5 345.518 136.329 351.644 137.997 357.37L137.999 357.377L138.001 357.384C139.723 363.089 142.131 368.331 145.229 373.103C148.322 377.868 152.04 382.155 156.377 385.962L156.385 385.969L156.394 385.976C160.786 389.719 165.65 392.896 170.981 395.505L170.987 395.508C176.378 398.118 182.146 400.101 188.289 401.461C194.437 402.822 200.871 403.5 207.587 403.5C217.603 403.5 226.996 401.996 235.754 398.974L235.763 398.971C244.511 395.894 252.135 391.563 258.614 385.97ZM233.119 312.309L233.128 312.317C236.503 315.363 239.198 319.111 241.208 323.582C243.195 328.003 244.209 333.132 244.209 339C244.209 344.869 243.195 349.997 241.208 354.418C239.198 358.889 236.504 362.636 233.129 365.683C229.798 368.684 225.935 370.997 221.526 372.618C217.111 374.184 212.468 374.969 207.587 374.969C202.706 374.969 198.032 374.184 193.556 372.616C189.091 370.995 185.172 368.683 181.784 365.683C178.467 362.636 175.77 358.886 173.702 354.411C171.717 349.991 170.704 344.865 170.704 339C170.704 333.135 171.717 328.009 173.702 323.589C175.771 319.112 178.469 315.361 181.789 312.313C185.175 309.258 189.09 306.949 193.548 305.387C198.026 303.818 202.703 303.031 207.587 303.031C212.471 303.031 217.117 303.818 221.534 305.385C225.933 306.946 229.79 309.254 233.119 312.309Z" fill="white" stroke="black" stroke-width="3"/>
<path d="M342.786 222.97L342.792 222.965C349.277 217.306 354.364 210.514 358.049 202.602C361.807 194.598 363.673 185.722 363.673 176C363.673 166.279 361.807 157.432 358.048 149.485C354.364 141.516 349.277 134.722 342.789 129.12C336.309 123.467 328.683 119.135 319.931 116.115C311.172 113.034 301.778 111.5 291.76 111.5C285.044 111.5 278.61 112.179 272.462 113.54C266.319 114.9 260.551 116.883 255.16 119.492L255.154 119.495C249.819 122.107 244.952 125.315 240.558 129.119C236.217 132.87 232.497 137.13 229.402 141.897C226.302 146.672 223.894 151.944 222.173 157.708L222.173 157.708L222.17 157.718C220.502 163.442 219.673 169.539 219.673 176C219.673 182.518 220.502 188.644 222.17 194.37L222.172 194.377L222.174 194.384C223.895 200.089 226.304 205.331 229.402 210.103C232.495 214.868 236.213 219.155 240.55 222.962L240.558 222.969L240.567 222.976C244.959 226.719 249.823 229.896 255.154 232.505L255.16 232.508C260.551 235.118 266.319 237.101 272.462 238.461C278.61 239.822 285.044 240.5 291.76 240.5C301.776 240.5 311.169 238.996 319.927 235.974L319.935 235.971C328.684 232.894 336.308 228.563 342.786 222.97ZM317.292 149.309L317.301 149.317C320.676 152.363 323.371 156.111 325.381 160.582C327.368 165.003 328.382 170.132 328.382 176C328.382 181.869 327.368 186.997 325.381 191.418C323.371 195.889 320.677 199.636 317.302 202.683C313.971 205.684 310.108 207.997 305.699 209.618C301.284 211.184 296.641 211.969 291.76 211.969C286.879 211.969 282.205 211.184 277.729 209.616C273.264 207.995 269.345 205.683 265.957 202.683C262.64 199.636 259.943 195.886 257.875 191.411C255.89 186.991 254.877 181.865 254.877 176C254.877 170.135 255.89 165.009 257.875 160.589C259.944 156.112 262.642 152.361 265.962 149.313C269.348 146.258 273.263 143.949 277.721 142.387C282.199 140.818 286.876 140.031 291.76 140.031C296.644 140.031 301.29 140.818 305.706 142.385C310.106 143.946 313.963 146.254 317.292 149.309Z" fill="white" stroke="black" stroke-width="3"/>
<path d="M249.786 373.97L249.792 373.965C256.277 368.306 261.364 361.514 265.049 353.602C268.807 345.598 270.673 336.722 270.673 327C270.673 317.279 268.807 308.432 265.048 300.485C261.364 292.516 256.277 285.722 249.789 280.12C243.309 274.467 235.683 270.135 226.931 267.115C218.172 264.034 208.778 262.5 198.76 262.5C192.044 262.5 185.61 263.179 179.462 264.54C173.319 265.9 167.551 267.883 162.16 270.492L162.154 270.495C156.819 273.107 151.952 276.315 147.558 280.119C143.217 283.87 139.497 288.13 136.402 292.897C133.302 297.672 130.894 302.944 129.173 308.708L129.173 308.708L129.17 308.718C127.502 314.442 126.673 320.539 126.673 327C126.673 333.518 127.502 339.644 129.17 345.37L129.172 345.377L129.174 345.384C130.895 351.089 133.304 356.331 136.402 361.103C139.495 365.868 143.213 370.155 147.55 373.962L147.558 373.969L147.567 373.976C151.959 377.719 156.823 380.896 162.154 383.505L162.16 383.508C167.551 386.118 173.319 388.101 179.462 389.461C185.61 390.822 192.044 391.5 198.76 391.5C208.776 391.5 218.169 389.996 226.927 386.974L226.935 386.971C235.684 383.894 243.308 379.563 249.786 373.97ZM224.292 300.309L224.301 300.317C227.676 303.363 230.371 307.111 232.381 311.582C234.368 316.003 235.382 321.132 235.382 327C235.382 332.869 234.368 337.997 232.381 342.418C230.371 346.889 227.677 350.636 224.302 353.683C220.971 356.684 217.108 358.997 212.699 360.618C208.284 362.184 203.641 362.969 198.76 362.969C193.879 362.969 189.205 362.184 184.729 360.616C180.264 358.995 176.345 356.683 172.957 353.683C169.64 350.636 166.943 346.886 164.875 342.411C162.89 337.991 161.877 332.865 161.877 327C161.877 321.135 162.89 316.009 164.875 311.589C166.944 307.112 169.642 303.361 172.962 300.313C176.348 297.258 180.263 294.949 184.721 293.387C189.199 291.818 193.876 291.031 198.76 291.031C203.644 291.031 208.29 291.818 212.706 293.385C217.106 294.946 220.963 297.254 224.292 300.309Z" fill="#2B8BFC" stroke="black" stroke-width="3"/>
<path d="M411.085 48.7766C417.706 75.7152 376.491 109.004 319.027 123.129C261.563 137.254 209.611 126.866 202.99 99.9277C196.368 72.9891 237.584 39.7006 295.048 25.5756C352.511 11.4506 404.463 21.838 411.085 48.7766Z" fill="#0FE5F2"/>
<path fill-rule="evenodd" clip-rule="evenodd" d="M395.488 66.1738C398.715 60.7794 399.584 56.0056 398.575 51.9034C397.567 47.8013 394.585 43.974 389.224 40.6904C383.84 37.392 376.349 34.8441 367.103 33.3245C348.628 30.2883 324.094 31.5121 297.981 37.9309C271.868 44.3497 249.562 54.6395 234.6 65.8944C227.112 71.5276 221.656 77.2577 218.414 82.6766C215.187 88.071 214.319 92.8448 215.327 96.9469C216.336 101.049 219.318 104.876 224.678 108.16C230.063 111.458 237.553 114.006 246.8 115.526C265.274 118.562 289.809 117.338 315.922 110.919C342.035 104.501 364.341 94.2109 379.302 82.9559C386.791 77.3228 392.246 71.5926 395.488 66.1738ZM317.067 115.578C370.243 102.507 408.821 73.4865 403.234 50.7583C397.647 28.03 350.011 20.2012 296.836 33.272C243.66 46.3429 205.082 75.3639 210.668 98.0921C216.255 120.82 263.891 128.649 317.067 115.578Z" fill="black"/>
<path d="M363.713 54.7123L367.721 71.0153L362.094 72.3983L358.087 56.0953L349.245 58.2686L348.131 53.7341L371.455 48.0008L372.57 52.5353L363.713 54.7123Z" fill="black"/>
<path d="M344.138 76.8116L343.635 74.7642C343.014 75.335 342.327 75.8739 341.572 76.381C340.828 76.8856 340.037 77.3534 339.199 77.7844C338.362 78.2155 337.48 78.5983 336.555 78.933C335.642 79.2754 334.705 79.5646 333.744 79.8007C332.622 80.0765 331.509 80.2375 330.406 80.2837C329.312 80.3273 328.302 80.211 327.377 79.9346C326.451 79.6582 325.646 79.1967 324.962 78.5501C324.288 77.901 323.814 77.0204 323.541 75.9083C323.195 74.5029 323.292 73.2407 323.832 72.1217C324.369 70.9926 325.353 69.9359 326.784 68.9517C328.214 67.9675 330.093 67.0179 332.42 66.1029C334.757 65.1854 337.551 64.2306 340.802 63.2384L340.694 62.7986C340.609 62.4549 340.435 62.1386 340.171 61.8496C339.905 61.5506 339.498 61.3344 338.95 61.2009C338.41 61.0549 337.701 61.0041 336.822 61.0486C335.953 61.0906 334.872 61.2707 333.578 61.5888C332.557 61.8398 331.559 62.1439 330.586 62.5011C329.62 62.8458 328.694 63.2234 327.809 63.6341C326.933 64.0422 326.111 64.4695 325.342 64.9159C324.572 65.3623 323.881 65.8002 323.268 66.2296L322.038 61.225C322.701 60.8691 323.451 60.497 324.289 60.1089C325.126 59.7209 326.005 59.3494 326.926 58.9944C327.844 58.6294 328.779 58.2922 329.732 57.9828C330.683 57.6634 331.603 57.3943 332.493 57.1756C334.242 56.7457 335.891 56.4959 337.439 56.4262C338.985 56.3465 340.363 56.4795 341.574 56.8251C342.794 57.1683 343.817 57.7317 344.642 58.5152C345.478 59.2962 346.053 60.3288 346.369 61.6128L349.765 75.4286L344.138 76.8116ZM341.801 67.3028C339.657 67.9155 337.846 68.4841 336.367 69.0085C334.897 69.5305 333.687 70.0156 332.736 70.4638C331.785 70.912 331.05 71.3233 330.53 71.6974C330.021 72.0692 329.655 72.4111 329.432 72.7234C329.208 73.0356 329.091 73.3217 329.08 73.5818C329.079 73.8393 329.103 74.0692 329.153 74.2714C329.213 74.5141 329.337 74.7355 329.525 74.9357C329.711 75.1259 329.987 75.2671 330.353 75.3595C330.729 75.4493 331.202 75.4777 331.773 75.4446C332.344 75.4115 333.044 75.2931 333.873 75.0893C334.793 74.8631 335.675 74.5712 336.52 74.2134C337.365 73.8557 338.152 73.4585 338.881 73.022C339.607 72.5754 340.273 72.1008 340.879 71.5982C341.492 71.083 342.024 70.5661 342.476 70.0478L341.801 67.3028Z" fill="black"/>
<path d="M319.393 81.8011C317.823 82.7873 316.214 83.6117 314.565 84.2743C312.929 84.9446 311.221 85.4984 309.441 85.9358C307.167 86.495 305.08 86.7506 303.181 86.7027C301.29 86.6422 299.624 86.296 298.182 85.6641C296.74 85.0322 295.535 84.1221 294.568 82.934C293.6 81.7459 292.908 80.3026 292.49 78.6041C292.102 77.0268 292.062 75.4876 292.368 73.9864C292.682 72.4725 293.304 71.0761 294.233 69.797C295.17 68.5053 296.404 67.3764 297.936 66.4103C299.465 65.434 301.256 64.6937 303.308 64.1892C305.199 63.7244 306.991 63.5573 308.685 63.6877C310.386 63.8055 311.921 64.227 313.289 64.952C314.668 65.6746 315.845 66.6931 316.823 68.0075C317.81 69.3194 318.538 70.9308 319.008 72.8417L319.351 74.2369L298.817 79.2843C299.16 79.8968 299.606 80.425 300.155 80.8691C300.714 81.3107 301.399 81.6353 302.212 81.8431C303.024 82.0508 303.977 82.1329 305.07 82.0892C306.174 82.0431 307.454 81.8411 308.91 81.4832C309.941 81.2297 310.937 80.9205 311.898 80.5556C312.857 80.1807 313.741 79.7864 314.55 79.373C315.358 78.9494 316.074 78.5268 316.699 78.105C317.335 77.6808 317.834 77.2901 318.196 76.933L319.393 81.8011ZM312.741 71.4874C312.563 70.9842 312.276 70.492 311.879 70.0106C311.49 69.5167 310.962 69.1156 310.297 68.8075C309.632 68.4993 308.814 68.3143 307.845 68.2523C306.873 68.1803 305.715 68.3096 304.37 68.6401C303.106 68.9508 302.053 69.3759 301.21 69.9154C300.367 70.455 299.689 71.0344 299.176 71.6535C298.674 72.2702 298.317 72.8887 298.105 73.5091C297.893 74.1294 297.792 74.6795 297.803 75.1593L312.741 71.4874Z" fill="black"/>
<path d="M288.871 73.302C288.707 73.2887 288.468 73.2776 288.155 73.2688C287.85 73.2474 287.495 73.2435 287.091 73.257C286.685 73.2605 286.241 73.289 285.761 73.3427C285.291 73.3939 284.814 73.4791 284.329 73.5984C283.317 73.8469 282.403 74.2057 281.586 74.6746C280.776 75.131 280.043 75.6596 279.386 76.2606C278.728 76.8514 278.134 77.4904 277.606 78.1777C277.086 78.8523 276.62 79.5298 276.208 80.2099L279.291 92.7518L273.665 94.1348L268.543 73.2974L274.169 71.9144L275 75.2963C275.553 74.6243 276.127 73.9687 276.72 73.3297C277.321 72.6781 277.961 72.0758 278.64 71.523C279.329 70.9676 280.077 70.4782 280.884 70.0546C281.689 69.621 282.572 69.2861 283.532 69.05C283.896 68.9605 284.27 68.89 284.654 68.8385C285.046 68.7744 285.425 68.7242 285.791 68.6877C286.167 68.6488 286.52 68.6212 286.848 68.6048C287.176 68.5884 287.464 68.582 287.712 68.5855L288.871 73.302Z" fill="black"/>
<path d="M268.067 93.9991C267.414 94.4813 266.748 94.9345 266.069 95.3585C265.391 95.7826 264.678 96.1775 263.932 96.5432C263.188 96.919 262.388 97.2605 261.53 97.5678C260.683 97.8725 259.759 98.1478 258.758 98.3939C256.635 98.9158 254.623 99.1692 252.722 99.1541C250.83 99.1365 249.126 98.8318 247.608 98.24C246.098 97.6356 244.816 96.7391 243.763 95.5507C242.707 94.3521 241.954 92.8379 241.504 91.0079C241.054 89.1779 241.021 87.4923 241.403 85.9509C241.783 84.3995 242.503 83.0109 243.563 81.7854C244.631 80.5473 245.999 79.482 247.667 78.5896C249.344 77.6948 251.245 76.9864 253.368 76.4645C254.369 76.2185 255.315 76.0341 256.207 75.9114C257.109 75.7862 257.977 75.7176 258.81 75.7058C259.641 75.6838 260.455 75.7034 261.253 75.7647C262.051 75.8259 262.851 75.9187 263.653 76.0431L264.898 81.1084C264.245 80.9366 263.563 80.7773 262.851 80.6306C262.137 80.4737 261.366 80.3684 260.538 80.3147C259.708 80.2508 258.814 80.2561 257.856 80.3306C256.896 80.395 255.84 80.5688 254.688 80.8521C252.918 81.287 251.492 81.8306 250.409 82.4829C249.336 83.1326 248.525 83.8466 247.976 84.6247C247.428 85.4028 247.109 86.2209 247.02 87.0791C246.928 87.9272 246.985 88.7708 247.191 89.61C247.328 90.166 247.524 90.7021 247.78 91.2183C248.033 91.7243 248.36 92.1852 248.763 92.6009C249.163 93.0065 249.64 93.3556 250.194 93.6482C250.749 93.9407 251.4 94.1504 252.15 94.2771C252.899 94.4038 253.745 94.4424 254.687 94.3931C255.637 94.3312 256.703 94.1549 257.886 93.8641C259.039 93.5808 260.058 93.2553 260.943 92.8876C261.826 92.5098 262.621 92.1052 263.33 91.6736C264.039 91.2421 264.674 90.7964 265.237 90.3365C265.797 89.8665 266.325 89.399 266.822 88.9338L268.067 93.9991Z" fill="black"/>
<path d="M306.355 287.757C309.608 273.586 323.734 264.734 337.906 267.987L520.584 309.92C534.756 313.174 543.607 327.299 540.354 341.471C537.101 355.643 522.975 364.495 508.804 361.241L326.125 319.308C311.953 316.055 303.102 301.929 306.355 287.757Z" fill="#83F04F"/>
<path d="M458.931 371.168C458.411 373.434 455.355 373.833 454.27 371.778L437.562 340.137C436.561 338.239 438.25 336.042 440.341 336.522L463.112 341.749C464.461 342.059 465.304 343.404 464.995 344.754L458.931 371.168Z" fill="#83F04F"/>
<path d="M493.958 340.468L498.192 322.023L503.172 323.166L499.866 337.571L513.331 340.662L512.403 344.703L493.958 340.468Z" fill="black"/>
<path d="M470.277 335.032L474.511 316.587L493.184 320.874L492.281 324.807L478.723 321.695L478.023 324.742L490.884 327.694L489.981 331.627L477.12 328.675L476.294 332.273L490.041 335.429L489.138 339.362L470.277 335.032Z" fill="black"/>
<path d="M467.847 324.752C467.576 325.933 467.204 326.955 466.733 327.817C466.264 328.671 465.714 329.383 465.084 329.954C464.462 330.528 463.766 330.975 462.995 331.298C462.233 331.622 461.416 331.835 460.545 331.936C459.674 332.038 458.757 332.049 457.796 331.97C456.836 331.881 455.851 331.721 454.839 331.489L443.133 328.802L447.367 310.356L459.047 313.037C460.058 313.27 461.013 313.56 461.913 313.907C462.815 314.246 463.636 314.652 464.376 315.123C465.125 315.596 465.776 316.146 466.329 316.772C466.885 317.39 467.316 318.096 467.623 318.892C467.941 319.681 468.125 320.562 468.175 321.535C468.225 322.507 468.116 323.58 467.847 324.752ZM462.826 323.599C463.029 322.713 463.09 321.917 463.007 321.21C462.933 320.506 462.689 319.884 462.276 319.347C461.873 318.802 461.288 318.333 460.521 317.941C459.756 317.539 458.787 317.203 457.615 316.934L451.426 315.514L449.035 325.931L455.224 327.352C456.396 327.621 457.413 327.746 458.275 327.727C459.139 327.699 459.87 327.528 460.47 327.213C461.081 326.892 461.573 326.43 461.947 325.828C462.33 325.228 462.623 324.485 462.826 323.599Z" fill="black"/>
<path d="M440.71 318.551C440.346 320.135 439.734 321.469 438.873 322.553C438.014 323.627 436.949 324.447 435.679 325.013C434.41 325.579 432.952 325.895 431.307 325.96C429.673 326.018 427.894 325.827 425.97 325.385C424.046 324.943 422.353 324.338 420.89 323.569C419.438 322.793 418.26 321.872 417.355 320.807C416.45 319.742 415.841 318.537 415.528 317.194C415.216 315.841 415.242 314.373 415.606 312.788C415.97 311.204 416.585 309.876 417.453 308.803C418.324 307.722 419.398 306.899 420.677 306.335C421.956 305.772 423.416 305.462 425.059 305.405C426.713 305.342 428.502 305.531 430.426 305.973C432.35 306.415 434.034 307.023 435.477 307.797C436.93 308.564 438.105 309.479 439.001 310.542C439.897 311.605 440.496 312.812 440.799 314.162C441.103 315.504 441.073 316.967 440.71 318.551ZM435.676 317.395C435.834 316.706 435.879 315.996 435.812 315.264C435.755 314.526 435.507 313.819 435.069 313.144C434.639 312.47 433.98 311.853 433.092 311.291C432.203 310.729 431.012 310.276 429.517 309.933C428.515 309.703 427.615 309.581 426.817 309.568C426.021 309.545 425.314 309.609 424.696 309.759C424.077 309.909 423.537 310.129 423.075 310.419C422.614 310.699 422.223 311.029 421.901 311.407C421.581 311.776 421.318 312.182 421.113 312.625C420.918 313.061 420.77 313.503 420.667 313.95C420.562 314.407 420.501 314.878 420.484 315.364C420.476 315.852 420.534 316.336 420.659 316.817C420.786 317.289 420.996 317.752 421.287 318.205C421.579 318.658 421.97 319.087 422.462 319.492C422.955 319.888 423.563 320.254 424.287 320.589C425.013 320.916 425.877 321.195 426.879 321.425C428.374 321.768 429.644 321.88 430.688 321.762C431.733 321.644 432.595 321.375 433.275 320.957C433.965 320.54 434.495 320.017 434.866 319.386C435.247 318.748 435.517 318.084 435.676 317.395Z" fill="black"/>
<path d="M404 319.819L406.974 306.864L397.153 318.247L392.374 317.15L388.501 302.624L385.528 315.579L380.547 314.436L384.781 295.99L391.547 297.543L395.793 313.215L406.448 300.964L413.188 302.511L408.953 320.956L404 319.819Z" fill="black"/>
<path d="M359.445 309.591L363.679 291.146L368.659 292.289L364.425 310.735L359.445 309.591Z" fill="black"/>
<path d="M349.936 303.734L339.653 301.374L337.12 304.467L331.562 303.191L345.448 286.961L351.006 288.237L356.424 308.898L350.866 307.622L349.936 303.734ZM342.264 298.186L349.003 299.733L347.206 292.17L342.264 298.186Z" fill="black"/>
<path d="M171.913 394.402C178.048 428.313 155.531 460.778 121.62 466.913C87.7084 473.048 55.2442 450.531 49.1089 416.62C42.9736 382.709 65.4906 350.244 99.4019 344.109C133.313 337.974 165.778 360.491 171.913 394.402Z" fill="#8550F6"/>
<path d="M166.064 395.46C171.615 426.142 151.243 455.514 120.561 461.065C89.8795 466.616 60.5072 446.244 54.9562 415.562C49.4052 384.88 69.7777 355.508 100.459 349.957C131.141 344.406 160.514 364.778 166.064 395.46Z" fill="#8550F6"/>
<path fill-rule="evenodd" clip-rule="evenodd" d="M166.716 400.169L163.336 400.494C163.195 399.023 162.991 397.546 162.723 396.065C162.455 394.583 162.128 393.128 161.745 391.702L165.025 390.822C165.432 392.339 165.78 393.886 166.064 395.46C166.349 397.034 166.566 398.605 166.716 400.169ZM164.12 387.788L160.894 388.85C159.951 385.986 158.779 383.246 157.401 380.646L160.402 379.056C161.868 381.824 163.117 384.741 164.12 387.788ZM158.84 376.3L155.934 378.058C154.384 375.494 152.628 373.084 150.691 370.844L153.26 368.623C155.321 371.006 157.19 373.572 158.84 376.3ZM151.123 366.286L148.682 368.648C146.607 366.503 144.358 364.54 141.962 362.777L143.975 360.042C146.523 361.917 148.915 364.005 151.123 366.286ZM141.372 358.237L139.515 361.08C137.025 359.454 134.398 358.035 131.662 356.843L133.019 353.73C135.929 354.998 138.724 356.507 141.372 358.237ZM130.082 352.546C127.128 351.452 124.07 350.6 120.936 350.01L120.308 353.348C123.252 353.901 126.125 354.702 128.902 355.731L130.082 352.546ZM117.808 349.513L117.37 352.881C114.452 352.501 111.475 352.363 108.462 352.483L108.327 349.09C111.532 348.962 114.701 349.109 117.808 349.513ZM105.168 349.305L105.493 352.685C104.023 352.827 102.545 353.031 101.064 353.298C99.5827 353.566 98.1277 353.893 96.7009 354.276L95.821 350.996C97.3386 350.589 98.8855 350.242 100.459 349.957C102.033 349.672 103.604 349.456 105.168 349.305ZM92.787 351.902L93.8489 355.127C90.9854 356.07 88.2453 357.243 85.6457 358.62L84.0556 355.62C86.8232 354.153 89.7399 352.905 92.787 351.902ZM81.2997 357.181L83.0569 360.087C80.4937 361.637 78.0828 363.394 75.8431 365.33L73.6222 362.761C76.0054 360.701 78.5712 358.831 81.2997 357.181ZM71.2856 364.899L73.647 367.339C71.5024 369.414 69.5391 371.663 67.7765 374.059L65.0412 372.047C66.9158 369.499 69.0041 367.106 71.2856 364.899ZM63.2362 374.649L66.0794 376.506C64.4531 378.996 63.0342 381.623 61.8421 384.359L58.729 383.002C59.9972 380.092 61.5065 377.298 63.2362 374.649ZM57.5457 385.94L60.7299 387.12C59.7011 389.896 58.9007 392.769 58.3471 395.713L55.0098 395.086C55.599 391.952 56.451 388.894 57.5457 385.94ZM54.5126 398.214L57.8801 398.652C57.5006 401.569 57.3623 404.547 57.4826 407.559L54.0895 407.694C53.9614 404.489 54.1086 401.32 54.5126 398.214ZM54.3045 410.853C54.4549 412.417 54.6714 413.988 54.9562 415.562C55.241 417.136 55.5884 418.683 55.9955 420.2L59.2754 419.32C58.8926 417.894 58.5658 416.439 58.2978 414.957C58.0298 413.476 57.8261 411.999 57.6847 410.528L54.3045 410.853ZM56.901 423.234L60.1266 422.173C61.0692 425.036 62.242 427.776 63.6196 430.376L60.619 431.966C59.1524 429.198 57.9041 426.282 56.901 423.234ZM62.1808 434.722L65.0867 432.964C66.6366 435.528 68.393 437.939 70.3294 440.178L67.7604 442.399C65.7001 440.016 63.8307 437.45 62.1808 434.722ZM69.8979 444.736L72.3383 442.374C74.4134 444.519 76.6627 446.482 79.0585 448.245L77.0461 450.98C74.498 449.106 72.1054 447.017 69.8979 444.736ZM79.6485 452.785L81.5053 449.942C83.9956 451.568 86.6226 452.987 89.3582 454.179L88.0016 457.292C85.0913 456.024 82.297 454.515 79.6485 452.785ZM90.939 458.476L92.119 455.291C94.8952 456.32 97.7686 457.121 100.712 457.674L100.085 461.012C96.9511 460.422 93.893 459.57 90.939 458.476ZM103.213 461.509L103.651 458.141C106.569 458.521 109.546 458.659 112.558 458.539L112.694 461.932C109.488 462.06 106.319 461.913 103.213 461.509ZM115.853 461.717L115.528 458.337C116.998 458.195 118.475 457.992 119.957 457.724C121.438 457.456 122.893 457.129 124.32 456.746L125.2 460.026C123.682 460.433 122.135 460.78 120.561 461.065C118.987 461.35 117.417 461.566 115.853 461.717ZM128.234 459.12L127.172 455.895C130.035 454.952 132.775 453.779 135.375 452.402L136.965 455.402C134.197 456.869 131.281 458.117 128.234 459.12ZM139.721 453.841L137.964 450.935C140.527 449.385 142.938 447.628 145.178 445.692L147.398 448.261C145.015 450.321 142.449 452.191 139.721 453.841ZM149.735 446.123L147.374 443.683C149.518 441.608 151.482 439.359 153.244 436.963L155.98 438.975C154.105 441.523 152.017 443.916 149.735 446.123ZM157.784 436.373L154.941 434.516C156.568 432.026 157.986 429.399 159.179 426.663L162.292 428.02C161.023 430.93 159.514 433.724 157.784 436.373ZM163.475 425.082C164.57 422.128 165.422 419.07 166.011 415.937L162.674 415.309C162.12 418.253 161.32 421.126 160.291 423.902L163.475 425.082ZM166.508 412.808L163.141 412.37C163.52 409.453 163.658 406.475 163.538 403.463L166.931 403.328C167.059 406.533 166.912 409.702 166.508 412.808Z" fill="black"/>
<path d="M139.372 428.328L138.923 425.85C138.141 426.484 137.281 427.076 136.344 427.624C135.419 428.171 134.442 428.67 133.411 429.122C132.381 429.574 131.302 429.965 130.174 430.295C129.06 430.636 127.922 430.911 126.759 431.122C125.401 431.367 124.062 431.477 122.743 431.45C121.436 431.421 120.241 431.208 119.158 430.81C118.075 430.412 117.149 429.802 116.382 428.98C115.626 428.156 115.126 427.072 114.883 425.725C114.575 424.024 114.784 422.527 115.511 421.233C116.235 419.926 117.486 418.74 119.264 417.672C121.043 416.605 123.353 415.612 126.194 414.693C129.048 413.773 132.45 412.841 136.4 411.899L136.303 411.367C136.228 410.951 136.044 410.561 135.75 410.197C135.455 409.821 134.986 409.533 134.343 409.333C133.71 409.119 132.868 409.006 131.817 408.994C130.778 408.98 129.476 409.114 127.909 409.397C126.673 409.621 125.462 409.91 124.275 410.264C123.097 410.603 121.966 410.985 120.88 411.409C119.806 411.83 118.794 412.279 117.844 412.754C116.894 413.229 116.037 413.7 115.275 414.167L114.179 408.109C114.996 407.734 115.918 407.346 116.945 406.945C117.972 406.545 119.047 406.167 120.171 405.812C121.292 405.445 122.433 405.112 123.592 404.814C124.749 404.503 125.866 404.251 126.943 404.056C129.06 403.673 131.044 403.497 132.895 403.529C134.743 403.548 136.377 403.809 137.794 404.311C139.224 404.81 140.402 405.558 141.328 406.553C142.266 407.546 142.875 408.819 143.156 410.373L146.182 427.096L139.372 428.328ZM137.29 416.819C134.688 417.39 132.487 417.934 130.684 418.45C128.894 418.963 127.416 419.452 126.248 419.916C125.081 420.38 124.174 420.815 123.528 421.223C122.893 421.629 122.431 422.009 122.142 422.365C121.852 422.72 121.691 423.053 121.659 423.362C121.638 423.669 121.65 423.945 121.695 424.19C121.748 424.483 121.879 424.757 122.089 425.009C122.297 425.25 122.616 425.438 123.045 425.576C123.486 425.711 124.049 425.78 124.732 425.782C125.415 425.785 126.258 425.696 127.261 425.514C128.375 425.313 129.448 425.03 130.482 424.666C131.516 424.302 132.483 423.887 133.385 423.421C134.284 422.942 135.113 422.426 135.872 421.871C136.641 421.302 137.314 420.726 137.891 420.141L137.29 416.819Z" fill="black"/>
<path d="M85.6075 438.055L81.0444 412.834L106.578 408.215L107.551 413.593L89.0111 416.947L89.765 421.114L107.35 417.933L108.323 423.311L90.738 426.492L91.628 431.412L110.425 428.011L111.398 433.389L85.6075 438.055Z" fill="black"/>
<path d="M131.151 382.263C131.444 383.878 131.526 385.348 131.399 386.673C131.27 387.985 130.966 389.165 130.485 390.212C130.017 391.258 129.389 392.186 128.601 392.999C127.825 393.809 126.922 394.509 125.891 395.1C124.861 395.691 123.726 396.194 122.486 396.607C121.244 397.009 119.932 397.335 118.549 397.585L102.543 400.481L97.98 375.26L113.95 372.371C115.332 372.12 116.677 371.972 117.983 371.925C119.286 371.866 120.524 371.933 121.697 372.125C122.881 372.315 123.985 372.653 125.008 373.138C126.028 373.61 126.942 374.26 127.749 375.087C128.566 375.9 129.264 376.898 129.845 378.082C130.426 379.266 130.861 380.66 131.151 382.263ZM124.286 383.505C124.067 382.293 123.717 381.27 123.238 380.434C122.77 379.596 122.136 378.952 121.334 378.504C120.542 378.04 119.564 377.768 118.4 377.688C117.233 377.596 115.848 377.695 114.245 377.985L105.783 379.516L108.36 393.76L116.822 392.229C118.425 391.939 119.758 391.553 120.821 391.07C121.881 390.575 122.701 389.971 123.28 389.26C123.869 388.534 124.236 387.697 124.38 386.748C124.537 385.797 124.505 384.716 124.286 383.505Z" fill="black"/>
<path d="M87.8213 403.144L83.2583 377.923L90.0684 376.691L94.6314 401.912L87.8213 403.144Z" fill="black"/>
<path d="M404.03 402.032C408.423 397.742 415.812 399.803 417.351 405.748L448.782 527.205C450.324 533.166 444.829 538.559 438.897 536.905L317.709 503.102C311.777 501.448 309.867 493.989 314.272 489.687L404.03 402.032Z" fill="#FF974C"/>
<path d="M407.711 405.456C409.175 404.021 411.645 404.71 412.155 406.696L443.551 528.844C444.062 530.83 442.231 532.624 440.255 532.073L318.774 498.189C316.798 497.638 316.16 495.155 317.625 493.72L407.711 405.456Z" fill="#FF974C"/>
<path fill-rule="evenodd" clip-rule="evenodd" d="M441.831 529.286L410.435 407.138C410.265 406.476 409.442 406.246 408.953 406.725L318.868 494.989C318.38 495.467 318.592 496.295 319.251 496.478L440.733 530.363C441.391 530.546 442.001 529.948 441.831 529.286ZM412.155 406.696C411.645 404.71 409.175 404.021 407.711 405.456L317.625 493.72C316.16 495.155 316.798 497.638 318.774 498.189L440.255 532.073C442.231 532.624 444.062 530.83 443.551 528.844L412.155 406.696Z" fill="black"/>
<path d="M421.39 500.61C421.09 500.344 420.684 500.024 420.174 499.651C419.663 499.279 419.073 498.898 418.404 498.51C417.737 498.112 416.997 497.733 416.186 497.372C415.377 497.003 414.527 496.693 413.636 496.445C412.923 496.246 412.306 496.098 411.786 496.001C411.275 495.906 410.835 495.846 410.468 495.821C410.109 495.798 409.814 495.806 409.582 495.847C409.361 495.882 409.183 495.933 409.049 496.001C408.915 496.069 408.816 496.147 408.753 496.236C408.699 496.326 408.661 496.411 408.639 496.492C408.564 496.759 408.632 497.032 408.842 497.312C409.055 497.582 409.37 497.862 409.789 498.152C410.21 498.433 410.708 498.73 411.283 499.044C411.86 499.349 412.471 499.673 413.115 500.016C413.77 500.352 414.438 500.712 415.119 501.094C415.811 501.469 416.468 501.868 417.09 502.291C417.72 502.717 418.299 503.171 418.827 503.655C419.357 504.129 419.797 504.636 420.146 505.175C420.495 505.714 420.728 506.288 420.846 506.897C420.965 507.506 420.928 508.154 420.737 508.84C420.491 509.722 420.124 510.436 419.635 510.982C419.147 511.527 418.579 511.945 417.932 512.235C417.293 512.527 416.594 512.712 415.833 512.787C415.075 512.854 414.297 512.854 413.5 512.785C412.712 512.719 411.924 512.6 411.137 512.428C410.358 512.259 409.621 512.077 408.926 511.884C407.108 511.377 405.467 510.756 404.001 510.02C402.542 509.296 401.282 508.546 400.221 507.77L401.444 503.387C402.475 504.404 403.717 505.322 405.17 506.14C406.631 506.961 408.253 507.619 410.034 508.116C411.086 508.41 411.956 508.595 412.645 508.672C413.346 508.742 413.907 508.745 414.328 508.68C414.752 508.606 415.059 508.486 415.25 508.318C415.441 508.15 415.563 507.973 415.615 507.786C415.697 507.492 415.634 507.201 415.426 506.912C415.221 506.615 414.909 506.322 414.491 506.032C414.075 505.733 413.578 505.432 413 505.126C412.425 504.812 411.809 504.492 411.151 504.164C410.505 503.83 409.839 503.481 409.153 503.117C408.467 502.753 407.807 502.367 407.171 501.959C406.547 501.545 405.968 501.11 405.432 500.653C404.9 500.188 404.456 499.694 404.102 499.173C403.751 498.643 403.514 498.082 403.39 497.491C403.27 496.891 403.305 496.248 403.496 495.562C403.723 494.751 404.06 494.091 404.509 493.583C404.959 493.074 405.481 492.682 406.076 492.406C406.683 492.124 407.339 491.942 408.044 491.86C408.757 491.781 409.486 491.768 410.229 491.822C410.973 491.876 411.713 491.976 412.45 492.124C413.186 492.272 413.88 492.437 414.53 492.618C415.243 492.817 415.964 493.056 416.692 493.336C417.43 493.619 418.145 493.929 418.838 494.266C419.534 494.595 420.197 494.938 420.827 495.296C421.466 495.657 422.049 496.012 422.576 496.36L421.39 500.61Z" fill="black"/>
<path d="M390.166 506.118L393.037 495.827C393.228 495.141 393.343 494.506 393.381 493.921C393.422 493.328 393.336 492.79 393.125 492.308C392.925 491.821 392.57 491.39 392.059 491.017C391.56 490.638 390.865 490.324 389.974 490.076C389.297 489.887 388.558 489.781 387.757 489.76C386.968 489.732 386.166 489.767 385.351 489.866C384.536 489.966 383.738 490.122 382.958 490.337C382.187 490.554 381.482 490.809 380.844 491.101L377.63 502.621L372.672 501.238L377.794 482.875L382.752 484.258L382.051 486.771C382.774 486.589 383.536 486.422 384.337 486.271C385.14 486.111 385.978 485.999 386.851 485.935C387.723 485.871 388.63 485.874 389.571 485.944C390.511 486.015 391.476 486.188 392.465 486.463C393.703 486.809 394.766 487.269 395.653 487.842C396.551 488.41 397.261 489.064 397.784 489.805C398.31 490.538 398.642 491.346 398.779 492.229C398.928 493.106 398.869 494.026 398.6 494.988L395.111 507.497L390.166 506.118Z" fill="black"/>
<path d="M366.912 498.652C365.267 498.731 363.662 498.667 362.097 498.461C360.538 498.266 358.974 497.95 357.406 497.513C355.402 496.954 353.675 496.242 352.226 495.377C350.788 494.505 349.65 493.511 348.809 492.393C347.968 491.275 347.433 490.045 347.202 488.703C346.971 487.362 347.065 485.943 347.482 484.446C347.87 483.056 348.51 481.847 349.401 480.818C350.305 479.783 351.395 478.974 352.672 478.389C353.96 477.797 355.408 477.462 357.015 477.382C358.624 477.293 360.333 477.501 362.142 478.005C363.808 478.47 365.268 479.122 366.522 479.962C367.788 480.795 368.792 481.79 369.535 482.948C370.287 484.109 370.754 485.411 370.938 486.854C371.13 488.3 370.991 489.865 370.521 491.549L370.178 492.779L352.083 487.731C352.081 488.355 352.196 488.959 352.427 489.542C352.667 490.127 353.057 490.677 353.595 491.192C354.133 491.707 354.835 492.186 355.7 492.629C356.575 493.075 357.653 493.477 358.936 493.835C359.845 494.088 360.751 494.283 361.654 494.42C362.559 494.547 363.416 494.628 364.223 494.661C365.032 494.685 365.771 494.67 366.439 494.616C367.116 494.565 367.673 494.48 368.109 494.362L366.912 498.652ZM366.261 487.768C366.343 487.301 366.335 486.795 366.238 486.249C366.152 485.697 365.918 485.156 365.538 484.628C365.157 484.099 364.605 483.599 363.882 483.129C363.161 482.649 362.208 482.244 361.023 481.914C359.909 481.603 358.908 481.473 358.02 481.523C357.133 481.573 356.355 481.726 355.689 481.981C355.031 482.24 354.485 482.563 354.05 482.95C353.615 483.338 353.297 483.72 353.096 484.096L366.261 487.768Z" fill="black"/>
<path d="M409.944 485.821C410.133 484.798 410.136 483.858 409.953 483C409.772 482.134 409.459 481.345 409.014 480.635C408.577 479.928 408.034 479.292 407.385 478.726C406.745 478.164 406.062 477.671 405.335 477.247C404.611 476.814 403.867 476.449 403.106 476.15C402.355 475.845 401.646 475.599 400.978 475.412L399.508 475.002L397.461 482.339L392.503 480.956L397.625 462.594L402.583 463.976L400.608 471.06L401.623 471.343C402.309 471.534 403.041 471.681 403.82 471.783C404.598 471.885 405.385 471.922 406.18 471.894C406.984 471.868 407.776 471.767 408.555 471.591C409.334 471.415 410.064 471.138 410.745 470.762C411.426 470.385 412.041 469.903 412.588 469.317C413.139 468.721 413.581 467.995 413.916 467.138L418.968 468.547C418.608 469.493 418.168 470.316 417.646 471.015C417.133 471.718 416.567 472.318 415.948 472.818C415.34 473.311 414.699 473.713 414.026 474.025C413.354 474.336 412.685 474.582 412.02 474.762C411.358 474.932 410.711 475.049 410.079 475.113C409.458 475.17 408.886 475.189 408.364 475.168C408.96 475.44 409.562 475.776 410.171 476.176C410.791 476.57 411.382 477.032 411.945 477.564C412.51 478.086 413.021 478.68 413.479 479.346C413.945 480.014 414.326 480.749 414.621 481.551C414.916 482.354 415.104 483.227 415.186 484.172C415.268 485.117 415.205 486.136 414.996 487.23L409.944 485.821Z" fill="black"/>
<path d="M390.543 470.529C390.103 472.106 389.425 473.419 388.508 474.47C387.593 475.511 386.484 476.287 385.179 476.797C383.875 477.307 382.394 477.556 380.736 477.545C379.089 477.527 377.308 477.251 375.392 476.717C373.477 476.183 371.801 475.495 370.365 474.652C368.94 473.804 367.798 472.822 366.937 471.708C366.076 470.594 365.519 469.354 365.267 467.987C365.017 466.611 365.112 465.135 365.551 463.558C365.991 461.981 366.673 460.673 367.597 459.634C368.523 458.586 369.642 457.809 370.955 457.301C372.268 456.794 373.753 456.55 375.409 456.57C377.076 456.584 378.867 456.858 380.783 457.392C382.698 457.926 384.364 458.616 385.779 459.463C387.207 460.302 388.346 461.278 389.198 462.39C390.05 463.501 390.596 464.743 390.838 466.117C391.081 467.481 390.983 468.952 390.543 470.529ZM385.532 469.131C385.723 468.445 385.802 467.732 385.768 466.993C385.745 466.247 385.529 465.524 385.119 464.824C384.719 464.127 384.084 463.474 383.217 462.867C382.349 462.26 381.171 461.749 379.683 461.334C378.685 461.056 377.785 460.891 376.983 460.841C376.183 460.781 375.469 460.812 374.839 460.934C374.21 461.056 373.656 461.252 373.177 461.522C372.701 461.783 372.292 462.096 371.95 462.462C371.611 462.818 371.327 463.215 371.1 463.651C370.884 464.08 370.714 464.518 370.59 464.963C370.463 465.418 370.38 465.889 370.34 466.377C370.308 466.868 370.344 467.358 370.448 467.848C370.554 468.329 370.743 468.804 371.015 469.274C371.288 469.743 371.661 470.193 372.137 470.624C372.615 471.045 373.21 471.441 373.923 471.813C374.638 472.176 375.494 472.496 376.492 472.775C377.98 473.19 379.252 473.362 380.309 473.292C381.366 473.222 382.246 472.992 382.95 472.602C383.663 472.216 384.221 471.713 384.623 471.096C385.037 470.472 385.34 469.817 385.532 469.131Z" fill="black"/>
<path d="M402.029 442.317L398.021 456.684L393.063 455.301L397.071 440.934L389.279 438.76L390.394 434.764L410.948 440.498L409.834 444.494L402.029 442.317Z" fill="black"/>
<path d="M247.005 193.619C248.295 192.044 250.843 192.751 251.136 194.767L256.495 231.632C256.641 232.643 257.426 233.442 258.434 233.607L295.195 239.639C297.205 239.969 297.866 242.529 296.267 243.791L267.02 266.864C266.218 267.496 265.918 268.575 266.279 269.531L279.436 304.383C280.155 306.288 278.268 308.141 276.376 307.387L241.771 293.595C240.822 293.216 239.738 293.496 239.091 294.286L215.487 323.107C214.196 324.682 211.648 323.975 211.355 321.959L205.997 285.094C205.85 284.083 205.066 283.284 204.058 283.119L167.297 277.087C165.287 276.757 164.626 274.197 166.225 272.935L195.472 249.862C196.274 249.23 196.573 248.151 196.213 247.195L183.056 212.343C182.336 210.438 184.223 208.585 186.115 209.339L220.721 223.132C221.669 223.51 222.754 223.23 223.401 222.44L247.005 193.619Z" fill="#FF6363"/>
<path d="M245.369 202.031C246.217 200.844 248.084 201.363 248.198 202.816L250.91 237.437C250.969 238.191 251.561 238.795 252.314 238.869L286.522 242.247C287.964 242.39 288.452 244.248 287.266 245.08L258.878 265.01C258.267 265.438 258.045 266.239 258.347 266.92L272.389 298.636C272.976 299.961 271.6 301.301 270.291 300.679L239.241 285.931C238.558 285.606 237.74 285.818 237.3 286.434L217.121 314.696C216.273 315.882 214.406 315.364 214.292 313.91L211.58 279.289C211.521 278.535 210.929 277.931 210.176 277.857L175.968 274.479C174.526 274.336 174.038 272.478 175.224 271.646L203.612 251.717C204.223 251.288 204.445 250.488 204.143 249.806L190.101 218.09C189.514 216.766 190.89 215.425 192.199 216.047L223.249 230.796C223.932 231.12 224.75 230.908 225.19 230.292L245.369 202.031Z" fill="#FF6363"/>
<path fill-rule="evenodd" clip-rule="evenodd" d="M246.03 205.138L227.097 231.654C225.997 233.194 223.952 233.724 222.243 232.912L193.095 219.067L206.285 248.857C207.04 250.562 206.485 252.563 204.959 253.634L178.293 272.354L210.406 275.525C212.289 275.711 213.768 277.22 213.916 279.106L216.46 311.588L235.393 285.072C236.493 283.533 238.538 283.002 240.247 283.814L269.395 297.66L256.205 267.869C255.45 266.164 256.005 264.163 257.531 263.092L284.197 244.372L252.084 241.201C250.201 241.015 248.722 239.506 248.574 237.62L246.03 205.138ZM248.198 202.816C248.084 201.363 246.217 200.844 245.369 202.031L225.19 230.292C224.75 230.908 223.932 231.12 223.249 230.796L192.199 216.047C190.89 215.425 189.514 216.766 190.101 218.09L204.143 249.806C204.445 250.488 204.223 251.288 203.612 251.717L175.224 271.646C174.038 272.478 174.526 274.336 175.968 274.479L210.176 277.857C210.929 277.931 211.521 278.535 211.58 279.289L214.292 313.91C214.406 315.364 216.273 315.882 217.121 314.696L237.3 286.434C237.74 285.818 238.558 285.606 239.241 285.931L270.291 300.679C271.6 301.301 272.976 299.961 272.389 298.636L258.347 266.92C258.045 266.239 258.267 265.438 258.878 265.01L287.266 245.08C288.452 244.248 287.964 242.39 286.522 242.247L252.314 238.869C251.561 238.795 250.969 238.191 250.91 237.437L248.198 202.816Z" fill="black"/>
<path d="M239.883 274.137L246.895 248.894L253.711 250.787L246.699 276.03L239.883 274.137Z" fill="black"/>
<path d="M228.982 265.963L214.909 262.054L211.212 266.172L203.606 264.06L223.827 242.486L231.433 244.599L237.631 273.511L230.025 271.398L228.982 265.963ZM218.72 257.809L227.943 260.371L225.932 249.799L218.72 257.809Z" fill="black"/>
<path d="M48.1788 494.346C45.3186 481.927 53.0674 469.541 65.4861 466.681L271.738 419.179C284.157 416.319 296.543 424.068 299.403 436.486C302.263 448.905 294.514 461.291 282.096 464.151L75.8437 511.654C63.425 514.514 51.039 506.765 48.1788 494.346Z" fill="#D9D9D9"/>
<path d="M102.273 523.595C102.593 524.987 104.442 525.284 105.184 524.064L123.097 494.562C123.828 493.359 122.752 491.869 121.38 492.185L97.916 497.589C97.0595 497.786 96.5251 498.64 96.7224 499.497L102.273 523.595Z" fill="#D9D9D9"/>
<path d="M272.222 440.999C272.414 441.831 272.469 442.626 272.389 443.384C272.307 444.135 272.054 444.827 271.63 445.46C271.212 446.084 270.607 446.636 269.816 447.115C269.025 447.595 268.016 447.977 266.788 448.259L259.325 449.978L260.536 455.236L256.041 456.272L252.208 439.625L264.165 436.871C265.393 436.588 266.468 436.49 267.389 436.575C268.308 436.653 269.093 436.884 269.743 437.27C270.4 437.646 270.929 438.154 271.331 438.793C271.734 439.432 272.031 440.167 272.222 440.999ZM267.696 442.118C267.606 441.73 267.474 441.412 267.297 441.164C267.127 440.905 266.897 440.716 266.605 440.596C266.314 440.476 265.957 440.422 265.535 440.434C265.11 440.438 264.603 440.508 264.014 440.644L257.52 442.14L258.508 446.428L265.001 444.933C265.591 444.797 266.08 444.65 266.469 444.493C266.856 444.327 267.157 444.135 267.37 443.915C267.581 443.688 267.709 443.429 267.752 443.138C267.804 442.846 267.785 442.506 267.696 442.118Z" fill="black"/>
<path d="M246.325 458.509L242.491 441.863L246.986 440.828L250.819 457.474L246.325 458.509Z" fill="black"/>
<path d="M236.62 460.744L235.021 453.802L223.584 456.436L225.183 463.378L220.688 464.414L216.854 447.767L221.349 446.732L222.744 452.79L234.181 450.156L232.786 444.098L237.281 443.063L241.115 459.709L236.62 460.744Z" fill="black"/>
<path d="M212.289 453.756C211.939 453.675 211.483 453.597 210.921 453.522C210.36 453.448 209.732 453.401 209.039 453.382C208.344 453.355 207.599 453.373 206.806 453.437C206.011 453.492 205.209 453.613 204.402 453.799C203.756 453.948 203.207 454.096 202.756 454.242C202.313 454.387 201.941 454.527 201.641 454.665C201.349 454.8 201.121 454.933 200.955 455.065C200.796 455.187 200.678 455.303 200.602 455.414C200.525 455.525 200.481 455.629 200.469 455.725C200.466 455.82 200.472 455.903 200.489 455.976C200.545 456.218 200.715 456.405 201 456.535C201.283 456.656 201.652 456.742 202.105 456.79C202.557 456.831 203.076 456.852 203.663 456.853C204.249 456.845 204.868 456.839 205.521 456.833C206.181 456.817 206.861 456.814 207.56 456.823C208.266 456.822 208.954 456.855 209.624 456.921C210.303 456.986 210.953 457.096 211.576 457.25C212.196 457.396 212.759 457.607 213.265 457.882C213.77 458.157 214.2 458.508 214.554 458.937C214.908 459.366 215.157 459.891 215.3 460.513C215.484 461.313 215.501 462.032 215.35 462.671C215.199 463.309 214.931 463.881 214.546 464.387C214.169 464.89 213.697 465.335 213.131 465.72C212.563 466.098 211.951 466.43 211.294 466.718C210.645 467.003 209.974 467.247 209.281 467.449C208.595 467.65 207.938 467.822 207.308 467.967C205.66 468.347 204.102 468.561 202.633 468.61C201.175 468.666 199.862 468.615 198.694 468.459L197.779 464.485C199.027 464.844 200.398 465.034 201.891 465.056C203.393 465.076 204.951 464.9 206.566 464.528C207.52 464.308 208.284 464.081 208.859 463.847C209.441 463.602 209.883 463.364 210.187 463.132C210.489 462.893 210.68 462.666 210.758 462.452C210.836 462.239 210.856 462.047 210.817 461.877C210.756 461.611 210.581 461.409 210.294 461.271C210.006 461.124 209.634 461.027 209.181 460.978C208.726 460.922 208.205 460.897 207.62 460.904C207.033 460.903 206.411 460.915 205.753 460.939C205.101 460.953 204.427 460.963 203.731 460.97C203.036 460.978 202.35 460.957 201.676 460.908C201.007 460.849 200.365 460.755 199.748 460.625C199.129 460.487 198.569 460.288 198.067 460.03C197.563 459.763 197.136 459.423 196.786 459.011C196.434 458.59 196.187 458.068 196.043 457.447C195.874 456.712 195.857 456.048 195.993 455.455C196.129 454.863 196.372 454.33 196.722 453.858C197.079 453.376 197.517 452.952 198.037 452.586C198.564 452.218 199.132 451.896 199.741 451.619C200.349 451.343 200.975 451.106 201.618 450.906C202.261 450.707 202.877 450.54 203.467 450.404C204.113 450.255 204.783 450.135 205.476 450.043C206.177 449.95 206.873 449.887 207.563 449.856C208.252 449.817 208.921 449.803 209.57 449.815C210.227 449.825 210.838 449.855 211.402 449.903L212.289 453.756Z" fill="black"/>
<path d="M193.879 457.026C193.749 457.014 193.559 457.002 193.31 456.991C193.067 456.971 192.785 456.963 192.463 456.97C192.139 456.968 191.786 456.985 191.403 457.022C191.029 457.057 190.648 457.12 190.26 457.209C189.452 457.395 188.72 457.67 188.064 458.034C187.414 458.387 186.824 458.8 186.295 459.27C185.764 459.733 185.284 460.235 184.855 460.776C184.433 461.307 184.055 461.84 183.719 462.377L186.026 472.396L181.532 473.432L177.698 456.785L182.193 455.75L182.815 458.452C183.263 457.923 183.727 457.408 184.207 456.906C184.693 456.395 185.209 455.923 185.756 455.491C186.311 455.057 186.912 454.676 187.56 454.348C188.205 454.012 188.912 453.756 189.679 453.579C189.97 453.512 190.268 453.46 190.575 453.424C190.887 453.377 191.189 453.342 191.481 453.317C191.782 453.291 192.062 453.273 192.324 453.263C192.585 453.254 192.815 453.252 193.012 453.258L193.879 457.026Z" fill="black"/>
<path d="M175.891 473.864C174.63 474.631 173.339 475.268 172.019 475.776C170.709 476.291 169.343 476.712 167.921 477.039C166.104 477.458 164.44 477.637 162.929 477.576C161.424 477.506 160.102 477.211 158.961 476.691C157.821 476.171 156.873 475.433 156.117 474.476C155.36 473.519 154.826 472.362 154.513 471.005C154.223 469.745 154.209 468.519 154.47 467.328C154.738 466.127 155.249 465.022 156.004 464.015C156.764 462.998 157.76 462.113 158.99 461.362C160.219 460.603 161.653 460.035 163.293 459.657C164.803 459.309 166.232 459.197 167.578 459.321C168.931 459.434 170.148 459.788 171.229 460.381C172.318 460.972 173.243 461.796 174.006 462.854C174.776 463.91 175.337 465.201 175.689 466.728L175.946 467.842L159.541 471.62C159.808 472.112 160.157 472.538 160.588 472.897C161.028 473.255 161.57 473.522 162.214 473.697C162.858 473.872 163.616 473.948 164.487 473.926C165.366 473.902 166.387 473.756 167.55 473.488C168.374 473.299 169.17 473.064 169.939 472.785C170.707 472.498 171.415 472.194 172.065 471.875C172.712 471.547 173.287 471.219 173.79 470.89C174.301 470.56 174.702 470.255 174.995 469.975L175.891 473.864ZM170.716 465.577C170.581 465.174 170.358 464.779 170.047 464.391C169.743 463.993 169.328 463.668 168.802 463.415C168.276 463.162 167.627 463.005 166.857 462.944C166.084 462.876 165.16 462.965 164.086 463.212C163.076 463.445 162.233 463.771 161.556 464.191C160.878 464.61 160.332 465.064 159.917 465.55C159.51 466.035 159.218 466.524 159.042 467.015C158.866 467.506 158.779 467.943 158.782 468.325L170.716 465.577Z" fill="black"/>
<path d="M147.888 481.18L145.739 471.852C145.596 471.23 145.414 470.68 145.194 470.204C144.972 469.719 144.674 469.333 144.302 469.044C143.935 468.746 143.471 468.559 142.91 468.485C142.354 468.4 141.673 468.45 140.865 468.636C140.251 468.778 139.625 469.011 138.985 469.337C138.352 469.653 137.736 470.025 137.137 470.452C136.538 470.879 135.977 471.344 135.455 471.847C134.941 472.348 134.496 472.851 134.118 473.354L136.524 483.798L132.029 484.833L128.195 468.186L132.69 467.151L133.214 469.429C133.705 468.976 134.233 468.518 134.799 468.056C135.363 467.586 135.974 467.139 136.633 466.715C137.293 466.291 138.008 465.905 138.778 465.558C139.549 465.21 140.382 464.933 141.279 464.727C142.401 464.468 143.435 464.375 144.378 464.447C145.328 464.508 146.168 464.719 146.897 465.078C147.624 465.43 148.231 465.924 148.718 466.56C149.211 467.186 149.558 467.936 149.759 468.808L152.37 480.148L147.888 481.18Z" fill="black"/>
<path d="M111.803 471.962L118.718 482.541L120.659 469.922L125.324 468.848L122.47 487.035L117.479 488.184L110.551 477.992L108.792 490.185L103.8 491.335L93.2666 476.231L97.9431 475.154L105.056 485.432L106.799 473.114L111.803 471.962Z" fill="black"/>
<path d="M93.5745 484.938C93.9037 486.367 93.9324 487.692 93.6604 488.911C93.3865 490.122 92.8455 491.208 92.0375 492.168C91.2295 493.128 90.1705 493.959 88.8607 494.66C87.557 495.352 86.0369 495.898 84.3004 496.298C82.5638 496.697 80.9501 496.873 79.4591 496.826C77.9744 496.768 76.6547 496.485 75.5 495.977C74.3454 495.469 73.3759 494.731 72.5917 493.763C71.8057 492.788 71.248 491.585 70.9188 490.155C70.5895 488.726 70.5659 487.404 70.8478 486.191C71.1279 484.97 71.676 483.878 72.4921 482.916C73.3082 481.955 74.3721 481.127 75.6838 480.434C77.0018 479.73 78.529 479.179 80.2656 478.779C82.0021 478.379 83.6087 478.209 85.0854 478.268C86.5682 478.318 87.883 478.598 89.0296 479.108C90.1761 479.618 91.1384 480.361 91.9164 481.339C92.6925 482.308 93.2452 483.508 93.5745 484.938ZM89.0312 485.984C88.888 485.362 88.6447 484.767 88.3014 484.2C87.9643 483.623 87.4846 483.146 86.8623 482.771C86.2481 482.393 85.4695 482.152 84.5265 482.046C83.5835 481.94 82.4376 482.042 81.0887 482.353C80.1841 482.561 79.4053 482.817 78.7522 483.12C78.0973 483.416 77.5483 483.746 77.1052 484.112C76.6621 484.478 76.31 484.869 76.0489 485.287C75.7859 485.696 75.5981 486.118 75.4855 486.552C75.371 486.978 75.3177 487.411 75.3256 487.852C75.3397 488.282 75.3932 488.7 75.4863 489.103C75.5811 489.515 75.7173 489.922 75.8948 490.323C76.0804 490.723 76.3188 491.093 76.61 491.435C76.8993 491.768 77.2518 492.061 77.6673 492.314C78.0828 492.567 78.5697 492.761 79.1282 492.896C79.6847 493.023 80.323 493.08 81.0431 493.067C81.7612 493.046 82.5726 492.932 83.4772 492.723C84.8261 492.413 85.9013 492.004 86.7029 491.496C87.5045 490.988 88.099 490.43 88.4863 489.822C88.8817 489.212 89.1056 488.578 89.1581 487.919C89.2167 487.251 89.1745 486.606 89.0312 485.984Z" fill="black"/>
<path d="M351.917 212.902C346.809 210.323 344.759 204.091 347.338 198.983L384.227 125.917C386.806 120.809 393.038 118.759 398.146 121.338L471.212 158.227C476.32 160.806 478.37 167.038 475.791 172.146L438.902 245.211C436.323 250.32 430.091 252.37 424.983 249.791L351.917 212.902Z" fill="#FFE55B"/>
<path d="M443.21 166.02L449.159 184.102L442.919 186.155L436.97 168.073L427.163 171.3L425.509 166.27L451.379 157.759L453.033 162.788L443.21 166.02Z" fill="black"/>
<path d="M410.624 196.781L404.384 198.834L396.78 175.723L412.423 170.576C414.105 170.023 415.586 169.728 416.867 169.692C418.158 169.652 419.274 169.832 420.213 170.232C421.164 170.627 421.951 171.226 422.575 172.027C423.206 172.813 423.705 173.762 424.07 174.872C424.391 175.847 424.531 176.746 424.491 177.567C424.461 178.384 424.298 179.134 424 179.816C423.71 180.483 423.316 181.098 422.817 181.659C422.319 182.221 421.766 182.732 421.159 183.193L431.734 189.836L424.434 192.238L414.636 186.029L407.824 188.27L410.624 196.781ZM417.751 176.914C417.604 176.465 417.417 176.104 417.19 175.831C416.975 175.554 416.69 175.368 416.335 175.273C415.977 175.167 415.537 175.15 415.014 175.223C414.502 175.292 413.882 175.446 413.153 175.686L404.608 178.497L406.235 183.443L414.78 180.631C415.509 180.391 416.1 180.147 416.553 179.899C417.016 179.647 417.363 179.378 417.592 179.091C417.817 178.793 417.934 178.469 417.943 178.118C417.963 177.764 417.899 177.362 417.751 176.914Z" fill="black"/>
<path d="M390.027 198.71L377.142 202.949L376.411 208.037L369.448 210.328L373.938 183.238L380.901 180.946L400.599 200.079L393.635 202.37L390.027 198.71ZM377.896 197.706L386.34 194.927L379.335 187.8L377.896 197.706Z" fill="black"/>
<path d="M398.933 133.363C399.678 135.628 398.446 138.068 396.181 138.813C393.916 139.559 391.476 138.327 390.731 136.062C389.986 133.797 391.218 131.357 393.483 130.611C395.748 129.866 398.188 131.098 398.933 133.363Z" fill="black"/>
<path d="M432.665 235.887C433.411 238.152 432.179 240.592 429.914 241.337C427.649 242.082 425.209 240.85 424.464 238.585C423.718 236.32 424.95 233.88 427.215 233.135C429.48 232.39 431.92 233.622 432.665 235.887Z" fill="black"/>
<path d="M51.7657 202.212C49.1337 197.594 50.7438 191.717 55.362 189.085L150.672 134.766C155.29 132.134 161.167 133.744 163.799 138.362L188.65 181.967C191.282 186.585 189.672 192.463 185.054 195.095L89.7446 249.413C85.1264 252.045 79.2489 250.435 76.6169 245.817L51.7657 202.212Z" fill="#F97ACE"/>
<path d="M148.397 168.466L157.778 184.926L152.097 188.163L142.716 171.703L133.79 176.791L131.181 172.213L154.73 158.792L157.339 163.37L148.397 168.466Z" fill="black"/>
<path d="M117.278 186.079L119.363 189.739L133.036 181.946L135.593 186.432L121.92 194.225L126.711 202.631L121.03 205.868L109.041 184.83L129.144 173.373L131.701 177.859L117.278 186.079Z" fill="black"/>
<path d="M108.291 213.129L85.8596 206.764L94.0971 221.218L88.4166 224.455L76.4268 203.417L82.5972 199.901L105.079 206.318L96.8062 191.803L102.456 188.583L114.446 209.621L108.291 213.129Z" fill="black"/>
<path fill-rule="evenodd" clip-rule="evenodd" d="M61.1065 195.708C60.4485 194.554 60.851 193.085 62.0056 192.426L62.0425 192.405C63.1971 191.747 64.6665 192.15 65.3245 193.305C65.9825 194.459 65.5799 195.928 64.4254 196.586L64.3884 196.608C63.2338 197.266 61.7645 196.863 61.1065 195.708ZM75.9353 187.257C75.2773 186.103 75.6799 184.633 76.8344 183.975L76.9084 183.933C78.063 183.275 79.5323 183.678 80.1903 184.832C80.8483 185.987 80.4458 187.456 79.2912 188.114L79.2173 188.156C78.0627 188.814 76.5934 188.412 75.9353 187.257ZM90.8012 178.785C90.1432 177.63 90.5457 176.161 91.7003 175.503L91.7743 175.461C92.9288 174.803 94.3982 175.205 95.0562 176.36C95.7142 177.514 95.3117 178.984 94.1571 179.642L94.0831 179.684C92.9286 180.342 91.4592 179.939 90.8012 178.785ZM105.667 170.312C105.009 169.158 105.412 167.689 106.566 167.031L106.64 166.988C107.795 166.33 109.264 166.733 109.922 167.887C110.58 169.042 110.178 170.511 109.023 171.169L108.949 171.212C107.794 171.87 106.325 171.467 105.667 170.312ZM120.533 161.84C119.875 160.686 120.277 159.216 121.432 158.558L121.506 158.516C122.661 157.858 124.13 158.261 124.788 159.415C125.446 160.57 125.043 162.039 123.889 162.697L123.815 162.739C122.66 163.397 121.191 162.995 120.533 161.84ZM135.399 153.368C134.741 152.213 135.143 150.744 136.298 150.086L136.372 150.044C137.526 149.386 138.996 149.788 139.654 150.943C140.312 152.097 139.909 153.567 138.755 154.225L138.681 154.267C137.526 154.925 136.057 154.522 135.399 153.368ZM150.265 144.895C149.607 143.741 150.009 142.271 151.164 141.613L151.201 141.592C152.355 140.934 153.825 141.337 154.483 142.491C155.141 143.646 154.738 145.115 153.584 145.773L153.547 145.794C152.392 146.452 150.923 146.05 150.265 144.895Z" fill="black"/>
<path fill-rule="evenodd" clip-rule="evenodd" d="M86.9199 241.003C86.2619 239.848 86.6645 238.379 87.819 237.721L87.856 237.7C89.0106 237.042 90.4799 237.444 91.1379 238.599C91.796 239.753 91.3934 241.223 90.2389 241.881L90.2019 241.902C89.0473 242.56 87.5779 242.157 86.9199 241.003ZM101.749 232.552C101.091 231.397 101.493 229.928 102.648 229.27L102.722 229.228C103.876 228.569 105.346 228.972 106.004 230.127C106.662 231.281 106.259 232.751 105.105 233.409L105.031 233.451C103.876 234.109 102.407 233.706 101.749 232.552ZM116.615 224.079C115.957 222.925 116.359 221.455 117.514 220.797L117.588 220.755C118.742 220.097 120.212 220.5 120.87 221.654C121.528 222.809 121.125 224.278 119.971 224.936L119.897 224.978C118.742 225.636 117.273 225.234 116.615 224.079ZM131.481 215.607C130.823 214.452 131.225 212.983 132.38 212.325L132.454 212.283C133.608 211.625 135.078 212.027 135.736 213.182C136.394 214.336 135.991 215.806 134.836 216.464L134.762 216.506C133.608 217.164 132.139 216.761 131.481 215.607ZM146.346 207.135C145.688 205.98 146.091 204.511 147.246 203.853L147.319 203.81C148.474 203.152 149.943 203.555 150.601 204.71C151.259 205.864 150.857 207.333 149.702 207.991L149.628 208.034C148.474 208.692 147.004 208.289 146.346 207.135ZM161.212 198.662C160.554 197.508 160.957 196.038 162.111 195.38L162.185 195.338C163.34 194.68 164.809 195.083 165.467 196.237C166.125 197.392 165.723 198.861 164.568 199.519L164.494 199.561C163.34 200.219 161.87 199.817 161.212 198.662ZM176.078 190.19C175.42 189.035 175.823 187.566 176.977 186.908L177.014 186.887C178.169 186.229 179.638 186.631 180.296 187.786C180.954 188.94 180.552 190.41 179.397 191.068L179.36 191.089C178.206 191.747 176.736 191.344 176.078 190.19Z" fill="black"/>
<circle cx="45" cy="301" r="14" fill="#2B8BFC" stroke="white" stroke-width="2"/>
<circle cx="466" cy="78.0002" r="10" fill="white" stroke="#2B8BFC" stroke-width="2"/>
<circle cx="500" cy="100" r="5" fill="#2B8BFC" stroke="#2B8BFC" stroke-width="2"/>
<circle cx="229" cy="514" r="5" fill="#2B8BFC" stroke="#2B8BFC" stroke-width="2"/>
<circle cx="6" cy="345" r="5" fill="white" stroke="white" stroke-width="2"/>
<circle cx="212" cy="31.0002" r="5" fill="white" stroke="white" stroke-width="2"/>
</svg>
