<svg width="210" height="227" viewBox="0 0 210 227" fill="none" xmlns="http://www.w3.org/2000/svg">
<path d="M126.523 23.1055C128.318 20.9148 131.86 21.8987 132.267 24.7009L139.717 75.9542C139.921 77.3593 141.012 78.4702 142.413 78.7001L193.521 87.0858C196.316 87.5443 197.235 91.1039 195.012 92.8577L154.35 124.936C153.235 125.815 152.818 127.315 153.32 128.644L171.612 177.098C172.612 179.747 169.989 182.323 167.358 181.274L119.247 162.099C117.928 161.574 116.42 161.963 115.521 163.061L82.7041 203.13C80.9099 205.32 77.3678 204.336 76.9605 201.534L69.5108 150.281C69.3066 148.876 68.2158 147.765 66.8146 147.535L15.7062 139.149C12.9119 138.691 11.9929 135.131 14.2161 133.377L54.8779 101.299C55.9926 100.42 56.4093 98.9196 55.9078 97.5913L37.6159 49.1372C36.6158 46.488 39.239 43.9124 41.8694 44.9607L89.9809 64.1358C91.2998 64.6614 92.8073 64.2722 93.707 63.1738L126.523 23.1055Z" fill="#FF6363"/>
<path d="M124.251 34.7993C125.429 33.1493 128.025 33.8704 128.183 35.8916L131.954 84.0241C132.036 85.0731 132.858 85.9122 133.905 86.0156L181.464 90.7122C183.469 90.9101 184.147 93.4934 182.499 94.6507L143.031 122.358C142.182 122.954 141.873 124.067 142.293 125.015L161.816 169.108C162.632 170.95 160.718 172.813 158.899 171.949L115.731 151.444C114.781 150.993 113.643 151.287 113.032 152.144L84.9766 191.436C83.7986 193.086 81.2026 192.365 81.0443 190.344L77.2734 142.211C77.1912 141.162 76.3689 140.323 75.3218 140.219L27.763 135.523C25.7586 135.325 25.0802 132.742 26.7286 131.584L66.1962 103.877C67.0449 103.281 67.354 102.169 66.9342 101.22L47.4111 57.1268C46.5957 55.2851 48.5093 53.4218 50.3286 54.286L93.4962 74.791C94.4466 75.2424 95.5839 74.9476 96.1953 74.0913L124.251 34.7993Z" fill="#FF6363"/>
<path fill-rule="evenodd" clip-rule="evenodd" d="M125.168 39.1196L98.8464 75.9842C97.3178 78.1249 94.4746 78.862 92.0986 77.7333L51.5745 58.4841L69.9127 99.9016C70.9622 102.272 70.1895 105.054 68.0679 106.543L30.9957 132.569L75.642 136.978C78.2596 137.236 80.3155 139.334 80.5209 141.957L84.0588 187.116L110.381 150.251C111.909 148.11 114.753 147.373 117.129 148.502L157.653 167.751L139.314 126.334C138.265 123.963 139.038 121.182 141.159 119.692L178.232 93.6663L133.585 89.2573C130.968 88.9988 128.912 86.9009 128.706 84.2785L125.168 39.1196ZM128.183 35.8916C128.025 33.8704 125.429 33.1493 124.251 34.7993L96.1953 74.0913C95.5839 74.9476 94.4466 75.2424 93.4962 74.791L50.3286 54.286C48.5093 53.4218 46.5957 55.2851 47.4111 57.1268L66.9342 101.22C67.354 102.169 67.0449 103.281 66.1962 103.877L26.7286 131.584C25.0802 132.742 25.7586 135.325 27.763 135.523L75.3218 140.219C76.3689 140.323 77.1912 141.162 77.2734 142.211L81.0443 190.344C81.2026 192.365 83.7986 193.086 84.9766 191.436L113.032 152.144C113.643 151.287 114.781 150.993 115.731 151.444L158.899 171.949C160.718 172.813 162.632 170.95 161.816 169.108L142.293 125.015C141.873 124.067 142.182 122.954 143.031 122.358L182.499 94.6507C184.147 93.4934 183.469 90.9101 181.464 90.7122L133.905 86.0156C132.858 85.9122 132.036 85.0731 131.954 84.0241L128.183 35.8916Z" fill="black"/>
<path d="M116.622 135.047L126.37 99.9524L135.846 102.585L126.098 137.679L116.622 135.047Z" fill="black"/>
<path d="M101.465 123.684L81.9001 118.249L76.7605 123.975L66.1861 121.037L94.2993 91.0439L104.874 93.9812L113.49 134.177L102.916 131.24L101.465 123.684ZM87.1987 112.347L100.021 115.909L97.2253 101.211L87.1987 112.347Z" fill="black"/>
</svg>
