<svg width="219" height="219" viewBox="0 0 219 219" fill="none" xmlns="http://www.w3.org/2000/svg">
<path d="M27.3753 99.929C23.5582 93.8286 25.4092 85.789 31.5096 81.9719L118.765 27.3751C124.866 23.5581 132.905 25.409 136.722 31.5094L191.319 118.765C195.136 124.865 193.285 132.905 187.185 136.722L99.9291 191.319C93.8288 195.136 85.7891 193.285 81.972 187.185L27.3753 99.929Z" fill="#FFE55B"/>
<path d="M156.12 108.922L150.749 132.249L142.698 130.396L148.069 107.068L135.418 104.156L136.912 97.6675L170.286 105.351L168.792 111.84L156.12 108.922Z" fill="black"/>
<path d="M101.034 120.804L92.9836 118.95L99.8481 89.1343L120.029 93.7806C122.199 94.2802 123.985 94.9274 125.386 95.7223C126.802 96.5204 127.885 97.4401 128.635 98.4812C129.4 99.5256 129.858 100.682 130.007 101.95C130.175 103.208 130.094 104.552 129.764 105.985C129.474 107.243 129.04 108.301 128.462 109.158C127.899 110.018 127.235 110.719 126.471 111.259C125.724 111.788 124.9 112.192 123.998 112.472C123.095 112.751 122.168 112.942 121.216 113.042L128.268 127.074L118.85 124.905L112.351 111.847L103.562 109.823L101.034 120.804ZM121.637 104.068C121.77 103.489 121.804 102.979 121.738 102.537C121.686 102.099 121.501 101.713 121.181 101.381C120.865 101.034 120.402 100.729 119.792 100.467C119.197 100.208 118.429 99.9702 117.489 99.7537L106.465 97.2157L104.996 103.595L116.02 106.133C116.96 106.35 117.755 106.472 118.403 106.499C119.066 106.53 119.614 106.466 120.047 106.307C120.483 106.133 120.82 105.86 121.058 105.488C121.311 105.12 121.503 104.646 121.637 104.068Z" fill="black"/>
<path d="M77.6171 109.471L60.9949 105.644L56.8966 110.642L47.9128 108.573L70.3796 82.3497L79.3634 84.418L88.1012 117.826L79.1174 115.758L77.6171 109.471ZM65.2199 100.493L76.1133 103.001L73.2163 90.7719L65.2199 100.493Z" fill="black"/>
<path d="M129.742 44.9607C129.069 47.8827 126.155 49.706 123.233 49.0333C120.311 48.3606 118.488 45.4465 119.161 42.5246C119.834 39.6026 122.748 37.7792 125.67 38.452C128.592 39.1247 130.415 42.0387 129.742 44.9607Z" fill="black"/>
<path d="M99.29 177.227C98.6173 180.149 95.7032 181.973 92.7813 181.3C89.8593 180.627 88.036 177.713 88.7087 174.791C89.3814 171.869 92.2955 170.046 95.2174 170.719C98.1394 171.391 99.9627 174.305 99.29 177.227Z" fill="black"/>
</svg>
