<svg width="315" height="199" viewBox="0 0 315 199" fill="none" xmlns="http://www.w3.org/2000/svg">
<path d="M298.885 66.4268C307.439 103.113 250.933 147.646 172.676 165.893C94.4178 184.141 24.0428 169.193 15.4887 132.506C6.93452 95.8194 63.4404 51.2868 141.698 33.0395C219.956 14.7922 290.331 29.7402 298.885 66.4268Z" fill="#0FE5F2"/>
<path fill-rule="evenodd" clip-rule="evenodd" d="M277.425 89.7967C281.894 82.5242 283.151 76.056 281.848 70.4695C280.546 64.883 276.558 59.6376 269.333 55.092C262.075 50.5257 251.945 46.9445 239.414 44.7309C214.377 40.3084 181.043 41.5719 145.481 49.864C109.918 58.156 79.4626 71.7663 58.9642 86.8062C48.7046 94.3338 41.2034 102.026 36.7135 109.332C32.2438 116.604 30.9874 123.072 32.29 128.659C33.5926 134.245 37.5803 139.491 44.8056 144.036C52.0636 148.602 62.1934 152.184 74.7243 154.397C99.7607 158.82 133.095 157.556 168.658 149.264C204.22 140.972 234.676 127.362 255.174 112.322C265.434 104.794 272.935 97.1022 277.425 89.7967ZM170.137 155.609C242.555 138.723 295.41 99.9428 288.193 68.9901C280.976 38.0374 216.419 26.6338 144.001 43.5193C71.5835 60.4048 18.7281 99.1854 25.9453 130.138C33.1626 161.091 97.7194 172.494 170.137 155.609Z" fill="black"/>
<path d="M234.467 73.7171L239.644 95.9194L231.981 97.7061L226.805 75.5038L214.764 78.3113L213.324 72.136L245.089 64.7294L246.528 70.9048L234.467 73.7171Z" fill="black"/>
<path d="M207.527 103.408L206.877 100.62C206.025 101.384 205.082 102.105 204.05 102.781C203.031 103.455 201.949 104.077 200.805 104.649C199.661 105.22 198.457 105.726 197.195 106.165C195.95 106.615 194.673 106.993 193.365 107.298C191.837 107.654 190.323 107.855 188.824 107.899C187.338 107.941 185.969 107.767 184.717 107.376C183.464 106.986 182.379 106.346 181.46 105.457C180.555 104.565 179.926 103.361 179.573 101.847C179.127 99.933 179.279 98.2207 180.03 96.7099C180.778 95.1854 182.131 93.7666 184.09 92.4534C186.048 91.1402 188.615 89.8812 191.789 88.6765C194.977 87.4686 198.787 86.2175 203.217 84.923L203.078 84.3241C202.969 83.8559 202.737 83.4235 202.383 83.027C202.026 82.6166 201.477 82.3164 200.736 82.1263C200.005 81.9192 199.043 81.8387 197.849 81.8849C196.669 81.9278 195.197 82.1548 193.435 82.5657C192.044 82.89 190.685 83.2867 189.357 83.756C188.04 84.2083 186.777 84.7061 185.568 85.2493C184.373 85.7893 183.249 86.3562 182.197 86.9499C181.145 87.5436 180.199 88.127 179.36 88.7001L177.771 81.8845C178.677 81.4119 179.702 80.9189 180.845 80.4055C181.989 79.8922 183.188 79.402 184.444 78.935C185.696 78.4542 186.972 78.0115 188.272 77.6069C189.568 77.1886 190.822 76.8381 192.033 76.5556C194.415 76.0002 196.658 75.6878 198.761 75.6183C200.862 75.5351 202.731 75.738 204.369 76.2271C206.021 76.7129 207.401 77.4945 208.509 78.5718C209.63 79.6459 210.395 81.0573 210.803 82.8059L215.19 101.621L207.527 103.408ZM204.508 90.4581C201.587 91.2553 199.118 91.9979 197.101 92.686C195.098 93.3709 193.446 94.01 192.148 94.6032C190.849 95.1964 189.844 95.7429 189.133 96.2425C188.435 96.739 187.933 97.1974 187.624 97.6178C187.316 98.0381 187.152 98.4247 187.132 98.7777C187.127 99.1274 187.156 99.4399 187.22 99.7153C187.297 100.046 187.462 100.348 187.715 100.623C187.965 100.885 188.337 101.081 188.832 101.212C189.341 101.34 189.984 101.387 190.759 101.351C191.535 101.315 192.487 101.166 193.616 100.902C194.869 100.61 196.072 100.228 197.225 99.7561C198.378 99.284 199.453 98.7576 200.45 98.1767C201.444 97.5821 202.356 96.9484 203.186 96.2757C204.027 95.586 204.758 94.8929 205.38 94.1963L204.508 90.4581Z" fill="black"/>
<path d="M173.845 109.781C171.698 111.095 169.499 112.188 167.249 113.061C165.017 113.944 162.688 114.669 160.265 115.234C157.167 115.956 154.329 116.269 151.752 116.174C149.185 116.061 146.928 115.564 144.98 114.682C143.033 113.801 141.412 112.545 140.117 110.916C138.823 109.287 137.906 107.316 137.366 105.003C136.866 102.855 136.835 100.764 137.276 98.7309C137.727 96.6804 138.594 94.7943 139.876 93.0725C141.169 91.3338 142.864 89.8209 144.959 88.5339C147.051 87.2331 149.495 86.2568 152.29 85.6051C154.864 85.0047 157.301 84.8068 159.599 85.0114C161.907 85.199 163.984 85.7962 165.831 86.803C167.691 87.8065 169.273 89.2086 170.579 91.0093C171.898 92.8067 172.861 95.0066 173.468 97.6089L173.911 99.509L145.946 106.029C146.403 106.867 147 107.591 147.738 108.203C148.489 108.812 149.415 109.264 150.515 109.559C151.614 109.854 152.907 109.981 154.392 109.94C155.892 109.895 157.633 109.641 159.616 109.179C161.02 108.852 162.378 108.448 163.688 107.968C164.996 107.474 166.203 106.954 167.309 106.405C168.412 105.843 169.391 105.281 170.247 104.718C171.117 104.153 171.801 103.63 172.299 103.151L173.845 109.781ZM164.98 95.6683C164.747 94.9821 164.365 94.309 163.834 93.649C163.313 92.972 162.603 92.4188 161.705 91.9896C160.806 91.5603 159.699 91.2958 158.384 91.196C157.065 91.0824 155.491 91.2391 153.659 91.6661C151.938 92.0674 150.501 92.6276 149.347 93.3466C148.194 94.0656 147.264 94.8413 146.558 95.6737C145.866 96.5029 145.371 97.337 145.073 98.1759C144.775 99.0148 144.629 99.7601 144.636 100.412L164.98 95.6683Z" fill="black"/>
<path d="M132.539 97.745C132.316 97.7243 131.992 97.7055 131.567 97.6884C131.153 97.6544 130.671 97.6433 130.122 97.6552C129.57 97.6532 128.968 97.6848 128.315 97.7499C127.676 97.8117 127.026 97.9197 126.366 98.0738C124.989 98.3949 123.741 98.8672 122.624 99.4907C121.517 100.097 120.513 100.803 119.612 101.608C118.707 102.4 117.891 103.258 117.163 104.183C116.446 105.09 115.802 106.003 115.232 106.92L119.214 124L111.552 125.787L104.935 97.4089L112.598 95.6223L113.671 100.228C114.433 99.3244 115.222 98.4436 116.039 97.5855C116.865 96.7104 117.744 95.903 118.675 95.1634C119.62 94.4205 120.643 93.768 121.746 93.206C122.846 92.6302 124.05 92.1898 125.358 91.8848C125.854 91.7692 126.363 91.6796 126.885 91.6158C127.418 91.5351 127.933 91.473 128.431 91.4295C128.943 91.3828 129.422 91.351 129.868 91.3341C130.314 91.3171 130.705 91.3131 131.041 91.3218L132.539 97.745Z" fill="black"/>
<path d="M103.953 125.511C103.058 126.155 102.146 126.76 101.218 127.325C100.29 127.89 99.3166 128.414 98.2972 128.899C97.281 129.397 96.1884 129.848 95.0194 130.251C93.8642 130.651 92.605 131.01 91.2419 131.328C88.3504 132.002 85.6139 132.313 83.0323 132.262C80.4645 132.208 78.155 131.766 76.1036 130.938C74.0628 130.093 72.3369 128.855 70.9259 127.224C69.5117 125.579 68.514 123.511 67.9329 121.019C67.3518 118.526 67.3334 116.237 67.8776 114.15C68.4185 112.05 69.4189 110.176 70.8786 108.529C72.3488 106.865 74.2234 105.441 76.5022 104.256C78.7948 103.068 81.3869 102.137 84.2784 101.463C85.6415 101.145 86.9295 100.91 88.1426 100.758C89.3693 100.603 90.5486 100.524 91.6804 100.521C92.8089 100.505 93.9143 100.545 94.9965 100.641C96.0786 100.737 97.1636 100.876 98.2512 101.058L99.8597 107.956C98.9753 107.712 98.0513 107.485 97.0875 107.274C96.1206 107.049 95.0753 106.894 93.9519 106.807C92.8252 106.707 91.6113 106.7 90.3101 106.786C89.0058 106.857 87.5688 107.076 85.9992 107.442C83.5896 108.004 81.644 108.719 80.1624 109.587C78.6946 110.452 77.5819 111.408 76.8245 112.456C76.0671 113.504 75.6208 114.609 75.4857 115.773C75.3474 116.923 75.4115 118.07 75.6779 119.213C75.8545 119.97 76.1121 120.701 76.4507 121.406C76.7861 122.097 77.2236 122.728 77.7632 123.299C78.2996 123.857 78.9418 124.338 79.6898 124.745C80.4379 125.151 81.3197 125.446 82.3353 125.63C83.3509 125.815 84.4987 125.881 85.7787 125.829C87.0693 125.761 88.5201 125.538 90.131 125.163C91.7007 124.797 93.0895 124.371 94.2975 123.886C95.5023 123.388 96.5894 122.851 97.5588 122.277C98.5282 121.702 99.3985 121.107 100.17 120.492C100.938 119.863 101.663 119.237 102.345 118.613L103.953 125.511Z" fill="black"/>
</svg>
