<svg width="360" height="130" viewBox="0 0 360 130" fill="none" xmlns="http://www.w3.org/2000/svg">
<path d="M3.64842 72.0383C1.63345 54.7647 14.003 39.1283 31.2765 37.1133L318.158 3.6485C335.432 1.63353 351.068 14.0031 353.083 31.2766C355.098 48.5502 342.728 64.1866 325.455 66.2016L38.5734 99.6664C21.2998 101.681 5.66338 89.3118 3.64842 72.0383Z" fill="#2B8BFC"/>
<path d="M72.6278 119.83C72.8536 121.766 75.3172 122.447 76.5057 120.903L105.232 83.5771C106.404 82.0549 105.168 79.8731 103.26 80.0956L70.6232 83.9027C69.4319 84.0417 68.5788 85.12 68.7178 86.3113L72.6278 119.83Z" fill="#2B8BFC"/>
<path d="M315.538 33.316C315.673 34.4732 315.629 35.5601 315.406 36.5768C315.182 37.5823 314.735 38.4828 314.065 39.2784C313.404 40.0614 312.502 40.719 311.357 41.2511C310.212 41.7832 308.786 42.1489 307.078 42.3481L296.697 43.559L297.551 50.8725L291.299 51.6018L288.598 28.4478L305.23 26.5076C306.938 26.3084 308.41 26.3359 309.647 26.5902C310.882 26.8333 311.912 27.2654 312.736 27.8867C313.57 28.4954 314.212 29.2632 314.661 30.1901C315.111 31.1169 315.403 32.1589 315.538 33.316ZM309.231 34.1543C309.168 33.6151 309.036 33.1636 308.834 32.8C308.642 32.4238 308.357 32.1325 307.98 31.9259C307.603 31.7194 307.127 31.5927 306.552 31.5459C305.976 31.4879 305.278 31.5067 304.458 31.6023L295.426 32.656L296.121 38.6214L305.154 37.5678C305.974 37.4721 306.66 37.3466 307.211 37.1912C307.761 37.0246 308.197 36.8086 308.519 36.5433C308.84 36.2667 309.051 35.9346 309.154 35.5468C309.268 35.1577 309.294 34.6936 309.231 34.1543Z" fill="black"/>
<path d="M277.783 53.1785L275.083 30.0244L281.334 29.2951L284.035 52.4492L277.783 53.1785Z" fill="black"/>
<path d="M264.286 54.753L263.159 45.097L247.251 46.9527L248.378 56.6086L242.126 57.3379L239.425 34.1838L245.677 33.4545L246.66 41.8803L262.568 40.0247L261.585 31.5989L267.837 30.8696L270.538 54.0237L264.286 54.753Z" fill="black"/>
<path d="M232.333 41.6216C231.87 41.4592 231.263 41.2852 230.512 41.0994C229.762 40.9137 228.918 40.7559 227.98 40.6261C227.042 40.4851 226.029 40.3982 224.944 40.3654C223.857 40.3214 222.752 40.3649 221.628 40.496C220.729 40.6008 219.963 40.7187 219.329 40.8496C218.707 40.9791 218.182 41.1144 217.754 41.2554C217.338 41.395 217.007 41.5417 216.763 41.6955C216.529 41.8366 216.352 41.9769 216.232 42.1162C216.111 42.2555 216.036 42.3895 216.005 42.5184C215.986 42.6459 215.982 42.7602 215.994 42.8613C216.033 43.1983 216.237 43.4764 216.604 43.6955C216.97 43.9033 217.457 44.0743 218.064 44.2083C218.671 44.3312 219.372 44.4372 220.168 44.5266C220.963 44.6047 221.804 44.6888 222.691 44.7788C223.589 44.8564 224.511 44.9537 225.458 45.071C226.416 45.1756 227.344 45.3236 228.243 45.5148C229.154 45.7046 230.019 45.951 230.84 46.2538C231.66 46.5453 232.392 46.9154 233.037 47.364C233.681 47.8127 234.211 48.3544 234.627 48.9891C235.042 49.6238 235.301 50.3737 235.402 51.2388C235.531 52.351 235.446 53.3289 235.146 54.1724C234.846 55.0159 234.396 55.7515 233.798 56.3793C233.21 57.0058 232.504 57.538 231.678 57.976C230.851 58.4027 229.971 58.7616 229.037 59.0528C228.114 59.3426 227.167 59.5726 226.196 59.7428C225.237 59.9117 224.319 60.0472 223.442 60.1494C221.151 60.4168 219.005 60.4735 217.006 60.3195C215.019 60.1755 213.246 59.9098 211.686 59.5224L211.041 53.995C212.68 54.6693 214.51 55.1333 216.533 55.3871C218.566 55.6395 220.707 55.6347 222.954 55.3726C224.279 55.2179 225.35 55.0247 226.166 54.7929C226.991 54.5486 227.627 54.2922 228.074 54.0237C228.52 53.7439 228.812 53.4651 228.95 53.187C229.089 52.909 229.144 52.652 229.117 52.4161C229.073 52.0453 228.867 51.7448 228.499 51.5145C228.129 51.2729 227.64 51.0851 227.033 50.9511C226.423 50.8058 225.722 50.6941 224.927 50.616C224.131 50.5266 223.285 50.4488 222.389 50.3825C221.503 50.3037 220.587 50.2169 219.642 50.1221C218.698 50.0274 217.771 49.8963 216.864 49.7289C215.966 49.5489 215.108 49.3244 214.291 49.0553C213.473 48.775 212.743 48.4218 212.101 47.9956C211.458 47.5582 210.929 47.0334 210.516 46.4211C210.102 45.7976 209.844 45.0533 209.744 44.1883C209.624 43.1659 209.701 42.2631 209.974 41.4796C210.247 40.6962 210.657 40.0108 211.203 39.4232C211.76 38.8231 212.418 38.3137 213.177 37.8948C213.948 37.4747 214.767 37.1229 215.633 36.8397C216.5 36.5564 217.384 36.328 218.286 36.1544C219.188 35.9809 220.05 35.8462 220.87 35.7506C221.768 35.6457 222.695 35.5832 223.649 35.563C224.614 35.5415 225.568 35.5613 226.508 35.6223C227.448 35.6721 228.357 35.754 229.236 35.8678C230.126 35.9804 230.95 36.112 231.707 36.2628L232.333 41.6216Z" fill="black"/>
<path d="M206.872 43.2932C206.697 43.2567 206.441 43.2125 206.105 43.1606C205.779 43.0962 205.397 43.044 204.96 43.0039C204.521 42.9526 204.039 42.9234 203.514 42.9162C203.001 42.9078 202.475 42.9351 201.935 42.998C200.812 43.129 199.778 43.392 198.833 43.7868C197.899 44.1692 197.037 44.6398 196.248 45.1987C195.458 45.7463 194.732 46.3549 194.07 47.0242C193.418 47.6811 192.823 48.3482 192.288 49.0256L193.913 62.9619L187.661 63.6912L184.96 40.5371L191.212 39.8078L191.651 43.5657C192.338 42.9162 193.045 42.2871 193.771 41.6786C194.507 41.0576 195.278 40.495 196.085 39.991C196.903 39.4856 197.775 39.0593 198.703 38.712C199.629 38.3534 200.625 38.1119 201.693 37.9874C202.097 37.9402 202.51 37.9149 202.931 37.9113C203.362 37.8952 203.777 37.8923 204.177 37.9026C204.588 37.9116 204.971 37.9295 205.327 37.9563C205.683 37.9831 205.995 38.0151 206.261 38.0524L206.872 43.2932Z" fill="black"/>
<path d="M179.944 63.43C178.119 64.2806 176.273 64.9515 174.406 65.4426C172.551 65.9436 170.635 66.3094 168.658 66.5401C166.13 66.8349 163.846 66.8281 161.806 66.5195C159.776 66.1983 158.027 65.5996 156.558 64.7233C155.089 63.847 153.914 62.703 153.032 61.2914C152.15 59.8798 151.599 58.2303 151.378 56.3429C151.174 54.5904 151.338 52.9257 151.872 51.349C152.415 49.7597 153.274 48.3386 154.449 47.0856C155.634 45.82 157.117 44.7702 158.899 43.9361C160.679 43.0907 162.709 42.535 164.99 42.269C167.091 42.0239 169.045 42.0863 170.853 42.4562C172.671 42.8134 174.269 43.4754 175.646 44.4422C177.034 45.4076 178.165 46.6649 179.041 48.2139C179.927 49.7616 180.494 51.5972 180.742 53.7205L180.923 55.2708L158.106 57.9324C158.393 58.6391 158.803 59.2688 159.334 59.8218C159.877 60.3734 160.572 60.8161 161.419 61.15C162.266 61.4839 163.282 61.7013 164.467 61.8022C165.663 61.9018 167.07 61.8573 168.688 61.6686C169.834 61.5349 170.949 61.3365 172.034 61.0732C173.118 60.7987 174.125 60.4935 175.053 60.1574C175.981 59.8101 176.81 59.4514 177.541 59.0814C178.284 58.7102 178.874 58.3566 179.313 58.0207L179.944 63.43ZM174.17 51.4125C174.047 50.8461 173.804 50.2766 173.441 49.704C173.088 49.1189 172.574 48.6152 171.898 48.193C171.223 47.7708 170.367 47.4607 169.33 47.2628C168.292 47.0536 167.026 47.0362 165.532 47.2105C164.128 47.3743 162.935 47.6899 161.953 48.1575C160.971 48.625 160.162 49.1578 159.526 49.7558C158.901 50.3525 158.432 50.9709 158.12 51.6108C157.807 52.2508 157.624 52.8301 157.571 53.3488L174.17 51.4125Z" fill="black"/>
<path d="M140.865 69.15L139.351 56.1743C139.25 55.3092 139.086 54.5369 138.859 53.8574C138.63 53.1667 138.285 52.5978 137.823 52.1506C137.37 51.691 136.769 51.3682 136.019 51.1825C135.278 50.9842 134.346 50.9506 133.223 51.0816C132.369 51.1812 131.484 51.404 130.568 51.75C129.661 52.0835 128.77 52.4949 127.893 52.9844C127.017 53.4738 126.187 54.0204 125.403 54.6242C124.631 55.2268 123.951 55.8413 123.363 56.4678L125.058 70.9938L118.806 71.7231L116.105 48.5691L122.357 47.8398L122.726 51.0079C123.46 50.4668 124.246 49.9254 125.082 49.3837C125.917 48.8308 126.814 48.3163 127.772 47.8401C128.729 47.364 129.757 46.9481 130.854 46.5923C131.952 46.2366 133.124 45.986 134.371 45.8405C135.932 45.6584 137.348 45.6868 138.617 45.926C139.896 46.1526 141.003 46.5643 141.938 47.1612C142.872 47.7469 143.621 48.5079 144.186 49.4441C144.76 50.3678 145.118 51.4363 145.26 52.6496L147.1 68.4227L140.865 69.15Z" fill="black"/>
<path d="M93.3049 51.2287L101.095 66.6152L105.623 49.7918L112.111 49.035L105.51 73.2741L98.5673 74.084L90.7012 59.2189L86.4847 75.4935L79.5418 76.3034L67.522 54.2363L74.0267 53.4776L82.1315 68.4857L86.3452 52.0406L93.3049 51.2287Z" fill="black"/>
<path d="M66.6329 66.0917C66.8649 68.0802 66.7049 69.881 66.1528 71.4941C65.5995 73.0959 64.7028 74.4873 63.4627 75.6682C62.2226 76.8491 60.6616 77.8169 58.7796 78.5716C56.9076 79.3138 54.7639 79.8258 52.3485 80.1075C49.9331 80.3893 47.7178 80.3858 45.7028 80.097C43.6976 79.7957 41.9501 79.2138 40.4603 78.3514C38.9704 77.4889 37.7663 76.3426 36.8479 74.9125C35.9282 73.4711 35.3524 71.7562 35.1205 69.7677C34.8885 67.7792 35.0548 65.9834 35.6193 64.3802C36.1826 62.7659 37.0899 61.3676 38.3412 60.1854C39.5926 59.0032 41.1599 58.0403 43.0431 57.2968C44.9363 56.5408 47.0906 56.0219 49.506 55.7401C51.9214 55.4584 54.1261 55.4688 56.12 55.7714C58.1238 56.0615 59.865 56.6384 61.3436 57.5021C62.8223 58.3659 64.0158 59.5191 64.9243 60.9618C65.8314 62.3933 66.401 64.1033 66.6329 66.0917ZM60.3136 66.8289C60.2127 65.9639 59.972 65.1208 59.5915 64.2997C59.221 63.4662 58.6419 62.748 57.8542 62.1452C57.0777 61.5412 56.0579 61.0965 54.7948 60.8111C53.5317 60.5257 51.962 60.4925 50.0859 60.7113C48.8276 60.8581 47.7329 61.0883 46.8015 61.4019C45.8689 61.7043 45.0746 62.0702 44.4187 62.4998C43.7628 62.9293 43.2264 63.4075 42.8096 63.9344C42.3915 64.45 42.0735 64.9938 41.8555 65.5659C41.6363 66.1266 41.4989 66.7063 41.4435 67.3049C41.398 67.891 41.408 68.4649 41.4735 69.0266C41.5403 69.5996 41.664 70.1716 41.8445 70.7427C42.0362 71.3124 42.304 71.8506 42.6477 72.357C42.9902 72.8523 43.4242 73.3027 43.9498 73.7083C44.4753 74.1139 45.1067 74.4501 45.8439 74.7172C46.5797 74.9729 47.4369 75.1462 48.4154 75.2371C49.3926 75.3167 50.5103 75.2831 51.7686 75.1363C53.6447 74.9174 55.1645 74.5238 56.3281 73.9554C57.4916 73.3869 58.3816 72.7194 58.9982 71.9529C59.6261 71.185 60.025 70.3585 60.195 69.4732C60.375 68.5754 60.4145 67.6939 60.3136 66.8289Z" fill="black"/>
</svg>
