<svg width="215" height="202" viewBox="0 0 215 202" fill="none" xmlns="http://www.w3.org/2000/svg">
<path d="M123.045 30.7633C128.766 25.9001 137.606 29.0373 138.982 36.4188L167.084 187.231C168.463 194.633 161.305 200.749 154.208 198.231L9.22345 146.778C2.12718 144.26 0.425301 135 6.16238 130.123L123.045 30.7633Z" fill="#FF974C"/>
<path d="M127.246 35.25C129.154 33.6227 132.108 34.671 132.563 37.1369L160.564 188.79C161.02 191.256 158.635 193.29 156.272 192.451L10.9358 140.874C8.57263 140.036 8.0035 136.953 9.91138 135.326L127.246 35.25Z" fill="#FF974C"/>
<path fill-rule="evenodd" clip-rule="evenodd" d="M158.429 189.184L130.428 37.5312C130.276 36.7092 129.291 36.3598 128.655 36.9022L11.3206 136.978C10.6847 137.521 10.8744 138.548 11.6621 138.828L156.998 190.405C157.786 190.684 158.581 190.006 158.429 189.184ZM132.563 37.1369C132.108 34.671 129.154 33.6227 127.246 35.25L9.91138 135.326C8.0035 136.953 8.57263 140.036 10.9358 140.874L156.272 192.451C158.635 193.29 161.02 191.256 160.564 188.79L132.563 37.1369Z" fill="black"/>
<path d="M135.912 152.48C135.569 152.13 135.101 151.706 134.51 151.208C133.918 150.71 133.23 150.196 132.447 149.665C131.666 149.124 130.796 148.6 129.837 148.091C128.881 147.572 127.87 147.123 126.804 146.745C125.951 146.442 125.212 146.21 124.585 146.047C123.969 145.889 123.438 145.778 122.992 145.716C122.557 145.658 122.196 145.644 121.909 145.674C121.637 145.697 121.416 145.745 121.247 145.817C121.077 145.889 120.95 145.976 120.866 146.078C120.792 146.184 120.739 146.285 120.704 146.38C120.591 146.7 120.651 147.039 120.883 147.398C121.12 147.746 121.481 148.114 121.968 148.503C122.458 148.881 123.04 149.286 123.715 149.717C124.394 150.138 125.111 150.585 125.868 151.057C126.639 151.523 127.423 152.017 128.222 152.541C129.035 153.057 129.802 153.6 130.525 154.168C131.258 154.74 131.926 155.343 132.529 155.977C133.136 156.601 133.629 157.256 134.01 157.943C134.39 158.63 134.626 159.35 134.719 160.103C134.812 160.856 134.713 161.643 134.421 162.464C134.047 163.519 133.539 164.359 132.897 164.983C132.256 165.608 131.528 166.07 130.713 166.369C129.91 166.672 129.041 166.837 128.107 166.866C127.176 166.884 126.228 166.817 125.261 166.666C124.305 166.519 123.354 166.307 122.408 166.032C121.472 165.76 120.589 165.476 119.757 165.181C117.583 164.409 115.633 163.513 113.906 162.493C112.187 161.486 110.713 160.465 109.485 159.429L111.346 154.185C112.519 155.513 113.957 156.738 115.659 157.858C117.373 158.982 119.295 159.922 121.427 160.679C122.685 161.125 123.731 161.424 124.565 161.576C125.414 161.722 126.098 161.772 126.617 161.729C127.141 161.674 127.526 161.553 127.773 161.365C128.02 161.176 128.183 160.97 128.262 160.746C128.387 160.394 128.335 160.034 128.106 159.665C127.881 159.285 127.525 158.9 127.039 158.512C126.556 158.113 125.976 157.702 125.297 157.282C124.622 156.85 123.897 156.407 123.123 155.952C122.362 155.49 121.579 155.008 120.773 154.506C119.967 154.004 119.194 153.477 118.453 152.927C117.727 152.369 117.057 151.789 116.442 151.187C115.832 150.574 115.333 149.935 114.945 149.269C114.561 148.593 114.318 147.889 114.218 147.157C114.121 146.415 114.219 145.633 114.51 144.812C114.854 143.842 115.322 143.066 115.913 142.484C116.503 141.901 117.173 141.467 117.923 141.181C118.687 140.888 119.502 140.721 120.369 140.681C121.246 140.644 122.136 140.69 123.039 140.818C123.941 140.946 124.836 141.132 125.722 141.374C126.608 141.616 127.44 141.876 128.218 142.152C129.071 142.454 129.93 142.807 130.795 143.21C131.671 143.617 132.517 144.056 133.334 144.526C134.155 144.985 134.935 145.46 135.673 145.95C136.422 146.444 137.103 146.925 137.717 147.395L135.912 152.48Z" fill="black"/>
<path d="M97.3589 156.566L101.728 144.255C102.019 143.434 102.213 142.669 102.309 141.958C102.409 141.238 102.35 140.575 102.133 139.97C101.93 139.358 101.533 138.803 100.941 138.305C100.364 137.8 99.5427 137.358 98.4768 136.98C97.6667 136.693 96.7742 136.502 95.7994 136.408C94.839 136.307 93.8575 136.283 92.8549 136.335C91.8522 136.387 90.866 136.511 89.8963 136.707C88.9373 136.907 88.056 137.158 87.2524 137.461L82.3613 151.244L76.4295 149.139L84.2257 127.17L90.1576 129.275L89.0909 132.281C89.9883 132.119 90.9319 131.98 91.9215 131.863C92.9149 131.736 93.9464 131.67 95.0161 131.665C96.0859 131.661 97.1915 131.741 98.3331 131.906C99.4747 132.071 100.637 132.364 101.82 132.784C103.302 133.31 104.559 133.96 105.593 134.735C106.64 135.502 107.452 136.361 108.027 137.309C108.607 138.247 108.943 139.26 109.037 140.349C109.145 141.432 108.994 142.549 108.586 143.7L103.275 158.666L97.3589 156.566Z" fill="black"/>
<path d="M69.6201 145.498C67.6069 145.456 65.6541 145.243 63.7619 144.859C61.8766 144.49 59.9959 143.973 58.1199 143.307C55.7216 142.456 53.6752 141.442 51.9807 140.264C50.3007 139.08 48.9952 137.771 48.0641 136.336C47.133 134.902 46.5832 133.356 46.4148 131.7C46.2463 130.044 46.4799 128.321 47.1154 126.53C47.7055 124.867 48.5879 123.446 49.7625 122.267C50.9516 121.081 52.3497 120.185 53.9569 119.579C55.5785 118.966 57.3728 118.679 59.3396 118.717C61.3102 118.744 63.3774 119.141 65.5413 119.909C67.5345 120.617 69.2608 121.535 70.7201 122.665C72.1938 123.788 73.335 125.087 74.1437 126.563C74.963 128.042 75.4235 129.669 75.5252 131.446C75.6376 133.226 75.3363 135.123 74.6214 137.138L74.0994 138.609L52.4504 130.926C52.3964 131.687 52.4858 132.433 52.7185 133.163C52.962 133.898 53.3902 134.602 54.0033 135.275C54.6163 135.949 55.4321 136.593 56.4506 137.206C57.4797 137.823 58.7617 138.404 60.2966 138.949C61.3839 139.335 62.4725 139.649 63.5625 139.892C64.6563 140.124 65.694 140.294 66.6757 140.403C67.6612 140.5 68.5636 140.545 69.383 140.535C70.2131 140.53 70.8993 140.473 71.4415 140.366L69.6201 145.498ZM69.7428 132.166C69.8825 131.603 69.9158 130.985 69.843 130.311C69.7845 129.63 69.5454 128.951 69.1256 128.274C68.7058 127.597 68.0745 126.941 67.2317 126.306C66.3928 125.66 65.2644 125.086 63.8468 124.583C62.5143 124.11 61.3045 123.867 60.2173 123.853C59.13 123.839 58.1689 123.96 57.3341 124.216C56.5098 124.475 55.8163 124.823 55.2534 125.26C54.6905 125.696 54.2706 126.135 53.9938 126.577L69.7428 132.166Z" fill="black"/>
<path d="M123.196 133.475C123.513 132.243 123.596 131.096 123.445 130.035C123.297 128.962 122.982 127.974 122.499 127.07C122.026 126.17 121.417 125.348 120.673 124.604C119.94 123.864 119.148 123.205 118.297 122.627C117.449 122.038 116.574 121.529 115.67 121.101C114.78 120.665 113.936 120.305 113.136 120.021L111.378 119.397L108.263 128.175L102.331 126.07L110.127 104.101L116.059 106.206L113.052 114.681L114.267 115.112C115.087 115.403 115.968 115.644 116.909 115.833C117.85 116.023 118.806 116.135 119.779 116.168C120.762 116.205 121.736 116.148 122.701 115.999C123.666 115.849 124.58 115.573 125.443 115.171C126.306 114.77 127.096 114.234 127.814 113.564C128.535 112.884 129.136 112.036 129.617 111.018L135.661 113.163C135.142 114.287 134.535 115.254 133.84 116.063C133.155 116.876 132.414 117.561 131.616 118.118C130.833 118.668 130.018 119.105 129.171 119.429C128.324 119.752 127.488 119.996 126.662 120.159C125.84 120.311 125.04 120.399 124.263 120.424C123.501 120.441 122.802 120.415 122.167 120.346C122.871 120.728 123.578 121.188 124.286 121.728C125.01 122.261 125.692 122.875 126.333 123.57C126.978 124.255 127.552 125.023 128.054 125.873C128.567 126.728 128.969 127.657 129.261 128.66C129.553 129.664 129.71 130.746 129.73 131.905C129.751 133.064 129.587 134.303 129.24 135.62L123.196 133.475Z" fill="black"/>
<path d="M100.819 113.184C100.149 115.07 99.2108 116.616 98.0035 117.819C96.8 119.013 95.3812 119.865 93.7472 120.378C92.1132 120.89 90.2853 121.069 88.2634 120.916C86.2561 120.756 84.1065 120.269 81.8147 119.455C79.523 118.642 77.5368 117.661 75.8561 116.513C74.1898 115.357 72.8786 114.064 71.9224 112.632C70.9662 111.201 70.3917 109.641 70.1988 107.952C70.0098 106.253 70.25 104.46 70.9196 102.573C71.5891 100.686 72.531 99.1484 73.7452 97.9591C74.9631 96.7591 76.3944 95.9049 78.0391 95.3964C79.6838 94.8879 81.5151 94.7157 83.5332 94.8798C85.5657 95.037 87.7278 95.5222 90.0195 96.3355C92.3113 97.1488 94.285 98.1313 95.9406 99.2829C97.6106 100.428 98.9184 101.714 99.8639 103.142C100.809 104.569 101.371 106.131 101.55 107.826C101.732 109.511 101.488 111.297 100.819 113.184ZM94.8229 111.056C95.1142 110.235 95.2704 109.372 95.2914 108.468C95.3268 107.556 95.1242 106.656 94.6834 105.768C94.2532 104.883 93.5345 104.034 92.527 103.22C91.5195 102.407 90.1258 101.684 88.3457 101.052C87.1518 100.629 86.0679 100.352 85.0937 100.222C84.1234 100.082 83.2491 100.06 82.471 100.156C81.6929 100.252 81.0005 100.444 80.3939 100.733C79.7912 101.011 79.2657 101.358 78.8177 101.776C78.3734 102.182 77.9943 102.641 77.6804 103.154C77.3808 103.66 77.1365 104.179 76.9474 104.712C76.7545 105.256 76.6129 105.824 76.5228 106.416C76.4434 107.012 76.4461 107.613 76.531 108.219C76.6197 108.815 76.8104 109.41 77.1029 110.006C77.3955 110.602 77.8136 111.183 78.3573 111.748C78.9046 112.302 79.5973 112.836 80.4353 113.349C81.277 113.852 82.2948 114.315 83.4886 114.739C85.2687 115.37 86.8062 115.688 88.1012 115.692C89.3961 115.695 90.4894 115.489 91.381 115.073C92.2833 114.661 93.0061 114.096 93.5494 113.376C94.1072 112.65 94.5317 111.877 94.8229 111.056Z" fill="black"/>
<path d="M117.207 79.7363L111.108 96.9243L105.176 94.8192L111.275 77.6312L101.954 74.3232L103.65 69.5425L128.241 78.2693L126.545 83.05L117.207 79.7363Z" fill="black"/>
</svg>
