<svg width="1186" height="552" viewBox="0 0 1186 552" fill="none" xmlns="http://www.w3.org/2000/svg">
<path d="M508.885 66.4268C517.439 103.113 460.933 147.646 382.676 165.893C304.418 184.141 234.043 169.193 225.489 132.506C216.935 95.8194 273.44 51.2868 351.698 33.0395C429.956 14.7922 500.331 29.7402 508.885 66.4268Z" fill="#0FE5F2"/>
<path fill-rule="evenodd" clip-rule="evenodd" d="M487.425 89.7967C491.894 82.5242 493.151 76.056 491.848 70.4695C490.546 64.883 486.558 59.6376 479.333 55.092C472.075 50.5257 461.945 46.9445 449.414 44.7309C424.377 40.3084 391.043 41.5719 355.481 49.864C319.918 58.156 289.463 71.7663 268.964 86.8062C258.705 94.3338 251.203 102.026 246.713 109.332C242.244 116.604 240.987 123.072 242.29 128.659C243.593 134.245 247.58 139.491 254.806 144.036C262.064 148.602 272.193 152.184 284.724 154.397C309.761 158.82 343.095 157.556 378.658 149.264C414.22 140.972 444.676 127.362 465.174 112.322C475.434 104.794 482.935 97.1022 487.425 89.7967ZM380.137 155.609C452.555 138.723 505.41 99.9428 498.193 68.9901C490.976 38.0374 426.419 26.6338 354.001 43.5193C281.584 60.4048 228.728 99.1854 235.945 130.138C243.163 161.091 307.719 172.494 380.137 155.609Z" fill="black"/>
<path d="M444.467 73.7171L449.644 95.9194L441.981 97.7061L436.805 75.5038L424.764 78.3113L423.324 72.136L455.089 64.7294L456.528 70.9048L444.467 73.7171Z" fill="black"/>
<path d="M417.527 103.408L416.877 100.62C416.025 101.384 415.082 102.105 414.05 102.781C413.031 103.455 411.949 104.077 410.805 104.649C409.661 105.22 408.457 105.726 407.195 106.165C405.95 106.615 404.673 106.993 403.365 107.298C401.837 107.654 400.323 107.855 398.824 107.899C397.338 107.941 395.969 107.767 394.717 107.376C393.464 106.986 392.379 106.346 391.46 105.457C390.555 104.565 389.926 103.361 389.573 101.847C389.127 99.933 389.279 98.2207 390.03 96.7099C390.778 95.1854 392.131 93.7666 394.09 92.4534C396.048 91.1402 398.615 89.8812 401.789 88.6765C404.977 87.4686 408.787 86.2175 413.217 84.923L413.078 84.3241C412.969 83.8559 412.737 83.4235 412.383 83.027C412.026 82.6166 411.477 82.3164 410.736 82.1263C410.005 81.9192 409.043 81.8387 407.849 81.8849C406.669 81.9278 405.197 82.1548 403.435 82.5657C402.044 82.89 400.685 83.2867 399.357 83.756C398.04 84.2083 396.777 84.7061 395.568 85.2493C394.373 85.7893 393.249 86.3562 392.197 86.9499C391.145 87.5436 390.199 88.127 389.36 88.7001L387.771 81.8845C388.677 81.4119 389.702 80.9189 390.845 80.4055C391.989 79.8922 393.188 79.402 394.444 78.935C395.696 78.4542 396.972 78.0115 398.272 77.6069C399.568 77.1886 400.822 76.8381 402.033 76.5556C404.415 76.0002 406.658 75.6878 408.761 75.6183C410.862 75.5351 412.731 75.738 414.369 76.2271C416.021 76.7129 417.401 77.4945 418.509 78.5718C419.63 79.6459 420.395 81.0573 420.803 82.8059L425.19 101.621L417.527 103.408ZM414.508 90.4581C411.587 91.2553 409.118 91.9979 407.101 92.686C405.098 93.3709 403.446 94.01 402.148 94.6032C400.849 95.1964 399.844 95.7429 399.133 96.2425C398.435 96.739 397.933 97.1974 397.624 97.6178C397.316 98.0381 397.152 98.4247 397.132 98.7777C397.127 99.1274 397.156 99.4399 397.22 99.7153C397.297 100.046 397.462 100.348 397.715 100.623C397.965 100.885 398.337 101.081 398.832 101.212C399.341 101.34 399.984 101.387 400.759 101.351C401.535 101.315 402.487 101.166 403.616 100.902C404.869 100.61 406.072 100.228 407.225 99.7561C408.378 99.284 409.453 98.7576 410.45 98.1767C411.444 97.5821 412.356 96.9484 413.186 96.2757C414.027 95.586 414.758 94.8929 415.38 94.1963L414.508 90.4581Z" fill="black"/>
<path d="M383.845 109.781C381.698 111.095 379.499 112.188 377.249 113.061C375.017 113.944 372.688 114.669 370.265 115.234C367.167 115.956 364.329 116.269 361.752 116.174C359.185 116.061 356.928 115.564 354.98 114.682C353.033 113.801 351.412 112.545 350.117 110.916C348.823 109.287 347.906 107.316 347.366 105.003C346.866 102.855 346.835 100.764 347.276 98.7309C347.727 96.6804 348.594 94.7943 349.876 93.0725C351.169 91.3338 352.864 89.8209 354.959 88.5339C357.051 87.2331 359.495 86.2568 362.29 85.6051C364.864 85.0047 367.301 84.8068 369.599 85.0114C371.907 85.199 373.984 85.7962 375.831 86.803C377.691 87.8065 379.273 89.2086 380.579 91.0093C381.898 92.8067 382.861 95.0066 383.468 97.6089L383.911 99.509L355.946 106.029C356.403 106.867 357 107.591 357.738 108.203C358.489 108.812 359.415 109.264 360.515 109.559C361.614 109.854 362.907 109.981 364.392 109.94C365.892 109.895 367.633 109.641 369.616 109.179C371.02 108.852 372.378 108.448 373.688 107.968C374.996 107.474 376.203 106.954 377.309 106.405C378.412 105.843 379.391 105.281 380.247 104.718C381.117 104.153 381.801 103.63 382.299 103.151L383.845 109.781ZM374.98 95.6683C374.747 94.9821 374.365 94.309 373.834 93.649C373.313 92.972 372.603 92.4188 371.705 91.9896C370.806 91.5603 369.699 91.2958 368.384 91.196C367.065 91.0824 365.491 91.2391 363.659 91.6661C361.938 92.0674 360.501 92.6276 359.347 93.3466C358.194 94.0656 357.264 94.8413 356.558 95.6737C355.866 96.5029 355.371 97.337 355.073 98.1759C354.775 99.0148 354.629 99.7601 354.636 100.412L374.98 95.6683Z" fill="black"/>
<path d="M342.539 97.745C342.316 97.7243 341.992 97.7055 341.567 97.6884C341.153 97.6544 340.671 97.6433 340.122 97.6552C339.57 97.6532 338.968 97.6848 338.315 97.7499C337.676 97.8117 337.026 97.9197 336.366 98.0738C334.989 98.3949 333.741 98.8672 332.624 99.4907C331.517 100.097 330.513 100.803 329.612 101.608C328.707 102.4 327.891 103.258 327.163 104.183C326.446 105.09 325.802 106.003 325.232 106.92L329.214 124L321.552 125.787L314.935 97.4089L322.598 95.6223L323.671 100.228C324.433 99.3244 325.222 98.4436 326.039 97.5855C326.865 96.7104 327.744 95.903 328.675 95.1634C329.62 94.4205 330.643 93.768 331.746 93.206C332.846 92.6302 334.05 92.1898 335.358 91.8848C335.854 91.7692 336.363 91.6796 336.885 91.6158C337.418 91.5351 337.933 91.473 338.431 91.4295C338.943 91.3828 339.422 91.351 339.868 91.3341C340.314 91.3171 340.705 91.3131 341.041 91.3218L342.539 97.745Z" fill="black"/>
<path d="M313.953 125.511C313.058 126.155 312.146 126.76 311.218 127.325C310.29 127.89 309.317 128.414 308.297 128.899C307.281 129.397 306.188 129.848 305.019 130.251C303.864 130.651 302.605 131.01 301.242 131.328C298.35 132.002 295.614 132.313 293.032 132.262C290.465 132.208 288.155 131.766 286.104 130.938C284.063 130.093 282.337 128.855 280.926 127.224C279.512 125.579 278.514 123.511 277.933 121.019C277.352 118.526 277.333 116.237 277.878 114.15C278.419 112.05 279.419 110.176 280.879 108.529C282.349 106.865 284.223 105.441 286.502 104.256C288.795 103.068 291.387 102.137 294.278 101.463C295.641 101.145 296.93 100.91 298.143 100.758C299.369 100.603 300.549 100.524 301.68 100.521C302.809 100.505 303.914 100.545 304.996 100.641C306.079 100.737 307.164 100.876 308.251 101.058L309.86 107.956C308.975 107.712 308.051 107.485 307.088 107.274C306.121 107.049 305.075 106.894 303.952 106.807C302.825 106.707 301.611 106.7 300.31 106.786C299.006 106.857 297.569 107.076 295.999 107.442C293.59 108.004 291.644 108.719 290.162 109.587C288.695 110.452 287.582 111.408 286.825 112.456C286.067 113.504 285.621 114.609 285.486 115.773C285.347 116.923 285.411 118.07 285.678 119.213C285.854 119.97 286.112 120.701 286.451 121.406C286.786 122.097 287.224 122.728 287.763 123.299C288.3 123.857 288.942 124.338 289.69 124.745C290.438 125.151 291.32 125.446 292.335 125.63C293.351 125.815 294.499 125.881 295.779 125.829C297.069 125.761 298.52 125.538 300.131 125.163C301.701 124.797 303.09 124.371 304.298 123.886C305.502 123.388 306.589 122.851 307.559 122.277C308.528 121.702 309.398 121.107 310.17 120.492C310.938 119.863 311.663 119.237 312.345 118.613L313.953 125.511Z" fill="black"/>
<path d="M771.657 76.1361C777.996 51.7604 802.895 37.139 827.271 43.4782L1141.48 125.192C1165.85 131.531 1180.47 156.431 1174.14 180.806C1167.8 205.182 1142.9 219.804 1118.52 213.464L804.314 131.75C779.939 125.411 765.317 100.512 771.657 76.1361Z" fill="#83F04F"/>
<path d="M1031.68 228.165C1030.66 232.061 1025.35 232.601 1023.57 228.988L996.224 173.37C994.584 170.035 997.618 166.314 1001.21 167.25L1040.38 177.436C1042.7 178.039 1044.09 180.411 1043.49 182.732L1031.68 228.165Z" fill="#83F04F"/>
<path d="M1093.85 176.757L1102.1 145.031L1110.67 147.259L1104.23 172.034L1127.39 178.057L1125.58 185.007L1093.85 176.757Z" fill="black"/>
<path d="M1053.12 166.164L1061.37 134.438L1093.49 142.791L1091.73 149.557L1068.41 143.492L1067.05 148.733L1089.17 154.486L1087.41 161.251L1065.29 155.498L1063.68 161.687L1087.32 167.836L1085.56 174.601L1053.12 166.164Z" fill="black"/>
<path d="M1049.43 148.243C1048.9 150.274 1048.21 152.025 1047.35 153.495C1046.49 154.949 1045.5 156.154 1044.38 157.112C1043.28 158.074 1042.05 158.815 1040.7 159.334C1039.36 159.858 1037.94 160.186 1036.43 160.318C1034.91 160.45 1033.33 160.424 1031.66 160.238C1030.01 160.038 1028.31 159.711 1026.57 159.259L1006.44 154.022L1014.69 122.296L1034.77 127.521C1036.51 127.973 1038.15 128.523 1039.69 129.17C1041.24 129.802 1042.64 130.544 1043.9 131.397C1045.17 132.254 1046.27 133.239 1047.2 134.351C1048.13 135.447 1048.84 136.692 1049.33 138.086C1049.84 139.468 1050.12 141.002 1050.16 142.688C1050.2 144.375 1049.95 146.226 1049.43 148.243ZM1040.79 145.997C1041.19 144.473 1041.33 143.097 1041.22 141.869C1041.13 140.645 1040.74 139.558 1040.05 138.606C1039.38 137.643 1038.39 136.802 1037.08 136.084C1035.78 135.35 1034.12 134.721 1032.1 134.196L1021.46 131.428L1016.8 149.346L1027.44 152.114C1029.46 152.639 1031.21 152.906 1032.71 152.916C1034.2 152.911 1035.48 152.651 1036.53 152.137C1037.61 151.611 1038.48 150.836 1039.16 149.812C1039.85 148.792 1040.4 147.521 1040.79 145.997Z" fill="black"/>
<path d="M1002.75 136.153C1002.04 138.878 1000.91 141.157 999.37 142.99C997.829 144.808 995.945 146.175 993.718 147.091C991.491 148.008 988.952 148.481 986.101 148.512C983.269 148.532 980.198 148.111 976.889 147.25C973.579 146.39 970.677 145.257 968.183 143.852C965.708 142.436 963.713 140.784 962.2 138.895C960.686 137.005 959.691 134.89 959.216 132.547C958.744 130.19 958.863 127.648 959.572 124.924C960.28 122.199 961.413 119.93 962.969 118.116C964.529 116.287 966.431 114.916 968.673 114.003C970.915 113.091 973.46 112.627 976.307 112.611C979.174 112.585 982.262 113.001 985.572 113.862C988.881 114.723 991.766 115.859 994.225 117.271C996.704 118.672 998.693 120.315 1000.19 122.2C1001.69 124.085 1002.67 126.205 1003.12 128.558C1003.58 130.897 1003.46 133.428 1002.75 136.153ZM994.091 133.901C994.4 132.716 994.513 131.488 994.433 130.218C994.372 128.937 993.978 127.7 993.253 126.509C992.542 125.322 991.432 124.22 989.922 123.202C988.411 122.185 986.371 121.342 983.8 120.674C982.076 120.225 980.524 119.97 979.143 119.906C977.767 119.828 976.539 119.903 975.461 120.132C974.382 120.361 973.436 120.715 972.621 121.193C971.81 121.656 971.117 122.207 970.54 122.846C969.967 123.469 969.491 124.159 969.114 124.915C968.756 125.661 968.477 126.418 968.277 127.188C968.072 127.973 967.943 128.785 967.889 129.626C967.85 130.47 967.927 131.312 968.12 132.151C968.316 132.975 968.656 133.786 969.138 134.585C969.621 135.385 970.277 136.147 971.107 136.872C971.942 137.582 972.977 138.246 974.213 138.863C975.454 139.465 976.936 139.991 978.66 140.439C981.231 141.107 983.423 141.365 985.238 141.213C987.053 141.06 988.559 140.639 989.758 139.948C990.972 139.261 991.916 138.381 992.589 137.307C993.282 136.222 993.783 135.086 994.091 133.901Z" fill="black"/>
<path d="M939.126 136.518L944.921 114.236L927.35 133.455L919.13 131.318L913.149 105.973L907.354 128.255L898.788 126.027L907.039 94.3013L918.676 97.3278L925.246 124.674L944.306 103.993L955.897 107.008L947.647 138.734L939.126 136.518Z" fill="black"/>
<path d="M862.49 116.587L870.741 84.8616L879.307 87.0894L871.056 118.815L862.49 116.587Z" fill="black"/>
<path d="M846.319 105.972L828.632 101.373L824.092 106.601L814.532 104.115L839.385 76.7069L848.944 79.193L857.295 115.236L847.736 112.75L846.319 105.972ZM833.312 95.983L844.903 98.9975L842.169 85.8126L833.312 95.983Z" fill="black"/>
<path d="M761.273 128.533C769.12 171.905 740.321 213.426 696.949 221.273C653.577 229.12 612.055 200.321 604.208 156.949C596.361 113.577 625.16 72.0553 668.532 64.2083C711.905 56.3614 753.426 85.1603 761.273 128.533Z" fill="#8550F6"/>
<path d="M753.794 129.886C760.893 169.127 734.837 206.694 695.596 213.794C656.354 220.894 618.787 194.837 611.688 155.596C604.588 116.354 630.644 78.7873 669.886 71.6877C709.127 64.5881 746.694 90.6443 753.794 129.886Z" fill="#8550F6"/>
<path fill-rule="evenodd" clip-rule="evenodd" d="M754.627 135.908L750.304 136.324C750.123 134.443 749.863 132.554 749.52 130.659C749.177 128.765 748.759 126.904 748.27 125.079L752.465 123.953C752.985 125.894 753.43 127.873 753.794 129.886C754.158 131.899 754.435 133.908 754.627 135.908ZM751.306 120.073L747.181 121.431C745.975 117.769 744.475 114.264 742.713 110.939L746.551 108.906C748.427 112.445 750.023 116.176 751.306 120.073ZM744.554 105.381L740.837 107.628C738.855 104.35 736.608 101.266 734.132 98.4018L737.417 95.5613C740.053 98.6094 742.443 101.891 744.554 105.381ZM734.684 92.5728L731.562 95.593C728.908 92.8502 726.031 90.3391 722.967 88.0847L725.541 84.5863C728.8 86.9839 731.86 89.6548 734.684 92.5728ZM722.213 82.2777L719.838 85.9142C716.653 83.8341 713.293 82.0194 709.794 80.4947L711.529 76.5131C715.251 78.1352 718.825 80.0654 722.213 82.2777ZM707.772 74.9997C703.994 73.5995 700.083 72.5099 696.075 71.7562L695.272 76.0247C699.037 76.7327 702.712 77.7564 706.263 79.0723L707.772 74.9997ZM692.074 71.1203L691.514 75.4273C687.782 74.942 683.974 74.7651 680.122 74.919L679.948 70.5792C684.048 70.4154 688.101 70.6037 692.074 71.1203ZM675.908 70.8541L676.324 75.1775C674.443 75.3583 672.553 75.6188 670.659 75.9616C668.764 76.3043 666.903 76.7224 665.079 77.2119L663.953 73.017C665.894 72.4963 667.873 72.0519 669.886 71.6877C671.899 71.3235 673.907 71.0465 675.908 70.8541ZM660.073 74.1751L661.431 78.3005C657.768 79.5062 654.264 81.0061 650.939 82.7681L648.905 78.9304C652.445 77.0546 656.175 75.4581 660.073 74.1751ZM645.381 80.9279L647.628 84.6445C644.35 86.6268 641.266 88.8733 638.402 91.3498L635.561 88.0642C638.609 85.429 641.891 83.0381 645.381 80.9279ZM632.573 90.798L635.593 93.9193C632.85 96.5732 630.339 99.4501 628.085 102.514L624.586 99.9405C626.984 96.6815 629.655 93.6214 632.573 90.798ZM622.278 103.269L625.914 105.644C623.834 108.829 622.019 112.189 620.495 115.688L616.513 113.952C618.135 110.23 620.065 106.656 622.278 103.269ZM615 117.709L619.072 119.219C617.756 122.769 616.733 126.444 616.024 130.209L611.756 129.407C612.51 125.399 613.599 121.487 615 117.709ZM611.12 133.408L615.427 133.968C614.942 137.7 614.765 141.507 614.919 145.36L610.579 145.533C610.415 141.434 610.603 137.38 611.12 133.408ZM610.854 149.574C611.046 151.574 611.323 153.583 611.688 155.596C612.052 157.609 612.496 159.587 613.017 161.528L617.212 160.403C616.722 158.578 616.304 156.717 615.961 154.823C615.619 152.928 615.358 151.039 615.177 149.158L610.854 149.574ZM614.175 165.409L618.3 164.051C619.506 167.713 621.006 171.218 622.768 174.543L618.93 176.576C617.054 173.036 615.458 169.306 614.175 165.409ZM620.928 180.101L624.644 177.854C626.627 181.132 628.873 184.215 631.35 187.08L628.064 189.92C625.429 186.872 623.038 183.591 620.928 180.101ZM630.798 192.909L633.919 189.889C636.573 192.632 639.45 195.143 642.514 197.397L639.94 200.895C636.681 198.498 633.621 195.827 630.798 192.909ZM643.269 203.204L645.644 199.568C648.829 201.648 652.188 203.462 655.687 204.987L653.952 208.969C650.23 207.347 646.656 205.416 643.269 203.204ZM657.709 210.482L659.218 206.409C662.769 207.725 666.444 208.749 670.209 209.457L669.407 213.725C665.399 212.972 661.487 211.882 657.709 210.482ZM673.408 214.361L673.968 210.054C677.699 210.54 681.507 210.717 685.36 210.563L685.533 214.903C681.434 215.066 677.38 214.878 673.408 214.361ZM689.574 214.628L689.158 210.304C691.039 210.123 692.928 209.863 694.822 209.52C696.717 209.177 698.578 208.759 700.403 208.27L701.528 212.465C699.587 212.985 697.609 213.43 695.596 213.794C693.583 214.158 691.574 214.435 689.574 214.628ZM705.409 211.307L704.051 207.181C707.713 205.975 711.217 204.476 714.542 202.714L716.576 206.551C713.036 208.427 709.306 210.024 705.409 211.307ZM720.101 204.554L717.853 200.837C721.132 198.855 724.215 196.608 727.08 194.132L729.92 197.418C726.872 200.053 723.591 202.444 720.101 204.554ZM732.909 194.684L729.889 191.562C732.631 188.908 735.142 186.032 737.397 182.967L740.895 185.541C738.498 188.8 735.827 191.86 732.909 194.684ZM743.204 182.213L739.567 179.838C741.647 176.653 743.462 173.293 744.987 169.794L748.968 171.529C747.346 175.252 745.416 178.825 743.204 182.213ZM750.482 167.772C751.882 163.994 752.972 160.083 753.725 156.075L749.457 155.272C748.749 159.037 747.725 162.712 746.409 166.263L750.482 167.772ZM754.361 152.074L750.054 151.514C750.54 147.782 750.716 143.974 750.563 140.122L754.902 139.948C755.066 144.048 754.878 148.101 754.361 152.074Z" fill="black"/>
<path d="M719.654 171.924L719.081 168.755C718.08 169.566 716.98 170.323 715.782 171.025C714.599 171.724 713.349 172.362 712.031 172.94C710.713 173.518 709.332 174.018 707.89 174.441C706.465 174.876 705.009 175.228 703.523 175.497C701.785 175.812 700.073 175.952 698.386 175.918C696.714 175.881 695.186 175.608 693.801 175.098C692.415 174.589 691.232 173.809 690.25 172.759C689.283 171.705 688.644 170.318 688.333 168.596C687.939 166.42 688.207 164.505 689.136 162.85C690.062 161.179 691.662 159.661 693.937 158.296C696.211 156.931 699.166 155.661 702.8 154.486C706.45 153.308 710.801 152.117 715.853 150.912L715.729 150.231C715.633 149.699 715.397 149.2 715.022 148.735C714.644 148.254 714.044 147.885 713.222 147.63C712.413 147.356 711.336 147.212 709.992 147.196C708.663 147.178 706.997 147.35 704.994 147.713C703.413 147.999 701.863 148.368 700.345 148.82C698.839 149.254 697.392 149.743 696.003 150.285C694.63 150.824 693.335 151.398 692.12 152.006C690.905 152.613 689.809 153.216 688.834 153.812L687.433 146.065C688.477 145.585 689.656 145.089 690.97 144.576C692.283 144.064 693.659 143.581 695.096 143.127C696.53 142.657 697.989 142.232 699.472 141.85C700.952 141.453 702.38 141.13 703.757 140.881C706.465 140.391 709.003 140.166 711.37 140.207C713.734 140.231 715.823 140.565 717.636 141.207C719.465 141.845 720.972 142.801 722.156 144.074C723.355 145.344 724.135 146.973 724.495 148.961L728.364 170.348L719.654 171.924ZM716.991 157.204C713.664 157.935 710.848 158.631 708.543 159.29C706.253 159.947 704.362 160.572 702.869 161.165C701.376 161.759 700.216 162.316 699.389 162.837C698.578 163.356 697.987 163.843 697.617 164.298C697.247 164.753 697.041 165.178 696.999 165.573C696.973 165.966 696.989 166.319 697.045 166.632C697.113 167.007 697.281 167.357 697.55 167.68C697.816 167.987 698.223 168.229 698.772 168.404C699.337 168.577 700.056 168.665 700.929 168.669C701.803 168.672 702.881 168.558 704.165 168.326C705.589 168.068 706.962 167.707 708.284 167.241C709.606 166.776 710.844 166.245 711.996 165.648C713.147 165.036 714.207 164.375 715.178 163.666C716.161 162.939 717.022 162.201 717.76 161.454L716.991 157.204Z" fill="black"/>
<path d="M650.89 184.365L645.054 152.108L677.71 146.199L678.955 153.078L655.243 157.368L656.207 162.697L678.698 158.628L679.943 165.507L657.452 169.576L658.59 175.868L682.631 171.519L683.875 178.397L650.89 184.365Z" fill="black"/>
<path d="M709.141 113.008C709.514 115.074 709.62 116.954 709.458 118.648C709.293 120.327 708.903 121.836 708.289 123.175C707.69 124.512 706.887 125.7 705.879 126.739C704.886 127.775 703.731 128.671 702.413 129.427C701.095 130.183 699.643 130.825 698.058 131.354C696.47 131.868 694.792 132.285 693.023 132.605L672.551 136.309L666.715 104.051L687.14 100.356C688.909 100.036 690.628 99.8459 692.298 99.7861C693.966 99.7108 695.549 99.7961 697.048 100.042C698.563 100.285 699.975 100.717 701.283 101.337C702.588 101.941 703.757 102.772 704.789 103.83C705.834 104.87 706.727 106.146 707.47 107.661C708.213 109.175 708.77 110.957 709.141 113.008ZM700.36 114.596C700.08 113.047 699.633 111.738 699.019 110.669C698.421 109.597 697.61 108.774 696.584 108.2C695.572 107.607 694.321 107.26 692.832 107.157C691.339 107.039 689.568 107.166 687.518 107.537L676.695 109.495L679.991 127.713L690.814 125.755C692.864 125.384 694.569 124.89 695.928 124.272C697.284 123.639 698.333 122.867 699.073 121.957C699.827 121.029 700.296 119.958 700.48 118.745C700.681 117.529 700.64 116.146 700.36 114.596Z" fill="black"/>
<path d="M653.722 139.715L647.886 107.458L656.596 105.882L662.432 138.139L653.722 139.715Z" fill="black"/>
<path d="M847.045 278.763C852.766 273.9 861.606 277.037 862.982 284.419L891.084 435.231C892.463 442.633 885.305 448.749 878.208 446.231L733.223 394.778C726.127 392.26 724.425 383 730.162 378.123L847.045 278.763Z" fill="#FF974C"/>
<path d="M851.246 283.25C853.154 281.623 856.108 282.671 856.563 285.137L884.564 436.79C885.02 439.256 882.635 441.29 880.272 440.451L734.936 388.874C732.573 388.036 732.003 384.953 733.911 383.326L851.246 283.25Z" fill="#FF974C"/>
<path fill-rule="evenodd" clip-rule="evenodd" d="M882.429 437.184L854.428 285.531C854.276 284.709 853.291 284.36 852.655 284.902L735.321 384.978C734.685 385.521 734.874 386.548 735.662 386.828L880.998 438.405C881.786 438.684 882.581 438.006 882.429 437.184ZM856.563 285.137C856.108 282.671 853.154 281.623 851.246 283.25L733.911 383.326C732.003 384.953 732.573 388.036 734.936 388.874L880.272 440.451C882.635 441.29 885.02 439.256 884.564 436.79L856.563 285.137Z" fill="black"/>
<path d="M859.912 400.48C859.569 400.13 859.101 399.706 858.51 399.208C857.918 398.71 857.23 398.196 856.447 397.665C855.666 397.124 854.796 396.6 853.837 396.091C852.881 395.572 851.87 395.123 850.804 394.745C849.951 394.442 849.212 394.21 848.585 394.047C847.969 393.889 847.438 393.778 846.992 393.716C846.557 393.658 846.196 393.644 845.909 393.674C845.637 393.697 845.416 393.745 845.247 393.817C845.077 393.889 844.95 393.976 844.866 394.078C844.792 394.184 844.739 394.285 844.704 394.38C844.591 394.7 844.651 395.039 844.883 395.398C845.12 395.746 845.481 396.114 845.968 396.503C846.458 396.881 847.04 397.286 847.715 397.717C848.394 398.138 849.111 398.585 849.868 399.057C850.639 399.523 851.423 400.017 852.222 400.541C853.035 401.057 853.802 401.6 854.525 402.168C855.258 402.74 855.926 403.343 856.529 403.977C857.136 404.601 857.629 405.256 858.01 405.943C858.39 406.63 858.626 407.35 858.719 408.103C858.812 408.856 858.713 409.643 858.421 410.464C858.047 411.519 857.539 412.359 856.897 412.983C856.256 413.608 855.528 414.07 854.713 414.369C853.91 414.672 853.041 414.837 852.107 414.866C851.176 414.884 850.228 414.817 849.261 414.666C848.305 414.519 847.354 414.307 846.408 414.032C845.472 413.76 844.589 413.476 843.757 413.181C841.583 412.409 839.633 411.513 837.906 410.493C836.187 409.486 834.713 408.465 833.485 407.429L835.346 402.185C836.519 403.513 837.957 404.738 839.659 405.858C841.373 406.982 843.295 407.922 845.427 408.679C846.685 409.125 847.731 409.424 848.565 409.576C849.414 409.722 850.098 409.772 850.617 409.729C851.141 409.674 851.526 409.553 851.773 409.365C852.02 409.176 852.183 408.97 852.262 408.746C852.387 408.394 852.335 408.034 852.106 407.665C851.881 407.285 851.525 406.9 851.039 406.512C850.556 406.113 849.976 405.702 849.297 405.282C848.622 404.85 847.897 404.407 847.123 403.952C846.362 403.49 845.579 403.008 844.773 402.506C843.967 402.004 843.194 401.477 842.453 400.927C841.727 400.369 841.057 399.789 840.442 399.187C839.832 398.574 839.333 397.935 838.945 397.269C838.561 396.593 838.318 395.889 838.218 395.157C838.121 394.415 838.219 393.633 838.51 392.812C838.854 391.842 839.322 391.066 839.913 390.484C840.503 389.901 841.173 389.467 841.923 389.181C842.687 388.888 843.502 388.721 844.369 388.681C845.246 388.644 846.136 388.69 847.039 388.818C847.941 388.946 848.836 389.132 849.722 389.374C850.608 389.616 851.44 389.876 852.218 390.152C853.071 390.454 853.93 390.807 854.795 391.21C855.671 391.617 856.517 392.056 857.334 392.526C858.155 392.985 858.935 393.46 859.673 393.95C860.422 394.444 861.103 394.925 861.717 395.395L859.912 400.48Z" fill="black"/>
<path d="M821.359 404.566L825.728 392.255C826.019 391.434 826.213 390.669 826.309 389.958C826.409 389.238 826.35 388.575 826.133 387.97C825.93 387.358 825.533 386.803 824.941 386.305C824.364 385.8 823.543 385.358 822.477 384.98C821.667 384.693 820.774 384.502 819.799 384.408C818.839 384.307 817.858 384.283 816.855 384.335C815.852 384.387 814.866 384.511 813.896 384.707C812.937 384.907 812.056 385.158 811.252 385.461L806.361 399.244L800.429 397.139L808.226 375.17L814.158 377.275L813.091 380.281C813.988 380.119 814.932 379.98 815.921 379.863C816.915 379.736 817.946 379.67 819.016 379.665C820.086 379.661 821.192 379.741 822.333 379.906C823.475 380.071 824.637 380.364 825.82 380.784C827.302 381.31 828.559 381.96 829.593 382.735C830.64 383.502 831.452 384.361 832.027 385.309C832.607 386.247 832.943 387.26 833.037 388.349C833.145 389.432 832.994 390.549 832.586 391.7L827.275 406.666L821.359 404.566Z" fill="black"/>
<path d="M793.62 393.498C791.607 393.456 789.654 393.243 787.762 392.859C785.877 392.49 783.996 391.973 782.12 391.307C779.722 390.456 777.675 389.442 775.981 388.264C774.301 387.08 772.995 385.771 772.064 384.336C771.133 382.902 770.583 381.356 770.415 379.7C770.246 378.044 770.48 376.321 771.115 374.53C771.706 372.867 772.588 371.446 773.763 370.267C774.952 369.081 776.35 368.185 777.957 367.579C779.579 366.966 781.373 366.679 783.34 366.717C785.31 366.744 787.377 367.141 789.541 367.909C791.535 368.617 793.261 369.535 794.72 370.665C796.194 371.788 797.335 373.087 798.144 374.563C798.963 376.042 799.424 377.669 799.525 379.446C799.638 381.226 799.336 383.123 798.621 385.138L798.099 386.609L776.45 378.926C776.396 379.687 776.486 380.433 776.719 381.163C776.962 381.898 777.39 382.602 778.003 383.275C778.616 383.949 779.432 384.593 780.451 385.206C781.48 385.823 782.762 386.404 784.297 386.949C785.384 387.335 786.473 387.649 787.563 387.892C788.656 388.124 789.694 388.294 790.676 388.403C791.661 388.5 792.564 388.545 793.383 388.535C794.213 388.53 794.899 388.473 795.442 388.366L793.62 393.498ZM793.743 380.166C793.882 379.603 793.916 378.985 793.843 378.311C793.785 377.63 793.545 376.951 793.126 376.274C792.706 375.597 792.074 374.941 791.232 374.306C790.393 373.66 789.264 373.086 787.847 372.583C786.514 372.11 785.305 371.867 784.217 371.853C783.13 371.839 782.169 371.96 781.334 372.216C780.51 372.475 779.816 372.823 779.253 373.26C778.69 373.696 778.271 374.135 777.994 374.577L793.743 380.166Z" fill="black"/>
<path d="M847.196 381.475C847.513 380.243 847.596 379.096 847.445 378.035C847.297 376.962 846.982 375.974 846.499 375.07C846.026 374.17 845.417 373.348 844.673 372.604C843.94 371.864 843.148 371.205 842.297 370.627C841.449 370.038 840.574 369.529 839.67 369.101C838.78 368.665 837.936 368.305 837.136 368.021L835.378 367.397L832.263 376.175L826.331 374.07L834.127 352.101L840.059 354.206L837.052 362.681L838.267 363.112C839.087 363.403 839.968 363.644 840.909 363.833C841.85 364.023 842.806 364.135 843.779 364.168C844.762 364.205 845.736 364.148 846.701 363.999C847.666 363.849 848.58 363.573 849.443 363.171C850.306 362.77 851.096 362.234 851.814 361.564C852.535 360.884 853.136 360.036 853.617 359.018L859.661 361.163C859.142 362.287 858.535 363.254 857.84 364.063C857.155 364.876 856.414 365.561 855.616 366.118C854.833 366.668 854.018 367.105 853.171 367.429C852.324 367.752 851.488 367.996 850.662 368.159C849.84 368.311 849.04 368.399 848.263 368.424C847.501 368.441 846.802 368.415 846.167 368.346C846.871 368.728 847.578 369.188 848.286 369.728C849.01 370.261 849.692 370.875 850.333 371.57C850.978 372.255 851.552 373.023 852.054 373.873C852.567 374.728 852.969 375.657 853.261 376.66C853.553 377.664 853.71 378.746 853.73 379.905C853.751 381.064 853.587 382.303 853.24 383.62L847.196 381.475Z" fill="black"/>
<path d="M824.819 361.184C824.149 363.07 823.211 364.616 822.003 365.819C820.8 367.013 819.381 367.865 817.747 368.378C816.113 368.89 814.285 369.069 812.263 368.916C810.256 368.756 808.106 368.269 805.815 367.455C803.523 366.642 801.537 365.661 799.856 364.513C798.19 363.357 796.879 362.064 795.922 360.632C794.966 359.201 794.392 357.641 794.199 355.952C794.01 354.253 794.25 352.46 794.92 350.573C795.589 348.686 796.531 347.148 797.745 345.959C798.963 344.759 800.394 343.905 802.039 343.396C803.684 342.888 805.515 342.716 807.533 342.88C809.566 343.037 811.728 343.522 814.02 344.336C816.311 345.149 818.285 346.131 819.941 347.283C821.611 348.428 822.918 349.714 823.864 351.142C824.809 352.569 825.371 354.131 825.55 355.826C825.732 357.511 825.488 359.297 824.819 361.184ZM818.823 359.056C819.114 358.235 819.27 357.372 819.291 356.468C819.327 355.556 819.124 354.656 818.683 353.768C818.253 352.883 817.534 352.034 816.527 351.22C815.52 350.407 814.126 349.684 812.346 349.052C811.152 348.629 810.068 348.352 809.094 348.222C808.123 348.082 807.249 348.06 806.471 348.156C805.693 348.252 805.001 348.444 804.394 348.733C803.791 349.011 803.266 349.358 802.818 349.776C802.373 350.182 801.994 350.641 801.68 351.154C801.381 351.66 801.137 352.179 800.947 352.712C800.754 353.256 800.613 353.824 800.523 354.416C800.443 355.012 800.446 355.613 800.531 356.219C800.62 356.815 800.81 357.41 801.103 358.006C801.396 358.602 801.814 359.183 802.357 359.748C802.905 360.302 803.597 360.836 804.435 361.349C805.277 361.852 806.295 362.315 807.489 362.739C809.269 363.37 810.806 363.688 812.101 363.692C813.396 363.695 814.489 363.489 815.381 363.073C816.283 362.661 817.006 362.096 817.549 361.376C818.107 360.65 818.532 359.877 818.823 359.056Z" fill="black"/>
<path d="M841.207 327.736L835.108 344.924L829.176 342.819L835.275 325.631L825.954 322.323L827.65 317.542L852.241 326.269L850.545 331.05L841.207 327.736Z" fill="black"/>
<path d="M592.523 348.105C594.318 345.915 597.86 346.899 598.267 349.701L605.717 400.954C605.921 402.359 607.012 403.47 608.413 403.7L659.521 412.086C662.316 412.544 663.235 416.104 661.012 417.858L620.35 449.936C619.235 450.815 618.818 452.315 619.32 453.644L637.612 502.098C638.612 504.747 635.989 507.323 633.358 506.274L585.247 487.099C583.928 486.574 582.42 486.963 581.521 488.061L548.704 528.13C546.91 530.32 543.368 529.336 542.96 526.534L535.511 475.281C535.307 473.876 534.216 472.765 532.815 472.535L481.706 464.149C478.912 463.691 477.993 460.131 480.216 458.377L520.878 426.299C521.993 425.42 522.409 423.92 521.908 422.591L503.616 374.137C502.616 371.488 505.239 368.912 507.869 369.961L555.981 389.136C557.3 389.661 558.807 389.272 559.707 388.174L592.523 348.105Z" fill="#FF6363"/>
<path d="M590.251 359.799C591.429 358.149 594.025 358.87 594.183 360.892L597.954 409.024C598.036 410.073 598.858 410.912 599.905 411.016L647.464 415.712C649.469 415.91 650.147 418.493 648.499 419.651L609.031 447.358C608.182 447.954 607.873 449.067 608.293 450.015L627.816 494.108C628.632 495.95 626.718 497.813 624.899 496.949L581.731 476.444C580.781 475.993 579.643 476.287 579.032 477.144L550.977 516.436C549.799 518.086 547.203 517.365 547.044 515.344L543.273 467.211C543.191 466.162 542.369 465.323 541.322 465.219L493.763 460.523C491.759 460.325 491.08 457.742 492.729 456.584L532.196 428.877C533.045 428.281 533.354 427.169 532.934 426.22L513.411 382.127C512.596 380.285 514.509 378.422 516.329 379.286L559.496 399.791C560.447 400.242 561.584 399.948 562.195 399.091L590.251 359.799Z" fill="#FF6363"/>
<path fill-rule="evenodd" clip-rule="evenodd" d="M591.168 364.12L564.846 400.984C563.318 403.125 560.475 403.862 558.099 402.733L517.575 383.484L535.913 424.902C536.962 427.272 536.19 430.054 534.068 431.543L496.996 457.569L541.642 461.978C544.26 462.236 546.315 464.334 546.521 466.957L550.059 512.116L576.381 475.251C577.909 473.11 580.753 472.373 583.129 473.502L623.653 492.751L605.314 451.334C604.265 448.963 605.038 446.182 607.159 444.692L644.232 418.666L599.585 414.257C596.968 413.999 594.912 411.901 594.706 409.279L591.168 364.12ZM594.183 360.892C594.025 358.87 591.429 358.149 590.251 359.799L562.195 399.091C561.584 399.948 560.447 400.242 559.496 399.791L516.329 379.286C514.509 378.422 512.596 380.285 513.411 382.127L532.934 426.22C533.354 427.169 533.045 428.281 532.196 428.877L492.729 456.584C491.08 457.742 491.759 460.325 493.763 460.523L541.322 465.219C542.369 465.323 543.191 466.162 543.273 467.211L547.044 515.344C547.203 517.365 549.799 518.086 550.977 516.436L579.032 477.144C579.643 476.287 580.781 475.993 581.731 476.444L624.899 496.949C626.718 497.813 628.632 495.95 627.816 494.108L608.293 450.015C607.873 449.067 608.182 447.954 609.031 447.358L648.499 419.651C650.147 418.493 649.469 415.91 647.464 415.712L599.905 411.016C598.858 410.912 598.036 410.073 597.954 409.024L594.183 360.892Z" fill="black"/>
<path d="M582.622 460.047L592.37 424.952L601.846 427.585L592.098 462.679L582.622 460.047Z" fill="black"/>
<path d="M567.465 448.684L547.9 443.249L542.761 448.975L532.186 446.037L560.299 416.044L570.874 418.981L579.49 459.177L568.916 456.24L567.465 448.684ZM553.199 437.347L566.021 440.909L563.225 426.211L553.199 437.347Z" fill="black"/>
<path d="M120.648 368.038C118.633 350.765 131.003 335.128 148.277 333.113L435.158 299.649C452.432 297.634 468.068 310.003 470.083 327.277C472.098 344.55 459.728 360.187 442.455 362.202L155.573 395.666C138.3 397.681 122.663 385.312 120.648 368.038Z" fill="#2B8BFC"/>
<path d="M189.628 415.83C189.854 417.766 192.317 418.447 193.506 416.903L222.232 379.577C223.404 378.055 222.168 375.873 220.26 376.096L187.623 379.903C186.432 380.042 185.579 381.12 185.718 382.311L189.628 415.83Z" fill="#2B8BFC"/>
<path d="M432.538 329.316C432.673 330.473 432.629 331.56 432.406 332.577C432.182 333.582 431.735 334.483 431.065 335.278C430.404 336.061 429.502 336.719 428.357 337.251C427.212 337.783 425.786 338.149 424.078 338.348L413.697 339.559L414.551 346.873L408.299 347.602L405.598 324.448L422.23 322.508C423.938 322.308 425.41 322.336 426.647 322.59C427.882 322.833 428.912 323.265 429.736 323.887C430.57 324.495 431.212 325.263 431.661 326.19C432.111 327.117 432.403 328.159 432.538 329.316ZM426.231 330.154C426.168 329.615 426.036 329.164 425.834 328.8C425.642 328.424 425.357 328.132 424.98 327.926C424.603 327.719 424.127 327.593 423.552 327.546C422.976 327.488 422.278 327.507 421.458 327.602L412.426 328.656L413.121 334.621L422.154 333.568C422.974 333.472 423.66 333.347 424.211 333.191C424.761 333.025 425.197 332.809 425.519 332.543C425.84 332.267 426.051 331.935 426.154 331.547C426.268 331.158 426.294 330.694 426.231 330.154Z" fill="black"/>
<path d="M394.783 349.178L392.083 326.024L398.334 325.295L401.035 348.449L394.783 349.178Z" fill="black"/>
<path d="M381.286 350.753L380.159 341.097L364.251 342.953L365.378 352.609L359.126 353.338L356.425 330.184L362.677 329.455L363.66 337.88L379.568 336.025L378.585 327.599L384.837 326.87L387.538 350.024L381.286 350.753Z" fill="black"/>
<path d="M349.333 337.622C348.87 337.459 348.263 337.285 347.512 337.099C346.762 336.914 345.918 336.756 344.98 336.626C344.042 336.485 343.029 336.398 341.944 336.365C340.857 336.321 339.752 336.365 338.628 336.496C337.729 336.601 336.963 336.719 336.329 336.85C335.707 336.979 335.182 337.114 334.754 337.255C334.338 337.395 334.007 337.542 333.763 337.695C333.529 337.837 333.352 337.977 333.232 338.116C333.111 338.255 333.036 338.39 333.005 338.518C332.986 338.646 332.982 338.76 332.994 338.861C333.033 339.198 333.237 339.476 333.604 339.695C333.97 339.903 334.457 340.074 335.064 340.208C335.671 340.331 336.372 340.437 337.168 340.527C337.963 340.605 338.804 340.689 339.691 340.779C340.589 340.856 341.511 340.954 342.458 341.071C343.416 341.176 344.344 341.324 345.243 341.515C346.154 341.705 347.019 341.951 347.84 342.254C348.66 342.545 349.392 342.915 350.037 343.364C350.681 343.813 351.211 344.354 351.627 344.989C352.042 345.624 352.301 346.374 352.402 347.239C352.531 348.351 352.446 349.329 352.146 350.172C351.846 351.016 351.396 351.752 350.798 352.379C350.21 353.006 349.504 353.538 348.678 353.976C347.851 354.403 346.971 354.762 346.037 355.053C345.114 355.343 344.167 355.573 343.196 355.743C342.237 355.912 341.319 356.047 340.442 356.149C338.151 356.417 336.005 356.473 334.006 356.32C332.019 356.176 330.246 355.91 328.686 355.522L328.041 349.995C329.68 350.669 331.51 351.133 333.533 351.387C335.566 351.639 337.707 351.635 339.954 351.373C341.279 351.218 342.35 351.025 343.166 350.793C343.991 350.549 344.627 350.292 345.074 350.024C345.52 349.744 345.812 349.465 345.95 349.187C346.089 348.909 346.144 348.652 346.117 348.416C346.073 348.045 345.867 347.745 345.499 347.514C345.129 347.273 344.64 347.085 344.033 346.951C343.423 346.806 342.722 346.694 341.927 346.616C341.131 346.527 340.285 346.449 339.389 346.383C338.503 346.304 337.587 346.217 336.642 346.122C335.698 346.027 334.771 345.896 333.864 345.729C332.966 345.549 332.108 345.324 331.291 345.055C330.473 344.775 329.743 344.422 329.101 343.996C328.458 343.558 327.929 343.033 327.516 342.421C327.102 341.798 326.844 341.053 326.744 340.188C326.624 339.166 326.701 338.263 326.974 337.48C327.247 336.696 327.657 336.011 328.203 335.423C328.76 334.823 329.418 334.314 330.177 333.895C330.948 333.475 331.767 333.123 332.633 332.84C333.5 332.556 334.384 332.328 335.286 332.154C336.188 331.981 337.05 331.846 337.87 331.751C338.768 331.646 339.695 331.583 340.649 331.563C341.614 331.541 342.568 331.561 343.508 331.622C344.448 331.672 345.357 331.754 346.236 331.868C347.126 331.98 347.95 332.112 348.707 332.263L349.333 337.622Z" fill="black"/>
<path d="M323.872 339.293C323.697 339.257 323.441 339.213 323.105 339.161C322.779 339.096 322.397 339.044 321.96 339.004C321.521 338.953 321.039 338.923 320.514 338.916C320.001 338.908 319.475 338.935 318.935 338.998C317.812 339.129 316.778 339.392 315.833 339.787C314.899 340.169 314.037 340.64 313.248 341.199C312.458 341.746 311.732 342.355 311.07 343.024C310.418 343.681 309.823 344.348 309.288 345.026L310.913 358.962L304.661 359.691L301.96 336.537L308.212 335.808L308.651 339.566C309.338 338.916 310.045 338.287 310.771 337.679C311.507 337.058 312.278 336.495 313.085 335.991C313.903 335.486 314.775 335.059 315.703 334.712C316.629 334.353 317.625 334.112 318.693 333.987C319.097 333.94 319.51 333.915 319.931 333.911C320.362 333.895 320.777 333.892 321.177 333.903C321.588 333.912 321.971 333.93 322.327 333.956C322.683 333.983 322.995 334.015 323.261 334.052L323.872 339.293Z" fill="black"/>
<path d="M296.944 359.43C295.119 360.281 293.273 360.951 291.406 361.443C289.551 361.944 287.635 362.309 285.658 362.54C283.13 362.835 280.846 362.828 278.806 362.519C276.776 362.198 275.027 361.6 273.558 360.723C272.089 359.847 270.914 358.703 270.032 357.291C269.15 355.88 268.599 354.23 268.378 352.343C268.174 350.59 268.338 348.926 268.872 347.349C269.415 345.76 270.274 344.339 271.449 343.086C272.634 341.82 274.117 340.77 275.899 339.936C277.679 339.091 279.709 338.535 281.99 338.269C284.091 338.024 286.045 338.086 287.853 338.456C289.671 338.813 291.269 339.475 292.646 340.442C294.034 341.408 295.165 342.665 296.041 344.214C296.927 345.762 297.494 347.597 297.742 349.72L297.923 351.271L275.106 353.932C275.393 354.639 275.803 355.269 276.334 355.822C276.877 356.373 277.572 356.816 278.419 357.15C279.266 357.484 280.282 357.701 281.467 357.802C282.663 357.902 284.07 357.857 285.688 357.669C286.834 357.535 287.949 357.336 289.034 357.073C290.118 356.799 291.125 356.493 292.053 356.157C292.981 355.81 293.81 355.451 294.541 355.081C295.284 354.71 295.874 354.357 296.313 354.021L296.944 359.43ZM291.17 347.413C291.047 346.846 290.804 346.277 290.441 345.704C290.088 345.119 289.574 344.615 288.898 344.193C288.223 343.771 287.367 343.461 286.33 343.263C285.292 343.054 284.026 343.036 282.532 343.21C281.128 343.374 279.935 343.69 278.953 344.157C277.971 344.625 277.162 345.158 276.526 345.756C275.901 346.353 275.432 346.971 275.12 347.611C274.807 348.251 274.624 348.83 274.571 349.349L291.17 347.413Z" fill="black"/>
<path d="M257.865 365.15L256.351 352.174C256.25 351.309 256.086 350.537 255.859 349.857C255.63 349.167 255.285 348.598 254.823 348.151C254.37 347.691 253.769 347.368 253.019 347.182C252.278 346.984 251.346 346.951 250.223 347.082C249.369 347.181 248.484 347.404 247.568 347.75C246.661 348.083 245.77 348.495 244.893 348.984C244.017 349.474 243.187 350.02 242.403 350.624C241.631 351.227 240.951 351.841 240.363 352.468L242.058 366.994L235.806 367.723L233.105 344.569L239.357 343.84L239.726 347.008C240.46 346.467 241.246 345.925 242.082 345.384C242.917 344.831 243.814 344.316 244.772 343.84C245.729 343.364 246.757 342.948 247.854 342.592C248.952 342.237 250.124 341.986 251.371 341.841C252.932 341.658 254.348 341.687 255.617 341.926C256.896 342.153 258.003 342.564 258.938 343.161C259.872 343.747 260.621 344.508 261.186 345.444C261.76 346.368 262.118 347.436 262.26 348.65L264.1 364.423L257.865 365.15Z" fill="black"/>
<path d="M210.305 347.229L218.095 362.615L222.623 345.792L229.111 345.035L222.51 369.274L215.567 370.084L207.701 355.219L203.485 371.493L196.542 372.303L184.522 350.236L191.027 349.478L199.131 364.486L203.345 348.041L210.305 347.229Z" fill="black"/>
<path d="M183.633 362.092C183.865 364.08 183.705 365.881 183.153 367.494C182.6 369.096 181.703 370.487 180.463 371.668C179.223 372.849 177.662 373.817 175.78 374.572C173.908 375.314 171.764 375.826 169.348 376.108C166.933 376.389 164.718 376.386 162.703 376.097C160.698 375.796 158.95 375.214 157.46 374.351C155.97 373.489 154.766 372.343 153.848 370.912C152.928 369.471 152.352 367.756 152.12 365.768C151.888 363.779 152.055 361.983 152.619 360.38C153.183 358.766 154.09 357.368 155.341 356.185C156.593 355.003 158.16 354.04 160.043 353.297C161.936 352.541 164.091 352.022 166.506 351.74C168.921 351.458 171.126 351.469 173.12 351.771C175.124 352.061 176.865 352.638 178.344 353.502C179.822 354.366 181.016 355.519 181.924 356.962C182.831 358.393 183.401 360.103 183.633 362.092ZM177.314 362.829C177.213 361.964 176.972 361.121 176.592 360.3C176.221 359.466 175.642 358.748 174.854 358.145C174.078 357.541 173.058 357.096 171.795 356.811C170.532 356.526 168.962 356.492 167.086 356.711C165.828 356.858 164.733 357.088 163.802 357.402C162.869 357.704 162.075 358.07 161.419 358.5C160.763 358.929 160.226 359.407 159.81 359.934C159.392 360.45 159.073 360.994 158.856 361.566C158.636 362.127 158.499 362.706 158.443 363.305C158.398 363.891 158.408 364.465 158.473 365.027C158.54 365.6 158.664 366.172 158.844 366.743C159.036 367.312 159.304 367.851 159.648 368.357C159.99 368.852 160.424 369.303 160.95 369.708C161.475 370.114 162.107 370.45 162.844 370.717C163.58 370.973 164.437 371.146 165.415 371.237C166.393 371.317 167.51 371.283 168.769 371.136C170.645 370.917 172.165 370.524 173.328 369.955C174.492 369.387 175.382 368.719 175.998 367.953C176.626 367.185 177.025 366.358 177.195 365.473C177.375 364.575 177.414 363.694 177.314 362.829Z" fill="black"/>
<path d="M27.3753 214.929C23.5582 208.829 25.4092 200.789 31.5096 196.972L118.765 142.375C124.866 138.558 132.905 140.409 136.722 146.509L191.319 233.765C195.136 239.865 193.285 247.905 187.185 251.722L99.9291 306.319C93.8288 310.136 85.7891 308.285 81.972 302.185L27.3753 214.929Z" fill="#FFE55B"/>
<path d="M156.12 223.922L150.749 247.249L142.698 245.396L148.069 222.068L135.418 219.156L136.912 212.667L170.286 220.351L168.792 226.84L156.12 223.922Z" fill="black"/>
<path d="M101.034 235.804L92.9836 233.95L99.8481 204.134L120.029 208.781C122.199 209.28 123.985 209.927 125.386 210.722C126.802 211.52 127.885 212.44 128.635 213.481C129.4 214.526 129.858 215.682 130.007 216.95C130.175 218.208 130.094 219.552 129.764 220.985C129.474 222.243 129.04 223.301 128.462 224.158C127.899 225.018 127.235 225.719 126.471 226.259C125.724 226.788 124.9 227.192 123.998 227.472C123.095 227.751 122.168 227.942 121.216 228.042L128.268 242.074L118.85 239.905L112.351 226.847L103.562 224.823L101.034 235.804ZM121.637 219.068C121.77 218.489 121.804 217.979 121.738 217.537C121.686 217.099 121.501 216.713 121.181 216.381C120.865 216.034 120.402 215.729 119.792 215.467C119.197 215.208 118.429 214.97 117.489 214.754L106.465 212.216L104.996 218.595L116.02 221.133C116.96 221.35 117.755 221.472 118.403 221.499C119.066 221.53 119.614 221.466 120.047 221.307C120.483 221.133 120.82 220.86 121.058 220.488C121.311 220.12 121.503 219.646 121.637 219.068Z" fill="black"/>
<path d="M77.6171 224.471L60.9949 220.644L56.8966 225.642L47.9128 223.573L70.3796 197.35L79.3634 199.418L88.1012 232.826L79.1174 230.758L77.6171 224.471ZM65.2199 215.493L76.1133 218.001L73.2163 205.772L65.2199 215.493Z" fill="black"/>
<path d="M129.742 159.961C129.069 162.883 126.155 164.706 123.233 164.033C120.311 163.361 118.488 160.447 119.161 157.525C119.834 154.603 122.748 152.779 125.67 153.452C128.592 154.125 130.415 157.039 129.742 159.961Z" fill="black"/>
<path d="M99.29 292.227C98.6173 295.149 95.7032 296.973 92.7813 296.3C89.8593 295.627 88.036 292.713 88.7087 289.791C89.3814 286.869 92.2955 285.046 95.2174 285.719C98.1394 286.391 99.9627 289.305 99.29 292.227Z" fill="black"/>
<path d="M977.452 362.759C973.889 356.507 976.068 348.55 982.32 344.987L1111.35 271.452C1117.6 267.888 1125.56 270.068 1129.12 276.32L1162.76 335.351C1166.33 341.603 1164.15 349.56 1157.89 353.123L1028.87 426.659C1022.61 430.222 1014.66 428.042 1011.09 421.79L977.452 362.759Z" fill="#F97ACE"/>
<path d="M1108.27 317.073L1120.97 339.356L1113.28 343.739L1100.58 321.456L1088.5 328.343L1084.96 322.145L1116.84 303.976L1120.38 310.174L1108.27 317.073Z" fill="black"/>
<path d="M1066.14 340.918L1068.97 345.872L1087.48 335.323L1090.94 341.396L1072.43 351.946L1078.91 363.325L1071.22 367.708L1054.99 339.228L1082.21 323.717L1085.67 329.79L1066.14 340.918Z" fill="black"/>
<path d="M1053.98 377.537L1023.61 368.92L1034.76 388.488L1027.07 392.871L1010.84 364.39L1019.19 359.629L1049.63 368.317L1038.43 348.666L1046.08 344.307L1062.31 372.788L1053.98 377.537Z" fill="black"/>
<path fill-rule="evenodd" clip-rule="evenodd" d="M990.096 353.954C989.206 352.391 989.75 350.402 991.313 349.511L991.364 349.483C992.927 348.592 994.916 349.137 995.807 350.7C996.697 352.263 996.152 354.252 994.589 355.143L994.539 355.171C992.976 356.062 990.987 355.517 990.096 353.954ZM1010.17 342.513C1009.28 340.95 1009.83 338.961 1011.39 338.07L1011.49 338.013C1013.05 337.122 1015.04 337.667 1015.93 339.23C1016.82 340.793 1016.28 342.782 1014.71 343.673L1014.61 343.73C1013.05 344.621 1011.06 344.076 1010.17 342.513ZM1030.3 331.043C1029.41 329.48 1029.95 327.491 1031.51 326.6L1031.61 326.543C1033.18 325.652 1035.17 326.197 1036.06 327.76C1036.95 329.323 1036.4 331.313 1034.84 332.203L1034.74 332.26C1033.18 333.151 1031.19 332.606 1030.3 331.043ZM1050.42 319.574C1049.53 318.011 1050.08 316.021 1051.64 315.131L1051.74 315.074C1053.3 314.183 1055.29 314.728 1056.18 316.291C1057.07 317.854 1056.53 319.843 1054.96 320.734L1054.86 320.791C1053.3 321.682 1051.31 321.137 1050.42 319.574ZM1070.55 308.104C1069.66 306.541 1070.2 304.552 1071.76 303.661L1071.86 303.604C1073.43 302.713 1075.42 303.258 1076.31 304.821C1077.2 306.384 1076.65 308.373 1075.09 309.264L1074.99 309.321C1073.43 310.212 1071.44 309.667 1070.55 308.104ZM1090.67 296.634C1089.78 295.071 1090.33 293.082 1091.89 292.191L1091.99 292.134C1093.55 291.243 1095.54 291.788 1096.43 293.351C1097.32 294.914 1096.78 296.904 1095.21 297.794L1095.11 297.851C1093.55 298.742 1091.56 298.197 1090.67 296.634ZM1110.8 285.165C1109.91 283.602 1110.45 281.612 1112.01 280.722L1112.06 280.693C1113.63 279.802 1115.62 280.347 1116.51 281.91C1117.4 283.473 1116.85 285.462 1115.29 286.353L1115.24 286.382C1113.68 287.272 1111.69 286.728 1110.8 285.165Z" fill="black"/>
<path fill-rule="evenodd" clip-rule="evenodd" d="M1025.04 415.273C1024.15 413.71 1024.7 411.72 1026.26 410.83L1026.31 410.801C1027.87 409.91 1029.86 410.455 1030.75 412.018C1031.64 413.581 1031.1 415.571 1029.54 416.461L1029.49 416.49C1027.92 417.381 1025.93 416.836 1025.04 415.273ZM1045.12 403.832C1044.23 402.269 1044.77 400.279 1046.34 399.389L1046.44 399.331C1048 398.441 1049.99 398.986 1050.88 400.549C1051.77 402.112 1051.22 404.101 1049.66 404.992L1049.56 405.049C1048 405.94 1046.01 405.395 1045.12 403.832ZM1065.24 392.362C1064.35 390.799 1064.9 388.81 1066.46 387.919L1066.56 387.862C1068.12 386.971 1070.11 387.516 1071 389.079C1071.89 390.642 1071.35 392.631 1069.79 393.522L1069.69 393.579C1068.12 394.47 1066.13 393.925 1065.24 392.362ZM1085.37 380.892C1084.48 379.329 1085.02 377.34 1086.59 376.449L1086.69 376.392C1088.25 375.501 1090.24 376.046 1091.13 377.609C1092.02 379.172 1091.47 381.161 1089.91 382.052L1089.81 382.109C1088.25 383 1086.26 382.455 1085.37 380.892ZM1105.49 369.422C1104.6 367.859 1105.15 365.87 1106.71 364.979L1106.81 364.922C1108.37 364.032 1110.36 364.577 1111.25 366.14C1112.14 367.703 1111.6 369.692 1110.04 370.583L1109.94 370.64C1108.37 371.53 1106.38 370.986 1105.49 369.422ZM1125.62 357.953C1124.73 356.39 1125.27 354.401 1126.84 353.51L1126.94 353.453C1128.5 352.562 1130.49 353.107 1131.38 354.67C1132.27 356.233 1131.72 358.222 1130.16 359.113L1130.06 359.17C1128.5 360.061 1126.51 359.516 1125.62 357.953ZM1145.74 346.483C1144.85 344.92 1145.4 342.931 1146.96 342.04L1147.01 342.012C1148.57 341.121 1150.56 341.666 1151.45 343.229C1152.34 344.792 1151.8 346.781 1150.24 347.672L1150.19 347.7C1148.62 348.591 1146.63 348.046 1145.74 346.483Z" fill="black"/>
</svg>
