<svg width="186" height="186" viewBox="0 0 186 186" fill="none" xmlns="http://www.w3.org/2000/svg">
<path d="M171.273 78.5326C179.12 121.905 150.321 163.426 106.949 171.273C63.5765 179.12 22.0551 150.321 14.2082 106.949C6.36122 63.5767 35.1602 22.0553 78.5324 14.2083C121.905 6.36136 163.426 35.1603 171.273 78.5326Z" fill="#8550F6"/>
<path d="M163.794 79.8858C170.893 119.127 144.837 156.694 105.596 163.794C66.3541 170.894 28.7872 144.837 21.6875 105.596C14.5879 66.3543 40.6441 28.7873 79.8857 21.6877C119.127 14.5881 156.694 40.6443 163.794 79.8858Z" fill="#8550F6"/>
<path fill-rule="evenodd" clip-rule="evenodd" d="M164.627 85.908L160.304 86.3238C160.123 84.443 159.863 82.5536 159.52 80.6591C159.177 78.7645 158.759 76.9036 158.27 75.0787L162.465 73.9534C162.985 75.8944 163.43 77.8728 163.794 79.8858C164.158 81.8989 164.435 83.9076 164.627 85.908ZM161.306 70.0729L157.181 71.431C155.975 67.7686 154.475 64.2642 152.713 60.9392L156.551 58.9055C158.427 62.4453 160.023 66.1757 161.306 70.0729ZM154.554 55.3808L150.837 57.6282C148.855 54.3499 146.608 51.2664 144.132 48.4018L147.417 45.5613C150.053 48.6094 152.443 51.891 154.554 55.3808ZM144.684 42.5728L141.562 45.593C138.908 42.8502 136.031 40.3391 132.967 38.0847L135.541 34.5863C138.8 36.9839 141.86 39.6548 144.684 42.5728ZM132.213 32.2777L129.838 35.9142C126.653 33.8341 123.293 32.0194 119.794 30.4947L121.529 26.5131C125.251 28.1352 128.825 30.0654 132.213 32.2777ZM117.772 24.9997C113.994 23.5995 110.083 22.5099 106.075 21.7562L105.272 26.0247C109.037 26.7327 112.712 27.7564 116.263 29.0723L117.772 24.9997ZM102.074 21.1203L101.514 25.4273C97.782 24.942 93.9742 24.7651 90.1215 24.919L89.9481 20.5792C94.0478 20.4154 98.1011 20.6037 102.074 21.1203ZM85.9078 20.8541L86.3236 25.1775C84.4429 25.3583 82.5534 25.6188 80.6589 25.9616C78.7644 26.3043 76.9035 26.7224 75.0785 27.2119L73.9532 23.017C75.8942 22.4963 77.8726 22.0519 79.8857 21.6877C81.8988 21.3235 83.9074 21.0465 85.9078 20.8541ZM70.0727 24.1751L71.4308 28.3005C67.7685 29.5062 64.264 31.0061 60.939 32.7681L58.9053 28.9304C62.4451 27.0546 66.1755 25.4581 70.0727 24.1751ZM55.3807 30.9279L57.628 34.6445C54.3497 36.6268 51.2663 38.8733 48.4017 41.3498L45.5611 38.0642C48.6092 35.429 51.8909 33.0381 55.3807 30.9279ZM42.5726 40.798L45.5928 43.9193C42.85 46.5732 40.3389 49.4501 38.0846 52.5143L34.5861 49.9405C36.9838 46.6815 39.6547 43.6214 42.5726 40.798ZM32.2776 53.2688L35.914 55.6437C33.8339 58.8288 32.0192 62.1887 30.4945 65.6875L26.5129 63.9524C28.135 60.2301 30.0653 56.6564 32.2776 53.2688ZM24.9995 67.7093L29.0721 69.2186C27.7562 72.7693 26.7325 76.4444 26.0245 80.2094L21.7561 79.4067C22.5097 75.3988 23.5994 71.4874 24.9995 67.7093ZM21.1202 83.4078L25.4272 83.968C24.9418 87.6995 24.7649 91.5074 24.9188 95.36L20.579 95.5334C20.4152 91.4337 20.6035 87.3805 21.1202 83.4078ZM20.854 99.5737C21.0464 101.574 21.3233 103.583 21.6875 105.596C22.0517 107.609 22.4961 109.587 23.0168 111.528L27.2118 110.403C26.7222 108.578 26.3042 106.717 25.9614 104.823C25.6187 102.928 25.3582 101.039 25.1773 99.1579L20.854 99.5737ZM24.1749 115.409L28.3004 114.051C29.5061 117.713 31.006 121.218 32.7679 124.543L28.9302 126.576C27.0544 123.036 25.4579 119.306 24.1749 115.409ZM30.9277 130.101L34.6443 127.854C36.6266 131.132 38.8731 134.215 41.3497 137.08L38.064 139.92C35.4289 136.872 33.0379 133.591 30.9277 130.101ZM40.7978 142.909L43.9191 139.889C46.5731 142.632 49.4499 145.143 52.5141 147.397L49.9403 150.895C46.6813 148.498 43.6213 145.827 40.7978 142.909ZM53.2687 153.204L55.6436 149.568C58.8287 151.648 62.1885 153.462 65.6873 154.987L63.9522 158.969C60.23 157.347 56.6562 155.416 53.2687 153.204ZM67.7091 160.482L69.2184 156.409C72.7691 157.725 76.4442 158.749 80.2092 159.457L79.4066 163.725C75.3986 162.972 71.4873 161.882 67.7091 160.482ZM83.4077 164.361L83.9678 160.054C87.6994 160.54 91.5072 160.717 95.3599 160.563L95.5333 164.903C91.4336 165.066 87.3803 164.878 83.4077 164.361ZM99.5736 164.628L99.1578 160.304C101.039 160.123 102.928 159.863 104.822 159.52C106.717 159.177 108.578 158.759 110.403 158.27L111.528 162.465C109.587 162.985 107.609 163.43 105.596 163.794C103.583 164.158 101.574 164.435 99.5736 164.628ZM115.409 161.307L114.051 157.181C117.713 155.975 121.217 154.476 124.542 152.714L126.576 156.551C123.036 158.427 119.306 160.024 115.409 161.307ZM130.101 154.554L127.853 150.837C131.132 148.855 134.215 146.608 137.08 144.132L139.92 147.418C136.872 150.053 133.591 152.444 130.101 154.554ZM142.909 144.684L139.889 141.562C142.631 138.908 145.142 136.032 147.397 132.967L150.895 135.541C148.498 138.8 145.827 141.86 142.909 144.684ZM153.204 132.213L149.567 129.838C151.647 126.653 153.462 123.293 154.987 119.794L158.968 121.529C157.346 125.252 155.416 128.825 153.204 132.213ZM160.482 117.772C161.882 113.994 162.972 110.083 163.725 106.075L159.457 105.272C158.749 109.037 157.725 112.712 156.409 116.263L160.482 117.772ZM164.361 102.074L160.054 101.514C160.54 97.7822 160.716 93.9743 160.563 90.1217L164.902 89.9483C165.066 94.048 164.878 98.1012 164.361 102.074Z" fill="black"/>
<path d="M129.654 121.924L129.081 118.755C128.08 119.566 126.98 120.323 125.782 121.025C124.599 121.724 123.349 122.362 122.031 122.94C120.713 123.518 119.332 124.018 117.89 124.441C116.465 124.876 115.009 125.228 113.523 125.497C111.785 125.812 110.073 125.952 108.386 125.918C106.714 125.881 105.186 125.608 103.801 125.098C102.415 124.589 101.232 123.809 100.25 122.759C99.2832 121.705 98.6442 120.318 98.3327 118.596C97.9391 116.42 98.2068 114.505 99.1358 112.85C100.062 111.179 101.662 109.661 103.937 108.296C106.211 106.931 109.166 105.661 112.8 104.486C116.45 103.308 120.801 102.117 125.853 100.912L125.729 100.231C125.633 99.6993 125.397 99.2005 125.022 98.7349C124.644 98.2538 124.044 97.8855 123.222 97.6301C122.413 97.3563 121.336 97.2117 119.992 97.1963C118.663 97.178 116.997 97.3502 114.994 97.7126C113.413 97.9986 111.863 98.3679 110.345 98.8204C108.839 99.2544 107.392 99.7425 106.003 100.285C104.63 100.824 103.335 101.398 102.12 102.006C100.905 102.613 99.8093 103.216 98.8343 103.812L97.4326 96.0649C98.4772 95.585 99.6563 95.0888 100.97 94.5763C102.283 94.0639 103.659 93.5807 105.096 93.1267C106.53 92.6571 107.989 92.2315 109.472 91.8501C110.952 91.4531 112.38 91.13 113.757 90.8808C116.465 90.3909 119.003 90.1662 121.37 90.2067C123.734 90.2315 125.823 90.5648 127.636 91.2065C129.465 91.8454 130.972 92.8013 132.156 94.0742C133.355 95.3442 134.135 96.9731 134.495 98.9608L138.364 120.348L129.654 121.924ZM126.991 107.204C123.664 107.935 120.848 108.631 118.543 109.29C116.253 109.947 114.362 110.572 112.869 111.165C111.376 111.759 110.216 112.316 109.389 112.837C108.578 113.356 107.987 113.843 107.617 114.298C107.247 114.753 107.041 115.178 106.999 115.573C106.973 115.966 106.989 116.319 107.045 116.632C107.113 117.007 107.281 117.357 107.55 117.68C107.816 117.987 108.223 118.229 108.772 118.404C109.337 118.577 110.056 118.665 110.929 118.669C111.803 118.672 112.881 118.558 114.165 118.326C115.589 118.068 116.962 117.707 118.284 117.241C119.606 116.776 120.844 116.245 121.996 115.648C123.147 115.036 124.207 114.375 125.178 113.666C126.161 112.939 127.022 112.201 127.76 111.454L126.991 107.204Z" fill="black"/>
<path d="M60.8898 134.365L55.0537 102.108L87.7103 96.1994L88.9549 103.078L65.243 107.368L66.2072 112.697L88.6982 108.628L89.9428 115.507L67.4517 119.576L68.59 125.868L92.6306 121.519L93.8751 128.397L60.8898 134.365Z" fill="black"/>
<path d="M119.141 63.0078C119.514 65.0737 119.62 66.9538 119.458 68.6481C119.293 70.3266 118.903 71.8357 118.289 73.1753C117.69 74.512 116.887 75.6999 115.879 76.739C114.886 77.7752 113.731 78.6712 112.413 79.4269C111.095 80.1826 109.643 80.8251 108.058 81.3543C106.47 81.868 104.792 82.2847 103.023 82.6047L82.5509 86.3085L76.7148 54.051L97.1399 50.3557C98.9085 50.0357 100.628 49.8459 102.298 49.7861C103.966 49.7108 105.549 49.7961 107.048 50.0421C108.563 50.2852 109.975 50.7168 111.283 51.3368C112.588 51.9411 113.757 52.7722 114.789 53.8302C115.834 54.8696 116.727 56.1465 117.47 57.6608C118.213 59.1751 118.77 60.9574 119.141 63.0078ZM110.36 64.5963C110.08 63.0468 109.633 61.7376 109.019 60.6687C108.421 59.5969 107.61 58.774 106.584 58.1997C105.572 57.6071 104.321 57.2596 102.832 57.1573C101.339 57.0393 99.5681 57.1658 97.5178 57.5368L86.6948 59.4949L89.9909 77.7131L100.814 75.755C102.864 75.384 104.569 74.8897 105.928 74.2721C107.284 73.6387 108.333 72.8672 109.073 71.9573C109.827 71.029 110.296 69.9582 110.48 68.7448C110.681 67.5286 110.64 66.1458 110.36 64.5963Z" fill="black"/>
<path d="M63.7218 89.715L57.8857 57.4575L66.5957 55.8817L72.4318 88.1392L63.7218 89.715Z" fill="black"/>
</svg>
