<svg width="390" height="369" viewBox="0 0 390 369" fill="none" xmlns="http://www.w3.org/2000/svg">
<path d="M119.988 85.2235C124.395 104.125 95.2825 127.068 54.9636 136.469C14.6447 145.87 -21.613 138.169 -26.0201 119.268C-30.4273 100.367 -1.31506 77.4233 39.0039 68.0222C79.3228 58.6211 115.58 66.3224 119.988 85.2235Z" fill="#0FE5F2"/>
<path fill-rule="evenodd" clip-rule="evenodd" d="M108.931 97.2639C111.234 93.517 111.881 90.1846 111.21 87.3064C110.539 84.4282 108.485 81.7257 104.762 79.3838C101.023 77.0312 95.8038 75.1861 89.3478 74.0457C76.4489 71.7671 59.2748 72.4181 40.9528 76.6903C22.6308 80.9624 6.93986 87.9745 -3.62106 95.7231C-8.90687 99.6014 -12.7715 103.564 -15.0847 107.328C-17.3875 111.075 -18.0348 114.408 -17.3637 117.286C-16.6926 120.164 -14.6382 122.866 -10.9157 125.208C-7.17626 127.561 -1.95734 129.406 4.49867 130.546C17.3976 132.825 34.5717 132.174 52.8937 127.902C71.2157 123.63 86.9066 116.618 97.4675 108.869C102.753 104.991 106.618 101.028 108.931 97.2639ZM53.6559 131.171C90.966 122.471 118.197 102.491 114.479 86.5442C110.761 70.5971 77.5006 64.7219 40.1906 73.4214C2.88053 82.121 -24.3509 102.101 -20.6326 118.048C-16.9142 133.995 16.3459 139.87 53.6559 131.171Z" fill="black"/>
<path d="M86.7983 88.9794L89.4655 100.418L85.5178 101.339L82.8506 89.8999L76.6471 91.3464L75.9052 88.1648L92.2706 84.3489L93.0125 87.5305L86.7983 88.9794Z" fill="black"/>
<path d="M72.9194 104.276L72.5845 102.84C72.1453 103.234 71.6597 103.605 71.1277 103.954C70.6027 104.3 70.0454 104.621 69.4559 104.916C68.8664 105.21 68.2465 105.471 67.5962 105.697C66.9547 105.929 66.297 106.123 65.6231 106.28C64.8356 106.464 64.0557 106.567 63.2832 106.59C62.5178 106.612 61.8125 106.522 61.1672 106.321C60.522 106.12 59.9627 105.79 59.4894 105.332C59.0232 104.872 58.6991 104.252 58.5172 103.472C58.2873 102.486 58.3658 101.604 58.7527 100.826C59.138 100.04 59.8352 99.3091 60.8443 98.6325C61.8533 97.956 63.1755 97.3074 64.8109 96.6867C66.4534 96.0644 68.4161 95.4197 70.6989 94.7528L70.6269 94.4443C70.5707 94.2031 70.4514 93.9803 70.2692 93.776C70.0852 93.5646 69.8023 93.4099 69.4205 93.3119C69.0441 93.2052 68.5482 93.1638 67.933 93.1876C67.3248 93.2097 66.5667 93.3266 65.6587 93.5383C64.9423 93.7054 64.242 93.9098 63.5579 94.1516C62.8792 94.3846 62.2285 94.6411 61.6056 94.921C60.9899 95.1992 60.411 95.4912 59.869 95.7971C59.327 96.103 58.8398 96.4035 58.4076 96.6988L57.5888 93.1874C58.0556 92.9439 58.5835 92.6899 59.1726 92.4254C59.7616 92.1609 60.3796 91.9084 61.0266 91.6678C61.6719 91.4201 62.3293 91.192 62.9987 90.9835C63.6665 90.768 64.3125 90.5875 64.9367 90.4419C66.164 90.1557 67.3194 89.9948 68.4031 89.959C69.4851 89.9161 70.4481 90.0207 71.2922 90.2726C72.1434 90.5229 72.8544 90.9256 73.4251 91.4806C74.0029 92.034 74.3968 92.7612 74.6069 93.6621L76.8672 103.356L72.9194 104.276ZM71.3638 97.6045C69.859 98.0153 68.5869 98.3979 67.5476 98.7524C66.5155 99.1053 65.6648 99.4345 64.9956 99.7401C64.3264 100.046 63.8086 100.327 63.4423 100.585C63.0831 100.841 62.824 101.077 62.6651 101.293C62.5062 101.51 62.4217 101.709 62.4118 101.891C62.4089 102.071 62.424 102.232 62.4571 102.374C62.4968 102.544 62.5818 102.7 62.712 102.842C62.8406 102.976 63.0325 103.077 63.2876 103.145C63.5499 103.211 63.8808 103.235 64.2804 103.217C64.68 103.198 65.1706 103.121 65.7523 102.986C66.3979 102.835 67.0176 102.638 67.6116 102.395C68.2056 102.152 68.7594 101.88 69.2731 101.581C69.785 101.275 70.2549 100.948 70.6827 100.602C71.1159 100.247 71.4927 99.8894 71.8129 99.5305L71.3638 97.6045Z" fill="black"/>
<path d="M55.566 107.56C54.4598 108.237 53.3271 108.8 52.1679 109.25C51.0175 109.705 49.818 110.078 48.5695 110.369C46.9734 110.741 45.5114 110.903 44.1835 110.853C42.861 110.795 41.6981 110.539 40.6947 110.085C39.6912 109.631 38.8561 108.984 38.1892 108.145C37.5223 107.305 37.0499 106.29 36.772 105.098C36.514 103.992 36.4984 102.914 36.7253 101.867C36.9577 100.81 37.4043 99.8385 38.065 98.9515C38.7313 98.0557 39.6041 97.2762 40.6836 96.6131C41.7615 95.943 43.0204 95.44 44.4605 95.1042C45.787 94.7949 47.0422 94.693 48.2261 94.7984C49.4155 94.895 50.4857 95.2027 51.4369 95.7214C52.3952 96.2384 53.2106 96.9608 53.8831 97.8885C54.5628 98.8145 55.0589 99.9479 55.3715 101.289L55.5998 102.268L41.1923 105.627C41.4275 106.058 41.7351 106.432 42.1153 106.747C42.5026 107.06 42.9795 107.293 43.546 107.445C44.1125 107.598 44.7784 107.663 45.5438 107.642C46.3163 107.618 47.2133 107.488 48.2348 107.25C48.9584 107.081 49.6579 106.873 50.3332 106.626C51.0069 106.371 51.6287 106.103 52.1986 105.821C52.7668 105.531 53.2715 105.241 53.7125 104.952C54.1606 104.66 54.513 104.391 54.7695 104.144L55.566 107.56ZM50.9985 100.289C50.8787 99.9353 50.6819 99.5885 50.4081 99.2485C50.1398 98.8997 49.7742 98.6147 49.3112 98.3935C48.8483 98.1724 48.278 98.0361 47.6003 97.9847C46.921 97.9262 46.1096 98.0069 45.1662 98.2269C44.2794 98.4337 43.5389 98.7223 42.9447 99.0927C42.3504 99.4631 41.8714 99.8628 41.5077 100.292C41.151 100.719 40.896 101.149 40.7424 101.581C40.5889 102.013 40.5139 102.397 40.5174 102.733L50.9985 100.289Z" fill="black"/>
<path d="M34.2844 101.359C34.1697 101.348 34.0029 101.338 33.784 101.33C33.5704 101.312 33.3223 101.306 33.0395 101.313C32.755 101.312 32.4447 101.328 32.1085 101.361C31.7793 101.393 31.4445 101.449 31.104 101.528C30.3946 101.694 29.752 101.937 29.1762 102.258C28.6058 102.571 28.0885 102.934 27.6243 103.349C27.1584 103.757 26.738 104.199 26.3629 104.676C25.9932 105.143 25.6615 105.613 25.3678 106.086L27.4196 114.886L23.4719 115.806L20.0629 101.186L24.0106 100.265L24.5639 102.638C24.9565 102.173 25.363 101.719 25.7835 101.277C26.2094 100.826 26.6622 100.41 27.1418 100.029C27.6284 99.646 28.1559 99.3098 28.7241 99.0203C29.2907 98.7236 29.911 98.4967 30.5849 98.3396C30.8402 98.28 31.1025 98.2339 31.3716 98.201C31.6461 98.1595 31.9116 98.1275 32.1682 98.105C32.4318 98.081 32.6786 98.0646 32.9084 98.0559C33.1382 98.0471 33.3397 98.045 33.5128 98.0496L34.2844 101.359Z" fill="black"/>
<path d="M19.5569 115.664C19.0958 115.996 18.6262 116.308 18.148 116.599C17.6699 116.89 17.1682 117.16 16.643 117.409C16.1195 117.666 15.5565 117.898 14.9543 118.106C14.3591 118.312 13.7103 118.497 13.0081 118.661C11.5184 119.008 10.1085 119.169 8.77845 119.142C7.45551 119.114 6.2656 118.887 5.20873 118.46C4.1573 118.025 3.2681 117.387 2.54114 116.546C1.81253 115.699 1.29853 114.633 0.999146 113.349C0.699762 112.066 0.690252 110.886 0.970615 109.811C1.24932 108.729 1.7647 107.763 2.51675 106.915C3.27424 106.058 4.24003 105.324 5.4141 104.713C6.59528 104.101 7.93071 103.622 9.42041 103.274C10.1227 103.111 10.7863 102.99 11.4113 102.911C12.0433 102.831 12.6509 102.79 13.234 102.789C13.8154 102.781 14.3849 102.801 14.9425 102.851C15.5 102.9 16.059 102.972 16.6193 103.066L17.448 106.62C16.9924 106.494 16.5163 106.377 16.0198 106.268C15.5216 106.153 14.9831 106.072 14.4043 106.028C13.8238 105.976 13.1984 105.972 12.528 106.017C11.856 106.054 11.1157 106.166 10.307 106.355C9.06557 106.644 8.06319 107.013 7.29985 107.46C6.54361 107.906 5.97037 108.398 5.58014 108.938C5.18991 109.478 4.95999 110.047 4.89038 110.647C4.81912 111.24 4.85213 111.83 4.98942 112.419C5.08039 112.809 5.2131 113.186 5.38754 113.549C5.56033 113.905 5.78574 114.23 6.06376 114.525C6.34013 114.812 6.671 115.06 7.05639 115.269C7.44177 115.479 7.89609 115.631 8.41934 115.726C8.9426 115.82 9.53396 115.855 10.1934 115.828C10.8583 115.793 11.6058 115.678 12.4358 115.485C13.2444 115.296 13.96 115.077 14.5824 114.827C15.2031 114.57 15.7632 114.294 16.2626 113.998C16.762 113.702 17.2104 113.395 17.6077 113.078C18.0033 112.754 18.3768 112.431 18.7283 112.11L19.5569 115.664Z" fill="black"/>
<path d="M200.157 22.7392C203.423 10.1807 216.252 2.64763 228.81 5.91365L390.692 48.0132C403.25 51.2792 410.783 64.1075 407.517 76.666C404.251 89.2246 391.423 96.7576 378.864 93.4916L216.983 51.3921C204.424 48.126 196.891 35.2977 200.157 22.7392Z" fill="#83F04F"/>
<path d="M334.121 101.065C333.599 103.073 330.862 103.351 329.947 101.49L315.856 72.8347C315.011 71.1164 316.574 69.1996 318.427 69.6816L338.606 74.9293C339.802 75.2404 340.519 76.4621 340.208 77.6581L334.121 101.065Z" fill="#83F04F"/>
<path d="M366.155 74.5795L370.406 58.2341L374.82 59.3819L371.5 72.1466L383.432 75.2496L382.501 78.8304L366.155 74.5795Z" fill="black"/>
<path d="M345.17 69.1222L349.421 52.7769L365.969 57.0803L365.062 60.5659L353.047 57.4412L352.345 60.1416L363.741 63.1054L362.835 66.591L351.438 63.6272L350.609 66.8154L362.791 69.9834L361.884 73.469L345.17 69.1222Z" fill="black"/>
<path d="M343.266 59.8889C342.994 60.9357 342.637 61.8377 342.194 62.5948C341.754 63.3439 341.245 63.9652 340.668 64.4586C340.099 64.9541 339.466 65.3357 338.77 65.6034C338.082 65.8732 337.348 66.0421 336.568 66.1103C335.788 66.1784 334.97 66.1647 334.115 66.0692C333.261 65.9657 332.386 65.7975 331.49 65.5644L321.116 62.8666L325.367 46.5212L335.717 49.2128C336.613 49.4459 337.458 49.7292 338.252 50.0626C339.048 50.3882 339.77 50.7706 340.418 51.21C341.073 51.6515 341.64 52.1587 342.117 52.7317C342.597 53.2967 342.964 53.9382 343.217 54.6561C343.481 55.3682 343.622 56.1586 343.642 57.0273C343.662 57.8961 343.536 58.8499 343.266 59.8889ZM338.817 58.7318C339.021 57.9466 339.096 57.2378 339.04 56.6052C338.992 55.9747 338.791 55.4143 338.436 54.924C338.091 54.4278 337.581 53.9947 336.907 53.6246C336.234 53.2465 335.379 52.9224 334.34 52.6522L328.856 51.226L326.455 60.4575L331.939 61.8837C332.978 62.1539 333.882 62.2916 334.651 62.2969C335.422 62.2942 336.08 62.1603 336.623 61.8951C337.176 61.6241 337.627 61.2249 337.976 60.6975C338.332 60.1722 338.613 59.5169 338.817 58.7318Z" fill="black"/>
<path d="M319.218 53.6602C318.853 55.064 318.272 56.2381 317.476 57.1827C316.682 58.1193 315.712 58.8236 314.565 59.2958C313.417 59.7679 312.109 60.0119 310.64 60.0279C309.181 60.0379 307.599 59.8212 305.894 59.3778C304.189 58.9344 302.694 58.3508 301.409 57.6271C300.134 56.8975 299.106 56.0461 298.326 55.0728C297.546 54.0994 297.034 53.0094 296.789 51.8026C296.546 50.5879 296.607 49.2786 296.972 47.8749C297.337 46.4711 297.921 45.302 298.723 44.3675C299.526 43.425 300.506 42.7187 301.661 42.2486C302.817 41.7786 304.128 41.5395 305.595 41.5315C307.071 41.5177 308.662 41.7324 310.368 42.1759C312.073 42.6193 313.559 43.2048 314.826 43.9323C316.103 44.6539 317.128 45.5004 317.9 46.4717C318.672 47.4429 319.175 48.5349 319.41 49.7475C319.647 50.9523 319.583 52.2565 319.218 53.6602ZM314.757 52.5001C314.916 51.8894 314.974 51.2569 314.933 50.6026C314.901 49.9424 314.699 49.3055 314.325 48.6918C313.959 48.0801 313.387 47.5122 312.609 46.9881C311.831 46.464 310.779 46.0297 309.455 45.6853C308.567 45.4543 307.767 45.3225 307.056 45.2899C306.346 45.2494 305.714 45.2882 305.158 45.4062C304.603 45.5241 304.115 45.7064 303.695 45.9528C303.278 46.1914 302.92 46.4752 302.623 46.8043C302.328 47.1255 302.083 47.4809 301.888 47.8707C301.704 48.2545 301.56 48.6447 301.457 49.0412C301.352 49.4457 301.285 49.8645 301.257 50.2975C301.237 50.7326 301.277 51.1662 301.376 51.5985C301.478 52.0228 301.652 52.4408 301.901 52.8526C302.15 53.2644 302.488 53.6572 302.915 54.0309C303.345 54.3967 303.879 54.7386 304.516 55.0567C305.155 55.3668 305.918 55.6374 306.807 55.8684C308.131 56.2129 309.261 56.3458 310.196 56.2672C311.131 56.1885 311.907 55.9713 312.524 55.6154C313.15 55.2615 313.636 54.808 313.983 54.2547C314.34 53.6956 314.598 53.1107 314.757 52.5001Z" fill="black"/>
<path d="M286.438 53.8484L289.424 42.3685L280.371 52.2705L276.136 51.1692L273.055 38.1115L270.069 49.5913L265.656 48.4435L269.907 32.0981L275.902 33.6574L279.287 47.7465L289.107 37.0915L295.079 38.6446L290.828 54.99L286.438 53.8484Z" fill="black"/>
<path d="M246.955 43.58L251.206 27.2346L255.62 28.3824L251.369 44.7278L246.955 43.58Z" fill="black"/>
<path d="M238.624 38.111L229.511 35.7411L227.172 38.4351L222.247 37.1542L235.051 23.0333L239.976 24.3141L244.279 42.8839L239.354 41.6031L238.624 38.111ZM231.922 32.9644L237.894 34.5175L236.486 27.7246L231.922 32.9644Z" fill="black"/>
<path d="M226.241 97.4605C230.284 119.806 215.446 141.198 193.101 145.241C170.755 149.284 149.363 134.446 145.32 112.101C141.277 89.7551 156.115 68.363 178.46 64.3202C200.806 60.2774 222.198 75.1148 226.241 97.4605Z" fill="#8550F6"/>
<path d="M222.388 98.1577C226.045 118.375 212.621 137.73 192.404 141.388C172.186 145.046 152.831 131.621 149.173 111.404C145.516 91.1862 158.94 71.8314 179.158 68.1736C199.375 64.5159 218.73 77.9402 222.388 98.1577Z" fill="#8550F6"/>
<path fill-rule="evenodd" clip-rule="evenodd" d="M222.817 101.26L220.59 101.475C220.496 100.506 220.362 99.5322 220.186 98.5561C220.009 97.58 219.794 96.6212 219.541 95.681L221.703 95.1013C221.971 96.1013 222.2 97.1205 222.388 98.1577C222.575 99.1949 222.718 100.23 222.817 101.26ZM221.106 93.102L218.981 93.8017C218.359 91.9148 217.587 90.1093 216.679 88.3963L218.656 87.3485C219.623 89.1722 220.445 91.0941 221.106 93.102ZM217.627 85.5326L215.712 86.6904C214.691 85.0014 213.533 83.4128 212.258 81.9369L213.95 80.4735C215.308 82.0439 216.54 83.7346 217.627 85.5326ZM212.542 78.9338L210.934 80.4898C209.566 79.0767 208.084 77.783 206.505 76.6215L207.832 74.8191C209.511 76.0544 211.087 77.4304 212.542 78.9338ZM206.117 73.6297L204.893 75.5032C203.252 74.4315 201.521 73.4966 199.719 72.7111L200.613 70.6597C202.53 71.4954 204.371 72.4899 206.117 73.6297ZM198.677 69.88C196.73 69.1586 194.715 68.5972 192.65 68.2089L192.237 70.4081C194.177 70.7728 196.07 71.3003 197.899 71.9782L198.677 69.88ZM190.589 67.8813L190.3 70.1003C188.378 69.8503 186.416 69.7591 184.431 69.8384L184.342 67.6025C186.454 67.5181 188.542 67.6151 190.589 67.8813ZM182.26 67.7442L182.474 69.9716C181.505 70.0648 180.532 70.199 179.556 70.3756C178.58 70.5522 177.621 70.7675 176.681 71.0198L176.101 68.8585C177.101 68.5902 178.12 68.3613 179.158 68.1736C180.195 67.986 181.23 67.8433 182.26 67.7442ZM174.102 69.4552L174.802 71.5806C172.915 72.2018 171.109 72.9746 169.396 73.8823L168.348 71.9051C170.172 70.9387 172.094 70.1162 174.102 69.4552ZM166.532 72.9342L167.69 74.8491C166.001 75.8704 164.413 77.0278 162.937 78.3037L161.473 76.6109C163.044 75.2533 164.734 74.0214 166.532 72.9342ZM159.934 78.0194L161.49 79.6275C160.076 80.9948 158.783 82.477 157.621 84.0557L155.819 82.7296C157.054 81.0506 158.43 79.474 159.934 78.0194ZM154.63 84.4445L156.503 85.668C155.431 87.309 154.496 89.04 153.711 90.8426L151.66 89.9487C152.495 88.031 153.49 86.1897 154.63 84.4445ZM150.88 91.8843L152.978 92.6618C152.3 94.4912 151.773 96.3846 151.408 98.3244L149.209 97.9109C149.597 95.8459 150.158 93.8308 150.88 91.8843ZM148.881 99.9723L151.1 100.261C150.85 102.183 150.759 104.145 150.838 106.13L148.602 106.219C148.518 104.107 148.615 102.019 148.881 99.9723ZM148.744 108.301C148.843 109.332 148.986 110.367 149.173 111.404C149.361 112.441 149.59 113.46 149.858 114.46L152.02 113.88C151.767 112.94 151.552 111.981 151.375 111.005C151.199 110.029 151.065 109.056 150.971 108.087L148.744 108.301ZM150.455 116.459L152.58 115.76C153.202 117.647 153.974 119.452 154.882 121.165L152.905 122.213C151.939 120.389 151.116 118.467 150.455 116.459ZM153.934 124.029L155.849 122.871C156.87 124.56 158.028 126.149 159.304 127.624L157.611 129.088C156.253 127.518 155.021 125.827 153.934 124.029ZM159.019 130.628L160.627 129.072C161.995 130.485 163.477 131.778 165.056 132.94L163.729 134.742C162.05 133.507 160.474 132.131 159.019 130.628ZM165.444 135.932L166.668 134.058C168.309 135.13 170.04 136.065 171.842 136.85L170.949 138.902C169.031 138.066 167.19 137.071 165.444 135.932ZM172.884 139.681L173.662 137.583C175.491 138.261 177.384 138.789 179.324 139.153L178.911 141.352C176.846 140.964 174.831 140.403 172.884 139.681ZM180.972 141.68L181.261 139.461C183.183 139.711 185.145 139.802 187.13 139.723L187.219 141.959C185.107 142.043 183.019 141.946 180.972 141.68ZM189.301 141.817L189.087 139.59C190.056 139.497 191.029 139.362 192.005 139.186C192.981 139.009 193.94 138.794 194.88 138.542L195.46 140.703C194.46 140.971 193.441 141.2 192.404 141.388C191.366 141.575 190.331 141.718 189.301 141.817ZM197.459 140.106L196.759 137.981C198.646 137.36 200.452 136.587 202.165 135.679L203.213 137.656C201.389 138.623 199.467 139.445 197.459 140.106ZM205.029 136.627L203.871 134.712C205.56 133.691 207.148 132.534 208.624 131.258L210.088 132.95C208.517 134.308 206.827 135.54 205.029 136.627ZM211.627 131.542L210.071 129.934C211.485 128.567 212.778 127.084 213.94 125.506L215.742 126.832C214.507 128.511 213.131 130.087 211.627 131.542ZM216.932 125.117L215.058 123.893C216.13 122.252 217.065 120.521 217.85 118.719L219.902 119.613C219.066 121.53 218.071 123.372 216.932 125.117ZM220.681 117.677C221.403 115.731 221.964 113.715 222.352 111.651L220.153 111.237C219.788 113.177 219.261 115.07 218.583 116.9L220.681 117.677ZM222.68 109.589L220.461 109.301C220.711 107.378 220.802 105.416 220.723 103.431L222.959 103.342C223.043 105.454 222.946 107.542 222.68 109.589Z" fill="black"/>
<path d="M204.799 119.816L204.503 118.183C203.988 118.601 203.421 118.991 202.804 119.353C202.194 119.713 201.55 120.042 200.871 120.339C200.192 120.637 199.481 120.895 198.737 121.112C198.004 121.337 197.254 121.518 196.488 121.657C195.592 121.819 194.71 121.891 193.841 121.873C192.98 121.854 192.192 121.714 191.479 121.451C190.765 121.189 190.155 120.787 189.649 120.246C189.151 119.703 188.822 118.988 188.662 118.101C188.459 116.98 188.597 115.994 189.075 115.141C189.553 114.28 190.377 113.498 191.549 112.795C192.721 112.091 194.243 111.437 196.115 110.832C197.996 110.225 200.238 109.611 202.84 108.991L202.777 108.64C202.727 108.366 202.606 108.109 202.412 107.869C202.217 107.621 201.908 107.431 201.485 107.3C201.068 107.158 200.513 107.084 199.82 107.076C199.136 107.067 198.278 107.155 197.245 107.342C196.431 107.489 195.633 107.68 194.85 107.913C194.075 108.136 193.329 108.388 192.613 108.667C191.906 108.945 191.239 109.241 190.613 109.554C189.987 109.867 189.422 110.177 188.92 110.485L188.198 106.493C188.736 106.246 189.344 105.99 190.02 105.726C190.697 105.462 191.406 105.213 192.146 104.979C192.885 104.737 193.637 104.518 194.401 104.322C195.163 104.117 195.899 103.951 196.609 103.822C198.004 103.57 199.311 103.454 200.531 103.475C201.749 103.488 202.825 103.659 203.759 103.99C204.701 104.319 205.478 104.812 206.087 105.467C206.706 106.122 207.107 106.961 207.292 107.985L209.286 119.004L204.799 119.816ZM203.427 112.232C201.713 112.609 200.262 112.967 199.074 113.307C197.894 113.645 196.92 113.967 196.151 114.273C195.382 114.579 194.784 114.866 194.358 115.134C193.94 115.402 193.636 115.652 193.445 115.887C193.254 116.121 193.148 116.34 193.127 116.544C193.113 116.746 193.121 116.928 193.15 117.089C193.185 117.283 193.272 117.463 193.41 117.629C193.547 117.788 193.757 117.912 194.04 118.003C194.331 118.091 194.701 118.137 195.152 118.139C195.602 118.141 196.157 118.082 196.818 117.962C197.552 117.829 198.26 117.643 198.941 117.403C199.622 117.163 200.259 116.89 200.853 116.583C201.446 116.267 201.992 115.927 202.492 115.561C202.999 115.187 203.443 114.807 203.823 114.421L203.427 112.232Z" fill="black"/>
<path d="M169.371 126.226L166.364 109.606L183.189 106.562L183.83 110.106L171.613 112.317L172.11 115.062L183.698 112.966L184.339 116.51L172.751 118.606L173.338 121.848L185.724 119.607L186.365 123.151L169.371 126.226Z" fill="black"/>
<path d="M199.382 89.462C199.574 90.5264 199.629 91.495 199.545 92.3679C199.46 93.2327 199.259 94.0102 198.943 94.7004C198.635 95.3891 198.221 96.0011 197.701 96.5364C197.19 97.0703 196.595 97.5319 195.916 97.9212C195.237 98.3106 194.489 98.6416 193.672 98.9143C192.854 99.1789 191.989 99.3936 191.078 99.5585L180.531 101.467L177.524 84.8474L188.047 82.9436C188.958 82.7787 189.844 82.6809 190.704 82.6501C191.563 82.6113 192.379 82.6552 193.152 82.782C193.932 82.9073 194.659 83.1296 195.333 83.449C196.006 83.7604 196.608 84.1886 197.14 84.7336C197.678 85.2691 198.138 85.927 198.521 86.7072C198.904 87.4874 199.191 88.4056 199.382 89.462ZM194.858 90.2804C194.714 89.4821 194.483 88.8076 194.167 88.2569C193.859 87.7047 193.441 87.2807 192.913 86.9849C192.391 86.6795 191.747 86.5005 190.979 86.4478C190.21 86.387 189.298 86.4522 188.242 86.6433L182.666 87.6521L184.364 97.0383L189.94 96.0294C190.996 95.8383 191.874 95.5836 192.575 95.2654C193.273 94.9391 193.814 94.5416 194.195 94.0729C194.583 93.5946 194.825 93.0429 194.92 92.4178C195.023 91.7912 195.002 91.0787 194.858 90.2804Z" fill="black"/>
<path d="M170.83 103.222L167.823 86.6025L172.31 85.7907L175.317 102.41L170.83 103.222Z" fill="black"/>
<path d="M268.394 280.849C271.341 278.344 275.896 279.96 276.605 283.763L291.083 361.463C291.793 365.276 288.105 368.427 284.449 367.13L209.752 340.621C206.096 339.324 205.219 334.553 208.175 332.04L268.394 280.849Z" fill="#FF974C"/>
<path d="M270.558 283.161C271.541 282.323 273.063 282.863 273.298 284.133L287.724 362.266C287.959 363.536 286.73 364.584 285.513 364.152L210.635 337.579C209.417 337.147 209.124 335.559 210.107 334.721L270.558 283.161Z" fill="#FF974C"/>
<path fill-rule="evenodd" clip-rule="evenodd" d="M286.624 362.469L272.198 284.336C272.12 283.913 271.612 283.733 271.285 284.012L210.833 335.572C210.505 335.852 210.603 336.381 211.009 336.525L285.887 363.098C286.293 363.242 286.702 362.892 286.624 362.469ZM273.298 284.133C273.063 282.863 271.541 282.323 270.558 283.161L210.107 334.721C209.124 335.559 209.417 337.147 210.635 337.579L285.513 364.152C286.73 364.584 287.959 363.536 287.724 362.266L273.298 284.133Z" fill="black"/>
<path d="M275.023 343.559C274.846 343.378 274.605 343.16 274.3 342.903C273.996 342.647 273.642 342.382 273.238 342.109C272.836 341.83 272.387 341.56 271.893 341.298C271.401 341.03 270.88 340.799 270.331 340.604C269.891 340.448 269.51 340.328 269.187 340.245C268.87 340.163 268.597 340.106 268.367 340.074C268.143 340.044 267.957 340.037 267.809 340.052C267.668 340.064 267.555 340.089 267.467 340.126C267.38 340.163 267.315 340.208 267.271 340.26C267.233 340.315 267.206 340.367 267.188 340.416C267.13 340.581 267.16 340.756 267.28 340.941C267.402 341.12 267.588 341.31 267.839 341.51C268.091 341.704 268.391 341.913 268.739 342.135C269.089 342.352 269.458 342.582 269.848 342.826C270.245 343.066 270.65 343.32 271.061 343.59C271.48 343.856 271.875 344.136 272.247 344.428C272.625 344.723 272.969 345.034 273.28 345.361C273.593 345.682 273.847 346.019 274.043 346.373C274.239 346.727 274.361 347.098 274.408 347.486C274.456 347.874 274.405 348.28 274.255 348.703C274.062 349.246 273.8 349.679 273.47 350.001C273.139 350.322 272.764 350.56 272.345 350.714C271.931 350.87 271.483 350.956 271.002 350.97C270.522 350.98 270.034 350.945 269.536 350.868C269.043 350.792 268.553 350.683 268.066 350.541C267.584 350.401 267.128 350.254 266.7 350.102C265.58 349.705 264.575 349.243 263.686 348.717C262.8 348.199 262.041 347.673 261.408 347.139L262.366 344.437C262.971 345.122 263.711 345.752 264.589 346.33C265.471 346.909 266.462 347.393 267.56 347.783C268.208 348.013 268.747 348.167 269.177 348.245C269.614 348.32 269.967 348.346 270.234 348.324C270.504 348.296 270.702 348.233 270.83 348.136C270.957 348.039 271.041 347.933 271.082 347.818C271.146 347.636 271.119 347.451 271.001 347.26C270.885 347.065 270.702 346.867 270.452 346.666C270.203 346.461 269.904 346.249 269.554 346.033C269.206 345.81 268.833 345.582 268.434 345.348C268.042 345.11 267.639 344.861 267.223 344.603C266.808 344.344 266.41 344.073 266.028 343.789C265.654 343.502 265.309 343.203 264.992 342.893C264.678 342.577 264.42 342.248 264.221 341.905C264.023 341.556 263.898 341.193 263.846 340.816C263.796 340.434 263.847 340.031 263.997 339.608C264.174 339.109 264.415 338.709 264.719 338.409C265.024 338.109 265.369 337.885 265.755 337.737C266.149 337.586 266.569 337.501 267.015 337.48C267.467 337.461 267.926 337.484 268.391 337.55C268.856 337.617 269.316 337.712 269.773 337.837C270.229 337.962 270.658 338.095 271.059 338.238C271.498 338.394 271.941 338.575 272.387 338.783C272.838 338.993 273.274 339.219 273.695 339.461C274.118 339.697 274.52 339.942 274.9 340.194C275.286 340.449 275.637 340.697 275.953 340.939L275.023 343.559Z" fill="black"/>
<path d="M255.16 345.664L257.411 339.321C257.561 338.898 257.661 338.504 257.711 338.138C257.762 337.767 257.732 337.425 257.62 337.113C257.515 336.798 257.311 336.512 257.006 336.255C256.709 335.995 256.286 335.768 255.736 335.573C255.319 335.425 254.859 335.327 254.357 335.278C253.862 335.226 253.357 335.214 252.84 335.241C252.323 335.268 251.815 335.332 251.316 335.433C250.822 335.535 250.368 335.665 249.954 335.821L247.434 342.922L244.377 341.837L248.394 330.519L251.45 331.603L250.901 333.152C251.363 333.069 251.849 332.997 252.359 332.937C252.871 332.871 253.402 332.837 253.953 332.835C254.505 332.833 255.074 332.874 255.662 332.959C256.25 333.044 256.849 333.195 257.459 333.411C258.222 333.682 258.87 334.017 259.402 334.416C259.942 334.812 260.36 335.254 260.657 335.742C260.955 336.226 261.129 336.748 261.177 337.309C261.233 337.867 261.155 338.442 260.945 339.035L258.208 346.746L255.16 345.664Z" fill="black"/>
<path d="M240.869 339.962C239.832 339.94 238.826 339.83 237.851 339.633C236.88 339.442 235.911 339.176 234.944 338.833C233.709 338.394 232.654 337.872 231.781 337.265C230.916 336.655 230.243 335.98 229.763 335.241C229.284 334.502 229.001 333.706 228.914 332.853C228.827 332 228.947 331.112 229.275 330.189C229.579 329.332 230.033 328.6 230.639 327.993C231.251 327.382 231.971 326.92 232.8 326.608C233.635 326.292 234.559 326.144 235.573 326.164C236.588 326.178 237.653 326.382 238.768 326.778C239.795 327.142 240.684 327.616 241.436 328.198C242.195 328.777 242.783 329.446 243.2 330.206C243.622 330.968 243.859 331.806 243.912 332.722C243.97 333.639 243.814 334.616 243.446 335.654L243.177 336.412L232.023 332.454C231.996 332.846 232.042 333.23 232.161 333.607C232.287 333.985 232.508 334.348 232.823 334.695C233.139 335.042 233.56 335.373 234.084 335.689C234.614 336.007 235.275 336.307 236.066 336.587C236.626 336.786 237.187 336.948 237.748 337.073C238.312 337.193 238.847 337.281 239.352 337.336C239.86 337.387 240.325 337.409 240.747 337.405C241.175 337.402 241.528 337.373 241.808 337.317L240.869 339.962ZM240.933 333.093C241.004 332.803 241.022 332.484 240.984 332.137C240.954 331.786 240.831 331.437 240.615 331.088C240.398 330.739 240.073 330.401 239.639 330.074C239.207 329.741 238.625 329.445 237.895 329.186C237.208 328.942 236.585 328.817 236.025 328.81C235.465 328.803 234.97 328.865 234.539 328.997C234.115 329.13 233.757 329.31 233.467 329.535C233.177 329.759 232.961 329.986 232.819 330.213L240.933 333.093Z" fill="black"/>
<path d="M268.472 333.767C268.635 333.133 268.678 332.542 268.6 331.995C268.524 331.442 268.361 330.933 268.112 330.468C267.869 330.004 267.555 329.58 267.172 329.197C266.794 328.816 266.386 328.476 265.948 328.178C265.511 327.875 265.06 327.613 264.594 327.392C264.136 327.167 263.701 326.982 263.289 326.836L262.383 326.514L260.778 331.037L257.722 329.952L261.738 318.634L264.795 319.718L263.245 324.084L263.871 324.306C264.294 324.457 264.748 324.58 265.233 324.678C265.717 324.776 266.21 324.833 266.711 324.851C267.218 324.869 267.719 324.84 268.217 324.763C268.714 324.686 269.185 324.544 269.629 324.337C270.074 324.13 270.481 323.854 270.851 323.509C271.222 323.159 271.532 322.722 271.78 322.197L274.894 323.302C274.626 323.881 274.314 324.38 273.955 324.797C273.603 325.216 273.221 325.568 272.81 325.855C272.406 326.139 271.986 326.364 271.55 326.531C271.114 326.697 270.683 326.823 270.257 326.907C269.834 326.985 269.422 327.031 269.022 327.043C268.629 327.052 268.269 327.039 267.941 327.003C268.304 327.2 268.668 327.437 269.033 327.715C269.406 327.99 269.757 328.306 270.088 328.664C270.42 329.017 270.716 329.413 270.975 329.851C271.239 330.291 271.446 330.77 271.597 331.287C271.747 331.804 271.827 332.361 271.838 332.958C271.849 333.556 271.765 334.194 271.586 334.872L268.472 333.767Z" fill="black"/>
<path d="M256.943 323.313C256.598 324.285 256.115 325.081 255.493 325.701C254.873 326.316 254.142 326.755 253.3 327.019C252.458 327.283 251.516 327.376 250.474 327.297C249.44 327.214 248.333 326.963 247.152 326.544C245.971 326.125 244.948 325.62 244.082 325.028C243.224 324.433 242.548 323.766 242.055 323.029C241.563 322.291 241.267 321.488 241.167 320.618C241.07 319.742 241.194 318.818 241.539 317.846C241.884 316.874 242.369 316.082 242.995 315.469C243.622 314.851 244.359 314.411 245.207 314.149C246.054 313.887 246.998 313.798 248.037 313.883C249.085 313.964 250.198 314.214 251.379 314.633C252.56 315.052 253.577 315.558 254.43 316.151C255.29 316.741 255.964 317.404 256.451 318.139C256.938 318.875 257.228 319.679 257.32 320.553C257.414 321.421 257.288 322.341 256.943 323.313ZM253.854 322.217C254.004 321.794 254.084 321.349 254.095 320.883C254.114 320.414 254.009 319.95 253.782 319.492C253.56 319.036 253.19 318.599 252.671 318.18C252.152 317.761 251.434 317.388 250.517 317.063C249.902 316.845 249.343 316.702 248.841 316.635C248.341 316.563 247.891 316.551 247.49 316.601C247.089 316.65 246.733 316.749 246.42 316.898C246.109 317.041 245.839 317.221 245.608 317.435C245.379 317.645 245.184 317.882 245.022 318.146C244.868 318.406 244.742 318.674 244.644 318.948C244.545 319.229 244.472 319.521 244.426 319.826C244.385 320.133 244.386 320.443 244.43 320.755C244.476 321.062 244.574 321.369 244.724 321.676C244.875 321.983 245.091 322.282 245.371 322.573C245.653 322.859 246.01 323.134 246.441 323.398C246.875 323.657 247.399 323.896 248.014 324.114C248.932 324.44 249.724 324.603 250.391 324.605C251.058 324.607 251.621 324.501 252.081 324.287C252.545 324.074 252.918 323.783 253.198 323.412C253.485 323.038 253.704 322.64 253.854 322.217Z" fill="black"/>
<path d="M265.387 306.081L262.244 314.936L259.188 313.852L262.331 304.996L257.528 303.292L258.402 300.829L271.072 305.325L270.197 307.788L265.387 306.081Z" fill="black"/>
<path d="M372.186 122.904C373.11 121.775 374.935 122.282 375.145 123.726L378.983 150.132C379.088 150.856 379.65 151.428 380.372 151.547L406.703 155.867C408.143 156.103 408.616 157.937 407.471 158.841L386.522 175.368C385.948 175.821 385.733 176.594 385.991 177.278L395.415 202.242C395.931 203.607 394.579 204.934 393.224 204.394L368.437 194.515C367.757 194.244 366.98 194.444 366.517 195.01L349.61 215.654C348.685 216.782 346.86 216.275 346.65 214.832L342.812 188.426C342.707 187.702 342.145 187.129 341.423 187.011L315.092 182.691C313.652 182.454 313.179 180.62 314.324 179.717L335.273 163.19C335.848 162.737 336.062 161.964 335.804 161.28L326.38 136.316C325.865 134.951 327.216 133.624 328.571 134.164L353.359 144.043C354.038 144.314 354.815 144.113 355.278 143.548L372.186 122.904Z" fill="#FF6363"/>
<path fill-rule="evenodd" clip-rule="evenodd" d="M371.488 131.155L357.926 150.148C357.139 151.251 355.674 151.63 354.45 151.049L333.572 141.131L343.02 162.47C343.56 163.691 343.162 165.124 342.069 165.892L322.969 179.3L345.971 181.572C347.32 181.705 348.379 182.786 348.485 184.137L350.308 207.403L363.869 188.41C364.657 187.307 366.121 186.928 367.346 187.509L388.224 197.426L378.776 176.088C378.235 174.867 378.633 173.434 379.726 172.666L398.826 159.258L375.824 156.986C374.475 156.853 373.416 155.772 373.31 154.421L371.488 131.155ZM373.041 129.492C372.959 128.45 371.622 128.079 371.015 128.929L356.561 149.172C356.246 149.614 355.66 149.765 355.17 149.533L332.93 138.969C331.992 138.523 331.007 139.483 331.427 140.432L341.485 163.149C341.701 163.638 341.542 164.211 341.105 164.518L320.771 178.793C319.922 179.389 320.271 180.72 321.304 180.822L345.806 183.242C346.346 183.295 346.77 183.728 346.812 184.268L348.755 209.066C348.836 210.108 350.174 210.479 350.781 209.629L365.235 189.386C365.55 188.944 366.136 188.792 366.625 189.025L388.866 199.589C389.803 200.035 390.789 199.075 390.369 198.126L380.31 175.408C380.094 174.92 380.253 174.347 380.691 174.04L401.025 159.765C401.874 159.168 401.524 157.838 400.492 157.736L375.989 155.316C375.45 155.263 375.026 154.83 374.984 154.29L373.041 129.492Z" fill="black"/>
<path d="M367.084 180.577L372.107 162.496L376.989 163.852L371.966 181.934L367.084 180.577Z" fill="black"/>
<path d="M359.276 174.723L349.196 171.923L346.548 174.873L341.1 173.359L355.584 157.907L361.032 159.42L365.471 180.129L360.023 178.616L359.276 174.723ZM351.925 168.882L358.531 170.717L357.091 163.145L351.925 168.882Z" fill="black"/>
<path d="M74.8797 316.115C73.8416 307.215 80.2144 299.159 89.1139 298.121L236.917 280.88C245.817 279.842 253.873 286.215 254.911 295.114C255.949 304.013 249.576 312.069 240.676 313.108L92.8733 330.349C83.9738 331.387 75.9178 325.014 74.8797 316.115Z" fill="#2B8BFC"/>
<path d="M110.418 340.737C110.535 341.735 111.804 342.086 112.416 341.29L127.217 322.06C127.82 321.275 127.183 320.151 126.2 320.266L109.386 322.227C108.772 322.299 108.332 322.854 108.404 323.468L110.418 340.737Z" fill="#2B8BFC"/>
<path d="M235.568 296.165C235.637 296.761 235.614 297.321 235.499 297.845C235.384 298.363 235.153 298.827 234.808 299.237C234.468 299.64 234.003 299.979 233.413 300.253C232.823 300.527 232.088 300.715 231.209 300.818L225.86 301.442L226.3 305.21L223.079 305.586L221.687 293.656L230.257 292.657C231.136 292.554 231.895 292.568 232.532 292.699C233.169 292.825 233.699 293.047 234.124 293.367C234.553 293.681 234.884 294.077 235.116 294.554C235.347 295.032 235.498 295.569 235.568 296.165ZM232.318 296.597C232.285 296.319 232.217 296.086 232.113 295.899C232.014 295.705 231.868 295.555 231.673 295.448C231.479 295.342 231.234 295.277 230.938 295.253C230.641 295.223 230.281 295.232 229.859 295.282L225.205 295.825L225.564 298.898L230.217 298.355C230.64 298.306 230.993 298.241 231.277 298.161C231.56 298.075 231.785 297.964 231.951 297.827C232.116 297.685 232.225 297.514 232.278 297.314C232.337 297.114 232.35 296.874 232.318 296.597Z" fill="black"/>
<path d="M216.116 306.398L214.725 294.469L217.946 294.093L219.337 306.022L216.116 306.398Z" fill="black"/>
<path d="M209.162 307.209L208.581 302.234L200.386 303.19L200.966 308.165L197.745 308.541L196.353 296.612L199.574 296.236L200.081 300.577L208.277 299.621L207.77 295.28L210.991 294.904L212.383 306.833L209.162 307.209Z" fill="black"/>
<path d="M192.699 300.444C192.461 300.36 192.148 300.27 191.761 300.175C191.375 300.079 190.94 299.998 190.457 299.931C189.973 299.858 189.452 299.813 188.892 299.797C188.333 299.774 187.763 299.796 187.184 299.864C186.721 299.918 186.326 299.979 186 300.046C185.679 300.113 185.409 300.182 185.188 300.255C184.974 300.327 184.804 300.403 184.678 300.482C184.557 300.554 184.466 300.627 184.404 300.699C184.342 300.77 184.303 300.839 184.287 300.906C184.277 300.971 184.276 301.03 184.282 301.082C184.302 301.256 184.407 301.399 184.596 301.512C184.784 301.619 185.035 301.707 185.348 301.776C185.661 301.84 186.022 301.894 186.432 301.94C186.842 301.981 187.275 302.024 187.732 302.07C188.194 302.11 188.67 302.16 189.158 302.221C189.651 302.275 190.129 302.351 190.592 302.449C191.061 302.547 191.507 302.674 191.93 302.83C192.353 302.98 192.73 303.171 193.062 303.402C193.394 303.633 193.667 303.912 193.881 304.239C194.095 304.567 194.228 304.953 194.28 305.399C194.347 305.972 194.303 306.475 194.149 306.91C193.994 307.345 193.763 307.724 193.454 308.047C193.152 308.37 192.788 308.644 192.362 308.87C191.936 309.089 191.482 309.274 191.001 309.424C190.526 309.574 190.038 309.692 189.538 309.78C189.043 309.867 188.571 309.937 188.119 309.989C186.938 310.127 185.833 310.156 184.803 310.077C183.779 310.003 182.866 309.866 182.062 309.666L181.73 306.819C182.574 307.166 183.517 307.405 184.559 307.536C185.607 307.666 186.71 307.663 187.867 307.528C188.55 307.449 189.102 307.349 189.522 307.23C189.947 307.104 190.275 306.972 190.505 306.833C190.735 306.689 190.885 306.546 190.957 306.402C191.028 306.259 191.057 306.127 191.042 306.005C191.02 305.814 190.914 305.659 190.724 305.541C190.534 305.416 190.282 305.319 189.969 305.25C189.655 305.175 189.293 305.118 188.884 305.078C188.474 305.032 188.038 304.992 187.576 304.957C187.12 304.917 186.648 304.872 186.161 304.823C185.674 304.774 185.197 304.707 184.73 304.621C184.267 304.528 183.825 304.412 183.404 304.274C182.983 304.129 182.606 303.947 182.276 303.728C181.944 303.502 181.672 303.232 181.459 302.916C181.246 302.595 181.113 302.212 181.061 301.766C181 301.239 181.039 300.774 181.18 300.371C181.321 299.967 181.532 299.614 181.813 299.311C182.1 299.002 182.439 298.739 182.83 298.524C183.227 298.307 183.649 298.126 184.096 297.98C184.542 297.834 184.998 297.716 185.463 297.627C185.927 297.538 186.371 297.468 186.794 297.419C187.257 297.365 187.734 297.333 188.225 297.322C188.723 297.311 189.214 297.321 189.699 297.353C190.183 297.379 190.651 297.421 191.104 297.479C191.562 297.537 191.987 297.605 192.377 297.683L192.699 300.444Z" fill="black"/>
<path d="M179.582 301.305C179.492 301.286 179.36 301.264 179.187 301.237C179.019 301.204 178.822 301.177 178.597 301.156C178.37 301.13 178.122 301.115 177.852 301.111C177.588 301.107 177.316 301.121 177.039 301.153C176.46 301.221 175.927 301.356 175.44 301.559C174.959 301.756 174.515 301.999 174.108 302.287C173.701 302.569 173.327 302.883 172.986 303.227C172.65 303.566 172.344 303.91 172.068 304.259L172.905 311.439L169.684 311.814L168.293 299.885L171.514 299.509L171.74 301.446C172.094 301.111 172.458 300.787 172.832 300.473C173.211 300.153 173.609 299.864 174.024 299.604C174.446 299.343 174.895 299.124 175.373 298.945C175.85 298.76 176.364 298.636 176.913 298.572C177.122 298.547 177.334 298.534 177.551 298.532C177.773 298.524 177.987 298.523 178.193 298.528C178.405 298.533 178.602 298.542 178.786 298.556C178.969 298.569 179.13 298.586 179.267 298.605L179.582 301.305Z" fill="black"/>
<path d="M165.709 311.68C164.768 312.118 163.817 312.463 162.855 312.716C161.9 312.975 160.912 313.163 159.894 313.282C158.591 313.434 157.415 313.43 156.364 313.271C155.318 313.106 154.416 312.797 153.66 312.346C152.903 311.894 152.297 311.305 151.843 310.578C151.388 309.85 151.105 309.001 150.991 308.028C150.886 307.125 150.971 306.268 151.245 305.455C151.525 304.636 151.968 303.904 152.573 303.259C153.184 302.607 153.948 302.066 154.866 301.636C155.783 301.201 156.829 300.914 158.004 300.777C159.086 300.651 160.093 300.683 161.025 300.874C161.961 301.058 162.784 301.399 163.494 301.897C164.209 302.394 164.792 303.042 165.243 303.84C165.7 304.637 165.992 305.583 166.119 306.677L166.213 307.476L154.457 308.847C154.605 309.211 154.816 309.536 155.09 309.821C155.369 310.105 155.728 310.333 156.164 310.505C156.601 310.677 157.124 310.789 157.735 310.841C158.351 310.892 159.075 310.869 159.909 310.772C160.499 310.703 161.074 310.601 161.633 310.465C162.192 310.324 162.71 310.167 163.189 309.993C163.666 309.815 164.094 309.63 164.47 309.439C164.853 309.248 165.157 309.066 165.383 308.893L165.709 311.68ZM162.733 305.488C162.67 305.196 162.545 304.903 162.358 304.608C162.176 304.306 161.911 304.047 161.563 303.829C161.215 303.612 160.774 303.452 160.24 303.35C159.705 303.242 159.053 303.233 158.283 303.323C157.56 303.408 156.945 303.57 156.439 303.811C155.934 304.052 155.517 304.326 155.189 304.634C154.867 304.942 154.625 305.26 154.464 305.59C154.303 305.92 154.209 306.218 154.182 306.486L162.733 305.488Z" fill="black"/>
<path d="M145.574 314.627L144.795 307.941C144.743 307.496 144.658 307.098 144.541 306.748C144.423 306.392 144.245 306.099 144.007 305.868C143.774 305.632 143.464 305.465 143.078 305.37C142.696 305.267 142.216 305.25 141.637 305.318C141.197 305.369 140.741 305.484 140.269 305.662C139.802 305.834 139.343 306.046 138.892 306.298C138.44 306.55 138.012 306.832 137.608 307.143C137.211 307.453 136.86 307.77 136.558 308.093L137.431 315.577L134.21 315.952L132.818 304.023L136.039 303.647L136.229 305.28C136.608 305.001 137.012 304.722 137.443 304.443C137.873 304.158 138.335 303.893 138.829 303.648C139.322 303.402 139.852 303.188 140.417 303.005C140.982 302.821 141.586 302.692 142.229 302.617C143.033 302.524 143.762 302.538 144.416 302.661C145.075 302.778 145.646 302.99 146.127 303.298C146.608 303.6 146.994 303.992 147.285 304.474C147.581 304.95 147.766 305.5 147.839 306.125L148.787 314.252L145.574 314.627Z" fill="black"/>
<path d="M121.071 305.394L125.085 313.321L127.418 304.653L130.76 304.263L127.359 316.752L123.782 317.169L119.73 309.51L117.557 317.895L113.98 318.312L107.788 306.943L111.139 306.552L115.314 314.284L117.485 305.812L121.071 305.394Z" fill="black"/>
<path d="M107.33 313.051C107.449 314.075 107.367 315.003 107.083 315.834C106.797 316.66 106.335 317.376 105.697 317.985C105.058 318.593 104.253 319.092 103.284 319.481C102.319 319.863 101.215 320.127 99.9704 320.272C98.726 320.417 97.5847 320.415 96.5465 320.267C95.5134 320.111 94.6131 319.812 93.8455 319.367C93.0779 318.923 92.4576 318.332 91.9844 317.595C91.5106 316.853 91.2139 315.969 91.0944 314.945C90.9749 313.92 91.0606 312.995 91.3514 312.169C91.6416 311.337 92.1091 310.617 92.7538 310.008C93.3985 309.399 94.206 308.903 95.1762 308.52C96.1516 308.13 97.2615 307.863 98.5059 307.718C99.7504 307.573 100.886 307.578 101.913 307.734C102.946 307.883 103.843 308.181 104.605 308.626C105.367 309.071 105.981 309.665 106.45 310.408C106.917 311.146 107.21 312.026 107.33 313.051ZM104.074 313.431C104.022 312.985 103.898 312.551 103.702 312.128C103.511 311.698 103.213 311.328 102.807 311.018C102.407 310.707 101.882 310.477 101.231 310.33C100.58 310.183 99.7713 310.166 98.8047 310.279C98.1564 310.355 97.5924 310.473 97.1126 310.635C96.6321 310.791 96.2229 310.979 95.8849 311.2C95.547 311.422 95.2707 311.668 95.0559 311.939C94.8405 312.205 94.6767 312.485 94.5644 312.78C94.4514 313.069 94.3806 313.368 94.3521 313.676C94.3286 313.978 94.3338 314.274 94.3675 314.563C94.402 314.858 94.4657 315.153 94.5587 315.447C94.6575 315.741 94.7954 316.018 94.9725 316.279C95.1489 316.534 95.3725 316.766 95.6433 316.975C95.9141 317.184 96.2394 317.357 96.6192 317.495C96.9983 317.627 97.4399 317.716 97.9441 317.763C98.4475 317.804 99.0234 317.786 99.6716 317.711C100.638 317.598 101.421 317.395 102.021 317.102C102.62 316.809 103.079 316.466 103.396 316.071C103.72 315.675 103.925 315.249 104.013 314.793C104.106 314.331 104.126 313.876 104.074 313.431Z" fill="black"/>
<path d="M-4.89599 250.484C-6.86256 247.341 -5.90892 243.199 -2.76597 241.232L42.1887 213.104C45.3316 211.137 49.4737 212.091 51.4403 215.234L79.5689 260.188C81.5355 263.331 80.5818 267.474 77.4389 269.44L32.4842 297.569C29.3413 299.535 25.1992 298.582 23.2326 295.439L-4.89599 250.484Z" fill="#FFE55B"/>
<path d="M61.4342 255.117L58.6671 267.136L54.5194 266.181L57.2864 254.162L50.7685 252.662L51.5381 249.319L68.7329 253.278L67.9633 256.62L61.4342 255.117Z" fill="black"/>
<path d="M33.0539 261.239L28.9061 260.284L32.4427 244.923L42.8401 247.316C43.9581 247.574 44.8781 247.907 45.6 248.317C46.3294 248.728 46.8875 249.202 47.2741 249.738C47.6682 250.276 47.9039 250.872 47.981 251.526C48.0673 252.173 48.0256 252.866 47.8557 253.604C47.7064 254.252 47.4828 254.797 47.1849 255.239C46.8945 255.682 46.5525 256.043 46.1588 256.321C45.7742 256.594 45.3496 256.802 44.8847 256.946C44.4199 257.09 43.9421 257.188 43.4514 257.24L47.0847 264.469L42.2326 263.352L38.8842 256.624L34.3563 255.582L33.0539 261.239ZM43.6683 252.616C43.737 252.318 43.7543 252.055 43.7204 251.828C43.6939 251.602 43.5984 251.403 43.4337 251.232C43.2708 251.053 43.0323 250.896 42.7181 250.761C42.4113 250.628 42.0157 250.505 41.5312 250.394L35.8518 249.086L35.095 252.373L40.7745 253.681C41.2589 253.792 41.6683 253.855 42.0025 253.869C42.3442 253.885 42.6265 253.852 42.8494 253.77C43.0741 253.68 43.2477 253.54 43.3703 253.348C43.5004 253.158 43.5997 252.915 43.6683 252.616Z" fill="black"/>
<path d="M20.9889 255.4L12.4251 253.429L10.3136 256.003L5.68509 254.938L17.2601 241.427L21.8887 242.493L26.3904 259.705L21.7619 258.639L20.9889 255.4ZM14.6018 250.775L20.2142 252.067L18.7216 245.766L14.6018 250.775Z" fill="black"/>
<path d="M47.8442 222.164C47.4976 223.669 45.9962 224.609 44.4908 224.262C42.9854 223.916 42.046 222.414 42.3926 220.909C42.7392 219.403 44.2405 218.464 45.7459 218.811C47.2513 219.157 48.1907 220.659 47.8442 222.164Z" fill="black"/>
<path d="M32.155 290.309C31.8084 291.814 30.3071 292.753 28.8017 292.407C27.2962 292.06 26.3568 290.559 26.7034 289.053C27.05 287.548 28.5514 286.609 30.0568 286.955C31.5622 287.302 32.5016 288.803 32.155 290.309Z" fill="black"/>
<path d="M308.324 276.366C306.488 273.145 307.611 269.046 310.832 267.21L377.308 229.324C380.529 227.488 384.629 228.611 386.465 231.832L403.798 262.246C405.634 265.467 404.51 269.566 401.289 271.402L334.813 309.288C331.592 311.124 327.493 310.001 325.657 306.779L308.324 276.366Z" fill="#F97ACE"/>
<path d="M375.722 252.828L382.265 264.309L378.303 266.567L371.76 255.086L365.534 258.635L363.714 255.442L380.139 246.081L381.959 249.274L375.722 252.828Z" fill="black"/>
<path d="M354.017 265.113L355.472 267.666L365.009 262.231L366.792 265.36L357.255 270.795L360.597 276.658L356.635 278.916L348.272 264.242L362.294 256.251L364.077 259.38L354.017 265.113Z" fill="black"/>
<path d="M347.75 283.98L332.104 279.54L337.85 289.622L333.888 291.88L325.525 277.206L329.829 274.753L345.509 279.229L339.739 269.105L343.68 266.86L352.043 281.533L347.75 283.98Z" fill="black"/>
<path fill-rule="evenodd" clip-rule="evenodd" d="M314.838 271.83C314.38 271.024 314.66 270 315.466 269.541L315.491 269.526C316.297 269.067 317.322 269.348 317.78 270.153C318.239 270.958 317.959 271.983 317.153 272.442L317.128 272.457C316.322 272.916 315.297 272.635 314.838 271.83ZM325.181 265.935C324.722 265.13 325.003 264.105 325.808 263.646L325.86 263.617C326.665 263.158 327.69 263.438 328.149 264.244C328.608 265.049 328.327 266.074 327.522 266.533L327.47 266.562C326.665 267.021 325.64 266.74 325.181 265.935ZM335.55 260.026C335.091 259.221 335.372 258.196 336.177 257.737L336.229 257.707C337.034 257.248 338.059 257.529 338.518 258.334C338.977 259.14 338.696 260.165 337.891 260.624L337.839 260.653C337.034 261.112 336.009 260.831 335.55 260.026ZM345.918 254.117C345.459 253.311 345.74 252.286 346.546 251.828L346.597 251.798C347.402 251.339 348.427 251.62 348.886 252.425C349.345 253.23 349.064 254.255 348.259 254.714L348.208 254.744C347.402 255.203 346.377 254.922 345.918 254.117ZM356.287 248.207C355.828 247.402 356.109 246.377 356.914 245.918L356.966 245.889C357.771 245.43 358.796 245.711 359.255 246.516C359.714 247.321 359.433 248.346 358.628 248.805L358.576 248.834C357.771 249.293 356.746 249.013 356.287 248.207ZM366.656 242.298C366.197 241.493 366.477 240.468 367.283 240.009L367.334 239.98C368.14 239.521 369.164 239.801 369.623 240.607C370.082 241.412 369.802 242.437 368.996 242.896L368.945 242.925C368.139 243.384 367.115 243.103 366.656 242.298ZM377.024 236.389C376.565 235.584 376.846 234.559 377.651 234.1L377.677 234.085C378.482 233.626 379.507 233.907 379.966 234.712C380.425 235.517 380.144 236.542 379.339 237.001L379.313 237.016C378.508 237.475 377.483 237.194 377.024 236.389Z" fill="black"/>
<path fill-rule="evenodd" clip-rule="evenodd" d="M332.843 303.421C332.384 302.616 332.665 301.591 333.47 301.132L333.496 301.118C334.301 300.659 335.326 300.94 335.785 301.745C336.244 302.55 335.963 303.575 335.158 304.034L335.132 304.049C334.327 304.507 333.302 304.227 332.843 303.421ZM343.186 297.527C342.727 296.722 343.008 295.697 343.813 295.238L343.864 295.208C344.67 294.749 345.695 295.03 346.154 295.836C346.612 296.641 346.332 297.666 345.526 298.125L345.475 298.154C344.67 298.613 343.645 298.332 343.186 297.527ZM353.554 291.618C353.095 290.812 353.376 289.788 354.181 289.329L354.233 289.299C355.038 288.84 356.063 289.121 356.522 289.926C356.981 290.732 356.7 291.756 355.895 292.215L355.843 292.245C355.038 292.704 354.013 292.423 353.554 291.618ZM363.923 285.708C363.464 284.903 363.745 283.878 364.55 283.419L364.602 283.39C365.407 282.931 366.432 283.212 366.891 284.017C367.35 284.822 367.069 285.847 366.264 286.306L366.212 286.335C365.407 286.794 364.382 286.514 363.923 285.708ZM374.292 279.799C373.833 278.994 374.113 277.969 374.919 277.51L374.97 277.481C375.775 277.022 376.8 277.302 377.259 278.108C377.718 278.913 377.437 279.938 376.632 280.397L376.581 280.426C375.775 280.885 374.75 280.604 374.292 279.799ZM384.66 273.89C384.201 273.085 384.482 272.06 385.287 271.601L385.339 271.571C386.144 271.112 387.169 271.393 387.628 272.198C388.087 273.004 387.806 274.029 387.001 274.488L386.949 274.517C386.144 274.976 385.119 274.695 384.66 273.89ZM395.029 267.981C394.57 267.175 394.85 266.15 395.656 265.692L395.682 265.677C396.487 265.218 397.512 265.499 397.971 266.304C398.43 267.109 398.149 268.134 397.344 268.593L397.318 268.608C396.512 269.067 395.488 268.786 395.029 267.981Z" fill="black"/>
</svg>
