<svg width="436" height="233" viewBox="0 0 436 233" fill="none" xmlns="http://www.w3.org/2000/svg">
<path d="M21.6566 44.1361C27.9958 19.7604 52.8952 5.13897 77.2709 11.4782L391.478 93.1921C415.854 99.5314 430.475 124.431 424.136 148.806C417.796 173.182 392.897 187.804 368.521 181.464L54.3144 99.7504C29.9387 93.4112 15.3173 68.5118 21.6566 44.1361Z" fill="#83F04F"/>
<path d="M281.675 196.165C280.662 200.061 275.351 200.601 273.574 196.988L246.224 141.37C244.584 138.035 247.618 134.314 251.214 135.25L290.381 145.436C292.702 146.039 294.095 148.411 293.491 150.732L281.675 196.165Z" fill="#83F04F"/>
<path d="M343.854 144.757L352.104 113.031L360.671 115.259L354.228 140.034L377.387 146.057L375.58 153.007L343.854 144.757Z" fill="black"/>
<path d="M303.122 134.164L311.373 102.438L343.491 110.791L341.732 117.557L318.411 111.492L317.048 116.733L339.168 122.486L337.409 129.251L315.288 123.498L313.679 129.687L337.323 135.836L335.564 142.601L303.122 134.164Z" fill="black"/>
<path d="M299.427 116.243C298.899 118.274 298.205 120.025 297.347 121.495C296.492 122.949 295.504 124.154 294.384 125.112C293.28 126.074 292.052 126.815 290.7 127.334C289.364 127.858 287.94 128.186 286.426 128.318C284.913 128.45 283.326 128.424 281.665 128.238C280.008 128.038 278.309 127.711 276.57 127.259L256.435 122.022L264.686 90.2964L284.774 95.5207C286.514 95.973 288.154 96.5228 289.695 97.1701C291.24 97.8019 292.641 98.5443 293.898 99.3972C295.171 100.254 296.271 101.239 297.198 102.351C298.129 103.447 298.84 104.692 299.332 106.086C299.844 107.468 300.119 109.002 300.157 110.688C300.195 112.375 299.952 114.226 299.427 116.243ZM290.792 113.997C291.188 112.473 291.332 111.097 291.224 109.869C291.132 108.645 290.741 107.558 290.051 106.606C289.382 105.643 288.392 104.802 287.083 104.084C285.779 103.35 284.118 102.721 282.102 102.196L271.457 99.4282L266.797 117.346L277.442 120.114C279.458 120.639 281.213 120.906 282.706 120.916C284.203 120.911 285.478 120.651 286.533 120.137C287.606 119.611 288.481 118.836 289.159 117.812C289.851 116.792 290.395 115.521 290.792 113.997Z" fill="black"/>
<path d="M252.75 104.153C252.042 106.878 250.915 109.157 249.37 110.99C247.829 112.808 245.945 114.175 243.718 115.091C241.491 116.008 238.952 116.481 236.101 116.512C233.269 116.532 230.198 116.111 226.889 115.25C223.579 114.39 220.677 113.257 218.183 111.852C215.708 110.436 213.713 108.784 212.2 106.895C210.686 105.005 209.691 102.89 209.216 100.547C208.744 98.1895 208.863 95.6483 209.572 92.9237C210.28 90.199 211.413 87.9298 212.969 86.1159C214.529 84.2866 216.431 82.9157 218.673 82.0033C220.915 81.0909 223.46 80.627 226.307 80.6114C229.174 80.5845 232.262 81.0014 235.572 81.8621C238.881 82.7228 241.766 83.8592 244.225 85.2713C246.704 86.6719 248.693 88.3149 250.191 90.2001C251.689 92.0853 252.667 94.2047 253.123 96.5584C253.583 98.8968 253.459 101.428 252.75 104.153ZM244.091 101.901C244.4 100.716 244.513 99.4881 244.433 98.2181C244.372 96.9368 243.978 95.7005 243.253 94.5093C242.542 93.3221 241.432 92.2198 239.922 91.2025C238.411 90.1852 236.371 89.3423 233.8 88.6737C232.076 88.2253 230.524 87.9696 229.143 87.9064C227.767 87.8278 226.539 87.903 225.461 88.132C224.382 88.361 223.436 88.7147 222.621 89.193C221.81 89.656 221.117 90.2069 220.54 90.8457C219.967 91.4691 219.491 92.1591 219.114 92.9155C218.756 93.6605 218.477 94.4179 218.277 95.1875C218.072 95.9726 217.943 96.7854 217.889 97.6259C217.85 98.4704 217.927 99.3121 218.12 100.151C218.316 100.975 218.656 101.786 219.138 102.585C219.621 103.385 220.277 104.147 221.107 104.872C221.942 105.582 222.977 106.246 224.213 106.863C225.454 107.465 226.936 107.991 228.66 108.439C231.231 109.107 233.423 109.365 235.238 109.213C237.053 109.06 238.559 108.639 239.758 107.948C240.972 107.261 241.916 106.381 242.589 105.307C243.282 104.222 243.783 103.086 244.091 101.901Z" fill="black"/>
<path d="M189.126 104.518L194.921 82.2357L177.35 101.455L169.13 99.3175L163.149 73.973L157.354 96.255L148.788 94.0272L157.039 62.3013L168.676 65.3278L175.246 92.6743L194.306 71.9932L205.897 75.0077L197.647 106.734L189.126 104.518Z" fill="black"/>
<path d="M112.49 84.5875L120.741 52.8616L129.307 55.0894L121.056 86.8153L112.49 84.5875Z" fill="black"/>
<path d="M96.3188 73.9723L78.6317 69.3725L74.0918 74.6013L64.5324 72.1153L89.385 44.7069L98.9444 47.193L107.295 83.2364L97.7361 80.7504L96.3188 73.9723ZM83.312 63.983L94.9033 66.9975L92.1692 53.8126L83.312 63.983Z" fill="black"/>
</svg>
