<svg width="199" height="169" viewBox="0 0 199 169" fill="none" xmlns="http://www.w3.org/2000/svg">
<path d="M6.4517 97.7593C2.88852 91.5073 5.0683 83.5504 11.3204 79.9873L140.348 6.45166C146.6 2.88848 154.557 5.06826 158.12 11.3203L191.763 70.3514C195.327 76.6035 193.147 84.5603 186.895 88.1235L57.8668 161.659C51.6147 165.222 43.6579 163.042 40.0947 156.79L6.4517 97.7593Z" fill="#F97ACE"/>
<path d="M137.27 52.073L149.97 74.3558L142.28 78.7386L129.58 56.4558L117.496 63.343L113.963 57.1453L145.843 38.9762L149.376 45.174L137.27 52.073Z" fill="black"/>
<path d="M95.1417 75.9181L97.9651 80.8722L116.475 70.3228L119.937 76.3961L101.426 86.9455L107.912 98.3253L100.222 102.708L83.9902 74.2275L111.206 58.7165L114.668 64.7899L95.1417 75.9181Z" fill="black"/>
<path d="M82.9762 112.537L52.6093 103.92L63.7612 123.488L56.071 127.871L39.8394 99.3901L48.1928 94.6293L78.6277 103.317L67.4286 83.6665L75.0773 79.3073L91.3089 107.788L82.9762 112.537Z" fill="black"/>
<path fill-rule="evenodd" clip-rule="evenodd" d="M19.0963 88.9541C18.2055 87.3911 18.7505 85.4019 20.3135 84.5111L20.3636 84.4826C21.9266 83.5918 23.9158 84.1367 24.8066 85.6997C25.6974 87.2627 25.1524 89.252 23.5894 90.1427L23.5393 90.1713C21.9763 91.0621 19.9871 90.5171 19.0963 88.9541ZM39.1713 77.513C38.2806 75.9499 38.8255 73.9607 40.3885 73.0699L40.4886 73.0129C42.0517 72.1221 44.0409 72.667 44.9317 74.23C45.8224 75.7931 45.2775 77.7823 43.7145 78.6731L43.6144 78.7301C42.0513 79.6209 40.0621 79.076 39.1713 77.513ZM59.2964 66.0433C58.4056 64.4803 58.9506 62.491 60.5136 61.6003L60.6137 61.5432C62.1767 60.6524 64.1659 61.1973 65.0567 62.7604C65.9475 64.3234 65.4026 66.3126 63.8396 67.2034L63.7395 67.2604C62.1764 68.1512 60.1872 67.6063 59.2964 66.0433ZM79.4215 54.5736C78.5307 53.0106 79.0757 51.0214 80.6387 50.1306L80.7388 50.0735C82.3018 49.1827 84.291 49.7277 85.1818 51.2907C86.0726 52.8537 85.5277 54.8429 83.9647 55.7337L83.8645 55.7907C82.3015 56.6815 80.3123 56.1366 79.4215 54.5736ZM99.5466 43.1039C98.6558 41.5409 99.2008 39.5517 100.764 38.6609L100.864 38.6038C102.427 37.713 104.416 38.258 105.307 39.821C106.198 41.384 105.653 43.3732 104.09 44.264L103.99 44.3211C102.427 45.2119 100.437 44.6669 99.5466 43.1039ZM119.672 31.6342C118.781 30.0712 119.326 28.082 120.889 27.1912L120.989 27.1341C122.552 26.2433 124.541 26.7883 125.432 28.3513C126.323 29.9143 125.778 31.9035 124.215 32.7943L124.115 32.8514C122.552 33.7422 120.562 33.1972 119.672 31.6342ZM139.797 20.1645C138.906 18.6015 139.451 16.6123 141.014 15.7215L141.064 15.693C142.627 14.8022 144.616 15.3471 145.507 16.9101C146.398 18.4732 145.853 20.4624 144.29 21.3532L144.24 21.3817C142.677 22.2725 140.688 21.7275 139.797 20.1645Z" fill="black"/>
<path fill-rule="evenodd" clip-rule="evenodd" d="M54.0431 150.273C53.1523 148.71 53.6973 146.72 55.2603 145.83L55.3103 145.801C56.8733 144.91 58.8625 145.455 59.7533 147.018C60.6441 148.581 60.0992 150.571 58.5362 151.461L58.4861 151.49C56.9231 152.381 54.9339 151.836 54.0431 150.273ZM74.1181 138.832C73.2273 137.269 73.7723 135.279 75.3353 134.389L75.4354 134.331C76.9984 133.441 78.9876 133.986 79.8784 135.549C80.7692 137.112 80.2243 139.101 78.6613 139.992L78.5611 140.049C76.9981 140.94 75.0089 140.395 74.1181 138.832ZM94.2432 127.362C93.3524 125.799 93.8974 123.81 95.4604 122.919L95.5605 122.862C97.1235 121.971 99.1127 122.516 100.004 124.079C100.894 125.642 100.349 127.631 98.7864 128.522L98.6862 128.579C97.1232 129.47 95.134 128.925 94.2432 127.362ZM114.368 115.892C113.478 114.329 114.022 112.34 115.585 111.449L115.686 111.392C117.249 110.501 119.238 111.046 120.129 112.609C121.019 114.172 120.474 116.161 118.911 117.052L118.811 117.109C117.248 118 115.259 117.455 114.368 115.892ZM134.493 104.422C133.603 102.859 134.148 100.87 135.711 99.9795L135.811 99.9224C137.374 99.0316 139.363 99.5766 140.254 101.14C141.144 102.703 140.6 104.692 139.037 105.583L138.936 105.64C137.373 106.53 135.384 105.986 134.493 104.422ZM154.618 92.9528C153.728 91.3898 154.273 89.4006 155.836 88.5098L155.936 88.4527C157.499 87.5619 159.488 88.1069 160.379 89.6699C161.27 91.2329 160.725 93.2221 159.162 94.1129L159.061 94.17C157.498 95.0608 155.509 94.5158 154.618 92.9528ZM174.744 81.4831C173.853 79.9201 174.398 77.9309 175.961 77.0401L176.011 77.0116C177.574 76.1208 179.563 76.6657 180.454 78.2287C181.345 79.7918 180.8 81.781 179.237 82.6718L179.187 82.7003C177.624 83.5911 175.634 83.0461 174.744 81.4831Z" fill="black"/>
</svg>
