<svg width="46" height="45" viewBox="0 0 46 45" fill="none" xmlns="http://www.w3.org/2000/svg">
<path d="M33.9119 43.9723H28.0027L38.2368 28.6282H24.9053V24.3604H44.4887V27.9859L33.9119 43.9723Z" fill="white"/>
<path d="M23.4514 34.6802C23.4514 36.2408 23.1517 37.6586 22.5522 38.9337C21.9622 40.1993 21.1486 41.2841 20.1114 42.1881C19.0742 43.0826 17.8514 43.7772 16.4431 44.2721C15.0347 44.7574 13.5217 45 11.904 45C10.8192 45 9.78202 44.8906 8.79239 44.6717C7.80275 44.4529 6.87496 44.1341 6.00903 43.7154C5.15261 43.2967 4.37232 42.7876 3.66815 42.1881C2.9735 41.5791 2.37877 40.894 1.88395 40.1327C1.38913 39.3715 1.00374 38.5341 0.727787 37.6206C0.461346 36.707 0.328125 35.7269 0.328125 34.6802C0.328125 33.643 0.461346 32.6676 0.727787 31.7541C1.00374 30.8311 1.38913 29.9889 1.88395 29.2277C2.37877 28.4664 2.9735 27.786 3.66815 27.1865C4.37232 26.5775 5.15261 26.0637 6.00903 25.645C6.87496 25.2263 7.80275 24.9075 8.79239 24.6886C9.78202 24.4698 10.8192 24.3604 11.904 24.3604C13.5217 24.3604 15.0347 24.6078 16.4431 25.1026C17.8514 25.5879 19.0742 26.2825 20.1114 27.1865C21.1486 28.081 21.9622 29.1658 22.5522 30.4409C23.1517 31.7065 23.4514 33.1196 23.4514 34.6802ZM18.1559 34.6802C18.1559 33.6905 17.9846 32.8151 17.642 32.0538C17.2995 31.2926 16.838 30.6503 16.2575 30.1269C15.6865 29.6035 15.0252 29.2086 14.2735 28.9422C13.5217 28.6757 12.7319 28.5425 11.904 28.5425C11.0762 28.5425 10.2816 28.6757 9.52034 28.9422C8.75908 29.2086 8.08822 29.6035 7.50776 30.1269C6.93681 30.6503 6.4753 31.2926 6.12322 32.0538C5.78065 32.8151 5.60937 33.6905 5.60937 34.6802C5.60937 35.6698 5.78065 36.5453 6.12322 37.3065C6.4753 38.0678 6.93681 38.7101 7.50776 39.2335C8.08822 39.7473 8.75908 40.1422 9.52034 40.4182C10.2816 40.6846 11.0762 40.8178 11.904 40.8178C12.7319 40.8178 13.5217 40.6846 14.2735 40.4182C15.0252 40.1422 15.6865 39.7473 16.2575 39.2335C16.838 38.7101 17.2995 38.0678 17.642 37.3065C17.9846 36.5453 18.1559 35.6698 18.1559 34.6802Z" fill="white"/>
<path d="M45.3743 10.3198C45.3743 11.8804 45.0745 13.2983 44.475 14.5734C43.885 15.839 43.0714 16.9238 42.0342 17.8278C40.997 18.7222 39.7742 19.4169 38.3659 19.9117C36.9576 20.397 35.4446 20.6397 33.8269 20.6397C32.7421 20.6397 31.7049 20.5302 30.7152 20.3114C29.7256 20.0925 28.7978 19.7737 27.9319 19.355C27.0755 18.9363 26.2952 18.4273 25.591 17.8278C24.8964 17.2188 24.3016 16.5336 23.8068 15.7724C23.312 15.0111 22.9266 14.1737 22.6506 13.2602C22.3842 12.3467 22.251 11.3666 22.251 10.3198C22.251 9.28262 22.3842 8.30725 22.6506 7.39374C22.9266 6.47071 23.312 5.62857 23.8068 4.86731C24.3016 4.10605 24.8964 3.42567 25.591 2.82618C26.2952 2.21717 27.0755 1.70332 27.9319 1.28463C28.7978 0.865934 29.7256 0.547156 30.7152 0.328293C31.7049 0.109431 32.7421 0 33.8269 0C35.4446 0 36.9576 0.24741 38.3659 0.742229C39.7742 1.22753 40.997 1.92218 42.0342 2.82618C43.0714 3.72066 43.885 4.80546 44.475 6.08057C45.0745 7.34616 45.3743 8.75925 45.3743 10.3198ZM40.0787 10.3198C40.0787 9.3302 39.9075 8.45475 39.5649 7.69349C39.2223 6.93223 38.7608 6.28991 38.1803 5.76655C37.6094 5.24318 36.9481 4.84828 36.1963 4.58184C35.4446 4.31539 34.6548 4.18217 33.8269 4.18217C32.999 4.18217 32.2045 4.31539 31.4432 4.58184C30.6819 4.84828 30.0111 5.24318 29.4306 5.76655C28.8597 6.28991 28.3982 6.93223 28.0461 7.69349C27.7035 8.45475 27.5322 9.3302 27.5322 10.3198C27.5322 11.3095 27.7035 12.1849 28.0461 12.9462C28.3982 13.7074 28.8597 14.3498 29.4306 14.8731C30.0111 15.387 30.6819 15.7819 31.4432 16.0578C32.2045 16.3243 32.999 16.4575 33.8269 16.4575C34.6548 16.4575 35.4446 16.3243 36.1963 16.0578C36.9481 15.7819 37.6094 15.387 38.1803 14.8731C38.7608 14.3498 39.2223 13.7074 39.5649 12.9462C39.9075 12.1849 40.0787 11.3095 40.0787 10.3198Z" fill="white"/>
<path d="M9.00666 27.8048H3.09738L13.3316 12.4607H0V8.19287H19.5834V11.8184L9.00666 27.8048Z" fill="white"/>
<rect x="0.328125" width="18.8434" height="4.0964" fill="white"/>
</svg>
