<svg width="77" height="77" viewBox="0 0 77 77" fill="none" xmlns="http://www.w3.org/2000/svg">
<g filter="url(#filter0_d_402_9791)">
<g filter="url(#filter1_d_402_9791)">
<circle cx="38.5" cy="38.5" r="22.5" fill="black"/>
<circle cx="38.5" cy="38.5" r="22.5" stroke="#B4FF78"/>
</g>
<path fill-rule="evenodd" clip-rule="evenodd" d="M42.618 48.7902C42.9266 49.0068 43.3243 49.061 43.6788 48.928C44.0334 48.794 44.2941 48.4938 44.3727 48.13C45.2054 44.2502 47.2255 34.43 47.9836 30.9007C48.0411 30.6347 47.9452 30.3583 47.7344 30.1806C47.5236 30.003 47.2313 29.9517 46.9706 30.0476C42.9524 31.522 30.5778 36.1248 25.5198 37.9801C25.1988 38.0979 24.9898 38.4039 25.0004 38.7392C25.0119 39.0755 25.24 39.3672 25.5687 39.465C27.837 40.1376 30.8145 41.0734 30.8145 41.0734C30.8145 41.0734 32.2059 45.2391 32.9314 47.3576C33.0224 47.6236 33.2323 47.8326 33.5092 47.9048C33.7852 47.9761 34.0804 47.901 34.2864 47.7082C35.4517 46.6176 37.2534 44.9313 37.2534 44.9313C37.2534 44.9313 40.6764 47.4194 42.618 48.7902ZM32.067 40.5471L33.676 45.8082L34.0334 42.4765C34.0334 42.4765 40.25 36.918 43.7938 33.7498C43.8973 33.6567 43.9117 33.5009 43.8255 33.3916C43.7402 33.2824 43.583 33.2567 43.4651 33.3308C39.3578 35.931 32.067 40.5471 32.067 40.5471Z" fill="#B4FF78"/>
</g>
<defs>
<filter id="filter0_d_402_9791" x="11.5" y="15.5" width="54" height="54" filterUnits="userSpaceOnUse" color-interpolation-filters="sRGB">
<feFlood flood-opacity="0" result="BackgroundImageFix"/>
<feColorMatrix in="SourceAlpha" type="matrix" values="0 0 0 0 0 0 0 0 0 0 0 0 0 0 0 0 0 0 127 0" result="hardAlpha"/>
<feOffset dy="4"/>
<feGaussianBlur stdDeviation="2"/>
<feComposite in2="hardAlpha" operator="out"/>
<feColorMatrix type="matrix" values="0 0 0 0 0 0 0 0 0 0 0 0 0 0 0 0 0 0 0.25 0"/>
<feBlend mode="normal" in2="BackgroundImageFix" result="effect1_dropShadow_402_9791"/>
<feBlend mode="normal" in="SourceGraphic" in2="effect1_dropShadow_402_9791" result="shape"/>
</filter>
<filter id="filter1_d_402_9791" x="0.5" y="0.5" width="76" height="76" filterUnits="userSpaceOnUse" color-interpolation-filters="sRGB">
<feFlood flood-opacity="0" result="BackgroundImageFix"/>
<feColorMatrix in="SourceAlpha" type="matrix" values="0 0 0 0 0 0 0 0 0 0 0 0 0 0 0 0 0 0 127 0" result="hardAlpha"/>
<feOffset/>
<feGaussianBlur stdDeviation="7.5"/>
<feComposite in2="hardAlpha" operator="out"/>
<feColorMatrix type="matrix" values="0 0 0 0 0.705882 0 0 0 0 1 0 0 0 0 0.470588 0 0 0 1 0"/>
<feBlend mode="normal" in2="BackgroundImageFix" result="effect1_dropShadow_402_9791"/>
<feBlend mode="normal" in="SourceGraphic" in2="effect1_dropShadow_402_9791" result="shape"/>
</filter>
</defs>
</svg>
