<svg width="45" height="89" viewBox="0 0 45 89" fill="none" xmlns="http://www.w3.org/2000/svg">
<rect width="45" height="89" fill="black"/>
<path d="M30.6084 38.3149H26.6689L33.4917 28.0854H24.604V25.2402H37.6596V27.6572L30.6084 38.3149Z" fill="white"/>
<path d="M23.6343 32.1201C23.6343 33.1605 23.4344 34.1057 23.0348 34.9558C22.6414 35.7995 22.099 36.5227 21.4076 37.1254C20.7161 37.7217 19.9009 38.1848 18.962 38.5147C18.0231 38.8382 17.0145 39 15.936 39C15.2128 39 14.5213 38.927 13.8616 38.7811C13.2018 38.6352 12.5833 38.4227 12.006 38.1436C11.4351 37.8645 10.9149 37.5251 10.4454 37.1254C9.98233 36.7194 9.58585 36.2626 9.25597 35.7551C8.92609 35.2476 8.66916 34.6894 8.48519 34.0804C8.30756 33.4714 8.21875 32.8179 8.21875 32.1201C8.21875 31.4286 8.30756 30.7784 8.48519 30.1694C8.66916 29.554 8.92609 28.9926 9.25597 28.4851C9.58585 27.9776 9.98233 27.524 10.4454 27.1244C10.9149 26.7183 11.4351 26.3758 12.006 26.0967C12.5833 25.8175 13.2018 25.605 13.8616 25.4591C14.5213 25.3132 15.2128 25.2402 15.936 25.2402C17.0145 25.2402 18.0231 25.4052 18.962 25.7351C19.9009 26.0586 20.7161 26.5217 21.4076 27.1244C22.099 27.7207 22.6414 28.4439 23.0348 29.2939C23.4344 30.1377 23.6343 31.0797 23.6343 32.1201ZM20.1039 32.1201C20.1039 31.4604 19.9897 30.8767 19.7613 30.3692C19.533 29.8617 19.2253 29.4335 18.8383 29.0846C18.4577 28.7357 18.0168 28.4724 17.5156 28.2948C17.0145 28.1172 16.4879 28.0283 15.936 28.0283C15.3841 28.0283 14.8544 28.1172 14.3469 28.2948C13.8394 28.4724 13.3921 28.7357 13.0052 29.0846C12.6245 29.4335 12.3169 29.8617 12.0821 30.3692C11.8538 30.8767 11.7396 31.4604 11.7396 32.1201C11.7396 32.7799 11.8538 33.3635 12.0821 33.871C12.3169 34.3785 12.6245 34.8067 13.0052 35.1556C13.3921 35.4982 13.8394 35.7615 14.3469 35.9454C14.8544 36.1231 15.3841 36.2119 15.936 36.2119C16.4879 36.2119 17.0145 36.1231 17.5156 35.9454C18.0168 35.7615 18.4577 35.4982 18.8383 35.1556C19.2253 34.8067 19.533 34.3785 19.7613 33.871C19.9897 33.3635 20.1039 32.7799 20.1039 32.1201Z" fill="white"/>
<path d="M38.2492 15.8799C38.2492 16.9203 38.0494 17.8655 37.6498 18.7156C37.2564 19.5593 36.714 20.2825 36.0226 20.8852C35.3311 21.4815 34.5159 21.9446 33.577 22.2745C32.6381 22.598 31.6295 22.7598 30.551 22.7598C29.8278 22.7598 29.1363 22.6868 28.4766 22.5409C27.8168 22.395 27.1983 22.1825 26.621 21.9033C26.0501 21.6242 25.5299 21.2848 25.0604 20.8852C24.5973 20.4792 24.2008 20.0224 23.871 19.5149C23.5411 19.0074 23.2842 18.4491 23.1002 17.8401C22.9226 17.2311 22.8337 16.5777 22.8337 15.8799C22.8337 15.1884 22.9226 14.5382 23.1002 13.9292C23.2842 13.3138 23.5411 12.7524 23.871 12.2449C24.2008 11.7374 24.5973 11.2838 25.0604 10.8841C25.5299 10.4781 26.0501 10.1355 26.621 9.85642C27.1983 9.57729 27.8168 9.36477 28.4766 9.21886C29.1363 9.07295 29.8278 9 30.551 9C31.6295 9 32.6381 9.16494 33.577 9.49482C34.5159 9.81835 35.3311 10.2815 36.0226 10.8841C36.714 11.4804 37.2564 12.2036 37.6498 13.0537C38.0494 13.8974 38.2492 14.8395 38.2492 15.8799ZM34.7189 15.8799C34.7189 15.2201 34.6047 14.6365 34.3763 14.129C34.148 13.6215 33.8403 13.1933 33.4533 12.8444C33.0727 12.4955 32.6318 12.2322 32.1306 12.0546C31.6295 11.8769 31.1029 11.7881 30.551 11.7881C29.9991 11.7881 29.4694 11.8769 28.9619 12.0546C28.4544 12.2322 28.0071 12.4955 27.6202 12.8444C27.2395 13.1933 26.9319 13.6215 26.6971 14.129C26.4688 14.6365 26.3546 15.2201 26.3546 15.8799C26.3546 16.5396 26.4688 17.1233 26.6971 17.6308C26.9319 18.1383 27.2395 18.5665 27.6202 18.9154C28.0071 19.258 28.4544 19.5212 28.9619 19.7052C29.4694 19.8828 29.9991 19.9717 30.551 19.9717C31.1029 19.9717 31.6295 19.8828 32.1306 19.7052C32.6318 19.5212 33.0727 19.258 33.4533 18.9154C33.8403 18.5665 34.148 18.1383 34.3763 17.6308C34.6047 17.1233 34.7189 16.5396 34.7189 15.8799Z" fill="white"/>
<path d="M14.0044 27.5365H10.0649L16.8877 17.3071H8V14.4619H21.0556V16.8789L14.0044 27.5365Z" fill="white"/>
<rect x="8.21875" y="9" width="12.5623" height="2.73093" fill="white"/>
</svg>
