<svg width="150" height="149" viewBox="0 0 150 149" fill="none" xmlns="http://www.w3.org/2000/svg">
<path d="M112.111 145.367H92.5757L126.409 94.6411H82.3362V80.5322H147.077V92.5177L112.111 145.367Z" fill="black"/>
<path d="M77.5268 114.648C77.5268 119.807 76.5359 124.495 74.554 128.71C72.6036 132.894 69.914 136.48 66.4851 139.469C63.0562 142.426 59.0138 144.722 54.3581 146.358C49.7023 147.962 44.7005 148.764 39.3526 148.764C35.7664 148.764 32.3375 148.403 29.0659 147.679C25.7943 146.956 22.7271 145.902 19.8645 144.518C17.0333 143.133 14.4537 141.45 12.1258 139.469C9.8294 137.455 7.86328 135.19 6.22747 132.674C4.59166 130.157 3.31762 127.389 2.40534 124.369C1.52452 121.349 1.08411 118.109 1.08411 114.648C1.08411 111.219 1.52452 107.995 2.40534 104.975C3.31762 101.924 4.59166 99.1396 6.22747 96.6229C7.86328 94.1063 9.8294 91.8571 12.1258 89.8752C14.4537 87.8619 17.0333 86.1632 19.8645 84.779C22.7271 83.3949 25.7943 82.3411 29.0659 81.6175C32.3375 80.894 35.7664 80.5322 39.3526 80.5322C44.7005 80.5322 49.7023 81.3501 54.3581 82.9859C59.0138 84.5903 63.0562 86.8867 66.4851 89.8752C69.914 92.8323 72.6036 96.4185 74.554 100.634C76.5359 104.818 77.5268 109.489 77.5268 114.648ZM60.0205 114.648C60.0205 111.377 59.4542 108.483 58.3218 105.966C57.1893 103.449 55.6636 101.326 53.7446 99.5957C51.8572 97.8655 49.6708 96.56 47.1857 95.6792C44.7005 94.7984 42.0895 94.358 39.3526 94.358C36.6158 94.358 33.9891 94.7984 31.4724 95.6792C28.9558 96.56 26.738 97.8655 24.8191 99.5957C22.9316 101.326 21.4059 103.449 20.242 105.966C19.1095 108.483 18.5432 111.377 18.5432 114.648C18.5432 117.92 19.1095 120.814 20.242 123.331C21.4059 125.847 22.9316 127.971 24.8191 129.701C26.738 131.4 28.9558 132.705 31.4724 133.617C33.9891 134.498 36.6158 134.939 39.3526 134.939C42.0895 134.939 44.7005 134.498 47.1857 133.617C49.6708 132.705 51.8572 131.4 53.7446 129.701C55.6636 127.971 57.1893 125.847 58.3218 123.331C59.4542 120.814 60.0205 117.92 60.0205 114.648Z" fill="black"/>
<path d="M150 34.1161C150 39.2752 149.009 43.9624 147.027 48.1778C145.077 52.3617 142.387 55.9479 138.958 58.9364C135.529 61.8934 131.487 64.1899 126.831 65.8257C122.175 67.43 117.174 68.2322 111.826 68.2322C108.24 68.2322 104.811 67.8704 101.539 67.1469C98.2674 66.4234 95.2003 65.3695 92.3376 63.9854C89.5064 62.6012 86.9269 60.9182 84.599 58.9364C82.3025 56.9231 80.3364 54.6581 78.7006 52.1415C77.0648 49.6248 75.7908 46.8565 74.8785 43.8366C73.9977 40.8166 73.5573 37.5765 73.5573 34.1161C73.5573 30.6872 73.9977 27.4628 74.8785 24.4428C75.7908 21.3914 77.0648 18.6074 78.7006 16.0907C80.3364 13.5741 82.3025 11.3248 84.599 9.343C86.9269 7.32969 89.5064 5.63096 92.3376 4.24682C95.2003 2.86267 98.2674 1.80883 101.539 1.0853C104.811 0.361766 108.24 0 111.826 0C117.174 0 122.175 0.817906 126.831 2.45372C131.487 4.05807 135.529 6.3545 138.958 9.343C142.387 12.3 145.077 15.8862 147.027 20.1016C149.009 24.2855 150 28.957 150 34.1161ZM132.494 34.1161C132.494 30.8445 131.927 27.9503 130.795 25.4337C129.662 22.9171 128.137 20.7937 126.218 19.0635C124.33 17.3333 122.144 16.0278 119.659 15.147C117.174 14.2662 114.563 13.8257 111.826 13.8257C109.089 13.8257 106.462 14.2662 103.946 15.147C101.429 16.0278 99.2112 17.3333 97.2922 19.0635C95.4048 20.7937 93.8791 22.9171 92.7151 25.4337C91.5826 27.9503 91.0164 30.8445 91.0164 34.1161C91.0164 37.3877 91.5826 40.2818 92.7151 42.7985C93.8791 45.3151 95.4048 47.4385 97.2922 49.1687C99.2112 50.8674 101.429 52.1729 103.946 53.0852C106.462 53.966 109.089 54.4064 111.826 54.4064C114.563 54.4064 117.174 53.966 119.659 53.0852C122.144 52.1729 124.33 50.8674 126.218 49.1687C128.137 47.4385 129.662 45.3151 130.795 42.7985C131.927 40.2818 132.494 37.3877 132.494 34.1161Z" fill="black"/>
<path d="M29.7749 91.9192H10.2395L44.0725 41.1933H0V27.0845H64.7404V39.0699L29.7749 91.9192Z" fill="black"/>
<rect x="1.08411" width="62.294" height="13.5422" fill="black"/>
</svg>
