<svg width="627" height="131" viewBox="0 0 627 131" fill="none" xmlns="http://www.w3.org/2000/svg">
<path d="M511.863 127H475.477L538.494 32.5176H456.404V6.23828H576.99V28.5625L511.863 127Z" fill="white"/>
<path d="M442.342 66.707C442.342 76.3164 440.496 85.0469 436.805 92.8984C433.172 100.691 428.162 107.371 421.775 112.938C415.389 118.445 407.859 122.723 399.188 125.77C390.516 128.758 381.199 130.252 371.238 130.252C364.559 130.252 358.172 129.578 352.078 128.23C345.984 126.883 340.271 124.92 334.939 122.342C329.666 119.764 324.861 116.629 320.525 112.938C316.248 109.188 312.586 104.969 309.539 100.281C306.492 95.5938 304.119 90.4375 302.42 84.8125C300.779 79.1875 299.959 73.1523 299.959 66.707C299.959 60.3203 300.779 54.3145 302.42 48.6895C304.119 43.0059 306.492 37.8203 309.539 33.1328C312.586 28.4453 316.248 24.2559 320.525 20.5645C324.861 16.8145 329.666 13.6504 334.939 11.0723C340.271 8.49414 345.984 6.53125 352.078 5.18359C358.172 3.83594 364.559 3.16211 371.238 3.16211C381.199 3.16211 390.516 4.68555 399.188 7.73242C407.859 10.7207 415.389 14.998 421.775 20.5645C428.162 26.0723 433.172 32.752 436.805 40.6035C440.496 48.3965 442.342 57.0977 442.342 66.707ZM409.734 66.707C409.734 60.6133 408.68 55.2227 406.57 50.5352C404.461 45.8477 401.619 41.8926 398.045 38.6699C394.529 35.4473 390.457 33.0156 385.828 31.375C381.199 29.7344 376.336 28.9141 371.238 28.9141C366.141 28.9141 361.248 29.7344 356.561 31.375C351.873 33.0156 347.742 35.4473 344.168 38.6699C340.652 41.8926 337.811 45.8477 335.643 50.5352C333.533 55.2227 332.479 60.6133 332.479 66.707C332.479 72.8008 333.533 78.1914 335.643 82.8789C337.811 87.5664 340.652 91.5215 344.168 94.7441C347.742 97.9082 351.873 100.34 356.561 102.039C361.248 103.68 366.141 104.5 371.238 104.5C376.336 104.5 381.199 103.68 385.828 102.039C390.457 100.34 394.529 97.9082 398.045 94.7441C401.619 91.5215 404.461 87.5664 406.57 82.8789C408.68 78.1914 409.734 72.8008 409.734 66.707Z" fill="white"/>
<path d="M279.041 66.707C279.041 76.3164 277.195 85.0469 273.504 92.8984C269.871 100.691 264.861 107.371 258.475 112.938C252.088 118.445 244.559 122.723 235.887 125.77C227.215 128.758 217.898 130.252 207.938 130.252C201.258 130.252 194.871 129.578 188.777 128.23C182.684 126.883 176.971 124.92 171.639 122.342C166.365 119.764 161.561 116.629 157.225 112.938C152.947 109.188 149.285 104.969 146.238 100.281C143.191 95.5938 140.818 90.4375 139.119 84.8125C137.479 79.1875 136.658 73.1523 136.658 66.707C136.658 60.3203 137.479 54.3145 139.119 48.6895C140.818 43.0059 143.191 37.8203 146.238 33.1328C149.285 28.4453 152.947 24.2559 157.225 20.5645C161.561 16.8145 166.365 13.6504 171.639 11.0723C176.971 8.49414 182.684 6.53125 188.777 5.18359C194.871 3.83594 201.258 3.16211 207.938 3.16211C217.898 3.16211 227.215 4.68555 235.887 7.73242C244.559 10.7207 252.088 14.998 258.475 20.5645C264.861 26.0723 269.871 32.752 273.504 40.6035C277.195 48.3965 279.041 57.0977 279.041 66.707ZM246.434 66.707C246.434 60.6133 245.379 55.2227 243.27 50.5352C241.16 45.8477 238.318 41.8926 234.744 38.6699C231.229 35.4473 227.156 33.0156 222.527 31.375C217.898 29.7344 213.035 28.9141 207.938 28.9141C202.84 28.9141 197.947 29.7344 193.26 31.375C188.572 33.0156 184.441 35.4473 180.867 38.6699C177.352 41.8926 174.51 45.8477 172.342 50.5352C170.232 55.2227 169.178 60.6133 169.178 66.707C169.178 72.8008 170.232 78.1914 172.342 82.8789C174.51 87.5664 177.352 91.5215 180.867 94.7441C184.441 97.9082 188.572 100.34 193.26 102.039C197.947 103.68 202.84 104.5 207.938 104.5C213.035 104.5 217.898 103.68 222.527 102.039C227.156 100.34 231.229 97.9082 234.744 94.7441C238.318 91.5215 241.16 87.5664 243.27 82.8789C245.379 78.1914 246.434 72.8008 246.434 66.707Z" fill="white"/>
<path d="M55.5352 127H19.1484L82.166 32.5176H0.0761719V6.23828H120.662V28.5625L55.5352 127Z" fill="white"/>
<path d="M618.039 125.996C616.656 125.996 615.434 125.742 614.371 125.234C613.316 124.727 612.434 124 611.723 123.055C611.012 122.109 610.473 120.961 610.105 119.609C609.746 118.266 609.566 116.754 609.566 115.074C609.566 113.395 609.746 111.875 610.105 110.516C610.473 109.164 611.012 108.012 611.723 107.059C612.434 106.105 613.316 105.371 614.371 104.855C615.434 104.34 616.656 104.082 618.039 104.082C619.422 104.082 620.641 104.34 621.695 104.855C622.758 105.371 623.645 106.105 624.355 107.059C625.066 108.012 625.602 109.164 625.961 110.516C626.328 111.875 626.512 113.395 626.512 115.074C626.512 116.754 626.328 118.266 625.961 119.609C625.602 120.961 625.066 122.109 624.355 123.055C623.645 124 622.758 124.727 621.695 125.234C620.641 125.742 619.422 125.996 618.039 125.996ZM618.039 121.602C618.641 121.602 619.238 121.504 619.832 121.309C620.434 121.121 620.973 120.781 621.449 120.289C621.926 119.805 622.312 119.141 622.609 118.297C622.906 117.453 623.055 116.379 623.055 115.074C623.055 114.199 622.984 113.43 622.844 112.766C622.711 112.102 622.523 111.527 622.281 111.043C622.039 110.559 621.754 110.152 621.426 109.824C621.105 109.496 620.758 109.234 620.383 109.039C620.016 108.844 619.629 108.703 619.223 108.617C618.824 108.539 618.43 108.5 618.039 108.5C617.641 108.5 617.238 108.539 616.832 108.617C616.426 108.703 616.035 108.844 615.66 109.039C615.293 109.234 614.949 109.496 614.629 109.824C614.309 110.152 614.027 110.559 613.785 111.043C613.551 111.527 613.363 112.102 613.223 112.766C613.09 113.43 613.023 114.199 613.023 115.074C613.023 116.379 613.172 117.453 613.469 118.297C613.766 119.141 614.152 119.805 614.629 120.289C615.105 120.781 615.641 121.121 616.234 121.309C616.836 121.504 617.437 121.602 618.039 121.602Z" fill="white"/>
<path d="M610 95.7617L626.102 95.7617L626.102 100.109L610 100.109L610 95.7617Z" fill="white"/>
<path d="M618.062 91.7891C617.031 91.7891 616.113 91.6758 615.309 91.4492C614.512 91.2227 613.816 90.9023 613.223 90.4883C612.629 90.082 612.125 89.5898 611.711 89.0117C611.297 88.4414 610.965 87.8047 610.715 87.1016C610.465 86.3984 610.281 85.6406 610.164 84.8281C610.055 84.0156 610 83.168 610 82.2852L610 72.0664L626.102 72.0664L626.102 82.2617C626.102 83.1445 626.043 83.9922 625.926 84.8047C625.816 85.6172 625.637 86.375 625.387 87.0781C625.137 87.7891 624.805 88.4336 624.391 89.0117C623.984 89.5898 623.48 90.082 622.879 90.4883C622.285 90.9023 621.59 91.2227 620.793 91.4492C619.996 91.6758 619.086 91.7891 618.062 91.7891ZM618.062 87.4062C618.836 87.4062 619.508 87.3047 620.078 87.1016C620.648 86.9062 621.117 86.5859 621.484 86.1406C621.859 85.7031 622.137 85.1289 622.316 84.418C622.504 83.707 622.598 82.8398 622.598 81.8164L622.598 76.4141L613.504 76.4141L613.504 81.8164C613.504 82.8398 613.594 83.707 613.773 84.418C613.961 85.1289 614.242 85.7031 614.617 86.1406C615 86.5859 615.477 86.9062 616.047 87.1016C616.617 87.3047 617.289 87.4062 618.062 87.4062Z" fill="white"/>
<path d="M626.102 51.6875L617.031 51.6875C616.43 51.6875 615.883 51.7383 615.391 51.8398C614.906 51.9414 614.488 52.1289 614.137 52.4023C613.793 52.6758 613.523 53.0586 613.328 53.5508C613.141 54.043 613.047 54.6836 613.047 55.4727C613.047 56.0664 613.129 56.6875 613.293 57.3359C613.457 57.9922 613.676 58.6406 613.949 59.2812C614.223 59.9219 614.535 60.5312 614.887 61.1094C615.246 61.6953 615.617 62.2187 616 62.6797L626.102 62.6797L626.102 67.0156L610 67.0156L610 62.6797L612.203 62.6797C611.891 62.1328 611.574 61.5508 611.254 60.9336C610.941 60.3164 610.656 59.6602 610.398 58.9648C610.148 58.2695 609.945 57.5312 609.789 56.75C609.625 55.9687 609.543 55.1445 609.543 54.2773C609.543 53.1914 609.676 52.2187 609.941 51.3594C610.199 50.5 610.566 49.7734 611.043 49.1797C611.527 48.5859 612.109 48.1289 612.789 47.8086C613.477 47.4961 614.242 47.3398 615.086 47.3398L626.102 47.3398L626.102 51.6875Z" fill="white"/>
<path d="M622.598 37.6836L610 37.6836L610 33.3359L622.598 33.3359L622.598 26.5039L626.102 26.5039L626.102 44.5273L622.598 44.5273L622.598 37.6836Z" fill="white"/>
<path d="M621.566 23.1992C621.715 22.8945 621.883 22.4922 622.07 21.9922C622.258 21.4922 622.434 20.9258 622.598 20.293C622.77 19.6602 622.91 18.9727 623.02 18.2305C623.137 17.4883 623.195 16.7266 623.195 15.9453C623.195 15.3203 623.176 14.7852 623.137 14.3398C623.098 13.9023 623.047 13.5312 622.984 13.2266C622.922 12.9297 622.848 12.6914 622.762 12.5117C622.684 12.3398 622.602 12.207 622.516 12.1133C622.43 12.0195 622.344 11.957 622.258 11.9258C622.172 11.9023 622.094 11.8906 622.023 11.8906C621.789 11.8906 621.582 12.0078 621.402 12.2422C621.23 12.4766 621.074 12.7969 620.934 13.2031C620.801 13.6094 620.672 14.082 620.547 14.6211C620.43 15.1602 620.305 15.7305 620.172 16.332C620.047 16.9414 619.906 17.5664 619.75 18.207C619.602 18.8555 619.426 19.4805 619.223 20.082C619.02 20.6914 618.781 21.2656 618.508 21.8047C618.242 22.3437 617.93 22.8164 617.57 23.2227C617.211 23.6289 616.797 23.9492 616.328 24.1836C615.859 24.418 615.324 24.5352 614.723 24.5352C613.949 24.5352 613.285 24.3984 612.73 24.125C612.176 23.8516 611.707 23.4844 611.324 23.0234C610.941 22.5703 610.633 22.043 610.398 21.4414C610.172 20.8398 609.996 20.207 609.871 19.543C609.746 18.8867 609.664 18.2187 609.625 17.5391C609.586 16.8672 609.566 16.2266 609.566 15.6172C609.566 14.0234 609.699 12.5469 609.965 11.1875C610.223 9.83594 610.547 8.64062 610.937 7.60156L614.781 7.60156C614.187 8.67187 613.723 9.89062 613.387 11.2578C613.051 12.6328 612.883 14.1016 612.883 15.6641C612.883 16.5859 612.93 17.3359 613.023 17.9141C613.125 18.5 613.25 18.957 613.398 19.2852C613.555 19.6133 613.723 19.8359 613.902 19.9531C614.082 20.0703 614.254 20.1289 614.418 20.1289C614.676 20.1289 614.898 20.0117 615.086 19.7773C615.281 19.543 615.449 19.2227 615.59 18.8164C615.738 18.4102 615.871 17.9375 615.988 17.3984C616.113 16.8594 616.234 16.2852 616.352 15.6758C616.477 15.0742 616.609 14.4531 616.75 13.8125C616.891 13.1719 617.055 12.5469 617.242 11.9375C617.437 11.3359 617.66 10.7656 617.91 10.2266C618.168 9.6875 618.469 9.21484 618.812 8.80859C619.164 8.40234 619.566 8.08203 620.02 7.84766C620.48 7.61328 621.012 7.49609 621.613 7.49609C622.324 7.49609 622.937 7.62109 623.453 7.87109C623.969 8.12109 624.406 8.45703 624.766 8.87891C625.133 9.30859 625.43 9.80078 625.656 10.3555C625.883 10.918 626.059 11.5078 626.184 12.125C626.309 12.7422 626.395 13.3672 626.441 14C626.488 14.6328 626.512 15.2344 626.512 15.8047C626.512 16.4297 626.48 17.0703 626.418 17.7266C626.355 18.3906 626.266 19.043 626.148 19.6836C626.039 20.3242 625.91 20.9414 625.762 21.5352C625.613 22.1367 625.457 22.6914 625.293 23.1992L621.566 23.1992Z" fill="white"/>
<path d="M610 0.195312L614.219 0.195312L614.219 4.63672L610 4.63672L610 0.195312Z" fill="white"/>
</svg>
