<svg width="18" height="126" viewBox="0 0 18 126" fill="none" xmlns="http://www.w3.org/2000/svg">
<path d="M9.03906 125.996C7.65625 125.996 6.43359 125.742 5.37109 125.234C4.31641 124.727 3.43359 124 2.72266 123.055C2.01172 122.109 1.47266 120.961 1.10547 119.609C0.746093 118.266 0.566406 116.754 0.566406 115.074C0.566406 113.395 0.746093 111.875 1.10547 110.516C1.47266 109.164 2.01172 108.012 2.72266 107.059C3.43359 106.105 4.31641 105.371 5.37109 104.855C6.43359 104.34 7.65625 104.082 9.03906 104.082C10.4219 104.082 11.6406 104.34 12.6953 104.855C13.7578 105.371 14.6445 106.105 15.3555 107.059C16.0664 108.012 16.6016 109.164 16.9609 110.516C17.3281 111.875 17.5117 113.395 17.5117 115.074C17.5117 116.754 17.3281 118.266 16.9609 119.609C16.6016 120.961 16.0664 122.109 15.3555 123.055C14.6445 124 13.7578 124.727 12.6953 125.234C11.6406 125.742 10.4219 125.996 9.03906 125.996ZM9.03906 121.602C9.64062 121.602 10.2383 121.504 10.832 121.309C11.4336 121.121 11.9727 120.781 12.4492 120.289C12.9258 119.805 13.3125 119.141 13.6094 118.297C13.9062 117.453 14.0547 116.379 14.0547 115.074C14.0547 114.199 13.9844 113.43 13.8437 112.766C13.7109 112.102 13.5234 111.527 13.2812 111.043C13.0391 110.559 12.7539 110.152 12.4258 109.824C12.1055 109.496 11.7578 109.234 11.3828 109.039C11.0156 108.844 10.6289 108.703 10.2227 108.617C9.82422 108.539 9.42969 108.5 9.03906 108.5C8.64062 108.5 8.23828 108.539 7.83203 108.617C7.42578 108.703 7.03516 108.844 6.66016 109.039C6.29297 109.234 5.94922 109.496 5.62891 109.824C5.30859 110.152 5.02734 110.559 4.78516 111.043C4.55078 111.527 4.36328 112.102 4.22266 112.766C4.08984 113.43 4.02344 114.199 4.02344 115.074C4.02344 116.379 4.17187 117.453 4.46875 118.297C4.76562 119.141 5.15234 119.805 5.62891 120.289C6.10547 120.781 6.64062 121.121 7.23437 121.309C7.83594 121.504 8.4375 121.602 9.03906 121.602Z" fill="black"/>
<path d="M1 95.7617L17.1016 95.7617L17.1016 100.109L1 100.109L1 95.7617Z" fill="black"/>
<path d="M9.0625 91.7891C8.03125 91.7891 7.11328 91.6758 6.30859 91.4492C5.51172 91.2227 4.81641 90.9023 4.22266 90.4883C3.62891 90.082 3.125 89.5898 2.71094 89.0117C2.29687 88.4414 1.96484 87.8047 1.71484 87.1016C1.46484 86.3984 1.28125 85.6406 1.16406 84.8281C1.05469 84.0156 1 83.168 1 82.2852L1 72.0664L17.1016 72.0664L17.1016 82.2617C17.1016 83.1445 17.043 83.9922 16.9258 84.8047C16.8164 85.6172 16.6367 86.375 16.3867 87.0781C16.1367 87.7891 15.8047 88.4336 15.3906 89.0117C14.9844 89.5898 14.4805 90.082 13.8789 90.4883C13.2852 90.9023 12.5898 91.2227 11.793 91.4492C10.9961 91.6758 10.0859 91.7891 9.0625 91.7891ZM9.0625 87.4062C9.83594 87.4062 10.5078 87.3047 11.0781 87.1016C11.6484 86.9062 12.1172 86.5859 12.4844 86.1406C12.8594 85.7031 13.1367 85.1289 13.3164 84.418C13.5039 83.707 13.5977 82.8398 13.5977 81.8164L13.5977 76.4141L4.50391 76.4141L4.50391 81.8164C4.50391 82.8398 4.59375 83.707 4.77344 84.418C4.96094 85.1289 5.24219 85.7031 5.61719 86.1406C6 86.5859 6.47656 86.9062 7.04687 87.1016C7.61719 87.3047 8.28906 87.4062 9.0625 87.4062Z" fill="black"/>
<path d="M17.1016 51.6875L8.03125 51.6875C7.42969 51.6875 6.88281 51.7383 6.39062 51.8398C5.90625 51.9414 5.48828 52.1289 5.13672 52.4023C4.79297 52.6758 4.52344 53.0586 4.32812 53.5508C4.14062 54.043 4.04687 54.6836 4.04687 55.4727C4.04687 56.0664 4.12891 56.6875 4.29297 57.3359C4.45703 57.9922 4.67578 58.6406 4.94922 59.2812C5.22266 59.9219 5.53516 60.5312 5.88672 61.1094C6.24609 61.6953 6.61719 62.2187 7 62.6797L17.1016 62.6797L17.1016 67.0156L0.999999 67.0156L0.999999 62.6797L3.20312 62.6797C2.89062 62.1328 2.57422 61.5508 2.25391 60.9336C1.94141 60.3164 1.65625 59.6602 1.39844 58.9648C1.14844 58.2695 0.945312 57.5312 0.789062 56.75C0.625 55.9687 0.542968 55.1445 0.542968 54.2773C0.542968 53.1914 0.675781 52.2187 0.941406 51.3594C1.19922 50.5 1.56641 49.7734 2.04297 49.1797C2.52734 48.5859 3.10937 48.1289 3.78906 47.8086C4.47656 47.4961 5.24219 47.3398 6.08594 47.3398L17.1016 47.3398L17.1016 51.6875Z" fill="black"/>
<path d="M13.5977 37.6836L1 37.6836L1 33.3359L13.5977 33.3359L13.5977 26.5039L17.1016 26.5039L17.1016 44.5273L13.5977 44.5273L13.5977 37.6836Z" fill="black"/>
<path d="M12.5664 23.1992C12.7148 22.8945 12.8828 22.4922 13.0703 21.9922C13.2578 21.4922 13.4336 20.9258 13.5977 20.293C13.7695 19.6602 13.9102 18.9727 14.0195 18.2305C14.1367 17.4883 14.1953 16.7266 14.1953 15.9453C14.1953 15.3203 14.1758 14.7852 14.1367 14.3398C14.0977 13.9023 14.0469 13.5312 13.9844 13.2266C13.9219 12.9297 13.8477 12.6914 13.7617 12.5117C13.6836 12.3398 13.6016 12.207 13.5156 12.1133C13.4297 12.0195 13.3437 11.957 13.2578 11.9258C13.1719 11.9023 13.0937 11.8906 13.0234 11.8906C12.7891 11.8906 12.582 12.0078 12.4023 12.2422C12.2305 12.4766 12.0742 12.7969 11.9336 13.2031C11.8008 13.6094 11.6719 14.082 11.5469 14.6211C11.4297 15.1602 11.3047 15.7305 11.1719 16.332C11.0469 16.9414 10.9062 17.5664 10.75 18.207C10.6016 18.8555 10.4258 19.4805 10.2227 20.082C10.0195 20.6914 9.78125 21.2656 9.50781 21.8047C9.24219 22.3437 8.92969 22.8164 8.57031 23.2227C8.21094 23.6289 7.79687 23.9492 7.32812 24.1836C6.85937 24.418 6.32422 24.5352 5.72266 24.5352C4.94922 24.5352 4.28516 24.3984 3.73047 24.125C3.17578 23.8516 2.70703 23.4844 2.32422 23.0234C1.94141 22.5703 1.63281 22.043 1.39844 21.4414C1.17187 20.8398 0.996093 20.207 0.871093 19.543C0.746093 18.8867 0.664062 18.2187 0.625 17.5391C0.585937 16.8672 0.566406 16.2266 0.566406 15.6172C0.566406 14.0234 0.699219 12.5469 0.964844 11.1875C1.22266 9.83594 1.54687 8.64062 1.9375 7.60156L5.78125 7.60156C5.1875 8.67187 4.72266 9.89062 4.38672 11.2578C4.05078 12.6328 3.88281 14.1016 3.88281 15.6641C3.88281 16.5859 3.92969 17.3359 4.02344 17.9141C4.125 18.5 4.25 18.957 4.39844 19.2852C4.55469 19.6133 4.72266 19.8359 4.90234 19.9531C5.08203 20.0703 5.25391 20.1289 5.41797 20.1289C5.67578 20.1289 5.89844 20.0117 6.08594 19.7773C6.28125 19.543 6.44922 19.2227 6.58984 18.8164C6.73828 18.4102 6.87109 17.9375 6.98828 17.3984C7.11328 16.8594 7.23437 16.2852 7.35156 15.6758C7.47656 15.0742 7.60937 14.4531 7.75 13.8125C7.89062 13.1719 8.05469 12.5469 8.24219 11.9375C8.4375 11.3359 8.66016 10.7656 8.91016 10.2266C9.16797 9.6875 9.46875 9.21484 9.8125 8.80859C10.1641 8.40234 10.5664 8.08203 11.0195 7.84766C11.4805 7.61328 12.0117 7.49609 12.6133 7.49609C13.3242 7.49609 13.9375 7.62109 14.4531 7.87109C14.9687 8.12109 15.4062 8.45703 15.7656 8.87891C16.1328 9.30859 16.4297 9.80078 16.6562 10.3555C16.8828 10.918 17.0586 11.5078 17.1836 12.125C17.3086 12.7422 17.3945 13.3672 17.4414 14C17.4883 14.6328 17.5117 15.2344 17.5117 15.8047C17.5117 16.4297 17.4805 17.0703 17.418 17.7266C17.3555 18.3906 17.2656 19.043 17.1484 19.6836C17.0391 20.3242 16.9102 20.9414 16.7617 21.5352C16.6133 22.1367 16.457 22.6914 16.293 23.1992L12.5664 23.1992Z" fill="black"/>
<path d="M1 0.195312L5.21875 0.195312L5.21875 4.63672L1 4.63672L1 0.195312Z" fill="black"/>
</svg>
