<svg width="47" height="47" viewBox="0 0 47 47" fill="none" xmlns="http://www.w3.org/2000/svg">
<circle cx="23.5" cy="23.5" r="22.5" fill="black" stroke="white"/>
<path fill-rule="evenodd" clip-rule="evenodd" d="M27.618 33.7902C27.9266 34.0068 28.3243 34.061 28.6788 33.928C29.0334 33.794 29.2941 33.4938 29.3727 33.13C30.2054 29.2502 32.2255 19.43 32.9836 15.9007C33.0411 15.6347 32.9452 15.3583 32.7344 15.1806C32.5236 15.003 32.2313 14.9517 31.9706 15.0476C27.9524 16.522 15.5778 21.1248 10.5198 22.9801C10.1988 23.0979 9.98984 23.4039 10.0004 23.7392C10.0119 24.0755 10.24 24.3672 10.5687 24.465C12.837 25.1376 15.8145 26.0734 15.8145 26.0734C15.8145 26.0734 17.2059 30.2391 17.9314 32.3576C18.0224 32.6236 18.2323 32.8326 18.5092 32.9048C18.7852 32.9761 19.0804 32.901 19.2864 32.7082C20.4517 31.6176 22.2534 29.9313 22.2534 29.9313C22.2534 29.9313 25.6764 32.4194 27.618 33.7902ZM17.067 25.5471L18.676 30.8082L19.0334 27.4765C19.0334 27.4765 25.25 21.918 28.7938 18.7498C28.8973 18.6567 28.9117 18.5009 28.8255 18.3916C28.7402 18.2824 28.583 18.2567 28.4651 18.3308C24.3578 20.931 17.067 25.5471 17.067 25.5471Z" fill="white"/>
</svg>
