<svg width="1168" height="276" viewBox="0 0 1168 276" fill="none" xmlns="http://www.w3.org/2000/svg">
<path d="M0 45.15L45 45.15L45 0.15L0 0.15L0 45.15ZM77.7173 42L73.5645 34.0459L53.064 34.0459L48.9111 42H45.9009L61.6992 11.8096H64.9292L80.7275 42H77.7173ZM63.3252 14.4683L54.4043 31.519L72.2241 31.519L63.3252 14.4683ZM86.6821 42V11.8096H89.4287V42H86.6821ZM154.907 42V16.314L138.318 42H135.879L119.268 16.2041V42H116.521V11.8096H119.465L137.175 39.1655L154.688 11.8096H157.61V42H154.907ZM195.139 42V38.6602C194.084 39.2314 192.883 39.7588 191.536 40.2422C190.203 40.7256 188.789 41.1431 187.295 41.4946C185.815 41.8462 184.292 42.1172 182.725 42.3076C181.157 42.498 179.619 42.5933 178.11 42.5933C176.147 42.5933 174.382 42.4175 172.815 42.0659C171.262 41.7144 169.944 41.1943 168.86 40.5059C167.776 39.8027 166.941 38.9385 166.355 37.9131C165.769 36.873 165.476 35.6719 165.476 34.3096C165.476 32.9619 165.813 31.7754 166.487 30.75C167.175 29.71 168.149 28.8091 169.409 28.0474C170.669 27.271 172.185 26.6191 173.958 26.0918C175.745 25.5498 177.737 25.0957 179.934 24.7295C182.131 24.3486 184.504 24.041 187.053 23.8066C189.617 23.5576 192.312 23.3525 195.139 23.1914V20.8843C195.139 19.9468 194.963 19.1191 194.612 18.4014C194.26 17.6836 193.77 17.061 193.14 16.5337C192.51 15.9917 191.77 15.5449 190.92 15.1934C190.071 14.8271 189.148 14.5342 188.152 14.3145C187.17 14.0947 186.13 13.9409 185.032 13.853C183.948 13.7505 182.856 13.6992 181.758 13.6992C180.278 13.6992 178.931 13.7725 177.715 13.9189C176.499 14.0654 175.364 14.2705 174.309 14.5342C173.254 14.7832 172.244 15.0762 171.277 15.4131C170.31 15.75 169.336 16.1089 168.354 16.4897V13.2817C170.391 12.7397 172.559 12.271 174.858 11.8755C177.173 11.4653 179.626 11.2603 182.219 11.2603C184.417 11.2603 186.467 11.4507 188.372 11.8315C190.276 12.1978 191.931 12.791 193.337 13.6113C194.744 14.4316 195.85 15.4937 196.655 16.7974C197.461 18.0864 197.864 19.6611 197.864 21.5215V42H195.139ZM195.139 25.6304C190.349 25.894 186.255 26.2676 182.856 26.751C179.473 27.2344 176.704 27.8276 174.551 28.5308C172.397 29.2339 170.815 30.0542 169.805 30.9917C168.809 31.9292 168.311 32.9912 168.311 34.1777C168.311 35.1445 168.552 36.0015 169.036 36.7485C169.534 37.4956 170.244 38.1255 171.167 38.6382C172.09 39.1362 173.21 39.5171 174.529 39.7808C175.847 40.0298 177.327 40.1543 178.967 40.1543C179.934 40.1543 180.93 40.103 181.956 40.0005C182.996 39.8833 184.028 39.7295 185.054 39.5391C186.079 39.334 187.09 39.0996 188.086 38.8359C189.082 38.5576 190.02 38.2573 190.898 37.9351C191.777 37.6128 192.576 37.2686 193.293 36.9023C194.026 36.5361 194.641 36.1626 195.139 35.7817V25.6304ZM230.164 14.1387C229.739 14.0068 229.146 13.8677 228.384 13.7212C227.637 13.5601 226.67 13.4795 225.483 13.4795C223.843 13.4795 222.297 13.6846 220.847 14.0947C219.412 14.4902 218.071 15.0322 216.826 15.7207C215.596 16.4092 214.453 17.2148 213.398 18.1377C212.344 19.0459 211.392 20.0127 210.542 21.0381V42H207.795V11.8096H210.542V17.9619C211.523 16.9512 212.585 16.021 213.728 15.1714C214.885 14.3218 216.101 13.5967 217.375 12.9961C218.65 12.3809 219.983 11.9048 221.375 11.5679C222.781 11.2163 224.231 11.0405 225.725 11.0405C226.238 11.0405 226.699 11.0552 227.109 11.0845C227.52 11.0991 227.893 11.1284 228.23 11.1724C228.582 11.2017 228.911 11.2383 229.219 11.2822C229.526 11.3262 229.841 11.3774 230.164 11.436V14.1387ZM263.584 42C263.438 40.3594 263.035 38.8799 262.375 37.5615C261.716 36.2285 260.867 35.0493 259.827 34.0239C258.801 32.9985 257.622 32.1196 256.289 31.3872C254.956 30.6401 253.542 30.0249 252.048 29.5415C250.554 29.0581 249.009 28.7065 247.412 28.4868C245.815 28.2524 244.241 28.1353 242.688 28.1353H238.008V42H235.261V11.8096L238.008 11.8096V25.7183H241.941C243.508 25.7183 245.068 25.5791 246.621 25.3008C248.174 25.0078 249.653 24.5903 251.06 24.0483C252.48 23.4917 253.799 22.8179 255.015 22.0269C256.245 21.2212 257.329 20.3057 258.267 19.2803C259.204 18.2402 259.973 17.0977 260.574 15.8525C261.174 14.6074 261.548 13.2598 261.694 11.8096H264.529C264.382 13.4062 264.023 14.8564 263.452 16.1602C262.896 17.4492 262.207 18.6138 261.387 19.6538C260.566 20.6938 259.651 21.6094 258.64 22.4004C257.629 23.1768 256.604 23.8506 255.564 24.4219C254.524 24.9785 253.506 25.4473 252.51 25.8281C251.514 26.1943 250.613 26.4727 249.807 26.6631C250.818 26.8242 251.909 27.0732 253.081 27.4102C254.268 27.7324 255.447 28.1719 256.619 28.7285C257.805 29.2705 258.955 29.9443 260.068 30.75C261.182 31.541 262.178 32.4785 263.057 33.5625C263.95 34.6465 264.697 35.8843 265.298 37.2759C265.898 38.6675 266.272 40.2422 266.418 42H263.584ZM304.717 40.418C303.486 40.7988 302.344 41.1284 301.289 41.4067C300.234 41.6704 299.194 41.8828 298.169 42.0439C297.144 42.2197 296.096 42.3442 295.027 42.4175C293.972 42.5054 292.808 42.5493 291.533 42.5493C288.574 42.5493 285.901 42.1904 283.513 41.4727C281.125 40.7549 279.089 39.7295 277.405 38.3965C275.735 37.0488 274.446 35.4229 273.538 33.5186C272.629 31.6143 272.175 29.4756 272.175 27.1025C272.175 24.8027 272.607 22.6934 273.472 20.7744C274.351 18.8555 275.574 17.2075 277.141 15.8306C278.708 14.4536 280.583 13.3843 282.766 12.6226C284.949 11.8608 287.358 11.48 289.995 11.48C292.734 11.48 295.173 11.8462 297.312 12.5786C299.451 13.311 301.252 14.3584 302.717 15.7207C304.182 17.083 305.295 18.7383 306.057 20.6865C306.819 22.6201 307.2 24.8027 307.2 27.2344V27.9155L275.01 27.9155C275.171 29.7905 275.64 31.4824 276.416 32.9912C277.192 34.5 278.291 35.7817 279.712 36.8364C281.147 37.8911 282.905 38.7041 284.985 39.2754C287.08 39.832 289.519 40.1104 292.302 40.1104C293.489 40.1104 294.69 40.0298 295.906 39.8687C297.122 39.7075 298.286 39.4951 299.399 39.2314C300.513 38.9531 301.531 38.6455 302.454 38.3086C303.376 37.957 304.131 37.5981 304.717 37.2319V40.418ZM304.497 25.5205C304.395 23.9824 304.05 22.5176 303.464 21.126C302.878 19.7197 302 18.4819 300.828 17.4126C299.67 16.3433 298.191 15.4937 296.389 14.8638C294.602 14.2339 292.456 13.9189 289.951 13.9189C287.593 13.9189 285.527 14.2339 283.755 14.8638C281.982 15.4937 280.481 16.3433 279.25 17.4126C278.02 18.4673 277.053 19.6978 276.35 21.104C275.647 22.4956 275.2 23.9678 275.01 25.5205L304.497 25.5205ZM326.558 14.3145V42H323.833V14.3145L310.1 14.3145V11.8096L340.291 11.8096V14.3145L326.558 14.3145ZM375.667 21.082C375.667 22.5908 375.417 23.9238 374.919 25.0811C374.436 26.2383 373.667 27.2124 372.612 28.0034C371.558 28.7944 370.195 29.395 368.525 29.8052C366.87 30.2007 364.871 30.3984 362.527 30.3984H348.97V42H346.223V11.8096L362.527 11.8096C364.871 11.8096 366.87 12.0146 368.525 12.4248C370.195 12.8203 371.558 13.4062 372.612 14.1826C373.667 14.959 374.436 15.9258 374.919 17.083C375.417 18.2402 375.667 19.5732 375.667 21.082ZM372.832 21.082C372.832 19.6465 372.59 18.4893 372.107 17.6104C371.638 16.7314 370.906 16.0576 369.91 15.5889C368.928 15.1055 367.676 14.7832 366.152 14.6221C364.644 14.4609 362.849 14.3804 360.769 14.3804L348.97 14.3804V27.8276H360.769C361.575 27.8276 362.432 27.835 363.34 27.8496C364.263 27.8496 365.171 27.8057 366.064 27.7178C366.958 27.6152 367.808 27.4468 368.613 27.2124C369.434 26.9634 370.151 26.5898 370.767 26.0918C371.396 25.5937 371.895 24.9419 372.261 24.1362C372.642 23.3306 372.832 22.3125 372.832 21.082ZM385.84 31.563C385.84 32.9253 385.95 34.0972 386.169 35.0786C386.389 36.0601 386.851 36.8657 387.554 37.4956C388.257 38.1255 389.268 38.5942 390.586 38.9019C391.919 39.1948 393.684 39.3413 395.881 39.3413H409.526V42H395.332C392.915 42 390.916 41.8096 389.333 41.4287C387.766 41.0332 386.514 40.4326 385.576 39.627C384.653 38.8066 384.009 37.7739 383.643 36.5288C383.276 35.2837 383.093 33.8042 383.093 32.0903V11.8096H385.84V31.563ZM442.375 42V38.6602C441.321 39.2314 440.12 39.7588 438.772 40.2422C437.439 40.7256 436.025 41.1431 434.531 41.4946C433.052 41.8462 431.528 42.1172 429.961 42.3076C428.394 42.498 426.855 42.5933 425.347 42.5933C423.384 42.5933 421.619 42.4175 420.051 42.0659C418.499 41.7144 417.18 41.1943 416.096 40.5059C415.012 39.8027 414.177 38.9385 413.591 37.9131C413.005 36.873 412.712 35.6719 412.712 34.3096C412.712 32.9619 413.049 31.7754 413.723 30.75C414.412 29.71 415.386 28.8091 416.646 28.0474C417.905 27.271 419.421 26.6191 421.194 26.0918C422.981 25.5498 424.973 25.0957 427.17 24.7295C429.368 24.3486 431.741 24.041 434.29 23.8066C436.853 23.5576 439.548 23.3525 442.375 23.1914V20.8843C442.375 19.9468 442.2 19.1191 441.848 18.4014C441.497 17.6836 441.006 17.061 440.376 16.5337C439.746 15.9917 439.006 15.5449 438.157 15.1934C437.307 14.8271 436.384 14.5342 435.388 14.3145C434.407 14.0947 433.367 13.9409 432.268 13.853C431.184 13.7505 430.093 13.6992 428.994 13.6992C427.515 13.6992 426.167 13.7725 424.951 13.9189C423.735 14.0654 422.6 14.2705 421.545 14.5342C420.491 14.7832 419.48 15.0762 418.513 15.4131C417.546 15.75 416.572 16.1089 415.591 16.4897V13.2817C417.627 12.7397 419.795 12.271 422.095 11.8755C424.409 11.4653 426.863 11.2603 429.456 11.2603C431.653 11.2603 433.704 11.4507 435.608 11.8315C437.512 12.1978 439.167 12.791 440.574 13.6113C441.98 14.4316 443.086 15.4937 443.892 16.7974C444.697 18.0864 445.1 19.6611 445.1 21.5215V42H442.375ZM442.375 25.6304C437.585 25.894 433.491 26.2676 430.093 26.751C426.709 27.2344 423.94 27.8276 421.787 28.5308C419.634 29.2339 418.052 30.0542 417.041 30.9917C416.045 31.9292 415.547 32.9912 415.547 34.1777C415.547 35.1445 415.789 36.0015 416.272 36.7485C416.77 37.4956 417.48 38.1255 418.403 38.6382C419.326 39.1362 420.447 39.5171 421.765 39.7808C423.083 40.0298 424.563 40.1543 426.204 40.1543C427.17 40.1543 428.167 40.103 429.192 40.0005C430.232 39.8833 431.265 39.7295 432.29 39.5391C433.315 39.334 434.326 39.0996 435.322 38.8359C436.318 38.5576 437.256 38.2573 438.135 37.9351C439.014 37.6128 439.812 37.2686 440.53 36.9023C441.262 36.5361 441.877 36.1626 442.375 35.7817V25.6304ZM485.991 39.605C484.937 40.0444 483.889 40.4473 482.849 40.8135C481.824 41.1797 480.754 41.4946 479.641 41.7583C478.528 42.022 477.356 42.2271 476.125 42.3735C474.895 42.52 473.555 42.5933 472.104 42.5933C470.317 42.5933 468.596 42.4468 466.941 42.1538C465.3 41.8608 463.77 41.4214 462.349 40.8354C460.928 40.2495 459.639 39.5244 458.481 38.6602C457.324 37.7812 456.328 36.7632 455.493 35.606C454.673 34.4487 454.036 33.145 453.582 31.6948C453.142 30.2446 452.922 28.6553 452.922 26.9268C452.922 25.1982 453.142 23.6089 453.582 22.1587C454.036 20.7085 454.673 19.4048 455.493 18.2476C456.328 17.0903 457.324 16.0796 458.481 15.2153C459.639 14.3364 460.928 13.604 462.349 13.0181C463.77 12.4321 465.3 11.9927 466.941 11.6997C468.582 11.4067 470.303 11.2603 472.104 11.2603C473.555 11.2603 474.895 11.3335 476.125 11.48C477.356 11.6265 478.528 11.8315 479.641 12.0952C480.754 12.3589 481.824 12.6738 482.849 13.04C483.889 13.3916 484.937 13.7871 485.991 14.2266V17.5225C485.156 16.9951 484.263 16.4971 483.311 16.0283C482.358 15.5596 481.326 15.1494 480.212 14.7979C479.114 14.4463 477.935 14.168 476.675 13.9629C475.415 13.7578 474.067 13.6553 472.632 13.6553C469.731 13.6553 467.219 13.9702 465.095 14.6001C462.971 15.23 461.213 16.1235 459.822 17.2808C458.445 18.4233 457.419 19.8149 456.746 21.4556C456.086 23.0815 455.757 24.9053 455.757 26.9268C455.757 28.9482 456.086 30.772 456.746 32.3979C457.419 34.0239 458.445 35.4155 459.822 36.5728C461.213 37.7153 462.971 38.6016 465.095 39.2314C467.219 39.8467 469.731 40.1543 472.632 40.1543C474.067 40.1543 475.422 40.0518 476.697 39.8467C477.986 39.6416 479.187 39.3633 480.3 39.0117C481.428 38.6602 482.461 38.2573 483.398 37.8032C484.351 37.3345 485.215 36.8437 485.991 36.3311V39.605ZM524.575 40.418C523.345 40.7988 522.202 41.1284 521.147 41.4067C520.093 41.6704 519.053 41.8828 518.027 42.0439C517.002 42.2197 515.955 42.3442 514.885 42.4175C513.831 42.5054 512.666 42.5493 511.392 42.5493C508.433 42.5493 505.759 42.1904 503.372 41.4727C500.984 40.7549 498.948 39.7295 497.263 38.3965C495.593 37.0488 494.304 35.4229 493.396 33.5186C492.488 31.6143 492.034 29.4756 492.034 27.1025C492.034 24.8027 492.466 22.6934 493.33 20.7744C494.209 18.8555 495.432 17.2075 497 15.8306C498.567 14.4536 500.442 13.3843 502.625 12.6226C504.807 11.8608 507.217 11.48 509.854 11.48C512.593 11.48 515.032 11.8462 517.17 12.5786C519.309 13.311 521.111 14.3584 522.576 15.7207C524.041 17.083 525.154 18.7383 525.916 20.6865C526.677 22.6201 527.058 24.8027 527.058 27.2344V27.9155L494.868 27.9155C495.029 29.7905 495.498 31.4824 496.274 32.9912C497.051 34.5 498.149 35.7817 499.57 36.8364C501.006 37.8911 502.764 38.7041 504.844 39.2754C506.938 39.832 509.377 40.1104 512.161 40.1104C513.347 40.1104 514.548 40.0298 515.764 39.8687C516.98 39.7075 518.145 39.4951 519.258 39.2314C520.371 38.9531 521.389 38.6455 522.312 38.3086C523.235 37.957 523.989 37.5981 524.575 37.2319V40.418ZM524.355 25.5205C524.253 23.9824 523.909 22.5176 523.323 21.126C522.737 19.7197 521.858 18.4819 520.686 17.4126C519.529 16.3433 518.049 15.4937 516.248 14.8638C514.46 14.2339 512.314 13.9189 509.81 13.9189C507.451 13.9189 505.386 14.2339 503.613 14.8638C501.841 15.4937 500.339 16.3433 499.109 17.4126C497.878 18.4673 496.912 19.6978 496.208 21.104C495.505 22.4956 495.059 23.9678 494.868 25.5205L524.355 25.5205Z" fill="black"/>
<path d="M0 261.15H45L45 216.15H0L0 261.15ZM75.3223 227.81L86.0889 255.803L97.251 227.81H100.305L88.1543 258H84.0674L73.4766 230.732L62.9077 258H58.8208L46.6699 227.81H49.7241L60.8862 255.803L71.6309 227.81H75.3223ZM136.868 258V243.366H109.819V258H107.073V227.81H109.819V240.817H136.868V227.81H139.614V258H136.868ZM149.788 258V227.81H152.534V258H149.788ZM174.946 230.314V258H172.222V230.314H158.489V227.81H188.679V230.314H174.946ZM224.121 256.418C222.891 256.799 221.748 257.128 220.693 257.407C219.639 257.67 218.599 257.883 217.573 258.044C216.548 258.22 215.5 258.344 214.431 258.417C213.376 258.505 212.212 258.549 210.938 258.549C207.979 258.549 205.305 258.19 202.917 257.473C200.53 256.755 198.494 255.729 196.809 254.396C195.139 253.049 193.85 251.423 192.942 249.519C192.034 247.614 191.58 245.476 191.58 243.103C191.58 240.803 192.012 238.693 192.876 236.774C193.755 234.855 194.978 233.208 196.545 231.831C198.113 230.454 199.988 229.384 202.17 228.623C204.353 227.861 206.763 227.48 209.399 227.48C212.139 227.48 214.578 227.846 216.716 228.579C218.855 229.311 220.657 230.358 222.122 231.721C223.586 233.083 224.7 234.738 225.461 236.687C226.223 238.62 226.604 240.803 226.604 243.234V243.916H194.414C194.575 245.791 195.044 247.482 195.82 248.991C196.597 250.5 197.695 251.782 199.116 252.836C200.552 253.891 202.31 254.704 204.39 255.275C206.484 255.832 208.923 256.11 211.707 256.11C212.893 256.11 214.094 256.03 215.31 255.869C216.526 255.708 217.69 255.495 218.804 255.231C219.917 254.953 220.935 254.646 221.858 254.309C222.781 253.957 223.535 253.598 224.121 253.232V256.418ZM223.901 241.521C223.799 239.982 223.455 238.518 222.869 237.126C222.283 235.72 221.404 234.482 220.232 233.413C219.075 232.343 217.595 231.494 215.793 230.864C214.006 230.234 211.86 229.919 209.355 229.919C206.997 229.919 204.932 230.234 203.159 230.864C201.387 231.494 199.885 232.343 198.655 233.413C197.424 234.467 196.458 235.698 195.754 237.104C195.051 238.496 194.604 239.968 194.414 241.521H223.901ZM281.008 237.082C281.008 238.591 280.759 239.924 280.261 241.081C279.778 242.238 279.009 243.212 277.954 244.003C276.899 244.794 275.537 245.395 273.867 245.805C272.212 246.201 270.212 246.398 267.869 246.398H254.312V258H251.565V227.81L267.869 227.81C270.212 227.81 272.212 228.015 273.867 228.425C275.537 228.82 276.899 229.406 277.954 230.183C279.009 230.959 279.778 231.926 280.261 233.083C280.759 234.24 281.008 235.573 281.008 237.082ZM278.174 237.082C278.174 235.646 277.932 234.489 277.449 233.61C276.98 232.731 276.248 232.058 275.251 231.589C274.27 231.105 273.018 230.783 271.494 230.622C269.985 230.461 268.191 230.38 266.111 230.38L254.312 230.38V243.828H266.111C266.917 243.828 267.773 243.835 268.682 243.85C269.604 243.85 270.513 243.806 271.406 243.718C272.3 243.615 273.149 243.447 273.955 243.212C274.775 242.963 275.493 242.59 276.108 242.092C276.738 241.594 277.236 240.942 277.603 240.136C277.983 239.331 278.174 238.312 278.174 237.082ZM315.33 258V254.66C314.275 255.231 313.074 255.759 311.726 256.242C310.393 256.726 308.979 257.143 307.485 257.495C306.006 257.846 304.482 258.117 302.915 258.308C301.348 258.498 299.81 258.593 298.301 258.593C296.338 258.593 294.573 258.417 293.005 258.066C291.453 257.714 290.134 257.194 289.05 256.506C287.966 255.803 287.131 254.938 286.545 253.913C285.959 252.873 285.667 251.672 285.667 250.31C285.667 248.962 286.003 247.775 286.677 246.75C287.366 245.71 288.34 244.809 289.6 244.047C290.859 243.271 292.375 242.619 294.148 242.092C295.935 241.55 297.927 241.096 300.125 240.729C302.322 240.349 304.695 240.041 307.244 239.807C309.807 239.558 312.502 239.353 315.33 239.191V236.884C315.33 235.947 315.154 235.119 314.802 234.401C314.451 233.684 313.96 233.061 313.33 232.534C312.7 231.992 311.96 231.545 311.111 231.193C310.261 230.827 309.338 230.534 308.342 230.314C307.361 230.095 306.321 229.941 305.222 229.853C304.138 229.75 303.047 229.699 301.948 229.699C300.469 229.699 299.121 229.772 297.905 229.919C296.689 230.065 295.554 230.271 294.5 230.534C293.445 230.783 292.434 231.076 291.467 231.413C290.5 231.75 289.526 232.109 288.545 232.49V229.282C290.581 228.74 292.749 228.271 295.049 227.875C297.363 227.465 299.817 227.26 302.41 227.26C304.607 227.26 306.658 227.451 308.562 227.832C310.466 228.198 312.122 228.791 313.528 229.611C314.934 230.432 316.04 231.494 316.846 232.797C317.651 234.086 318.054 235.661 318.054 237.521V258H315.33ZM315.33 241.63C310.54 241.894 306.445 242.268 303.047 242.751C299.663 243.234 296.895 243.828 294.741 244.531C292.588 245.234 291.006 246.054 289.995 246.992C288.999 247.929 288.501 248.991 288.501 250.178C288.501 251.145 288.743 252.001 289.226 252.749C289.724 253.496 290.435 254.125 291.357 254.638C292.28 255.136 293.401 255.517 294.719 255.781C296.038 256.03 297.517 256.154 299.158 256.154C300.125 256.154 301.121 256.103 302.146 256C303.186 255.883 304.219 255.729 305.244 255.539C306.27 255.334 307.28 255.1 308.276 254.836C309.272 254.558 310.21 254.257 311.089 253.935C311.968 253.613 312.766 253.269 313.484 252.902C314.216 252.536 314.832 252.163 315.33 251.782V241.63ZM357.429 237.082C357.429 238.591 357.18 239.924 356.682 241.081C356.199 242.238 355.43 243.212 354.375 244.003C353.32 244.794 351.958 245.395 350.288 245.805C348.633 246.201 346.633 246.398 344.29 246.398H330.732V258H327.986V227.81H344.29C346.633 227.81 348.633 228.015 350.288 228.425C351.958 228.82 353.32 229.406 354.375 230.183C355.43 230.959 356.199 231.926 356.682 233.083C357.18 234.24 357.429 235.573 357.429 237.082ZM354.595 237.082C354.595 235.646 354.353 234.489 353.87 233.61C353.401 232.731 352.668 232.058 351.672 231.589C350.691 231.105 349.438 230.783 347.915 230.622C346.406 230.461 344.612 230.38 342.532 230.38H330.732V243.828H342.532C343.337 243.828 344.194 243.835 345.103 243.85C346.025 243.85 346.934 243.806 347.827 243.718C348.721 243.615 349.57 243.447 350.376 243.212C351.196 242.963 351.914 242.59 352.529 242.092C353.159 241.594 353.657 240.942 354.023 240.136C354.404 239.331 354.595 238.312 354.595 237.082ZM395.288 256.418C394.058 256.799 392.915 257.128 391.86 257.407C390.806 257.67 389.766 257.883 388.74 258.044C387.715 258.22 386.667 258.344 385.598 258.417C384.543 258.505 383.379 258.549 382.104 258.549C379.146 258.549 376.472 258.19 374.084 257.473C371.697 256.755 369.661 255.729 367.976 254.396C366.306 253.049 365.017 251.423 364.109 249.519C363.201 247.614 362.747 245.476 362.747 243.103C362.747 240.803 363.179 238.693 364.043 236.774C364.922 234.855 366.145 233.208 367.712 231.831C369.28 230.454 371.155 229.384 373.337 228.623C375.52 227.861 377.93 227.48 380.566 227.48C383.306 227.48 385.745 227.846 387.883 228.579C390.022 229.311 391.824 230.358 393.289 231.721C394.753 233.083 395.867 234.738 396.628 236.687C397.39 238.62 397.771 240.803 397.771 243.234V243.916H365.581C365.742 245.791 366.211 247.482 366.987 248.991C367.764 250.5 368.862 251.782 370.283 252.836C371.719 253.891 373.477 254.704 375.557 255.275C377.651 255.832 380.09 256.11 382.874 256.11C384.06 256.11 385.261 256.03 386.477 255.869C387.693 255.708 388.857 255.495 389.971 255.231C391.084 254.953 392.102 254.646 393.025 254.309C393.948 253.957 394.702 253.598 395.288 253.232V256.418ZM395.068 241.521C394.966 239.982 394.622 238.518 394.036 237.126C393.45 235.72 392.571 234.482 391.399 233.413C390.242 232.343 388.762 231.494 386.96 230.864C385.173 230.234 383.027 229.919 380.522 229.919C378.164 229.919 376.099 230.234 374.326 230.864C372.554 231.494 371.052 232.343 369.822 233.413C368.591 234.467 367.625 235.698 366.921 237.104C366.218 238.496 365.771 239.968 365.581 241.521H395.068ZM428.181 230.139C427.756 230.007 427.163 229.868 426.401 229.721C425.654 229.56 424.688 229.479 423.501 229.479C421.86 229.479 420.315 229.685 418.865 230.095C417.429 230.49 416.089 231.032 414.844 231.721C413.613 232.409 412.471 233.215 411.416 234.138C410.361 235.046 409.409 236.013 408.56 237.038V258H405.813V227.81H408.56V233.962C409.541 232.951 410.603 232.021 411.746 231.171C412.903 230.322 414.119 229.597 415.393 228.996C416.667 228.381 418 227.905 419.392 227.568C420.798 227.216 422.249 227.041 423.743 227.041C424.255 227.041 424.717 227.055 425.127 227.084C425.537 227.099 425.911 227.128 426.248 227.172C426.599 227.202 426.929 227.238 427.236 227.282C427.544 227.326 427.859 227.377 428.181 227.436V230.139Z" fill="black"/>
<path d="M0 189.15H45L45 144.15H0L0 189.15ZM74.4653 160.27C73.894 159.992 73.2349 159.699 72.4878 159.391C71.7407 159.069 70.8838 158.783 69.917 158.534C68.9648 158.285 67.8882 158.08 66.687 157.919C65.4858 157.743 64.1528 157.655 62.688 157.655C60.9155 157.655 59.3335 157.758 57.9419 157.963C56.5649 158.168 55.3931 158.49 54.4263 158.93C53.4741 159.354 52.7417 159.896 52.229 160.556C51.731 161.215 51.4819 161.999 51.4819 162.907C51.4819 163.668 51.7163 164.335 52.1851 164.906C52.6685 165.478 53.313 165.983 54.1187 166.422C54.939 166.862 55.8911 167.265 56.9751 167.631C58.0737 167.982 59.231 168.319 60.4468 168.642C61.6772 168.949 62.937 169.264 64.2261 169.586C65.5298 169.909 66.7896 170.26 68.0054 170.641C69.2358 171.007 70.3931 171.425 71.4771 171.894C72.5757 172.348 73.5278 172.882 74.3335 173.498C75.1538 174.113 75.7983 174.816 76.2671 175.607C76.7505 176.398 76.9922 177.313 76.9922 178.354C76.9922 179.481 76.7798 180.47 76.355 181.32C75.9302 182.155 75.3516 182.88 74.6191 183.495C73.9014 184.096 73.0518 184.601 72.0703 185.011C71.1035 185.407 70.0635 185.722 68.9502 185.956C67.8516 186.19 66.709 186.352 65.5225 186.439C64.3506 186.542 63.1934 186.593 62.0508 186.593C59.4287 186.593 57.0483 186.403 54.9097 186.022C52.7856 185.641 50.7568 185.121 48.8232 184.462V181.1C50.8154 182.287 52.9175 183.1 55.1294 183.539C57.356 183.979 59.6924 184.198 62.1387 184.198C63.8672 184.198 65.4639 184.096 66.9287 183.891C68.3936 183.686 69.6606 183.363 70.73 182.924C71.7993 182.47 72.627 181.884 73.2129 181.166C73.8135 180.448 74.1138 179.569 74.1138 178.529C74.1138 177.694 73.8721 176.962 73.3887 176.332C72.9199 175.702 72.2754 175.153 71.4551 174.684C70.6494 174.201 69.6973 173.776 68.5986 173.41C67.5146 173.043 66.3647 172.707 65.1489 172.399C63.9331 172.077 62.6733 171.769 61.3696 171.476C60.0806 171.168 58.8281 170.839 57.6123 170.487C56.3965 170.136 55.2393 169.74 54.1406 169.301C53.0566 168.861 52.1045 168.349 51.2842 167.763C50.4785 167.162 49.834 166.474 49.3506 165.697C48.8818 164.921 48.6475 164.02 48.6475 162.995C48.6475 161.984 48.8379 161.09 49.2188 160.314C49.5996 159.523 50.1196 158.842 50.7788 158.271C51.4526 157.699 52.2363 157.223 53.1299 156.842C54.0234 156.447 54.9756 156.139 55.9863 155.919C57.0117 155.685 58.0737 155.517 59.1724 155.414C60.271 155.312 61.355 155.26 62.4243 155.26C63.5962 155.26 64.7021 155.312 65.7422 155.414C66.7969 155.517 67.8076 155.656 68.7744 155.832C69.7559 155.993 70.708 156.183 71.6309 156.403C72.5684 156.623 73.5132 156.857 74.4653 157.106V160.27ZM88.2422 155.81V160.446C88.8867 159.889 89.6045 159.296 90.3955 158.666C91.1865 158.036 92.0581 157.458 93.0103 156.93C93.9624 156.403 94.9951 155.963 96.1084 155.612C97.2217 155.26 98.4155 155.084 99.6899 155.084C101.726 155.084 103.528 155.546 105.095 156.469C106.663 157.377 107.93 158.791 108.896 160.709C109.834 159.845 110.801 159.069 111.797 158.38C112.793 157.677 113.811 157.084 114.851 156.601C115.906 156.117 116.99 155.744 118.103 155.48C119.216 155.216 120.366 155.084 121.553 155.084C123.062 155.084 124.431 155.341 125.662 155.854C126.907 156.366 127.961 157.069 128.826 157.963C129.69 158.856 130.356 159.911 130.825 161.127C131.309 162.328 131.55 163.617 131.55 164.994V186H128.804V165.697C128.804 164.437 128.65 163.317 128.342 162.335C128.049 161.339 127.581 160.497 126.936 159.809C126.306 159.12 125.493 158.6 124.497 158.249C123.516 157.882 122.336 157.699 120.959 157.699C119.861 157.699 118.77 157.86 117.686 158.183C116.616 158.49 115.591 158.908 114.609 159.435C113.628 159.948 112.712 160.534 111.863 161.193C111.013 161.852 110.266 162.533 109.622 163.236C109.695 163.646 109.731 163.998 109.731 164.291C109.746 164.584 109.753 164.936 109.753 165.346V186H107.007V165.697C107.007 164.203 106.809 162.951 106.414 161.94C106.018 160.915 105.469 160.087 104.766 159.457C104.062 158.827 103.228 158.38 102.261 158.117C101.309 157.838 100.269 157.699 99.1406 157.699C98.0713 157.699 97.0093 157.882 95.9546 158.249C94.9146 158.615 93.9185 159.091 92.9663 159.677C92.0142 160.263 91.1353 160.922 90.3296 161.654C89.5239 162.372 88.8281 163.09 88.2422 163.808V186H85.4956V155.81H88.2422ZM168.904 186V182.66C167.849 183.231 166.648 183.759 165.3 184.242C163.967 184.726 162.554 185.143 161.06 185.495C159.58 185.846 158.057 186.117 156.489 186.308C154.922 186.498 153.384 186.593 151.875 186.593C149.912 186.593 148.147 186.417 146.58 186.066C145.027 185.714 143.708 185.194 142.625 184.506C141.541 183.803 140.706 182.938 140.12 181.913C139.534 180.873 139.241 179.672 139.241 178.31C139.241 176.962 139.578 175.775 140.251 174.75C140.94 173.71 141.914 172.809 143.174 172.047C144.434 171.271 145.95 170.619 147.722 170.092C149.509 169.55 151.501 169.096 153.699 168.729C155.896 168.349 158.269 168.041 160.818 167.807C163.381 167.558 166.077 167.353 168.904 167.191V164.884C168.904 163.947 168.728 163.119 168.376 162.401C168.025 161.684 167.534 161.061 166.904 160.534C166.274 159.992 165.535 159.545 164.685 159.193C163.835 158.827 162.913 158.534 161.917 158.314C160.935 158.095 159.895 157.941 158.796 157.853C157.712 157.75 156.621 157.699 155.522 157.699C154.043 157.699 152.695 157.772 151.479 157.919C150.264 158.065 149.128 158.271 148.074 158.534C147.019 158.783 146.008 159.076 145.042 159.413C144.075 159.75 143.101 160.109 142.119 160.49V157.282C144.155 156.74 146.323 156.271 148.623 155.875C150.938 155.465 153.391 155.26 155.984 155.26C158.181 155.26 160.232 155.451 162.136 155.832C164.041 156.198 165.696 156.791 167.102 157.611C168.508 158.432 169.614 159.494 170.42 160.797C171.226 162.086 171.628 163.661 171.628 165.521V186H168.904ZM168.904 169.63C164.114 169.894 160.02 170.268 156.621 170.751C153.237 171.234 150.469 171.828 148.315 172.531C146.162 173.234 144.58 174.054 143.569 174.992C142.573 175.929 142.075 176.991 142.075 178.178C142.075 179.145 142.317 180.001 142.8 180.749C143.298 181.496 144.009 182.125 144.932 182.638C145.854 183.136 146.975 183.517 148.293 183.781C149.612 184.03 151.091 184.154 152.732 184.154C153.699 184.154 154.695 184.103 155.72 184C156.76 183.883 157.793 183.729 158.818 183.539C159.844 183.334 160.854 183.1 161.851 182.836C162.847 182.558 163.784 182.257 164.663 181.935C165.542 181.613 166.34 181.269 167.058 180.902C167.791 180.536 168.406 180.163 168.904 179.782V169.63ZM203.928 158.139C203.503 158.007 202.91 157.868 202.148 157.721C201.401 157.56 200.435 157.479 199.248 157.479C197.607 157.479 196.062 157.685 194.612 158.095C193.176 158.49 191.836 159.032 190.591 159.721C189.36 160.409 188.218 161.215 187.163 162.138C186.108 163.046 185.156 164.013 184.307 165.038V186H181.56V155.81H184.307V161.962C185.288 160.951 186.35 160.021 187.493 159.171C188.65 158.322 189.866 157.597 191.14 156.996C192.415 156.381 193.748 155.905 195.139 155.568C196.545 155.216 197.996 155.041 199.49 155.041C200.002 155.041 200.464 155.055 200.874 155.084C201.284 155.099 201.658 155.128 201.995 155.172C202.346 155.202 202.676 155.238 202.983 155.282C203.291 155.326 203.606 155.377 203.928 155.436V158.139ZM221.265 158.314V186H218.54V158.314H204.807V155.81H234.998V158.314H221.265ZM288.809 183.605C287.754 184.044 286.707 184.447 285.667 184.813C284.641 185.18 283.572 185.495 282.458 185.758C281.345 186.022 280.173 186.227 278.943 186.374C277.712 186.52 276.372 186.593 274.922 186.593C273.135 186.593 271.414 186.447 269.758 186.154C268.118 185.861 266.587 185.421 265.166 184.835C263.745 184.25 262.456 183.524 261.299 182.66C260.142 181.781 259.146 180.763 258.311 179.606C257.49 178.449 256.853 177.145 256.399 175.695C255.959 174.245 255.74 172.655 255.74 170.927C255.74 169.198 255.959 167.609 256.399 166.159C256.853 164.708 257.49 163.405 258.311 162.248C259.146 161.09 260.142 160.08 261.299 159.215C262.456 158.336 263.745 157.604 265.166 157.018C266.587 156.432 268.118 155.993 269.758 155.7C271.399 155.407 273.12 155.26 274.922 155.26C276.372 155.26 277.712 155.333 278.943 155.48C280.173 155.626 281.345 155.832 282.458 156.095C283.572 156.359 284.641 156.674 285.667 157.04C286.707 157.392 287.754 157.787 288.809 158.227V161.522C287.974 160.995 287.08 160.497 286.128 160.028C285.176 159.56 284.143 159.149 283.03 158.798C281.931 158.446 280.752 158.168 279.492 157.963C278.232 157.758 276.885 157.655 275.449 157.655C272.549 157.655 270.037 157.97 267.913 158.6C265.789 159.23 264.031 160.124 262.639 161.281C261.262 162.423 260.237 163.815 259.563 165.456C258.904 167.082 258.574 168.905 258.574 170.927C258.574 172.948 258.904 174.772 259.563 176.398C260.237 178.024 261.262 179.416 262.639 180.573C264.031 181.715 265.789 182.602 267.913 183.231C270.037 183.847 272.549 184.154 275.449 184.154C276.885 184.154 278.24 184.052 279.514 183.847C280.803 183.642 282.004 183.363 283.118 183.012C284.246 182.66 285.278 182.257 286.216 181.803C287.168 181.334 288.032 180.844 288.809 180.331V183.605ZM333.193 170.927C333.193 173.637 332.703 175.98 331.721 177.958C330.74 179.921 329.392 181.547 327.678 182.836C325.964 184.11 323.943 185.055 321.614 185.67C319.285 186.286 316.772 186.593 314.077 186.593C311.367 186.593 308.84 186.286 306.497 185.67C304.153 185.055 302.117 184.11 300.388 182.836C298.66 181.547 297.305 179.921 296.323 177.958C295.342 175.98 294.851 173.637 294.851 170.927C294.851 169.125 295.078 167.492 295.532 166.027C295.986 164.547 296.624 163.229 297.444 162.072C298.264 160.9 299.253 159.889 300.41 159.04C301.582 158.19 302.878 157.487 304.299 156.93C305.735 156.359 307.273 155.941 308.914 155.678C310.554 155.399 312.275 155.26 314.077 155.26C316.772 155.26 319.285 155.568 321.614 156.183C323.943 156.798 325.964 157.75 327.678 159.04C329.392 160.314 330.74 161.94 331.721 163.917C332.703 165.88 333.193 168.217 333.193 170.927ZM330.359 170.927C330.359 168.788 330.007 166.898 329.304 165.258C328.616 163.617 327.59 162.24 326.228 161.127C324.866 159.999 323.167 159.149 321.13 158.578C319.109 157.992 316.758 157.699 314.077 157.699C311.396 157.699 309.031 157.992 306.98 158.578C304.944 159.164 303.237 160.021 301.86 161.149C300.483 162.262 299.443 163.646 298.74 165.302C298.037 166.942 297.686 168.817 297.686 170.927C297.686 173.065 298.037 174.955 298.74 176.596C299.443 178.236 300.483 179.621 301.86 180.749C303.237 181.862 304.944 182.711 306.98 183.297C309.031 183.869 311.396 184.154 314.077 184.154C316.758 184.154 319.109 183.869 321.13 183.297C323.167 182.711 324.866 181.862 326.228 180.749C327.59 179.621 328.616 178.236 329.304 176.596C330.007 174.955 330.359 173.065 330.359 170.927ZM370.481 186V166.071C370.481 164.401 370.254 163.031 369.8 161.962C369.36 160.878 368.723 160.021 367.888 159.391C367.068 158.761 366.064 158.322 364.878 158.073C363.691 157.824 362.358 157.699 360.879 157.699C359.165 157.699 357.48 157.912 355.825 158.336C354.185 158.747 352.632 159.274 351.167 159.918C349.702 160.548 348.354 161.251 347.124 162.028C345.894 162.804 344.854 163.551 344.004 164.269V186H341.257V155.81H344.004V161.105C345.029 160.46 346.157 159.787 347.388 159.083C348.633 158.366 349.966 157.714 351.387 157.128C352.822 156.527 354.353 156.037 355.979 155.656C357.605 155.275 359.319 155.084 361.121 155.084C363.157 155.084 364.929 155.333 366.438 155.832C367.961 156.315 369.221 157.011 370.217 157.919C371.228 158.812 371.982 159.904 372.48 161.193C372.979 162.467 373.228 163.896 373.228 165.478V186H370.481ZM395.508 158.314V186H392.783V158.314H379.05V155.81H409.241V158.314H395.508ZM437.542 158.139C437.117 158.007 436.523 157.868 435.762 157.721C435.015 157.56 434.048 157.479 432.861 157.479C431.221 157.479 429.675 157.685 428.225 158.095C426.79 158.49 425.449 159.032 424.204 159.721C422.974 160.409 421.831 161.215 420.776 162.138C419.722 163.046 418.77 164.013 417.92 165.038V186H415.173V155.81H417.92V161.962C418.901 160.951 419.963 160.021 421.106 159.171C422.263 158.322 423.479 157.597 424.753 156.996C426.028 156.381 427.361 155.905 428.752 155.568C430.159 155.216 431.609 155.041 433.103 155.041C433.616 155.041 434.077 155.055 434.487 155.084C434.897 155.099 435.271 155.128 435.608 155.172C435.959 155.202 436.289 155.238 436.597 155.282C436.904 155.326 437.219 155.377 437.542 155.436V158.139ZM469.973 186V182.66C468.918 183.231 467.717 183.759 466.37 184.242C465.037 184.726 463.623 185.143 462.129 185.495C460.649 185.846 459.126 186.117 457.559 186.308C455.991 186.498 454.453 186.593 452.944 186.593C450.981 186.593 449.216 186.417 447.649 186.066C446.096 185.714 444.778 185.194 443.694 184.506C442.61 183.803 441.775 182.938 441.189 181.913C440.603 180.873 440.31 179.672 440.31 178.31C440.31 176.962 440.647 175.775 441.321 174.75C442.009 173.71 442.983 172.809 444.243 172.047C445.503 171.271 447.019 170.619 448.792 170.092C450.579 169.55 452.571 169.096 454.768 168.729C456.965 168.349 459.338 168.041 461.887 167.807C464.451 167.558 467.146 167.353 469.973 167.191V164.884C469.973 163.947 469.797 163.119 469.446 162.401C469.094 161.684 468.604 161.061 467.974 160.534C467.344 159.992 466.604 159.545 465.754 159.193C464.905 158.827 463.982 158.534 462.986 158.314C462.004 158.095 460.964 157.941 459.866 157.853C458.782 157.75 457.69 157.699 456.592 157.699C455.112 157.699 453.765 157.772 452.549 157.919C451.333 158.065 450.198 158.271 449.143 158.534C448.088 158.783 447.078 159.076 446.111 159.413C445.144 159.75 444.17 160.109 443.188 160.49V157.282C445.225 156.74 447.393 156.271 449.692 155.875C452.007 155.465 454.46 155.26 457.053 155.26C459.25 155.26 461.301 155.451 463.206 155.832C465.11 156.198 466.765 156.791 468.171 157.611C469.578 158.432 470.684 159.494 471.489 160.797C472.295 162.086 472.698 163.661 472.698 165.521V186H469.973ZM469.973 169.63C465.183 169.894 461.089 170.268 457.69 170.751C454.307 171.234 451.538 171.828 449.385 172.531C447.231 173.234 445.649 174.054 444.639 174.992C443.643 175.929 443.145 176.991 443.145 178.178C443.145 179.145 443.386 180.001 443.87 180.749C444.368 181.496 445.078 182.125 446.001 182.638C446.924 183.136 448.044 183.517 449.363 183.781C450.681 184.03 452.161 184.154 453.801 184.154C454.768 184.154 455.764 184.103 456.79 184C457.83 183.883 458.862 183.729 459.888 183.539C460.913 183.334 461.924 183.1 462.92 182.836C463.916 182.558 464.854 182.257 465.732 181.935C466.611 181.613 467.41 181.269 468.127 180.902C468.86 180.536 469.475 180.163 469.973 179.782V169.63ZM513.589 183.605C512.534 184.044 511.487 184.447 510.447 184.813C509.421 185.18 508.352 185.495 507.239 185.758C506.125 186.022 504.954 186.227 503.723 186.374C502.493 186.52 501.152 186.593 499.702 186.593C497.915 186.593 496.194 186.447 494.539 186.154C492.898 185.861 491.367 185.421 489.946 184.835C488.525 184.25 487.236 183.524 486.079 182.66C484.922 181.781 483.926 180.763 483.091 179.606C482.271 178.449 481.633 177.145 481.179 175.695C480.74 174.245 480.52 172.655 480.52 170.927C480.52 169.198 480.74 167.609 481.179 166.159C481.633 164.708 482.271 163.405 483.091 162.248C483.926 161.09 484.922 160.08 486.079 159.215C487.236 158.336 488.525 157.604 489.946 157.018C491.367 156.432 492.898 155.993 494.539 155.7C496.179 155.407 497.9 155.26 499.702 155.26C501.152 155.26 502.493 155.333 503.723 155.48C504.954 155.626 506.125 155.832 507.239 156.095C508.352 156.359 509.421 156.674 510.447 157.04C511.487 157.392 512.534 157.787 513.589 158.227V161.522C512.754 160.995 511.86 160.497 510.908 160.028C509.956 159.56 508.923 159.149 507.81 158.798C506.711 158.446 505.532 158.168 504.272 157.963C503.013 157.758 501.665 157.655 500.229 157.655C497.329 157.655 494.817 157.97 492.693 158.6C490.569 159.23 488.811 160.124 487.419 161.281C486.042 162.423 485.017 163.815 484.343 165.456C483.684 167.082 483.354 168.905 483.354 170.927C483.354 172.948 483.684 174.772 484.343 176.398C485.017 178.024 486.042 179.416 487.419 180.573C488.811 181.715 490.569 182.602 492.693 183.231C494.817 183.847 497.329 184.154 500.229 184.154C501.665 184.154 503.02 184.052 504.294 183.847C505.583 183.642 506.785 183.363 507.898 183.012C509.026 182.66 510.059 182.257 510.996 181.803C511.948 181.334 512.812 180.844 513.589 180.331V183.605ZM533.979 158.314V186H531.255V158.314H517.522V155.81H547.712V158.314H533.979Z" fill="black"/>
<path d="M1085 45.15L1130 45.15V0.15L1085 0.15V45.15ZM1148.5 28.355L1135.49 42H1132.02L1146.79 26.5093L1132.75 11.8096L1136.22 11.8096L1148.5 24.7295L1160.83 11.8096H1164.3L1150.26 26.5093L1165 42H1161.55L1148.5 28.355Z" fill="black"/>
<path d="M930 189.15H975V144.15H930V189.15ZM1007.72 186L1003.56 178.046H983.064L978.911 186H975.901L991.699 155.81H994.929L1010.73 186H1007.72ZM993.325 158.468L984.404 175.519H1002.22L993.325 158.468ZM1046.61 177.672C1046.61 178.844 1046.46 179.862 1046.15 180.727C1045.84 181.591 1045.41 182.338 1044.85 182.968C1044.31 183.583 1043.65 184.088 1042.87 184.484C1042.11 184.865 1041.27 185.172 1040.35 185.407C1039.42 185.626 1038.44 185.78 1037.38 185.868C1036.33 185.956 1035.23 186 1034.11 186H1016.68V155.81L1033.71 155.81C1034.58 155.81 1035.44 155.846 1036.3 155.919C1037.17 155.993 1038 156.132 1038.79 156.337C1039.59 156.527 1040.33 156.798 1041.01 157.15C1041.69 157.501 1042.29 157.963 1042.79 158.534C1043.3 159.105 1043.69 159.794 1043.97 160.6C1044.27 161.405 1044.41 162.357 1044.41 163.456C1044.41 164.437 1044.29 165.287 1044.04 166.005C1043.8 166.723 1043.44 167.338 1042.94 167.851C1042.46 168.363 1041.83 168.788 1041.07 169.125C1040.31 169.447 1039.42 169.704 1038.39 169.894C1039.86 169.997 1041.11 170.246 1042.15 170.641C1043.19 171.037 1044.04 171.564 1044.7 172.223C1045.36 172.882 1045.84 173.673 1046.15 174.596C1046.46 175.504 1046.61 176.53 1046.61 177.672ZM1041.84 163.5C1041.84 163.075 1041.81 162.65 1041.75 162.226C1041.69 161.801 1041.56 161.398 1041.36 161.017C1041.15 160.622 1040.85 160.255 1040.46 159.918C1040.08 159.582 1039.55 159.296 1038.87 159.062C1038.2 158.812 1037.37 158.622 1036.37 158.49C1035.39 158.344 1034.2 158.271 1032.81 158.271L1019.43 158.271V168.817L1032.81 168.817C1034.79 168.817 1036.37 168.678 1037.56 168.4C1038.74 168.107 1039.65 167.719 1040.28 167.235C1040.93 166.752 1041.34 166.188 1041.53 165.543C1041.74 164.899 1041.84 164.218 1041.84 163.5ZM1043.73 177.628C1043.73 176.486 1043.53 175.512 1043.14 174.706C1042.74 173.9 1042.13 173.241 1041.31 172.729C1040.49 172.216 1039.44 171.842 1038.15 171.608C1036.86 171.359 1035.33 171.234 1033.56 171.234L1019.43 171.234V183.517H1033.93C1035.76 183.517 1037.3 183.415 1038.54 183.209C1039.8 182.99 1040.82 182.646 1041.58 182.177C1042.35 181.693 1042.9 181.078 1043.23 180.331C1043.56 179.584 1043.73 178.683 1043.73 177.628ZM1090.58 170.927C1090.58 173.637 1090.09 175.98 1089.1 177.958C1088.12 179.921 1086.77 181.547 1085.06 182.836C1083.35 184.11 1081.33 185.055 1079 185.67C1076.67 186.286 1074.16 186.593 1071.46 186.593C1068.75 186.593 1066.22 186.286 1063.88 185.67C1061.54 185.055 1059.5 184.11 1057.77 182.836C1056.04 181.547 1054.69 179.921 1053.71 177.958C1052.72 175.98 1052.23 173.637 1052.23 170.927C1052.23 169.125 1052.46 167.492 1052.92 166.027C1053.37 164.547 1054.01 163.229 1054.83 162.072C1055.65 160.9 1056.64 159.889 1057.79 159.04C1058.96 158.19 1060.26 157.487 1061.68 156.93C1063.12 156.359 1064.66 155.941 1066.3 155.678C1067.94 155.399 1069.66 155.26 1071.46 155.26C1074.16 155.26 1076.67 155.568 1079 156.183C1081.33 156.798 1083.35 157.75 1085.06 159.04C1086.77 160.314 1088.12 161.94 1089.1 163.917C1090.09 165.88 1090.58 168.217 1090.58 170.927ZM1087.74 170.927C1087.74 168.788 1087.39 166.898 1086.69 165.258C1086 163.617 1084.97 162.24 1083.61 161.127C1082.25 159.999 1080.55 159.149 1078.51 158.578C1076.49 157.992 1074.14 157.699 1071.46 157.699C1068.78 157.699 1066.41 157.992 1064.36 158.578C1062.33 159.164 1060.62 160.021 1059.24 161.149C1057.87 162.262 1056.83 163.646 1056.12 165.302C1055.42 166.942 1055.07 168.817 1055.07 170.927C1055.07 173.065 1055.42 174.955 1056.12 176.596C1056.83 178.236 1057.87 179.621 1059.24 180.749C1060.62 181.862 1062.33 182.711 1064.36 183.297C1066.41 183.869 1068.78 184.154 1071.46 184.154C1074.14 184.154 1076.49 183.869 1078.51 183.297C1080.55 182.711 1082.25 181.862 1083.61 180.749C1084.97 179.621 1086 178.236 1086.69 176.596C1087.39 174.955 1087.74 173.065 1087.74 170.927ZM1101.3 155.81V175.739C1101.28 177.423 1101.5 178.808 1101.94 179.892C1102.38 180.976 1103.01 181.833 1103.83 182.462C1104.66 183.078 1105.66 183.51 1106.84 183.759C1108.02 183.993 1109.36 184.11 1110.83 184.11C1112.55 184.11 1114.23 183.905 1115.87 183.495C1117.51 183.07 1119.05 182.543 1120.5 181.913C1121.95 181.269 1123.28 180.558 1124.48 179.782C1125.7 179.005 1126.73 178.258 1127.58 177.541V155.81H1130.37V186H1127.58V180.683C1126.55 181.342 1125.43 182.03 1124.22 182.748C1123 183.451 1121.68 184.103 1120.26 184.704C1118.85 185.29 1117.35 185.773 1115.73 186.154C1114.12 186.535 1112.42 186.725 1110.62 186.725C1108.58 186.725 1106.8 186.469 1105.28 185.956C1103.77 185.443 1102.51 184.726 1101.5 183.803C1100.5 182.88 1099.75 181.789 1099.26 180.529C1098.76 179.254 1098.51 177.855 1098.51 176.332V155.81H1101.3ZM1152.8 158.314V186H1150.08V158.314H1136.35V155.81H1166.54V158.314H1152.8Z" fill="black"/>
<path d="M646 261.15H691V216.15H646V261.15ZM725.519 237.082C725.519 238.591 725.27 239.924 724.772 241.081C724.289 242.238 723.52 243.212 722.465 244.003C721.41 244.794 720.048 245.395 718.378 245.805C716.723 246.201 714.723 246.398 712.379 246.398H698.822V258H696.076V227.81H712.379C714.723 227.81 716.723 228.015 718.378 228.425C720.048 228.82 721.41 229.406 722.465 230.183C723.52 230.959 724.289 231.926 724.772 233.083C725.27 234.24 725.519 235.573 725.519 237.082ZM722.685 237.082C722.685 235.646 722.443 234.489 721.959 233.61C721.491 232.731 720.758 232.058 719.762 231.589C718.781 231.105 717.528 230.783 716.005 230.622C714.496 230.461 712.702 230.38 710.622 230.38H698.822V243.828H710.622C711.427 243.828 712.284 243.835 713.192 243.85C714.115 243.85 715.023 243.806 715.917 243.718C716.811 243.615 717.66 243.447 718.466 243.212C719.286 242.963 720.004 242.59 720.619 242.092C721.249 241.594 721.747 240.942 722.113 240.136C722.494 239.331 722.685 238.312 722.685 237.082ZM755.314 230.139C754.889 230.007 754.296 229.868 753.534 229.721C752.787 229.56 751.82 229.479 750.634 229.479C748.993 229.479 747.448 229.685 745.998 230.095C744.562 230.49 743.222 231.032 741.977 231.721C740.746 232.409 739.604 233.215 738.549 234.138C737.494 235.046 736.542 236.013 735.692 237.038V258H732.946V227.81H735.692V233.962C736.674 232.951 737.736 232.021 738.878 231.171C740.036 230.322 741.251 229.597 742.526 228.996C743.8 228.381 745.133 227.905 746.525 227.568C747.931 227.216 749.381 227.041 750.875 227.041C751.388 227.041 751.85 227.055 752.26 227.084C752.67 227.099 753.043 227.128 753.38 227.172C753.732 227.202 754.062 227.238 754.369 227.282C754.677 227.326 754.992 227.377 755.314 227.436V230.139ZM796.645 242.927C796.645 245.637 796.154 247.98 795.172 249.958C794.191 251.921 792.843 253.547 791.129 254.836C789.416 256.11 787.394 257.055 785.065 257.67C782.736 258.286 780.224 258.593 777.528 258.593C774.818 258.593 772.292 258.286 769.948 257.67C767.604 257.055 765.568 256.11 763.839 254.836C762.111 253.547 760.756 251.921 759.774 249.958C758.793 247.98 758.302 245.637 758.302 242.927C758.302 241.125 758.529 239.492 758.983 238.027C759.438 236.547 760.075 235.229 760.895 234.072C761.715 232.9 762.704 231.889 763.861 231.04C765.033 230.19 766.33 229.487 767.75 228.93C769.186 228.359 770.724 227.941 772.365 227.678C774.005 227.399 775.727 227.26 777.528 227.26C780.224 227.26 782.736 227.568 785.065 228.183C787.394 228.798 789.416 229.75 791.129 231.04C792.843 232.314 794.191 233.94 795.172 235.917C796.154 237.88 796.645 240.217 796.645 242.927ZM793.81 242.927C793.81 240.788 793.458 238.898 792.755 237.258C792.067 235.617 791.042 234.24 789.679 233.127C788.317 231.999 786.618 231.149 784.582 230.578C782.56 229.992 780.209 229.699 777.528 229.699C774.848 229.699 772.482 229.992 770.431 230.578C768.395 231.164 766.688 232.021 765.312 233.149C763.935 234.262 762.895 235.646 762.191 237.302C761.488 238.942 761.137 240.817 761.137 242.927C761.137 245.065 761.488 246.955 762.191 248.596C762.895 250.236 763.935 251.621 765.312 252.749C766.688 253.862 768.395 254.711 770.431 255.297C772.482 255.869 774.848 256.154 777.528 256.154C780.209 256.154 782.56 255.869 784.582 255.297C786.618 254.711 788.317 253.862 789.679 252.749C791.042 251.621 792.067 250.236 792.755 248.596C793.458 246.955 793.81 245.065 793.81 242.927ZM837.667 242.883C837.667 244.816 837.462 246.538 837.052 248.046C836.657 249.541 836.093 250.844 835.36 251.958C834.628 253.071 833.734 254.016 832.68 254.792C831.64 255.568 830.475 256.191 829.186 256.66C827.912 257.128 826.52 257.473 825.011 257.692C823.517 257.897 821.942 258 820.287 258H804.708V227.81H820.243C822.719 227.81 825.019 228.051 827.143 228.535C829.267 229.018 831.105 229.846 832.658 231.018C834.225 232.175 835.448 233.72 836.327 235.654C837.221 237.587 837.667 239.997 837.667 242.883ZM834.833 242.883C834.833 241.242 834.672 239.792 834.35 238.532C834.027 237.272 833.566 236.181 832.965 235.258C832.365 234.321 831.632 233.537 830.768 232.907C829.904 232.277 828.93 231.772 827.846 231.391C826.762 230.996 825.583 230.717 824.308 230.556C823.034 230.395 821.679 230.314 820.243 230.314H807.455V255.473H820.243C822.396 255.473 824.367 255.283 826.154 254.902C827.941 254.506 829.472 253.833 830.746 252.88C832.035 251.914 833.039 250.625 833.756 249.013C834.474 247.387 834.833 245.344 834.833 242.883ZM848.324 227.81V247.739C848.31 249.423 848.522 250.808 848.961 251.892C849.401 252.976 850.031 253.833 850.851 254.462C851.686 255.078 852.689 255.51 853.861 255.759C855.048 255.993 856.381 256.11 857.86 256.11C859.574 256.11 861.251 255.905 862.892 255.495C864.533 255.07 866.078 254.543 867.528 253.913C868.979 253.269 870.304 252.558 871.505 251.782C872.721 251.005 873.754 250.258 874.604 249.541V227.81H877.394V258H874.604V252.683C873.578 253.342 872.458 254.03 871.242 254.748C870.026 255.451 868.708 256.103 867.287 256.704C865.88 257.29 864.372 257.773 862.76 258.154C861.149 258.535 859.442 258.725 857.641 258.725C855.604 258.725 853.825 258.469 852.301 257.956C850.792 257.443 849.533 256.726 848.522 255.803C847.526 254.88 846.779 253.789 846.281 252.529C845.783 251.254 845.534 249.855 845.534 248.332V227.81H848.324ZM918.549 255.605C917.494 256.044 916.447 256.447 915.407 256.813C914.381 257.18 913.312 257.495 912.199 257.758C911.085 258.022 909.914 258.227 908.683 258.374C907.453 258.52 906.112 258.593 904.662 258.593C902.875 258.593 901.154 258.447 899.499 258.154C897.858 257.861 896.327 257.421 894.906 256.835C893.485 256.25 892.196 255.524 891.039 254.66C889.882 253.781 888.886 252.763 888.051 251.606C887.23 250.449 886.593 249.145 886.139 247.695C885.7 246.245 885.48 244.655 885.48 242.927C885.48 241.198 885.7 239.609 886.139 238.159C886.593 236.708 887.23 235.405 888.051 234.248C888.886 233.09 889.882 232.08 891.039 231.215C892.196 230.336 893.485 229.604 894.906 229.018C896.327 228.432 897.858 227.993 899.499 227.7C901.139 227.407 902.86 227.26 904.662 227.26C906.112 227.26 907.453 227.333 908.683 227.48C909.914 227.626 911.085 227.832 912.199 228.095C913.312 228.359 914.381 228.674 915.407 229.04C916.447 229.392 917.494 229.787 918.549 230.227V233.522C917.714 232.995 916.82 232.497 915.868 232.028C914.916 231.56 913.883 231.149 912.77 230.798C911.671 230.446 910.492 230.168 909.232 229.963C907.973 229.758 906.625 229.655 905.189 229.655C902.289 229.655 899.777 229.97 897.653 230.6C895.529 231.23 893.771 232.124 892.379 233.281C891.002 234.423 889.977 235.815 889.303 237.456C888.644 239.082 888.314 240.905 888.314 242.927C888.314 244.948 888.644 246.772 889.303 248.398C889.977 250.024 891.002 251.416 892.379 252.573C893.771 253.715 895.529 254.602 897.653 255.231C899.777 255.847 902.289 256.154 905.189 256.154C906.625 256.154 907.98 256.052 909.254 255.847C910.543 255.642 911.745 255.363 912.858 255.012C913.986 254.66 915.019 254.257 915.956 253.803C916.908 253.334 917.772 252.844 918.549 252.331V255.605ZM938.939 230.314V258H936.215V230.314H922.482V227.81H952.672V230.314H938.939ZM982.995 232.27C982.423 231.992 981.764 231.699 981.017 231.391C980.27 231.069 979.413 230.783 978.446 230.534C977.494 230.285 976.417 230.08 975.216 229.919C974.015 229.743 972.682 229.655 971.217 229.655C969.445 229.655 967.863 229.758 966.471 229.963C965.094 230.168 963.922 230.49 962.956 230.93C962.003 231.354 961.271 231.896 960.758 232.556C960.26 233.215 960.011 233.999 960.011 234.907C960.011 235.668 960.246 236.335 960.714 236.906C961.198 237.478 961.842 237.983 962.648 238.422C963.468 238.862 964.42 239.265 965.504 239.631C966.603 239.982 967.76 240.319 968.976 240.642C970.207 240.949 971.466 241.264 972.755 241.586C974.059 241.909 975.319 242.26 976.535 242.641C977.765 243.007 978.922 243.425 980.006 243.894C981.105 244.348 982.057 244.882 982.863 245.498C983.683 246.113 984.328 246.816 984.796 247.607C985.28 248.398 985.521 249.313 985.521 250.354C985.521 251.481 985.309 252.47 984.884 253.32C984.459 254.155 983.881 254.88 983.148 255.495C982.431 256.096 981.581 256.601 980.6 257.011C979.633 257.407 978.593 257.722 977.479 257.956C976.381 258.19 975.238 258.352 974.052 258.439C972.88 258.542 971.723 258.593 970.58 258.593C967.958 258.593 965.578 258.403 963.439 258.022C961.315 257.641 959.286 257.121 957.353 256.462V253.1C959.345 254.287 961.447 255.1 963.659 255.539C965.885 255.979 968.222 256.198 970.668 256.198C972.396 256.198 973.993 256.096 975.458 255.891C976.923 255.686 978.19 255.363 979.259 254.924C980.329 254.47 981.156 253.884 981.742 253.166C982.343 252.448 982.643 251.569 982.643 250.529C982.643 249.694 982.401 248.962 981.918 248.332C981.449 247.702 980.805 247.153 979.984 246.684C979.179 246.201 978.227 245.776 977.128 245.41C976.044 245.043 974.894 244.707 973.678 244.399C972.462 244.077 971.203 243.769 969.899 243.476C968.61 243.168 967.357 242.839 966.142 242.487C964.926 242.136 963.769 241.74 962.67 241.301C961.586 240.861 960.634 240.349 959.813 239.763C959.008 239.162 958.363 238.474 957.88 237.697C957.411 236.921 957.177 236.02 957.177 234.995C957.177 233.984 957.367 233.09 957.748 232.314C958.129 231.523 958.649 230.842 959.308 230.271C959.982 229.699 960.766 229.223 961.659 228.842C962.553 228.447 963.505 228.139 964.516 227.919C965.541 227.685 966.603 227.517 967.702 227.414C968.8 227.312 969.884 227.26 970.954 227.26C972.125 227.26 973.231 227.312 974.271 227.414C975.326 227.517 976.337 227.656 977.304 227.832C978.285 227.993 979.237 228.183 980.16 228.403C981.098 228.623 982.042 228.857 982.995 229.106V232.27Z" fill="black"/>
<path d="M1014 261.15H1059V216.15H1014V261.15ZM1064.08 258V227.81H1066.82V258H1064.08ZM1115.38 258V232.314L1098.79 258H1096.35L1079.74 232.204V258H1077V227.81H1079.94L1097.65 255.166L1115.16 227.81H1118.08V258H1115.38ZM1164.51 242.927C1164.51 245.637 1164.02 247.98 1163.04 249.958C1162.06 251.921 1160.71 253.547 1159 254.836C1157.28 256.11 1155.26 257.055 1152.93 257.67C1150.6 258.286 1148.09 258.593 1145.4 258.593C1142.69 258.593 1140.16 258.286 1137.82 257.67C1135.47 257.055 1133.44 256.11 1131.71 254.836C1129.98 253.547 1128.62 251.921 1127.64 249.958C1126.66 247.98 1126.17 245.637 1126.17 242.927C1126.17 241.125 1126.4 239.492 1126.85 238.027C1127.31 236.547 1127.94 235.229 1128.76 234.072C1129.58 232.9 1130.57 231.889 1131.73 231.04C1132.9 230.19 1134.2 229.487 1135.62 228.93C1137.05 228.359 1138.59 227.941 1140.23 227.678C1141.87 227.399 1143.59 227.26 1145.4 227.26C1148.09 227.26 1150.6 227.568 1152.93 228.183C1155.26 228.798 1157.28 229.75 1159 231.04C1160.71 232.314 1162.06 233.94 1163.04 235.917C1164.02 237.88 1164.51 240.217 1164.51 242.927ZM1161.68 242.927C1161.68 240.788 1161.33 238.898 1160.62 237.258C1159.94 235.617 1158.91 234.24 1157.55 233.127C1156.19 231.999 1154.49 231.149 1152.45 230.578C1150.43 229.992 1148.08 229.699 1145.4 229.699C1142.72 229.699 1140.35 229.992 1138.3 230.578C1136.26 231.164 1134.56 232.021 1133.18 233.149C1131.8 234.262 1130.76 235.646 1130.06 237.302C1129.36 238.942 1129 240.817 1129 242.927C1129 245.065 1129.36 246.955 1130.06 248.596C1130.76 250.236 1131.8 251.621 1133.18 252.749C1134.56 253.862 1136.26 254.711 1138.3 255.297C1140.35 255.869 1142.72 256.154 1145.4 256.154C1148.08 256.154 1150.43 255.869 1152.45 255.297C1154.49 254.711 1156.19 253.862 1157.55 252.749C1158.91 251.621 1159.94 250.236 1160.62 248.596C1161.33 246.955 1161.68 245.065 1161.68 242.927Z" fill="black"/>
<path d="M552 123.15H597V78.15L552 78.15V123.15ZM633.035 117.605C631.98 118.044 630.933 118.447 629.893 118.813C628.868 119.18 627.798 119.495 626.685 119.758C625.572 120.022 624.4 120.227 623.169 120.374C621.939 120.52 620.599 120.593 619.148 120.593C617.361 120.593 615.64 120.447 613.985 120.154C612.344 119.861 610.813 119.421 609.393 118.835C607.972 118.25 606.683 117.524 605.525 116.66C604.368 115.781 603.372 114.763 602.537 113.606C601.717 112.449 601.08 111.145 600.625 109.695C600.186 108.245 599.966 106.655 599.966 104.927C599.966 103.198 600.186 101.609 600.625 100.159C601.08 98.7085 601.717 97.4048 602.537 96.2476C603.372 95.0903 604.368 94.0796 605.525 93.2153C606.683 92.3364 607.972 91.604 609.393 91.0181C610.813 90.4321 612.344 89.9927 613.985 89.6997C615.625 89.4067 617.347 89.2603 619.148 89.2603C620.599 89.2603 621.939 89.3335 623.169 89.48C624.4 89.6265 625.572 89.8315 626.685 90.0952C627.798 90.3589 628.868 90.6738 629.893 91.04C630.933 91.3916 631.98 91.7871 633.035 92.2266V95.5225C632.2 94.9951 631.307 94.4971 630.354 94.0283C629.402 93.5596 628.37 93.1494 627.256 92.7979C626.158 92.4463 624.979 92.168 623.719 91.9629C622.459 91.7578 621.111 91.6553 619.676 91.6553C616.775 91.6553 614.263 91.9702 612.139 92.6001C610.015 93.23 608.257 94.1235 606.866 95.2808C605.489 96.4233 604.463 97.8149 603.79 99.4556C603.13 101.082 602.801 102.905 602.801 104.927C602.801 106.948 603.13 108.772 603.79 110.398C604.463 112.024 605.489 113.416 606.866 114.573C608.257 115.715 610.015 116.602 612.139 117.231C614.263 117.847 616.775 118.154 619.676 118.154C621.111 118.154 622.466 118.052 623.741 117.847C625.03 117.642 626.231 117.363 627.344 117.012C628.472 116.66 629.505 116.257 630.442 115.803C631.395 115.334 632.259 114.844 633.035 114.331V117.605ZM677.42 104.927C677.42 107.637 676.929 109.98 675.948 111.958C674.966 113.921 673.619 115.547 671.905 116.836C670.191 118.11 668.169 119.055 665.84 119.67C663.511 120.286 660.999 120.593 658.304 120.593C655.594 120.593 653.067 120.286 650.723 119.67C648.379 119.055 646.343 118.11 644.615 116.836C642.886 115.547 641.531 113.921 640.55 111.958C639.568 109.98 639.078 107.637 639.078 104.927C639.078 103.125 639.305 101.492 639.759 100.027C640.213 98.5474 640.85 97.229 641.67 96.0718C642.491 94.8999 643.479 93.8892 644.637 93.0396C645.809 92.1899 647.105 91.4868 648.526 90.9302C649.961 90.3589 651.5 89.9414 653.14 89.6777C654.781 89.3994 656.502 89.2603 658.304 89.2603C660.999 89.2603 663.511 89.5679 665.84 90.1831C668.169 90.7983 670.191 91.7505 671.905 93.0396C673.619 94.314 674.966 95.9399 675.948 97.9175C676.929 99.8804 677.42 102.217 677.42 104.927ZM674.585 104.927C674.585 102.788 674.234 100.898 673.531 99.2578C672.842 97.6172 671.817 96.2402 670.455 95.127C669.092 93.999 667.393 93.1494 665.357 92.5781C663.335 91.9922 660.984 91.6992 658.304 91.6992C655.623 91.6992 653.257 91.9922 651.207 92.5781C649.17 93.1641 647.464 94.021 646.087 95.1489C644.71 96.2622 643.67 97.6465 642.967 99.3018C642.264 100.942 641.912 102.817 641.912 104.927C641.912 107.065 642.264 108.955 642.967 110.596C643.67 112.236 644.71 113.621 646.087 114.749C647.464 115.862 649.17 116.711 651.207 117.297C653.257 117.869 655.623 118.154 658.304 118.154C660.984 118.154 663.335 117.869 665.357 117.297C667.393 116.711 669.092 115.862 670.455 114.749C671.817 113.621 672.842 112.236 673.531 110.596C674.234 108.955 674.585 107.065 674.585 104.927ZM714.708 120V100.071C714.708 98.4009 714.48 97.0312 714.026 95.9619C713.587 94.8779 712.95 94.021 712.115 93.3911C711.294 92.7612 710.291 92.3218 709.104 92.0728C707.918 91.8237 706.585 91.6992 705.105 91.6992C703.392 91.6992 701.707 91.9116 700.052 92.3364C698.411 92.7466 696.858 93.2739 695.394 93.9185C693.929 94.5483 692.581 95.2515 691.351 96.0278C690.12 96.8042 689.08 97.5513 688.23 98.269V120H685.484V89.8096H688.23V95.105C689.256 94.4604 690.384 93.7866 691.614 93.0835C692.859 92.3657 694.192 91.7139 695.613 91.1279C697.049 90.5273 698.58 90.0366 700.206 89.6558C701.832 89.2749 703.545 89.0845 705.347 89.0845C707.383 89.0845 709.156 89.3335 710.665 89.8315C712.188 90.3149 713.448 91.0107 714.444 91.9189C715.455 92.8125 716.209 93.9038 716.707 95.1929C717.205 96.4673 717.454 97.8955 717.454 99.4775V120H714.708ZM739.734 92.3145V120H737.01V92.3145H723.277V89.8096H753.467V92.3145H739.734ZM786.734 120V116.66C785.679 117.231 784.478 117.759 783.13 118.242C781.797 118.726 780.384 119.143 778.89 119.495C777.41 119.846 775.887 120.117 774.319 120.308C772.752 120.498 771.214 120.593 769.705 120.593C767.742 120.593 765.977 120.417 764.41 120.066C762.857 119.714 761.539 119.194 760.455 118.506C759.371 117.803 758.536 116.938 757.95 115.913C757.364 114.873 757.071 113.672 757.071 112.31C757.071 110.962 757.408 109.775 758.082 108.75C758.77 107.71 759.744 106.809 761.004 106.047C762.264 105.271 763.78 104.619 765.552 104.092C767.339 103.55 769.332 103.096 771.529 102.729C773.726 102.349 776.099 102.041 778.648 101.807C781.211 101.558 783.907 101.353 786.734 101.191V98.8843C786.734 97.9468 786.558 97.1191 786.207 96.4014C785.855 95.6836 785.364 95.061 784.734 94.5337C784.104 93.9917 783.365 93.5449 782.515 93.1934C781.666 92.8271 780.743 92.5342 779.747 92.3145C778.765 92.0947 777.725 91.9409 776.626 91.853C775.542 91.7505 774.451 91.6992 773.353 91.6992C771.873 91.6992 770.525 91.7725 769.31 91.9189C768.094 92.0654 766.958 92.2705 765.904 92.5342C764.849 92.7832 763.838 93.0762 762.872 93.4131C761.905 93.75 760.931 94.1089 759.949 94.4897V91.2817C761.985 90.7397 764.153 90.271 766.453 89.8755C768.768 89.4653 771.221 89.2603 773.814 89.2603C776.011 89.2603 778.062 89.4507 779.966 89.8315C781.871 90.1978 783.526 90.791 784.932 91.6113C786.338 92.4316 787.444 93.4937 788.25 94.7974C789.056 96.0864 789.458 97.6611 789.458 99.5215V120H786.734ZM786.734 103.63C781.944 103.894 777.85 104.268 774.451 104.751C771.067 105.234 768.299 105.828 766.146 106.531C763.992 107.234 762.41 108.054 761.399 108.992C760.403 109.929 759.905 110.991 759.905 112.178C759.905 113.145 760.147 114.001 760.63 114.749C761.128 115.496 761.839 116.125 762.762 116.638C763.685 117.136 764.805 117.517 766.124 117.781C767.442 118.03 768.921 118.154 770.562 118.154C771.529 118.154 772.525 118.103 773.55 118C774.59 117.883 775.623 117.729 776.648 117.539C777.674 117.334 778.685 117.1 779.681 116.836C780.677 116.558 781.614 116.257 782.493 115.935C783.372 115.613 784.17 115.269 784.888 114.902C785.621 114.536 786.236 114.163 786.734 113.782V103.63ZM830.35 117.605C829.295 118.044 828.248 118.447 827.208 118.813C826.182 119.18 825.113 119.495 824 119.758C822.886 120.022 821.714 120.227 820.484 120.374C819.253 120.52 817.913 120.593 816.463 120.593C814.676 120.593 812.955 120.447 811.299 120.154C809.659 119.861 808.128 119.421 806.707 118.835C805.286 118.25 803.997 117.524 802.84 116.66C801.683 115.781 800.687 114.763 799.852 113.606C799.031 112.449 798.394 111.145 797.94 109.695C797.5 108.245 797.281 106.655 797.281 104.927C797.281 103.198 797.5 101.609 797.94 100.159C798.394 98.7085 799.031 97.4048 799.852 96.2476C800.687 95.0903 801.683 94.0796 802.84 93.2153C803.997 92.3364 805.286 91.604 806.707 91.0181C808.128 90.4321 809.659 89.9927 811.299 89.6997C812.94 89.4067 814.661 89.2603 816.463 89.2603C817.913 89.2603 819.253 89.3335 820.484 89.48C821.714 89.6265 822.886 89.8315 824 90.0952C825.113 90.3589 826.182 90.6738 827.208 91.04C828.248 91.3916 829.295 91.7871 830.35 92.2266V95.5225C829.515 94.9951 828.621 94.4971 827.669 94.0283C826.717 93.5596 825.684 93.1494 824.571 92.7979C823.472 92.4463 822.293 92.168 821.033 91.9629C819.773 91.7578 818.426 91.6553 816.99 91.6553C814.09 91.6553 811.578 91.9702 809.454 92.6001C807.33 93.23 805.572 94.1235 804.18 95.2808C802.803 96.4233 801.778 97.8149 801.104 99.4556C800.445 101.082 800.115 102.905 800.115 104.927C800.115 106.948 800.445 108.772 801.104 110.398C801.778 112.024 802.803 113.416 804.18 114.573C805.572 115.715 807.33 116.602 809.454 117.231C811.578 117.847 814.09 118.154 816.99 118.154C818.426 118.154 819.781 118.052 821.055 117.847C822.344 117.642 823.545 117.363 824.659 117.012C825.787 116.66 826.819 116.257 827.757 115.803C828.709 115.334 829.573 114.844 830.35 114.331V117.605ZM850.74 92.3145V120H848.016V92.3145H834.283V89.8096L864.473 89.8096V92.3145L850.74 92.3145Z" fill="black"/>
<path d="M242 123.15H287V78.15L242 78.15V123.15ZM325.035 104.883C325.035 106.816 324.83 108.538 324.419 110.046C324.024 111.541 323.46 112.844 322.728 113.958C321.995 115.071 321.102 116.016 320.047 116.792C319.007 117.568 317.842 118.191 316.553 118.66C315.279 119.128 313.887 119.473 312.378 119.692C310.884 119.897 309.31 120 307.654 120H292.076V89.8096H307.61C310.086 89.8096 312.386 90.0513 314.51 90.5347C316.634 91.0181 318.472 91.8457 320.025 93.0176C321.592 94.1748 322.815 95.7202 323.694 97.6538C324.588 99.5874 325.035 101.997 325.035 104.883ZM322.2 104.883C322.2 103.242 322.039 101.792 321.717 100.532C321.395 99.2725 320.933 98.1812 320.333 97.2583C319.732 96.3208 319 95.5371 318.135 94.9072C317.271 94.2773 316.297 93.772 315.213 93.3911C314.129 92.9956 312.95 92.7173 311.675 92.5562C310.401 92.395 309.046 92.3145 307.61 92.3145H294.822V117.473H307.61C309.764 117.473 311.734 117.283 313.521 116.902C315.308 116.506 316.839 115.833 318.113 114.88C319.402 113.914 320.406 112.625 321.124 111.013C321.841 109.387 322.2 107.344 322.2 104.883ZM333.033 120V89.8096H335.779V120H333.033ZM370.342 94.27C369.771 93.9917 369.112 93.6987 368.365 93.3911C367.618 93.0688 366.761 92.7832 365.794 92.5342C364.842 92.2852 363.765 92.0801 362.564 91.9189C361.363 91.7432 360.03 91.6553 358.565 91.6553C356.792 91.6553 355.21 91.7578 353.819 91.9629C352.442 92.168 351.27 92.4902 350.303 92.9297C349.351 93.3545 348.619 93.8965 348.106 94.5557C347.608 95.2148 347.359 95.9985 347.359 96.9067C347.359 97.6685 347.593 98.335 348.062 98.9062C348.545 99.4775 349.19 99.9829 349.996 100.422C350.816 100.862 351.768 101.265 352.852 101.631C353.951 101.982 355.108 102.319 356.324 102.642C357.554 102.949 358.814 103.264 360.103 103.586C361.407 103.909 362.667 104.26 363.882 104.641C365.113 105.007 366.27 105.425 367.354 105.894C368.453 106.348 369.405 106.882 370.21 107.498C371.031 108.113 371.675 108.816 372.144 109.607C372.627 110.398 372.869 111.313 372.869 112.354C372.869 113.481 372.657 114.47 372.232 115.32C371.807 116.155 371.229 116.88 370.496 117.495C369.778 118.096 368.929 118.601 367.947 119.011C366.98 119.407 365.94 119.722 364.827 119.956C363.729 120.19 362.586 120.352 361.399 120.439C360.228 120.542 359.07 120.593 357.928 120.593C355.306 120.593 352.925 120.403 350.787 120.022C348.663 119.641 346.634 119.121 344.7 118.462V115.1C346.692 116.287 348.794 117.1 351.006 117.539C353.233 117.979 355.569 118.198 358.016 118.198C359.744 118.198 361.341 118.096 362.806 117.891C364.271 117.686 365.538 117.363 366.607 116.924C367.676 116.47 368.504 115.884 369.09 115.166C369.69 114.448 369.991 113.569 369.991 112.529C369.991 111.694 369.749 110.962 369.266 110.332C368.797 109.702 368.152 109.153 367.332 108.684C366.526 108.201 365.574 107.776 364.476 107.41C363.392 107.043 362.242 106.707 361.026 106.399C359.81 106.077 358.55 105.769 357.247 105.476C355.958 105.168 354.705 104.839 353.489 104.487C352.273 104.136 351.116 103.74 350.018 103.301C348.934 102.861 347.981 102.349 347.161 101.763C346.355 101.162 345.711 100.474 345.228 99.6973C344.759 98.9209 344.524 98.02 344.524 96.9946C344.524 95.9839 344.715 95.0903 345.096 94.314C345.477 93.5229 345.997 92.8418 346.656 92.2705C347.33 91.6992 348.113 91.2231 349.007 90.8423C349.9 90.4468 350.853 90.1392 351.863 89.9194C352.889 89.6851 353.951 89.5166 355.049 89.4141C356.148 89.3115 357.232 89.2603 358.301 89.2603C359.473 89.2603 360.579 89.3115 361.619 89.4141C362.674 89.5166 363.685 89.6558 364.651 89.8315C365.633 89.9927 366.585 90.1831 367.508 90.4028C368.445 90.6226 369.39 90.8569 370.342 91.106V94.27ZM412.332 117.605C411.277 118.044 410.23 118.447 409.19 118.813C408.165 119.18 407.095 119.495 405.982 119.758C404.869 120.022 403.697 120.227 402.466 120.374C401.236 120.52 399.896 120.593 398.445 120.593C396.658 120.593 394.937 120.447 393.282 120.154C391.641 119.861 390.11 119.421 388.689 118.835C387.269 118.25 385.979 117.524 384.822 116.66C383.665 115.781 382.669 114.763 381.834 113.606C381.014 112.449 380.376 111.145 379.922 109.695C379.483 108.245 379.263 106.655 379.263 104.927C379.263 103.198 379.483 101.609 379.922 100.159C380.376 98.7085 381.014 97.4048 381.834 96.2476C382.669 95.0903 383.665 94.0796 384.822 93.2153C385.979 92.3364 387.269 91.604 388.689 91.0181C390.11 90.4321 391.641 89.9927 393.282 89.6997C394.922 89.4067 396.644 89.2603 398.445 89.2603C399.896 89.2603 401.236 89.3335 402.466 89.48C403.697 89.6265 404.869 89.8315 405.982 90.0952C407.095 90.3589 408.165 90.6738 409.19 91.04C410.23 91.3916 411.277 91.7871 412.332 92.2266V95.5225C411.497 94.9951 410.604 94.4971 409.651 94.0283C408.699 93.5596 407.667 93.1494 406.553 92.7979C405.455 92.4463 404.275 92.168 403.016 91.9629C401.756 91.7578 400.408 91.6553 398.973 91.6553C396.072 91.6553 393.56 91.9702 391.436 92.6001C389.312 93.23 387.554 94.1235 386.163 95.2808C384.786 96.4233 383.76 97.8149 383.086 99.4556C382.427 101.082 382.098 102.905 382.098 104.927C382.098 106.948 382.427 108.772 383.086 110.398C383.76 112.024 384.786 113.416 386.163 114.573C387.554 115.715 389.312 116.602 391.436 117.231C393.56 117.847 396.072 118.154 398.973 118.154C400.408 118.154 401.763 118.052 403.038 117.847C404.327 117.642 405.528 117.363 406.641 117.012C407.769 116.66 408.802 116.257 409.739 115.803C410.691 115.334 411.556 114.844 412.332 114.331V117.605ZM456.717 104.927C456.717 107.637 456.226 109.98 455.245 111.958C454.263 113.921 452.916 115.547 451.202 116.836C449.488 118.11 447.466 119.055 445.137 119.67C442.808 120.286 440.296 120.593 437.601 120.593C434.891 120.593 432.364 120.286 430.02 119.67C427.676 119.055 425.64 118.11 423.912 116.836C422.183 115.547 420.828 113.921 419.847 111.958C418.865 109.98 418.375 107.637 418.375 104.927C418.375 103.125 418.602 101.492 419.056 100.027C419.51 98.5474 420.147 97.229 420.967 96.0718C421.788 94.8999 422.776 93.8892 423.934 93.0396C425.105 92.1899 426.402 91.4868 427.823 90.9302C429.258 90.3589 430.796 89.9414 432.437 89.6777C434.078 89.3994 435.799 89.2603 437.601 89.2603C440.296 89.2603 442.808 89.5679 445.137 90.1831C447.466 90.7983 449.488 91.7505 451.202 93.0396C452.916 94.314 454.263 95.9399 455.245 97.9175C456.226 99.8804 456.717 102.217 456.717 104.927ZM453.882 104.927C453.882 102.788 453.531 100.898 452.828 99.2578C452.139 97.6172 451.114 96.2402 449.751 95.127C448.389 93.999 446.69 93.1494 444.654 92.5781C442.632 91.9922 440.281 91.6992 437.601 91.6992C434.92 91.6992 432.554 91.9922 430.503 92.5781C428.467 93.1641 426.761 94.021 425.384 95.1489C424.007 96.2622 422.967 97.6465 422.264 99.3018C421.561 100.942 421.209 102.817 421.209 104.927C421.209 107.065 421.561 108.955 422.264 110.596C422.967 112.236 424.007 113.621 425.384 114.749C426.761 115.862 428.467 116.711 430.503 117.297C432.554 117.869 434.92 118.154 437.601 118.154C440.281 118.154 442.632 117.869 444.654 117.297C446.69 116.711 448.389 115.862 449.751 114.749C451.114 113.621 452.139 112.236 452.828 110.596C453.531 108.955 453.882 107.065 453.882 104.927ZM487.149 92.1387C486.724 92.0068 486.131 91.8677 485.369 91.7212C484.622 91.5601 483.655 91.4795 482.469 91.4795C480.828 91.4795 479.283 91.6846 477.833 92.0947C476.397 92.4902 475.057 93.0322 473.812 93.7207C472.581 94.4092 471.438 95.2148 470.384 96.1377C469.329 97.0459 468.377 98.0127 467.527 99.0381V120H464.781V89.8096H467.527V95.9619C468.509 94.9512 469.571 94.021 470.713 93.1714C471.871 92.3218 473.086 91.5967 474.361 90.9961C475.635 90.3809 476.968 89.9048 478.36 89.5679C479.766 89.2163 481.216 89.0405 482.71 89.0405C483.223 89.0405 483.685 89.0552 484.095 89.0845C484.505 89.0991 484.878 89.1284 485.215 89.1724C485.567 89.2017 485.896 89.2383 486.204 89.2822C486.512 89.3262 486.827 89.3774 487.149 89.436V92.1387ZM525.206 104.883C525.206 106.816 525 108.538 524.59 110.046C524.195 111.541 523.631 112.844 522.898 113.958C522.166 115.071 521.272 116.016 520.218 116.792C519.178 117.568 518.013 118.191 516.724 118.66C515.45 119.128 514.058 119.473 512.549 119.692C511.055 119.897 509.48 120 507.825 120H492.247V89.8096H507.781C510.257 89.8096 512.557 90.0513 514.681 90.5347C516.805 91.0181 518.643 91.8457 520.196 93.0176C521.763 94.1748 522.986 95.7202 523.865 97.6538C524.759 99.5874 525.206 101.997 525.206 104.883ZM522.371 104.883C522.371 103.242 522.21 101.792 521.888 100.532C521.565 99.2725 521.104 98.1812 520.503 97.2583C519.903 96.3208 519.17 95.5371 518.306 94.9072C517.442 94.2773 516.468 93.772 515.384 93.3911C514.3 92.9956 513.121 92.7173 511.846 92.5562C510.572 92.395 509.217 92.3145 507.781 92.3145H494.993V117.473H507.781C509.935 117.473 511.905 117.283 513.692 116.902C515.479 116.506 517.01 115.833 518.284 114.88C519.573 113.914 520.577 112.625 521.294 111.013C522.012 109.387 522.371 107.344 522.371 104.883Z" fill="black"/>
<rect x="548" y="8" width="36" height="36" fill="white"/>
<rect x="709" y="8" width="36" height="36" fill="white"/>
<rect x="594" y="8" width="11.381" height="36" fill="white"/>
<rect x="617" y="8" width="11.381" height="36" fill="white"/>
<rect x="640" y="8" width="11.381" height="36" fill="white"/>
<rect x="663" y="8" width="11.381" height="36" fill="white"/>
<rect x="686" y="8" width="11.381" height="36" fill="white"/>
<rect x="841" y="8" width="36" height="36" fill="white"/>
<rect x="933" y="8" width="36" height="36" fill="white"/>
<rect x="1025" y="8" width="36" height="36" fill="white"/>
<rect x="887" y="8" width="11.381" height="36" fill="white"/>
<rect x="910" y="8" width="11.381" height="36" fill="white"/>
<rect x="979" y="8" width="11.381" height="36" fill="white"/>
<rect x="1002" y="8" width="11.381" height="36" fill="white"/>
<rect x="889" y="86" width="34.1429" height="36" fill="white"/>
<rect x="981" y="86" width="34.1429" height="36" fill="white"/>
<rect x="1027" y="86" width="34.1429" height="36" fill="white"/>
<rect x="1073" y="86" width="34.1429" height="36" fill="white"/>
<rect x="935" y="86" width="11.381" height="36" fill="white"/>
<rect x="958" y="86" width="11.381" height="36" fill="white"/>
<rect x="1119" y="86" width="11.381" height="36" fill="white"/>
<rect y="86" width="36" height="36" fill="white"/>
<rect x="115" y="86" width="36" height="36" fill="white"/>
<rect x="161" y="86" width="36" height="36" fill="white"/>
<rect x="46" y="86" width="11.381" height="36" fill="white"/>
<rect x="69" y="86" width="11.381" height="36" fill="white"/>
<rect x="207" y="86" width="11.381" height="36" fill="white"/>
<rect x="92" y="86" width="11.381" height="36" fill="white"/>
<rect x="566" y="152" width="36" height="36" fill="white"/>
<rect x="635" y="152" width="36" height="36" fill="white"/>
<rect x="704" y="152" width="36" height="36" fill="white"/>
<rect x="612" y="152" width="11.381" height="36" fill="white"/>
<rect x="681" y="152" width="11.381" height="36" fill="white"/>
<rect x="750" y="152" width="11.381" height="36" fill="white"/>
<rect x="773" y="152" width="11.381" height="36" fill="white"/>
<rect x="805" y="8" width="36" height="36" fill="black"/>
<rect x="1131" y="86" width="36" height="36" fill="black"/>
<rect x="605" y="224" width="36" height="36" fill="black"/>
<rect x="497" y="224" width="72" height="36" fill="black"/>
<rect x="839" y="152" width="72" height="36" fill="black"/>
<rect width="17.5135" height="17.5135" transform="matrix(-1 0 0 1 781 8)" fill="black"/>
<rect width="18.4865" height="18.4865" transform="matrix(-1 0 0 1 763.486 25.5137)" fill="black"/>
<rect width="17.5135" height="17.5135" transform="matrix(1.19249e-08 -1 -1 -1.19249e-08 605 260)" fill="black"/>
<rect width="18.4865" height="18.4865" transform="matrix(1.19249e-08 -1 -1 -1.19249e-08 587.486 242.486)" fill="black"/>
<rect x="803" y="152" width="12.3158" height="12.6486" fill="black"/>
<rect x="815.316" y="164.648" width="11.3684" height="10.7027" fill="black"/>
<rect x="803" y="175.352" width="12.3158" height="12.6486" fill="black"/>
<rect x="826.684" y="175.352" width="12.3158" height="12.6486" fill="black"/>
<rect x="826.684" y="152" width="12.3158" height="12.6486" fill="black"/>
<rect x="443" y="224" width="12.3158" height="12.6486" fill="black"/>
<rect x="455.316" y="236.648" width="11.3684" height="10.7027" fill="black"/>
<rect x="443" y="247.352" width="12.3158" height="12.6486" fill="black"/>
<rect x="466.684" y="247.352" width="12.3158" height="12.6486" fill="black"/>
<rect x="466.684" y="224" width="12.3158" height="12.6486" fill="black"/>
</svg>
