<svg width="1167" height="252" viewBox="0 0 1167 252" fill="none" xmlns="http://www.w3.org/2000/svg">
<rect x="548" width="36" height="36" fill="white"/>
<rect x="709" width="36" height="36" fill="white"/>
<rect x="594" width="11.381" height="36" fill="white"/>
<rect x="617" width="11.381" height="36" fill="white"/>
<rect x="640" width="11.381" height="36" fill="white"/>
<rect x="663" width="11.381" height="36" fill="white"/>
<rect x="686" width="11.381" height="36" fill="white"/>
<rect x="841" width="36" height="36" fill="white"/>
<rect x="933" width="36" height="36" fill="white"/>
<rect x="1025" width="36" height="36" fill="white"/>
<rect x="887" width="11.381" height="36" fill="white"/>
<rect x="910" width="11.381" height="36" fill="white"/>
<rect x="979" width="11.381" height="36" fill="white"/>
<rect x="1002" width="11.381" height="36" fill="white"/>
<rect x="889" y="78" width="34.1429" height="36" fill="white"/>
<rect x="981" y="78" width="34.1429" height="36" fill="white"/>
<rect x="1027" y="78" width="34.1429" height="36" fill="white"/>
<rect x="1073" y="78" width="34.1429" height="36" fill="white"/>
<rect x="935" y="78" width="11.381" height="36" fill="white"/>
<rect x="958" y="78" width="11.381" height="36" fill="white"/>
<rect x="1119" y="78" width="11.381" height="36" fill="white"/>
<rect y="78" width="36" height="36" fill="white"/>
<rect x="115" y="78" width="36" height="36" fill="white"/>
<rect x="161" y="78" width="36" height="36" fill="white"/>
<rect x="46" y="78" width="11.381" height="36" fill="white"/>
<rect x="69" y="78" width="11.381" height="36" fill="white"/>
<rect x="207" y="78" width="11.381" height="36" fill="white"/>
<rect x="92" y="78" width="11.381" height="36" fill="white"/>
<rect x="566" y="144" width="36" height="36" fill="white"/>
<rect x="635" y="144" width="36" height="36" fill="white"/>
<rect x="704" y="144" width="36" height="36" fill="white"/>
<rect x="612" y="144" width="11.381" height="36" fill="white"/>
<rect x="681" y="144" width="11.381" height="36" fill="white"/>
<rect x="750" y="144" width="11.381" height="36" fill="white"/>
<rect x="773" y="144" width="11.381" height="36" fill="white"/>
<rect x="805" width="36" height="36" fill="black"/>
<rect x="1131" y="78" width="36" height="36" fill="black"/>
<rect x="605" y="216" width="36" height="36" fill="black"/>
<rect x="497" y="216" width="72" height="36" fill="black"/>
<rect x="839" y="144" width="72" height="36" fill="black"/>
<rect width="17.5135" height="17.5135" transform="matrix(-1 0 0 1 781 0)" fill="black"/>
<rect width="18.4865" height="18.4865" transform="matrix(-1 0 0 1 763.486 17.5134)" fill="black"/>
<rect width="17.5135" height="17.5135" transform="matrix(1.19249e-08 -1 -1 -1.19249e-08 605 252)" fill="black"/>
<rect width="18.4865" height="18.4865" transform="matrix(1.19249e-08 -1 -1 -1.19249e-08 587.486 234.487)" fill="black"/>
<rect x="803" y="144" width="12.3158" height="12.6486" fill="black"/>
<rect x="815.316" y="156.649" width="11.3684" height="10.7027" fill="black"/>
<rect x="803" y="167.351" width="12.3158" height="12.6486" fill="black"/>
<rect x="826.684" y="167.351" width="12.3158" height="12.6486" fill="black"/>
<rect x="826.684" y="144" width="12.3158" height="12.6486" fill="black"/>
<rect x="443" y="216" width="12.3158" height="12.6486" fill="black"/>
<rect x="455.316" y="228.649" width="11.3684" height="10.7027" fill="black"/>
<rect x="443" y="239.351" width="12.3158" height="12.6486" fill="black"/>
<rect x="466.684" y="239.351" width="12.3158" height="12.6486" fill="black"/>
<rect x="466.684" y="216" width="12.3158" height="12.6486" fill="black"/>
</svg>
