<svg width="316" height="158" viewBox="0 0 316 158" fill="none" xmlns="http://www.w3.org/2000/svg">
<rect width="24.0192" height="24.0192" transform="matrix(1 0 0 -1 0 24.019)" fill="white"/>
<rect width="24.0192" height="24.0192" transform="matrix(1 0 0 -1 107.419 24.019)" fill="white"/>
<rect width="7.59339" height="24.0192" transform="matrix(1 0 0 -1 30.6913 24.019)" fill="white"/>
<rect width="7.59339" height="24.0192" transform="matrix(1 0 0 -1 46.0369 24.019)" fill="white"/>
<rect width="7.59339" height="24.0192" transform="matrix(1 0 0 -1 61.3825 24.019)" fill="white"/>
<rect width="7.59339" height="24.0192" transform="matrix(1 0 0 -1 76.7281 24.019)" fill="white"/>
<rect width="7.59339" height="24.0192" transform="matrix(1 0 0 -1 92.0738 24.019)" fill="white"/>
<rect width="24.0192" height="24.0192" transform="matrix(1 0 0 -1 168 24.019)" fill="white"/>
<rect width="24.0192" height="24.0192" transform="matrix(1 0 0 -1 229.383 24.019)" fill="white"/>
<rect width="24.0192" height="24.0192" transform="matrix(1 0 0 -1 290.765 24.019)" fill="white"/>
<rect width="7.59339" height="24.0192" transform="matrix(1 0 0 -1 198.691 24.019)" fill="white"/>
<rect width="7.59339" height="24.0192" transform="matrix(1 0 0 -1 214.037 24.019)" fill="white"/>
<rect width="7.59339" height="24.0192" transform="matrix(1 0 0 -1 260.074 24.019)" fill="white"/>
<rect width="7.59339" height="24.0192" transform="matrix(1 0 0 -1 275.419 24.019)" fill="white"/>
<rect width="24.0663" height="24.0663" transform="matrix(1 0 0 -1 291 106.066)" fill="black"/>
<rect width="24.0663" height="24.0663" transform="matrix(1 0 0 -1 200 106.066)" fill="black"/>
<rect width="24.0663" height="24.0663" transform="matrix(1 0 0 -1 73 157.066)" fill="black"/>
<rect width="24.0663" height="24.0663" transform="matrix(1 0 0 -1 132 24.0664)" fill="black"/>
<rect width="48.1326" height="24.0663" transform="matrix(1 0 0 -1 24 65.0664)" fill="black"/>
<rect width="48.1326" height="24.0663" transform="matrix(1 0 0 -1 243 157.066)" fill="black"/>
<rect x="291.066" y="106.066" width="11.7079" height="11.7079" transform="rotate(180 291.066 106.066)" fill="black"/>
<rect x="279.359" y="94.3584" width="12.3584" height="12.3584" transform="rotate(180 279.359 94.3584)" fill="black"/>
<rect x="24.0664" y="133" width="11.7079" height="11.7079" transform="rotate(90 24.0664 133)" fill="black"/>
<rect x="12.3585" y="144.708" width="12.3584" height="12.3584" transform="rotate(90 12.3585 144.708)" fill="black"/>
<rect x="315.066" y="41" width="11.7079" height="11.7079" transform="rotate(90 315.066 41)" fill="black"/>
<rect x="303.359" y="52.708" width="12.3584" height="12.3584" transform="rotate(90 303.359 52.708)" fill="black"/>
<rect width="8.23321" height="8.45573" transform="matrix(1 0 0 -1 291 157.066)" fill="black"/>
<rect width="7.59988" height="7.15485" transform="matrix(1 0 0 -1 299.233 148.611)" fill="black"/>
<rect width="8.23321" height="8.45573" transform="matrix(1 0 0 -1 291 141.456)" fill="black"/>
<rect width="8.23321" height="8.45573" transform="matrix(1 0 0 -1 306.833 141.456)" fill="black"/>
<rect width="8.23321" height="8.45573" transform="matrix(1 0 0 -1 306.833 157.066)" fill="black"/>
<rect width="8.23321" height="8.45573" transform="matrix(1 0 0 -1 0 65.0664)" fill="black"/>
<rect width="7.59988" height="7.15485" transform="matrix(1 0 0 -1 8.23303 56.6108)" fill="black"/>
<rect width="8.23321" height="8.45573" transform="matrix(1 0 0 -1 0 49.4556)" fill="black"/>
<rect width="8.23321" height="8.45573" transform="matrix(1 0 0 -1 15.833 49.4556)" fill="black"/>
<rect width="8.23321" height="8.45573" transform="matrix(1 0 0 -1 15.833 65.0664)" fill="black"/>
<rect width="24.0192" height="24.0192" transform="matrix(1 0 0 -1 138 65.019)" fill="white"/>
<rect width="24.0192" height="24.0192" transform="matrix(1 0 0 -1 214.728 65.019)" fill="white"/>
<rect width="24.0192" height="24.0192" transform="matrix(1 0 0 -1 245.419 65.019)" fill="white"/>
<rect width="7.59339" height="24.0192" transform="matrix(1 0 0 -1 168.691 65.019)" fill="white"/>
<rect width="7.59339" height="24.0192" transform="matrix(1 0 0 -1 184.037 65.019)" fill="white"/>
<rect width="7.59339" height="24.0192" transform="matrix(1 0 0 -1 276.111 65.019)" fill="white"/>
<rect width="7.59339" height="24.0192" transform="matrix(1 0 0 -1 199.383 65.019)" fill="white"/>
<rect width="22.7802" height="24.0192" transform="matrix(1 0 0 -1 0 106.019)" fill="white"/>
<rect width="22.7802" height="24.0192" transform="matrix(1 0 0 -1 61.3825 106.019)" fill="white"/>
<rect width="22.7802" height="24.0192" transform="matrix(1 0 0 -1 92.0738 106.019)" fill="white"/>
<rect width="22.7802" height="24.0192" transform="matrix(1 0 0 -1 122.765 106.019)" fill="white"/>
<rect width="7.59339" height="24.0192" transform="matrix(1 0 0 -1 30.6913 106.019)" fill="white"/>
<rect width="7.59339" height="24.0192" transform="matrix(1 0 0 -1 46.0369 106.019)" fill="white"/>
<rect width="7.59339" height="24.0192" transform="matrix(1 0 0 -1 153.456 106.019)" fill="white"/>
<rect width="24.0192" height="24.0192" transform="matrix(1 0 0 -1 97 157.02)" fill="white"/>
<rect width="24.0192" height="24.0192" transform="matrix(1 0 0 -1 143.037 157.02)" fill="white"/>
<rect width="24.0192" height="24.0192" transform="matrix(1 0 0 -1 189.074 157.02)" fill="white"/>
<rect width="7.59339" height="24.0192" transform="matrix(1 0 0 -1 127.691 157.02)" fill="white"/>
<rect width="7.59339" height="24.0192" transform="matrix(1 0 0 -1 173.728 157.02)" fill="white"/>
<rect width="7.59339" height="24.0192" transform="matrix(1 0 0 -1 219.765 157.02)" fill="white"/>
<rect width="7.59339" height="24.0192" transform="matrix(1 0 0 -1 235.111 157.02)" fill="white"/>
</svg>
