<svg width="826" height="240" viewBox="0 0 826 240" fill="none" xmlns="http://www.w3.org/2000/svg" sharp-rendering="crispEdges">
<path d="M173.865 106V102.098H166.652V106H165.92V97.9492H166.652V101.418H173.865V97.9492H174.598V106H173.865Z" fill="white"/>
<path d="M160.676 98.6172V106H159.949V98.6172H156.287V97.9492H164.338V98.6172H160.676Z" fill="white"/>
<path d="M148.354 106V97.9492H155.062V98.6348H149.15V101.406H154.764V102.086H149.15V105.314H155.15V106H148.354Z" fill="white"/>
<path d="M176.953 85.0586C176.953 85.5859 176.83 86.043 176.584 86.4297C176.338 86.8125 175.998 87.1309 175.564 87.3848C175.135 87.6387 174.625 87.8281 174.035 87.9531C173.449 88.0742 172.814 88.1348 172.131 88.1348C171.389 88.1348 170.707 88.0879 170.086 87.9941C169.465 87.8965 168.922 87.7617 168.457 87.5898V86.7402C168.707 86.8457 168.965 86.9434 169.23 87.0332C169.496 87.123 169.779 87.2031 170.08 87.2734C170.381 87.3398 170.701 87.3926 171.041 87.4316C171.385 87.4668 171.756 87.4844 172.154 87.4844C172.717 87.4844 173.244 87.4316 173.736 87.3262C174.229 87.2168 174.656 87.0605 175.02 86.8574C175.387 86.6504 175.676 86.3965 175.887 86.0957C176.102 85.7949 176.209 85.4492 176.209 85.0586V83.5352C176.021 83.7891 175.791 84.0332 175.518 84.2676C175.248 84.498 174.945 84.7031 174.609 84.8828C174.277 85.0586 173.916 85.2012 173.525 85.3105C173.135 85.416 172.723 85.4688 172.289 85.4688C171.797 85.4688 171.359 85.4238 170.977 85.334C170.598 85.2402 170.266 85.1133 169.98 84.9531C169.699 84.793 169.461 84.6035 169.266 84.3848C169.07 84.1621 168.912 83.9219 168.791 83.6641C168.674 83.4023 168.588 83.1289 168.533 82.8438C168.482 82.5586 168.457 82.2695 168.457 81.9766V79.9492H169.201V81.8184C169.201 82.2676 169.254 82.6758 169.359 83.043C169.469 83.4102 169.646 83.7246 169.893 83.9863C170.139 84.248 170.461 84.4512 170.859 84.5957C171.262 84.7363 171.758 84.8066 172.348 84.8066C172.805 84.8066 173.225 84.7461 173.607 84.625C173.99 84.5 174.34 84.334 174.656 84.127C174.973 83.916 175.26 83.6738 175.518 83.4004C175.775 83.127 176.006 82.8398 176.209 82.5391V79.9492H176.953V85.0586Z" fill="white"/>
<path d="M165.357 88V87.1094C165.076 87.2617 164.756 87.4023 164.396 87.5312C164.041 87.6602 163.664 87.7715 163.266 87.8652C162.871 87.959 162.465 88.0312 162.047 88.082C161.629 88.1328 161.219 88.1582 160.816 88.1582C160.293 88.1582 159.822 88.1113 159.404 88.0176C158.99 87.9238 158.639 87.7852 158.35 87.6016C158.061 87.4141 157.838 87.1836 157.682 86.9102C157.525 86.6328 157.447 86.3125 157.447 85.9492C157.447 85.5898 157.537 85.2734 157.717 85C157.9 84.7227 158.16 84.4824 158.496 84.2793C158.832 84.0723 159.236 83.8984 159.709 83.7578C160.186 83.6133 160.717 83.4922 161.303 83.3945C161.889 83.293 162.521 83.2109 163.201 83.1484C163.885 83.082 164.604 83.0273 165.357 82.9844V82.3691C165.357 82.1191 165.311 81.8984 165.217 81.707C165.123 81.5156 164.992 81.3496 164.824 81.209C164.656 81.0645 164.459 80.9453 164.232 80.8516C164.006 80.7539 163.76 80.6758 163.494 80.6172C163.232 80.5586 162.955 80.5176 162.662 80.4941C162.373 80.4668 162.082 80.4531 161.789 80.4531C161.395 80.4531 161.035 80.4727 160.711 80.5117C160.387 80.5508 160.084 80.6055 159.803 80.6758C159.521 80.7422 159.252 80.8203 158.994 80.9102C158.736 81 158.477 81.0957 158.215 81.1973V80.3418C158.758 80.1973 159.336 80.0723 159.949 79.9668C160.566 79.8574 161.221 79.8027 161.912 79.8027C162.498 79.8027 163.045 79.8535 163.553 79.9551C164.061 80.0527 164.502 80.2109 164.877 80.4297C165.252 80.6484 165.547 80.9316 165.762 81.2793C165.977 81.623 166.084 82.043 166.084 82.5391V88H165.357ZM165.357 83.6348C164.08 83.7051 162.988 83.8047 162.082 83.9336C161.18 84.0625 160.441 84.2207 159.867 84.4082C159.293 84.5957 158.871 84.8145 158.602 85.0645C158.336 85.3145 158.203 85.5977 158.203 85.9141C158.203 86.1719 158.268 86.4004 158.396 86.5996C158.529 86.7988 158.719 86.9668 158.965 87.1035C159.211 87.2363 159.51 87.3379 159.861 87.4082C160.213 87.4746 160.607 87.5078 161.045 87.5078C161.303 87.5078 161.568 87.4941 161.842 87.4668C162.119 87.4355 162.395 87.3945 162.668 87.3438C162.941 87.2891 163.211 87.2266 163.477 87.1562C163.742 87.082 163.992 87.002 164.227 86.916C164.461 86.8301 164.674 86.7383 164.865 86.6406C165.061 86.543 165.225 86.4434 165.357 86.3418V83.6348Z" fill="white"/>
<path d="M156.205 82.4219C156.205 82.8242 156.139 83.1797 156.006 83.4883C155.877 83.7969 155.672 84.0566 155.391 84.2676C155.109 84.4785 154.746 84.6387 154.301 84.748C153.859 84.8535 153.326 84.9062 152.701 84.9062H149.086V88H148.354V79.9492H152.701C153.326 79.9492 153.859 80.0039 154.301 80.1133C154.746 80.2188 155.109 80.375 155.391 80.582C155.672 80.7891 155.877 81.0469 156.006 81.3555C156.139 81.6641 156.205 82.0195 156.205 82.4219ZM155.449 82.4219C155.449 82.0391 155.385 81.7305 155.256 81.4961C155.131 81.2617 154.936 81.082 154.67 80.957C154.408 80.8281 154.074 80.7422 153.668 80.6992C153.266 80.6562 152.787 80.6348 152.232 80.6348H149.086V84.2207H152.232C152.447 84.2207 152.676 84.2227 152.918 84.2266C153.164 84.2266 153.406 84.2148 153.645 84.1914C153.883 84.1641 154.109 84.1191 154.324 84.0566C154.543 83.9902 154.734 83.8906 154.898 83.7578C155.066 83.625 155.199 83.4512 155.297 83.2363C155.398 83.0215 155.449 82.75 155.449 82.4219Z" fill="white"/>
<path d="M467.912 132V126.686C467.912 126.24 467.852 125.875 467.73 125.59C467.613 125.301 467.443 125.072 467.221 124.904C467.002 124.736 466.734 124.619 466.418 124.553C466.102 124.486 465.746 124.453 465.352 124.453C464.895 124.453 464.445 124.51 464.004 124.623C463.566 124.732 463.152 124.873 462.762 125.045C462.371 125.213 462.012 125.4 461.684 125.607C461.355 125.814 461.078 126.014 460.852 126.205V132H460.119V123.949H460.852V125.361C461.125 125.189 461.426 125.01 461.754 124.822C462.086 124.631 462.441 124.457 462.82 124.301C463.203 124.141 463.611 124.01 464.045 123.908C464.479 123.807 464.936 123.756 465.416 123.756C465.959 123.756 466.432 123.822 466.834 123.955C467.24 124.084 467.576 124.27 467.842 124.512C468.111 124.75 468.312 125.041 468.445 125.385C468.578 125.725 468.645 126.105 468.645 126.527V132H467.912Z" fill="white"/>
<path d="M457.312 131.578C456.984 131.68 456.68 131.768 456.398 131.842C456.117 131.912 455.84 131.969 455.566 132.012C455.293 132.059 455.014 132.092 454.729 132.111C454.447 132.135 454.137 132.146 453.797 132.146C453.008 132.146 452.295 132.051 451.658 131.859C451.021 131.668 450.479 131.395 450.029 131.039C449.584 130.68 449.24 130.246 448.998 129.738C448.756 129.23 448.635 128.66 448.635 128.027C448.635 127.414 448.75 126.852 448.98 126.34C449.215 125.828 449.541 125.389 449.959 125.021C450.377 124.654 450.877 124.369 451.459 124.166C452.041 123.963 452.684 123.861 453.387 123.861C454.117 123.861 454.768 123.959 455.338 124.154C455.908 124.35 456.389 124.629 456.779 124.992C457.17 125.355 457.467 125.797 457.67 126.316C457.873 126.832 457.975 127.414 457.975 128.062V128.244H449.391C449.434 128.744 449.559 129.195 449.766 129.598C449.973 130 450.266 130.342 450.645 130.623C451.027 130.904 451.496 131.121 452.051 131.273C452.609 131.422 453.26 131.496 454.002 131.496C454.318 131.496 454.639 131.475 454.963 131.432C455.287 131.389 455.598 131.332 455.895 131.262C456.191 131.188 456.463 131.105 456.709 131.016C456.955 130.922 457.156 130.826 457.312 130.729V131.578ZM457.254 127.605C457.227 127.195 457.135 126.805 456.979 126.434C456.822 126.059 456.588 125.729 456.275 125.443C455.967 125.158 455.572 124.932 455.092 124.764C454.615 124.596 454.043 124.512 453.375 124.512C452.746 124.512 452.195 124.596 451.723 124.764C451.25 124.932 450.85 125.158 450.521 125.443C450.193 125.725 449.936 126.053 449.748 126.428C449.561 126.799 449.441 127.191 449.391 127.605H457.254Z" fill="white"/>
<path d="M446.344 132C446.305 131.562 446.197 131.168 446.021 130.816C445.846 130.461 445.619 130.146 445.342 129.873C445.068 129.6 444.754 129.365 444.398 129.17C444.043 128.971 443.666 128.807 443.268 128.678C442.869 128.549 442.457 128.455 442.031 128.396C441.605 128.334 441.186 128.303 440.771 128.303H439.523V132H438.791V123.949H439.523V127.658H440.572C440.99 127.658 441.406 127.621 441.82 127.547C442.234 127.469 442.629 127.357 443.004 127.213C443.383 127.064 443.734 126.885 444.059 126.674C444.387 126.459 444.676 126.215 444.926 125.941C445.176 125.664 445.381 125.359 445.541 125.027C445.701 124.695 445.801 124.336 445.84 123.949H446.596C446.557 124.375 446.461 124.762 446.309 125.109C446.16 125.453 445.977 125.764 445.758 126.041C445.539 126.318 445.295 126.562 445.025 126.773C444.756 126.98 444.482 127.16 444.205 127.312C443.928 127.461 443.656 127.586 443.391 127.688C443.125 127.785 442.885 127.859 442.67 127.91C442.939 127.953 443.23 128.02 443.543 128.109C443.859 128.195 444.174 128.312 444.486 128.461C444.803 128.605 445.109 128.785 445.406 129C445.703 129.211 445.969 129.461 446.203 129.75C446.441 130.039 446.641 130.369 446.801 130.74C446.961 131.111 447.061 131.531 447.1 132H446.344Z" fill="white"/>
<path d="M436.641 127.98C436.641 128.703 436.51 129.328 436.248 129.855C435.986 130.379 435.627 130.812 435.17 131.156C434.713 131.496 434.174 131.748 433.553 131.912C432.932 132.076 432.262 132.158 431.543 132.158C430.82 132.158 430.146 132.076 429.521 131.912C428.896 131.748 428.354 131.496 427.893 131.156C427.432 130.812 427.07 130.379 426.809 129.855C426.547 129.328 426.416 128.703 426.416 127.98C426.416 127.5 426.477 127.064 426.598 126.674C426.719 126.279 426.889 125.928 427.107 125.619C427.326 125.307 427.59 125.037 427.898 124.811C428.211 124.584 428.557 124.396 428.936 124.248C429.318 124.096 429.729 123.984 430.166 123.914C430.604 123.84 431.062 123.803 431.543 123.803C432.262 123.803 432.932 123.885 433.553 124.049C434.174 124.213 434.713 124.467 435.17 124.811C435.627 125.15 435.986 125.584 436.248 126.111C436.51 126.635 436.641 127.258 436.641 127.98ZM435.885 127.98C435.885 127.41 435.791 126.906 435.604 126.469C435.42 126.031 435.146 125.664 434.783 125.367C434.42 125.066 433.967 124.84 433.424 124.688C432.885 124.531 432.258 124.453 431.543 124.453C430.828 124.453 430.197 124.531 429.65 124.688C429.107 124.844 428.652 125.072 428.285 125.373C427.918 125.67 427.641 126.039 427.453 126.48C427.266 126.918 427.172 127.418 427.172 127.98C427.172 128.551 427.266 129.055 427.453 129.492C427.641 129.93 427.918 130.299 428.285 130.6C428.652 130.896 429.107 131.123 429.65 131.279C430.197 131.432 430.828 131.508 431.543 131.508C432.258 131.508 432.885 131.432 433.424 131.279C433.967 131.123 434.42 130.896 434.783 130.6C435.146 130.299 435.42 129.93 435.604 129.492C435.791 129.055 435.885 128.551 435.885 127.98Z" fill="white"/>
<path d="M421.98 124.617V132H421.254V124.617H417.592V123.949H425.643V124.617H421.98Z" fill="white"/>
<path d="M406.418 129.217C406.418 129.58 406.447 129.893 406.506 130.154C406.564 130.416 406.688 130.631 406.875 130.799C407.062 130.967 407.332 131.092 407.684 131.174C408.039 131.252 408.51 131.291 409.096 131.291H412.734V132H408.949C408.305 132 407.771 131.949 407.35 131.848C406.932 131.742 406.598 131.582 406.348 131.367C406.102 131.148 405.93 130.873 405.832 130.541C405.734 130.209 405.686 129.814 405.686 129.357V123.949H406.418V129.217Z" fill="white"/>
<path d="M402.879 131.578C402.551 131.68 402.246 131.768 401.965 131.842C401.684 131.912 401.406 131.969 401.133 132.012C400.859 132.059 400.58 132.092 400.295 132.111C400.014 132.135 399.703 132.146 399.363 132.146C398.574 132.146 397.861 132.051 397.225 131.859C396.588 131.668 396.045 131.395 395.596 131.039C395.15 130.68 394.807 130.246 394.564 129.738C394.322 129.23 394.201 128.66 394.201 128.027C394.201 127.414 394.316 126.852 394.547 126.34C394.781 125.828 395.107 125.389 395.525 125.021C395.943 124.654 396.443 124.369 397.025 124.166C397.607 123.963 398.25 123.861 398.953 123.861C399.684 123.861 400.334 123.959 400.904 124.154C401.475 124.35 401.955 124.629 402.346 124.992C402.736 125.355 403.033 125.797 403.236 126.316C403.439 126.832 403.541 127.414 403.541 128.062V128.244H394.957C395 128.744 395.125 129.195 395.332 129.598C395.539 130 395.832 130.342 396.211 130.623C396.594 130.904 397.062 131.121 397.617 131.273C398.176 131.422 398.826 131.496 399.568 131.496C399.885 131.496 400.205 131.475 400.529 131.432C400.854 131.389 401.164 131.332 401.461 131.262C401.758 131.188 402.029 131.105 402.275 131.016C402.521 130.922 402.723 130.826 402.879 130.729V131.578ZM402.82 127.605C402.793 127.195 402.701 126.805 402.545 126.434C402.389 126.059 402.154 125.729 401.842 125.443C401.533 125.158 401.139 124.932 400.658 124.764C400.182 124.596 399.609 124.512 398.941 124.512C398.312 124.512 397.762 124.596 397.289 124.764C396.816 124.932 396.416 125.158 396.088 125.443C395.76 125.725 395.502 126.053 395.314 126.428C395.127 126.799 395.008 127.191 394.957 127.605H402.82Z" fill="white"/>
<path d="M392.631 127.969C392.631 128.484 392.576 128.943 392.467 129.346C392.361 129.744 392.211 130.092 392.016 130.389C391.82 130.686 391.582 130.938 391.301 131.145C391.023 131.352 390.713 131.518 390.369 131.643C390.029 131.768 389.658 131.859 389.256 131.918C388.857 131.973 388.438 132 387.996 132H383.842V123.949H387.984C388.645 123.949 389.258 124.014 389.824 124.143C390.391 124.271 390.881 124.492 391.295 124.805C391.713 125.113 392.039 125.525 392.273 126.041C392.512 126.557 392.631 127.199 392.631 127.969ZM391.875 127.969C391.875 127.531 391.832 127.145 391.746 126.809C391.66 126.473 391.537 126.182 391.377 125.936C391.217 125.686 391.021 125.477 390.791 125.309C390.561 125.141 390.301 125.006 390.012 124.904C389.723 124.799 389.408 124.725 389.068 124.682C388.729 124.639 388.367 124.617 387.984 124.617H384.574V131.326H387.984C388.559 131.326 389.084 131.275 389.561 131.174C390.037 131.068 390.445 130.889 390.785 130.635C391.129 130.377 391.396 130.033 391.588 129.604C391.779 129.17 391.875 128.625 391.875 127.969Z" fill="white"/>
<path d="M381.691 127.98C381.691 128.703 381.561 129.328 381.299 129.855C381.037 130.379 380.678 130.812 380.221 131.156C379.764 131.496 379.225 131.748 378.604 131.912C377.982 132.076 377.312 132.158 376.594 132.158C375.871 132.158 375.197 132.076 374.572 131.912C373.947 131.748 373.404 131.496 372.943 131.156C372.482 130.812 372.121 130.379 371.859 129.855C371.598 129.328 371.467 128.703 371.467 127.98C371.467 127.5 371.527 127.064 371.648 126.674C371.77 126.279 371.939 125.928 372.158 125.619C372.377 125.307 372.641 125.037 372.949 124.811C373.262 124.584 373.607 124.396 373.986 124.248C374.369 124.096 374.779 123.984 375.217 123.914C375.654 123.84 376.113 123.803 376.594 123.803C377.312 123.803 377.982 123.885 378.604 124.049C379.225 124.213 379.764 124.467 380.221 124.811C380.678 125.15 381.037 125.584 381.299 126.111C381.561 126.635 381.691 127.258 381.691 127.98ZM380.936 127.98C380.936 127.41 380.842 126.906 380.654 126.469C380.471 126.031 380.197 125.664 379.834 125.367C379.471 125.066 379.018 124.84 378.475 124.688C377.936 124.531 377.309 124.453 376.594 124.453C375.879 124.453 375.248 124.531 374.701 124.688C374.158 124.844 373.703 125.072 373.336 125.373C372.969 125.67 372.691 126.039 372.504 126.48C372.316 126.918 372.223 127.418 372.223 127.98C372.223 128.551 372.316 129.055 372.504 129.492C372.691 129.93 372.969 130.299 373.336 130.6C373.703 130.896 374.158 131.123 374.701 131.279C375.248 131.432 375.879 131.508 376.594 131.508C377.309 131.508 377.936 131.432 378.475 131.279C379.018 131.123 379.471 130.896 379.834 130.6C380.197 130.299 380.471 129.93 380.654 129.492C380.842 129.055 380.936 128.551 380.936 127.98Z" fill="white"/>
<path d="M368.59 132V125.15L364.166 132H363.516L359.086 125.121V132H358.354V123.949H359.139L363.861 131.244L368.531 123.949H369.311V132H368.59Z" fill="white"/>
<path d="M389.941 106.617V114H389.215V106.617H385.553V105.949H393.604V106.617H389.941Z" fill="white"/>
<path d="M383.268 114V108.686C383.268 108.24 383.207 107.875 383.086 107.59C382.969 107.301 382.799 107.072 382.576 106.904C382.357 106.736 382.09 106.619 381.773 106.553C381.457 106.486 381.102 106.453 380.707 106.453C380.25 106.453 379.801 106.51 379.359 106.623C378.922 106.732 378.508 106.873 378.117 107.045C377.727 107.213 377.367 107.4 377.039 107.607C376.711 107.814 376.434 108.014 376.207 108.205V114H375.475V105.949H376.207V107.361C376.48 107.189 376.781 107.01 377.109 106.822C377.441 106.631 377.797 106.457 378.176 106.301C378.559 106.141 378.967 106.01 379.4 105.908C379.834 105.807 380.291 105.756 380.771 105.756C381.314 105.756 381.787 105.822 382.189 105.955C382.596 106.084 382.932 106.27 383.197 106.512C383.467 106.75 383.668 107.041 383.801 107.385C383.934 107.725 384 108.105 384 108.527V114H383.268Z" fill="white"/>
<path d="M372.029 114V105.949H372.762V114H372.029Z" fill="white"/>
<path d="M368.59 114V107.15L364.166 114H363.516L359.086 107.121V114H358.354V105.949H359.139L363.861 113.244L368.531 105.949H369.311V114H368.59Z" fill="white"/>
<path d="M678.652 122.578C678.324 122.68 678.02 122.768 677.738 122.842C677.457 122.912 677.18 122.969 676.906 123.012C676.633 123.059 676.354 123.092 676.068 123.111C675.787 123.135 675.477 123.146 675.137 123.146C674.348 123.146 673.635 123.051 672.998 122.859C672.361 122.668 671.818 122.395 671.369 122.039C670.924 121.68 670.58 121.246 670.338 120.738C670.096 120.23 669.975 119.66 669.975 119.027C669.975 118.414 670.09 117.852 670.32 117.34C670.555 116.828 670.881 116.389 671.299 116.021C671.717 115.654 672.217 115.369 672.799 115.166C673.381 114.963 674.023 114.861 674.727 114.861C675.457 114.861 676.107 114.959 676.678 115.154C677.248 115.35 677.729 115.629 678.119 115.992C678.51 116.355 678.807 116.797 679.01 117.316C679.213 117.832 679.314 118.414 679.314 119.062V119.244H670.73C670.773 119.744 670.898 120.195 671.105 120.598C671.312 121 671.605 121.342 671.984 121.623C672.367 121.904 672.836 122.121 673.391 122.273C673.949 122.422 674.6 122.496 675.342 122.496C675.658 122.496 675.979 122.475 676.303 122.432C676.627 122.389 676.938 122.332 677.234 122.262C677.531 122.188 677.803 122.105 678.049 122.016C678.295 121.922 678.496 121.826 678.652 121.729V122.578ZM678.594 118.605C678.566 118.195 678.475 117.805 678.318 117.434C678.162 117.059 677.928 116.729 677.615 116.443C677.307 116.158 676.912 115.932 676.432 115.764C675.955 115.596 675.383 115.512 674.715 115.512C674.086 115.512 673.535 115.596 673.062 115.764C672.59 115.932 672.189 116.158 671.861 116.443C671.533 116.725 671.275 117.053 671.088 117.428C670.9 117.799 670.781 118.191 670.73 118.605H678.594Z" fill="white"/>
<path d="M669.178 115.57C669.064 115.535 668.906 115.498 668.703 115.459C668.504 115.416 668.246 115.395 667.93 115.395C667.492 115.395 667.08 115.449 666.693 115.559C666.311 115.664 665.953 115.809 665.621 115.992C665.293 116.176 664.988 116.391 664.707 116.637C664.426 116.879 664.172 117.137 663.945 117.41V123H663.213V114.949H663.945V116.59C664.207 116.32 664.49 116.072 664.795 115.846C665.104 115.619 665.428 115.426 665.768 115.266C666.107 115.102 666.463 114.975 666.834 114.885C667.209 114.791 667.596 114.744 667.994 114.744C668.131 114.744 668.254 114.748 668.363 114.756C668.473 114.76 668.572 114.768 668.662 114.779C668.756 114.787 668.844 114.797 668.926 114.809C669.008 114.82 669.092 114.834 669.178 114.85V115.57Z" fill="white"/>
<path d="M659.838 123V122.109C659.557 122.262 659.236 122.402 658.877 122.531C658.521 122.66 658.145 122.771 657.746 122.865C657.352 122.959 656.945 123.031 656.527 123.082C656.109 123.133 655.699 123.158 655.297 123.158C654.773 123.158 654.303 123.111 653.885 123.018C653.471 122.924 653.119 122.785 652.83 122.602C652.541 122.414 652.318 122.184 652.162 121.91C652.006 121.633 651.928 121.312 651.928 120.949C651.928 120.59 652.018 120.273 652.197 120C652.381 119.723 652.641 119.482 652.977 119.279C653.312 119.072 653.717 118.898 654.189 118.758C654.666 118.613 655.197 118.492 655.783 118.395C656.369 118.293 657.002 118.211 657.682 118.148C658.365 118.082 659.084 118.027 659.838 117.984V117.369C659.838 117.119 659.791 116.898 659.697 116.707C659.604 116.516 659.473 116.35 659.305 116.209C659.137 116.064 658.939 115.945 658.713 115.852C658.486 115.754 658.24 115.676 657.975 115.617C657.713 115.559 657.436 115.518 657.143 115.494C656.854 115.467 656.562 115.453 656.27 115.453C655.875 115.453 655.516 115.473 655.191 115.512C654.867 115.551 654.564 115.605 654.283 115.676C654.002 115.742 653.732 115.82 653.475 115.91C653.217 116 652.957 116.096 652.695 116.197V115.342C653.238 115.197 653.816 115.072 654.43 114.967C655.047 114.857 655.701 114.803 656.393 114.803C656.979 114.803 657.525 114.854 658.033 114.955C658.541 115.053 658.982 115.211 659.357 115.43C659.732 115.648 660.027 115.932 660.242 116.279C660.457 116.623 660.564 117.043 660.564 117.539V123H659.838ZM659.838 118.635C658.561 118.705 657.469 118.805 656.562 118.934C655.66 119.062 654.922 119.221 654.348 119.408C653.773 119.596 653.352 119.814 653.082 120.064C652.816 120.314 652.684 120.598 652.684 120.914C652.684 121.172 652.748 121.4 652.877 121.6C653.01 121.799 653.199 121.967 653.445 122.104C653.691 122.236 653.99 122.338 654.342 122.408C654.693 122.475 655.088 122.508 655.525 122.508C655.783 122.508 656.049 122.494 656.322 122.467C656.6 122.436 656.875 122.395 657.148 122.344C657.422 122.289 657.691 122.227 657.957 122.156C658.223 122.082 658.473 122.002 658.707 121.916C658.941 121.83 659.154 121.738 659.346 121.641C659.541 121.543 659.705 121.443 659.838 121.342V118.635Z" fill="white"/>
<path d="M649.104 123V119.098H641.891V123H641.158V114.949H641.891V118.418H649.104V114.949H649.836V123H649.104Z" fill="white"/>
<path d="M638.217 116.139C638.064 116.064 637.889 115.986 637.689 115.904C637.49 115.818 637.262 115.742 637.004 115.676C636.75 115.609 636.463 115.555 636.143 115.512C635.822 115.465 635.467 115.441 635.076 115.441C634.604 115.441 634.182 115.469 633.811 115.523C633.443 115.578 633.131 115.664 632.873 115.781C632.619 115.895 632.424 116.039 632.287 116.215C632.154 116.391 632.088 116.6 632.088 116.842C632.088 117.045 632.15 117.223 632.275 117.375C632.404 117.527 632.576 117.662 632.791 117.779C633.01 117.896 633.264 118.004 633.553 118.102C633.846 118.195 634.154 118.285 634.479 118.371C634.807 118.453 635.143 118.537 635.486 118.623C635.834 118.709 636.17 118.803 636.494 118.904C636.822 119.002 637.131 119.113 637.42 119.238C637.713 119.359 637.967 119.502 638.182 119.666C638.4 119.83 638.572 120.018 638.697 120.229C638.826 120.439 638.891 120.684 638.891 120.961C638.891 121.262 638.834 121.525 638.721 121.752C638.607 121.975 638.453 122.168 638.258 122.332C638.066 122.492 637.84 122.627 637.578 122.736C637.32 122.842 637.043 122.926 636.746 122.988C636.453 123.051 636.148 123.094 635.832 123.117C635.52 123.145 635.211 123.158 634.906 123.158C634.207 123.158 633.572 123.107 633.002 123.006C632.436 122.904 631.895 122.766 631.379 122.59V121.693C631.91 122.01 632.471 122.227 633.061 122.344C633.654 122.461 634.277 122.52 634.93 122.52C635.391 122.52 635.816 122.492 636.207 122.438C636.598 122.383 636.936 122.297 637.221 122.18C637.506 122.059 637.727 121.902 637.883 121.711C638.043 121.52 638.123 121.285 638.123 121.008C638.123 120.785 638.059 120.59 637.93 120.422C637.805 120.254 637.633 120.107 637.414 119.982C637.199 119.854 636.945 119.74 636.652 119.643C636.363 119.545 636.057 119.455 635.732 119.373C635.408 119.287 635.072 119.205 634.725 119.127C634.381 119.045 634.047 118.957 633.723 118.863C633.398 118.77 633.09 118.664 632.797 118.547C632.508 118.43 632.254 118.293 632.035 118.137C631.82 117.977 631.648 117.793 631.52 117.586C631.395 117.379 631.332 117.139 631.332 116.865C631.332 116.596 631.383 116.357 631.484 116.15C631.586 115.939 631.725 115.758 631.9 115.605C632.08 115.453 632.289 115.326 632.527 115.225C632.766 115.119 633.02 115.037 633.289 114.979C633.562 114.916 633.846 114.871 634.139 114.844C634.432 114.816 634.721 114.803 635.006 114.803C635.318 114.803 635.613 114.816 635.891 114.844C636.172 114.871 636.441 114.908 636.699 114.955C636.961 114.998 637.215 115.049 637.461 115.107C637.711 115.166 637.963 115.229 638.217 115.295V116.139Z" fill="white"/>
<path d="M624.395 122.578C624.066 122.68 623.762 122.768 623.48 122.842C623.199 122.912 622.922 122.969 622.648 123.012C622.375 123.059 622.096 123.092 621.811 123.111C621.529 123.135 621.219 123.146 620.879 123.146C620.09 123.146 619.377 123.051 618.74 122.859C618.104 122.668 617.561 122.395 617.111 122.039C616.666 121.68 616.322 121.246 616.08 120.738C615.838 120.23 615.717 119.66 615.717 119.027C615.717 118.414 615.832 117.852 616.062 117.34C616.297 116.828 616.623 116.389 617.041 116.021C617.459 115.654 617.959 115.369 618.541 115.166C619.123 114.963 619.766 114.861 620.469 114.861C621.199 114.861 621.85 114.959 622.42 115.154C622.99 115.35 623.471 115.629 623.861 115.992C624.252 116.355 624.549 116.797 624.752 117.316C624.955 117.832 625.057 118.414 625.057 119.062V119.244H616.473C616.516 119.744 616.641 120.195 616.848 120.598C617.055 121 617.348 121.342 617.727 121.623C618.109 121.904 618.578 122.121 619.133 122.273C619.691 122.422 620.342 122.496 621.084 122.496C621.4 122.496 621.721 122.475 622.045 122.432C622.369 122.389 622.68 122.332 622.977 122.262C623.273 122.188 623.545 122.105 623.791 122.016C624.037 121.922 624.238 121.826 624.395 121.729V122.578ZM624.336 118.605C624.309 118.195 624.217 117.805 624.061 117.434C623.904 117.059 623.67 116.729 623.357 116.443C623.049 116.158 622.654 115.932 622.174 115.764C621.697 115.596 621.125 115.512 620.457 115.512C619.828 115.512 619.277 115.596 618.805 115.764C618.332 115.932 617.932 116.158 617.604 116.443C617.275 116.725 617.018 117.053 616.83 117.428C616.643 117.799 616.523 118.191 616.473 118.605H624.336Z" fill="white"/>
<path d="M605.809 114.949V120.264C605.805 120.713 605.861 121.082 605.979 121.371C606.096 121.66 606.264 121.889 606.482 122.057C606.705 122.221 606.973 122.336 607.285 122.402C607.602 122.465 607.957 122.496 608.352 122.496C608.809 122.496 609.256 122.441 609.693 122.332C610.131 122.219 610.543 122.078 610.93 121.91C611.316 121.738 611.67 121.549 611.99 121.342C612.314 121.135 612.59 120.936 612.816 120.744V114.949H613.561V123H612.816V121.582C612.543 121.758 612.244 121.941 611.92 122.133C611.596 122.32 611.244 122.494 610.865 122.654C610.49 122.811 610.088 122.939 609.658 123.041C609.229 123.143 608.773 123.193 608.293 123.193C607.75 123.193 607.275 123.125 606.869 122.988C606.467 122.852 606.131 122.66 605.861 122.414C605.596 122.168 605.396 121.877 605.264 121.541C605.131 121.201 605.064 120.828 605.064 120.422V114.949H605.809Z" fill="white"/>
<path d="M601.689 123V117.686C601.689 117.24 601.629 116.875 601.508 116.59C601.391 116.301 601.221 116.072 600.998 115.904C600.779 115.736 600.512 115.619 600.195 115.553C599.879 115.486 599.523 115.453 599.129 115.453C598.672 115.453 598.223 115.51 597.781 115.623C597.344 115.732 596.93 115.873 596.539 116.045C596.148 116.213 595.789 116.4 595.461 116.607C595.133 116.814 594.855 117.014 594.629 117.205V123H593.896V114.949H594.629V116.361C594.902 116.189 595.203 116.01 595.531 115.822C595.863 115.631 596.219 115.457 596.598 115.301C596.98 115.141 597.389 115.01 597.822 114.908C598.256 114.807 598.713 114.756 599.193 114.756C599.736 114.756 600.209 114.822 600.611 114.955C601.018 115.084 601.354 115.27 601.619 115.512C601.889 115.75 602.09 116.041 602.223 116.385C602.355 116.725 602.422 117.105 602.422 117.527V123H601.689Z" fill="white"/>
<path d="M591.09 122.578C590.762 122.68 590.457 122.768 590.176 122.842C589.895 122.912 589.617 122.969 589.344 123.012C589.07 123.059 588.791 123.092 588.506 123.111C588.225 123.135 587.914 123.146 587.574 123.146C586.785 123.146 586.072 123.051 585.436 122.859C584.799 122.668 584.256 122.395 583.807 122.039C583.361 121.68 583.018 121.246 582.775 120.738C582.533 120.23 582.412 119.66 582.412 119.027C582.412 118.414 582.527 117.852 582.758 117.34C582.992 116.828 583.318 116.389 583.736 116.021C584.154 115.654 584.654 115.369 585.236 115.166C585.818 114.963 586.461 114.861 587.164 114.861C587.895 114.861 588.545 114.959 589.115 115.154C589.686 115.35 590.166 115.629 590.557 115.992C590.947 116.355 591.244 116.797 591.447 117.316C591.65 117.832 591.752 118.414 591.752 119.062V119.244H583.168C583.211 119.744 583.336 120.195 583.543 120.598C583.75 121 584.043 121.342 584.422 121.623C584.805 121.904 585.273 122.121 585.828 122.273C586.387 122.422 587.037 122.496 587.779 122.496C588.096 122.496 588.416 122.475 588.74 122.432C589.064 122.389 589.375 122.332 589.672 122.262C589.969 122.188 590.24 122.105 590.486 122.016C590.732 121.922 590.934 121.826 591.09 121.729V122.578ZM591.031 118.605C591.004 118.195 590.912 117.805 590.756 117.434C590.6 117.059 590.365 116.729 590.053 116.443C589.744 116.158 589.35 115.932 588.869 115.764C588.393 115.596 587.82 115.512 587.152 115.512C586.523 115.512 585.973 115.596 585.5 115.764C585.027 115.932 584.627 116.158 584.299 116.443C583.971 116.725 583.713 117.053 583.525 117.428C583.338 117.799 583.219 118.191 583.168 118.605H591.031Z" fill="white"/>
<path d="M577.238 123H576.143L572.123 114.949H572.943L576.711 122.496L580.479 114.949H581.293L577.238 123Z" fill="white"/>
<path d="M570.465 122.578C570.137 122.68 569.832 122.768 569.551 122.842C569.27 122.912 568.992 122.969 568.719 123.012C568.445 123.059 568.166 123.092 567.881 123.111C567.6 123.135 567.289 123.146 566.949 123.146C566.16 123.146 565.447 123.051 564.811 122.859C564.174 122.668 563.631 122.395 563.182 122.039C562.736 121.68 562.393 121.246 562.15 120.738C561.908 120.23 561.787 119.66 561.787 119.027C561.787 118.414 561.902 117.852 562.133 117.34C562.367 116.828 562.693 116.389 563.111 116.021C563.529 115.654 564.029 115.369 564.611 115.166C565.193 114.963 565.836 114.861 566.539 114.861C567.27 114.861 567.92 114.959 568.49 115.154C569.061 115.35 569.541 115.629 569.932 115.992C570.322 116.355 570.619 116.797 570.822 117.316C571.025 117.832 571.127 118.414 571.127 119.062V119.244H562.543C562.586 119.744 562.711 120.195 562.918 120.598C563.125 121 563.418 121.342 563.797 121.623C564.18 121.904 564.648 122.121 565.203 122.273C565.762 122.422 566.412 122.496 567.154 122.496C567.471 122.496 567.791 122.475 568.115 122.432C568.439 122.389 568.75 122.332 569.047 122.262C569.344 122.188 569.615 122.105 569.861 122.016C570.107 121.922 570.309 121.826 570.465 121.729V122.578ZM570.406 118.605C570.379 118.195 570.287 117.805 570.131 117.434C569.975 117.059 569.74 116.729 569.428 116.443C569.119 116.158 568.725 115.932 568.244 115.764C567.768 115.596 567.195 115.512 566.527 115.512C565.898 115.512 565.348 115.596 564.875 115.764C564.402 115.932 564.002 116.158 563.674 116.443C563.346 116.725 563.088 117.053 562.9 117.428C562.713 117.799 562.594 118.191 562.543 118.605H570.406Z" fill="white"/>
<path d="M553.086 119.555V123H552.354V114.949H556.361C556.975 114.949 557.5 114.998 557.938 115.096C558.375 115.189 558.732 115.334 559.01 115.529C559.291 115.721 559.496 115.961 559.625 116.25C559.754 116.539 559.818 116.877 559.818 117.264C559.818 117.865 559.66 118.348 559.344 118.711C559.027 119.07 558.518 119.316 557.814 119.449L560.562 123H559.643L557.047 119.531C556.938 119.539 556.826 119.545 556.713 119.549C556.6 119.553 556.482 119.555 556.361 119.555H553.086ZM559.062 117.264C559.062 116.92 559.002 116.643 558.881 116.432C558.76 116.217 558.562 116.051 558.289 115.934C558.016 115.816 557.656 115.738 557.211 115.699C556.77 115.656 556.227 115.635 555.582 115.635H553.086V118.869H555.559C556.203 118.869 556.748 118.852 557.193 118.816C557.639 118.777 558 118.701 558.277 118.588C558.555 118.471 558.754 118.309 558.875 118.102C559 117.891 559.062 117.611 559.062 117.264Z" fill="white"/>
<path d="M237 165C237 156.716 243.716 150 252 150H462C470.284 150 477 156.716 477 165V225C477 233.284 470.284 240 462 240H252C243.716 240 237 233.284 237 225V165Z" fill="black"/>
<path fill-rule="evenodd" clip-rule="evenodd" d="M462 151H252C244.268 151 238 157.268 238 165V225C238 232.732 244.268 239 252 239H462C469.732 239 476 232.732 476 225V165C476 157.268 469.732 151 462 151ZM252 150C243.716 150 237 156.716 237 165V225C237 233.284 243.716 240 252 240H462C470.284 240 477 233.284 477 225V165C477 156.716 470.284 150 462 150H252Z" fill="white"/>
<path d="M441.336 202.156V212H440.367V202.156H435.484V201.266H446.219V202.156H441.336Z" fill="white"/>
<path d="M434.086 211.148C433.711 211.305 433.339 211.448 432.969 211.578C432.604 211.708 432.224 211.82 431.828 211.914C431.432 212.008 431.016 212.081 430.578 212.133C430.141 212.185 429.664 212.211 429.148 212.211C428.513 212.211 427.901 212.159 427.312 212.055C426.729 211.951 426.185 211.794 425.68 211.586C425.174 211.378 424.716 211.12 424.305 210.812C423.893 210.5 423.539 210.138 423.242 209.727C422.951 209.315 422.724 208.852 422.562 208.336C422.406 207.82 422.328 207.255 422.328 206.641C422.328 206.026 422.406 205.461 422.562 204.945C422.724 204.43 422.951 203.966 423.242 203.555C423.539 203.143 423.893 202.784 424.305 202.477C424.716 202.164 425.174 201.904 425.68 201.695C426.185 201.487 426.729 201.331 427.312 201.227C427.896 201.122 428.508 201.07 429.148 201.07C429.664 201.07 430.141 201.096 430.578 201.148C431.016 201.201 431.432 201.273 431.828 201.367C432.224 201.461 432.604 201.573 432.969 201.703C433.339 201.828 433.711 201.969 434.086 202.125V203.297C433.789 203.109 433.471 202.932 433.133 202.766C432.794 202.599 432.427 202.453 432.031 202.328C431.641 202.203 431.221 202.104 430.773 202.031C430.326 201.958 429.846 201.922 429.336 201.922C428.305 201.922 427.411 202.034 426.656 202.258C425.901 202.482 425.276 202.799 424.781 203.211C424.292 203.617 423.927 204.112 423.688 204.695C423.453 205.273 423.336 205.922 423.336 206.641C423.336 207.359 423.453 208.008 423.688 208.586C423.927 209.164 424.292 209.659 424.781 210.07C425.276 210.477 425.901 210.792 426.656 211.016C427.411 211.234 428.305 211.344 429.336 211.344C429.846 211.344 430.328 211.307 430.781 211.234C431.24 211.161 431.667 211.062 432.062 210.938C432.464 210.812 432.831 210.669 433.164 210.508C433.503 210.341 433.81 210.167 434.086 209.984V211.148Z" fill="white"/>
<path d="M418.578 212V210.812C418.203 211.016 417.776 211.203 417.297 211.375C416.823 211.547 416.32 211.695 415.789 211.82C415.263 211.945 414.721 212.042 414.164 212.109C413.607 212.177 413.06 212.211 412.523 212.211C411.826 212.211 411.198 212.148 410.641 212.023C410.089 211.898 409.62 211.714 409.234 211.469C408.849 211.219 408.552 210.911 408.344 210.547C408.135 210.177 408.031 209.75 408.031 209.266C408.031 208.786 408.151 208.365 408.391 208C408.635 207.63 408.982 207.31 409.43 207.039C409.878 206.763 410.417 206.531 411.047 206.344C411.682 206.151 412.391 205.99 413.172 205.859C413.953 205.724 414.797 205.615 415.703 205.531C416.615 205.443 417.573 205.37 418.578 205.312V204.492C418.578 204.159 418.516 203.865 418.391 203.609C418.266 203.354 418.091 203.133 417.867 202.945C417.643 202.753 417.38 202.594 417.078 202.469C416.776 202.339 416.448 202.234 416.094 202.156C415.745 202.078 415.375 202.023 414.984 201.992C414.599 201.956 414.211 201.938 413.82 201.938C413.294 201.938 412.815 201.964 412.383 202.016C411.951 202.068 411.547 202.141 411.172 202.234C410.797 202.323 410.438 202.427 410.094 202.547C409.75 202.667 409.404 202.794 409.055 202.93V201.789C409.779 201.596 410.549 201.43 411.367 201.289C412.19 201.143 413.062 201.07 413.984 201.07C414.766 201.07 415.495 201.138 416.172 201.273C416.849 201.404 417.438 201.615 417.938 201.906C418.438 202.198 418.831 202.576 419.117 203.039C419.404 203.497 419.547 204.057 419.547 204.719V212H418.578ZM418.578 206.18C416.875 206.273 415.419 206.406 414.211 206.578C413.008 206.75 412.023 206.961 411.258 207.211C410.492 207.461 409.93 207.753 409.57 208.086C409.216 208.419 409.039 208.797 409.039 209.219C409.039 209.562 409.125 209.867 409.297 210.133C409.474 210.398 409.727 210.622 410.055 210.805C410.383 210.982 410.781 211.117 411.25 211.211C411.719 211.299 412.245 211.344 412.828 211.344C413.172 211.344 413.526 211.326 413.891 211.289C414.26 211.247 414.628 211.193 414.992 211.125C415.357 211.052 415.716 210.969 416.07 210.875C416.424 210.776 416.758 210.669 417.07 210.555C417.383 210.44 417.667 210.318 417.922 210.188C418.182 210.057 418.401 209.924 418.578 209.789V206.18Z" fill="white"/>
<path d="M407.047 202.094C406.896 202.047 406.685 201.997 406.414 201.945C406.148 201.888 405.805 201.859 405.383 201.859C404.799 201.859 404.25 201.932 403.734 202.078C403.224 202.219 402.747 202.411 402.305 202.656C401.867 202.901 401.461 203.188 401.086 203.516C400.711 203.839 400.372 204.182 400.07 204.547V212H399.094V201.266H400.07V203.453C400.419 203.094 400.797 202.763 401.203 202.461C401.615 202.159 402.047 201.901 402.5 201.688C402.953 201.469 403.427 201.299 403.922 201.18C404.422 201.055 404.938 200.992 405.469 200.992C405.651 200.992 405.815 200.997 405.961 201.008C406.107 201.013 406.24 201.023 406.359 201.039C406.484 201.049 406.602 201.062 406.711 201.078C406.82 201.094 406.932 201.112 407.047 201.133V202.094Z" fill="white"/>
<path d="M392.102 202.156V212H391.133V202.156H386.25V201.266H396.984V202.156H392.102Z" fill="white"/>
<path d="M383.203 212V204.914C383.203 204.32 383.122 203.833 382.961 203.453C382.805 203.068 382.578 202.763 382.281 202.539C381.99 202.315 381.633 202.159 381.211 202.07C380.789 201.982 380.315 201.938 379.789 201.938C379.18 201.938 378.581 202.013 377.992 202.164C377.409 202.31 376.857 202.497 376.336 202.727C375.815 202.951 375.336 203.201 374.898 203.477C374.461 203.753 374.091 204.018 373.789 204.273V212H372.812V201.266H373.789V203.148C374.154 202.919 374.555 202.68 374.992 202.43C375.435 202.174 375.909 201.943 376.414 201.734C376.924 201.521 377.469 201.346 378.047 201.211C378.625 201.076 379.234 201.008 379.875 201.008C380.599 201.008 381.229 201.096 381.766 201.273C382.307 201.445 382.755 201.693 383.109 202.016C383.469 202.333 383.737 202.721 383.914 203.18C384.091 203.633 384.18 204.141 384.18 204.703V212H383.203Z" fill="white"/>
<path d="M369.945 206.641C369.945 207.604 369.771 208.438 369.422 209.141C369.073 209.839 368.594 210.417 367.984 210.875C367.375 211.328 366.656 211.664 365.828 211.883C365 212.102 364.107 212.211 363.148 212.211C362.185 212.211 361.286 212.102 360.453 211.883C359.62 211.664 358.896 211.328 358.281 210.875C357.667 210.417 357.185 209.839 356.836 209.141C356.487 208.438 356.312 207.604 356.312 206.641C356.312 206 356.393 205.419 356.555 204.898C356.716 204.372 356.943 203.904 357.234 203.492C357.526 203.076 357.878 202.716 358.289 202.414C358.706 202.112 359.167 201.862 359.672 201.664C360.182 201.461 360.729 201.312 361.312 201.219C361.896 201.12 362.508 201.07 363.148 201.07C364.107 201.07 365 201.18 365.828 201.398C366.656 201.617 367.375 201.956 367.984 202.414C368.594 202.867 369.073 203.445 369.422 204.148C369.771 204.846 369.945 205.677 369.945 206.641ZM368.938 206.641C368.938 205.88 368.812 205.208 368.562 204.625C368.318 204.042 367.953 203.552 367.469 203.156C366.984 202.755 366.38 202.453 365.656 202.25C364.938 202.042 364.102 201.938 363.148 201.938C362.195 201.938 361.354 202.042 360.625 202.25C359.901 202.458 359.294 202.763 358.805 203.164C358.315 203.56 357.945 204.052 357.695 204.641C357.445 205.224 357.32 205.891 357.32 206.641C357.32 207.401 357.445 208.073 357.695 208.656C357.945 209.24 358.315 209.732 358.805 210.133C359.294 210.529 359.901 210.831 360.625 211.039C361.354 211.242 362.195 211.344 363.148 211.344C364.102 211.344 364.938 211.242 365.656 211.039C366.38 210.831 366.984 210.529 367.469 210.133C367.953 209.732 368.318 209.24 368.562 208.656C368.812 208.073 368.938 207.401 368.938 206.641Z" fill="white"/>
<path d="M354.164 211.148C353.789 211.305 353.417 211.448 353.047 211.578C352.682 211.708 352.302 211.82 351.906 211.914C351.51 212.008 351.094 212.081 350.656 212.133C350.219 212.185 349.742 212.211 349.227 212.211C348.591 212.211 347.979 212.159 347.391 212.055C346.807 211.951 346.263 211.794 345.758 211.586C345.253 211.378 344.794 211.12 344.383 210.812C343.971 210.5 343.617 210.138 343.32 209.727C343.029 209.315 342.802 208.852 342.641 208.336C342.484 207.82 342.406 207.255 342.406 206.641C342.406 206.026 342.484 205.461 342.641 204.945C342.802 204.43 343.029 203.966 343.32 203.555C343.617 203.143 343.971 202.784 344.383 202.477C344.794 202.164 345.253 201.904 345.758 201.695C346.263 201.487 346.807 201.331 347.391 201.227C347.974 201.122 348.586 201.07 349.227 201.07C349.742 201.07 350.219 201.096 350.656 201.148C351.094 201.201 351.51 201.273 351.906 201.367C352.302 201.461 352.682 201.573 353.047 201.703C353.417 201.828 353.789 201.969 354.164 202.125V203.297C353.867 203.109 353.549 202.932 353.211 202.766C352.872 202.599 352.505 202.453 352.109 202.328C351.719 202.203 351.299 202.104 350.852 202.031C350.404 201.958 349.924 201.922 349.414 201.922C348.383 201.922 347.49 202.034 346.734 202.258C345.979 202.482 345.354 202.799 344.859 203.211C344.37 203.617 344.005 204.112 343.766 204.695C343.531 205.273 343.414 205.922 343.414 206.641C343.414 207.359 343.531 208.008 343.766 208.586C344.005 209.164 344.37 209.659 344.859 210.07C345.354 210.477 345.979 210.792 346.734 211.016C347.49 211.234 348.383 211.344 349.414 211.344C349.924 211.344 350.406 211.307 350.859 211.234C351.318 211.161 351.745 211.062 352.141 210.938C352.542 210.812 352.909 210.669 353.242 210.508C353.581 210.341 353.888 210.167 354.164 209.984V211.148Z" fill="white"/>
<path d="M330.148 202.156V212H329.18V202.156H324.297V201.266H335.031V202.156H330.148Z" fill="white"/>
<path d="M323.984 202.094C323.833 202.047 323.622 201.997 323.352 201.945C323.086 201.888 322.742 201.859 322.32 201.859C321.737 201.859 321.188 201.932 320.672 202.078C320.161 202.219 319.685 202.411 319.242 202.656C318.805 202.901 318.398 203.188 318.023 203.516C317.648 203.839 317.31 204.182 317.008 204.547V212H316.031V201.266H317.008V203.453C317.357 203.094 317.734 202.763 318.141 202.461C318.552 202.159 318.984 201.901 319.438 201.688C319.891 201.469 320.365 201.299 320.859 201.18C321.359 201.055 321.875 200.992 322.406 200.992C322.589 200.992 322.753 200.997 322.898 201.008C323.044 201.013 323.177 201.023 323.297 201.039C323.422 201.049 323.539 201.062 323.648 201.078C323.758 201.094 323.87 201.112 323.984 201.133V202.094Z" fill="white"/>
<path d="M311.531 212V210.812C311.156 211.016 310.729 211.203 310.25 211.375C309.776 211.547 309.273 211.695 308.742 211.82C308.216 211.945 307.674 212.042 307.117 212.109C306.56 212.177 306.013 212.211 305.477 212.211C304.779 212.211 304.151 212.148 303.594 212.023C303.042 211.898 302.573 211.714 302.188 211.469C301.802 211.219 301.505 210.911 301.297 210.547C301.089 210.177 300.984 209.75 300.984 209.266C300.984 208.786 301.104 208.365 301.344 208C301.589 207.63 301.935 207.31 302.383 207.039C302.831 206.763 303.37 206.531 304 206.344C304.635 206.151 305.344 205.99 306.125 205.859C306.906 205.724 307.75 205.615 308.656 205.531C309.568 205.443 310.526 205.37 311.531 205.312V204.492C311.531 204.159 311.469 203.865 311.344 203.609C311.219 203.354 311.044 203.133 310.82 202.945C310.596 202.753 310.333 202.594 310.031 202.469C309.729 202.339 309.401 202.234 309.047 202.156C308.698 202.078 308.328 202.023 307.938 201.992C307.552 201.956 307.164 201.938 306.773 201.938C306.247 201.938 305.768 201.964 305.336 202.016C304.904 202.068 304.5 202.141 304.125 202.234C303.75 202.323 303.391 202.427 303.047 202.547C302.703 202.667 302.357 202.794 302.008 202.93V201.789C302.732 201.596 303.503 201.43 304.32 201.289C305.143 201.143 306.016 201.07 306.938 201.07C307.719 201.07 308.448 201.138 309.125 201.273C309.802 201.404 310.391 201.615 310.891 201.906C311.391 202.198 311.784 202.576 312.07 203.039C312.357 203.497 312.5 204.057 312.5 204.719V212H311.531ZM311.531 206.18C309.828 206.273 308.372 206.406 307.164 206.578C305.961 206.75 304.977 206.961 304.211 207.211C303.445 207.461 302.883 207.753 302.523 208.086C302.169 208.419 301.992 208.797 301.992 209.219C301.992 209.562 302.078 209.867 302.25 210.133C302.427 210.398 302.68 210.622 303.008 210.805C303.336 210.982 303.734 211.117 304.203 211.211C304.672 211.299 305.198 211.344 305.781 211.344C306.125 211.344 306.479 211.326 306.844 211.289C307.214 211.247 307.581 211.193 307.945 211.125C308.31 211.052 308.669 210.969 309.023 210.875C309.378 210.776 309.711 210.669 310.023 210.555C310.336 210.44 310.62 210.318 310.875 210.188C311.135 210.057 311.354 209.924 311.531 209.789V206.18Z" fill="white"/>
<path d="M282.852 201.266V202.914C283.081 202.716 283.336 202.505 283.617 202.281C283.898 202.057 284.208 201.852 284.547 201.664C284.885 201.477 285.253 201.32 285.648 201.195C286.044 201.07 286.469 201.008 286.922 201.008C287.646 201.008 288.286 201.172 288.844 201.5C289.401 201.823 289.852 202.326 290.195 203.008C290.529 202.701 290.872 202.424 291.227 202.18C291.581 201.93 291.943 201.719 292.312 201.547C292.688 201.375 293.073 201.242 293.469 201.148C293.865 201.055 294.273 201.008 294.695 201.008C295.232 201.008 295.719 201.099 296.156 201.281C296.599 201.464 296.974 201.714 297.281 202.031C297.589 202.349 297.826 202.724 297.992 203.156C298.164 203.583 298.25 204.042 298.25 204.531V212H297.273V204.781C297.273 204.333 297.219 203.935 297.109 203.586C297.005 203.232 296.839 202.932 296.609 202.688C296.385 202.443 296.096 202.258 295.742 202.133C295.393 202.003 294.974 201.938 294.484 201.938C294.094 201.938 293.706 201.995 293.32 202.109C292.94 202.219 292.576 202.367 292.227 202.555C291.878 202.737 291.552 202.945 291.25 203.18C290.948 203.414 290.682 203.656 290.453 203.906C290.479 204.052 290.492 204.177 290.492 204.281C290.497 204.385 290.5 204.51 290.5 204.656V212H289.523V204.781C289.523 204.25 289.453 203.805 289.312 203.445C289.172 203.081 288.977 202.786 288.727 202.562C288.477 202.339 288.18 202.18 287.836 202.086C287.497 201.987 287.128 201.938 286.727 201.938C286.346 201.938 285.969 202.003 285.594 202.133C285.224 202.263 284.87 202.432 284.531 202.641C284.193 202.849 283.88 203.083 283.594 203.344C283.307 203.599 283.06 203.854 282.852 204.109V212H281.875V201.266H282.852Z" fill="white"/>
<path d="M277.953 202.852C277.75 202.753 277.516 202.648 277.25 202.539C276.984 202.424 276.68 202.323 276.336 202.234C275.997 202.146 275.615 202.073 275.188 202.016C274.76 201.953 274.286 201.922 273.766 201.922C273.135 201.922 272.573 201.958 272.078 202.031C271.589 202.104 271.172 202.219 270.828 202.375C270.49 202.526 270.229 202.719 270.047 202.953C269.87 203.188 269.781 203.466 269.781 203.789C269.781 204.06 269.865 204.297 270.031 204.5C270.203 204.703 270.432 204.883 270.719 205.039C271.01 205.195 271.349 205.339 271.734 205.469C272.125 205.594 272.536 205.714 272.969 205.828C273.406 205.938 273.854 206.049 274.312 206.164C274.776 206.279 275.224 206.404 275.656 206.539C276.094 206.669 276.505 206.818 276.891 206.984C277.281 207.146 277.62 207.336 277.906 207.555C278.198 207.773 278.427 208.023 278.594 208.305C278.766 208.586 278.852 208.911 278.852 209.281C278.852 209.682 278.776 210.034 278.625 210.336C278.474 210.633 278.268 210.891 278.008 211.109C277.753 211.323 277.451 211.503 277.102 211.648C276.758 211.789 276.388 211.901 275.992 211.984C275.602 212.068 275.195 212.125 274.773 212.156C274.357 212.193 273.945 212.211 273.539 212.211C272.607 212.211 271.76 212.143 271 212.008C270.245 211.872 269.523 211.688 268.836 211.453V210.258C269.544 210.68 270.292 210.969 271.078 211.125C271.87 211.281 272.701 211.359 273.57 211.359C274.185 211.359 274.753 211.323 275.273 211.25C275.794 211.177 276.245 211.062 276.625 210.906C277.005 210.745 277.299 210.536 277.508 210.281C277.721 210.026 277.828 209.714 277.828 209.344C277.828 209.047 277.742 208.786 277.57 208.562C277.404 208.339 277.174 208.143 276.883 207.977C276.596 207.805 276.258 207.654 275.867 207.523C275.482 207.393 275.073 207.273 274.641 207.164C274.208 207.049 273.76 206.94 273.297 206.836C272.839 206.727 272.393 206.609 271.961 206.484C271.529 206.359 271.117 206.219 270.727 206.062C270.341 205.906 270.003 205.724 269.711 205.516C269.424 205.302 269.195 205.057 269.023 204.781C268.857 204.505 268.773 204.185 268.773 203.82C268.773 203.461 268.841 203.143 268.977 202.867C269.112 202.586 269.297 202.344 269.531 202.141C269.771 201.938 270.049 201.768 270.367 201.633C270.685 201.492 271.023 201.383 271.383 201.305C271.747 201.221 272.125 201.161 272.516 201.125C272.906 201.089 273.292 201.07 273.672 201.07C274.089 201.07 274.482 201.089 274.852 201.125C275.227 201.161 275.586 201.211 275.93 201.273C276.279 201.331 276.617 201.398 276.945 201.477C277.279 201.555 277.615 201.638 277.953 201.727V202.852Z" fill="white"/>
<path d="M385.656 184.289C385.656 184.773 385.695 185.19 385.773 185.539C385.852 185.888 386.016 186.174 386.266 186.398C386.516 186.622 386.875 186.789 387.344 186.898C387.818 187.003 388.445 187.055 389.227 187.055H394.078V188H389.031C388.172 188 387.461 187.932 386.898 187.797C386.341 187.656 385.896 187.443 385.562 187.156C385.234 186.865 385.005 186.497 384.875 186.055C384.745 185.612 384.68 185.086 384.68 184.477V177.266H385.656V184.289Z" fill="white"/>
<path d="M380.938 187.438C380.5 187.573 380.094 187.69 379.719 187.789C379.344 187.883 378.974 187.958 378.609 188.016C378.245 188.078 377.872 188.122 377.492 188.148C377.117 188.18 376.703 188.195 376.25 188.195C375.198 188.195 374.247 188.068 373.398 187.812C372.549 187.557 371.826 187.193 371.227 186.719C370.633 186.24 370.174 185.661 369.852 184.984C369.529 184.307 369.367 183.547 369.367 182.703C369.367 181.885 369.521 181.135 369.828 180.453C370.141 179.771 370.576 179.185 371.133 178.695C371.69 178.206 372.357 177.826 373.133 177.555C373.909 177.284 374.766 177.148 375.703 177.148C376.677 177.148 377.544 177.279 378.305 177.539C379.065 177.799 379.706 178.172 380.227 178.656C380.747 179.141 381.143 179.729 381.414 180.422C381.685 181.109 381.82 181.885 381.82 182.75V182.992H370.375C370.432 183.659 370.599 184.26 370.875 184.797C371.151 185.333 371.542 185.789 372.047 186.164C372.557 186.539 373.182 186.828 373.922 187.031C374.667 187.229 375.534 187.328 376.523 187.328C376.945 187.328 377.372 187.299 377.805 187.242C378.237 187.185 378.651 187.109 379.047 187.016C379.443 186.917 379.805 186.807 380.133 186.688C380.461 186.562 380.729 186.435 380.938 186.305V187.438ZM380.859 182.141C380.823 181.594 380.701 181.073 380.492 180.578C380.284 180.078 379.971 179.638 379.555 179.258C379.143 178.878 378.617 178.576 377.977 178.352C377.341 178.128 376.578 178.016 375.688 178.016C374.849 178.016 374.115 178.128 373.484 178.352C372.854 178.576 372.32 178.878 371.883 179.258C371.445 179.633 371.102 180.07 370.852 180.57C370.602 181.065 370.443 181.589 370.375 182.141H380.859Z" fill="white"/>
<path d="M367.273 182.625C367.273 183.312 367.201 183.924 367.055 184.461C366.914 184.992 366.714 185.456 366.453 185.852C366.193 186.247 365.875 186.583 365.5 186.859C365.13 187.135 364.716 187.357 364.258 187.523C363.805 187.69 363.31 187.812 362.773 187.891C362.242 187.964 361.682 188 361.094 188H355.555V177.266H361.078C361.958 177.266 362.776 177.352 363.531 177.523C364.286 177.695 364.94 177.99 365.492 178.406C366.049 178.818 366.484 179.367 366.797 180.055C367.115 180.742 367.273 181.599 367.273 182.625ZM366.266 182.625C366.266 182.042 366.208 181.526 366.094 181.078C365.979 180.63 365.815 180.242 365.602 179.914C365.388 179.581 365.128 179.302 364.82 179.078C364.513 178.854 364.167 178.674 363.781 178.539C363.396 178.398 362.977 178.299 362.523 178.242C362.07 178.185 361.589 178.156 361.078 178.156H356.531V187.102H361.078C361.844 187.102 362.544 187.034 363.18 186.898C363.815 186.758 364.359 186.518 364.812 186.18C365.271 185.836 365.628 185.378 365.883 184.805C366.138 184.227 366.266 183.5 366.266 182.625Z" fill="white"/>
<path d="M352.688 182.641C352.688 183.604 352.513 184.438 352.164 185.141C351.815 185.839 351.336 186.417 350.727 186.875C350.117 187.328 349.398 187.664 348.57 187.883C347.742 188.102 346.849 188.211 345.891 188.211C344.927 188.211 344.029 188.102 343.195 187.883C342.362 187.664 341.638 187.328 341.023 186.875C340.409 186.417 339.927 185.839 339.578 185.141C339.229 184.438 339.055 183.604 339.055 182.641C339.055 182 339.135 181.419 339.297 180.898C339.458 180.372 339.685 179.904 339.977 179.492C340.268 179.076 340.62 178.716 341.031 178.414C341.448 178.112 341.909 177.862 342.414 177.664C342.924 177.461 343.471 177.312 344.055 177.219C344.638 177.12 345.25 177.07 345.891 177.07C346.849 177.07 347.742 177.18 348.57 177.398C349.398 177.617 350.117 177.956 350.727 178.414C351.336 178.867 351.815 179.445 352.164 180.148C352.513 180.846 352.688 181.677 352.688 182.641ZM351.68 182.641C351.68 181.88 351.555 181.208 351.305 180.625C351.06 180.042 350.695 179.552 350.211 179.156C349.727 178.755 349.122 178.453 348.398 178.25C347.68 178.042 346.844 177.938 345.891 177.938C344.938 177.938 344.096 178.042 343.367 178.25C342.643 178.458 342.036 178.763 341.547 179.164C341.057 179.56 340.688 180.052 340.438 180.641C340.188 181.224 340.062 181.891 340.062 182.641C340.062 183.401 340.188 184.073 340.438 184.656C340.688 185.24 341.057 185.732 341.547 186.133C342.036 186.529 342.643 186.831 343.367 187.039C344.096 187.242 344.938 187.344 345.891 187.344C346.844 187.344 347.68 187.242 348.398 187.039C349.122 186.831 349.727 186.529 350.211 186.133C350.695 185.732 351.06 185.24 351.305 184.656C351.555 184.073 351.68 183.401 351.68 182.641Z" fill="white"/>
<path d="M335.219 188V178.867L329.32 188H328.453L322.547 178.828V188H321.57V177.266H322.617L328.914 186.992L335.141 177.266H336.18V188H335.219Z" fill="white"/>
<path d="M237 15C237 6.71573 243.716 0 252 0H462C470.284 0 477 6.71573 477 15V75C477 83.2843 470.284 90 462 90H252C243.716 90 237 83.2843 237 75V15Z" fill="black"/>
<path fill-rule="evenodd" clip-rule="evenodd" d="M462 1H252C244.268 1 238 7.26802 238 15V75C238 82.732 244.268 89 252 89H462C469.732 89 476 82.732 476 75V15C476 7.26801 469.732 1 462 1ZM252 0C243.716 0 237 6.71573 237 15V75C237 83.2843 243.716 90 252 90H462C470.284 90 477 83.2843 477 75V15C477 6.71573 470.284 0 462 0H252Z" fill="white"/>
<path d="M586 15C586 6.71573 592.716 0 601 0H811C819.284 0 826 6.71573 826 15V75C826 83.2843 819.284 90 811 90H601C592.716 90 586 83.2843 586 75V15Z" fill="black"/>
<path fill-rule="evenodd" clip-rule="evenodd" d="M811 1H601C593.268 1 587 7.26802 587 15V75C587 82.732 593.268 89 601 89H811C818.732 89 825 82.732 825 75V15C825 7.26801 818.732 1 811 1ZM601 0C592.716 0 586 6.71573 586 15V75C586 83.2843 592.716 90 601 90H811C819.284 90 826 83.2843 826 75V15C826 6.71573 819.284 0 811 0H601Z" fill="white"/>
<path d="M586 165C586 156.716 592.716 150 601 150H811C819.284 150 826 156.716 826 165V225C826 233.284 819.284 240 811 240H601C592.716 240 586 233.284 586 225V165Z" fill="black"/>
<path fill-rule="evenodd" clip-rule="evenodd" d="M811 151H601C593.268 151 587 157.268 587 165V225C587 232.732 593.268 239 601 239H811C818.732 239 825 232.732 825 225V165C825 157.268 818.732 151 811 151ZM601 150C592.716 150 586 156.716 586 165V225C586 233.284 592.716 240 601 240H811C819.284 240 826 233.284 826 225V165C826 156.716 819.284 150 811 150H601Z" fill="white"/>
<path d="M778.57 51V43.9141C778.57 43.3203 778.49 42.8333 778.328 42.4531C778.172 42.0677 777.945 41.763 777.648 41.5391C777.357 41.3151 777 41.1589 776.578 41.0703C776.156 40.9818 775.682 40.9375 775.156 40.9375C774.547 40.9375 773.948 41.013 773.359 41.1641C772.776 41.3099 772.224 41.4974 771.703 41.7266C771.182 41.9505 770.703 42.2005 770.266 42.4766C769.828 42.7526 769.458 43.0182 769.156 43.2734V51H768.18V40.2656H769.156V42.1484C769.521 41.9193 769.922 41.6797 770.359 41.4297C770.802 41.1745 771.276 40.9427 771.781 40.7344C772.292 40.5208 772.836 40.3464 773.414 40.2109C773.992 40.0755 774.602 40.0078 775.242 40.0078C775.966 40.0078 776.596 40.0964 777.133 40.2734C777.674 40.4453 778.122 40.6927 778.477 41.0156C778.836 41.3333 779.104 41.7214 779.281 42.1797C779.458 42.6328 779.547 43.1406 779.547 43.7031V51H778.57Z" fill="white"/>
<path d="M764.438 50.4375C764 50.5729 763.594 50.6901 763.219 50.7891C762.844 50.8828 762.474 50.9583 762.109 51.0156C761.745 51.0781 761.372 51.1224 760.992 51.1484C760.617 51.1797 760.203 51.1953 759.75 51.1953C758.698 51.1953 757.747 51.0677 756.898 50.8125C756.049 50.5573 755.326 50.1927 754.727 49.7188C754.133 49.2396 753.674 48.6615 753.352 47.9844C753.029 47.3073 752.867 46.5469 752.867 45.7031C752.867 44.8854 753.021 44.1354 753.328 43.4531C753.641 42.7708 754.076 42.1849 754.633 41.6953C755.19 41.2057 755.857 40.8255 756.633 40.5547C757.409 40.2839 758.266 40.1484 759.203 40.1484C760.177 40.1484 761.044 40.2786 761.805 40.5391C762.565 40.7995 763.206 41.1719 763.727 41.6562C764.247 42.1406 764.643 42.7292 764.914 43.4219C765.185 44.1094 765.32 44.8854 765.32 45.75V45.9922H753.875C753.932 46.6589 754.099 47.2604 754.375 47.7969C754.651 48.3333 755.042 48.7891 755.547 49.1641C756.057 49.5391 756.682 49.8281 757.422 50.0312C758.167 50.2292 759.034 50.3281 760.023 50.3281C760.445 50.3281 760.872 50.2995 761.305 50.2422C761.737 50.1849 762.151 50.1094 762.547 50.0156C762.943 49.9167 763.305 49.8073 763.633 49.6875C763.961 49.5625 764.229 49.4349 764.438 49.3047V50.4375ZM764.359 45.1406C764.323 44.5938 764.201 44.0729 763.992 43.5781C763.784 43.0781 763.471 42.638 763.055 42.2578C762.643 41.8776 762.117 41.5755 761.477 41.3516C760.841 41.1276 760.078 41.0156 759.188 41.0156C758.349 41.0156 757.615 41.1276 756.984 41.3516C756.354 41.5755 755.82 41.8776 755.383 42.2578C754.945 42.6328 754.602 43.0703 754.352 43.5703C754.102 44.0651 753.943 44.5885 753.875 45.1406H764.359Z" fill="white"/>
<path d="M749.812 51C749.76 50.4167 749.617 49.8906 749.383 49.4219C749.148 48.9479 748.846 48.5286 748.477 48.1641C748.112 47.7995 747.693 47.487 747.219 47.2266C746.745 46.9609 746.242 46.7422 745.711 46.5703C745.18 46.3984 744.63 46.2734 744.062 46.1953C743.495 46.112 742.935 46.0703 742.383 46.0703H740.719V51H739.742V40.2656H740.719V45.2109H742.117C742.674 45.2109 743.229 45.1615 743.781 45.0625C744.333 44.9583 744.859 44.8099 745.359 44.6172C745.865 44.4193 746.333 44.1797 746.766 43.8984C747.203 43.612 747.589 43.2865 747.922 42.9219C748.255 42.5521 748.529 42.1458 748.742 41.7031C748.956 41.2604 749.089 40.7812 749.141 40.2656H750.148C750.096 40.8333 749.969 41.349 749.766 41.8125C749.568 42.2708 749.323 42.6849 749.031 43.0547C748.74 43.4245 748.414 43.75 748.055 44.0312C747.695 44.3073 747.331 44.5469 746.961 44.75C746.591 44.9479 746.229 45.1146 745.875 45.25C745.521 45.3802 745.201 45.4792 744.914 45.5469C745.273 45.6042 745.661 45.6927 746.078 45.8125C746.5 45.9271 746.919 46.0833 747.336 46.2812C747.758 46.474 748.167 46.7135 748.562 47C748.958 47.2812 749.312 47.6146 749.625 48C749.943 48.3854 750.208 48.8255 750.422 49.3203C750.635 49.8151 750.768 50.375 750.82 51H749.812Z" fill="white"/>
<path d="M736.875 45.6406C736.875 46.6042 736.701 47.4375 736.352 48.1406C736.003 48.8385 735.523 49.4167 734.914 49.875C734.305 50.3281 733.586 50.6641 732.758 50.8828C731.93 51.1016 731.036 51.2109 730.078 51.2109C729.115 51.2109 728.216 51.1016 727.383 50.8828C726.549 50.6641 725.826 50.3281 725.211 49.875C724.596 49.4167 724.115 48.8385 723.766 48.1406C723.417 47.4375 723.242 46.6042 723.242 45.6406C723.242 45 723.323 44.4193 723.484 43.8984C723.646 43.3724 723.872 42.9036 724.164 42.4922C724.456 42.0755 724.807 41.7161 725.219 41.4141C725.635 41.112 726.096 40.862 726.602 40.6641C727.112 40.4609 727.659 40.3125 728.242 40.2188C728.826 40.1198 729.438 40.0703 730.078 40.0703C731.036 40.0703 731.93 40.1797 732.758 40.3984C733.586 40.6172 734.305 40.9557 734.914 41.4141C735.523 41.8672 736.003 42.4453 736.352 43.1484C736.701 43.8464 736.875 44.6771 736.875 45.6406ZM735.867 45.6406C735.867 44.8802 735.742 44.2083 735.492 43.625C735.247 43.0417 734.883 42.5521 734.398 42.1562C733.914 41.7552 733.31 41.4531 732.586 41.25C731.867 41.0417 731.031 40.9375 730.078 40.9375C729.125 40.9375 728.284 41.0417 727.555 41.25C726.831 41.4583 726.224 41.763 725.734 42.1641C725.245 42.5599 724.875 43.0521 724.625 43.6406C724.375 44.224 724.25 44.8906 724.25 45.6406C724.25 46.401 724.375 47.0729 724.625 47.6562C724.875 48.2396 725.245 48.7318 725.734 49.1328C726.224 49.5286 726.831 49.8307 727.555 50.0391C728.284 50.2422 729.125 50.3438 730.078 50.3438C731.031 50.3438 731.867 50.2422 732.586 50.0391C733.31 49.8307 733.914 49.5286 734.398 49.1328C734.883 48.7318 735.247 48.2396 735.492 47.6562C735.742 47.0729 735.867 46.401 735.867 45.6406Z" fill="white"/>
<path d="M717.328 41.1562V51H716.359V41.1562H711.477V40.2656H722.211V41.1562H717.328Z" fill="white"/>
<path d="M696.578 47.2891C696.578 47.7734 696.617 48.1901 696.695 48.5391C696.773 48.888 696.938 49.1745 697.188 49.3984C697.438 49.6224 697.797 49.7891 698.266 49.8984C698.74 50.0026 699.367 50.0547 700.148 50.0547H705V51H699.953C699.094 51 698.383 50.9323 697.82 50.7969C697.263 50.6562 696.818 50.4427 696.484 50.1562C696.156 49.8646 695.927 49.4974 695.797 49.0547C695.667 48.612 695.602 48.0859 695.602 47.4766V40.2656H696.578V47.2891Z" fill="white"/>
<path d="M691.859 50.4375C691.422 50.5729 691.016 50.6901 690.641 50.7891C690.266 50.8828 689.896 50.9583 689.531 51.0156C689.167 51.0781 688.794 51.1224 688.414 51.1484C688.039 51.1797 687.625 51.1953 687.172 51.1953C686.12 51.1953 685.169 51.0677 684.32 50.8125C683.471 50.5573 682.747 50.1927 682.148 49.7188C681.555 49.2396 681.096 48.6615 680.773 47.9844C680.451 47.3073 680.289 46.5469 680.289 45.7031C680.289 44.8854 680.443 44.1354 680.75 43.4531C681.062 42.7708 681.497 42.1849 682.055 41.6953C682.612 41.2057 683.279 40.8255 684.055 40.5547C684.831 40.2839 685.688 40.1484 686.625 40.1484C687.599 40.1484 688.466 40.2786 689.227 40.5391C689.987 40.7995 690.628 41.1719 691.148 41.6562C691.669 42.1406 692.065 42.7292 692.336 43.4219C692.607 44.1094 692.742 44.8854 692.742 45.75V45.9922H681.297C681.354 46.6589 681.521 47.2604 681.797 47.7969C682.073 48.3333 682.464 48.7891 682.969 49.1641C683.479 49.5391 684.104 49.8281 684.844 50.0312C685.589 50.2292 686.456 50.3281 687.445 50.3281C687.867 50.3281 688.294 50.2995 688.727 50.2422C689.159 50.1849 689.573 50.1094 689.969 50.0156C690.365 49.9167 690.727 49.8073 691.055 49.6875C691.383 49.5625 691.651 49.4349 691.859 49.3047V50.4375ZM691.781 45.1406C691.745 44.5938 691.622 44.0729 691.414 43.5781C691.206 43.0781 690.893 42.638 690.477 42.2578C690.065 41.8776 689.539 41.5755 688.898 41.3516C688.263 41.1276 687.5 41.0156 686.609 41.0156C685.771 41.0156 685.036 41.1276 684.406 41.3516C683.776 41.5755 683.242 41.8776 682.805 42.2578C682.367 42.6328 682.023 43.0703 681.773 43.5703C681.523 44.0651 681.365 44.5885 681.297 45.1406H691.781Z" fill="white"/>
<path d="M678.195 45.625C678.195 46.3125 678.122 46.9245 677.977 47.4609C677.836 47.9922 677.635 48.4557 677.375 48.8516C677.115 49.2474 676.797 49.5833 676.422 49.8594C676.052 50.1354 675.638 50.3568 675.18 50.5234C674.727 50.6901 674.232 50.8125 673.695 50.8906C673.164 50.9635 672.604 51 672.016 51H666.477V40.2656H672C672.88 40.2656 673.698 40.3516 674.453 40.5234C675.208 40.6953 675.862 40.9896 676.414 41.4062C676.971 41.8177 677.406 42.3672 677.719 43.0547C678.036 43.7422 678.195 44.599 678.195 45.625ZM677.188 45.625C677.188 45.0417 677.13 44.526 677.016 44.0781C676.901 43.6302 676.737 43.2422 676.523 42.9141C676.31 42.5807 676.049 42.3021 675.742 42.0781C675.435 41.8542 675.089 41.6745 674.703 41.5391C674.318 41.3984 673.898 41.2995 673.445 41.2422C672.992 41.1849 672.51 41.1562 672 41.1562H667.453V50.1016H672C672.766 50.1016 673.466 50.0339 674.102 49.8984C674.737 49.7578 675.281 49.5182 675.734 49.1797C676.193 48.8359 676.549 48.3776 676.805 47.8047C677.06 47.2266 677.188 46.5 677.188 45.625Z" fill="white"/>
<path d="M663.609 45.6406C663.609 46.6042 663.435 47.4375 663.086 48.1406C662.737 48.8385 662.258 49.4167 661.648 49.875C661.039 50.3281 660.32 50.6641 659.492 50.8828C658.664 51.1016 657.771 51.2109 656.812 51.2109C655.849 51.2109 654.951 51.1016 654.117 50.8828C653.284 50.6641 652.56 50.3281 651.945 49.875C651.331 49.4167 650.849 48.8385 650.5 48.1406C650.151 47.4375 649.977 46.6042 649.977 45.6406C649.977 45 650.057 44.4193 650.219 43.8984C650.38 43.3724 650.607 42.9036 650.898 42.4922C651.19 42.0755 651.542 41.7161 651.953 41.4141C652.37 41.112 652.831 40.862 653.336 40.6641C653.846 40.4609 654.393 40.3125 654.977 40.2188C655.56 40.1198 656.172 40.0703 656.812 40.0703C657.771 40.0703 658.664 40.1797 659.492 40.3984C660.32 40.6172 661.039 40.9557 661.648 41.4141C662.258 41.8672 662.737 42.4453 663.086 43.1484C663.435 43.8464 663.609 44.6771 663.609 45.6406ZM662.602 45.6406C662.602 44.8802 662.477 44.2083 662.227 43.625C661.982 43.0417 661.617 42.5521 661.133 42.1562C660.648 41.7552 660.044 41.4531 659.32 41.25C658.602 41.0417 657.766 40.9375 656.812 40.9375C655.859 40.9375 655.018 41.0417 654.289 41.25C653.565 41.4583 652.958 41.763 652.469 42.1641C651.979 42.5599 651.609 43.0521 651.359 43.6406C651.109 44.224 650.984 44.8906 650.984 45.6406C650.984 46.401 651.109 47.0729 651.359 47.6562C651.609 48.2396 651.979 48.7318 652.469 49.1328C652.958 49.5286 653.565 49.8307 654.289 50.0391C655.018 50.2422 655.859 50.3438 656.812 50.3438C657.766 50.3438 658.602 50.2422 659.32 50.0391C660.044 49.8307 660.648 49.5286 661.133 49.1328C661.617 48.7318 661.982 48.2396 662.227 47.6562C662.477 47.0729 662.602 46.401 662.602 45.6406Z" fill="white"/>
<path d="M646.141 51V41.8672L640.242 51H639.375L633.469 41.8281V51H632.492V40.2656H633.539L639.836 49.9922L646.062 40.2656H647.102V51H646.141Z" fill="white"/>
<path d="M375.227 45.6406C375.227 46.6042 375.052 47.4375 374.703 48.1406C374.354 48.8385 373.875 49.4167 373.266 49.875C372.656 50.3281 371.938 50.6641 371.109 50.8828C370.281 51.1016 369.388 51.2109 368.43 51.2109C367.466 51.2109 366.568 51.1016 365.734 50.8828C364.901 50.6641 364.177 50.3281 363.562 49.875C362.948 49.4167 362.466 48.8385 362.117 48.1406C361.768 47.4375 361.594 46.6042 361.594 45.6406C361.594 45 361.674 44.4193 361.836 43.8984C361.997 43.3724 362.224 42.9036 362.516 42.4922C362.807 42.0755 363.159 41.7161 363.57 41.4141C363.987 41.112 364.448 40.862 364.953 40.6641C365.464 40.4609 366.01 40.3125 366.594 40.2188C367.177 40.1198 367.789 40.0703 368.43 40.0703C369.388 40.0703 370.281 40.1797 371.109 40.3984C371.938 40.6172 372.656 40.9557 373.266 41.4141C373.875 41.8672 374.354 42.4453 374.703 43.1484C375.052 43.8464 375.227 44.6771 375.227 45.6406ZM374.219 45.6406C374.219 44.8802 374.094 44.2083 373.844 43.625C373.599 43.0417 373.234 42.5521 372.75 42.1562C372.266 41.7552 371.661 41.4531 370.938 41.25C370.219 41.0417 369.383 40.9375 368.43 40.9375C367.477 40.9375 366.635 41.0417 365.906 41.25C365.182 41.4583 364.576 41.763 364.086 42.1641C363.596 42.5599 363.227 43.0521 362.977 43.6406C362.727 44.224 362.602 44.8906 362.602 45.6406C362.602 46.401 362.727 47.0729 362.977 47.6562C363.227 48.2396 363.596 48.7318 364.086 49.1328C364.576 49.5286 365.182 49.8307 365.906 50.0391C366.635 50.2422 367.477 50.3438 368.43 50.3438C369.383 50.3438 370.219 50.2422 370.938 50.0391C371.661 49.8307 372.266 49.5286 372.75 49.1328C373.234 48.7318 373.599 48.2396 373.844 47.6562C374.094 47.0729 374.219 46.401 374.219 45.6406Z" fill="white"/>
<path d="M357.758 51V41.8672L351.859 51H350.992L345.086 41.8281V51H344.109V40.2656H345.156L351.453 49.9922L357.68 40.2656H358.719V51H357.758Z" fill="white"/>
<path d="M339.516 51V40.2656H340.492V51H339.516Z" fill="white"/>
<path d="M745.531 191.156V201H744.562V191.156H739.68V190.266H750.414V191.156H745.531Z" fill="white"/>
<path d="M731.141 191.18V194.875H738.281V195.781H731.141V201H730.164V190.266H738.664V191.18H731.141Z" fill="white"/>
<path d="M725.484 201L716.156 191.547V201H715.18V190.266H716.258L725.586 199.75V190.266H726.547V201H725.484Z" fill="white"/>
<path d="M706.266 200.148C705.891 200.305 705.518 200.448 705.148 200.578C704.784 200.708 704.404 200.82 704.008 200.914C703.612 201.008 703.195 201.081 702.758 201.133C702.32 201.185 701.844 201.211 701.328 201.211C700.693 201.211 700.081 201.159 699.492 201.055C698.909 200.951 698.365 200.794 697.859 200.586C697.354 200.378 696.896 200.12 696.484 199.812C696.073 199.5 695.719 199.138 695.422 198.727C695.13 198.315 694.904 197.852 694.742 197.336C694.586 196.82 694.508 196.255 694.508 195.641C694.508 195.026 694.586 194.461 694.742 193.945C694.904 193.43 695.13 192.966 695.422 192.555C695.719 192.143 696.073 191.784 696.484 191.477C696.896 191.164 697.354 190.904 697.859 190.695C698.365 190.487 698.909 190.331 699.492 190.227C700.076 190.122 700.688 190.07 701.328 190.07C701.844 190.07 702.32 190.096 702.758 190.148C703.195 190.201 703.612 190.273 704.008 190.367C704.404 190.461 704.784 190.573 705.148 190.703C705.518 190.828 705.891 190.969 706.266 191.125V192.297C705.969 192.109 705.651 191.932 705.312 191.766C704.974 191.599 704.607 191.453 704.211 191.328C703.82 191.203 703.401 191.104 702.953 191.031C702.505 190.958 702.026 190.922 701.516 190.922C700.484 190.922 699.591 191.034 698.836 191.258C698.081 191.482 697.456 191.799 696.961 192.211C696.471 192.617 696.107 193.112 695.867 193.695C695.633 194.273 695.516 194.922 695.516 195.641C695.516 196.359 695.633 197.008 695.867 197.586C696.107 198.164 696.471 198.659 696.961 199.07C697.456 199.477 698.081 199.792 698.836 200.016C699.591 200.234 700.484 200.344 701.516 200.344C702.026 200.344 702.508 200.307 702.961 200.234C703.419 200.161 703.846 200.062 704.242 199.938C704.643 199.812 705.01 199.669 705.344 199.508C705.682 199.341 705.99 199.167 706.266 198.984V200.148Z" fill="white"/>
<path d="M687.016 190.07C687.51 190.07 687.971 190.096 688.398 190.148C688.826 190.195 689.234 190.266 689.625 190.359C690.016 190.448 690.396 190.557 690.766 190.688C691.135 190.812 691.508 190.953 691.883 191.109V192.297C691.586 192.109 691.268 191.932 690.93 191.766C690.596 191.599 690.234 191.453 689.844 191.328C689.458 191.203 689.042 191.104 688.594 191.031C688.151 190.958 687.674 190.922 687.164 190.922C686.122 190.922 685.214 191.031 684.438 191.25C683.661 191.469 683.016 191.781 682.5 192.188C681.984 192.594 681.596 193.089 681.336 193.672C681.081 194.255 680.953 194.911 680.953 195.641C680.953 196.323 681.078 196.953 681.328 197.531C681.583 198.104 681.966 198.599 682.477 199.016C682.992 199.432 683.635 199.758 684.406 199.992C685.177 200.227 686.081 200.344 687.117 200.344C687.523 200.344 687.924 200.328 688.32 200.297C688.721 200.266 689.099 200.227 689.453 200.18C689.807 200.128 690.13 200.073 690.422 200.016C690.714 199.953 690.961 199.891 691.164 199.828V196.57H686.797V195.656H692.141V200.375C691.755 200.51 691.365 200.63 690.969 200.734C690.578 200.839 690.172 200.927 689.75 201C689.333 201.068 688.898 201.12 688.445 201.156C687.997 201.193 687.526 201.211 687.031 201.211C686.021 201.211 685.083 201.099 684.219 200.875C683.354 200.646 682.604 200.302 681.969 199.844C681.339 199.38 680.844 198.799 680.484 198.102C680.125 197.404 679.945 196.583 679.945 195.641C679.945 195.01 680.029 194.438 680.195 193.922C680.362 193.401 680.596 192.935 680.898 192.523C681.206 192.107 681.573 191.745 682 191.438C682.432 191.13 682.909 190.878 683.43 190.68C683.956 190.477 684.521 190.326 685.125 190.227C685.729 190.122 686.359 190.07 687.016 190.07Z" fill="white"/>
<path d="M676.102 201V190.266H677.078V201H676.102Z" fill="white"/>
<path d="M672.914 201L671.438 198.172H664.148L662.672 201H661.602L667.219 190.266H668.367L673.984 201H672.914ZM667.797 191.211L664.625 197.273H670.961L667.797 191.211Z" fill="white"/>
<path fill-rule="evenodd" clip-rule="evenodd" d="M340.53 138.53C340.237 138.823 339.763 138.823 339.47 138.53L334.697 133.757C334.404 133.464 334.404 132.99 334.697 132.697C334.99 132.404 335.464 132.404 335.757 132.697L339.25 136.189V100H340.75V136.189L344.243 132.697C344.536 132.404 345.01 132.404 345.303 132.697C345.596 132.99 345.596 133.464 345.303 133.757L340.53 138.53Z" fill="white"/>
<path fill-rule="evenodd" clip-rule="evenodd" d="M568.757 198.697L573.53 203.47C573.823 203.763 573.823 204.237 573.53 204.53L568.757 209.303C568.464 209.596 567.99 209.596 567.697 209.303C567.404 209.01 567.404 208.536 567.697 208.243L571.189 204.75L491 204.75L491 203.25L571.189 203.25L567.697 199.757C567.404 199.464 567.404 198.99 567.697 198.697C567.99 198.404 568.464 198.404 568.757 198.697Z" fill="white"/>
<path fill-rule="evenodd" clip-rule="evenodd" d="M491 188.75H531.929C534 188.75 535.679 187.071 535.679 185L535.679 48C535.679 46.7574 536.686 45.75 537.929 45.75H571.189L567.697 49.2426C567.404 49.5355 567.404 50.0104 567.697 50.3033C567.99 50.5962 568.464 50.5962 568.757 50.3033L573.53 45.5303C573.823 45.2374 573.823 44.7626 573.53 44.4697L568.757 39.6967C568.464 39.4038 567.99 39.4038 567.697 39.6967C567.404 39.9896 567.404 40.4645 567.697 40.7574L571.189 44.25H537.929C535.858 44.25 534.179 45.9289 534.179 48L534.179 185C534.179 186.243 533.171 187.25 531.929 187.25H491V188.75Z" fill="white"/>
<path fill-rule="evenodd" clip-rule="evenodd" d="M142 123.75L190 123.75C192.071 123.75 193.75 122.071 193.75 120L193.75 48C193.75 46.7574 194.757 45.75 196 45.75H222.189L218.697 49.2426C218.404 49.5355 218.404 50.0104 218.697 50.3033C218.99 50.5962 219.464 50.5962 219.757 50.3033L224.53 45.5303C224.823 45.2374 224.823 44.7626 224.53 44.4697L219.757 39.6967C219.464 39.4038 218.99 39.4038 218.697 39.6967C218.404 39.9896 218.404 40.4645 218.697 40.7574L222.189 44.25H196C193.929 44.25 192.25 45.9289 192.25 48L192.25 120C192.25 121.243 191.243 122.25 190 122.25L142 122.25V123.75Z" fill="white"/>
<path d="M128 119C128 154.346 99.3462 183 64 183C28.6538 183 0 154.346 0 119C0 83.6538 28.6538 55 64 55C99.3462 55 128 83.6538 128 119Z" fill="black"/>
<path fill-rule="evenodd" clip-rule="evenodd" d="M64 182C98.7939 182 127 153.794 127 119C127 84.2061 98.7939 56 64 56C29.2061 56 1 84.2061 1 119C1 153.794 29.2061 182 64 182ZM64 183C99.3462 183 128 154.346 128 119C128 83.6538 99.3462 55 64 55C28.6538 55 0 83.6538 0 119C0 154.346 28.6538 183 64 183Z" fill="white"/>
<path d="M93.7734 113.852C93.5703 113.753 93.3359 113.648 93.0703 113.539C92.8047 113.424 92.5 113.323 92.1562 113.234C91.8177 113.146 91.4349 113.073 91.0078 113.016C90.5807 112.953 90.1068 112.922 89.5859 112.922C88.9557 112.922 88.3932 112.958 87.8984 113.031C87.4089 113.104 86.9922 113.219 86.6484 113.375C86.3099 113.526 86.0495 113.719 85.8672 113.953C85.6901 114.188 85.6016 114.466 85.6016 114.789C85.6016 115.06 85.6849 115.297 85.8516 115.5C86.0234 115.703 86.2526 115.883 86.5391 116.039C86.8307 116.195 87.1693 116.339 87.5547 116.469C87.9453 116.594 88.3568 116.714 88.7891 116.828C89.2266 116.938 89.6745 117.049 90.1328 117.164C90.5964 117.279 91.0443 117.404 91.4766 117.539C91.9141 117.669 92.3255 117.818 92.7109 117.984C93.1016 118.146 93.4401 118.336 93.7266 118.555C94.0182 118.773 94.2474 119.023 94.4141 119.305C94.5859 119.586 94.6719 119.911 94.6719 120.281C94.6719 120.682 94.5964 121.034 94.4453 121.336C94.2943 121.633 94.0885 121.891 93.8281 122.109C93.5729 122.323 93.2708 122.503 92.9219 122.648C92.5781 122.789 92.2083 122.901 91.8125 122.984C91.4219 123.068 91.0156 123.125 90.5938 123.156C90.1771 123.193 89.7656 123.211 89.3594 123.211C88.4271 123.211 87.5807 123.143 86.8203 123.008C86.0651 122.872 85.3438 122.688 84.6562 122.453V121.258C85.3646 121.68 86.112 121.969 86.8984 122.125C87.6901 122.281 88.5208 122.359 89.3906 122.359C90.0052 122.359 90.5729 122.323 91.0938 122.25C91.6146 122.177 92.0651 122.062 92.4453 121.906C92.8255 121.745 93.1198 121.536 93.3281 121.281C93.5417 121.026 93.6484 120.714 93.6484 120.344C93.6484 120.047 93.5625 119.786 93.3906 119.562C93.224 119.339 92.9948 119.143 92.7031 118.977C92.4167 118.805 92.0781 118.654 91.6875 118.523C91.3021 118.393 90.8932 118.273 90.4609 118.164C90.0286 118.049 89.5807 117.94 89.1172 117.836C88.6589 117.727 88.2135 117.609 87.7812 117.484C87.349 117.359 86.9375 117.219 86.5469 117.062C86.1615 116.906 85.8229 116.724 85.5312 116.516C85.2448 116.302 85.0156 116.057 84.8438 115.781C84.6771 115.505 84.5938 115.185 84.5938 114.82C84.5938 114.461 84.6615 114.143 84.7969 113.867C84.9323 113.586 85.1172 113.344 85.3516 113.141C85.5911 112.938 85.8698 112.768 86.1875 112.633C86.5052 112.492 86.8438 112.383 87.2031 112.305C87.5677 112.221 87.9453 112.161 88.3359 112.125C88.7266 112.089 89.112 112.07 89.4922 112.07C89.9089 112.07 90.3021 112.089 90.6719 112.125C91.0469 112.161 91.4062 112.211 91.75 112.273C92.099 112.331 92.4375 112.398 92.7656 112.477C93.099 112.555 93.4349 112.638 93.7734 112.727V113.852Z" fill="white"/>
<path d="M83.2891 113.094C83.138 113.047 82.9271 112.997 82.6562 112.945C82.3906 112.888 82.0469 112.859 81.625 112.859C81.0417 112.859 80.4922 112.932 79.9766 113.078C79.4661 113.219 78.9896 113.411 78.5469 113.656C78.1094 113.901 77.7031 114.188 77.3281 114.516C76.9531 114.839 76.6146 115.182 76.3125 115.547V123H75.3359V112.266H76.3125V114.453C76.6615 114.094 77.0391 113.763 77.4453 113.461C77.8568 113.159 78.2891 112.901 78.7422 112.688C79.1953 112.469 79.6693 112.299 80.1641 112.18C80.6641 112.055 81.1797 111.992 81.7109 111.992C81.8932 111.992 82.0573 111.997 82.2031 112.008C82.349 112.013 82.4818 112.023 82.6016 112.039C82.7266 112.049 82.8438 112.062 82.9531 112.078C83.0625 112.094 83.1745 112.112 83.2891 112.133V113.094Z" fill="white"/>
<path d="M71.5938 122.438C71.1562 122.573 70.75 122.69 70.375 122.789C70 122.883 69.6302 122.958 69.2656 123.016C68.901 123.078 68.5286 123.122 68.1484 123.148C67.7734 123.18 67.3594 123.195 66.9062 123.195C65.8542 123.195 64.9036 123.068 64.0547 122.812C63.2057 122.557 62.4818 122.193 61.8828 121.719C61.2891 121.24 60.8307 120.661 60.5078 119.984C60.1849 119.307 60.0234 118.547 60.0234 117.703C60.0234 116.885 60.1771 116.135 60.4844 115.453C60.7969 114.771 61.2318 114.185 61.7891 113.695C62.3464 113.206 63.013 112.826 63.7891 112.555C64.5651 112.284 65.4219 112.148 66.3594 112.148C67.3333 112.148 68.2005 112.279 68.9609 112.539C69.7214 112.799 70.362 113.172 70.8828 113.656C71.4036 114.141 71.7995 114.729 72.0703 115.422C72.3411 116.109 72.4766 116.885 72.4766 117.75V117.992H61.0312C61.0885 118.659 61.2552 119.26 61.5312 119.797C61.8073 120.333 62.1979 120.789 62.7031 121.164C63.2135 121.539 63.8385 121.828 64.5781 122.031C65.3229 122.229 66.1901 122.328 67.1797 122.328C67.6016 122.328 68.0286 122.299 68.4609 122.242C68.8932 122.185 69.3073 122.109 69.7031 122.016C70.099 121.917 70.4609 121.807 70.7891 121.688C71.1172 121.562 71.3854 121.435 71.5938 121.305V122.438ZM71.5156 117.141C71.4792 116.594 71.3568 116.073 71.1484 115.578C70.9401 115.078 70.6276 114.638 70.2109 114.258C69.7995 113.878 69.2734 113.576 68.6328 113.352C67.9974 113.128 67.2344 113.016 66.3438 113.016C65.5052 113.016 64.7708 113.128 64.1406 113.352C63.5104 113.576 62.9766 113.878 62.5391 114.258C62.1016 114.633 61.7578 115.07 61.5078 115.57C61.2578 116.065 61.099 116.589 61.0312 117.141H71.5156Z" fill="white"/>
<path d="M56.8516 113.852C56.6484 113.753 56.4141 113.648 56.1484 113.539C55.8828 113.424 55.5781 113.323 55.2344 113.234C54.8958 113.146 54.513 113.073 54.0859 113.016C53.6589 112.953 53.1849 112.922 52.6641 112.922C52.0339 112.922 51.4714 112.958 50.9766 113.031C50.487 113.104 50.0703 113.219 49.7266 113.375C49.388 113.526 49.1276 113.719 48.9453 113.953C48.7682 114.188 48.6797 114.466 48.6797 114.789C48.6797 115.06 48.763 115.297 48.9297 115.5C49.1016 115.703 49.3307 115.883 49.6172 116.039C49.9089 116.195 50.2474 116.339 50.6328 116.469C51.0234 116.594 51.4349 116.714 51.8672 116.828C52.3047 116.938 52.7526 117.049 53.2109 117.164C53.6745 117.279 54.1224 117.404 54.5547 117.539C54.9922 117.669 55.4036 117.818 55.7891 117.984C56.1797 118.146 56.5182 118.336 56.8047 118.555C57.0964 118.773 57.3255 119.023 57.4922 119.305C57.6641 119.586 57.75 119.911 57.75 120.281C57.75 120.682 57.6745 121.034 57.5234 121.336C57.3724 121.633 57.1667 121.891 56.9062 122.109C56.651 122.323 56.349 122.503 56 122.648C55.6562 122.789 55.2865 122.901 54.8906 122.984C54.5 123.068 54.0938 123.125 53.6719 123.156C53.2552 123.193 52.8438 123.211 52.4375 123.211C51.5052 123.211 50.6589 123.143 49.8984 123.008C49.1432 122.872 48.4219 122.688 47.7344 122.453V121.258C48.4427 121.68 49.1901 121.969 49.9766 122.125C50.7682 122.281 51.599 122.359 52.4688 122.359C53.0833 122.359 53.651 122.323 54.1719 122.25C54.6927 122.177 55.1432 122.062 55.5234 121.906C55.9036 121.745 56.1979 121.536 56.4062 121.281C56.6198 121.026 56.7266 120.714 56.7266 120.344C56.7266 120.047 56.6406 119.786 56.4688 119.562C56.3021 119.339 56.0729 119.143 55.7812 118.977C55.4948 118.805 55.1562 118.654 54.7656 118.523C54.3802 118.393 53.9714 118.273 53.5391 118.164C53.1068 118.049 52.6589 117.94 52.1953 117.836C51.737 117.727 51.2917 117.609 50.8594 117.484C50.4271 117.359 50.0156 117.219 49.625 117.062C49.2396 116.906 48.901 116.724 48.6094 116.516C48.3229 116.302 48.0938 116.057 47.9219 115.781C47.7552 115.505 47.6719 115.185 47.6719 114.82C47.6719 114.461 47.7396 114.143 47.875 113.867C48.0104 113.586 48.1953 113.344 48.4297 113.141C48.6693 112.938 48.9479 112.768 49.2656 112.633C49.5833 112.492 49.9219 112.383 50.2812 112.305C50.6458 112.221 51.0234 112.161 51.4141 112.125C51.8047 112.089 52.1901 112.07 52.5703 112.07C52.987 112.07 53.3802 112.089 53.75 112.125C54.125 112.161 54.4844 112.211 54.8281 112.273C55.1771 112.331 55.5156 112.398 55.8438 112.477C56.1771 112.555 56.513 112.638 56.8516 112.727V113.852Z" fill="white"/>
<path d="M44.6562 119.625C44.6562 120.161 44.5417 120.651 44.3125 121.094C44.0885 121.531 43.75 121.909 43.2969 122.227C42.849 122.539 42.2865 122.781 41.6094 122.953C40.9323 123.125 40.1432 123.211 39.2422 123.211C38.3411 123.211 37.5521 123.125 36.875 122.953C36.1979 122.781 35.6328 122.539 35.1797 122.227C34.7266 121.909 34.3854 121.531 34.1562 121.094C33.9323 120.651 33.8203 120.161 33.8203 119.625V112.266H34.7969V119.703C34.7969 120.062 34.8906 120.404 35.0781 120.727C35.2708 121.044 35.5547 121.323 35.9297 121.562C36.3047 121.802 36.7682 121.992 37.3203 122.133C37.8724 122.273 38.513 122.344 39.2422 122.344C39.9661 122.344 40.6042 122.273 41.1562 122.133C41.7083 121.992 42.1719 121.802 42.5469 121.562C42.9219 121.323 43.2031 121.044 43.3906 120.727C43.5833 120.404 43.6797 120.062 43.6797 119.703V112.266H44.6562V119.625Z" fill="white"/>
</svg>
