<svg width="826" height="240" viewBox="0 0 826 240" fill="none" xmlns="http://www.w3.org/2000/svg">
<path d="M157.307 82.6973C157.307 83.0996 157.248 83.4707 157.131 83.8105C157.014 84.1465 156.824 84.4375 156.562 84.6836C156.305 84.9258 155.969 85.1152 155.555 85.252C155.141 85.3887 154.637 85.457 154.043 85.457H150.434V88H148.26V79.9492H154.043C154.637 79.9492 155.141 80.0176 155.555 80.1543C155.969 80.2871 156.305 80.4766 156.562 80.7227C156.824 80.9648 157.014 81.2539 157.131 81.5898C157.248 81.9258 157.307 82.2949 157.307 82.6973ZM155.109 82.7324C155.109 82.5449 155.082 82.3848 155.027 82.252C154.977 82.1152 154.891 82.0039 154.77 81.918C154.648 81.832 154.49 81.7695 154.295 81.7305C154.1 81.6875 153.859 81.666 153.574 81.666H150.434V83.7402H153.574C153.859 83.7402 154.1 83.7246 154.295 83.6934C154.49 83.6582 154.648 83.6016 154.77 83.5234C154.891 83.4414 154.977 83.3359 155.027 83.207C155.082 83.0781 155.109 82.9199 155.109 82.7324ZM165.879 88V87.209C165.602 87.3613 165.303 87.4961 164.982 87.6133C164.666 87.7305 164.336 87.8301 163.992 87.9121C163.648 87.9941 163.293 88.0547 162.926 88.0938C162.562 88.1367 162.195 88.1582 161.824 88.1582C161.391 88.1582 160.971 88.1172 160.564 88.0352C160.162 87.9531 159.805 87.8203 159.492 87.6367C159.18 87.4531 158.928 87.2129 158.736 86.916C158.549 86.6191 158.455 86.2559 158.455 85.8262C158.455 85.2832 158.604 84.832 158.9 84.4727C159.197 84.1094 159.65 83.8125 160.26 83.582C160.869 83.3516 161.639 83.1738 162.568 83.0488C163.502 82.9238 164.605 82.8262 165.879 82.7559V82.5859C165.879 82.4531 165.844 82.3223 165.773 82.1934C165.703 82.0605 165.574 81.9453 165.387 81.8477C165.203 81.7461 164.949 81.6641 164.625 81.6016C164.305 81.5391 163.895 81.5078 163.395 81.5078C163 81.5078 162.609 81.5293 162.223 81.5723C161.84 81.6113 161.469 81.666 161.109 81.7363C160.754 81.8066 160.416 81.8887 160.096 81.9824C159.775 82.0762 159.484 82.1738 159.223 82.2754V80.3418C159.496 80.2715 159.803 80.2031 160.143 80.1367C160.482 80.0703 160.836 80.0137 161.203 79.9668C161.57 79.916 161.941 79.877 162.316 79.8496C162.691 79.8184 163.051 79.8027 163.395 79.8027C164.07 79.8027 164.693 79.8594 165.264 79.9727C165.834 80.082 166.324 80.2539 166.734 80.4883C167.148 80.7227 167.471 81.0195 167.701 81.3789C167.936 81.7383 168.053 82.166 168.053 82.6621V88H165.879ZM165.879 84.3262C165.043 84.3574 164.332 84.4023 163.746 84.4609C163.164 84.5195 162.68 84.5879 162.293 84.666C161.906 84.7441 161.602 84.8281 161.379 84.918C161.16 85.0078 160.996 85.0996 160.887 85.1934C160.777 85.2871 160.709 85.3809 160.682 85.4746C160.658 85.5684 160.646 85.6543 160.646 85.7324C160.646 85.8262 160.672 85.918 160.723 86.0078C160.773 86.0938 160.861 86.1699 160.986 86.2363C161.115 86.3027 161.285 86.3555 161.496 86.3945C161.707 86.4336 161.973 86.4531 162.293 86.4531C162.648 86.4531 162.996 86.4258 163.336 86.3711C163.676 86.3164 163.998 86.2422 164.303 86.1484C164.607 86.0508 164.893 85.9375 165.158 85.8086C165.428 85.6758 165.668 85.5352 165.879 85.3867V84.3262ZM180.1 84.9062C180.1 85.4297 179.971 85.8965 179.713 86.3066C179.455 86.7168 179.088 87.0645 178.611 87.3496C178.139 87.6309 177.564 87.8457 176.889 87.9941C176.217 88.1426 175.463 88.2168 174.627 88.2168C174.26 88.2168 173.873 88.2012 173.467 88.1699C173.064 88.1426 172.67 88.1016 172.283 88.0469C171.9 87.9961 171.541 87.9375 171.205 87.8711C170.869 87.8008 170.586 87.7246 170.355 87.6426V85.7324C170.605 85.8379 170.883 85.9375 171.188 86.0312C171.496 86.125 171.83 86.209 172.189 86.2832C172.549 86.3535 172.934 86.4102 173.344 86.4531C173.758 86.4922 174.195 86.5117 174.656 86.5117C175.09 86.5117 175.471 86.4863 175.799 86.4355C176.131 86.3848 176.418 86.3164 176.66 86.2305C176.902 86.1445 177.104 86.0469 177.264 85.9375C177.424 85.8242 177.553 85.709 177.65 85.5918C177.748 85.4707 177.816 85.3516 177.855 85.2344C177.898 85.1172 177.92 85.0078 177.92 84.9062V84.1973C177.521 84.4902 177.047 84.7324 176.496 84.9238C175.945 85.1113 175.318 85.2051 174.615 85.2051C173.799 85.2051 173.117 85.127 172.57 84.9707C172.027 84.8105 171.592 84.582 171.264 84.2852C170.936 83.9844 170.701 83.6191 170.561 83.1895C170.424 82.7598 170.355 82.2754 170.355 81.7363V79.9492H172.541V81.5195C172.541 81.8359 172.582 82.1172 172.664 82.3633C172.75 82.6094 172.883 82.8164 173.062 82.9844C173.246 83.1484 173.482 83.2734 173.771 83.3594C174.061 83.4453 174.41 83.4883 174.82 83.4883C175.168 83.4883 175.496 83.4453 175.805 83.3594C176.117 83.2734 176.404 83.1602 176.666 83.0195C176.928 82.8789 177.164 82.7188 177.375 82.5391C177.586 82.3594 177.768 82.1758 177.92 81.9883V79.9492H180.1V84.9062ZM148.26 106V97.9492H156.41V99.666H150.492V100.996H156.105V102.713H150.492V104.283H156.492V106H148.26ZM163.107 99.7012V106H160.934V99.7012H157.518V97.9492H166.529V99.7012H163.107ZM175.676 106V102.643H170.145V106H167.971V97.9492H170.145V100.879H175.676V97.9492H177.85V106H175.676Z" fill="black"/>
<path d="M368.496 114V108.346L365.508 114H363.422L360.434 108.346V114H358.26V105.949H361.213L364.465 112.043L367.717 105.949H370.658V114H368.496ZM373.178 114V105.949H375.352V114H373.178ZM385.547 114V109.488C385.547 109.188 385.521 108.916 385.471 108.674C385.42 108.428 385.324 108.219 385.184 108.047C385.047 107.871 384.854 107.736 384.604 107.643C384.357 107.545 384.039 107.496 383.648 107.496C383.352 107.496 383.039 107.537 382.711 107.619C382.387 107.697 382.064 107.803 381.744 107.936C381.424 108.068 381.117 108.223 380.824 108.398C380.535 108.574 380.277 108.758 380.051 108.949V114H377.877V105.949H380.051V107.051C380.324 106.895 380.615 106.74 380.924 106.588C381.232 106.432 381.561 106.291 381.908 106.166C382.256 106.041 382.625 105.939 383.016 105.861C383.406 105.783 383.818 105.744 384.252 105.744C384.795 105.744 385.279 105.811 385.705 105.943C386.135 106.072 386.498 106.258 386.795 106.5C387.092 106.738 387.318 107.029 387.475 107.373C387.635 107.713 387.715 108.094 387.715 108.516V114H385.547ZM394.717 107.701V114H392.543V107.701H389.127V105.949H398.139V107.701H394.717ZM368.496 132V126.346L365.508 132H363.422L360.434 126.346V132H358.26V123.949H361.213L364.465 130.043L367.717 123.949H370.658V132H368.496ZM383.596 127.98C383.596 128.672 383.469 129.283 383.215 129.814C382.961 130.342 382.598 130.783 382.125 131.139C381.652 131.494 381.078 131.764 380.402 131.947C379.73 132.127 378.975 132.217 378.135 132.217C377.295 132.217 376.535 132.127 375.855 131.947C375.18 131.764 374.604 131.494 374.127 131.139C373.65 130.783 373.283 130.342 373.025 129.814C372.768 129.283 372.639 128.672 372.639 127.98C372.639 127.289 372.768 126.68 373.025 126.152C373.283 125.621 373.65 125.178 374.127 124.822C374.604 124.467 375.18 124.199 375.855 124.02C376.535 123.836 377.295 123.744 378.135 123.744C378.975 123.744 379.73 123.836 380.402 124.02C381.078 124.199 381.652 124.467 382.125 124.822C382.598 125.178 382.961 125.621 383.215 126.152C383.469 126.68 383.596 127.289 383.596 127.98ZM381.398 127.98C381.398 127.68 381.35 127.381 381.252 127.084C381.158 126.783 380.988 126.514 380.742 126.275C380.5 126.037 380.168 125.844 379.746 125.695C379.324 125.547 378.787 125.473 378.135 125.473C377.697 125.473 377.312 125.508 376.98 125.578C376.648 125.645 376.361 125.738 376.119 125.859C375.877 125.98 375.674 126.123 375.51 126.287C375.346 126.447 375.215 126.621 375.117 126.809C375.02 126.992 374.949 127.186 374.906 127.389C374.867 127.588 374.848 127.785 374.848 127.98C374.848 128.18 374.867 128.381 374.906 128.584C374.949 128.787 375.02 128.982 375.117 129.17C375.215 129.354 375.346 129.525 375.51 129.686C375.674 129.846 375.877 129.986 376.119 130.107C376.361 130.225 376.648 130.318 376.98 130.389C377.312 130.455 377.697 130.488 378.135 130.488C378.787 130.488 379.324 130.414 379.746 130.266C380.168 130.117 380.5 129.924 380.742 129.686C380.988 129.447 381.158 129.18 381.252 128.883C381.35 128.582 381.398 128.281 381.398 127.98ZM395.438 127.969C395.438 128.484 395.381 128.943 395.268 129.346C395.154 129.744 394.994 130.092 394.787 130.389C394.584 130.686 394.338 130.938 394.049 131.145C393.764 131.352 393.445 131.518 393.094 131.643C392.742 131.768 392.363 131.859 391.957 131.918C391.551 131.973 391.127 132 390.686 132H385.576V123.949H390.674C391.115 123.949 391.539 123.979 391.945 124.037C392.352 124.092 392.73 124.182 393.082 124.307C393.438 124.432 393.76 124.598 394.049 124.805C394.338 125.008 394.584 125.26 394.787 125.561C394.994 125.857 395.154 126.205 395.268 126.604C395.381 127.002 395.438 127.457 395.438 127.969ZM393.246 127.969C393.246 127.582 393.195 127.246 393.094 126.961C392.996 126.676 392.836 126.441 392.613 126.258C392.395 126.07 392.107 125.932 391.752 125.842C391.396 125.748 390.963 125.701 390.451 125.701H387.75V130.248H390.451C390.963 130.248 391.396 130.203 391.752 130.113C392.107 130.02 392.395 129.879 392.613 129.691C392.836 129.5 392.996 129.262 393.094 128.977C393.195 128.691 393.246 128.355 393.246 127.969ZM406.4 131.602C405.74 131.82 405.08 131.977 404.42 132.07C403.764 132.168 403.092 132.217 402.404 132.217C401.525 132.217 400.742 132.123 400.055 131.936C399.371 131.744 398.795 131.469 398.326 131.109C397.857 130.75 397.5 130.311 397.254 129.791C397.008 129.271 396.885 128.684 396.885 128.027C396.885 127.418 397.008 126.854 397.254 126.334C397.504 125.811 397.855 125.357 398.309 124.975C398.766 124.588 399.316 124.287 399.961 124.072C400.605 123.854 401.324 123.744 402.117 123.744C402.848 123.744 403.516 123.844 404.121 124.043C404.73 124.238 405.252 124.529 405.686 124.916C406.123 125.303 406.461 125.779 406.699 126.346C406.941 126.912 407.062 127.564 407.062 128.303V128.842H399.129C399.199 129.096 399.314 129.328 399.475 129.539C399.639 129.75 399.859 129.93 400.137 130.078C400.414 130.227 400.754 130.342 401.156 130.424C401.562 130.506 402.047 130.547 402.609 130.547C403.008 130.547 403.398 130.523 403.781 130.477C404.164 130.426 404.521 130.361 404.854 130.283C405.186 130.201 405.484 130.111 405.75 130.014C406.02 129.916 406.236 129.818 406.4 129.721V131.602ZM404.9 127.248C404.881 127.049 404.82 126.844 404.719 126.633C404.621 126.418 404.465 126.225 404.25 126.053C404.035 125.881 403.754 125.74 403.406 125.631C403.059 125.518 402.625 125.461 402.105 125.461C401.617 125.461 401.195 125.521 400.84 125.643C400.484 125.764 400.186 125.914 399.943 126.094C399.705 126.273 399.52 126.467 399.387 126.674C399.254 126.881 399.168 127.072 399.129 127.248H404.9ZM411.211 128.555C411.211 128.891 411.242 129.166 411.305 129.381C411.367 129.592 411.469 129.76 411.609 129.885C411.75 130.01 411.932 130.096 412.154 130.143C412.381 130.189 412.658 130.213 412.986 130.213H417.111V132H412.541C411.908 132 411.369 131.949 410.924 131.848C410.482 131.742 410.121 131.582 409.84 131.367C409.559 131.148 409.354 130.873 409.225 130.541C409.1 130.209 409.037 129.814 409.037 129.357V123.949H411.211V128.555ZM427.881 125.701V132H425.707V125.701H422.291V123.949H431.303V125.701H427.881ZM443.045 127.98C443.045 128.672 442.918 129.283 442.664 129.814C442.41 130.342 442.047 130.783 441.574 131.139C441.102 131.494 440.527 131.764 439.852 131.947C439.18 132.127 438.424 132.217 437.584 132.217C436.744 132.217 435.984 132.127 435.305 131.947C434.629 131.764 434.053 131.494 433.576 131.139C433.1 130.783 432.732 130.342 432.475 129.814C432.217 129.283 432.088 128.672 432.088 127.98C432.088 127.289 432.217 126.68 432.475 126.152C432.732 125.621 433.1 125.178 433.576 124.822C434.053 124.467 434.629 124.199 435.305 124.02C435.984 123.836 436.744 123.744 437.584 123.744C438.424 123.744 439.18 123.836 439.852 124.02C440.527 124.199 441.102 124.467 441.574 124.822C442.047 125.178 442.41 125.621 442.664 126.152C442.918 126.68 443.045 127.289 443.045 127.98ZM440.848 127.98C440.848 127.68 440.799 127.381 440.701 127.084C440.607 126.783 440.438 126.514 440.191 126.275C439.949 126.037 439.617 125.844 439.195 125.695C438.773 125.547 438.236 125.473 437.584 125.473C437.146 125.473 436.762 125.508 436.43 125.578C436.098 125.645 435.811 125.738 435.568 125.859C435.326 125.98 435.123 126.123 434.959 126.287C434.795 126.447 434.664 126.621 434.566 126.809C434.469 126.992 434.398 127.186 434.355 127.389C434.316 127.588 434.297 127.785 434.297 127.98C434.297 128.18 434.316 128.381 434.355 128.584C434.398 128.787 434.469 128.982 434.566 129.17C434.664 129.354 434.795 129.525 434.959 129.686C435.123 129.846 435.326 129.986 435.568 130.107C435.811 130.225 436.098 130.318 436.43 130.389C436.762 130.455 437.146 130.488 437.584 130.488C438.236 130.488 438.773 130.414 439.195 130.266C439.617 130.117 439.949 129.924 440.191 129.686C440.438 129.447 440.607 129.18 440.701 128.883C440.799 128.582 440.848 128.281 440.848 127.98ZM452.672 132C452.633 131.562 452.527 131.18 452.355 130.852C452.184 130.52 451.967 130.234 451.705 129.996C451.447 129.758 451.154 129.561 450.826 129.404C450.502 129.248 450.168 129.125 449.824 129.035C449.48 128.941 449.137 128.877 448.793 128.842C448.453 128.803 448.137 128.783 447.844 128.783H447.199V132H445.025V123.949H447.199V127.055H447.645C447.945 127.055 448.26 127.031 448.588 126.984C448.916 126.937 449.24 126.863 449.561 126.762C449.885 126.66 450.195 126.529 450.492 126.369C450.789 126.209 451.055 126.014 451.289 125.783C451.523 125.553 451.719 125.287 451.875 124.986C452.031 124.682 452.129 124.336 452.168 123.949H454.383C454.344 124.375 454.258 124.76 454.125 125.104C453.996 125.447 453.834 125.756 453.639 126.029C453.447 126.299 453.232 126.535 452.994 126.738C452.756 126.941 452.512 127.117 452.262 127.266C452.012 127.41 451.762 127.531 451.512 127.629C451.266 127.723 451.035 127.795 450.82 127.846C451.094 127.889 451.377 127.957 451.67 128.051C451.967 128.141 452.26 128.262 452.549 128.414C452.838 128.562 453.113 128.746 453.375 128.965C453.641 129.184 453.879 129.439 454.09 129.732C454.301 130.025 454.477 130.359 454.617 130.734C454.758 131.109 454.848 131.531 454.887 132H452.672ZM465.732 131.602C465.072 131.82 464.412 131.977 463.752 132.07C463.096 132.168 462.424 132.217 461.736 132.217C460.857 132.217 460.074 132.123 459.387 131.936C458.703 131.744 458.127 131.469 457.658 131.109C457.189 130.75 456.832 130.311 456.586 129.791C456.34 129.271 456.217 128.684 456.217 128.027C456.217 127.418 456.34 126.854 456.586 126.334C456.836 125.811 457.188 125.357 457.641 124.975C458.098 124.588 458.648 124.287 459.293 124.072C459.938 123.854 460.656 123.744 461.449 123.744C462.18 123.744 462.848 123.844 463.453 124.043C464.062 124.238 464.584 124.529 465.018 124.916C465.455 125.303 465.793 125.779 466.031 126.346C466.273 126.912 466.395 127.564 466.395 128.303V128.842H458.461C458.531 129.096 458.646 129.328 458.807 129.539C458.971 129.75 459.191 129.93 459.469 130.078C459.746 130.227 460.086 130.342 460.488 130.424C460.895 130.506 461.379 130.547 461.941 130.547C462.34 130.547 462.73 130.523 463.113 130.477C463.496 130.426 463.854 130.361 464.186 130.283C464.518 130.201 464.816 130.111 465.082 130.014C465.352 129.916 465.568 129.818 465.732 129.721V131.602ZM464.232 127.248C464.213 127.049 464.152 126.844 464.051 126.633C463.953 126.418 463.797 126.225 463.582 126.053C463.367 125.881 463.086 125.74 462.738 125.631C462.391 125.518 461.957 125.461 461.438 125.461C460.949 125.461 460.527 125.521 460.172 125.643C459.816 125.764 459.518 125.914 459.275 126.094C459.037 126.273 458.852 126.467 458.719 126.674C458.586 126.881 458.5 127.072 458.461 127.248H464.232ZM476.039 132V127.488C476.039 127.187 476.014 126.916 475.963 126.674C475.912 126.428 475.816 126.219 475.676 126.047C475.539 125.871 475.346 125.736 475.096 125.643C474.85 125.545 474.531 125.496 474.141 125.496C473.844 125.496 473.531 125.537 473.203 125.619C472.879 125.697 472.557 125.803 472.236 125.936C471.916 126.068 471.609 126.223 471.316 126.398C471.027 126.574 470.77 126.758 470.543 126.949V132H468.369V123.949H470.543V125.051C470.816 124.895 471.107 124.74 471.416 124.588C471.725 124.432 472.053 124.291 472.4 124.166C472.748 124.041 473.117 123.939 473.508 123.861C473.898 123.783 474.311 123.744 474.744 123.744C475.287 123.744 475.771 123.811 476.197 123.943C476.627 124.072 476.99 124.258 477.287 124.5C477.584 124.738 477.811 125.029 477.967 125.373C478.127 125.713 478.207 126.094 478.207 126.516V132H476.039Z" fill="black"/>
<path d="M554.434 123H552.26V114.949H557.709C558.295 114.949 558.791 115.01 559.197 115.131C559.607 115.252 559.939 115.424 560.193 115.646C560.451 115.869 560.637 116.139 560.75 116.455C560.867 116.768 560.926 117.117 560.926 117.504C560.926 117.844 560.877 118.141 560.779 118.395C560.686 118.648 560.557 118.867 560.393 119.051C560.232 119.23 560.045 119.383 559.83 119.508C559.615 119.633 559.389 119.736 559.15 119.818L561.787 123H559.244L556.807 120.035H554.434V123ZM558.729 117.492C558.729 117.336 558.707 117.203 558.664 117.094C558.625 116.984 558.555 116.896 558.453 116.83C558.352 116.76 558.215 116.709 558.043 116.678C557.875 116.646 557.664 116.631 557.41 116.631H554.434V118.354H557.41C557.664 118.354 557.875 118.338 558.043 118.307C558.215 118.275 558.352 118.227 558.453 118.16C558.555 118.09 558.625 118 558.664 117.891C558.707 117.781 558.729 117.648 558.729 117.492ZM572.264 122.602C571.604 122.82 570.943 122.977 570.283 123.07C569.627 123.168 568.955 123.217 568.268 123.217C567.389 123.217 566.605 123.123 565.918 122.936C565.234 122.744 564.658 122.469 564.189 122.109C563.721 121.75 563.363 121.311 563.117 120.791C562.871 120.271 562.748 119.684 562.748 119.027C562.748 118.418 562.871 117.854 563.117 117.334C563.367 116.811 563.719 116.357 564.172 115.975C564.629 115.588 565.18 115.287 565.824 115.072C566.469 114.854 567.188 114.744 567.98 114.744C568.711 114.744 569.379 114.844 569.984 115.043C570.594 115.238 571.115 115.529 571.549 115.916C571.986 116.303 572.324 116.779 572.562 117.346C572.805 117.912 572.926 118.564 572.926 119.303V119.842H564.992C565.062 120.096 565.178 120.328 565.338 120.539C565.502 120.75 565.723 120.93 566 121.078C566.277 121.227 566.617 121.342 567.02 121.424C567.426 121.506 567.91 121.547 568.473 121.547C568.871 121.547 569.262 121.523 569.645 121.477C570.027 121.426 570.385 121.361 570.717 121.283C571.049 121.201 571.348 121.111 571.613 121.014C571.883 120.916 572.1 120.818 572.264 120.721V122.602ZM570.764 118.248C570.744 118.049 570.684 117.844 570.582 117.633C570.484 117.418 570.328 117.225 570.113 117.053C569.898 116.881 569.617 116.74 569.27 116.631C568.922 116.518 568.488 116.461 567.969 116.461C567.48 116.461 567.059 116.521 566.703 116.643C566.348 116.764 566.049 116.914 565.807 117.094C565.568 117.273 565.383 117.467 565.25 117.674C565.117 117.881 565.031 118.072 564.992 118.248H570.764ZM580.244 123H577.713L573.641 114.949H576.066L578.996 121.008L581.92 114.949H584.346L580.244 123ZM594.529 122.602C593.869 122.82 593.209 122.977 592.549 123.07C591.893 123.168 591.221 123.217 590.533 123.217C589.654 123.217 588.871 123.123 588.184 122.936C587.5 122.744 586.924 122.469 586.455 122.109C585.986 121.75 585.629 121.311 585.383 120.791C585.137 120.271 585.014 119.684 585.014 119.027C585.014 118.418 585.137 117.854 585.383 117.334C585.633 116.811 585.984 116.357 586.438 115.975C586.895 115.588 587.445 115.287 588.09 115.072C588.734 114.854 589.453 114.744 590.246 114.744C590.977 114.744 591.645 114.844 592.25 115.043C592.859 115.238 593.381 115.529 593.814 115.916C594.252 116.303 594.59 116.779 594.828 117.346C595.07 117.912 595.191 118.564 595.191 119.303V119.842H587.258C587.328 120.096 587.443 120.328 587.604 120.539C587.768 120.75 587.988 120.93 588.266 121.078C588.543 121.227 588.883 121.342 589.285 121.424C589.691 121.506 590.176 121.547 590.738 121.547C591.137 121.547 591.527 121.523 591.91 121.477C592.293 121.426 592.65 121.361 592.982 121.283C593.314 121.201 593.613 121.111 593.879 121.014C594.148 120.916 594.365 120.818 594.529 120.721V122.602ZM593.029 118.248C593.01 118.049 592.949 117.844 592.848 117.633C592.75 117.418 592.594 117.225 592.379 117.053C592.164 116.881 591.883 116.74 591.535 116.631C591.188 116.518 590.754 116.461 590.234 116.461C589.746 116.461 589.324 116.521 588.969 116.643C588.613 116.764 588.314 116.914 588.072 117.094C587.834 117.273 587.648 117.467 587.516 117.674C587.383 117.881 587.297 118.072 587.258 118.248H593.029ZM604.836 123V118.488C604.836 118.187 604.811 117.916 604.76 117.674C604.709 117.428 604.613 117.219 604.473 117.047C604.336 116.871 604.143 116.736 603.893 116.643C603.646 116.545 603.328 116.496 602.938 116.496C602.641 116.496 602.328 116.537 602 116.619C601.676 116.697 601.354 116.803 601.033 116.936C600.713 117.068 600.406 117.223 600.113 117.398C599.824 117.574 599.566 117.758 599.34 117.949V123H597.166V114.949H599.34V116.051C599.613 115.895 599.904 115.74 600.213 115.588C600.521 115.432 600.85 115.291 601.197 115.166C601.545 115.041 601.914 114.939 602.305 114.861C602.695 114.783 603.107 114.744 603.541 114.744C604.084 114.744 604.568 114.811 604.994 114.943C605.424 115.072 605.787 115.258 606.084 115.5C606.381 115.738 606.607 116.029 606.764 116.373C606.924 116.713 607.004 117.094 607.004 117.516V123H604.836ZM611.633 114.949V119.484C611.633 119.785 611.658 120.059 611.709 120.305C611.76 120.547 611.854 120.756 611.99 120.932C612.127 121.104 612.318 121.238 612.564 121.336C612.811 121.43 613.131 121.477 613.525 121.477C613.822 121.477 614.133 121.436 614.457 121.354C614.785 121.271 615.109 121.162 615.43 121.025C615.75 120.889 616.055 120.732 616.344 120.557C616.637 120.377 616.898 120.191 617.129 120V114.949H619.297V123H617.129V121.898C616.855 122.055 616.564 122.213 616.256 122.373C615.947 122.529 615.619 122.672 615.271 122.801C614.924 122.926 614.555 123.027 614.164 123.105C613.773 123.187 613.361 123.229 612.928 123.229C612.385 123.229 611.898 123.162 611.469 123.029C611.039 122.9 610.676 122.717 610.379 122.479C610.082 122.236 609.854 121.945 609.693 121.605C609.537 121.262 609.459 120.879 609.459 120.457V114.949H611.633ZM630.799 122.602C630.139 122.82 629.479 122.977 628.818 123.07C628.162 123.168 627.49 123.217 626.803 123.217C625.924 123.217 625.141 123.123 624.453 122.936C623.77 122.744 623.193 122.469 622.725 122.109C622.256 121.75 621.898 121.311 621.652 120.791C621.406 120.271 621.283 119.684 621.283 119.027C621.283 118.418 621.406 117.854 621.652 117.334C621.902 116.811 622.254 116.357 622.707 115.975C623.164 115.588 623.715 115.287 624.359 115.072C625.004 114.854 625.723 114.744 626.516 114.744C627.246 114.744 627.914 114.844 628.52 115.043C629.129 115.238 629.65 115.529 630.084 115.916C630.521 116.303 630.859 116.779 631.098 117.346C631.34 117.912 631.461 118.564 631.461 119.303V119.842H623.527C623.598 120.096 623.713 120.328 623.873 120.539C624.037 120.75 624.258 120.93 624.535 121.078C624.812 121.227 625.152 121.342 625.555 121.424C625.961 121.506 626.445 121.547 627.008 121.547C627.406 121.547 627.797 121.523 628.18 121.477C628.562 121.426 628.92 121.361 629.252 121.283C629.584 121.201 629.883 121.111 630.148 121.014C630.418 120.916 630.635 120.818 630.799 120.721V122.602ZM629.299 118.248C629.279 118.049 629.219 117.844 629.117 117.633C629.02 117.418 628.863 117.225 628.648 117.053C628.434 116.881 628.152 116.74 627.805 116.631C627.457 116.518 627.023 116.461 626.504 116.461C626.016 116.461 625.594 116.521 625.238 116.643C624.883 116.764 624.584 116.914 624.342 117.094C624.104 117.273 623.918 117.467 623.785 117.674C623.652 117.881 623.566 118.072 623.527 118.248H629.299ZM645.365 117.217C645.213 117.143 645.012 117.059 644.762 116.965C644.512 116.871 644.229 116.783 643.912 116.701C643.596 116.615 643.252 116.545 642.881 116.49C642.51 116.432 642.129 116.402 641.738 116.402C641.426 116.402 641.158 116.412 640.936 116.432C640.717 116.451 640.531 116.477 640.379 116.508C640.23 116.539 640.111 116.576 640.021 116.619C639.936 116.658 639.869 116.699 639.822 116.742C639.775 116.785 639.744 116.828 639.729 116.871C639.717 116.914 639.711 116.953 639.711 116.988C639.711 117.105 639.77 117.209 639.887 117.299C640.004 117.385 640.164 117.463 640.367 117.533C640.57 117.6 640.807 117.664 641.076 117.727C641.346 117.785 641.631 117.848 641.932 117.914C642.236 117.977 642.549 118.047 642.869 118.125C643.193 118.199 643.506 118.287 643.807 118.389C644.111 118.49 644.398 118.609 644.668 118.746C644.938 118.879 645.174 119.035 645.377 119.215C645.58 119.395 645.74 119.602 645.857 119.836C645.975 120.07 646.033 120.338 646.033 120.639C646.033 121.025 645.965 121.357 645.828 121.635C645.691 121.912 645.508 122.146 645.277 122.338C645.051 122.529 644.787 122.684 644.486 122.801C644.186 122.914 643.869 123.002 643.537 123.064C643.209 123.127 642.875 123.168 642.535 123.187C642.199 123.207 641.879 123.217 641.574 123.217C640.777 123.217 640.039 123.15 639.359 123.018C638.684 122.889 638.086 122.727 637.566 122.531V120.609C638.102 120.906 638.711 121.139 639.395 121.307C640.082 121.475 640.816 121.559 641.598 121.559C642.059 121.559 642.434 121.535 642.723 121.488C643.016 121.437 643.244 121.375 643.408 121.301C643.572 121.223 643.684 121.139 643.742 121.049C643.801 120.959 643.83 120.873 643.83 120.791C643.83 120.662 643.771 120.551 643.654 120.457C643.537 120.359 643.377 120.275 643.174 120.205C642.971 120.131 642.734 120.064 642.465 120.006C642.195 119.943 641.908 119.883 641.604 119.824C641.303 119.762 640.992 119.695 640.672 119.625C640.352 119.555 640.039 119.473 639.734 119.379C639.434 119.281 639.148 119.17 638.879 119.045C638.609 118.916 638.373 118.766 638.17 118.594C637.967 118.418 637.807 118.217 637.689 117.99C637.572 117.76 637.514 117.494 637.514 117.193C637.514 116.838 637.576 116.531 637.701 116.273C637.826 116.016 637.994 115.797 638.205 115.617C638.42 115.434 638.666 115.285 638.943 115.172C639.225 115.059 639.52 114.971 639.828 114.908C640.137 114.846 640.449 114.803 640.766 114.779C641.082 114.756 641.383 114.744 641.668 114.744C641.98 114.744 642.301 114.76 642.629 114.791C642.961 114.822 643.287 114.867 643.607 114.926C643.928 114.98 644.236 115.045 644.533 115.119C644.834 115.193 645.111 115.271 645.365 115.354V117.217ZM655.801 123V119.643H650.27V123H648.096V114.949H650.27V117.879H655.801V114.949H657.975V123H655.801ZM667.32 123V122.209C667.043 122.361 666.744 122.496 666.424 122.613C666.107 122.73 665.777 122.83 665.434 122.912C665.09 122.994 664.734 123.055 664.367 123.094C664.004 123.137 663.637 123.158 663.266 123.158C662.832 123.158 662.412 123.117 662.006 123.035C661.604 122.953 661.246 122.82 660.934 122.637C660.621 122.453 660.369 122.213 660.178 121.916C659.99 121.619 659.896 121.256 659.896 120.826C659.896 120.283 660.045 119.832 660.342 119.473C660.639 119.109 661.092 118.812 661.701 118.582C662.311 118.352 663.08 118.174 664.01 118.049C664.943 117.924 666.047 117.826 667.32 117.756V117.586C667.32 117.453 667.285 117.322 667.215 117.193C667.145 117.061 667.016 116.945 666.828 116.848C666.645 116.746 666.391 116.664 666.066 116.602C665.746 116.539 665.336 116.508 664.836 116.508C664.441 116.508 664.051 116.529 663.664 116.572C663.281 116.611 662.91 116.666 662.551 116.736C662.195 116.807 661.857 116.889 661.537 116.982C661.217 117.076 660.926 117.174 660.664 117.275V115.342C660.938 115.271 661.244 115.203 661.584 115.137C661.924 115.07 662.277 115.014 662.645 114.967C663.012 114.916 663.383 114.877 663.758 114.85C664.133 114.818 664.492 114.803 664.836 114.803C665.512 114.803 666.135 114.859 666.705 114.973C667.275 115.082 667.766 115.254 668.176 115.488C668.59 115.723 668.912 116.02 669.143 116.379C669.377 116.738 669.494 117.166 669.494 117.662V123H667.32ZM667.32 119.326C666.484 119.357 665.773 119.402 665.188 119.461C664.605 119.52 664.121 119.588 663.734 119.666C663.348 119.744 663.043 119.828 662.82 119.918C662.602 120.008 662.438 120.1 662.328 120.193C662.219 120.287 662.15 120.381 662.123 120.475C662.1 120.568 662.088 120.654 662.088 120.732C662.088 120.826 662.113 120.918 662.164 121.008C662.215 121.094 662.303 121.17 662.428 121.236C662.557 121.303 662.727 121.355 662.938 121.395C663.148 121.434 663.414 121.453 663.734 121.453C664.09 121.453 664.438 121.426 664.777 121.371C665.117 121.316 665.439 121.242 665.744 121.148C666.049 121.051 666.334 120.937 666.6 120.809C666.869 120.676 667.109 120.535 667.32 120.387V119.326ZM679.385 116.771C679.326 116.752 679.24 116.727 679.127 116.695C679.018 116.66 678.889 116.627 678.74 116.596C678.592 116.561 678.428 116.531 678.248 116.508C678.072 116.484 677.891 116.473 677.703 116.473C677.312 116.473 676.947 116.521 676.607 116.619C676.271 116.713 675.957 116.84 675.664 117C675.371 117.156 675.098 117.336 674.844 117.539C674.594 117.738 674.363 117.943 674.152 118.154V123H671.979V114.949H674.152V116.256C674.414 116.061 674.682 115.873 674.955 115.693C675.232 115.51 675.52 115.348 675.816 115.207C676.117 115.066 676.434 114.955 676.766 114.873C677.098 114.787 677.449 114.744 677.82 114.744C677.961 114.744 678.104 114.752 678.248 114.768C678.396 114.779 678.539 114.795 678.676 114.814C678.816 114.834 678.947 114.855 679.068 114.879C679.189 114.902 679.295 114.926 679.385 114.949V116.771ZM689.744 122.602C689.084 122.82 688.424 122.977 687.764 123.07C687.107 123.168 686.436 123.217 685.748 123.217C684.869 123.217 684.086 123.123 683.398 122.936C682.715 122.744 682.139 122.469 681.67 122.109C681.201 121.75 680.844 121.311 680.598 120.791C680.352 120.271 680.229 119.684 680.229 119.027C680.229 118.418 680.352 117.854 680.598 117.334C680.848 116.811 681.199 116.357 681.652 115.975C682.109 115.588 682.66 115.287 683.305 115.072C683.949 114.854 684.668 114.744 685.461 114.744C686.191 114.744 686.859 114.844 687.465 115.043C688.074 115.238 688.596 115.529 689.029 115.916C689.467 116.303 689.805 116.779 690.043 117.346C690.285 117.912 690.406 118.564 690.406 119.303V119.842H682.473C682.543 120.096 682.658 120.328 682.818 120.539C682.982 120.75 683.203 120.93 683.48 121.078C683.758 121.227 684.098 121.342 684.5 121.424C684.906 121.506 685.391 121.547 685.953 121.547C686.352 121.547 686.742 121.523 687.125 121.477C687.508 121.426 687.865 121.361 688.197 121.283C688.529 121.201 688.828 121.111 689.094 121.014C689.363 120.916 689.58 120.818 689.744 120.721V122.602ZM688.244 118.248C688.225 118.049 688.164 117.844 688.062 117.633C687.965 117.418 687.809 117.225 687.594 117.053C687.379 116.881 687.098 116.74 686.75 116.631C686.402 116.518 685.969 116.461 685.449 116.461C684.961 116.461 684.539 116.521 684.184 116.643C683.828 116.764 683.529 116.914 683.287 117.094C683.049 117.273 682.863 117.467 682.73 117.674C682.598 117.881 682.512 118.072 682.473 118.248H688.244Z" fill="black"/>
<rect x="237.5" y="150.5" width="239" height="89" rx="14.5" fill="black" stroke="#D9D9D9"/>
<path d="M331.93 188V180.461L327.945 188H325.164L321.18 180.461V188H318.281V177.266H322.219L326.555 185.391L330.891 177.266H334.812V188H331.93ZM352.062 182.641C352.062 183.562 351.893 184.378 351.555 185.086C351.216 185.789 350.732 186.378 350.102 186.852C349.471 187.326 348.706 187.685 347.805 187.93C346.909 188.169 345.901 188.289 344.781 188.289C343.661 188.289 342.648 188.169 341.742 187.93C340.841 187.685 340.073 187.326 339.438 186.852C338.802 186.378 338.312 185.789 337.969 185.086C337.625 184.378 337.453 183.562 337.453 182.641C337.453 181.719 337.625 180.906 337.969 180.203C338.312 179.495 338.802 178.904 339.438 178.43C340.073 177.956 340.841 177.599 341.742 177.359C342.648 177.115 343.661 176.992 344.781 176.992C345.901 176.992 346.909 177.115 347.805 177.359C348.706 177.599 349.471 177.956 350.102 178.43C350.732 178.904 351.216 179.495 351.555 180.203C351.893 180.906 352.062 181.719 352.062 182.641ZM349.133 182.641C349.133 182.24 349.068 181.841 348.938 181.445C348.812 181.044 348.586 180.685 348.258 180.367C347.935 180.049 347.492 179.792 346.93 179.594C346.367 179.396 345.651 179.297 344.781 179.297C344.198 179.297 343.685 179.344 343.242 179.438C342.799 179.526 342.417 179.651 342.094 179.812C341.771 179.974 341.5 180.164 341.281 180.383C341.062 180.596 340.888 180.828 340.758 181.078C340.628 181.323 340.534 181.581 340.477 181.852C340.424 182.117 340.398 182.38 340.398 182.641C340.398 182.906 340.424 183.174 340.477 183.445C340.534 183.716 340.628 183.977 340.758 184.227C340.888 184.471 341.062 184.701 341.281 184.914C341.5 185.128 341.771 185.315 342.094 185.477C342.417 185.633 342.799 185.758 343.242 185.852C343.685 185.94 344.198 185.984 344.781 185.984C345.651 185.984 346.367 185.885 346.93 185.688C347.492 185.49 347.935 185.232 348.258 184.914C348.586 184.596 348.812 184.24 348.938 183.844C349.068 183.443 349.133 183.042 349.133 182.641ZM367.852 182.625C367.852 183.312 367.776 183.924 367.625 184.461C367.474 184.992 367.26 185.456 366.984 185.852C366.714 186.247 366.385 186.583 366 186.859C365.62 187.135 365.195 187.357 364.727 187.523C364.258 187.69 363.753 187.812 363.211 187.891C362.669 187.964 362.104 188 361.516 188H354.703V177.266H361.5C362.089 177.266 362.654 177.305 363.195 177.383C363.737 177.456 364.242 177.576 364.711 177.742C365.185 177.909 365.615 178.13 366 178.406C366.385 178.677 366.714 179.013 366.984 179.414C367.26 179.81 367.474 180.273 367.625 180.805C367.776 181.336 367.852 181.943 367.852 182.625ZM364.93 182.625C364.93 182.109 364.862 181.661 364.727 181.281C364.596 180.901 364.383 180.589 364.086 180.344C363.794 180.094 363.411 179.909 362.938 179.789C362.464 179.664 361.885 179.602 361.203 179.602H357.602V185.664H361.203C361.885 185.664 362.464 185.604 362.938 185.484C363.411 185.359 363.794 185.172 364.086 184.922C364.383 184.667 364.596 184.349 364.727 183.969C364.862 183.589 364.93 183.141 364.93 182.625ZM382.469 187.469C381.589 187.76 380.708 187.969 379.828 188.094C378.953 188.224 378.057 188.289 377.141 188.289C375.969 188.289 374.924 188.164 374.008 187.914C373.096 187.659 372.328 187.292 371.703 186.812C371.078 186.333 370.602 185.747 370.273 185.055C369.945 184.362 369.781 183.578 369.781 182.703C369.781 181.891 369.945 181.138 370.273 180.445C370.607 179.747 371.076 179.143 371.68 178.633C372.289 178.117 373.023 177.716 373.883 177.43C374.742 177.138 375.701 176.992 376.758 176.992C377.732 176.992 378.622 177.125 379.43 177.391C380.242 177.651 380.938 178.039 381.516 178.555C382.099 179.07 382.549 179.706 382.867 180.461C383.19 181.216 383.352 182.086 383.352 183.07V183.789H372.773C372.867 184.128 373.021 184.437 373.234 184.719C373.453 185 373.747 185.24 374.117 185.437C374.487 185.635 374.94 185.789 375.477 185.898C376.018 186.008 376.664 186.062 377.414 186.062C377.945 186.062 378.466 186.031 378.977 185.969C379.487 185.901 379.964 185.815 380.406 185.711C380.849 185.602 381.247 185.482 381.602 185.352C381.961 185.221 382.25 185.091 382.469 184.961V187.469ZM380.469 181.664C380.443 181.398 380.362 181.125 380.227 180.844C380.096 180.557 379.888 180.299 379.602 180.07C379.315 179.841 378.94 179.654 378.477 179.508C378.013 179.357 377.435 179.281 376.742 179.281C376.091 179.281 375.529 179.362 375.055 179.523C374.581 179.685 374.182 179.885 373.859 180.125C373.542 180.365 373.294 180.622 373.117 180.898C372.94 181.174 372.826 181.43 372.773 181.664H380.469ZM388.883 183.406C388.883 183.854 388.924 184.221 389.008 184.508C389.091 184.789 389.227 185.013 389.414 185.18C389.602 185.346 389.844 185.461 390.141 185.523C390.443 185.586 390.812 185.617 391.25 185.617H396.75V188H390.656C389.812 188 389.094 187.932 388.5 187.797C387.911 187.656 387.43 187.443 387.055 187.156C386.68 186.865 386.406 186.497 386.234 186.055C386.068 185.612 385.984 185.086 385.984 184.477V177.266H388.883V183.406ZM270.828 204.289C270.625 204.19 270.357 204.078 270.023 203.953C269.69 203.828 269.312 203.711 268.891 203.602C268.469 203.487 268.01 203.393 267.516 203.32C267.021 203.242 266.513 203.203 265.992 203.203C265.576 203.203 265.219 203.216 264.922 203.242C264.63 203.268 264.383 203.302 264.18 203.344C263.982 203.385 263.823 203.435 263.703 203.492C263.589 203.544 263.5 203.599 263.438 203.656C263.375 203.714 263.333 203.771 263.312 203.828C263.297 203.885 263.289 203.938 263.289 203.984C263.289 204.141 263.367 204.279 263.523 204.398C263.68 204.513 263.893 204.617 264.164 204.711C264.435 204.799 264.75 204.885 265.109 204.969C265.469 205.047 265.849 205.13 266.25 205.219C266.656 205.302 267.073 205.396 267.5 205.5C267.932 205.599 268.349 205.716 268.75 205.852C269.156 205.987 269.539 206.146 269.898 206.328C270.258 206.505 270.573 206.714 270.844 206.953C271.115 207.193 271.328 207.469 271.484 207.781C271.641 208.094 271.719 208.451 271.719 208.852C271.719 209.367 271.628 209.81 271.445 210.18C271.263 210.549 271.018 210.862 270.711 211.117C270.409 211.372 270.057 211.578 269.656 211.734C269.255 211.885 268.833 212.003 268.391 212.086C267.953 212.169 267.508 212.224 267.055 212.25C266.607 212.276 266.18 212.289 265.773 212.289C264.711 212.289 263.727 212.201 262.82 212.023C261.919 211.852 261.122 211.635 260.43 211.375V208.812C261.143 209.208 261.956 209.518 262.867 209.742C263.784 209.966 264.763 210.078 265.805 210.078C266.419 210.078 266.919 210.047 267.305 209.984C267.695 209.917 268 209.833 268.219 209.734C268.438 209.63 268.586 209.518 268.664 209.398C268.742 209.279 268.781 209.164 268.781 209.055C268.781 208.883 268.703 208.734 268.547 208.609C268.391 208.479 268.177 208.367 267.906 208.273C267.635 208.174 267.32 208.086 266.961 208.008C266.602 207.924 266.219 207.844 265.812 207.766C265.411 207.682 264.997 207.594 264.57 207.5C264.143 207.406 263.727 207.297 263.32 207.172C262.919 207.042 262.539 206.893 262.18 206.727C261.82 206.555 261.505 206.354 261.234 206.125C260.964 205.891 260.75 205.622 260.594 205.32C260.438 205.013 260.359 204.659 260.359 204.258C260.359 203.784 260.443 203.375 260.609 203.031C260.776 202.688 261 202.396 261.281 202.156C261.568 201.911 261.896 201.714 262.266 201.562C262.641 201.411 263.034 201.294 263.445 201.211C263.857 201.128 264.273 201.07 264.695 201.039C265.117 201.008 265.518 200.992 265.898 200.992C266.315 200.992 266.742 201.013 267.18 201.055C267.622 201.096 268.057 201.156 268.484 201.234C268.911 201.307 269.323 201.393 269.719 201.492C270.12 201.591 270.49 201.695 270.828 201.805V204.289ZM277.367 201.266V202.445C277.622 202.284 277.898 202.117 278.195 201.945C278.497 201.773 278.823 201.617 279.172 201.477C279.526 201.336 279.904 201.221 280.305 201.133C280.711 201.039 281.148 200.992 281.617 200.992C282.076 200.992 282.477 201.042 282.82 201.141C283.164 201.234 283.461 201.359 283.711 201.516C283.966 201.667 284.182 201.839 284.359 202.031C284.536 202.219 284.69 202.406 284.82 202.594C285.19 202.354 285.555 202.135 285.914 201.938C286.273 201.74 286.635 201.57 287 201.43C287.365 201.289 287.737 201.182 288.117 201.109C288.497 201.031 288.893 200.992 289.305 200.992C289.961 200.992 290.547 201.083 291.062 201.266C291.583 201.448 292.023 201.698 292.383 202.016C292.742 202.333 293.016 202.708 293.203 203.141C293.396 203.568 293.492 204.026 293.492 204.516V212H290.594V204.93C290.594 204.643 290.549 204.396 290.461 204.188C290.372 203.979 290.253 203.81 290.102 203.68C289.956 203.549 289.781 203.453 289.578 203.391C289.38 203.328 289.169 203.297 288.945 203.297C287.904 203.297 286.716 203.766 285.383 204.703C285.398 204.792 285.409 204.896 285.414 205.016C285.424 205.135 285.43 205.255 285.43 205.375V212H282.531V204.867C282.531 204.581 282.487 204.339 282.398 204.141C282.31 203.938 282.188 203.773 282.031 203.648C281.88 203.523 281.703 203.435 281.5 203.383C281.302 203.326 281.091 203.297 280.867 203.297C280.596 203.297 280.31 203.336 280.008 203.414C279.711 203.492 279.409 203.602 279.102 203.742C278.799 203.883 278.5 204.049 278.203 204.242C277.911 204.435 277.633 204.643 277.367 204.867V212H274.469V201.266H277.367ZM305.914 212V210.945C305.544 211.148 305.146 211.328 304.719 211.484C304.297 211.641 303.857 211.773 303.398 211.883C302.94 211.992 302.466 212.073 301.977 212.125C301.492 212.182 301.003 212.211 300.508 212.211C299.93 212.211 299.37 212.156 298.828 212.047C298.292 211.938 297.815 211.76 297.398 211.516C296.982 211.271 296.646 210.951 296.391 210.555C296.141 210.159 296.016 209.674 296.016 209.102C296.016 208.378 296.214 207.776 296.609 207.297C297.005 206.812 297.609 206.417 298.422 206.109C299.234 205.802 300.26 205.565 301.5 205.398C302.745 205.232 304.216 205.102 305.914 205.008V204.781C305.914 204.604 305.867 204.43 305.773 204.258C305.68 204.081 305.508 203.927 305.258 203.797C305.013 203.661 304.674 203.552 304.242 203.469C303.815 203.385 303.268 203.344 302.602 203.344C302.076 203.344 301.555 203.372 301.039 203.43C300.529 203.482 300.034 203.555 299.555 203.648C299.081 203.742 298.63 203.852 298.203 203.977C297.776 204.102 297.388 204.232 297.039 204.367V201.789C297.404 201.695 297.812 201.604 298.266 201.516C298.719 201.427 299.19 201.352 299.68 201.289C300.169 201.221 300.664 201.169 301.164 201.133C301.664 201.091 302.143 201.07 302.602 201.07C303.503 201.07 304.333 201.146 305.094 201.297C305.854 201.443 306.508 201.672 307.055 201.984C307.607 202.297 308.036 202.693 308.344 203.172C308.656 203.651 308.812 204.221 308.812 204.883V212H305.914ZM305.914 207.102C304.799 207.143 303.852 207.203 303.07 207.281C302.294 207.359 301.648 207.451 301.133 207.555C300.617 207.659 300.211 207.771 299.914 207.891C299.622 208.01 299.404 208.133 299.258 208.258C299.112 208.383 299.021 208.508 298.984 208.633C298.953 208.758 298.938 208.872 298.938 208.977C298.938 209.102 298.971 209.224 299.039 209.344C299.107 209.458 299.224 209.56 299.391 209.648C299.562 209.737 299.789 209.807 300.07 209.859C300.352 209.911 300.706 209.938 301.133 209.938C301.607 209.938 302.07 209.901 302.523 209.828C302.977 209.755 303.406 209.656 303.812 209.531C304.219 209.401 304.599 209.25 304.953 209.078C305.312 208.901 305.633 208.714 305.914 208.516V207.102ZM322 203.695C321.922 203.669 321.807 203.635 321.656 203.594C321.51 203.547 321.339 203.503 321.141 203.461C320.943 203.414 320.724 203.375 320.484 203.344C320.25 203.312 320.008 203.297 319.758 203.297C319.237 203.297 318.75 203.362 318.297 203.492C317.849 203.617 317.43 203.786 317.039 204C316.648 204.208 316.284 204.448 315.945 204.719C315.612 204.984 315.305 205.258 315.023 205.539V212H312.125V201.266H315.023V203.008C315.372 202.747 315.729 202.497 316.094 202.258C316.464 202.013 316.846 201.797 317.242 201.609C317.643 201.422 318.065 201.273 318.508 201.164C318.951 201.049 319.419 200.992 319.914 200.992C320.102 200.992 320.292 201.003 320.484 201.023C320.682 201.039 320.872 201.06 321.055 201.086C321.242 201.112 321.417 201.141 321.578 201.172C321.74 201.203 321.88 201.234 322 201.266V203.695ZM329.859 203.602V212H326.961V203.602H322.406V201.266H334.422V203.602H329.859ZM354.188 211.266C353.812 211.422 353.435 211.562 353.055 211.688C352.674 211.812 352.281 211.919 351.875 212.008C351.469 212.102 351.039 212.172 350.586 212.219C350.138 212.266 349.656 212.289 349.141 212.289C348.047 212.289 347.039 212.172 346.117 211.938C345.201 211.703 344.409 211.352 343.742 210.883C343.081 210.409 342.565 209.82 342.195 209.117C341.826 208.409 341.641 207.583 341.641 206.641C341.641 205.698 341.826 204.875 342.195 204.172C342.565 203.464 343.081 202.875 343.742 202.406C344.409 201.932 345.201 201.578 346.117 201.344C347.039 201.109 348.047 200.992 349.141 200.992C349.656 200.992 350.138 201.016 350.586 201.062C351.039 201.109 351.469 201.18 351.875 201.273C352.281 201.362 352.674 201.469 353.055 201.594C353.435 201.719 353.812 201.859 354.188 202.016V204.625C353.891 204.464 353.578 204.305 353.25 204.148C352.922 203.987 352.56 203.844 352.164 203.719C351.768 203.589 351.333 203.484 350.859 203.406C350.385 203.323 349.852 203.281 349.258 203.281C348.346 203.281 347.589 203.375 346.984 203.562C346.385 203.75 345.906 204 345.547 204.312C345.188 204.625 344.935 204.984 344.789 205.391C344.643 205.792 344.57 206.208 344.57 206.641C344.57 206.927 344.602 207.211 344.664 207.492C344.727 207.768 344.831 208.031 344.977 208.281C345.122 208.526 345.312 208.753 345.547 208.961C345.781 209.169 346.073 209.349 346.422 209.5C346.771 209.651 347.177 209.771 347.641 209.859C348.109 209.943 348.648 209.984 349.258 209.984C349.852 209.984 350.385 209.948 350.859 209.875C351.333 209.797 351.768 209.695 352.164 209.57C352.56 209.445 352.922 209.305 353.25 209.148C353.578 208.987 353.891 208.823 354.188 208.656V211.266ZM370.781 206.641C370.781 207.562 370.612 208.378 370.273 209.086C369.935 209.789 369.451 210.378 368.82 210.852C368.19 211.326 367.424 211.685 366.523 211.93C365.628 212.169 364.62 212.289 363.5 212.289C362.38 212.289 361.367 212.169 360.461 211.93C359.56 211.685 358.792 211.326 358.156 210.852C357.521 210.378 357.031 209.789 356.688 209.086C356.344 208.378 356.172 207.562 356.172 206.641C356.172 205.719 356.344 204.906 356.688 204.203C357.031 203.495 357.521 202.904 358.156 202.43C358.792 201.956 359.56 201.599 360.461 201.359C361.367 201.115 362.38 200.992 363.5 200.992C364.62 200.992 365.628 201.115 366.523 201.359C367.424 201.599 368.19 201.956 368.82 202.43C369.451 202.904 369.935 203.495 370.273 204.203C370.612 204.906 370.781 205.719 370.781 206.641ZM367.852 206.641C367.852 206.24 367.786 205.841 367.656 205.445C367.531 205.044 367.305 204.685 366.977 204.367C366.654 204.049 366.211 203.792 365.648 203.594C365.086 203.396 364.37 203.297 363.5 203.297C362.917 203.297 362.404 203.344 361.961 203.437C361.518 203.526 361.135 203.651 360.812 203.812C360.49 203.974 360.219 204.164 360 204.383C359.781 204.596 359.607 204.828 359.477 205.078C359.346 205.323 359.253 205.581 359.195 205.852C359.143 206.117 359.117 206.38 359.117 206.641C359.117 206.906 359.143 207.174 359.195 207.445C359.253 207.716 359.346 207.977 359.477 208.227C359.607 208.471 359.781 208.701 360 208.914C360.219 209.128 360.49 209.315 360.812 209.477C361.135 209.633 361.518 209.758 361.961 209.852C362.404 209.94 362.917 209.984 363.5 209.984C364.37 209.984 365.086 209.885 365.648 209.688C366.211 209.49 366.654 209.232 366.977 208.914C367.305 208.596 367.531 208.24 367.656 207.844C367.786 207.443 367.852 207.042 367.852 206.641ZM383.648 212V205.984C383.648 205.583 383.615 205.221 383.547 204.898C383.479 204.57 383.352 204.292 383.164 204.062C382.982 203.828 382.724 203.648 382.391 203.523C382.062 203.393 381.638 203.328 381.117 203.328C380.721 203.328 380.305 203.383 379.867 203.492C379.435 203.596 379.005 203.737 378.578 203.914C378.151 204.091 377.742 204.297 377.352 204.531C376.966 204.766 376.622 205.01 376.32 205.266V212H373.422V201.266H376.32V202.734C376.685 202.526 377.073 202.32 377.484 202.117C377.896 201.909 378.333 201.721 378.797 201.555C379.26 201.388 379.753 201.253 380.273 201.148C380.794 201.044 381.344 200.992 381.922 200.992C382.646 200.992 383.292 201.081 383.859 201.258C384.432 201.43 384.917 201.677 385.312 202C385.708 202.318 386.01 202.706 386.219 203.164C386.432 203.617 386.539 204.125 386.539 204.687V212H383.648ZM395.875 203.602V212H392.977V203.602H388.422V201.266H400.438V203.602H395.875ZM412.234 203.695C412.156 203.669 412.042 203.635 411.891 203.594C411.745 203.547 411.573 203.503 411.375 203.461C411.177 203.414 410.958 203.375 410.719 203.344C410.484 203.312 410.242 203.297 409.992 203.297C409.471 203.297 408.984 203.362 408.531 203.492C408.083 203.617 407.664 203.786 407.273 204C406.883 204.208 406.518 204.448 406.18 204.719C405.846 204.984 405.539 205.258 405.258 205.539V212H402.359V201.266H405.258V203.008C405.607 202.747 405.964 202.497 406.328 202.258C406.698 202.013 407.081 201.797 407.477 201.609C407.878 201.422 408.299 201.273 408.742 201.164C409.185 201.049 409.654 200.992 410.148 200.992C410.336 200.992 410.526 201.003 410.719 201.023C410.917 201.039 411.107 201.06 411.289 201.086C411.477 201.112 411.651 201.141 411.812 201.172C411.974 201.203 412.115 201.234 412.234 201.266V203.695ZM423.18 212V210.945C422.81 211.148 422.411 211.328 421.984 211.484C421.562 211.641 421.122 211.773 420.664 211.883C420.206 211.992 419.732 212.073 419.242 212.125C418.758 212.182 418.268 212.211 417.773 212.211C417.195 212.211 416.635 212.156 416.094 212.047C415.557 211.937 415.081 211.76 414.664 211.516C414.247 211.271 413.911 210.951 413.656 210.555C413.406 210.159 413.281 209.674 413.281 209.102C413.281 208.378 413.479 207.776 413.875 207.297C414.271 206.812 414.875 206.417 415.688 206.109C416.5 205.802 417.526 205.565 418.766 205.398C420.01 205.232 421.482 205.102 423.18 205.008V204.781C423.18 204.604 423.133 204.43 423.039 204.258C422.945 204.081 422.773 203.927 422.523 203.797C422.279 203.661 421.94 203.552 421.508 203.469C421.081 203.385 420.534 203.344 419.867 203.344C419.341 203.344 418.82 203.372 418.305 203.43C417.794 203.482 417.299 203.555 416.82 203.648C416.346 203.742 415.896 203.852 415.469 203.977C415.042 204.102 414.654 204.232 414.305 204.367V201.789C414.669 201.695 415.078 201.604 415.531 201.516C415.984 201.427 416.456 201.352 416.945 201.289C417.435 201.221 417.93 201.169 418.43 201.133C418.93 201.091 419.409 201.07 419.867 201.07C420.768 201.07 421.599 201.146 422.359 201.297C423.12 201.443 423.773 201.672 424.32 201.984C424.872 202.297 425.302 202.693 425.609 203.172C425.922 203.651 426.078 204.221 426.078 204.883V212H423.18ZM423.18 207.102C422.065 207.143 421.117 207.203 420.336 207.281C419.56 207.359 418.914 207.451 418.398 207.555C417.883 207.659 417.477 207.771 417.18 207.891C416.888 208.01 416.669 208.133 416.523 208.258C416.378 208.383 416.286 208.508 416.25 208.633C416.219 208.758 416.203 208.872 416.203 208.977C416.203 209.102 416.237 209.224 416.305 209.344C416.372 209.458 416.49 209.56 416.656 209.648C416.828 209.737 417.055 209.807 417.336 209.859C417.617 209.911 417.971 209.937 418.398 209.937C418.872 209.937 419.336 209.901 419.789 209.828C420.242 209.755 420.672 209.656 421.078 209.531C421.484 209.401 421.865 209.25 422.219 209.078C422.578 208.901 422.898 208.714 423.18 208.516V207.102ZM441.219 211.266C440.844 211.422 440.466 211.562 440.086 211.687C439.706 211.812 439.312 211.919 438.906 212.008C438.5 212.102 438.07 212.172 437.617 212.219C437.169 212.266 436.688 212.289 436.172 212.289C435.078 212.289 434.07 212.172 433.148 211.937C432.232 211.703 431.44 211.352 430.773 210.883C430.112 210.409 429.596 209.82 429.227 209.117C428.857 208.409 428.672 207.583 428.672 206.641C428.672 205.698 428.857 204.875 429.227 204.172C429.596 203.464 430.112 202.875 430.773 202.406C431.44 201.932 432.232 201.578 433.148 201.344C434.07 201.109 435.078 200.992 436.172 200.992C436.688 200.992 437.169 201.016 437.617 201.062C438.07 201.109 438.5 201.18 438.906 201.273C439.312 201.362 439.706 201.469 440.086 201.594C440.466 201.719 440.844 201.859 441.219 202.016V204.625C440.922 204.464 440.609 204.305 440.281 204.148C439.953 203.987 439.591 203.844 439.195 203.719C438.799 203.589 438.365 203.484 437.891 203.406C437.417 203.323 436.883 203.281 436.289 203.281C435.378 203.281 434.62 203.375 434.016 203.562C433.417 203.75 432.938 204 432.578 204.312C432.219 204.625 431.966 204.984 431.82 205.391C431.674 205.792 431.602 206.208 431.602 206.641C431.602 206.927 431.633 207.211 431.695 207.492C431.758 207.768 431.862 208.031 432.008 208.281C432.154 208.526 432.344 208.753 432.578 208.961C432.812 209.169 433.104 209.349 433.453 209.5C433.802 209.651 434.208 209.771 434.672 209.859C435.141 209.943 435.68 209.984 436.289 209.984C436.883 209.984 437.417 209.948 437.891 209.875C438.365 209.797 438.799 209.695 439.195 209.57C439.591 209.445 439.953 209.305 440.281 209.148C440.609 208.987 440.922 208.823 441.219 208.656V211.266ZM449.938 203.602V212H447.039V203.602H442.484V201.266H454.5V203.602H449.938Z" fill="#D9D9D9"/>
<rect x="237.5" y="0.5" width="239" height="89" rx="14.5" fill="black" stroke="#D9D9D9"/>
<rect x="586.5" y="0.5" width="239" height="89" rx="14.5" fill="black" stroke="#D9D9D9"/>
<rect x="586.5" y="150.5" width="239" height="89" rx="14.5" fill="black" stroke="#D9D9D9"/>
<path d="M639.703 51V43.4609L635.719 51H632.938L628.953 43.4609V51H626.055V40.2656L629.992 40.2656L634.328 48.3906L638.664 40.2656H642.586V51H639.703ZM659.836 45.6406C659.836 46.5625 659.667 47.3776 659.328 48.0859C658.99 48.7891 658.505 49.3776 657.875 49.8516C657.245 50.3255 656.479 50.6849 655.578 50.9297C654.682 51.1693 653.674 51.2891 652.555 51.2891C651.435 51.2891 650.422 51.1693 649.516 50.9297C648.615 50.6849 647.846 50.3255 647.211 49.8516C646.576 49.3776 646.086 48.7891 645.742 48.0859C645.398 47.3776 645.227 46.5625 645.227 45.6406C645.227 44.7187 645.398 43.9062 645.742 43.2031C646.086 42.4948 646.576 41.9036 647.211 41.4297C647.846 40.9557 648.615 40.599 649.516 40.3594C650.422 40.1146 651.435 39.9922 652.555 39.9922C653.674 39.9922 654.682 40.1146 655.578 40.3594C656.479 40.599 657.245 40.9557 657.875 41.4297C658.505 41.9036 658.99 42.4948 659.328 43.2031C659.667 43.9062 659.836 44.7187 659.836 45.6406ZM656.906 45.6406C656.906 45.2396 656.841 44.8411 656.711 44.4453C656.586 44.0443 656.359 43.6849 656.031 43.3672C655.708 43.0495 655.266 42.7917 654.703 42.5937C654.141 42.3958 653.424 42.2969 652.555 42.2969C651.971 42.2969 651.458 42.3437 651.016 42.4375C650.573 42.526 650.19 42.651 649.867 42.8125C649.544 42.974 649.273 43.1641 649.055 43.3828C648.836 43.5964 648.661 43.8281 648.531 44.0781C648.401 44.3229 648.307 44.5807 648.25 44.8516C648.198 45.1172 648.172 45.3802 648.172 45.6406C648.172 45.9062 648.198 46.1745 648.25 46.4453C648.307 46.7161 648.401 46.9766 648.531 47.2266C648.661 47.4714 648.836 47.7005 649.055 47.9141C649.273 48.1276 649.544 48.3151 649.867 48.4766C650.19 48.6328 650.573 48.7578 651.016 48.8516C651.458 48.9401 651.971 48.9844 652.555 48.9844C653.424 48.9844 654.141 48.8854 654.703 48.6875C655.266 48.4896 655.708 48.2318 656.031 47.9141C656.359 47.5964 656.586 47.2396 656.711 46.8437C656.841 46.4427 656.906 46.0417 656.906 45.6406ZM675.625 45.625C675.625 46.3125 675.549 46.9245 675.398 47.4609C675.247 47.9922 675.034 48.4557 674.758 48.8516C674.487 49.2474 674.159 49.5833 673.773 49.8594C673.393 50.1354 672.969 50.3568 672.5 50.5234C672.031 50.6901 671.526 50.8125 670.984 50.8906C670.443 50.9635 669.878 51 669.289 51L662.477 51V40.2656L669.273 40.2656C669.862 40.2656 670.427 40.3047 670.969 40.3828C671.51 40.4557 672.016 40.5755 672.484 40.7422C672.958 40.9089 673.388 41.1302 673.773 41.4062C674.159 41.6771 674.487 42.013 674.758 42.4141C675.034 42.8099 675.247 43.2734 675.398 43.8047C675.549 44.3359 675.625 44.9427 675.625 45.625ZM672.703 45.625C672.703 45.1094 672.635 44.6615 672.5 44.2812C672.37 43.901 672.156 43.5885 671.859 43.3437C671.568 43.0937 671.185 42.9089 670.711 42.7891C670.237 42.6641 669.659 42.6016 668.977 42.6016L665.375 42.6016V48.6641L668.977 48.6641C669.659 48.6641 670.237 48.6042 670.711 48.4844C671.185 48.3594 671.568 48.1719 671.859 47.9219C672.156 47.6667 672.37 47.349 672.5 46.9687C672.635 46.5885 672.703 46.1406 672.703 45.625ZM690.242 50.4687C689.362 50.7604 688.482 50.9687 687.602 51.0937C686.727 51.224 685.831 51.2891 684.914 51.2891C683.742 51.2891 682.698 51.1641 681.781 50.9141C680.87 50.6589 680.102 50.2917 679.477 49.8125C678.852 49.3333 678.375 48.7474 678.047 48.0547C677.719 47.362 677.555 46.5781 677.555 45.7031C677.555 44.8906 677.719 44.138 678.047 43.4453C678.38 42.7474 678.849 42.1432 679.453 41.6328C680.062 41.1172 680.797 40.7161 681.656 40.4297C682.516 40.138 683.474 39.9922 684.531 39.9922C685.505 39.9922 686.396 40.125 687.203 40.3906C688.016 40.651 688.711 41.0391 689.289 41.5547C689.872 42.0703 690.323 42.7057 690.641 43.4609C690.964 44.2161 691.125 45.0859 691.125 46.0703V46.7891H680.547C680.641 47.1276 680.794 47.4375 681.008 47.7187C681.227 48 681.521 48.2396 681.891 48.4375C682.26 48.6354 682.714 48.7891 683.25 48.8984C683.792 49.0078 684.438 49.0625 685.188 49.0625C685.719 49.0625 686.24 49.0312 686.75 48.9687C687.26 48.901 687.737 48.8151 688.18 48.7109C688.622 48.6016 689.021 48.4818 689.375 48.3516C689.734 48.2214 690.023 48.0911 690.242 47.9609V50.4687ZM688.242 44.6641C688.216 44.3984 688.135 44.125 688 43.8437C687.87 43.5573 687.661 43.2995 687.375 43.0703C687.089 42.8411 686.714 42.6536 686.25 42.5078C685.786 42.3568 685.208 42.2812 684.516 42.2812C683.865 42.2812 683.302 42.362 682.828 42.5234C682.354 42.6849 681.956 42.8854 681.633 43.125C681.315 43.3646 681.068 43.6224 680.891 43.8984C680.714 44.1745 680.599 44.4297 680.547 44.6641H688.242ZM696.656 46.4062C696.656 46.8542 696.698 47.2214 696.781 47.5078C696.865 47.7891 697 48.013 697.188 48.1797C697.375 48.3464 697.617 48.4609 697.914 48.5234C698.216 48.5859 698.586 48.6172 699.023 48.6172H704.523V51H698.43C697.586 51 696.867 50.9323 696.273 50.7969C695.685 50.6562 695.203 50.4427 694.828 50.1562C694.453 49.8646 694.18 49.4974 694.008 49.0547C693.841 48.612 693.758 48.0859 693.758 47.4766V40.2656H696.656V46.4062ZM718.883 42.6016V51H715.984V42.6016H711.43V40.2656L723.445 40.2656V42.6016H718.883ZM739.102 45.6406C739.102 46.5625 738.932 47.3776 738.594 48.0859C738.255 48.7891 737.771 49.3776 737.141 49.8516C736.51 50.3255 735.745 50.6849 734.844 50.9297C733.948 51.1693 732.94 51.2891 731.82 51.2891C730.701 51.2891 729.688 51.1693 728.781 50.9297C727.88 50.6849 727.112 50.3255 726.477 49.8516C725.841 49.3776 725.352 48.7891 725.008 48.0859C724.664 47.3776 724.492 46.5625 724.492 45.6406C724.492 44.7187 724.664 43.9062 725.008 43.2031C725.352 42.4948 725.841 41.9036 726.477 41.4297C727.112 40.9557 727.88 40.599 728.781 40.3594C729.688 40.1146 730.701 39.9922 731.82 39.9922C732.94 39.9922 733.948 40.1146 734.844 40.3594C735.745 40.599 736.51 40.9557 737.141 41.4297C737.771 41.9036 738.255 42.4948 738.594 43.2031C738.932 43.9062 739.102 44.7187 739.102 45.6406ZM736.172 45.6406C736.172 45.2396 736.107 44.8411 735.977 44.4453C735.852 44.0443 735.625 43.6849 735.297 43.3672C734.974 43.0495 734.531 42.7917 733.969 42.5937C733.406 42.3958 732.69 42.2969 731.82 42.2969C731.237 42.2969 730.724 42.3437 730.281 42.4375C729.839 42.526 729.456 42.651 729.133 42.8125C728.81 42.974 728.539 43.1641 728.32 43.3828C728.102 43.5964 727.927 43.8281 727.797 44.0781C727.667 44.3229 727.573 44.5807 727.516 44.8516C727.464 45.1172 727.438 45.3802 727.438 45.6406C727.438 45.9062 727.464 46.1745 727.516 46.4453C727.573 46.7161 727.667 46.9766 727.797 47.2266C727.927 47.4714 728.102 47.7005 728.32 47.9141C728.539 48.1276 728.81 48.3151 729.133 48.4766C729.456 48.6328 729.839 48.7578 730.281 48.8516C730.724 48.9401 731.237 48.9844 731.82 48.9844C732.69 48.9844 733.406 48.8854 733.969 48.6875C734.531 48.4896 734.974 48.2318 735.297 47.9141C735.625 47.5964 735.852 47.2396 735.977 46.8437C736.107 46.4427 736.172 46.0417 736.172 45.6406ZM751.938 51C751.885 50.4167 751.745 49.9062 751.516 49.4687C751.286 49.026 750.997 48.6458 750.648 48.3281C750.305 48.0104 749.914 47.7474 749.477 47.5391C749.044 47.3307 748.599 47.1667 748.141 47.0469C747.682 46.9219 747.224 46.8359 746.766 46.7891C746.312 46.737 745.891 46.7109 745.5 46.7109H744.641V51H741.742V40.2656H744.641V44.4062H745.234C745.635 44.4062 746.055 44.375 746.492 44.3125C746.93 44.25 747.362 44.151 747.789 44.0156C748.221 43.8802 748.635 43.7057 749.031 43.4922C749.427 43.2786 749.781 43.0182 750.094 42.7109C750.406 42.4036 750.667 42.0495 750.875 41.6484C751.083 41.2422 751.214 40.7812 751.266 40.2656H754.219C754.167 40.8333 754.052 41.3464 753.875 41.8047C753.703 42.263 753.487 42.6745 753.227 43.0391C752.971 43.3984 752.685 43.7135 752.367 43.9844C752.049 44.2552 751.724 44.4896 751.391 44.6875C751.057 44.8802 750.724 45.0417 750.391 45.1719C750.062 45.2969 749.755 45.3932 749.469 45.4609C749.833 45.5182 750.211 45.6094 750.602 45.7344C750.997 45.8542 751.388 46.0156 751.773 46.2187C752.159 46.4167 752.526 46.6615 752.875 46.9531C753.229 47.2448 753.547 47.5859 753.828 47.9766C754.109 48.3672 754.344 48.8125 754.531 49.3125C754.719 49.8125 754.839 50.375 754.891 51L751.938 51ZM769.352 50.4687C768.471 50.7604 767.591 50.9687 766.711 51.0937C765.836 51.224 764.94 51.2891 764.023 51.2891C762.852 51.2891 761.807 51.1641 760.891 50.9141C759.979 50.6589 759.211 50.2917 758.586 49.8125C757.961 49.3333 757.484 48.7474 757.156 48.0547C756.828 47.362 756.664 46.5781 756.664 45.7031C756.664 44.8906 756.828 44.138 757.156 43.4453C757.49 42.7474 757.958 42.1432 758.562 41.6328C759.172 41.1172 759.906 40.7161 760.766 40.4297C761.625 40.138 762.583 39.9922 763.641 39.9922C764.615 39.9922 765.505 40.125 766.312 40.3906C767.125 40.651 767.82 41.0391 768.398 41.5547C768.982 42.0703 769.432 42.7057 769.75 43.4609C770.073 44.2161 770.234 45.0859 770.234 46.0703V46.7891H759.656C759.75 47.1276 759.904 47.4375 760.117 47.7187C760.336 48 760.63 48.2396 761 48.4375C761.37 48.6354 761.823 48.7891 762.359 48.8984C762.901 49.0078 763.547 49.0625 764.297 49.0625C764.828 49.0625 765.349 49.0312 765.859 48.9687C766.37 48.901 766.846 48.8151 767.289 48.7109C767.732 48.6016 768.13 48.4818 768.484 48.3516C768.844 48.2214 769.133 48.0911 769.352 47.9609V50.4687ZM767.352 44.6641C767.326 44.3984 767.245 44.125 767.109 43.8437C766.979 43.5573 766.771 43.2995 766.484 43.0703C766.198 42.8411 765.823 42.6536 765.359 42.5078C764.896 42.3568 764.318 42.2812 763.625 42.2812C762.974 42.2812 762.411 42.362 761.938 42.5234C761.464 42.6849 761.065 42.8854 760.742 43.125C760.424 43.3646 760.177 43.6224 760 43.8984C759.823 44.1745 759.708 44.4297 759.656 44.6641H767.352ZM783.094 51V44.9844C783.094 44.5833 783.06 44.2214 782.992 43.8984C782.924 43.5703 782.797 43.2917 782.609 43.0625C782.427 42.8281 782.169 42.6484 781.836 42.5234C781.508 42.3932 781.083 42.3281 780.562 42.3281C780.167 42.3281 779.75 42.3828 779.312 42.4922C778.88 42.5964 778.451 42.737 778.023 42.9141C777.596 43.0911 777.188 43.2969 776.797 43.5312C776.411 43.7656 776.068 44.0104 775.766 44.2656V51H772.867V40.2656H775.766V41.7344C776.13 41.526 776.518 41.3203 776.93 41.1172C777.341 40.9089 777.779 40.7214 778.242 40.5547C778.706 40.388 779.198 40.2526 779.719 40.1484C780.24 40.0443 780.789 39.9922 781.367 39.9922C782.091 39.9922 782.737 40.0807 783.305 40.2578C783.878 40.4297 784.362 40.6771 784.758 41C785.154 41.3177 785.456 41.7057 785.664 42.1641C785.878 42.6172 785.984 43.125 785.984 43.6875V51H783.094Z" fill="#D9D9D9"/>
<path d="M337.336 51V40.2656H340.234V51H337.336ZM357.25 51V43.4609L353.266 51H350.484L346.5 43.4609V51H343.602V40.2656H347.539L351.875 48.3906L356.211 40.2656H360.133V51H357.25ZM377.383 45.6406C377.383 46.5625 377.214 47.3776 376.875 48.0859C376.536 48.7891 376.052 49.3776 375.422 49.8516C374.792 50.3255 374.026 50.6849 373.125 50.9297C372.229 51.1693 371.221 51.2891 370.102 51.2891C368.982 51.2891 367.969 51.1693 367.062 50.9297C366.161 50.6849 365.393 50.3255 364.758 49.8516C364.122 49.3776 363.633 48.7891 363.289 48.0859C362.945 47.3776 362.773 46.5625 362.773 45.6406C362.773 44.7187 362.945 43.9062 363.289 43.2031C363.633 42.4948 364.122 41.9036 364.758 41.4297C365.393 40.9557 366.161 40.599 367.062 40.3594C367.969 40.1146 368.982 39.9922 370.102 39.9922C371.221 39.9922 372.229 40.1146 373.125 40.3594C374.026 40.599 374.792 40.9557 375.422 41.4297C376.052 41.9036 376.536 42.4948 376.875 43.2031C377.214 43.9062 377.383 44.7187 377.383 45.6406ZM374.453 45.6406C374.453 45.2396 374.388 44.8411 374.258 44.4453C374.133 44.0443 373.906 43.6849 373.578 43.3672C373.255 43.0495 372.812 42.7917 372.25 42.5937C371.688 42.3958 370.971 42.2969 370.102 42.2969C369.518 42.2969 369.005 42.3437 368.562 42.4375C368.12 42.526 367.737 42.651 367.414 42.8125C367.091 42.974 366.82 43.1641 366.602 43.3828C366.383 43.5964 366.208 43.8281 366.078 44.0781C365.948 44.3229 365.854 44.5807 365.797 44.8516C365.745 45.1172 365.719 45.3802 365.719 45.6406C365.719 45.9062 365.745 46.1745 365.797 46.4453C365.854 46.7161 365.948 46.9766 366.078 47.2266C366.208 47.4714 366.383 47.7005 366.602 47.9141C366.82 48.1276 367.091 48.3151 367.414 48.4766C367.737 48.6328 368.12 48.7578 368.562 48.8516C369.005 48.9401 369.518 48.9844 370.102 48.9844C370.971 48.9844 371.688 48.8854 372.25 48.6875C372.812 48.4896 373.255 48.2318 373.578 47.9141C373.906 47.5964 374.133 47.2396 374.258 46.8437C374.388 46.4427 374.453 46.0417 374.453 45.6406Z" fill="#D9D9D9"/>
<path d="M666.789 198.969H660.805L659.797 201H656.562L662.18 190.266H665.414L671.031 201H667.797L666.789 198.969ZM661.844 196.875H665.766L663.812 192.922L661.844 196.875ZM672.789 201V190.266H675.688V201H672.789ZM685.969 189.992C687.021 189.992 687.997 190.083 688.898 190.266C689.805 190.443 690.635 190.672 691.391 190.953V193.578C691.094 193.411 690.758 193.25 690.383 193.094C690.013 192.938 689.609 192.799 689.172 192.68C688.734 192.56 688.266 192.464 687.766 192.391C687.266 192.318 686.74 192.281 686.188 192.281C685.5 192.281 684.901 192.331 684.391 192.43C683.88 192.529 683.443 192.661 683.078 192.828C682.714 192.995 682.414 193.19 682.18 193.414C681.945 193.633 681.76 193.867 681.625 194.117C681.49 194.367 681.396 194.622 681.344 194.883C681.292 195.143 681.266 195.396 681.266 195.641C681.266 195.854 681.286 196.086 681.328 196.336C681.375 196.586 681.458 196.836 681.578 197.086C681.703 197.336 681.875 197.576 682.094 197.805C682.312 198.034 682.596 198.237 682.945 198.414C683.299 198.591 683.724 198.734 684.219 198.844C684.714 198.948 685.302 199 685.984 199C686.328 199 686.628 198.99 686.883 198.969C687.138 198.948 687.37 198.919 687.578 198.883C687.792 198.846 687.99 198.802 688.172 198.75C688.359 198.698 688.552 198.643 688.75 198.586V197.289H685.5V194.938H691.648V200.422C691.263 200.552 690.831 200.672 690.352 200.781C689.878 200.885 689.385 200.974 688.875 201.047C688.37 201.125 687.862 201.185 687.352 201.227C686.841 201.268 686.359 201.289 685.906 201.289C685.203 201.289 684.529 201.242 683.883 201.148C683.237 201.055 682.633 200.911 682.07 200.719C681.513 200.521 681.003 200.271 680.539 199.969C680.081 199.667 679.688 199.307 679.359 198.891C679.036 198.474 678.784 197.997 678.602 197.461C678.424 196.919 678.336 196.312 678.336 195.641C678.336 194.974 678.43 194.37 678.617 193.828C678.805 193.286 679.065 192.807 679.398 192.391C679.737 191.974 680.141 191.615 680.609 191.312C681.083 191.01 681.602 190.763 682.164 190.57C682.732 190.372 683.336 190.227 683.977 190.133C684.622 190.039 685.286 189.992 685.969 189.992ZM706.602 200.266C706.227 200.422 705.849 200.562 705.469 200.687C705.089 200.812 704.695 200.919 704.289 201.008C703.883 201.102 703.453 201.172 703 201.219C702.552 201.266 702.07 201.289 701.555 201.289C700.461 201.289 699.453 201.172 698.531 200.938C697.615 200.703 696.823 200.352 696.156 199.883C695.495 199.409 694.979 198.82 694.609 198.117C694.24 197.409 694.055 196.583 694.055 195.641C694.055 194.698 694.24 193.875 694.609 193.172C694.979 192.464 695.495 191.875 696.156 191.406C696.823 190.932 697.615 190.578 698.531 190.344C699.453 190.109 700.461 189.992 701.555 189.992C702.07 189.992 702.552 190.016 703 190.062C703.453 190.109 703.883 190.18 704.289 190.273C704.695 190.362 705.089 190.469 705.469 190.594C705.849 190.719 706.227 190.859 706.602 191.016V193.625C706.305 193.464 705.992 193.305 705.664 193.148C705.336 192.987 704.974 192.844 704.578 192.719C704.182 192.589 703.747 192.484 703.273 192.406C702.799 192.323 702.266 192.281 701.672 192.281C700.76 192.281 700.003 192.375 699.398 192.562C698.799 192.75 698.32 193 697.961 193.312C697.602 193.625 697.349 193.984 697.203 194.391C697.057 194.792 696.984 195.208 696.984 195.641C696.984 195.927 697.016 196.211 697.078 196.492C697.141 196.768 697.245 197.031 697.391 197.281C697.536 197.526 697.727 197.753 697.961 197.961C698.195 198.169 698.487 198.349 698.836 198.5C699.185 198.651 699.591 198.771 700.055 198.859C700.523 198.943 701.062 198.984 701.672 198.984C702.266 198.984 702.799 198.948 703.273 198.875C703.747 198.797 704.182 198.695 704.578 198.57C704.974 198.445 705.336 198.305 705.664 198.148C705.992 197.987 706.305 197.823 706.602 197.656V200.266ZM725.461 201L718.219 193.625V201H715.32V190.266H718.469L725.719 197.672V190.266H728.602V201H725.461ZM734.859 192.555V194.422H741.836V196.711H734.859V201H731.961V190.266H742.219V192.555H734.859ZM750.711 192.602V201H747.812V192.602H743.258V190.266H755.273V192.602H750.711Z" fill="#D9D9D9"/>
<path d="M339.293 138.707C339.683 139.098 340.317 139.098 340.707 138.707L347.071 132.343C347.462 131.953 347.462 131.319 347.071 130.929C346.681 130.538 346.047 130.538 345.657 130.929L340 136.586L334.343 130.929C333.953 130.538 333.319 130.538 332.929 130.929C332.538 131.319 332.538 131.953 332.929 132.343L339.293 138.707ZM341 138V100H339V138H341Z" fill="black"/>
<path d="M573.707 204.707C574.098 204.317 574.098 203.683 573.707 203.293L567.343 196.929C566.953 196.538 566.319 196.538 565.929 196.929C565.538 197.319 565.538 197.953 565.929 198.343L571.586 204L565.929 209.657C565.538 210.047 565.538 210.681 565.929 211.071C566.319 211.462 566.953 211.462 567.343 211.071L573.707 204.707ZM491 205L573 205L573 203L491 203L491 205Z" fill="black"/>
<path d="M573.707 44.2929C574.098 44.6834 574.098 45.3166 573.707 45.7071L567.343 52.0711C566.953 52.4616 566.319 52.4616 565.929 52.0711C565.538 51.6805 565.538 51.0474 565.929 50.6568L571.586 45L565.929 39.3431C565.538 38.9526 565.538 38.3195 565.929 37.9289C566.319 37.5384 566.953 37.5384 567.343 37.9289L573.707 44.2929ZM534.929 48H535.929H534.929ZM534.929 185L533.929 185L534.929 185ZM531.929 189H491V187H531.929V189ZM533.929 185L533.929 48H535.929L535.929 185L533.929 185ZM537.929 44H573V46H537.929V44ZM533.929 48C533.929 45.7909 535.72 44 537.929 44V46C536.824 46 535.929 46.8954 535.929 48H533.929ZM531.929 187C533.033 187 533.929 186.105 533.929 185L535.929 185C535.929 187.209 534.138 189 531.929 189V187Z" fill="black"/>
<path d="M193 120H192V120L193 120ZM193 48H194H193ZM224.707 44.2929C225.098 44.6834 225.098 45.3166 224.707 45.7071L218.343 52.0711C217.953 52.4616 217.319 52.4616 216.929 52.0711C216.538 51.6805 216.538 51.0474 216.929 50.6569L222.586 45L216.929 39.3431C216.538 38.9526 216.538 38.3195 216.929 37.9289C217.319 37.5384 217.953 37.5384 218.343 37.9289L224.707 44.2929ZM190 124L142 124V122L190 122V124ZM192 120L192 48H194L194 120L192 120ZM196 44H224V46H196V44ZM192 48C192 45.7908 193.791 44 196 44V46C194.896 46 194 46.8954 194 48H192ZM190 122C191.105 122 192 121.105 192 120H194C194 122.209 192.209 124 190 124V122Z" fill="black"/>
<circle cx="64" cy="119" r="63.5" fill="black" stroke="#D9D9D9"/>
<path d="M43.2422 119.383C43.2422 119.919 43.1094 120.424 42.8438 120.898C42.5781 121.372 42.1797 121.786 41.6484 122.141C41.1172 122.495 40.4531 122.776 39.6562 122.984C38.8646 123.188 37.9375 123.289 36.875 123.289C35.8125 123.289 34.8802 123.188 34.0781 122.984C33.2812 122.776 32.6172 122.495 32.0859 122.141C31.5547 121.786 31.1563 121.372 30.8906 120.898C30.625 120.424 30.4922 119.919 30.4922 119.383L30.4922 112.266H33.3828V118.344C33.3828 118.703 33.4271 119.044 33.5156 119.367C33.6094 119.685 33.7812 119.964 34.0312 120.203C34.2865 120.443 34.6406 120.633 35.0938 120.773C35.5521 120.914 36.1458 120.984 36.875 120.984C37.599 120.984 38.1875 120.914 38.6406 120.773C39.0938 120.633 39.4453 120.443 39.6953 120.203C39.9505 119.964 40.1224 119.685 40.2109 119.367C40.2995 119.044 40.3438 118.703 40.3438 118.344V112.266H43.2422V119.383ZM56.4141 115.289C56.2109 115.19 55.9427 115.078 55.6094 114.953C55.276 114.828 54.8984 114.711 54.4766 114.602C54.0547 114.487 53.5964 114.393 53.1016 114.32C52.6068 114.242 52.099 114.203 51.5781 114.203C51.1615 114.203 50.8047 114.216 50.5078 114.242C50.2161 114.268 49.9688 114.302 49.7656 114.344C49.5677 114.385 49.4089 114.435 49.2891 114.492C49.1745 114.544 49.0859 114.599 49.0234 114.656C48.9609 114.714 48.9193 114.771 48.8984 114.828C48.8828 114.885 48.875 114.938 48.875 114.984C48.875 115.141 48.9531 115.279 49.1094 115.398C49.2656 115.513 49.4792 115.617 49.75 115.711C50.0208 115.799 50.3359 115.885 50.6953 115.969C51.0547 116.047 51.4349 116.13 51.8359 116.219C52.2422 116.302 52.6589 116.396 53.0859 116.5C53.5182 116.599 53.9349 116.716 54.3359 116.852C54.7422 116.987 55.125 117.146 55.4844 117.328C55.8438 117.505 56.1589 117.714 56.4297 117.953C56.7005 118.193 56.9141 118.469 57.0703 118.781C57.2266 119.094 57.3047 119.451 57.3047 119.852C57.3047 120.367 57.2135 120.81 57.0312 121.18C56.849 121.549 56.6042 121.862 56.2969 122.117C55.9948 122.372 55.6432 122.578 55.2422 122.734C54.8411 122.885 54.4193 123.003 53.9766 123.086C53.5391 123.169 53.0938 123.224 52.6406 123.25C52.1927 123.276 51.7656 123.289 51.3594 123.289C50.2969 123.289 49.3125 123.201 48.4062 123.023C47.5052 122.852 46.7083 122.635 46.0156 122.375V119.812C46.7292 120.208 47.5417 120.518 48.4531 120.742C49.3698 120.966 50.349 121.078 51.3906 121.078C52.0052 121.078 52.5052 121.047 52.8906 120.984C53.2812 120.917 53.5859 120.833 53.8047 120.734C54.0234 120.63 54.1719 120.518 54.25 120.398C54.3281 120.279 54.3672 120.164 54.3672 120.055C54.3672 119.883 54.2891 119.734 54.1328 119.609C53.9766 119.479 53.763 119.367 53.4922 119.273C53.2214 119.174 52.9062 119.086 52.5469 119.008C52.1875 118.924 51.8047 118.844 51.3984 118.766C50.9974 118.682 50.5833 118.594 50.1562 118.5C49.7292 118.406 49.3125 118.297 48.9062 118.172C48.5052 118.042 48.125 117.893 47.7656 117.727C47.4062 117.555 47.0911 117.354 46.8203 117.125C46.5495 116.891 46.3359 116.622 46.1797 116.32C46.0234 116.013 45.9453 115.659 45.9453 115.258C45.9453 114.784 46.0286 114.375 46.1953 114.031C46.362 113.688 46.5859 113.396 46.8672 113.156C47.1536 112.911 47.4818 112.714 47.8516 112.562C48.2266 112.411 48.6198 112.294 49.0312 112.211C49.4427 112.128 49.8594 112.07 50.2812 112.039C50.7031 112.008 51.1042 111.992 51.4844 111.992C51.901 111.992 52.3281 112.013 52.7656 112.055C53.2083 112.096 53.6432 112.156 54.0703 112.234C54.4974 112.307 54.9089 112.393 55.3047 112.492C55.7057 112.591 56.0755 112.695 56.4141 112.805V115.289ZM72.0234 122.469C71.1432 122.76 70.263 122.969 69.3828 123.094C68.5078 123.224 67.612 123.289 66.6953 123.289C65.5234 123.289 64.4792 123.164 63.5625 122.914C62.651 122.659 61.8828 122.292 61.2578 121.812C60.6328 121.333 60.1562 120.747 59.8281 120.055C59.5 119.362 59.3359 118.578 59.3359 117.703C59.3359 116.891 59.5 116.138 59.8281 115.445C60.1615 114.747 60.6302 114.143 61.2344 113.633C61.8438 113.117 62.5781 112.716 63.4375 112.43C64.2969 112.138 65.2552 111.992 66.3125 111.992C67.2865 111.992 68.1771 112.125 68.9844 112.391C69.7969 112.651 70.4922 113.039 71.0703 113.555C71.6536 114.07 72.1042 114.706 72.4219 115.461C72.7448 116.216 72.9062 117.086 72.9062 118.07V118.789H62.3281C62.4219 119.128 62.5755 119.437 62.7891 119.719C63.0078 120 63.3021 120.24 63.6719 120.437C64.0417 120.635 64.4948 120.789 65.0312 120.898C65.5729 121.008 66.2188 121.062 66.9688 121.062C67.5 121.062 68.0208 121.031 68.5312 120.969C69.0417 120.901 69.5182 120.815 69.9609 120.711C70.4036 120.602 70.8021 120.482 71.1562 120.352C71.5156 120.221 71.8047 120.091 72.0234 119.961V122.469ZM70.0234 116.664C69.9974 116.398 69.9167 116.125 69.7812 115.844C69.651 115.557 69.4427 115.299 69.1562 115.07C68.8698 114.841 68.4948 114.654 68.0312 114.508C67.5677 114.357 66.9896 114.281 66.2969 114.281C65.6458 114.281 65.0833 114.362 64.6094 114.523C64.1354 114.685 63.737 114.885 63.4141 115.125C63.0964 115.365 62.849 115.622 62.6719 115.898C62.4948 116.174 62.3802 116.43 62.3281 116.664H70.0234ZM85.4141 114.695C85.3359 114.669 85.2214 114.635 85.0703 114.594C84.9245 114.547 84.7526 114.503 84.5547 114.461C84.3568 114.414 84.138 114.375 83.8984 114.344C83.6641 114.312 83.4219 114.297 83.1719 114.297C82.651 114.297 82.1641 114.362 81.7109 114.492C81.263 114.617 80.8438 114.786 80.4531 115C80.0625 115.208 79.6979 115.448 79.3594 115.719C79.026 115.984 78.7188 116.258 78.4375 116.539V123H75.5391V112.266H78.4375V114.008C78.7865 113.747 79.1432 113.497 79.5078 113.258C79.8776 113.013 80.2604 112.797 80.6562 112.609C81.0573 112.422 81.4792 112.273 81.9219 112.164C82.3646 112.049 82.8333 111.992 83.3281 111.992C83.5156 111.992 83.7057 112.003 83.8984 112.023C84.0964 112.039 84.2865 112.06 84.4688 112.086C84.6562 112.112 84.8307 112.141 84.9922 112.172C85.1536 112.203 85.2943 112.234 85.4141 112.266V114.695ZM97.1484 115.289C96.9453 115.19 96.6771 115.078 96.3438 114.953C96.0104 114.828 95.6328 114.711 95.2109 114.602C94.7891 114.487 94.3307 114.393 93.8359 114.32C93.3411 114.242 92.8333 114.203 92.3125 114.203C91.8958 114.203 91.5391 114.216 91.2422 114.242C90.9505 114.268 90.7031 114.302 90.5 114.344C90.3021 114.385 90.1432 114.435 90.0234 114.492C89.9089 114.544 89.8203 114.599 89.7578 114.656C89.6953 114.714 89.6536 114.771 89.6328 114.828C89.6172 114.885 89.6094 114.937 89.6094 114.984C89.6094 115.141 89.6875 115.279 89.8438 115.398C90 115.513 90.2135 115.617 90.4844 115.711C90.7552 115.799 91.0703 115.885 91.4297 115.969C91.7891 116.047 92.1693 116.13 92.5703 116.219C92.9766 116.302 93.3932 116.396 93.8203 116.5C94.2526 116.599 94.6693 116.716 95.0703 116.852C95.4766 116.987 95.8594 117.146 96.2188 117.328C96.5781 117.505 96.8932 117.714 97.1641 117.953C97.4349 118.193 97.6484 118.469 97.8047 118.781C97.9609 119.094 98.0391 119.451 98.0391 119.852C98.0391 120.367 97.9479 120.81 97.7656 121.18C97.5833 121.549 97.3385 121.862 97.0312 122.117C96.7292 122.372 96.3776 122.578 95.9766 122.734C95.5755 122.885 95.1536 123.003 94.7109 123.086C94.2734 123.169 93.8281 123.224 93.375 123.25C92.9271 123.276 92.5 123.289 92.0938 123.289C91.0312 123.289 90.0469 123.201 89.1406 123.023C88.2396 122.852 87.4427 122.635 86.75 122.375V119.812C87.4635 120.208 88.276 120.518 89.1875 120.742C90.1042 120.966 91.0833 121.078 92.125 121.078C92.7396 121.078 93.2396 121.047 93.625 120.984C94.0156 120.917 94.3203 120.833 94.5391 120.734C94.7578 120.63 94.9062 120.518 94.9844 120.398C95.0625 120.279 95.1016 120.164 95.1016 120.055C95.1016 119.883 95.0234 119.734 94.8672 119.609C94.7109 119.479 94.4974 119.367 94.2266 119.273C93.9557 119.174 93.6406 119.086 93.2812 119.008C92.9219 118.924 92.5391 118.844 92.1328 118.766C91.7318 118.682 91.3177 118.594 90.8906 118.5C90.4635 118.406 90.0469 118.297 89.6406 118.172C89.2396 118.042 88.8594 117.893 88.5 117.727C88.1406 117.555 87.8255 117.354 87.5547 117.125C87.2839 116.891 87.0703 116.622 86.9141 116.32C86.7578 116.013 86.6797 115.659 86.6797 115.258C86.6797 114.784 86.763 114.375 86.9297 114.031C87.0964 113.687 87.3203 113.396 87.6016 113.156C87.888 112.911 88.2161 112.714 88.5859 112.562C88.9609 112.411 89.3542 112.294 89.7656 112.211C90.1771 112.128 90.5938 112.07 91.0156 112.039C91.4375 112.008 91.8385 111.992 92.2188 111.992C92.6354 111.992 93.0625 112.013 93.5 112.055C93.9427 112.096 94.3776 112.156 94.8047 112.234C95.2318 112.307 95.6432 112.393 96.0391 112.492C96.4401 112.591 96.8099 112.695 97.1484 112.805V115.289Z" fill="#D9D9D9"/>
</svg>
