<svg width="265" height="622" viewBox="0 0 265 622" fill="none" xmlns="http://www.w3.org/2000/svg">
<path d="M197 64C197 99.3462 168.346 128 133 128C97.6538 128 69 99.3462 69 64C69 28.6538 97.6538 0 133 0C168.346 0 197 28.6538 197 64Z" fill="black"/>
<path fill-rule="evenodd" clip-rule="evenodd" d="M133 127C167.794 127 196 98.7939 196 64C196 29.2061 167.794 1 133 1C98.2061 1 70 29.2061 70 64C70 98.7939 98.2061 127 133 127ZM133 128C168.346 128 197 99.3462 197 64C197 28.6538 168.346 0 133 0C97.6538 0 69 28.6538 69 64C69 99.3462 97.6538 128 133 128Z" fill="white"/>
<path d="M159.052 59.9951C158.874 59.9085 158.669 59.8174 158.437 59.7217C158.204 59.6214 157.938 59.5326 157.637 59.4551C157.34 59.3776 157.006 59.3138 156.632 59.2637C156.258 59.209 155.843 59.1816 155.388 59.1816C154.836 59.1816 154.344 59.2135 153.911 59.2773C153.483 59.3411 153.118 59.4414 152.817 59.5781C152.521 59.7103 152.293 59.8789 152.134 60.084C151.979 60.2891 151.901 60.5329 151.901 60.8154C151.901 61.0524 151.974 61.2598 152.12 61.4375C152.271 61.6152 152.471 61.7725 152.722 61.9092C152.977 62.0459 153.273 62.1712 153.61 62.2852C153.952 62.3945 154.312 62.4993 154.69 62.5996C155.073 62.6953 155.465 62.7933 155.866 62.8936C156.272 62.9938 156.664 63.1032 157.042 63.2217C157.425 63.3356 157.785 63.4655 158.122 63.6113C158.464 63.7526 158.76 63.9189 159.011 64.1104C159.266 64.3018 159.466 64.5205 159.612 64.7666C159.763 65.0127 159.838 65.2975 159.838 65.6211C159.838 65.972 159.772 66.2796 159.64 66.5439C159.507 66.8037 159.327 67.0293 159.1 67.2207C158.876 67.4076 158.612 67.5648 158.307 67.6924C158.006 67.8154 157.682 67.9134 157.336 67.9863C156.994 68.0592 156.639 68.1094 156.27 68.1367C155.905 68.1686 155.545 68.1846 155.189 68.1846C154.374 68.1846 153.633 68.1253 152.968 68.0068C152.307 67.8883 151.676 67.7266 151.074 67.5215V66.4756C151.694 66.8447 152.348 67.0977 153.036 67.2344C153.729 67.3711 154.456 67.4395 155.217 67.4395C155.755 67.4395 156.251 67.4076 156.707 67.3438C157.163 67.2799 157.557 67.1797 157.89 67.043C158.222 66.9017 158.48 66.7194 158.662 66.4961C158.849 66.2728 158.942 65.9993 158.942 65.6758C158.942 65.416 158.867 65.1882 158.717 64.9922C158.571 64.7962 158.37 64.6253 158.115 64.4795C157.865 64.3291 157.568 64.1969 157.227 64.083C156.889 63.9691 156.532 63.8643 156.153 63.7686C155.775 63.6683 155.383 63.5726 154.978 63.4814C154.576 63.3857 154.187 63.2832 153.809 63.1738C153.43 63.0645 153.07 62.9414 152.729 62.8047C152.391 62.668 152.095 62.5085 151.84 62.3262C151.589 62.1393 151.389 61.9251 151.238 61.6836C151.092 61.4421 151.02 61.1618 151.02 60.8428C151.02 60.5283 151.079 60.2503 151.197 60.0088C151.316 59.7627 151.478 59.5508 151.683 59.373C151.892 59.1953 152.136 59.0472 152.414 58.9287C152.692 58.8057 152.988 58.71 153.303 58.6416C153.622 58.5687 153.952 58.5163 154.294 58.4844C154.636 58.4525 154.973 58.4365 155.306 58.4365C155.67 58.4365 156.014 58.4525 156.338 58.4844C156.666 58.5163 156.98 58.5596 157.281 58.6143C157.587 58.6644 157.883 58.7236 158.17 58.792C158.462 58.8604 158.756 58.9333 159.052 59.0107V59.9951Z" fill="white"/>
<path d="M149.878 59.332C149.746 59.291 149.561 59.2477 149.324 59.2021C149.092 59.152 148.791 59.127 148.422 59.127C147.911 59.127 147.431 59.1908 146.979 59.3184C146.533 59.4414 146.116 59.61 145.729 59.8242C145.346 60.0384 144.99 60.2891 144.662 60.5762C144.334 60.8587 144.038 61.1595 143.773 61.4785V68H142.919V58.6074H143.773V60.5215C144.079 60.207 144.409 59.9176 144.765 59.6533C145.125 59.389 145.503 59.1634 145.899 58.9766C146.296 58.7852 146.711 58.637 147.144 58.5322C147.581 58.4229 148.032 58.3682 148.497 58.3682C148.657 58.3682 148.8 58.3727 148.928 58.3818C149.055 58.3864 149.172 58.3955 149.276 58.4092C149.386 58.4183 149.488 58.4297 149.584 58.4434C149.68 58.457 149.778 58.473 149.878 58.4912V59.332Z" fill="white"/>
<path d="M139.645 67.5078C139.262 67.6263 138.906 67.7288 138.578 67.8154C138.25 67.8975 137.926 67.9635 137.607 68.0137C137.288 68.0684 136.963 68.1071 136.63 68.1299C136.302 68.1572 135.939 68.1709 135.543 68.1709C134.622 68.1709 133.791 68.0592 133.048 67.8359C132.305 67.6126 131.672 67.2936 131.147 66.8789C130.628 66.4596 130.227 65.9538 129.944 65.3613C129.662 64.7689 129.521 64.1035 129.521 63.3652C129.521 62.6497 129.655 61.9935 129.924 61.3965C130.197 60.7995 130.578 60.2868 131.065 59.8584C131.553 59.43 132.136 59.0973 132.815 58.8604C133.494 58.6234 134.244 58.5049 135.064 58.5049C135.917 58.5049 136.675 58.6188 137.341 58.8467C138.006 59.0745 138.567 59.4004 139.022 59.8242C139.478 60.248 139.825 60.763 140.062 61.3691C140.299 61.9707 140.417 62.6497 140.417 63.4062V63.6182H130.402C130.452 64.2015 130.598 64.7279 130.84 65.1973C131.081 65.6667 131.423 66.0654 131.865 66.3936C132.312 66.7217 132.859 66.9746 133.506 67.1523C134.158 67.3255 134.916 67.4121 135.782 67.4121C136.151 67.4121 136.525 67.387 136.903 67.3369C137.282 67.2868 137.644 67.2207 137.99 67.1387C138.337 67.0521 138.653 66.9564 138.94 66.8516C139.228 66.7422 139.462 66.6305 139.645 66.5166V67.5078ZM139.576 62.873C139.544 62.3945 139.437 61.9388 139.255 61.5059C139.073 61.0684 138.799 60.6833 138.435 60.3506C138.075 60.0179 137.614 59.7536 137.054 59.5576C136.498 59.3617 135.83 59.2637 135.051 59.2637C134.317 59.2637 133.674 59.3617 133.123 59.5576C132.572 59.7536 132.104 60.0179 131.722 60.3506C131.339 60.6787 131.038 61.0615 130.819 61.499C130.601 61.932 130.462 62.39 130.402 62.873H139.576Z" fill="white"/>
<path d="M126.745 59.9951C126.567 59.9085 126.362 59.8174 126.13 59.7217C125.897 59.6214 125.631 59.5326 125.33 59.4551C125.034 59.3776 124.699 59.3138 124.325 59.2637C123.951 59.209 123.537 59.1816 123.081 59.1816C122.53 59.1816 122.037 59.2135 121.604 59.2773C121.176 59.3411 120.812 59.4414 120.511 59.5781C120.215 59.7103 119.987 59.8789 119.827 60.084C119.672 60.2891 119.595 60.5329 119.595 60.8154C119.595 61.0524 119.668 61.2598 119.813 61.4375C119.964 61.6152 120.164 61.7725 120.415 61.9092C120.67 62.0459 120.966 62.1712 121.304 62.2852C121.646 62.3945 122.006 62.4993 122.384 62.5996C122.767 62.6953 123.159 62.7933 123.56 62.8936C123.965 62.9938 124.357 63.1032 124.735 63.2217C125.118 63.3356 125.478 63.4655 125.815 63.6113C126.157 63.7526 126.453 63.9189 126.704 64.1104C126.959 64.3018 127.16 64.5205 127.306 64.7666C127.456 65.0127 127.531 65.2975 127.531 65.6211C127.531 65.972 127.465 66.2796 127.333 66.5439C127.201 66.8037 127.021 67.0293 126.793 67.2207C126.57 67.4076 126.305 67.5648 126 67.6924C125.699 67.8154 125.376 67.9134 125.029 67.9863C124.688 68.0592 124.332 68.1094 123.963 68.1367C123.598 68.1686 123.238 68.1846 122.883 68.1846C122.067 68.1846 121.326 68.1253 120.661 68.0068C120 67.8883 119.369 67.7266 118.768 67.5215V66.4756C119.387 66.8447 120.041 67.0977 120.729 67.2344C121.422 67.3711 122.149 67.4395 122.91 67.4395C123.448 67.4395 123.945 67.4076 124.4 67.3438C124.856 67.2799 125.25 67.1797 125.583 67.043C125.916 66.9017 126.173 66.7194 126.355 66.4961C126.542 66.2728 126.636 65.9993 126.636 65.6758C126.636 65.416 126.561 65.1882 126.41 64.9922C126.264 64.7962 126.064 64.6253 125.809 64.4795C125.558 64.3291 125.262 64.1969 124.92 64.083C124.583 63.9691 124.225 63.8643 123.847 63.7686C123.468 63.6683 123.076 63.5726 122.671 63.4814C122.27 63.3857 121.88 63.2832 121.502 63.1738C121.124 63.0645 120.764 62.9414 120.422 62.8047C120.085 62.668 119.788 62.5085 119.533 62.3262C119.283 62.1393 119.082 61.9251 118.932 61.6836C118.786 61.4421 118.713 61.1618 118.713 60.8428C118.713 60.5283 118.772 60.2503 118.891 60.0088C119.009 59.7627 119.171 59.5508 119.376 59.373C119.586 59.1953 119.829 59.0472 120.107 58.9287C120.385 58.8057 120.682 58.71 120.996 58.6416C121.315 58.5687 121.646 58.5163 121.987 58.4844C122.329 58.4525 122.666 58.4365 122.999 58.4365C123.364 58.4365 123.708 58.4525 124.031 58.4844C124.359 58.5163 124.674 58.5596 124.975 58.6143C125.28 58.6644 125.576 58.7236 125.863 58.792C126.155 58.8604 126.449 58.9333 126.745 59.0107V59.9951Z" fill="white"/>
<path d="M116.074 65.0469C116.074 65.5163 115.974 65.9447 115.773 66.332C115.577 66.7148 115.281 67.0452 114.885 67.3232C114.493 67.5967 114.001 67.8086 113.408 67.959C112.816 68.1094 112.125 68.1846 111.337 68.1846C110.549 68.1846 109.858 68.1094 109.266 67.959C108.673 67.8086 108.179 67.5967 107.782 67.3232C107.386 67.0452 107.087 66.7148 106.887 66.332C106.691 65.9447 106.593 65.5163 106.593 65.0469V58.6074H107.447V65.1152C107.447 65.4297 107.529 65.7282 107.693 66.0107C107.862 66.2887 108.11 66.5326 108.438 66.7422C108.767 66.9518 109.172 67.1182 109.655 67.2412C110.138 67.3643 110.699 67.4258 111.337 67.4258C111.97 67.4258 112.529 67.3643 113.012 67.2412C113.495 67.1182 113.9 66.9518 114.229 66.7422C114.557 66.5326 114.803 66.2887 114.967 66.0107C115.135 65.7282 115.22 65.4297 115.22 65.1152V58.6074H116.074V65.0469Z" fill="white"/>
<path d="M139 527C139 518.716 145.716 512 154 512H250C258.284 512 265 518.716 265 527V607C265 615.284 258.284 622 250 622H154C145.716 622 139 615.284 139 607V527Z" fill="black"/>
<path fill-rule="evenodd" clip-rule="evenodd" d="M250 513H154C146.268 513 140 519.268 140 527V607C140 614.732 146.268 621 154 621H250C257.732 621 264 614.732 264 607V527C264 519.268 257.732 513 250 513ZM154 512C145.716 512 139 518.716 139 527V607C139 615.284 145.716 622 154 622H250C258.284 622 265 615.284 265 607V527C265 518.716 258.284 512 250 512H154Z" fill="white"/>
<path d="M215.484 574.156V584H214.516V574.156H209.633V573.266H220.367V574.156H215.484Z" fill="white"/>
<path d="M201.094 574.18V577.875H208.234V578.781H201.094V584H200.117V573.266H208.617V574.18H201.094Z" fill="white"/>
<path d="M195.438 584L186.109 574.547V584H185.133V573.266H186.211L195.539 582.75V573.266H196.5V584H195.438Z" fill="white"/>
<path d="M223.945 559.148C223.57 559.305 223.198 559.448 222.828 559.578C222.464 559.708 222.083 559.82 221.688 559.914C221.292 560.008 220.875 560.081 220.438 560.133C220 560.185 219.523 560.211 219.008 560.211C218.372 560.211 217.76 560.159 217.172 560.055C216.589 559.951 216.044 559.794 215.539 559.586C215.034 559.378 214.576 559.12 214.164 558.812C213.753 558.5 213.398 558.138 213.102 557.727C212.81 557.315 212.583 556.852 212.422 556.336C212.266 555.82 212.188 555.255 212.188 554.641C212.188 554.026 212.266 553.461 212.422 552.945C212.583 552.43 212.81 551.966 213.102 551.555C213.398 551.143 213.753 550.784 214.164 550.477C214.576 550.164 215.034 549.904 215.539 549.695C216.044 549.487 216.589 549.331 217.172 549.227C217.755 549.122 218.367 549.07 219.008 549.07C219.523 549.07 220 549.096 220.438 549.148C220.875 549.201 221.292 549.273 221.688 549.367C222.083 549.461 222.464 549.573 222.828 549.703C223.198 549.828 223.57 549.969 223.945 550.125V551.297C223.648 551.109 223.331 550.932 222.992 550.766C222.654 550.599 222.286 550.453 221.891 550.328C221.5 550.203 221.081 550.104 220.633 550.031C220.185 549.958 219.706 549.922 219.195 549.922C218.164 549.922 217.271 550.034 216.516 550.258C215.76 550.482 215.135 550.799 214.641 551.211C214.151 551.617 213.786 552.112 213.547 552.695C213.312 553.273 213.195 553.922 213.195 554.641C213.195 555.359 213.312 556.008 213.547 556.586C213.786 557.164 214.151 557.659 214.641 558.07C215.135 558.477 215.76 558.792 216.516 559.016C217.271 559.234 218.164 559.344 219.195 559.344C219.706 559.344 220.188 559.307 220.641 559.234C221.099 559.161 221.526 559.062 221.922 558.938C222.323 558.812 222.69 558.669 223.023 558.508C223.362 558.341 223.669 558.167 223.945 557.984V559.148Z" fill="white"/>
<path d="M204.695 549.07C205.19 549.07 205.651 549.096 206.078 549.148C206.505 549.195 206.914 549.266 207.305 549.359C207.695 549.448 208.076 549.557 208.445 549.688C208.815 549.812 209.188 549.953 209.562 550.109V551.297C209.266 551.109 208.948 550.932 208.609 550.766C208.276 550.599 207.914 550.453 207.523 550.328C207.138 550.203 206.721 550.104 206.273 550.031C205.831 549.958 205.354 549.922 204.844 549.922C203.802 549.922 202.893 550.031 202.117 550.25C201.341 550.469 200.695 550.781 200.18 551.188C199.664 551.594 199.276 552.089 199.016 552.672C198.76 553.255 198.633 553.911 198.633 554.641C198.633 555.323 198.758 555.953 199.008 556.531C199.263 557.104 199.646 557.599 200.156 558.016C200.672 558.432 201.315 558.758 202.086 558.992C202.857 559.227 203.76 559.344 204.797 559.344C205.203 559.344 205.604 559.328 206 559.297C206.401 559.266 206.779 559.227 207.133 559.18C207.487 559.128 207.81 559.073 208.102 559.016C208.393 558.953 208.641 558.891 208.844 558.828V555.57H204.477V554.656H209.82V559.375C209.435 559.51 209.044 559.63 208.648 559.734C208.258 559.839 207.852 559.927 207.43 560C207.013 560.068 206.578 560.12 206.125 560.156C205.677 560.193 205.206 560.211 204.711 560.211C203.701 560.211 202.763 560.099 201.898 559.875C201.034 559.646 200.284 559.302 199.648 558.844C199.018 558.38 198.523 557.799 198.164 557.102C197.805 556.404 197.625 555.583 197.625 554.641C197.625 554.01 197.708 553.438 197.875 552.922C198.042 552.401 198.276 551.935 198.578 551.523C198.885 551.107 199.253 550.745 199.68 550.438C200.112 550.13 200.589 549.878 201.109 549.68C201.635 549.477 202.201 549.326 202.805 549.227C203.409 549.122 204.039 549.07 204.695 549.07Z" fill="white"/>
<path d="M193.781 560V549.266H194.758V560H193.781Z" fill="white"/>
<path d="M190.594 560L189.117 557.172H181.828L180.352 560H179.281L184.898 549.266H186.047L191.664 560H190.594ZM185.477 550.211L182.305 556.273H188.641L185.477 550.211Z" fill="white"/>
<path d="M0 527C0 518.716 6.71573 512 15 512H111C119.284 512 126 518.716 126 527V607C126 615.284 119.284 622 111 622H15C6.71573 622 0 615.284 0 607V527Z" fill="black"/>
<path fill-rule="evenodd" clip-rule="evenodd" d="M111 513H15C7.26801 513 1 519.268 1 527V607C1 614.732 7.26802 621 15 621H111C118.732 621 125 614.732 125 607V527C125 519.268 118.732 513 111 513ZM15 512C6.71573 512 0 518.716 0 527V607C0 615.284 6.71573 622 15 622H111C119.284 622 126 615.284 126 607V527C126 518.716 119.284 512 111 512H15Z" fill="white"/>
<path d="M91.2871 584V577.8C91.2871 577.28 91.2165 576.854 91.0752 576.521C90.9385 576.184 90.7402 575.918 90.4805 575.722C90.2253 575.526 89.9131 575.389 89.5439 575.312C89.1748 575.234 88.7601 575.195 88.2998 575.195C87.7666 575.195 87.2425 575.261 86.7275 575.394C86.2171 575.521 85.734 575.685 85.2783 575.886C84.8226 576.082 84.4033 576.3 84.0205 576.542C83.6377 576.784 83.3141 577.016 83.0498 577.239V584H82.1953V574.607H83.0498V576.255C83.3688 576.054 83.7197 575.845 84.1025 575.626C84.4899 575.403 84.9046 575.2 85.3467 575.018C85.7933 574.831 86.2695 574.678 86.7754 574.56C87.2812 574.441 87.8145 574.382 88.375 574.382C89.0085 574.382 89.5599 574.459 90.0293 574.614C90.5033 574.765 90.8952 574.981 91.2051 575.264C91.5195 575.542 91.7542 575.881 91.9092 576.282C92.0641 576.679 92.1416 577.123 92.1416 577.615V584H91.2871Z" fill="white"/>
<path d="M78.9209 583.508C78.5381 583.626 78.1826 583.729 77.8545 583.815C77.5264 583.897 77.2028 583.964 76.8838 584.014C76.5648 584.068 76.2389 584.107 75.9062 584.13C75.5781 584.157 75.2158 584.171 74.8193 584.171C73.8988 584.171 73.0671 584.059 72.3242 583.836C71.5814 583.613 70.9479 583.294 70.4238 582.879C69.9043 582.46 69.5033 581.954 69.2207 581.361C68.9382 580.769 68.7969 580.104 68.7969 579.365C68.7969 578.65 68.9313 577.993 69.2002 577.396C69.4736 576.799 69.8542 576.287 70.3418 575.858C70.8294 575.43 71.4128 575.097 72.0918 574.86C72.7708 574.623 73.5205 574.505 74.3408 574.505C75.193 574.505 75.9518 574.619 76.6172 574.847C77.2826 575.075 77.8431 575.4 78.2988 575.824C78.7546 576.248 79.1009 576.763 79.3379 577.369C79.5749 577.971 79.6934 578.65 79.6934 579.406V579.618H69.6787C69.7288 580.201 69.8747 580.728 70.1162 581.197C70.3577 581.667 70.6995 582.065 71.1416 582.394C71.5882 582.722 72.1351 582.975 72.7822 583.152C73.4339 583.326 74.1927 583.412 75.0586 583.412C75.4277 583.412 75.8014 583.387 76.1797 583.337C76.5579 583.287 76.9202 583.221 77.2666 583.139C77.613 583.052 77.9297 582.956 78.2168 582.852C78.5039 582.742 78.7386 582.631 78.9209 582.517V583.508ZM78.8525 578.873C78.8206 578.395 78.7135 577.939 78.5312 577.506C78.349 577.068 78.0755 576.683 77.7109 576.351C77.3509 576.018 76.8906 575.754 76.3301 575.558C75.7741 575.362 75.1064 575.264 74.3271 575.264C73.5934 575.264 72.9508 575.362 72.3994 575.558C71.848 575.754 71.3809 576.018 70.998 576.351C70.6152 576.679 70.3145 577.062 70.0957 577.499C69.877 577.932 69.738 578.39 69.6787 578.873H78.8525Z" fill="white"/>
<path d="M66.124 584C66.0785 583.49 65.9531 583.029 65.748 582.619C65.543 582.204 65.2786 581.838 64.9551 581.519C64.6361 581.2 64.2692 580.926 63.8545 580.698C63.4398 580.466 63 580.274 62.5352 580.124C62.0703 579.974 61.5895 579.864 61.0928 579.796C60.596 579.723 60.1061 579.687 59.623 579.687H58.167V584H57.3125V574.607H58.167V578.935H59.3906C59.8783 578.935 60.3636 578.891 60.8467 578.805C61.3298 578.714 61.79 578.584 62.2275 578.415C62.6696 578.242 63.0798 578.032 63.458 577.786C63.8408 577.535 64.1781 577.251 64.4697 576.932C64.7614 576.608 65.0007 576.253 65.1875 575.865C65.3743 575.478 65.4906 575.059 65.5361 574.607H66.418C66.3724 575.104 66.2607 575.555 66.083 575.961C65.9098 576.362 65.6956 576.724 65.4404 577.048C65.1852 577.371 64.9004 577.656 64.5859 577.902C64.2715 578.144 63.9525 578.354 63.6289 578.531C63.3053 578.704 62.9886 578.85 62.6787 578.969C62.3688 579.083 62.0885 579.169 61.8379 579.229C62.1523 579.279 62.4919 579.356 62.8564 579.461C63.2256 579.561 63.5924 579.698 63.957 579.871C64.3262 580.04 64.6839 580.249 65.0303 580.5C65.3766 580.746 65.6865 581.038 65.96 581.375C66.238 581.712 66.4704 582.097 66.6572 582.53C66.8441 582.963 66.9603 583.453 67.0059 584H66.124Z" fill="white"/>
<path d="M54.8037 579.311C54.8037 580.154 54.651 580.883 54.3457 581.498C54.0404 582.109 53.6211 582.615 53.0879 583.016C52.5547 583.412 51.9258 583.706 51.2012 583.897C50.4766 584.089 49.695 584.185 48.8564 584.185C48.0133 584.185 47.2272 584.089 46.498 583.897C45.7689 583.706 45.1354 583.412 44.5977 583.016C44.0599 582.615 43.6383 582.109 43.333 581.498C43.0277 580.883 42.875 580.154 42.875 579.311C42.875 578.75 42.9456 578.242 43.0869 577.786C43.2282 577.326 43.4264 576.916 43.6816 576.556C43.9368 576.191 44.2445 575.877 44.6045 575.612C44.9691 575.348 45.3724 575.129 45.8145 574.956C46.2611 574.778 46.7396 574.648 47.25 574.566C47.7604 574.48 48.2959 574.437 48.8564 574.437C49.695 574.437 50.4766 574.532 51.2012 574.724C51.9258 574.915 52.5547 575.211 53.0879 575.612C53.6211 576.009 54.0404 576.515 54.3457 577.13C54.651 577.741 54.8037 578.467 54.8037 579.311ZM53.9219 579.311C53.9219 578.645 53.8125 578.057 53.5938 577.547C53.3796 577.036 53.0605 576.608 52.6367 576.262C52.2129 575.911 51.6842 575.646 51.0508 575.469C50.4219 575.286 49.6904 575.195 48.8564 575.195C48.0225 575.195 47.2865 575.286 46.6484 575.469C46.015 575.651 45.484 575.918 45.0557 576.269C44.6273 576.615 44.3037 577.046 44.085 577.561C43.8662 578.071 43.7568 578.654 43.7568 579.311C43.7568 579.976 43.8662 580.564 44.085 581.074C44.3037 581.585 44.6273 582.015 45.0557 582.366C45.484 582.713 46.015 582.977 46.6484 583.159C47.2865 583.337 48.0225 583.426 48.8564 583.426C49.6904 583.426 50.4219 583.337 51.0508 583.159C51.6842 582.977 52.2129 582.713 52.6367 582.366C53.0605 582.015 53.3796 581.585 53.5938 581.074C53.8125 580.564 53.9219 579.976 53.9219 579.311Z" fill="white"/>
<path d="M37.7002 575.387V584H36.8525V575.387H32.5801V574.607H41.9727V575.387H37.7002Z" fill="white"/>
<path d="M88.0742 556.753C88.0742 557.177 88.1084 557.541 88.1768 557.847C88.2451 558.152 88.3887 558.403 88.6074 558.599C88.8262 558.795 89.1406 558.94 89.5508 559.036C89.9655 559.127 90.5146 559.173 91.1982 559.173H95.4434V560H91.0273C90.2754 560 89.6533 559.941 89.1611 559.822C88.6735 559.699 88.2839 559.512 87.9922 559.262C87.7051 559.007 87.5046 558.685 87.3906 558.298C87.2767 557.91 87.2197 557.45 87.2197 556.917V550.607H88.0742V556.753Z" fill="white"/>
<path d="M83.9453 559.508C83.5625 559.626 83.207 559.729 82.8789 559.815C82.5508 559.897 82.2272 559.964 81.9082 560.014C81.5892 560.068 81.2633 560.107 80.9307 560.13C80.6025 560.157 80.2402 560.171 79.8438 560.171C78.9232 560.171 78.0915 560.059 77.3486 559.836C76.6058 559.613 75.9723 559.294 75.4482 558.879C74.9287 558.46 74.5277 557.954 74.2451 557.361C73.9626 556.769 73.8213 556.104 73.8213 555.365C73.8213 554.65 73.9557 553.993 74.2246 553.396C74.498 552.799 74.8786 552.287 75.3662 551.858C75.8538 551.43 76.4372 551.097 77.1162 550.86C77.7952 550.623 78.5449 550.505 79.3652 550.505C80.2174 550.505 80.9762 550.619 81.6416 550.847C82.307 551.075 82.8675 551.4 83.3232 551.824C83.779 552.248 84.1253 552.763 84.3623 553.369C84.5993 553.971 84.7178 554.65 84.7178 555.406V555.618H74.7031C74.7533 556.201 74.8991 556.728 75.1406 557.197C75.3822 557.667 75.724 558.065 76.166 558.394C76.6126 558.722 77.1595 558.975 77.8066 559.152C78.4583 559.326 79.2171 559.412 80.083 559.412C80.4521 559.412 80.8258 559.387 81.2041 559.337C81.5824 559.287 81.9447 559.221 82.291 559.139C82.6374 559.052 82.9541 558.956 83.2412 558.852C83.5283 558.742 83.763 558.631 83.9453 558.517V559.508ZM83.877 554.873C83.8451 554.395 83.738 553.939 83.5557 553.506C83.3734 553.068 83.0999 552.683 82.7354 552.351C82.3753 552.018 81.915 551.754 81.3545 551.558C80.7985 551.362 80.1309 551.264 79.3516 551.264C78.6178 551.264 77.9753 551.362 77.4238 551.558C76.8724 551.754 76.4053 552.018 76.0225 552.351C75.6396 552.679 75.3389 553.062 75.1201 553.499C74.9014 553.932 74.7624 554.39 74.7031 554.873H83.877Z" fill="white"/>
<path d="M71.9893 555.297C71.9893 555.898 71.9255 556.434 71.7979 556.903C71.6748 557.368 71.4993 557.774 71.2715 558.12C71.0436 558.466 70.7656 558.76 70.4375 559.002C70.1139 559.243 69.7516 559.437 69.3506 559.583C68.9541 559.729 68.5212 559.836 68.0518 559.904C67.5869 559.968 67.097 560 66.582 560H61.7354V550.607H66.5684C67.3385 550.607 68.054 550.683 68.7148 550.833C69.3757 550.983 69.9476 551.241 70.4307 551.605C70.9183 551.965 71.2988 552.446 71.5723 553.048C71.8503 553.649 71.9893 554.399 71.9893 555.297ZM71.1074 555.297C71.1074 554.786 71.0573 554.335 70.957 553.943C70.8568 553.551 70.7132 553.212 70.5264 552.925C70.3395 552.633 70.1117 552.389 69.8428 552.193C69.5739 551.997 69.2708 551.84 68.9336 551.722C68.5964 551.599 68.2295 551.512 67.833 551.462C67.4365 551.412 67.015 551.387 66.5684 551.387H62.5898V559.214H66.5684C67.2383 559.214 67.8512 559.155 68.4072 559.036C68.9632 558.913 69.4395 558.703 69.8359 558.407C70.237 558.106 70.5492 557.705 70.7725 557.204C70.9958 556.698 71.1074 556.062 71.1074 555.297Z" fill="white"/>
<path d="M59.2266 555.311C59.2266 556.154 59.0739 556.883 58.7686 557.498C58.4632 558.109 58.0439 558.615 57.5107 559.016C56.9775 559.412 56.3486 559.706 55.624 559.897C54.8994 560.089 54.1178 560.185 53.2793 560.185C52.4362 560.185 51.6501 560.089 50.9209 559.897C50.1917 559.706 49.5583 559.412 49.0205 559.016C48.4827 558.615 48.0612 558.109 47.7559 557.498C47.4505 556.883 47.2979 556.154 47.2979 555.311C47.2979 554.75 47.3685 554.242 47.5098 553.786C47.651 553.326 47.8493 552.916 48.1045 552.556C48.3597 552.191 48.6673 551.877 49.0273 551.612C49.3919 551.348 49.7952 551.129 50.2373 550.956C50.6839 550.778 51.1624 550.648 51.6729 550.566C52.1833 550.48 52.7188 550.437 53.2793 550.437C54.1178 550.437 54.8994 550.532 55.624 550.724C56.3486 550.915 56.9775 551.211 57.5107 551.612C58.0439 552.009 58.4632 552.515 58.7686 553.13C59.0739 553.741 59.2266 554.467 59.2266 555.311ZM58.3447 555.311C58.3447 554.645 58.2354 554.057 58.0166 553.547C57.8024 553.036 57.4834 552.608 57.0596 552.262C56.6357 551.911 56.1071 551.646 55.4736 551.469C54.8447 551.286 54.1133 551.195 53.2793 551.195C52.4453 551.195 51.7093 551.286 51.0713 551.469C50.4378 551.651 49.9069 551.918 49.4785 552.269C49.0501 552.615 48.7266 553.046 48.5078 553.561C48.2891 554.071 48.1797 554.654 48.1797 555.311C48.1797 555.976 48.2891 556.564 48.5078 557.074C48.7266 557.585 49.0501 558.015 49.4785 558.366C49.9069 558.713 50.4378 558.977 51.0713 559.159C51.7093 559.337 52.4453 559.426 53.2793 559.426C54.1133 559.426 54.8447 559.337 55.4736 559.159C56.1071 558.977 56.6357 558.713 57.0596 558.366C57.4834 558.015 57.8024 557.585 58.0166 557.074C58.2354 556.564 58.3447 555.976 58.3447 555.311Z" fill="white"/>
<path d="M43.9414 560V552.009L38.7803 560H38.0215L32.8535 551.975V560H31.999V550.607H32.915L38.4248 559.118L43.873 550.607H44.7822V560H43.9414Z" fill="white"/>
<path d="M242.427 330V325.571C242.427 325.2 242.376 324.896 242.275 324.658C242.178 324.417 242.036 324.227 241.851 324.087C241.668 323.947 241.445 323.849 241.182 323.794C240.918 323.739 240.622 323.711 240.293 323.711C239.912 323.711 239.538 323.758 239.17 323.853C238.805 323.944 238.46 324.061 238.135 324.204C237.809 324.344 237.51 324.5 237.236 324.673C236.963 324.845 236.732 325.011 236.543 325.171V330H235.933V323.291H236.543V324.468C236.771 324.325 237.021 324.175 237.295 324.019C237.572 323.859 237.868 323.714 238.184 323.584C238.503 323.451 238.843 323.341 239.204 323.257C239.565 323.172 239.946 323.13 240.347 323.13C240.799 323.13 241.193 323.185 241.528 323.296C241.867 323.403 242.147 323.558 242.368 323.76C242.593 323.958 242.76 324.201 242.871 324.487C242.982 324.771 243.037 325.088 243.037 325.439V330H242.427Z" fill="white"/>
<path d="M233.594 329.648C233.32 329.733 233.066 329.806 232.832 329.868C232.598 329.927 232.367 329.974 232.139 330.01C231.911 330.049 231.678 330.076 231.44 330.093C231.206 330.112 230.947 330.122 230.664 330.122C230.007 330.122 229.412 330.042 228.882 329.883C228.351 329.723 227.899 329.495 227.524 329.199C227.153 328.9 226.867 328.538 226.665 328.115C226.463 327.692 226.362 327.217 226.362 326.689C226.362 326.178 226.458 325.71 226.65 325.283C226.846 324.857 227.118 324.491 227.466 324.185C227.814 323.879 228.231 323.641 228.716 323.472C229.201 323.302 229.736 323.218 230.322 323.218C230.931 323.218 231.473 323.299 231.948 323.462C232.424 323.625 232.824 323.857 233.149 324.16C233.475 324.463 233.722 324.831 233.892 325.264C234.061 325.693 234.146 326.178 234.146 326.719V326.87H226.992C227.028 327.287 227.132 327.663 227.305 327.998C227.477 328.333 227.721 328.618 228.037 328.853C228.356 329.087 228.747 329.268 229.209 329.395C229.674 329.518 230.216 329.58 230.835 329.58C231.099 329.58 231.366 329.562 231.636 329.526C231.906 329.491 232.165 329.443 232.412 329.385C232.66 329.323 232.886 329.255 233.091 329.18C233.296 329.102 233.464 329.022 233.594 328.94V329.648ZM233.545 326.338C233.522 325.996 233.446 325.671 233.315 325.361C233.185 325.049 232.99 324.774 232.729 324.536C232.472 324.299 232.144 324.11 231.743 323.97C231.346 323.83 230.869 323.76 230.312 323.76C229.788 323.76 229.329 323.83 228.936 323.97C228.542 324.11 228.208 324.299 227.935 324.536C227.661 324.771 227.446 325.044 227.29 325.356C227.134 325.666 227.035 325.993 226.992 326.338H233.545Z" fill="white"/>
<path d="M224.453 330C224.421 329.635 224.331 329.307 224.185 329.014C224.038 328.717 223.849 328.455 223.618 328.228C223.39 328 223.128 327.804 222.832 327.642C222.536 327.476 222.222 327.339 221.89 327.231C221.558 327.124 221.214 327.046 220.859 326.997C220.505 326.945 220.155 326.919 219.81 326.919H218.77V330H218.159V323.291H218.77V326.382H219.644C219.992 326.382 220.339 326.351 220.684 326.289C221.029 326.224 221.357 326.131 221.67 326.011C221.986 325.887 222.279 325.737 222.549 325.562C222.822 325.382 223.063 325.179 223.271 324.951C223.48 324.72 223.651 324.466 223.784 324.189C223.918 323.913 224.001 323.613 224.033 323.291H224.663C224.631 323.646 224.551 323.968 224.424 324.258C224.3 324.544 224.147 324.803 223.965 325.034C223.783 325.265 223.579 325.469 223.354 325.645C223.13 325.817 222.902 325.967 222.671 326.094C222.44 326.217 222.214 326.322 221.992 326.406C221.771 326.488 221.571 326.549 221.392 326.592C221.616 326.628 221.859 326.683 222.119 326.758C222.383 326.829 222.645 326.927 222.905 327.051C223.169 327.171 223.424 327.321 223.672 327.5C223.919 327.676 224.141 327.884 224.336 328.125C224.535 328.366 224.701 328.641 224.834 328.95C224.967 329.259 225.05 329.609 225.083 330H224.453Z" fill="white"/>
<path d="M216.367 326.65C216.367 327.253 216.258 327.773 216.04 328.213C215.822 328.649 215.522 329.01 215.142 329.297C214.761 329.58 214.312 329.79 213.794 329.927C213.276 330.063 212.718 330.132 212.119 330.132C211.517 330.132 210.955 330.063 210.435 329.927C209.914 329.79 209.461 329.58 209.077 329.297C208.693 329.01 208.392 328.649 208.174 328.213C207.956 327.773 207.847 327.253 207.847 326.65C207.847 326.25 207.897 325.887 207.998 325.562C208.099 325.233 208.241 324.94 208.423 324.683C208.605 324.422 208.825 324.198 209.082 324.009C209.342 323.82 209.631 323.664 209.946 323.54C210.265 323.413 210.607 323.32 210.972 323.262C211.336 323.2 211.719 323.169 212.119 323.169C212.718 323.169 213.276 323.237 213.794 323.374C214.312 323.511 214.761 323.722 215.142 324.009C215.522 324.292 215.822 324.653 216.04 325.093C216.258 325.529 216.367 326.048 216.367 326.65ZM215.737 326.65C215.737 326.175 215.659 325.755 215.503 325.391C215.35 325.026 215.122 324.72 214.819 324.473C214.517 324.222 214.139 324.033 213.687 323.906C213.237 323.776 212.715 323.711 212.119 323.711C211.523 323.711 210.998 323.776 210.542 323.906C210.09 324.036 209.71 324.227 209.404 324.478C209.098 324.725 208.867 325.033 208.711 325.4C208.555 325.765 208.477 326.182 208.477 326.65C208.477 327.126 208.555 327.546 208.711 327.91C208.867 328.275 209.098 328.582 209.404 328.833C209.71 329.08 210.09 329.269 210.542 329.399C210.998 329.526 211.523 329.59 212.119 329.59C212.715 329.59 213.237 329.526 213.687 329.399C214.139 329.269 214.517 329.08 214.819 328.833C215.122 328.582 215.35 328.275 215.503 327.91C215.659 327.546 215.737 327.126 215.737 326.65Z" fill="white"/>
<path d="M204.15 323.848V330H203.545V323.848H200.493V323.291H207.202V323.848H204.15Z" fill="white"/>
<path d="M191.182 327.681C191.182 327.983 191.206 328.244 191.255 328.462C191.304 328.68 191.406 328.859 191.562 328.999C191.719 329.139 191.943 329.243 192.236 329.312C192.533 329.377 192.925 329.409 193.413 329.409H196.445V330H193.291C192.754 330 192.31 329.958 191.958 329.873C191.61 329.785 191.331 329.652 191.123 329.473C190.918 329.29 190.775 329.061 190.693 328.784C190.612 328.507 190.571 328.179 190.571 327.798V323.291H191.182V327.681Z" fill="white"/>
<path d="M188.232 329.648C187.959 329.733 187.705 329.806 187.471 329.868C187.236 329.927 187.005 329.974 186.777 330.01C186.549 330.049 186.317 330.076 186.079 330.093C185.845 330.112 185.586 330.122 185.303 330.122C184.645 330.122 184.051 330.042 183.521 329.883C182.99 329.723 182.537 329.495 182.163 329.199C181.792 328.9 181.506 328.538 181.304 328.115C181.102 327.692 181.001 327.217 181.001 326.689C181.001 326.178 181.097 325.71 181.289 325.283C181.484 324.857 181.756 324.491 182.104 324.185C182.453 323.879 182.869 323.641 183.354 323.472C183.84 323.302 184.375 323.218 184.961 323.218C185.57 323.218 186.112 323.299 186.587 323.462C187.062 323.625 187.463 323.857 187.788 324.16C188.114 324.463 188.361 324.831 188.53 325.264C188.7 325.693 188.784 326.178 188.784 326.719V326.87H181.631C181.667 327.287 181.771 327.663 181.943 327.998C182.116 328.333 182.36 328.618 182.676 328.853C182.995 329.087 183.385 329.268 183.848 329.395C184.313 329.518 184.855 329.58 185.474 329.58C185.737 329.58 186.004 329.562 186.274 329.526C186.545 329.491 186.803 329.443 187.051 329.385C187.298 329.323 187.524 329.255 187.729 329.18C187.935 329.102 188.102 329.022 188.232 328.94V329.648ZM188.184 326.338C188.161 325.996 188.084 325.671 187.954 325.361C187.824 325.049 187.629 324.774 187.368 324.536C187.111 324.299 186.782 324.11 186.382 323.97C185.985 323.83 185.508 323.76 184.951 323.76C184.427 323.76 183.968 323.83 183.574 323.97C183.18 324.11 182.847 324.299 182.573 324.536C182.3 324.771 182.085 325.044 181.929 325.356C181.772 325.666 181.673 325.993 181.631 326.338H188.184Z" fill="white"/>
<path d="M179.692 326.641C179.692 327.07 179.647 327.453 179.556 327.788C179.468 328.12 179.342 328.41 179.18 328.657C179.017 328.905 178.818 329.115 178.584 329.287C178.353 329.46 178.094 329.598 177.808 329.702C177.524 329.806 177.215 329.883 176.88 329.932C176.548 329.977 176.198 330 175.83 330H172.368V323.291H175.82C176.37 323.291 176.882 323.345 177.354 323.452C177.826 323.56 178.234 323.743 178.579 324.004C178.927 324.261 179.199 324.604 179.395 325.034C179.593 325.464 179.692 325.999 179.692 326.641ZM179.062 326.641C179.062 326.276 179.027 325.954 178.955 325.674C178.883 325.394 178.781 325.151 178.647 324.946C178.514 324.738 178.351 324.564 178.159 324.424C177.967 324.284 177.751 324.172 177.51 324.087C177.269 323.999 177.007 323.937 176.724 323.901C176.44 323.866 176.139 323.848 175.82 323.848H172.979V329.438H175.82C176.299 329.438 176.737 329.396 177.134 329.312C177.531 329.224 177.871 329.074 178.154 328.862C178.441 328.647 178.664 328.361 178.823 328.003C178.983 327.642 179.062 327.188 179.062 326.641Z" fill="white"/>
<path d="M170.576 326.65C170.576 327.253 170.467 327.773 170.249 328.213C170.031 328.649 169.731 329.01 169.351 329.297C168.97 329.58 168.521 329.79 168.003 329.927C167.485 330.063 166.927 330.132 166.328 330.132C165.726 330.132 165.164 330.063 164.644 329.927C164.123 329.79 163.67 329.58 163.286 329.297C162.902 329.01 162.601 328.649 162.383 328.213C162.165 327.773 162.056 327.253 162.056 326.65C162.056 326.25 162.106 325.887 162.207 325.562C162.308 325.233 162.45 324.94 162.632 324.683C162.814 324.422 163.034 324.198 163.291 324.009C163.551 323.82 163.84 323.664 164.155 323.54C164.474 323.413 164.816 323.32 165.181 323.262C165.545 323.2 165.928 323.169 166.328 323.169C166.927 323.169 167.485 323.237 168.003 323.374C168.521 323.511 168.97 323.722 169.351 324.009C169.731 324.292 170.031 324.653 170.249 325.093C170.467 325.529 170.576 326.048 170.576 326.65ZM169.946 326.65C169.946 326.175 169.868 325.755 169.712 325.391C169.559 325.026 169.331 324.72 169.028 324.473C168.726 324.222 168.348 324.033 167.896 323.906C167.446 323.776 166.924 323.711 166.328 323.711C165.732 323.711 165.207 323.776 164.751 323.906C164.299 324.036 163.919 324.227 163.613 324.478C163.307 324.725 163.076 325.033 162.92 325.4C162.764 325.765 162.686 326.182 162.686 326.65C162.686 327.126 162.764 327.546 162.92 327.91C163.076 328.275 163.307 328.582 163.613 328.833C163.919 329.08 164.299 329.269 164.751 329.399C165.207 329.526 165.732 329.59 166.328 329.59C166.924 329.59 167.446 329.526 167.896 329.399C168.348 329.269 168.726 329.08 169.028 328.833C169.331 328.582 169.559 328.275 169.712 327.91C169.868 327.546 169.946 327.126 169.946 326.65Z" fill="white"/>
<path d="M159.658 330V324.292L155.972 330H155.43L151.738 324.268V330H151.128V323.291H151.782L155.718 329.37L159.609 323.291H160.259V330H159.658Z" fill="white"/>
<path d="M177.451 308.848V315H176.846V308.848H173.794V308.291H180.503V308.848H177.451Z" fill="white"/>
<path d="M171.89 315V310.571C171.89 310.2 171.839 309.896 171.738 309.658C171.641 309.417 171.499 309.227 171.313 309.087C171.131 308.947 170.908 308.849 170.645 308.794C170.381 308.739 170.085 308.711 169.756 308.711C169.375 308.711 169.001 308.758 168.633 308.853C168.268 308.944 167.923 309.061 167.598 309.204C167.272 309.344 166.973 309.5 166.699 309.673C166.426 309.845 166.195 310.011 166.006 310.171V315H165.396V308.291H166.006V309.468C166.234 309.325 166.484 309.175 166.758 309.019C167.035 308.859 167.331 308.714 167.646 308.584C167.965 308.451 168.306 308.341 168.667 308.257C169.028 308.172 169.409 308.13 169.81 308.13C170.262 308.13 170.656 308.185 170.991 308.296C171.33 308.403 171.61 308.558 171.831 308.76C172.056 308.958 172.223 309.201 172.334 309.487C172.445 309.771 172.5 310.088 172.5 310.439V315H171.89Z" fill="white"/>
<path d="M162.524 315V308.291H163.135V315H162.524Z" fill="white"/>
<path d="M159.658 315V309.292L155.972 315H155.43L151.738 309.268V315H151.128V308.291H151.782L155.718 314.37L159.609 308.291H160.259V315H159.658Z" fill="white"/>
<path d="M212.689 162V158.098H205.477V162H204.744V153.949H205.477V157.418H212.689V153.949H213.422V162H212.689Z" fill="white"/>
<path d="M199.5 154.617V162H198.773V154.617H195.111V153.949H203.162V154.617H199.5Z" fill="white"/>
<path d="M187.178 162V153.949H193.887V154.635H187.975V157.406H193.588V158.086H187.975V161.314H193.975V162H187.178Z" fill="white"/>
<path d="M179.953 159.059C179.953 159.586 179.83 160.043 179.584 160.43C179.338 160.812 178.998 161.131 178.564 161.385C178.135 161.639 177.625 161.828 177.035 161.953C176.449 162.074 175.814 162.135 175.131 162.135C174.389 162.135 173.707 162.088 173.086 161.994C172.465 161.896 171.922 161.762 171.457 161.59V160.74C171.707 160.846 171.965 160.943 172.23 161.033C172.496 161.123 172.779 161.203 173.08 161.273C173.381 161.34 173.701 161.393 174.041 161.432C174.385 161.467 174.756 161.484 175.154 161.484C175.717 161.484 176.244 161.432 176.736 161.326C177.229 161.217 177.656 161.061 178.02 160.857C178.387 160.65 178.676 160.396 178.887 160.096C179.102 159.795 179.209 159.449 179.209 159.059V157.535C179.021 157.789 178.791 158.033 178.518 158.268C178.248 158.498 177.945 158.703 177.609 158.883C177.277 159.059 176.916 159.201 176.525 159.311C176.135 159.416 175.723 159.469 175.289 159.469C174.797 159.469 174.359 159.424 173.977 159.334C173.598 159.24 173.266 159.113 172.98 158.953C172.699 158.793 172.461 158.604 172.266 158.385C172.07 158.162 171.912 157.922 171.791 157.664C171.674 157.402 171.588 157.129 171.533 156.844C171.482 156.559 171.457 156.27 171.457 155.977V153.949H172.201V155.818C172.201 156.268 172.254 156.676 172.359 157.043C172.469 157.41 172.646 157.725 172.893 157.986C173.139 158.248 173.461 158.451 173.859 158.596C174.262 158.736 174.758 158.807 175.348 158.807C175.805 158.807 176.225 158.746 176.607 158.625C176.99 158.5 177.34 158.334 177.656 158.127C177.973 157.916 178.26 157.674 178.518 157.4C178.775 157.127 179.006 156.84 179.209 156.539V153.949H179.953V159.059Z" fill="white"/>
<path d="M168.357 162V161.109C168.076 161.262 167.756 161.402 167.396 161.531C167.041 161.66 166.664 161.771 166.266 161.865C165.871 161.959 165.465 162.031 165.047 162.082C164.629 162.133 164.219 162.158 163.816 162.158C163.293 162.158 162.822 162.111 162.404 162.018C161.99 161.924 161.639 161.785 161.35 161.602C161.061 161.414 160.838 161.184 160.682 160.91C160.525 160.633 160.447 160.312 160.447 159.949C160.447 159.59 160.537 159.273 160.717 159C160.9 158.723 161.16 158.482 161.496 158.279C161.832 158.072 162.236 157.898 162.709 157.758C163.186 157.613 163.717 157.492 164.303 157.395C164.889 157.293 165.521 157.211 166.201 157.148C166.885 157.082 167.604 157.027 168.357 156.984V156.369C168.357 156.119 168.311 155.898 168.217 155.707C168.123 155.516 167.992 155.35 167.824 155.209C167.656 155.064 167.459 154.945 167.232 154.852C167.006 154.754 166.76 154.676 166.494 154.617C166.232 154.559 165.955 154.518 165.662 154.494C165.373 154.467 165.082 154.453 164.789 154.453C164.395 154.453 164.035 154.473 163.711 154.512C163.387 154.551 163.084 154.605 162.803 154.676C162.521 154.742 162.252 154.82 161.994 154.91C161.736 155 161.477 155.096 161.215 155.197V154.342C161.758 154.197 162.336 154.072 162.949 153.967C163.566 153.857 164.221 153.803 164.912 153.803C165.498 153.803 166.045 153.854 166.553 153.955C167.061 154.053 167.502 154.211 167.877 154.43C168.252 154.648 168.547 154.932 168.762 155.279C168.977 155.623 169.084 156.043 169.084 156.539V162H168.357ZM168.357 157.635C167.08 157.705 165.988 157.805 165.082 157.934C164.18 158.062 163.441 158.221 162.867 158.408C162.293 158.596 161.871 158.814 161.602 159.064C161.336 159.314 161.203 159.598 161.203 159.914C161.203 160.172 161.268 160.4 161.396 160.6C161.529 160.799 161.719 160.967 161.965 161.104C162.211 161.236 162.51 161.338 162.861 161.408C163.213 161.475 163.607 161.508 164.045 161.508C164.303 161.508 164.568 161.494 164.842 161.467C165.119 161.436 165.395 161.395 165.668 161.344C165.941 161.289 166.211 161.227 166.477 161.156C166.742 161.082 166.992 161.002 167.227 160.916C167.461 160.83 167.674 160.738 167.865 160.641C168.061 160.543 168.225 160.443 168.357 160.342V157.635Z" fill="white"/>
<path d="M159.205 156.422C159.205 156.824 159.139 157.18 159.006 157.488C158.877 157.797 158.672 158.057 158.391 158.268C158.109 158.479 157.746 158.639 157.301 158.748C156.859 158.854 156.326 158.906 155.701 158.906H152.086V162H151.354V153.949H155.701C156.326 153.949 156.859 154.004 157.301 154.113C157.746 154.219 158.109 154.375 158.391 154.582C158.672 154.789 158.877 155.047 159.006 155.355C159.139 155.664 159.205 156.02 159.205 156.422ZM158.449 156.422C158.449 156.039 158.385 155.73 158.256 155.496C158.131 155.262 157.936 155.082 157.67 154.957C157.408 154.828 157.074 154.742 156.668 154.699C156.266 154.656 155.787 154.635 155.232 154.635H152.086V158.221H155.232C155.447 158.221 155.676 158.223 155.918 158.227C156.164 158.227 156.406 158.215 156.645 158.191C156.883 158.164 157.109 158.119 157.324 158.057C157.543 157.99 157.734 157.891 157.898 157.758C158.066 157.625 158.199 157.451 158.297 157.236C158.398 157.021 158.449 156.75 158.449 156.422Z" fill="white"/>
<path d="M101.293 492.578C100.965 492.68 100.66 492.768 100.379 492.842C100.098 492.912 99.8203 492.969 99.5469 493.012C99.2734 493.059 98.9941 493.092 98.709 493.111C98.4277 493.135 98.1172 493.146 97.7773 493.146C96.9883 493.146 96.2754 493.051 95.6387 492.859C95.002 492.668 94.459 492.395 94.0098 492.039C93.5645 491.68 93.2207 491.246 92.9785 490.738C92.7363 490.23 92.6152 489.66 92.6152 489.027C92.6152 488.414 92.7305 487.852 92.9609 487.34C93.1953 486.828 93.5215 486.389 93.9395 486.021C94.3574 485.654 94.8574 485.369 95.4395 485.166C96.0215 484.963 96.6641 484.861 97.3672 484.861C98.0977 484.861 98.748 484.959 99.3184 485.154C99.8887 485.35 100.369 485.629 100.76 485.992C101.15 486.355 101.447 486.797 101.65 487.316C101.854 487.832 101.955 488.414 101.955 489.062V489.244H93.3711C93.4141 489.744 93.5391 490.195 93.7461 490.598C93.9531 491 94.2461 491.342 94.625 491.623C95.0078 491.904 95.4766 492.121 96.0312 492.273C96.5898 492.422 97.2402 492.496 97.9824 492.496C98.2988 492.496 98.6191 492.475 98.9434 492.432C99.2676 492.389 99.5781 492.332 99.875 492.262C100.172 492.188 100.443 492.105 100.689 492.016C100.936 491.922 101.137 491.826 101.293 491.729V492.578ZM101.234 488.605C101.207 488.195 101.115 487.805 100.959 487.434C100.803 487.059 100.568 486.729 100.256 486.443C99.9473 486.158 99.5527 485.932 99.0723 485.764C98.5957 485.596 98.0234 485.512 97.3555 485.512C96.7266 485.512 96.1758 485.596 95.7031 485.764C95.2305 485.932 94.8301 486.158 94.502 486.443C94.1738 486.725 93.916 487.053 93.7285 487.428C93.541 487.799 93.4219 488.191 93.3711 488.605H101.234Z" fill="white"/>
<path d="M91.8184 485.57C91.7051 485.535 91.5469 485.498 91.3438 485.459C91.1445 485.416 90.8867 485.395 90.5703 485.395C90.1328 485.395 89.7207 485.449 89.334 485.559C88.9512 485.664 88.5938 485.809 88.2617 485.992C87.9336 486.176 87.6289 486.391 87.3477 486.637C87.0664 486.879 86.8125 487.137 86.5859 487.41V493H85.8535V484.949H86.5859V486.59C86.8477 486.32 87.1309 486.072 87.4355 485.846C87.7441 485.619 88.0684 485.426 88.4082 485.266C88.748 485.102 89.1035 484.975 89.4746 484.885C89.8496 484.791 90.2363 484.744 90.6348 484.744C90.7715 484.744 90.8945 484.748 91.0039 484.756C91.1133 484.76 91.2129 484.768 91.3027 484.779C91.3965 484.787 91.4844 484.797 91.5664 484.809C91.6484 484.82 91.7324 484.834 91.8184 484.85V485.57Z" fill="white"/>
<path d="M82.4785 493V492.109C82.1973 492.262 81.877 492.402 81.5176 492.531C81.1621 492.66 80.7852 492.771 80.3867 492.865C79.9922 492.959 79.5859 493.031 79.168 493.082C78.75 493.133 78.3398 493.158 77.9375 493.158C77.4141 493.158 76.9434 493.111 76.5254 493.018C76.1113 492.924 75.7598 492.785 75.4707 492.602C75.1816 492.414 74.959 492.184 74.8027 491.91C74.6465 491.633 74.5684 491.312 74.5684 490.949C74.5684 490.59 74.6582 490.273 74.8379 490C75.0215 489.723 75.2812 489.482 75.6172 489.279C75.9531 489.072 76.3574 488.898 76.8301 488.758C77.3066 488.613 77.8379 488.492 78.4238 488.395C79.0098 488.293 79.6426 488.211 80.3223 488.148C81.0059 488.082 81.7246 488.027 82.4785 487.984V487.369C82.4785 487.119 82.4316 486.898 82.3379 486.707C82.2441 486.516 82.1133 486.35 81.9453 486.209C81.7773 486.064 81.5801 485.945 81.3535 485.852C81.127 485.754 80.8809 485.676 80.6152 485.617C80.3535 485.559 80.0762 485.518 79.7832 485.494C79.4941 485.467 79.2031 485.453 78.9102 485.453C78.5156 485.453 78.1562 485.473 77.832 485.512C77.5078 485.551 77.2051 485.605 76.9238 485.676C76.6426 485.742 76.373 485.82 76.1152 485.91C75.8574 486 75.5977 486.096 75.3359 486.197V485.342C75.8789 485.197 76.457 485.072 77.0703 484.967C77.6875 484.857 78.3418 484.803 79.0332 484.803C79.6191 484.803 80.166 484.854 80.6738 484.955C81.1816 485.053 81.623 485.211 81.998 485.43C82.373 485.648 82.668 485.932 82.8828 486.279C83.0977 486.623 83.2051 487.043 83.2051 487.539V493H82.4785ZM82.4785 488.635C81.2012 488.705 80.1094 488.805 79.2031 488.934C78.3008 489.062 77.5625 489.221 76.9883 489.408C76.4141 489.596 75.9922 489.814 75.7227 490.064C75.457 490.314 75.3242 490.598 75.3242 490.914C75.3242 491.172 75.3887 491.4 75.5176 491.6C75.6504 491.799 75.8398 491.967 76.0859 492.104C76.332 492.236 76.6309 492.338 76.9824 492.408C77.334 492.475 77.7285 492.508 78.166 492.508C78.4238 492.508 78.6895 492.494 78.9629 492.467C79.2402 492.436 79.5156 492.395 79.7891 492.344C80.0625 492.289 80.332 492.227 80.5977 492.156C80.8633 492.082 81.1133 492.002 81.3477 491.916C81.582 491.83 81.7949 491.738 81.9863 491.641C82.1816 491.543 82.3457 491.443 82.4785 491.342V488.635Z" fill="white"/>
<path d="M71.7441 493V489.098H64.5312V493H63.7988V484.949H64.5312V488.418H71.7441V484.949H72.4766V493H71.7441Z" fill="white"/>
<path d="M60.8574 486.139C60.7051 486.064 60.5293 485.986 60.3301 485.904C60.1309 485.818 59.9023 485.742 59.6445 485.676C59.3906 485.609 59.1035 485.555 58.7832 485.512C58.4629 485.465 58.1074 485.441 57.7168 485.441C57.2441 485.441 56.8223 485.469 56.4512 485.523C56.084 485.578 55.7715 485.664 55.5137 485.781C55.2598 485.895 55.0645 486.039 54.9277 486.215C54.7949 486.391 54.7285 486.6 54.7285 486.842C54.7285 487.045 54.791 487.223 54.916 487.375C55.0449 487.527 55.2168 487.662 55.4316 487.779C55.6504 487.896 55.9043 488.004 56.1934 488.102C56.4863 488.195 56.7949 488.285 57.1191 488.371C57.4473 488.453 57.7832 488.537 58.127 488.623C58.4746 488.709 58.8105 488.803 59.1348 488.904C59.4629 489.002 59.7715 489.113 60.0605 489.238C60.3535 489.359 60.6074 489.502 60.8223 489.666C61.041 489.83 61.2129 490.018 61.3379 490.229C61.4668 490.439 61.5312 490.684 61.5312 490.961C61.5312 491.262 61.4746 491.525 61.3613 491.752C61.248 491.975 61.0938 492.168 60.8984 492.332C60.707 492.492 60.4805 492.627 60.2188 492.736C59.9609 492.842 59.6836 492.926 59.3867 492.988C59.0938 493.051 58.7891 493.094 58.4727 493.117C58.1602 493.145 57.8516 493.158 57.5469 493.158C56.8477 493.158 56.2129 493.107 55.6426 493.006C55.0762 492.904 54.5352 492.766 54.0195 492.59V491.693C54.5508 492.01 55.1113 492.227 55.7012 492.344C56.2949 492.461 56.918 492.52 57.5703 492.52C58.0312 492.52 58.457 492.492 58.8477 492.438C59.2383 492.383 59.5762 492.297 59.8613 492.18C60.1465 492.059 60.3672 491.902 60.5234 491.711C60.6836 491.52 60.7637 491.285 60.7637 491.008C60.7637 490.785 60.6992 490.59 60.5703 490.422C60.4453 490.254 60.2734 490.107 60.0547 489.982C59.8398 489.854 59.5859 489.74 59.293 489.643C59.0039 489.545 58.6973 489.455 58.373 489.373C58.0488 489.287 57.7129 489.205 57.3652 489.127C57.0215 489.045 56.6875 488.957 56.3633 488.863C56.0391 488.77 55.7305 488.664 55.4375 488.547C55.1484 488.43 54.8945 488.293 54.6758 488.137C54.4609 487.977 54.2891 487.793 54.1602 487.586C54.0352 487.379 53.9727 487.139 53.9727 486.865C53.9727 486.596 54.0234 486.357 54.125 486.15C54.2266 485.939 54.3652 485.758 54.541 485.605C54.7207 485.453 54.9297 485.326 55.168 485.225C55.4062 485.119 55.6602 485.037 55.9297 484.979C56.2031 484.916 56.4863 484.871 56.7793 484.844C57.0723 484.816 57.3613 484.803 57.6465 484.803C57.959 484.803 58.2539 484.816 58.5312 484.844C58.8125 484.871 59.082 484.908 59.3398 484.955C59.6016 484.998 59.8555 485.049 60.1016 485.107C60.3516 485.166 60.6035 485.229 60.8574 485.295V486.139Z" fill="white"/>
<path d="M126.395 474.578C126.066 474.68 125.762 474.768 125.48 474.842C125.199 474.912 124.922 474.969 124.648 475.012C124.375 475.059 124.096 475.092 123.811 475.111C123.529 475.135 123.219 475.146 122.879 475.146C122.09 475.146 121.377 475.051 120.74 474.859C120.104 474.668 119.561 474.395 119.111 474.039C118.666 473.68 118.322 473.246 118.08 472.738C117.838 472.23 117.717 471.66 117.717 471.027C117.717 470.414 117.832 469.852 118.062 469.34C118.297 468.828 118.623 468.389 119.041 468.021C119.459 467.654 119.959 467.369 120.541 467.166C121.123 466.963 121.766 466.861 122.469 466.861C123.199 466.861 123.85 466.959 124.42 467.154C124.99 467.35 125.471 467.629 125.861 467.992C126.252 468.355 126.549 468.797 126.752 469.316C126.955 469.832 127.057 470.414 127.057 471.062V471.244H118.473C118.516 471.744 118.641 472.195 118.848 472.598C119.055 473 119.348 473.342 119.727 473.623C120.109 473.904 120.578 474.121 121.133 474.273C121.691 474.422 122.342 474.496 123.084 474.496C123.4 474.496 123.721 474.475 124.045 474.432C124.369 474.389 124.68 474.332 124.977 474.262C125.273 474.188 125.545 474.105 125.791 474.016C126.037 473.922 126.238 473.826 126.395 473.729V474.578ZM126.336 470.605C126.309 470.195 126.217 469.805 126.061 469.434C125.904 469.059 125.67 468.729 125.357 468.443C125.049 468.158 124.654 467.932 124.174 467.764C123.697 467.596 123.125 467.512 122.457 467.512C121.828 467.512 121.277 467.596 120.805 467.764C120.332 467.932 119.932 468.158 119.604 468.443C119.275 468.725 119.018 469.053 118.83 469.428C118.643 469.799 118.523 470.191 118.473 470.605H126.336Z" fill="white"/>
<path d="M107.809 466.949V472.264C107.805 472.713 107.861 473.082 107.979 473.371C108.096 473.66 108.264 473.889 108.482 474.057C108.705 474.221 108.973 474.336 109.285 474.402C109.602 474.465 109.957 474.496 110.352 474.496C110.809 474.496 111.256 474.441 111.693 474.332C112.131 474.219 112.543 474.078 112.93 473.91C113.316 473.738 113.67 473.549 113.99 473.342C114.314 473.135 114.59 472.936 114.816 472.744V466.949H115.561V475H114.816V473.582C114.543 473.758 114.244 473.941 113.92 474.133C113.596 474.32 113.244 474.494 112.865 474.654C112.49 474.811 112.088 474.939 111.658 475.041C111.229 475.143 110.773 475.193 110.293 475.193C109.75 475.193 109.275 475.125 108.869 474.988C108.467 474.852 108.131 474.66 107.861 474.414C107.596 474.168 107.396 473.877 107.264 473.541C107.131 473.201 107.064 472.828 107.064 472.422V466.949H107.809Z" fill="white"/>
<path d="M103.689 475V469.686C103.689 469.24 103.629 468.875 103.508 468.59C103.391 468.301 103.221 468.072 102.998 467.904C102.779 467.736 102.512 467.619 102.195 467.553C101.879 467.486 101.523 467.453 101.129 467.453C100.672 467.453 100.223 467.51 99.7812 467.623C99.3438 467.732 98.9297 467.873 98.5391 468.045C98.1484 468.213 97.7891 468.4 97.4609 468.607C97.1328 468.814 96.8555 469.014 96.6289 469.205V475H95.8965V466.949H96.6289V468.361C96.9023 468.189 97.2031 468.01 97.5312 467.822C97.8633 467.631 98.2188 467.457 98.5977 467.301C98.9805 467.141 99.3887 467.01 99.8223 466.908C100.256 466.807 100.713 466.756 101.193 466.756C101.736 466.756 102.209 466.822 102.611 466.955C103.018 467.084 103.354 467.27 103.619 467.512C103.889 467.75 104.09 468.041 104.223 468.385C104.355 468.725 104.422 469.105 104.422 469.527V475H103.689Z" fill="white"/>
<path d="M93.0898 474.578C92.7617 474.68 92.457 474.768 92.1758 474.842C91.8945 474.912 91.6172 474.969 91.3438 475.012C91.0703 475.059 90.791 475.092 90.5059 475.111C90.2246 475.135 89.9141 475.146 89.5742 475.146C88.7852 475.146 88.0723 475.051 87.4355 474.859C86.7988 474.668 86.2559 474.395 85.8066 474.039C85.3613 473.68 85.0176 473.246 84.7754 472.738C84.5332 472.23 84.4121 471.66 84.4121 471.027C84.4121 470.414 84.5273 469.852 84.7578 469.34C84.9922 468.828 85.3184 468.389 85.7363 468.021C86.1543 467.654 86.6543 467.369 87.2363 467.166C87.8184 466.963 88.4609 466.861 89.1641 466.861C89.8945 466.861 90.5449 466.959 91.1152 467.154C91.6855 467.35 92.166 467.629 92.5566 467.992C92.9473 468.355 93.2441 468.797 93.4473 469.316C93.6504 469.832 93.752 470.414 93.752 471.062V471.244H85.168C85.2109 471.744 85.3359 472.195 85.543 472.598C85.75 473 86.043 473.342 86.4219 473.623C86.8047 473.904 87.2734 474.121 87.8281 474.273C88.3867 474.422 89.0371 474.496 89.7793 474.496C90.0957 474.496 90.416 474.475 90.7402 474.432C91.0645 474.389 91.375 474.332 91.6719 474.262C91.9688 474.188 92.2402 474.105 92.4863 474.016C92.7324 473.922 92.9336 473.826 93.0898 473.729V474.578ZM93.0312 470.605C93.0039 470.195 92.9121 469.805 92.7559 469.434C92.5996 469.059 92.3652 468.729 92.0527 468.443C91.7441 468.158 91.3496 467.932 90.8691 467.764C90.3926 467.596 89.8203 467.512 89.1523 467.512C88.5234 467.512 87.9727 467.596 87.5 467.764C87.0273 467.932 86.627 468.158 86.2988 468.443C85.9707 468.725 85.7129 469.053 85.5254 469.428C85.3379 469.799 85.2188 470.191 85.168 470.605H93.0312Z" fill="white"/>
<path d="M79.2383 475H78.1426L74.123 466.949H74.9434L78.7109 474.496L82.4785 466.949H83.293L79.2383 475Z" fill="white"/>
<path d="M72.4648 474.578C72.1367 474.68 71.832 474.768 71.5508 474.842C71.2695 474.912 70.9922 474.969 70.7188 475.012C70.4453 475.059 70.166 475.092 69.8809 475.111C69.5996 475.135 69.2891 475.146 68.9492 475.146C68.1602 475.146 67.4473 475.051 66.8105 474.859C66.1738 474.668 65.6309 474.395 65.1816 474.039C64.7363 473.68 64.3926 473.246 64.1504 472.738C63.9082 472.23 63.7871 471.66 63.7871 471.027C63.7871 470.414 63.9023 469.852 64.1328 469.34C64.3672 468.828 64.6934 468.389 65.1113 468.021C65.5293 467.654 66.0293 467.369 66.6113 467.166C67.1934 466.963 67.8359 466.861 68.5391 466.861C69.2695 466.861 69.9199 466.959 70.4902 467.154C71.0605 467.35 71.541 467.629 71.9316 467.992C72.3223 468.355 72.6191 468.797 72.8223 469.316C73.0254 469.832 73.127 470.414 73.127 471.062V471.244H64.543C64.5859 471.744 64.7109 472.195 64.918 472.598C65.125 473 65.418 473.342 65.7969 473.623C66.1797 473.904 66.6484 474.121 67.2031 474.273C67.7617 474.422 68.4121 474.496 69.1543 474.496C69.4707 474.496 69.791 474.475 70.1152 474.432C70.4395 474.389 70.75 474.332 71.0469 474.262C71.3438 474.188 71.6152 474.105 71.8613 474.016C72.1074 473.922 72.3086 473.826 72.4648 473.729V474.578ZM72.4062 470.605C72.3789 470.195 72.2871 469.805 72.1309 469.434C71.9746 469.059 71.7402 468.729 71.4277 468.443C71.1191 468.158 70.7246 467.932 70.2441 467.764C69.7676 467.596 69.1953 467.512 68.5273 467.512C67.8984 467.512 67.3477 467.596 66.875 467.764C66.4023 467.932 66.002 468.158 65.6738 468.443C65.3457 468.725 65.0879 469.053 64.9004 469.428C64.7129 469.799 64.5938 470.191 64.543 470.605H72.4062Z" fill="white"/>
<path d="M55.0859 471.555V475H54.3535V466.949H58.3613C58.9746 466.949 59.5 466.998 59.9375 467.096C60.375 467.189 60.7324 467.334 61.0098 467.529C61.291 467.721 61.4961 467.961 61.625 468.25C61.7539 468.539 61.8184 468.877 61.8184 469.264C61.8184 469.865 61.6602 470.348 61.3438 470.711C61.0273 471.07 60.5176 471.316 59.8145 471.449L62.5625 475H61.6426L59.0469 471.531C58.9375 471.539 58.8262 471.545 58.7129 471.549C58.5996 471.553 58.4824 471.555 58.3613 471.555H55.0859ZM61.0625 469.264C61.0625 468.92 61.002 468.643 60.8809 468.432C60.7598 468.217 60.5625 468.051 60.2891 467.934C60.0156 467.816 59.6562 467.738 59.2109 467.699C58.7695 467.656 58.2266 467.635 57.582 467.635H55.0859V470.869H57.5586C58.2031 470.869 58.748 470.852 59.1934 470.816C59.6387 470.777 60 470.701 60.2773 470.588C60.5547 470.471 60.7539 470.309 60.875 470.102C61 469.891 61.0625 469.611 61.0625 469.264Z" fill="white"/>
<path d="M1 375C1 366.716 7.71573 360 16 360H250C258.284 360 265 366.716 265 375V435C265 443.284 258.284 450 250 450H16C7.71573 450 1 443.284 1 435V375Z" fill="black"/>
<path fill-rule="evenodd" clip-rule="evenodd" d="M250 361H16C8.26801 361 2 367.268 2 375V435C2 442.732 8.26801 449 16 449H250C257.732 449 264 442.732 264 435V375C264 367.268 257.732 361 250 361ZM16 360C7.71573 360 1 366.716 1 375V435C1 443.284 7.71573 450 16 450H250C258.284 450 265 443.284 265 435V375C265 366.716 258.284 360 250 360H16Z" fill="white"/>
<path d="M217.336 412.156V422H216.367V412.156H211.484V411.266H222.219V412.156H217.336Z" fill="white"/>
<path d="M210.086 421.148C209.711 421.305 209.339 421.448 208.969 421.578C208.604 421.708 208.224 421.82 207.828 421.914C207.432 422.008 207.016 422.081 206.578 422.133C206.141 422.185 205.664 422.211 205.148 422.211C204.513 422.211 203.901 422.159 203.312 422.055C202.729 421.951 202.185 421.794 201.68 421.586C201.174 421.378 200.716 421.12 200.305 420.812C199.893 420.5 199.539 420.138 199.242 419.727C198.951 419.315 198.724 418.852 198.562 418.336C198.406 417.82 198.328 417.255 198.328 416.641C198.328 416.026 198.406 415.461 198.562 414.945C198.724 414.43 198.951 413.966 199.242 413.555C199.539 413.143 199.893 412.784 200.305 412.477C200.716 412.164 201.174 411.904 201.68 411.695C202.185 411.487 202.729 411.331 203.312 411.227C203.896 411.122 204.508 411.07 205.148 411.07C205.664 411.07 206.141 411.096 206.578 411.148C207.016 411.201 207.432 411.273 207.828 411.367C208.224 411.461 208.604 411.573 208.969 411.703C209.339 411.828 209.711 411.969 210.086 412.125V413.297C209.789 413.109 209.471 412.932 209.133 412.766C208.794 412.599 208.427 412.453 208.031 412.328C207.641 412.203 207.221 412.104 206.773 412.031C206.326 411.958 205.846 411.922 205.336 411.922C204.305 411.922 203.411 412.034 202.656 412.258C201.901 412.482 201.276 412.799 200.781 413.211C200.292 413.617 199.927 414.112 199.688 414.695C199.453 415.273 199.336 415.922 199.336 416.641C199.336 417.359 199.453 418.008 199.688 418.586C199.927 419.164 200.292 419.659 200.781 420.07C201.276 420.477 201.901 420.792 202.656 421.016C203.411 421.234 204.305 421.344 205.336 421.344C205.846 421.344 206.328 421.307 206.781 421.234C207.24 421.161 207.667 421.062 208.062 420.938C208.464 420.812 208.831 420.669 209.164 420.508C209.503 420.341 209.81 420.167 210.086 419.984V421.148Z" fill="white"/>
<path d="M194.578 422V420.812C194.203 421.016 193.776 421.203 193.297 421.375C192.823 421.547 192.32 421.695 191.789 421.82C191.263 421.945 190.721 422.042 190.164 422.109C189.607 422.177 189.06 422.211 188.523 422.211C187.826 422.211 187.198 422.148 186.641 422.023C186.089 421.898 185.62 421.714 185.234 421.469C184.849 421.219 184.552 420.911 184.344 420.547C184.135 420.177 184.031 419.75 184.031 419.266C184.031 418.786 184.151 418.365 184.391 418C184.635 417.63 184.982 417.31 185.43 417.039C185.878 416.763 186.417 416.531 187.047 416.344C187.682 416.151 188.391 415.99 189.172 415.859C189.953 415.724 190.797 415.615 191.703 415.531C192.615 415.443 193.573 415.37 194.578 415.312V414.492C194.578 414.159 194.516 413.865 194.391 413.609C194.266 413.354 194.091 413.133 193.867 412.945C193.643 412.753 193.38 412.594 193.078 412.469C192.776 412.339 192.448 412.234 192.094 412.156C191.745 412.078 191.375 412.023 190.984 411.992C190.599 411.956 190.211 411.938 189.82 411.938C189.294 411.938 188.815 411.964 188.383 412.016C187.951 412.068 187.547 412.141 187.172 412.234C186.797 412.323 186.438 412.427 186.094 412.547C185.75 412.667 185.404 412.794 185.055 412.93V411.789C185.779 411.596 186.549 411.43 187.367 411.289C188.19 411.143 189.062 411.07 189.984 411.07C190.766 411.07 191.495 411.138 192.172 411.273C192.849 411.404 193.438 411.615 193.938 411.906C194.438 412.198 194.831 412.576 195.117 413.039C195.404 413.497 195.547 414.057 195.547 414.719V422H194.578ZM194.578 416.18C192.875 416.273 191.419 416.406 190.211 416.578C189.008 416.75 188.023 416.961 187.258 417.211C186.492 417.461 185.93 417.753 185.57 418.086C185.216 418.419 185.039 418.797 185.039 419.219C185.039 419.562 185.125 419.867 185.297 420.133C185.474 420.398 185.727 420.622 186.055 420.805C186.383 420.982 186.781 421.117 187.25 421.211C187.719 421.299 188.245 421.344 188.828 421.344C189.172 421.344 189.526 421.326 189.891 421.289C190.26 421.247 190.628 421.193 190.992 421.125C191.357 421.052 191.716 420.969 192.07 420.875C192.424 420.776 192.758 420.669 193.07 420.555C193.383 420.44 193.667 420.318 193.922 420.188C194.182 420.057 194.401 419.924 194.578 419.789V416.18Z" fill="white"/>
<path d="M183.047 412.094C182.896 412.047 182.685 411.997 182.414 411.945C182.148 411.888 181.805 411.859 181.383 411.859C180.799 411.859 180.25 411.932 179.734 412.078C179.224 412.219 178.747 412.411 178.305 412.656C177.867 412.901 177.461 413.188 177.086 413.516C176.711 413.839 176.372 414.182 176.07 414.547V422H175.094V411.266H176.07V413.453C176.419 413.094 176.797 412.763 177.203 412.461C177.615 412.159 178.047 411.901 178.5 411.688C178.953 411.469 179.427 411.299 179.922 411.18C180.422 411.055 180.938 410.992 181.469 410.992C181.651 410.992 181.815 410.997 181.961 411.008C182.107 411.013 182.24 411.023 182.359 411.039C182.484 411.049 182.602 411.062 182.711 411.078C182.82 411.094 182.932 411.112 183.047 411.133V412.094Z" fill="white"/>
<path d="M168.102 412.156V422H167.133V412.156H162.25V411.266H172.984V412.156H168.102Z" fill="white"/>
<path d="M159.203 422V414.914C159.203 414.32 159.122 413.833 158.961 413.453C158.805 413.068 158.578 412.763 158.281 412.539C157.99 412.315 157.633 412.159 157.211 412.07C156.789 411.982 156.315 411.938 155.789 411.938C155.18 411.938 154.581 412.013 153.992 412.164C153.409 412.31 152.857 412.497 152.336 412.727C151.815 412.951 151.336 413.201 150.898 413.477C150.461 413.753 150.091 414.018 149.789 414.273V422H148.812V411.266H149.789V413.148C150.154 412.919 150.555 412.68 150.992 412.43C151.435 412.174 151.909 411.943 152.414 411.734C152.924 411.521 153.469 411.346 154.047 411.211C154.625 411.076 155.234 411.008 155.875 411.008C156.599 411.008 157.229 411.096 157.766 411.273C158.307 411.445 158.755 411.693 159.109 412.016C159.469 412.333 159.737 412.721 159.914 413.18C160.091 413.633 160.18 414.141 160.18 414.703V422H159.203Z" fill="white"/>
<path d="M145.945 416.641C145.945 417.604 145.771 418.438 145.422 419.141C145.073 419.839 144.594 420.417 143.984 420.875C143.375 421.328 142.656 421.664 141.828 421.883C141 422.102 140.107 422.211 139.148 422.211C138.185 422.211 137.286 422.102 136.453 421.883C135.62 421.664 134.896 421.328 134.281 420.875C133.667 420.417 133.185 419.839 132.836 419.141C132.487 418.438 132.312 417.604 132.312 416.641C132.312 416 132.393 415.419 132.555 414.898C132.716 414.372 132.943 413.904 133.234 413.492C133.526 413.076 133.878 412.716 134.289 412.414C134.706 412.112 135.167 411.862 135.672 411.664C136.182 411.461 136.729 411.312 137.312 411.219C137.896 411.12 138.508 411.07 139.148 411.07C140.107 411.07 141 411.18 141.828 411.398C142.656 411.617 143.375 411.956 143.984 412.414C144.594 412.867 145.073 413.445 145.422 414.148C145.771 414.846 145.945 415.677 145.945 416.641ZM144.938 416.641C144.938 415.88 144.812 415.208 144.562 414.625C144.318 414.042 143.953 413.552 143.469 413.156C142.984 412.755 142.38 412.453 141.656 412.25C140.938 412.042 140.102 411.938 139.148 411.938C138.195 411.938 137.354 412.042 136.625 412.25C135.901 412.458 135.294 412.763 134.805 413.164C134.315 413.56 133.945 414.052 133.695 414.641C133.445 415.224 133.32 415.891 133.32 416.641C133.32 417.401 133.445 418.073 133.695 418.656C133.945 419.24 134.315 419.732 134.805 420.133C135.294 420.529 135.901 420.831 136.625 421.039C137.354 421.242 138.195 421.344 139.148 421.344C140.102 421.344 140.938 421.242 141.656 421.039C142.38 420.831 142.984 420.529 143.469 420.133C143.953 419.732 144.318 419.24 144.562 418.656C144.812 418.073 144.938 417.401 144.938 416.641Z" fill="white"/>
<path d="M130.164 421.148C129.789 421.305 129.417 421.448 129.047 421.578C128.682 421.708 128.302 421.82 127.906 421.914C127.51 422.008 127.094 422.081 126.656 422.133C126.219 422.185 125.742 422.211 125.227 422.211C124.591 422.211 123.979 422.159 123.391 422.055C122.807 421.951 122.263 421.794 121.758 421.586C121.253 421.378 120.794 421.12 120.383 420.812C119.971 420.5 119.617 420.138 119.32 419.727C119.029 419.315 118.802 418.852 118.641 418.336C118.484 417.82 118.406 417.255 118.406 416.641C118.406 416.026 118.484 415.461 118.641 414.945C118.802 414.43 119.029 413.966 119.32 413.555C119.617 413.143 119.971 412.784 120.383 412.477C120.794 412.164 121.253 411.904 121.758 411.695C122.263 411.487 122.807 411.331 123.391 411.227C123.974 411.122 124.586 411.07 125.227 411.07C125.742 411.07 126.219 411.096 126.656 411.148C127.094 411.201 127.51 411.273 127.906 411.367C128.302 411.461 128.682 411.573 129.047 411.703C129.417 411.828 129.789 411.969 130.164 412.125V413.297C129.867 413.109 129.549 412.932 129.211 412.766C128.872 412.599 128.505 412.453 128.109 412.328C127.719 412.203 127.299 412.104 126.852 412.031C126.404 411.958 125.924 411.922 125.414 411.922C124.383 411.922 123.49 412.034 122.734 412.258C121.979 412.482 121.354 412.799 120.859 413.211C120.37 413.617 120.005 414.112 119.766 414.695C119.531 415.273 119.414 415.922 119.414 416.641C119.414 417.359 119.531 418.008 119.766 418.586C120.005 419.164 120.37 419.659 120.859 420.07C121.354 420.477 121.979 420.792 122.734 421.016C123.49 421.234 124.383 421.344 125.414 421.344C125.924 421.344 126.406 421.307 126.859 421.234C127.318 421.161 127.745 421.062 128.141 420.938C128.542 420.812 128.909 420.669 129.242 420.508C129.581 420.341 129.888 420.167 130.164 419.984V421.148Z" fill="white"/>
<path d="M106.148 412.156V422H105.18V412.156H100.297V411.266H111.031V412.156H106.148Z" fill="white"/>
<path d="M99.9844 412.094C99.8333 412.047 99.6224 411.997 99.3516 411.945C99.0859 411.888 98.7422 411.859 98.3203 411.859C97.737 411.859 97.1875 411.932 96.6719 412.078C96.1615 412.219 95.6849 412.411 95.2422 412.656C94.8047 412.901 94.3984 413.188 94.0234 413.516C93.6484 413.839 93.3099 414.182 93.0078 414.547V422H92.0312V411.266H93.0078V413.453C93.3568 413.094 93.7344 412.763 94.1406 412.461C94.5521 412.159 94.9844 411.901 95.4375 411.688C95.8906 411.469 96.3646 411.299 96.8594 411.18C97.3594 411.055 97.875 410.992 98.4062 410.992C98.5885 410.992 98.7526 410.997 98.8984 411.008C99.0443 411.013 99.1771 411.023 99.2969 411.039C99.4219 411.049 99.5391 411.062 99.6484 411.078C99.7578 411.094 99.8698 411.112 99.9844 411.133V412.094Z" fill="white"/>
<path d="M87.5312 422V420.812C87.1562 421.016 86.7292 421.203 86.25 421.375C85.776 421.547 85.2734 421.695 84.7422 421.82C84.2161 421.945 83.6745 422.042 83.1172 422.109C82.5599 422.177 82.013 422.211 81.4766 422.211C80.7786 422.211 80.151 422.148 79.5938 422.023C79.0417 421.898 78.5729 421.714 78.1875 421.469C77.8021 421.219 77.5052 420.911 77.2969 420.547C77.0885 420.177 76.9844 419.75 76.9844 419.266C76.9844 418.786 77.1042 418.365 77.3438 418C77.5885 417.63 77.9349 417.31 78.3828 417.039C78.8307 416.763 79.3698 416.531 80 416.344C80.6354 416.151 81.3438 415.99 82.125 415.859C82.9062 415.724 83.75 415.615 84.6562 415.531C85.5677 415.443 86.526 415.37 87.5312 415.312V414.492C87.5312 414.159 87.4688 413.865 87.3438 413.609C87.2188 413.354 87.0443 413.133 86.8203 412.945C86.5964 412.753 86.3333 412.594 86.0312 412.469C85.7292 412.339 85.401 412.234 85.0469 412.156C84.6979 412.078 84.3281 412.023 83.9375 411.992C83.5521 411.956 83.1641 411.938 82.7734 411.938C82.2474 411.938 81.7682 411.964 81.3359 412.016C80.9036 412.068 80.5 412.141 80.125 412.234C79.75 412.323 79.3906 412.427 79.0469 412.547C78.7031 412.667 78.3568 412.794 78.0078 412.93V411.789C78.7318 411.596 79.5026 411.43 80.3203 411.289C81.1432 411.143 82.0156 411.07 82.9375 411.07C83.7188 411.07 84.4479 411.138 85.125 411.273C85.8021 411.404 86.3906 411.615 86.8906 411.906C87.3906 412.198 87.7839 412.576 88.0703 413.039C88.3568 413.497 88.5 414.057 88.5 414.719V422H87.5312ZM87.5312 416.18C85.8281 416.273 84.3724 416.406 83.1641 416.578C81.9609 416.75 80.9766 416.961 80.2109 417.211C79.4453 417.461 78.8828 417.753 78.5234 418.086C78.1693 418.419 77.9922 418.797 77.9922 419.219C77.9922 419.562 78.0781 419.867 78.25 420.133C78.4271 420.398 78.6797 420.622 79.0078 420.805C79.3359 420.982 79.7344 421.117 80.2031 421.211C80.6719 421.299 81.1979 421.344 81.7812 421.344C82.125 421.344 82.4792 421.326 82.8438 421.289C83.2135 421.247 83.5807 421.193 83.9453 421.125C84.3099 421.052 84.6693 420.969 85.0234 420.875C85.3776 420.776 85.7109 420.669 86.0234 420.555C86.3359 420.44 86.6198 420.318 86.875 420.188C87.1354 420.057 87.3542 419.924 87.5312 419.789V416.18Z" fill="white"/>
<path d="M58.8516 411.266V412.914C59.0807 412.716 59.3359 412.505 59.6172 412.281C59.8984 412.057 60.2083 411.852 60.5469 411.664C60.8854 411.477 61.2526 411.32 61.6484 411.195C62.0443 411.07 62.4688 411.008 62.9219 411.008C63.6458 411.008 64.2865 411.172 64.8438 411.5C65.401 411.823 65.8516 412.326 66.1953 413.008C66.5286 412.701 66.8724 412.424 67.2266 412.18C67.5807 411.93 67.9427 411.719 68.3125 411.547C68.6875 411.375 69.0729 411.242 69.4688 411.148C69.8646 411.055 70.2734 411.008 70.6953 411.008C71.2318 411.008 71.7188 411.099 72.1562 411.281C72.599 411.464 72.974 411.714 73.2812 412.031C73.5885 412.349 73.8255 412.724 73.9922 413.156C74.1641 413.583 74.25 414.042 74.25 414.531V422H73.2734V414.781C73.2734 414.333 73.2188 413.935 73.1094 413.586C73.0052 413.232 72.8385 412.932 72.6094 412.688C72.3854 412.443 72.0964 412.258 71.7422 412.133C71.3932 412.003 70.974 411.938 70.4844 411.938C70.0938 411.938 69.7057 411.995 69.3203 412.109C68.9401 412.219 68.5755 412.367 68.2266 412.555C67.8776 412.737 67.5521 412.945 67.25 413.18C66.9479 413.414 66.6823 413.656 66.4531 413.906C66.4792 414.052 66.4922 414.177 66.4922 414.281C66.4974 414.385 66.5 414.51 66.5 414.656V422H65.5234V414.781C65.5234 414.25 65.4531 413.805 65.3125 413.445C65.1719 413.081 64.9766 412.786 64.7266 412.562C64.4766 412.339 64.1797 412.18 63.8359 412.086C63.4974 411.987 63.1276 411.938 62.7266 411.938C62.3464 411.938 61.9688 412.003 61.5938 412.133C61.224 412.263 60.8698 412.432 60.5312 412.641C60.1927 412.849 59.8802 413.083 59.5938 413.344C59.3073 413.599 59.0599 413.854 58.8516 414.109V422H57.875V411.266H58.8516Z" fill="white"/>
<path d="M53.9531 412.852C53.75 412.753 53.5156 412.648 53.25 412.539C52.9844 412.424 52.6797 412.323 52.3359 412.234C51.9974 412.146 51.6146 412.073 51.1875 412.016C50.7604 411.953 50.2865 411.922 49.7656 411.922C49.1354 411.922 48.5729 411.958 48.0781 412.031C47.5885 412.104 47.1719 412.219 46.8281 412.375C46.4896 412.526 46.2292 412.719 46.0469 412.953C45.8698 413.188 45.7812 413.466 45.7812 413.789C45.7812 414.06 45.8646 414.297 46.0312 414.5C46.2031 414.703 46.4323 414.883 46.7188 415.039C47.0104 415.195 47.349 415.339 47.7344 415.469C48.125 415.594 48.5365 415.714 48.9688 415.828C49.4062 415.938 49.8542 416.049 50.3125 416.164C50.776 416.279 51.224 416.404 51.6562 416.539C52.0938 416.669 52.5052 416.818 52.8906 416.984C53.2812 417.146 53.6198 417.336 53.9062 417.555C54.1979 417.773 54.4271 418.023 54.5938 418.305C54.7656 418.586 54.8516 418.911 54.8516 419.281C54.8516 419.682 54.776 420.034 54.625 420.336C54.474 420.633 54.2682 420.891 54.0078 421.109C53.7526 421.323 53.4505 421.503 53.1016 421.648C52.7578 421.789 52.388 421.901 51.9922 421.984C51.6016 422.068 51.1953 422.125 50.7734 422.156C50.3568 422.193 49.9453 422.211 49.5391 422.211C48.6068 422.211 47.7604 422.143 47 422.008C46.2448 421.872 45.5234 421.688 44.8359 421.453V420.258C45.5443 420.68 46.2917 420.969 47.0781 421.125C47.8698 421.281 48.7005 421.359 49.5703 421.359C50.1849 421.359 50.7526 421.323 51.2734 421.25C51.7943 421.177 52.2448 421.062 52.625 420.906C53.0052 420.745 53.2995 420.536 53.5078 420.281C53.7214 420.026 53.8281 419.714 53.8281 419.344C53.8281 419.047 53.7422 418.786 53.5703 418.562C53.4036 418.339 53.1745 418.143 52.8828 417.977C52.5964 417.805 52.2578 417.654 51.8672 417.523C51.4818 417.393 51.0729 417.273 50.6406 417.164C50.2083 417.049 49.7604 416.94 49.2969 416.836C48.8385 416.727 48.3932 416.609 47.9609 416.484C47.5286 416.359 47.1172 416.219 46.7266 416.062C46.3411 415.906 46.0026 415.724 45.7109 415.516C45.4245 415.302 45.1953 415.057 45.0234 414.781C44.8568 414.505 44.7734 414.185 44.7734 413.82C44.7734 413.461 44.8411 413.143 44.9766 412.867C45.112 412.586 45.2969 412.344 45.5312 412.141C45.7708 411.938 46.0495 411.768 46.3672 411.633C46.6849 411.492 47.0234 411.383 47.3828 411.305C47.7474 411.221 48.125 411.161 48.5156 411.125C48.9062 411.089 49.2917 411.07 49.6719 411.07C50.0885 411.07 50.4818 411.089 50.8516 411.125C51.2266 411.161 51.5859 411.211 51.9297 411.273C52.2786 411.331 52.6172 411.398 52.9453 411.477C53.2786 411.555 53.6146 411.638 53.9531 411.727V412.852Z" fill="white"/>
<path d="M161.656 394.289C161.656 394.773 161.695 395.19 161.773 395.539C161.852 395.888 162.016 396.174 162.266 396.398C162.516 396.622 162.875 396.789 163.344 396.898C163.818 397.003 164.445 397.055 165.227 397.055H170.078V398H165.031C164.172 398 163.461 397.932 162.898 397.797C162.341 397.656 161.896 397.443 161.562 397.156C161.234 396.865 161.005 396.497 160.875 396.055C160.745 395.612 160.68 395.086 160.68 394.477V387.266H161.656V394.289Z" fill="white"/>
<path d="M156.938 397.438C156.5 397.573 156.094 397.69 155.719 397.789C155.344 397.883 154.974 397.958 154.609 398.016C154.245 398.078 153.872 398.122 153.492 398.148C153.117 398.18 152.703 398.195 152.25 398.195C151.198 398.195 150.247 398.068 149.398 397.812C148.549 397.557 147.826 397.193 147.227 396.719C146.633 396.24 146.174 395.661 145.852 394.984C145.529 394.307 145.367 393.547 145.367 392.703C145.367 391.885 145.521 391.135 145.828 390.453C146.141 389.771 146.576 389.185 147.133 388.695C147.69 388.206 148.357 387.826 149.133 387.555C149.909 387.284 150.766 387.148 151.703 387.148C152.677 387.148 153.544 387.279 154.305 387.539C155.065 387.799 155.706 388.172 156.227 388.656C156.747 389.141 157.143 389.729 157.414 390.422C157.685 391.109 157.82 391.885 157.82 392.75V392.992H146.375C146.432 393.659 146.599 394.26 146.875 394.797C147.151 395.333 147.542 395.789 148.047 396.164C148.557 396.539 149.182 396.828 149.922 397.031C150.667 397.229 151.534 397.328 152.523 397.328C152.945 397.328 153.372 397.299 153.805 397.242C154.237 397.185 154.651 397.109 155.047 397.016C155.443 396.917 155.805 396.807 156.133 396.688C156.461 396.562 156.729 396.435 156.938 396.305V397.438ZM156.859 392.141C156.823 391.594 156.701 391.073 156.492 390.578C156.284 390.078 155.971 389.638 155.555 389.258C155.143 388.878 154.617 388.576 153.977 388.352C153.341 388.128 152.578 388.016 151.688 388.016C150.849 388.016 150.115 388.128 149.484 388.352C148.854 388.576 148.32 388.878 147.883 389.258C147.445 389.633 147.102 390.07 146.852 390.57C146.602 391.065 146.443 391.589 146.375 392.141H156.859Z" fill="white"/>
<path d="M143.273 392.625C143.273 393.312 143.201 393.924 143.055 394.461C142.914 394.992 142.714 395.456 142.453 395.852C142.193 396.247 141.875 396.583 141.5 396.859C141.13 397.135 140.716 397.357 140.258 397.523C139.805 397.69 139.31 397.812 138.773 397.891C138.242 397.964 137.682 398 137.094 398H131.555V387.266H137.078C137.958 387.266 138.776 387.352 139.531 387.523C140.286 387.695 140.94 387.99 141.492 388.406C142.049 388.818 142.484 389.367 142.797 390.055C143.115 390.742 143.273 391.599 143.273 392.625ZM142.266 392.625C142.266 392.042 142.208 391.526 142.094 391.078C141.979 390.63 141.815 390.242 141.602 389.914C141.388 389.581 141.128 389.302 140.82 389.078C140.513 388.854 140.167 388.674 139.781 388.539C139.396 388.398 138.977 388.299 138.523 388.242C138.07 388.185 137.589 388.156 137.078 388.156H132.531V397.102H137.078C137.844 397.102 138.544 397.034 139.18 396.898C139.815 396.758 140.359 396.518 140.812 396.18C141.271 395.836 141.628 395.378 141.883 394.805C142.138 394.227 142.266 393.5 142.266 392.625Z" fill="white"/>
<path d="M128.688 392.641C128.688 393.604 128.513 394.438 128.164 395.141C127.815 395.839 127.336 396.417 126.727 396.875C126.117 397.328 125.398 397.664 124.57 397.883C123.742 398.102 122.849 398.211 121.891 398.211C120.927 398.211 120.029 398.102 119.195 397.883C118.362 397.664 117.638 397.328 117.023 396.875C116.409 396.417 115.927 395.839 115.578 395.141C115.229 394.438 115.055 393.604 115.055 392.641C115.055 392 115.135 391.419 115.297 390.898C115.458 390.372 115.685 389.904 115.977 389.492C116.268 389.076 116.62 388.716 117.031 388.414C117.448 388.112 117.909 387.862 118.414 387.664C118.924 387.461 119.471 387.312 120.055 387.219C120.638 387.12 121.25 387.07 121.891 387.07C122.849 387.07 123.742 387.18 124.57 387.398C125.398 387.617 126.117 387.956 126.727 388.414C127.336 388.867 127.815 389.445 128.164 390.148C128.513 390.846 128.688 391.677 128.688 392.641ZM127.68 392.641C127.68 391.88 127.555 391.208 127.305 390.625C127.06 390.042 126.695 389.552 126.211 389.156C125.727 388.755 125.122 388.453 124.398 388.25C123.68 388.042 122.844 387.938 121.891 387.938C120.938 387.938 120.096 388.042 119.367 388.25C118.643 388.458 118.036 388.763 117.547 389.164C117.057 389.56 116.688 390.052 116.438 390.641C116.188 391.224 116.062 391.891 116.062 392.641C116.062 393.401 116.188 394.073 116.438 394.656C116.688 395.24 117.057 395.732 117.547 396.133C118.036 396.529 118.643 396.831 119.367 397.039C120.096 397.242 120.938 397.344 121.891 397.344C122.844 397.344 123.68 397.242 124.398 397.039C125.122 396.831 125.727 396.529 126.211 396.133C126.695 395.732 127.06 395.24 127.305 394.656C127.555 394.073 127.68 393.401 127.68 392.641Z" fill="white"/>
<path d="M111.219 398V388.867L105.32 398H104.453L98.5469 388.828V398H97.5703V387.266H98.6172L104.914 396.992L111.141 387.266H112.18V398H111.219Z" fill="white"/>
<path d="M1 205C1 196.716 7.71573 190 16 190H250C258.284 190 265 196.716 265 205V265C265 273.284 258.284 280 250 280H16C7.71573 280 1 273.284 1 265V205Z" fill="black"/>
<path fill-rule="evenodd" clip-rule="evenodd" d="M250 191H16C8.26801 191 2 197.268 2 205V265C2 272.732 8.26801 279 16 279H250C257.732 279 264 272.732 264 265V205C264 197.268 257.732 191 250 191ZM16 190C7.71573 190 1 196.716 1 205V265C1 273.284 7.71573 280 16 280H250C258.284 280 265 273.284 265 265V205C265 196.716 258.284 190 250 190H16Z" fill="white"/>
<path d="M151.227 235.641C151.227 236.604 151.052 237.438 150.703 238.141C150.354 238.839 149.875 239.417 149.266 239.875C148.656 240.328 147.938 240.664 147.109 240.883C146.281 241.102 145.388 241.211 144.43 241.211C143.466 241.211 142.568 241.102 141.734 240.883C140.901 240.664 140.177 240.328 139.562 239.875C138.948 239.417 138.466 238.839 138.117 238.141C137.768 237.438 137.594 236.604 137.594 235.641C137.594 235 137.674 234.419 137.836 233.898C137.997 233.372 138.224 232.904 138.516 232.492C138.807 232.076 139.159 231.716 139.57 231.414C139.987 231.112 140.448 230.862 140.953 230.664C141.464 230.461 142.01 230.312 142.594 230.219C143.177 230.12 143.789 230.07 144.43 230.07C145.388 230.07 146.281 230.18 147.109 230.398C147.938 230.617 148.656 230.956 149.266 231.414C149.875 231.867 150.354 232.445 150.703 233.148C151.052 233.846 151.227 234.677 151.227 235.641ZM150.219 235.641C150.219 234.88 150.094 234.208 149.844 233.625C149.599 233.042 149.234 232.552 148.75 232.156C148.266 231.755 147.661 231.453 146.938 231.25C146.219 231.042 145.383 230.938 144.43 230.938C143.477 230.938 142.635 231.042 141.906 231.25C141.182 231.458 140.576 231.763 140.086 232.164C139.596 232.56 139.227 233.052 138.977 233.641C138.727 234.224 138.602 234.891 138.602 235.641C138.602 236.401 138.727 237.073 138.977 237.656C139.227 238.24 139.596 238.732 140.086 239.133C140.576 239.529 141.182 239.831 141.906 240.039C142.635 240.242 143.477 240.344 144.43 240.344C145.383 240.344 146.219 240.242 146.938 240.039C147.661 239.831 148.266 239.529 148.75 239.133C149.234 238.732 149.599 238.24 149.844 237.656C150.094 237.073 150.219 236.401 150.219 235.641Z" fill="white"/>
<path d="M133.758 241V231.867L127.859 241H126.992L121.086 231.828V241H120.109V230.266H121.156L127.453 239.992L133.68 230.266H134.719V241H133.758Z" fill="white"/>
<path d="M115.516 241V230.266H116.492V241H115.516Z" fill="white"/>
<path fill-rule="evenodd" clip-rule="evenodd" d="M133.53 348.53C133.237 348.823 132.763 348.823 132.47 348.53L127.697 343.757C127.404 343.464 127.404 342.99 127.697 342.697C127.99 342.404 128.464 342.404 128.757 342.697L132.25 346.189L132.25 292L133.75 292L133.75 346.189L137.243 342.697C137.536 342.404 138.01 342.404 138.303 342.697C138.596 342.99 138.596 343.464 138.303 343.757L133.53 348.53Z" fill="white"/>
<path fill-rule="evenodd" clip-rule="evenodd" d="M133.53 178.53C133.237 178.823 132.763 178.823 132.47 178.53L127.697 173.757C127.404 173.464 127.404 172.99 127.697 172.697C127.99 172.404 128.464 172.404 128.757 172.697L132.25 176.189V140H133.75V176.189L137.243 172.697C137.536 172.404 138.01 172.404 138.303 172.697C138.596 172.99 138.596 173.464 138.303 173.757L133.53 178.53Z" fill="white"/>
<path fill-rule="evenodd" clip-rule="evenodd" d="M38.5303 500.53C38.2374 500.823 37.7626 500.823 37.4697 500.53L32.6967 495.757C32.4038 495.464 32.4038 494.99 32.6967 494.697C32.9896 494.404 33.4645 494.404 33.7574 494.697L37.25 498.189V462H38.75V498.189L42.2426 494.697C42.5355 494.404 43.0104 494.404 43.3033 494.697C43.5962 494.99 43.5962 495.464 43.3033 495.757L38.5303 500.53Z" fill="white"/>
<path fill-rule="evenodd" clip-rule="evenodd" d="M227.53 500.53C227.237 500.823 226.763 500.823 226.47 500.53L221.697 495.757C221.404 495.464 221.404 494.99 221.697 494.697C221.99 494.404 222.464 494.404 222.757 494.697L226.25 498.189V462H227.75V498.189L231.243 494.697C231.536 494.404 232.01 494.404 232.303 494.697C232.596 494.99 232.596 495.464 232.303 495.757L227.53 500.53Z" fill="white"/>
</svg>
